%TF.GenerationSoftware,KiCad,Pcbnew,8.0.4*%
%TF.CreationDate,2024-08-22T18:58:07-07:00*%
%TF.ProjectId,UDB,5544422e-6b69-4636-9164-5f7063625858,C4-RC1*%
%TF.SameCoordinates,Original*%
%TF.FileFunction,Legend,Top*%
%TF.FilePolarity,Positive*%
%FSLAX46Y46*%
G04 Gerber Fmt 4.6, Leading zero omitted, Abs format (unit mm)*
G04 Created by KiCad (PCBNEW 8.0.4) date 2024-08-22 18:58:07*
%MOMM*%
%LPD*%
G01*
G04 APERTURE LIST*
G04 Aperture macros list*
%AMRoundRect*
0 Rectangle with rounded corners*
0 $1 Rounding radius*
0 $2 $3 $4 $5 $6 $7 $8 $9 X,Y pos of 4 corners*
0 Add a 4 corners polygon primitive as box body*
4,1,4,$2,$3,$4,$5,$6,$7,$8,$9,$2,$3,0*
0 Add four circle primitives for the rounded corners*
1,1,$1+$1,$2,$3*
1,1,$1+$1,$4,$5*
1,1,$1+$1,$6,$7*
1,1,$1+$1,$8,$9*
0 Add four rect primitives between the rounded corners*
20,1,$1+$1,$2,$3,$4,$5,0*
20,1,$1+$1,$4,$5,$6,$7,0*
20,1,$1+$1,$6,$7,$8,$9,0*
20,1,$1+$1,$8,$9,$2,$3,0*%
G04 Aperture macros list end*
%ADD10C,0.125000*%
%ADD11C,0.000000*%
%ADD12C,0.120000*%
%ADD13C,0.400000*%
%ADD14C,0.100000*%
%ADD15C,0.150000*%
%ADD16RoundRect,0.250000X-0.625000X0.375000X-0.625000X-0.375000X0.625000X-0.375000X0.625000X0.375000X0*%
%ADD17C,3.500001*%
%ADD18RoundRect,0.135000X-0.185000X0.135000X-0.185000X-0.135000X0.185000X-0.135000X0.185000X0.135000X0*%
%ADD19RoundRect,0.100000X-0.250000X-0.400000X0.250000X-0.400000X0.250000X0.400000X-0.250000X0.400000X0*%
%ADD20RoundRect,0.125000X-0.250000X-0.475000X0.250000X-0.475000X0.250000X0.475000X-0.250000X0.475000X0*%
%ADD21O,1.300000X1.900000*%
%ADD22O,1.100000X2.200000*%
%ADD23RoundRect,0.075000X0.075000X0.650000X-0.075000X0.650000X-0.075000X-0.650000X0.075000X-0.650000X0*%
%ADD24RoundRect,0.150000X0.150000X0.575000X-0.150000X0.575000X-0.150000X-0.575000X0.150000X-0.575000X0*%
%ADD25C,0.650000*%
%ADD26RoundRect,0.125000X-0.000010X-0.150000X0.000010X-0.150000X0.000010X0.150000X-0.000010X0.150000X0*%
%ADD27R,0.250000X0.550000*%
%ADD28R,0.300000X0.550000*%
%ADD29RoundRect,0.250000X-0.250000X-0.350000X0.250000X-0.350000X0.250000X0.350000X-0.250000X0.350000X0*%
G04 APERTURE END LIST*
D10*
G36*
X81330102Y-62742497D02*
G01*
X81330102Y-62570550D01*
X81486417Y-62570550D01*
X81486417Y-63070760D01*
X81330102Y-63070760D01*
X81330102Y-62875365D01*
X81189418Y-62875365D01*
X81189418Y-63070760D01*
X81033102Y-63070760D01*
X81033102Y-62570550D01*
X81189418Y-62570550D01*
X81189418Y-62742497D01*
X81330102Y-62742497D01*
G37*
G36*
X82083347Y-63070760D02*
G01*
X81889418Y-63070760D01*
X81769006Y-62874755D01*
X81727729Y-62919695D01*
X81727729Y-63070760D01*
X81571414Y-63070760D01*
X81571414Y-62570550D01*
X81727729Y-62570550D01*
X81727729Y-62728575D01*
X81870489Y-62570550D01*
X82063685Y-62570550D01*
X81877572Y-62770097D01*
X82083347Y-63070760D01*
G37*
G36*
X82282160Y-62570550D02*
G01*
X82282160Y-62937891D01*
X82504910Y-62937891D01*
X82504910Y-63070760D01*
X82125845Y-63070760D01*
X82125845Y-62570550D01*
X82282160Y-62570550D01*
G37*
G36*
X81174275Y-63910760D02*
G01*
X80752223Y-63910760D01*
X80753365Y-63883620D01*
X80756791Y-63858713D01*
X80763675Y-63832476D01*
X80773668Y-63809279D01*
X80784707Y-63791813D01*
X80802104Y-63771430D01*
X80822085Y-63752471D01*
X80842311Y-63735622D01*
X80865786Y-63717819D01*
X80886907Y-63702890D01*
X80910107Y-63687350D01*
X80916232Y-63683369D01*
X80975583Y-63644657D01*
X80995796Y-63629997D01*
X81014679Y-63612426D01*
X81017959Y-63608387D01*
X81028621Y-63586235D01*
X81030049Y-63573582D01*
X81024678Y-63548501D01*
X81013074Y-63534015D01*
X80991170Y-63523057D01*
X80965203Y-63519971D01*
X80940633Y-63522860D01*
X80918394Y-63533535D01*
X80901450Y-63555366D01*
X80894036Y-63582896D01*
X80892907Y-63602159D01*
X80892907Y-63608631D01*
X80760039Y-63608631D01*
X80760039Y-63587016D01*
X80761368Y-63559571D01*
X80765358Y-63534100D01*
X80773655Y-63506141D01*
X80785782Y-63481023D01*
X80801739Y-63458748D01*
X80814505Y-63445477D01*
X80836565Y-63428295D01*
X80861897Y-63414668D01*
X80885507Y-63406028D01*
X80911388Y-63399856D01*
X80939541Y-63396153D01*
X80969965Y-63394919D01*
X80998602Y-63395980D01*
X81025283Y-63399164D01*
X81050007Y-63404471D01*
X81077095Y-63413642D01*
X81101367Y-63425869D01*
X81119442Y-63438394D01*
X81138077Y-63456019D01*
X81152856Y-63476290D01*
X81163779Y-63499205D01*
X81170848Y-63524764D01*
X81174060Y-63552969D01*
X81174275Y-63562958D01*
X81172786Y-63587817D01*
X81167554Y-63613320D01*
X81158554Y-63636216D01*
X81150461Y-63650030D01*
X81133998Y-63670637D01*
X81114791Y-63689068D01*
X81094453Y-63705283D01*
X81074397Y-63719246D01*
X81067174Y-63723914D01*
X80980468Y-63779235D01*
X80969965Y-63785707D01*
X81174275Y-63785707D01*
X81174275Y-63910760D01*
G37*
G36*
X81511236Y-63396052D02*
G01*
X81540318Y-63400657D01*
X81567581Y-63408803D01*
X81593026Y-63420492D01*
X81616652Y-63435722D01*
X81638459Y-63454495D01*
X81650670Y-63467459D01*
X81668965Y-63491175D01*
X81684158Y-63517061D01*
X81696251Y-63545118D01*
X81703693Y-63569126D01*
X81709150Y-63594524D01*
X81712623Y-63621310D01*
X81714111Y-63649486D01*
X81714173Y-63656747D01*
X81713181Y-63685272D01*
X81710204Y-63712411D01*
X81705243Y-63738166D01*
X81698298Y-63762535D01*
X81689367Y-63785518D01*
X81675414Y-63812300D01*
X81658360Y-63836917D01*
X81650670Y-63846157D01*
X81629954Y-63867020D01*
X81607420Y-63884346D01*
X81583066Y-63898137D01*
X81556894Y-63908391D01*
X81528904Y-63915110D01*
X81499094Y-63918292D01*
X81486661Y-63918575D01*
X81461827Y-63917444D01*
X81432463Y-63912847D01*
X81404966Y-63904714D01*
X81379336Y-63893045D01*
X81355571Y-63877840D01*
X81333674Y-63859099D01*
X81321431Y-63846157D01*
X81302961Y-63822213D01*
X81287621Y-63796176D01*
X81277603Y-63773839D01*
X81269589Y-63750163D01*
X81263578Y-63725147D01*
X81259571Y-63698792D01*
X81257568Y-63671097D01*
X81257317Y-63656747D01*
X81401543Y-63656747D01*
X81402277Y-63683258D01*
X81404989Y-63710704D01*
X81410536Y-63737478D01*
X81419896Y-63761740D01*
X81422425Y-63766290D01*
X81439492Y-63786244D01*
X81461812Y-63797916D01*
X81486661Y-63801339D01*
X81514966Y-63796255D01*
X81537414Y-63781005D01*
X81551648Y-63760531D01*
X81561814Y-63732997D01*
X81567020Y-63705886D01*
X81569623Y-63674256D01*
X81569948Y-63656747D01*
X81569235Y-63630004D01*
X81566602Y-63602396D01*
X81561217Y-63575580D01*
X81552131Y-63551453D01*
X81549676Y-63546960D01*
X81533083Y-63527144D01*
X81511181Y-63515554D01*
X81486661Y-63512155D01*
X81461462Y-63515554D01*
X81439004Y-63527144D01*
X81422059Y-63546960D01*
X81412141Y-63569666D01*
X81406051Y-63595218D01*
X81402825Y-63621721D01*
X81401623Y-63647517D01*
X81401543Y-63656747D01*
X81257317Y-63656747D01*
X81258319Y-63628384D01*
X81261324Y-63601365D01*
X81266333Y-63575689D01*
X81273346Y-63551356D01*
X81282362Y-63528367D01*
X81296449Y-63501519D01*
X81313667Y-63476770D01*
X81321431Y-63467459D01*
X81342209Y-63446561D01*
X81364853Y-63429205D01*
X81389364Y-63415391D01*
X81415741Y-63405120D01*
X81443985Y-63398390D01*
X81474095Y-63395202D01*
X81486661Y-63394919D01*
X81511236Y-63396052D01*
G37*
G36*
X82231358Y-63910760D02*
G01*
X81809306Y-63910760D01*
X81810448Y-63883620D01*
X81813874Y-63858713D01*
X81820758Y-63832476D01*
X81830751Y-63809279D01*
X81841790Y-63791813D01*
X81859187Y-63771430D01*
X81879168Y-63752471D01*
X81899394Y-63735622D01*
X81922869Y-63717819D01*
X81943990Y-63702890D01*
X81967190Y-63687350D01*
X81973315Y-63683369D01*
X82032666Y-63644657D01*
X82052879Y-63629997D01*
X82071762Y-63612426D01*
X82075042Y-63608387D01*
X82085704Y-63586235D01*
X82087132Y-63573582D01*
X82081761Y-63548501D01*
X82070157Y-63534015D01*
X82048253Y-63523057D01*
X82022286Y-63519971D01*
X81997716Y-63522860D01*
X81975477Y-63533535D01*
X81958533Y-63555366D01*
X81951119Y-63582896D01*
X81949990Y-63602159D01*
X81949990Y-63608631D01*
X81817122Y-63608631D01*
X81817122Y-63587016D01*
X81818451Y-63559571D01*
X81822441Y-63534100D01*
X81830738Y-63506141D01*
X81842865Y-63481023D01*
X81858822Y-63458748D01*
X81871588Y-63445477D01*
X81893648Y-63428295D01*
X81918981Y-63414668D01*
X81942590Y-63406028D01*
X81968471Y-63399856D01*
X81996624Y-63396153D01*
X82027048Y-63394919D01*
X82055685Y-63395980D01*
X82082366Y-63399164D01*
X82107090Y-63404471D01*
X82134179Y-63413642D01*
X82158450Y-63425869D01*
X82176525Y-63438394D01*
X82195160Y-63456019D01*
X82209939Y-63476290D01*
X82220862Y-63499205D01*
X82227931Y-63524764D01*
X82231143Y-63552969D01*
X82231358Y-63562958D01*
X82229869Y-63587817D01*
X82224637Y-63613320D01*
X82215637Y-63636216D01*
X82207544Y-63650030D01*
X82191081Y-63670637D01*
X82171874Y-63689068D01*
X82151536Y-63705283D01*
X82131480Y-63719246D01*
X82124257Y-63723914D01*
X82037551Y-63779235D01*
X82027048Y-63785707D01*
X82231358Y-63785707D01*
X82231358Y-63910760D01*
G37*
G36*
X82700914Y-63691918D02*
G01*
X82771623Y-63691918D01*
X82771623Y-63801339D01*
X82700914Y-63801339D01*
X82700914Y-63910760D01*
X82556689Y-63910760D01*
X82556689Y-63801339D01*
X82326124Y-63801339D01*
X82326124Y-63691918D01*
X82437499Y-63691918D01*
X82556689Y-63691918D01*
X82556689Y-63555875D01*
X82553880Y-63555875D01*
X82437499Y-63691918D01*
X82326124Y-63691918D01*
X82326124Y-63684102D01*
X82554613Y-63410550D01*
X82700914Y-63410550D01*
X82700914Y-63691918D01*
G37*
D11*
G36*
X82511258Y-60770492D02*
G01*
X82515457Y-60770679D01*
X82518887Y-60771065D01*
X82520911Y-60771575D01*
X82521082Y-60771679D01*
X82522691Y-60772501D01*
X82525788Y-60773769D01*
X82529805Y-60775255D01*
X82531384Y-60775804D01*
X82535382Y-60777263D01*
X82538454Y-60778549D01*
X82540132Y-60779461D01*
X82540309Y-60779684D01*
X82541196Y-60780637D01*
X82542401Y-60781170D01*
X82544012Y-60782460D01*
X82545959Y-60785084D01*
X82547268Y-60787405D01*
X82549579Y-60794181D01*
X82549936Y-60801038D01*
X82548326Y-60807537D01*
X82547881Y-60808522D01*
X82546569Y-60811525D01*
X82545798Y-60813844D01*
X82545711Y-60814405D01*
X82545233Y-60816355D01*
X82544282Y-60818535D01*
X82543322Y-60820725D01*
X82541913Y-60824366D01*
X82540285Y-60828854D01*
X82539361Y-60831517D01*
X82537497Y-60836862D01*
X82535526Y-60842331D01*
X82533777Y-60847011D01*
X82533218Y-60848447D01*
X82531843Y-60852246D01*
X82530887Y-60855519D01*
X82530574Y-60857372D01*
X82530238Y-60859177D01*
X82529748Y-60859621D01*
X82529069Y-60860580D01*
X82528061Y-60863103D01*
X82526933Y-60866659D01*
X82526857Y-60866924D01*
X82525620Y-60870942D01*
X82524388Y-60874365D01*
X82523461Y-60876389D01*
X82522303Y-60878980D01*
X82521367Y-60882206D01*
X82521359Y-60882248D01*
X82520197Y-60885885D01*
X82518552Y-60889280D01*
X82517175Y-60892003D01*
X82516522Y-60894207D01*
X82516514Y-60894374D01*
X82516225Y-60895892D01*
X82515306Y-60898549D01*
X82513677Y-60902549D01*
X82511251Y-60908096D01*
X82508223Y-60914792D01*
X82506594Y-60918271D01*
X82505198Y-60921103D01*
X82504515Y-60922364D01*
X82503330Y-60924609D01*
X82502381Y-60926691D01*
X82501444Y-60928794D01*
X82499829Y-60932292D01*
X82497798Y-60936628D01*
X82496357Y-60939672D01*
X82494074Y-60944500D01*
X82491918Y-60949093D01*
X82490202Y-60952788D01*
X82489522Y-60954276D01*
X82488250Y-60957032D01*
X82486324Y-60961134D01*
X82484027Y-60965979D01*
X82482125Y-60969962D01*
X82478842Y-60976869D01*
X82476213Y-60982554D01*
X82473922Y-60987729D01*
X82471655Y-60993104D01*
X82469402Y-60998629D01*
X82467810Y-61002451D01*
X82466435Y-61005533D01*
X82465546Y-61007279D01*
X82465480Y-61007376D01*
X82464594Y-61009085D01*
X82463437Y-61011918D01*
X82463075Y-61012913D01*
X82461999Y-61015601D01*
X82460216Y-61019671D01*
X82457977Y-61024564D01*
X82455597Y-61029587D01*
X82453067Y-61035089D01*
X82450711Y-61040664D01*
X82448814Y-61045622D01*
X82447743Y-61048932D01*
X82446641Y-61052661D01*
X82445620Y-61055572D01*
X82444930Y-61056990D01*
X82444110Y-61058930D01*
X82444031Y-61059715D01*
X82443616Y-61061518D01*
X82442539Y-61064658D01*
X82441053Y-61068516D01*
X82439412Y-61072468D01*
X82437867Y-61075891D01*
X82436673Y-61078168D01*
X82436341Y-61078627D01*
X82435468Y-61080558D01*
X82435377Y-61081388D01*
X82434919Y-61083291D01*
X82433743Y-61086303D01*
X82432737Y-61088474D01*
X82428827Y-61097364D01*
X82425519Y-61107122D01*
X82424677Y-61110051D01*
X82423281Y-61114279D01*
X82421282Y-61119387D01*
X82419085Y-61124345D01*
X82418846Y-61124841D01*
X82417010Y-61128755D01*
X82415614Y-61131972D01*
X82414881Y-61133964D01*
X82414823Y-61134277D01*
X82414411Y-61135807D01*
X82413342Y-61138637D01*
X82412119Y-61141526D01*
X82410665Y-61145181D01*
X82409683Y-61148353D01*
X82409414Y-61149971D01*
X82408807Y-61152763D01*
X82407970Y-61154434D01*
X82406852Y-61156725D01*
X82405644Y-61160129D01*
X82405115Y-61161976D01*
X82404000Y-61165869D01*
X82402817Y-61169447D01*
X82402364Y-61170631D01*
X82401243Y-61173345D01*
X82399661Y-61177164D01*
X82398193Y-61180703D01*
X82396579Y-61185021D01*
X82395271Y-61189299D01*
X82394653Y-61192062D01*
X82393858Y-61195473D01*
X82392765Y-61198262D01*
X82392487Y-61198726D01*
X82391327Y-61200966D01*
X82391024Y-61202254D01*
X82390605Y-61204029D01*
X82389548Y-61206882D01*
X82388967Y-61208234D01*
X82386019Y-61214869D01*
X82383791Y-61220071D01*
X82382076Y-61224361D01*
X82380666Y-61228262D01*
X82379353Y-61232294D01*
X82379185Y-61232832D01*
X82377503Y-61238178D01*
X82375614Y-61244044D01*
X82374113Y-61248599D01*
X82372846Y-61252729D01*
X82371927Y-61256374D01*
X82371545Y-61258783D01*
X82371543Y-61258877D01*
X82371332Y-61260498D01*
X82370664Y-61263145D01*
X82369467Y-61267038D01*
X82367673Y-61272399D01*
X82365210Y-61279446D01*
X82363705Y-61283675D01*
X82363164Y-61285334D01*
X82362149Y-61288560D01*
X82360817Y-61292852D01*
X82359647Y-61296657D01*
X82357960Y-61302066D01*
X82356241Y-61307413D01*
X82354739Y-61311930D01*
X82354032Y-61313965D01*
X82352748Y-61317743D01*
X82351737Y-61321091D01*
X82351358Y-61322619D01*
X82350518Y-61325622D01*
X82349405Y-61328569D01*
X82348041Y-61332385D01*
X82346799Y-61337018D01*
X82345907Y-61341504D01*
X82345590Y-61344724D01*
X82345098Y-61347606D01*
X82344051Y-61350387D01*
X82342899Y-61353112D01*
X82341530Y-61356950D01*
X82340584Y-61359941D01*
X82339437Y-61363518D01*
X82338400Y-61366274D01*
X82337795Y-61367459D01*
X82337159Y-61369225D01*
X82336936Y-61371543D01*
X82336564Y-61374233D01*
X82335604Y-61377966D01*
X82334671Y-61380792D01*
X82333197Y-61385027D01*
X82331857Y-61389206D01*
X82331248Y-61391312D01*
X82330310Y-61394171D01*
X82329388Y-61396022D01*
X82329155Y-61396262D01*
X82328497Y-61397590D01*
X82327743Y-61400396D01*
X82327188Y-61403294D01*
X82326355Y-61407722D01*
X82325184Y-61413038D01*
X82323999Y-61417815D01*
X82322924Y-61422440D01*
X82322143Y-61426906D01*
X82321818Y-61430278D01*
X82321816Y-61430394D01*
X82321470Y-61433497D01*
X82320641Y-61435719D01*
X82320344Y-61436059D01*
X82319326Y-61437718D01*
X82318201Y-61440754D01*
X82317459Y-61443494D01*
X82316438Y-61447419D01*
X82315347Y-61450865D01*
X82314719Y-61452432D01*
X82313782Y-61455133D01*
X82312919Y-61458837D01*
X82312631Y-61460544D01*
X82311718Y-61464977D01*
X82310357Y-61469739D01*
X82309784Y-61471362D01*
X82308583Y-61475154D01*
X82307842Y-61478701D01*
X82307728Y-61480081D01*
X82307210Y-61483204D01*
X82306140Y-61485490D01*
X82304979Y-61488088D01*
X82304517Y-61491042D01*
X82304212Y-61493620D01*
X82303523Y-61495085D01*
X82303495Y-61495104D01*
X82302703Y-61496474D01*
X82301948Y-61499133D01*
X82301778Y-61500030D01*
X82301116Y-61502886D01*
X82300362Y-61504686D01*
X82300163Y-61504894D01*
X82299528Y-61506193D01*
X82298860Y-61508935D01*
X82298501Y-61511119D01*
X82297725Y-61515170D01*
X82296469Y-61520104D01*
X82295162Y-61524370D01*
X82293840Y-61529056D01*
X82292912Y-61533841D01*
X82292590Y-61537405D01*
X82292407Y-61540756D01*
X82291947Y-61543215D01*
X82291617Y-61543896D01*
X82290793Y-61545644D01*
X82289803Y-61549092D01*
X82288750Y-61553792D01*
X82287740Y-61559296D01*
X82287201Y-61562773D01*
X82286500Y-61566807D01*
X82285665Y-61570484D01*
X82285228Y-61571968D01*
X82283707Y-61576463D01*
X82282545Y-61580171D01*
X82281591Y-61583694D01*
X82280693Y-61587636D01*
X82279700Y-61592601D01*
X82278682Y-61597983D01*
X82277871Y-61601223D01*
X82276898Y-61603617D01*
X82276520Y-61604149D01*
X82275707Y-61605982D01*
X82275289Y-61608917D01*
X82275275Y-61609573D01*
X82274875Y-61613427D01*
X82273845Y-61618245D01*
X82272445Y-61623020D01*
X82270930Y-61626737D01*
X82270869Y-61626853D01*
X82270239Y-61629086D01*
X82269889Y-61632366D01*
X82269866Y-61633442D01*
X82269574Y-61636805D01*
X82268804Y-61641330D01*
X82267714Y-61646108D01*
X82267555Y-61646707D01*
X82266222Y-61652192D01*
X82264981Y-61658242D01*
X82264122Y-61663378D01*
X82263494Y-61667336D01*
X82262857Y-61670385D01*
X82262336Y-61671954D01*
X82262267Y-61672032D01*
X82261852Y-61672493D01*
X82261422Y-61673478D01*
X82260864Y-61675377D01*
X82260066Y-61678579D01*
X82258911Y-61683472D01*
X82258804Y-61683930D01*
X82257856Y-61687520D01*
X82256904Y-61690381D01*
X82256396Y-61691476D01*
X82255643Y-61693440D01*
X82254877Y-61696637D01*
X82254550Y-61698508D01*
X82253818Y-61702612D01*
X82252789Y-61707537D01*
X82251986Y-61710976D01*
X82250964Y-61715415D01*
X82250094Y-61719720D01*
X82249658Y-61722334D01*
X82249057Y-61725388D01*
X82248301Y-61727554D01*
X82248117Y-61727845D01*
X82247377Y-61729702D01*
X82246508Y-61733470D01*
X82245556Y-61738902D01*
X82244565Y-61745751D01*
X82243949Y-61750618D01*
X82243321Y-61754798D01*
X82242566Y-61758359D01*
X82241846Y-61760538D01*
X82241838Y-61760553D01*
X82241174Y-61762834D01*
X82240719Y-61766361D01*
X82240596Y-61769051D01*
X82240334Y-61772703D01*
X82239695Y-61777137D01*
X82238804Y-61781753D01*
X82237794Y-61785954D01*
X82236787Y-61789140D01*
X82235991Y-61790644D01*
X82235537Y-61792098D01*
X82235274Y-61794870D01*
X82235249Y-61796120D01*
X82235033Y-61799574D01*
X82234466Y-61804174D01*
X82233668Y-61808955D01*
X82233622Y-61809192D01*
X82232197Y-61816644D01*
X82231157Y-61822524D01*
X82230424Y-61827365D01*
X82229925Y-61831709D01*
X82229578Y-61836094D01*
X82229443Y-61838394D01*
X82229073Y-61842735D01*
X82228522Y-61846332D01*
X82227890Y-61848563D01*
X82227712Y-61848860D01*
X82226994Y-61850816D01*
X82226337Y-61854800D01*
X82225747Y-61860677D01*
X82225235Y-61868313D01*
X82224809Y-61877571D01*
X82224474Y-61888317D01*
X82224241Y-61900416D01*
X82224173Y-61906235D01*
X82224151Y-61917146D01*
X82224294Y-61927191D01*
X82224589Y-61936179D01*
X82225024Y-61943916D01*
X82225586Y-61950212D01*
X82226262Y-61954874D01*
X82227038Y-61957709D01*
X82227677Y-61958521D01*
X82228380Y-61959728D01*
X82228744Y-61962255D01*
X82228758Y-61962912D01*
X82229178Y-61966194D01*
X82230207Y-61968841D01*
X82230347Y-61969042D01*
X82231622Y-61971389D01*
X82231969Y-61972874D01*
X82232475Y-61974775D01*
X82233730Y-61977739D01*
X82234707Y-61979692D01*
X82236242Y-61982838D01*
X82237223Y-61985342D01*
X82237413Y-61986232D01*
X82238251Y-61987945D01*
X82240359Y-61990211D01*
X82243133Y-61992511D01*
X82245960Y-61994324D01*
X82247709Y-61995043D01*
X82250955Y-61995308D01*
X82253094Y-61995038D01*
X82255736Y-61993652D01*
X82259262Y-61990757D01*
X82263385Y-61986666D01*
X82267822Y-61981691D01*
X82272285Y-61976143D01*
X82276491Y-61970335D01*
X82278520Y-61967254D01*
X82279941Y-61965382D01*
X82282446Y-61962421D01*
X82285625Y-61958851D01*
X82287715Y-61956582D01*
X82296217Y-61947547D01*
X82303436Y-61940042D01*
X82309496Y-61933956D01*
X82314522Y-61929178D01*
X82318638Y-61925594D01*
X82321970Y-61923092D01*
X82324641Y-61921563D01*
X82326776Y-61920893D01*
X82327480Y-61920839D01*
X82329186Y-61921085D01*
X82330252Y-61922175D01*
X82331062Y-61924642D01*
X82331437Y-61926301D01*
X82332169Y-61930301D01*
X82332483Y-61933984D01*
X82332363Y-61937992D01*
X82331803Y-61942975D01*
X82331063Y-61947884D01*
X82330061Y-61953606D01*
X82328967Y-61958164D01*
X82327528Y-61962184D01*
X82325489Y-61966295D01*
X82322599Y-61971124D01*
X82320155Y-61974928D01*
X82317406Y-61979198D01*
X82315078Y-61982911D01*
X82313440Y-61985627D01*
X82312793Y-61986827D01*
X82311887Y-61988610D01*
X82310255Y-61991500D01*
X82308860Y-61993859D01*
X82306942Y-61997086D01*
X82305434Y-61999721D01*
X82304835Y-62000843D01*
X82303621Y-62002778D01*
X82301847Y-62005094D01*
X82298305Y-62009292D01*
X82295234Y-62012846D01*
X82292911Y-62015441D01*
X82291618Y-62016759D01*
X82291492Y-62016850D01*
X82290441Y-62017579D01*
X82288076Y-62019311D01*
X82284809Y-62021742D01*
X82282838Y-62023221D01*
X82273525Y-62029504D01*
X82264660Y-62033911D01*
X82255892Y-62036578D01*
X82246865Y-62037639D01*
X82244925Y-62037670D01*
X82234224Y-62037057D01*
X82224908Y-62035096D01*
X82216538Y-62031605D01*
X82208673Y-62026403D01*
X82201055Y-62019489D01*
X82197685Y-62015745D01*
X82194135Y-62011293D01*
X82190682Y-62006543D01*
X82187603Y-62001908D01*
X82185175Y-61997797D01*
X82183674Y-61994623D01*
X82183324Y-61993143D01*
X82182868Y-61991608D01*
X82181696Y-61988861D01*
X82180620Y-61986625D01*
X82179112Y-61983356D01*
X82178130Y-61980713D01*
X82177915Y-61979673D01*
X82177581Y-61977884D01*
X82176708Y-61974767D01*
X82175614Y-61971378D01*
X82174720Y-61967928D01*
X82173849Y-61963050D01*
X82173026Y-61957101D01*
X82172278Y-61950441D01*
X82171631Y-61943427D01*
X82171113Y-61936417D01*
X82170749Y-61929770D01*
X82170566Y-61923843D01*
X82170590Y-61918996D01*
X82170851Y-61915585D01*
X82171354Y-61913985D01*
X82171790Y-61912439D01*
X82172128Y-61908839D01*
X82172362Y-61903292D01*
X82172485Y-61895906D01*
X82172506Y-61890787D01*
X82172615Y-61880030D01*
X82172927Y-61870236D01*
X82173427Y-61861644D01*
X82174097Y-61854485D01*
X82174918Y-61848992D01*
X82175872Y-61845400D01*
X82175991Y-61845115D01*
X82176532Y-61842975D01*
X82177081Y-61839227D01*
X82177572Y-61834421D01*
X82177901Y-61829774D01*
X82178279Y-61824660D01*
X82178772Y-61820276D01*
X82179314Y-61817113D01*
X82179801Y-61815701D01*
X82180521Y-61814042D01*
X82181439Y-61810819D01*
X82182401Y-61806604D01*
X82182806Y-61804539D01*
X82183705Y-61800114D01*
X82184581Y-61796471D01*
X82185297Y-61794159D01*
X82185536Y-61793691D01*
X82186122Y-61792130D01*
X82186823Y-61789049D01*
X82187502Y-61785071D01*
X82187585Y-61784496D01*
X82188436Y-61779200D01*
X82189510Y-61773531D01*
X82190419Y-61769391D01*
X82191520Y-61764249D01*
X82192523Y-61758589D01*
X82192992Y-61755328D01*
X82193636Y-61751078D01*
X82194416Y-61747223D01*
X82195018Y-61745051D01*
X82196020Y-61741906D01*
X82197103Y-61738044D01*
X82197388Y-61736938D01*
X82198412Y-61733135D01*
X82199479Y-61729624D01*
X82199750Y-61728825D01*
X82200606Y-61725755D01*
X82201422Y-61721808D01*
X82201689Y-61720170D01*
X82202620Y-61714927D01*
X82203876Y-61709323D01*
X82205237Y-61704275D01*
X82206175Y-61701459D01*
X82206890Y-61698467D01*
X82207123Y-61695745D01*
X82207556Y-61692520D01*
X82208611Y-61688966D01*
X82208746Y-61688632D01*
X82209835Y-61685302D01*
X82210360Y-61682274D01*
X82210368Y-61681971D01*
X82210599Y-61678969D01*
X82211210Y-61674580D01*
X82212083Y-61669523D01*
X82213097Y-61664514D01*
X82213742Y-61661755D01*
X82214504Y-61658451D01*
X82215448Y-61653999D01*
X82216340Y-61649513D01*
X82217337Y-61645062D01*
X82218497Y-61640987D01*
X82219570Y-61638165D01*
X82219575Y-61638154D01*
X82220812Y-61634815D01*
X82221736Y-61630818D01*
X82221875Y-61629843D01*
X82222620Y-61625702D01*
X82223726Y-61621630D01*
X82223984Y-61620895D01*
X82225004Y-61617360D01*
X82225503Y-61614034D01*
X82225514Y-61613647D01*
X82225856Y-61610341D01*
X82226736Y-61605967D01*
X82227923Y-61601448D01*
X82229188Y-61597708D01*
X82229761Y-61596456D01*
X82230570Y-61593866D01*
X82230921Y-61590604D01*
X82230922Y-61590493D01*
X82231168Y-61587799D01*
X82231772Y-61586195D01*
X82231873Y-61586111D01*
X82232534Y-61584842D01*
X82233434Y-61582003D01*
X82234404Y-61578147D01*
X82234630Y-61577123D01*
X82235654Y-61572633D01*
X82236685Y-61568562D01*
X82237519Y-61565711D01*
X82237600Y-61565477D01*
X82238638Y-61561904D01*
X82239289Y-61558706D01*
X82239919Y-61556110D01*
X82240729Y-61554619D01*
X82240777Y-61554586D01*
X82241466Y-61553184D01*
X82241740Y-61550775D01*
X82242172Y-61547560D01*
X82243227Y-61544011D01*
X82243362Y-61543675D01*
X82244494Y-61539912D01*
X82245028Y-61536073D01*
X82245032Y-61535867D01*
X82245456Y-61532182D01*
X82246435Y-61528210D01*
X82246639Y-61527615D01*
X82247649Y-61524168D01*
X82248187Y-61521075D01*
X82248214Y-61520530D01*
X82248590Y-61518031D01*
X82249229Y-61516743D01*
X82249999Y-61515146D01*
X82250848Y-61512220D01*
X82251264Y-61510307D01*
X82252348Y-61505114D01*
X82253693Y-61499347D01*
X82255154Y-61493566D01*
X82256586Y-61488328D01*
X82257843Y-61484193D01*
X82258640Y-61482017D01*
X82259688Y-61478918D01*
X82260130Y-61476219D01*
X82260130Y-61476199D01*
X82260471Y-61474063D01*
X82261393Y-61470403D01*
X82262743Y-61465733D01*
X82264369Y-61460565D01*
X82266119Y-61455411D01*
X82267205Y-61452432D01*
X82268343Y-61448676D01*
X82269196Y-61444631D01*
X82269243Y-61444320D01*
X82270394Y-61437066D01*
X82271518Y-61431821D01*
X82272646Y-61428430D01*
X82272912Y-61427893D01*
X82273879Y-61425004D01*
X82274193Y-61422337D01*
X82274716Y-61418987D01*
X82275809Y-61416046D01*
X82276973Y-61413127D01*
X82277431Y-61410694D01*
X82277791Y-61408481D01*
X82278249Y-61407629D01*
X82279002Y-61406067D01*
X82280016Y-61402864D01*
X82281157Y-61398507D01*
X82282293Y-61393482D01*
X82282837Y-61390771D01*
X82284310Y-61383508D01*
X82285608Y-61377992D01*
X82286691Y-61374380D01*
X82287161Y-61373298D01*
X82287937Y-61371350D01*
X82288977Y-61368057D01*
X82289915Y-61364670D01*
X82291003Y-61360784D01*
X82292060Y-61357533D01*
X82292753Y-61355836D01*
X82293580Y-61353581D01*
X82294413Y-61350235D01*
X82294691Y-61348780D01*
X82295727Y-61344229D01*
X82297350Y-61338659D01*
X82299263Y-61332992D01*
X82301167Y-61328145D01*
X82301885Y-61326588D01*
X82302986Y-61323833D01*
X82303436Y-61321720D01*
X82303801Y-61319713D01*
X82304683Y-61316598D01*
X82305830Y-61313122D01*
X82306991Y-61310030D01*
X82307920Y-61308066D01*
X82308110Y-61307814D01*
X82308572Y-61306360D01*
X82308804Y-61303692D01*
X82308810Y-61303173D01*
X82309213Y-61300080D01*
X82310261Y-61295977D01*
X82311514Y-61292330D01*
X82312886Y-61288617D01*
X82313859Y-61285578D01*
X82314218Y-61283904D01*
X82314628Y-61281906D01*
X82315622Y-61279140D01*
X82315693Y-61278971D01*
X82316777Y-61275909D01*
X82317905Y-61271880D01*
X82318433Y-61269613D01*
X82319514Y-61264576D01*
X82320293Y-61261144D01*
X82320911Y-61258800D01*
X82321505Y-61257031D01*
X82322217Y-61255322D01*
X82322430Y-61254845D01*
X82323480Y-61252070D01*
X82323952Y-61249974D01*
X82323954Y-61249887D01*
X82324401Y-61248008D01*
X82324673Y-61247620D01*
X82325574Y-61246009D01*
X82326741Y-61243053D01*
X82327925Y-61239507D01*
X82328877Y-61236127D01*
X82329348Y-61233670D01*
X82329363Y-61233361D01*
X82329829Y-61231019D01*
X82330412Y-61230053D01*
X82331426Y-61228349D01*
X82332871Y-61225044D01*
X82334578Y-61220614D01*
X82336380Y-61215537D01*
X82338110Y-61210290D01*
X82339600Y-61205350D01*
X82340683Y-61201196D01*
X82340919Y-61200095D01*
X82341665Y-61197708D01*
X82342469Y-61196516D01*
X82343231Y-61195080D01*
X82343426Y-61193491D01*
X82344078Y-61190666D01*
X82345015Y-61188957D01*
X82346219Y-61186297D01*
X82346637Y-61183689D01*
X82347267Y-61179107D01*
X82348948Y-61173443D01*
X82350495Y-61169549D01*
X82351657Y-61166593D01*
X82353026Y-61162709D01*
X82353702Y-61160637D01*
X82354867Y-61157381D01*
X82355954Y-61155054D01*
X82356490Y-61154353D01*
X82357365Y-61152858D01*
X82357489Y-61151898D01*
X82357977Y-61149931D01*
X82359224Y-61146925D01*
X82360194Y-61144979D01*
X82361729Y-61141847D01*
X82362712Y-61139369D01*
X82362905Y-61138497D01*
X82363382Y-61136614D01*
X82364525Y-61134001D01*
X82364571Y-61133912D01*
X82366018Y-61130714D01*
X82367795Y-61126190D01*
X82369633Y-61121094D01*
X82371259Y-61116182D01*
X82372407Y-61112206D01*
X82372536Y-61111674D01*
X82373478Y-61108228D01*
X82374522Y-61105212D01*
X82374534Y-61105183D01*
X82375519Y-61102436D01*
X82376629Y-61098825D01*
X82376968Y-61097611D01*
X82378121Y-61094035D01*
X82379737Y-61089886D01*
X82381564Y-61085720D01*
X82383348Y-61082088D01*
X82384839Y-61079544D01*
X82385587Y-61078698D01*
X82386504Y-61077163D01*
X82386697Y-61075804D01*
X82387133Y-61073285D01*
X82388185Y-61070264D01*
X82388218Y-61070189D01*
X82389511Y-61067097D01*
X82391038Y-61063185D01*
X82391701Y-61061405D01*
X82393268Y-61057412D01*
X82394951Y-61053568D01*
X82395589Y-61052251D01*
X82396846Y-61049375D01*
X82397492Y-61047096D01*
X82397515Y-61046793D01*
X82398003Y-61044789D01*
X82399210Y-61041969D01*
X82399534Y-61041343D01*
X82401143Y-61037721D01*
X82402317Y-61034024D01*
X82402372Y-61033786D01*
X82403458Y-61030121D01*
X82404980Y-61026400D01*
X82405072Y-61026214D01*
X82406031Y-61023343D01*
X82406811Y-61019257D01*
X82407380Y-61014493D01*
X82407706Y-61009586D01*
X82407756Y-61005075D01*
X82407498Y-61001497D01*
X82406898Y-60999389D01*
X82406709Y-60999169D01*
X82404479Y-60998524D01*
X82401451Y-60998977D01*
X82398555Y-61000323D01*
X82397492Y-61001215D01*
X82395778Y-61003332D01*
X82393545Y-61006492D01*
X82391112Y-61010191D01*
X82388797Y-61013920D01*
X82386919Y-61017175D01*
X82385796Y-61019448D01*
X82385615Y-61020097D01*
X82384851Y-61022024D01*
X82383993Y-61022969D01*
X82382614Y-61024901D01*
X82382370Y-61025974D01*
X82381748Y-61027844D01*
X82380203Y-61030441D01*
X82379666Y-61031178D01*
X82377972Y-61033557D01*
X82377030Y-61035189D01*
X82376962Y-61035440D01*
X82376390Y-61036712D01*
X82374978Y-61038934D01*
X82374626Y-61039436D01*
X82372767Y-61042323D01*
X82370592Y-61046082D01*
X82369425Y-61048257D01*
X82367519Y-61051853D01*
X82365006Y-61056474D01*
X82362354Y-61061261D01*
X82361684Y-61062453D01*
X82359022Y-61067312D01*
X82356350Y-61072408D01*
X82354162Y-61076797D01*
X82353783Y-61077598D01*
X82352072Y-61081202D01*
X82350610Y-61084167D01*
X82349789Y-61085711D01*
X82348494Y-61088135D01*
X82348111Y-61088957D01*
X82347027Y-61090920D01*
X82345332Y-61093537D01*
X82345143Y-61093810D01*
X82343216Y-61096734D01*
X82341663Y-61099362D01*
X82341619Y-61099447D01*
X82340151Y-61102239D01*
X82338768Y-61104871D01*
X82337548Y-61107284D01*
X82335752Y-61110943D01*
X82333726Y-61115138D01*
X82333315Y-61116001D01*
X82330855Y-61121048D01*
X82328121Y-61126486D01*
X82325706Y-61131139D01*
X82325702Y-61131145D01*
X82322181Y-61137877D01*
X82319050Y-61144094D01*
X82316444Y-61149503D01*
X82314506Y-61153808D01*
X82313374Y-61156714D01*
X82313138Y-61157746D01*
X82312634Y-61159602D01*
X82311353Y-61162491D01*
X82310432Y-61164242D01*
X82308870Y-61167317D01*
X82307893Y-61169778D01*
X82307727Y-61170592D01*
X82307044Y-61172644D01*
X82306376Y-61173570D01*
X82304312Y-61176352D01*
X82302798Y-61179335D01*
X82302319Y-61181301D01*
X82301556Y-61183241D01*
X82300808Y-61184059D01*
X82299563Y-61185953D01*
X82298648Y-61188787D01*
X82298633Y-61188865D01*
X82297801Y-61191619D01*
X82296255Y-61195446D01*
X82294327Y-61199525D01*
X82294296Y-61199586D01*
X82292254Y-61203790D01*
X82290459Y-61207866D01*
X82289321Y-61210868D01*
X82287350Y-61216278D01*
X82284373Y-61223207D01*
X82281127Y-61230145D01*
X82279658Y-61233593D01*
X82278713Y-61236562D01*
X82278520Y-61237805D01*
X82278045Y-61240006D01*
X82276824Y-61243220D01*
X82275820Y-61245360D01*
X82274321Y-61248483D01*
X82273338Y-61250849D01*
X82273116Y-61251677D01*
X82272473Y-61253240D01*
X82271636Y-61254384D01*
X82270428Y-61256362D01*
X82268980Y-61259519D01*
X82268211Y-61261499D01*
X82266944Y-61264755D01*
X82265826Y-61267183D01*
X82265360Y-61267936D01*
X82264510Y-61269906D01*
X82264457Y-61270477D01*
X82264031Y-61272454D01*
X82262996Y-61275201D01*
X82262907Y-61275399D01*
X82261518Y-61278771D01*
X82260105Y-61282697D01*
X82258898Y-61286473D01*
X82258126Y-61289402D01*
X82257966Y-61290516D01*
X82257503Y-61292263D01*
X82256341Y-61295019D01*
X82255803Y-61296116D01*
X82254464Y-61299076D01*
X82253704Y-61301402D01*
X82253639Y-61301906D01*
X82253122Y-61304027D01*
X82251660Y-61307719D01*
X82249385Y-61312675D01*
X82246499Y-61318452D01*
X82244992Y-61321815D01*
X82244055Y-61324762D01*
X82243903Y-61325857D01*
X82243396Y-61328584D01*
X82242381Y-61331107D01*
X82241323Y-61333750D01*
X82240190Y-61337550D01*
X82239494Y-61340469D01*
X82238590Y-61344172D01*
X82237642Y-61347117D01*
X82237016Y-61348410D01*
X82236072Y-61350201D01*
X82234701Y-61353470D01*
X82233118Y-61357636D01*
X82231543Y-61362116D01*
X82230192Y-61366320D01*
X82229692Y-61368054D01*
X82228715Y-61371266D01*
X82227758Y-61373892D01*
X82227710Y-61374004D01*
X82226787Y-61376690D01*
X82226104Y-61379411D01*
X82225193Y-61382504D01*
X82223755Y-61386123D01*
X82223354Y-61386985D01*
X82222075Y-61389976D01*
X82220517Y-61394121D01*
X82218855Y-61398883D01*
X82217265Y-61403729D01*
X82215923Y-61408124D01*
X82215005Y-61411533D01*
X82214686Y-61413361D01*
X82214223Y-61415269D01*
X82213044Y-61418292D01*
X82212015Y-61420520D01*
X82210512Y-61423954D01*
X82209531Y-61426913D01*
X82209320Y-61428156D01*
X82208648Y-61430797D01*
X82207698Y-61432483D01*
X82206681Y-61434881D01*
X82206113Y-61438249D01*
X82206077Y-61439215D01*
X82205644Y-61443258D01*
X82204629Y-61447190D01*
X82204419Y-61447731D01*
X82203322Y-61451160D01*
X82202803Y-61454372D01*
X82202796Y-61454664D01*
X82202499Y-61457076D01*
X82201865Y-61458288D01*
X82201178Y-61459618D01*
X82200501Y-61462332D01*
X82200241Y-61463922D01*
X82199648Y-61467193D01*
X82198951Y-61469603D01*
X82198662Y-61470172D01*
X82197830Y-61471922D01*
X82196855Y-61474802D01*
X82196601Y-61475690D01*
X82195703Y-61478914D01*
X82194449Y-61483292D01*
X82193107Y-61487905D01*
X82193041Y-61488130D01*
X82191723Y-61492623D01*
X82190493Y-61496822D01*
X82189604Y-61499871D01*
X82189558Y-61500030D01*
X82188448Y-61503661D01*
X82187159Y-61507631D01*
X82186973Y-61508179D01*
X82186035Y-61511326D01*
X82185521Y-61513813D01*
X82185488Y-61514276D01*
X82185006Y-61516430D01*
X82183872Y-61519108D01*
X82182888Y-61522097D01*
X82182311Y-61525979D01*
X82182249Y-61527538D01*
X82181182Y-61536062D01*
X82178348Y-61543659D01*
X82177229Y-61546865D01*
X82176833Y-61549616D01*
X82176508Y-61552696D01*
X82175722Y-61556160D01*
X82175684Y-61556289D01*
X82173787Y-61564182D01*
X82172393Y-61573807D01*
X82171596Y-61583238D01*
X82171083Y-61589275D01*
X82170443Y-61593154D01*
X82169674Y-61594880D01*
X82169530Y-61594958D01*
X82168664Y-61596359D01*
X82168220Y-61599780D01*
X82168163Y-61602077D01*
X82167888Y-61606534D01*
X82167197Y-61610855D01*
X82166588Y-61613075D01*
X82165587Y-61617001D01*
X82165023Y-61621419D01*
X82164981Y-61622541D01*
X82164749Y-61625538D01*
X82164213Y-61627389D01*
X82163852Y-61627679D01*
X82163295Y-61628678D01*
X82162911Y-61631350D01*
X82162770Y-61635137D01*
X82162522Y-61640235D01*
X82161877Y-61646055D01*
X82161103Y-61650654D01*
X82160500Y-61655002D01*
X82160073Y-61661019D01*
X82159819Y-61668221D01*
X82159733Y-61676121D01*
X82159814Y-61684232D01*
X82160055Y-61692070D01*
X82160454Y-61699147D01*
X82161008Y-61704978D01*
X82161549Y-61708376D01*
X82162238Y-61715588D01*
X82161030Y-61721793D01*
X82157910Y-61727014D01*
X82152860Y-61731272D01*
X82145869Y-61734593D01*
X82143458Y-61735389D01*
X82137331Y-61736719D01*
X82132150Y-61736556D01*
X82127271Y-61734875D01*
X82127006Y-61734741D01*
X82120920Y-61730600D01*
X82116270Y-61725057D01*
X82112977Y-61717983D01*
X82110959Y-61709246D01*
X82110817Y-61708211D01*
X82110554Y-61704403D01*
X82110485Y-61698874D01*
X82110587Y-61692054D01*
X82110838Y-61684373D01*
X82111218Y-61676262D01*
X82111701Y-61668153D01*
X82112268Y-61660476D01*
X82112898Y-61653662D01*
X82113567Y-61648141D01*
X82113998Y-61645528D01*
X82114567Y-61641486D01*
X82114981Y-61636494D01*
X82115131Y-61632547D01*
X82115693Y-61626002D01*
X82117120Y-61618724D01*
X82117900Y-61615835D01*
X82119132Y-61611287D01*
X82120065Y-61607178D01*
X82120547Y-61604202D01*
X82120581Y-61603594D01*
X82121045Y-61600379D01*
X82121880Y-61598130D01*
X82122813Y-61595659D01*
X82123688Y-61592112D01*
X82123999Y-61590358D01*
X82124657Y-61586481D01*
X82125587Y-61581574D01*
X82126557Y-61576836D01*
X82127560Y-61571415D01*
X82128470Y-61565239D01*
X82129044Y-61560068D01*
X82129525Y-61555781D01*
X82130119Y-61552218D01*
X82130715Y-61550026D01*
X82130835Y-61549792D01*
X82131598Y-61547807D01*
X82132361Y-61544598D01*
X82132676Y-61542759D01*
X82133700Y-61536076D01*
X82134528Y-61531231D01*
X82135224Y-61527923D01*
X82135849Y-61525840D01*
X82136305Y-61524906D01*
X82137220Y-61522678D01*
X82138211Y-61519063D01*
X82139113Y-61514829D01*
X82139760Y-61510739D01*
X82139984Y-61508004D01*
X82140487Y-61505214D01*
X82141558Y-61503373D01*
X82142604Y-61501606D01*
X82143512Y-61498581D01*
X82143795Y-61497020D01*
X82144514Y-61492779D01*
X82145398Y-61488549D01*
X82145631Y-61487590D01*
X82147489Y-61480440D01*
X82148932Y-61475208D01*
X82150015Y-61471700D01*
X82150795Y-61469722D01*
X82150844Y-61469630D01*
X82151561Y-61467744D01*
X82152555Y-61464458D01*
X82153611Y-61460480D01*
X82153622Y-61460435D01*
X82154777Y-61456209D01*
X82155993Y-61452439D01*
X82156958Y-61450052D01*
X82158054Y-61447183D01*
X82158443Y-61444950D01*
X82158952Y-61442296D01*
X82160329Y-61438381D01*
X82162354Y-61433812D01*
X82162902Y-61432704D01*
X82163749Y-61430083D01*
X82163886Y-61428918D01*
X82164545Y-61426562D01*
X82165509Y-61424911D01*
X82166790Y-61422213D01*
X82167097Y-61420366D01*
X82167391Y-61417679D01*
X82168143Y-61414050D01*
X82169159Y-61410197D01*
X82170243Y-61406838D01*
X82171202Y-61404691D01*
X82171421Y-61404405D01*
X82172376Y-61402443D01*
X82172506Y-61401410D01*
X82172870Y-61399092D01*
X82173789Y-61395613D01*
X82175002Y-61391820D01*
X82176248Y-61388558D01*
X82176867Y-61387270D01*
X82177768Y-61384820D01*
X82177915Y-61383685D01*
X82178346Y-61381823D01*
X82179460Y-61378767D01*
X82180619Y-61376066D01*
X82182072Y-61372684D01*
X82183056Y-61370000D01*
X82183329Y-61368832D01*
X82183694Y-61367193D01*
X82184664Y-61364069D01*
X82186054Y-61359993D01*
X82187682Y-61355501D01*
X82189365Y-61351121D01*
X82189733Y-61350205D01*
X82190822Y-61347048D01*
X82191915Y-61343175D01*
X82192181Y-61342091D01*
X82193245Y-61338171D01*
X82194493Y-61334461D01*
X82194808Y-61333671D01*
X82195828Y-61330807D01*
X82196301Y-61328599D01*
X82196305Y-61328466D01*
X82196729Y-61326646D01*
X82197827Y-61323598D01*
X82199067Y-61320659D01*
X82200877Y-61316622D01*
X82202608Y-61312750D01*
X82203514Y-61310719D01*
X82204891Y-61307700D01*
X82206048Y-61305280D01*
X82206161Y-61305055D01*
X82206995Y-61302550D01*
X82207123Y-61301437D01*
X82207605Y-61299234D01*
X82208619Y-61296824D01*
X82210732Y-61292574D01*
X82212855Y-61287987D01*
X82214702Y-61283712D01*
X82215985Y-61280401D01*
X82216316Y-61279349D01*
X82217356Y-61275981D01*
X82218983Y-61271323D01*
X82220938Y-61266076D01*
X82222956Y-61260941D01*
X82224777Y-61256617D01*
X82225013Y-61256091D01*
X82227464Y-61250634D01*
X82229138Y-61246769D01*
X82230177Y-61244129D01*
X82230722Y-61242345D01*
X82230913Y-61241050D01*
X82230922Y-61240678D01*
X82231490Y-61237928D01*
X82233060Y-61233904D01*
X82235319Y-61229331D01*
X82236202Y-61226605D01*
X82236331Y-61225339D01*
X82236776Y-61223294D01*
X82237313Y-61222617D01*
X82238132Y-61221326D01*
X82239253Y-61218597D01*
X82240191Y-61215793D01*
X82241458Y-61212133D01*
X82242754Y-61209160D01*
X82243537Y-61207866D01*
X82244738Y-61205934D01*
X82244985Y-61204991D01*
X82245076Y-61204350D01*
X82245435Y-61203287D01*
X82246191Y-61201521D01*
X82247472Y-61198772D01*
X82249408Y-61194758D01*
X82252127Y-61189198D01*
X82253433Y-61186537D01*
X82255462Y-61181705D01*
X82256022Y-61178243D01*
X82255079Y-61175904D01*
X82252596Y-61174439D01*
X82251675Y-61174166D01*
X82249515Y-61173826D01*
X82246734Y-61173849D01*
X82243034Y-61174277D01*
X82238115Y-61175156D01*
X82231678Y-61176530D01*
X82224431Y-61178206D01*
X82219043Y-61179467D01*
X82213992Y-61180626D01*
X82209900Y-61181543D01*
X82207664Y-61182021D01*
X82203670Y-61182862D01*
X82198630Y-61183970D01*
X82192984Y-61185243D01*
X82187172Y-61186581D01*
X82181634Y-61187877D01*
X82176808Y-61189033D01*
X82173136Y-61189946D01*
X82171057Y-61190513D01*
X82170884Y-61190571D01*
X82168900Y-61191251D01*
X82165474Y-61192387D01*
X82161223Y-61193774D01*
X82159525Y-61194323D01*
X82155123Y-61195760D01*
X82151311Y-61197036D01*
X82148708Y-61197943D01*
X82148166Y-61198147D01*
X82146030Y-61198984D01*
X82142672Y-61200287D01*
X82139512Y-61201505D01*
X82135320Y-61203270D01*
X82131316Y-61205203D01*
X82129136Y-61206423D01*
X82126236Y-61208540D01*
X82123059Y-61211326D01*
X82120058Y-61214321D01*
X82117683Y-61217065D01*
X82116384Y-61219098D01*
X82116266Y-61219581D01*
X82115616Y-61220838D01*
X82115245Y-61220933D01*
X82114142Y-61221826D01*
X82113562Y-61223057D01*
X82112758Y-61224775D01*
X82111061Y-61227893D01*
X82108720Y-61231973D01*
X82105981Y-61236572D01*
X82105917Y-61236678D01*
X82103254Y-61241134D01*
X82101061Y-61244931D01*
X82099553Y-61247682D01*
X82098949Y-61249004D01*
X82098946Y-61249034D01*
X82098384Y-61250298D01*
X82096905Y-61252819D01*
X82094818Y-61256075D01*
X82094620Y-61256374D01*
X82092493Y-61259669D01*
X82090949Y-61262275D01*
X82090296Y-61263668D01*
X82090292Y-61263714D01*
X82089648Y-61265141D01*
X82088775Y-61266282D01*
X82087849Y-61267646D01*
X82086043Y-61270573D01*
X82083544Y-61274744D01*
X82080537Y-61279839D01*
X82077208Y-61285539D01*
X82073744Y-61291523D01*
X82070333Y-61297474D01*
X82067159Y-61303071D01*
X82064408Y-61307995D01*
X82063801Y-61309097D01*
X82060270Y-61315516D01*
X82057597Y-61320332D01*
X82055610Y-61323848D01*
X82054137Y-61326360D01*
X82053007Y-61328173D01*
X82052265Y-61329277D01*
X82050883Y-61331438D01*
X82050268Y-61332746D01*
X82050266Y-61332777D01*
X82049743Y-61333957D01*
X82048425Y-61336334D01*
X82046683Y-61339289D01*
X82044893Y-61342196D01*
X82043427Y-61344434D01*
X82042726Y-61345337D01*
X82041986Y-61346503D01*
X82040581Y-61349105D01*
X82038789Y-61352629D01*
X82038382Y-61353450D01*
X82036241Y-61357609D01*
X82034113Y-61361431D01*
X82032434Y-61364135D01*
X82032343Y-61364268D01*
X82030670Y-61366925D01*
X82028556Y-61370701D01*
X82026575Y-61374545D01*
X82024877Y-61377983D01*
X82023527Y-61380608D01*
X82022191Y-61383013D01*
X82020535Y-61385785D01*
X82018224Y-61389515D01*
X82016778Y-61391826D01*
X82012269Y-61399196D01*
X82008968Y-61404952D01*
X82006915Y-61409031D01*
X82006857Y-61409161D01*
X82006098Y-61410867D01*
X82005312Y-61412474D01*
X82004280Y-61414363D01*
X82002784Y-61416922D01*
X82000606Y-61420533D01*
X81997524Y-61425580D01*
X81997311Y-61425929D01*
X81994162Y-61431077D01*
X81991895Y-61434810D01*
X81990267Y-61437565D01*
X81989037Y-61439775D01*
X81987963Y-61441876D01*
X81986803Y-61444302D01*
X81985316Y-61447490D01*
X81985281Y-61447564D01*
X81983618Y-61451058D01*
X81982055Y-61454115D01*
X81980318Y-61457220D01*
X81978127Y-61460854D01*
X81975206Y-61465497D01*
X81972756Y-61469328D01*
X81970717Y-61472785D01*
X81968199Y-61477455D01*
X81965606Y-61482575D01*
X81964361Y-61485165D01*
X81961607Y-61490657D01*
X81958405Y-61496499D01*
X81955297Y-61501717D01*
X81954193Y-61503425D01*
X81949486Y-61510843D01*
X81945455Y-61517947D01*
X81942445Y-61524119D01*
X81942109Y-61524911D01*
X81940933Y-61527369D01*
X81939121Y-61530761D01*
X81937837Y-61533024D01*
X81935699Y-61536810D01*
X81933146Y-61541501D01*
X81930770Y-61546005D01*
X81928367Y-61550478D01*
X81925823Y-61554940D01*
X81923687Y-61558430D01*
X81923677Y-61558446D01*
X81921654Y-61561676D01*
X81920026Y-61564507D01*
X81919479Y-61565593D01*
X81918364Y-61567704D01*
X81916506Y-61570865D01*
X81914739Y-61573706D01*
X81912129Y-61578097D01*
X81909430Y-61583095D01*
X81907980Y-61586031D01*
X81905930Y-61590195D01*
X81903776Y-61594232D01*
X81902410Y-61596574D01*
X81900482Y-61599797D01*
X81898150Y-61603886D01*
X81896518Y-61606852D01*
X81894041Y-61611405D01*
X81891330Y-61616337D01*
X81889840Y-61619025D01*
X81887458Y-61623376D01*
X81884988Y-61628012D01*
X81883745Y-61630405D01*
X81881677Y-61634196D01*
X81879513Y-61637772D01*
X81878535Y-61639226D01*
X81876973Y-61641525D01*
X81876142Y-61642985D01*
X81876101Y-61643137D01*
X81875554Y-61644237D01*
X81874115Y-61646632D01*
X81872091Y-61649819D01*
X81871971Y-61650003D01*
X81869485Y-61654107D01*
X81867211Y-61658339D01*
X81865885Y-61661214D01*
X81864219Y-61665231D01*
X81862575Y-61668848D01*
X81860701Y-61672541D01*
X81858346Y-61676786D01*
X81855263Y-61682058D01*
X81852572Y-61686553D01*
X81849734Y-61691378D01*
X81847353Y-61695625D01*
X81845635Y-61698915D01*
X81844785Y-61700865D01*
X81844729Y-61701142D01*
X81844078Y-61703227D01*
X81843310Y-61704400D01*
X81842050Y-61706404D01*
X81840511Y-61709490D01*
X81839861Y-61710977D01*
X81838359Y-61714241D01*
X81836913Y-61716846D01*
X81836413Y-61717551D01*
X81835242Y-61719341D01*
X81834994Y-61720129D01*
X81834271Y-61721331D01*
X81832446Y-61723363D01*
X81831404Y-61724382D01*
X81828728Y-61727352D01*
X81825923Y-61731132D01*
X81824643Y-61733142D01*
X81822644Y-61736523D01*
X81820915Y-61739439D01*
X81820162Y-61740702D01*
X81818787Y-61743207D01*
X81817506Y-61746142D01*
X81816675Y-61748298D01*
X81815123Y-61751988D01*
X81812852Y-61756835D01*
X81810071Y-61762441D01*
X81806993Y-61768409D01*
X81803828Y-61774344D01*
X81800787Y-61779848D01*
X81798082Y-61784524D01*
X81795922Y-61787976D01*
X81794689Y-61789634D01*
X81791344Y-61794065D01*
X81788975Y-61798690D01*
X81788909Y-61798869D01*
X81787891Y-61800464D01*
X81787269Y-61800763D01*
X81786351Y-61801599D01*
X81786314Y-61801917D01*
X81785712Y-61803461D01*
X81784218Y-61805853D01*
X81783739Y-61806514D01*
X81781946Y-61809191D01*
X81779645Y-61813006D01*
X81777310Y-61817169D01*
X81777136Y-61817494D01*
X81774904Y-61821514D01*
X81772755Y-61825115D01*
X81771117Y-61827588D01*
X81770979Y-61827771D01*
X81768187Y-61831683D01*
X81764825Y-61836873D01*
X81761290Y-61842687D01*
X81757981Y-61848464D01*
X81755293Y-61853550D01*
X81754979Y-61854191D01*
X81752619Y-61858673D01*
X81749563Y-61863947D01*
X81746378Y-61869040D01*
X81745585Y-61870239D01*
X81743094Y-61873998D01*
X81741143Y-61877061D01*
X81739992Y-61879005D01*
X81739798Y-61879452D01*
X81739207Y-61880633D01*
X81737741Y-61882792D01*
X81737280Y-61883416D01*
X81734980Y-61886810D01*
X81732881Y-61890416D01*
X81732812Y-61890551D01*
X81729381Y-61897041D01*
X81726333Y-61902385D01*
X81723611Y-61906776D01*
X81721813Y-61909623D01*
X81720114Y-61912443D01*
X81718212Y-61915753D01*
X81715806Y-61920078D01*
X81713609Y-61924085D01*
X81711427Y-61927971D01*
X81708890Y-61932347D01*
X81707693Y-61934361D01*
X81705676Y-61937728D01*
X81702997Y-61942212D01*
X81700102Y-61947073D01*
X81698750Y-61949346D01*
X81696192Y-61953569D01*
X81693886Y-61957226D01*
X81692149Y-61959825D01*
X81691480Y-61960704D01*
X81686418Y-61967156D01*
X81681959Y-61974206D01*
X81680790Y-61976407D01*
X81679008Y-61979870D01*
X81677428Y-61982807D01*
X81676716Y-61984044D01*
X81674779Y-61987132D01*
X81672338Y-61990947D01*
X81669692Y-61995027D01*
X81667142Y-61998914D01*
X81664990Y-62002147D01*
X81663536Y-62004267D01*
X81663145Y-62004789D01*
X81662191Y-62006165D01*
X81660405Y-62008963D01*
X81658063Y-62012744D01*
X81655995Y-62016148D01*
X81652946Y-62021208D01*
X81650757Y-62024848D01*
X81649173Y-62027501D01*
X81647940Y-62029603D01*
X81646799Y-62031587D01*
X81645499Y-62033885D01*
X81643978Y-62036589D01*
X81641422Y-62041009D01*
X81638815Y-62045321D01*
X81636450Y-62049055D01*
X81634623Y-62051742D01*
X81633757Y-62052815D01*
X81632856Y-62053932D01*
X81631040Y-62056347D01*
X81628647Y-62059597D01*
X81626015Y-62063218D01*
X81623481Y-62066743D01*
X81621384Y-62069708D01*
X81620060Y-62071650D01*
X81619985Y-62071767D01*
X81618586Y-62074183D01*
X81616948Y-62077281D01*
X81616739Y-62077696D01*
X81615370Y-62080259D01*
X81614342Y-62081865D01*
X81614193Y-62082023D01*
X81613313Y-62083259D01*
X81611958Y-62085647D01*
X81611591Y-62086350D01*
X81609626Y-62089863D01*
X81607493Y-62093190D01*
X81605587Y-62095758D01*
X81604303Y-62096989D01*
X81603332Y-62098014D01*
X81601575Y-62100349D01*
X81599466Y-62103411D01*
X81596906Y-62107107D01*
X81593579Y-62111683D01*
X81590077Y-62116335D01*
X81588921Y-62117828D01*
X81582802Y-62125785D01*
X81578113Y-62132146D01*
X81574843Y-62136928D01*
X81572978Y-62140146D01*
X81572843Y-62140439D01*
X81571671Y-62142532D01*
X81569579Y-62145773D01*
X81566948Y-62149575D01*
X81565938Y-62150976D01*
X81563393Y-62154579D01*
X81561431Y-62157575D01*
X81560347Y-62159505D01*
X81560223Y-62159900D01*
X81559574Y-62160961D01*
X81559369Y-62160993D01*
X81558482Y-62161872D01*
X81556878Y-62164209D01*
X81554860Y-62167552D01*
X81554231Y-62168658D01*
X81552052Y-62172553D01*
X81550157Y-62175931D01*
X81548895Y-62178170D01*
X81548745Y-62178436D01*
X81547103Y-62180796D01*
X81545229Y-62183009D01*
X81543604Y-62184975D01*
X81542915Y-62186276D01*
X81542915Y-62186286D01*
X81542313Y-62187585D01*
X81540810Y-62189839D01*
X81540211Y-62190645D01*
X81538517Y-62193025D01*
X81537575Y-62194658D01*
X81537506Y-62194909D01*
X81536870Y-62196455D01*
X81535124Y-62199353D01*
X81532513Y-62203269D01*
X81529281Y-62207864D01*
X81525674Y-62212806D01*
X81521936Y-62217759D01*
X81518312Y-62222387D01*
X81515046Y-62226356D01*
X81512384Y-62229330D01*
X81512379Y-62229335D01*
X81502426Y-62240472D01*
X81492648Y-62252952D01*
X81483646Y-62266002D01*
X81482320Y-62268088D01*
X81480259Y-62271337D01*
X81478595Y-62273901D01*
X81477763Y-62275119D01*
X81476255Y-62277052D01*
X81473917Y-62279993D01*
X81471285Y-62283274D01*
X81468896Y-62286226D01*
X81467352Y-62288101D01*
X81465596Y-62290281D01*
X81463289Y-62293257D01*
X81462306Y-62294556D01*
X81460106Y-62297440D01*
X81458251Y-62299807D01*
X81457680Y-62300505D01*
X81456536Y-62301893D01*
X81454299Y-62304626D01*
X81451242Y-62308369D01*
X81447640Y-62312790D01*
X81445598Y-62315298D01*
X81441844Y-62319865D01*
X81438501Y-62323844D01*
X81435834Y-62326926D01*
X81434110Y-62328801D01*
X81433657Y-62329208D01*
X81432629Y-62330235D01*
X81430440Y-62332683D01*
X81427302Y-62336306D01*
X81423428Y-62340858D01*
X81419032Y-62346089D01*
X81416647Y-62348952D01*
X81412023Y-62354508D01*
X81407780Y-62359585D01*
X81404141Y-62363917D01*
X81401329Y-62367241D01*
X81399565Y-62369291D01*
X81399154Y-62369747D01*
X81397854Y-62371129D01*
X81395367Y-62373786D01*
X81391978Y-62377411D01*
X81387977Y-62381696D01*
X81384976Y-62384912D01*
X81380722Y-62389468D01*
X81376884Y-62393567D01*
X81373749Y-62396904D01*
X81371601Y-62399176D01*
X81370838Y-62399969D01*
X81369470Y-62401481D01*
X81367087Y-62404238D01*
X81364054Y-62407813D01*
X81361456Y-62410915D01*
X81357617Y-62415331D01*
X81353549Y-62419693D01*
X81349855Y-62423369D01*
X81348073Y-62424978D01*
X81342313Y-62429922D01*
X81335707Y-62435686D01*
X81328995Y-62441621D01*
X81326561Y-62443797D01*
X81323682Y-62446288D01*
X81320149Y-62449220D01*
X81316356Y-62452280D01*
X81312700Y-62455154D01*
X81309578Y-62457531D01*
X81307387Y-62459098D01*
X81306554Y-62459562D01*
X81305368Y-62460101D01*
X81302936Y-62461505D01*
X81300276Y-62463159D01*
X81295781Y-62465803D01*
X81290000Y-62468878D01*
X81283608Y-62472056D01*
X81277278Y-62475009D01*
X81271685Y-62477407D01*
X81268686Y-62478541D01*
X81265418Y-62479300D01*
X81260654Y-62479944D01*
X81254933Y-62480449D01*
X81248793Y-62480792D01*
X81242774Y-62480948D01*
X81237416Y-62480893D01*
X81233256Y-62480604D01*
X81231234Y-62480213D01*
X81227675Y-62478729D01*
X81223292Y-62476437D01*
X81218762Y-62473744D01*
X81214765Y-62471057D01*
X81211977Y-62468781D01*
X81211732Y-62468529D01*
X81207375Y-62463208D01*
X81203606Y-62457396D01*
X81200868Y-62451820D01*
X81200007Y-62449285D01*
X81198897Y-62445699D01*
X81197742Y-62442700D01*
X81197248Y-62441712D01*
X81196533Y-62439695D01*
X81195724Y-62436157D01*
X81194953Y-62431730D01*
X81194683Y-62429813D01*
X81193981Y-62425029D01*
X81193218Y-62420703D01*
X81192525Y-62417550D01*
X81192315Y-62416832D01*
X81191766Y-62414250D01*
X81191190Y-62409902D01*
X81190613Y-62404186D01*
X81190066Y-62397497D01*
X81189576Y-62390236D01*
X81189173Y-62382796D01*
X81188884Y-62375575D01*
X81188741Y-62368970D01*
X81188729Y-62367070D01*
X81188810Y-62360745D01*
X81189048Y-62353610D01*
X81189415Y-62346071D01*
X81189734Y-62340916D01*
X81241344Y-62340916D01*
X81241448Y-62348624D01*
X81241724Y-62356319D01*
X81242175Y-62363638D01*
X81242189Y-62363826D01*
X81242732Y-62370909D01*
X81243296Y-62378538D01*
X81243818Y-62385844D01*
X81244235Y-62391952D01*
X81244270Y-62392492D01*
X81245022Y-62401626D01*
X81246006Y-62409838D01*
X81247170Y-62416790D01*
X81248462Y-62422140D01*
X81249348Y-62424613D01*
X81251114Y-62427624D01*
X81253559Y-62430651D01*
X81256154Y-62433143D01*
X81258367Y-62434547D01*
X81259009Y-62434681D01*
X81260696Y-62434192D01*
X81263604Y-62432916D01*
X81266769Y-62431306D01*
X81270679Y-62429029D01*
X81274334Y-62426628D01*
X81276374Y-62425084D01*
X81280109Y-62421962D01*
X81283048Y-62419633D01*
X81286021Y-62417462D01*
X81289264Y-62415221D01*
X81292659Y-62412732D01*
X81296872Y-62409405D01*
X81301116Y-62405862D01*
X81302116Y-62404994D01*
X81305586Y-62401838D01*
X81310073Y-62397597D01*
X81315278Y-62392562D01*
X81320913Y-62387027D01*
X81326682Y-62381286D01*
X81332293Y-62375632D01*
X81337451Y-62370359D01*
X81341864Y-62365760D01*
X81345237Y-62362129D01*
X81346980Y-62360130D01*
X81349730Y-62356863D01*
X81352411Y-62353815D01*
X81353605Y-62352523D01*
X81361037Y-62344729D01*
X81367206Y-62338208D01*
X81372362Y-62332686D01*
X81376753Y-62327890D01*
X81380632Y-62323546D01*
X81384248Y-62319381D01*
X81387851Y-62315121D01*
X81388309Y-62314572D01*
X81392243Y-62309891D01*
X81395956Y-62305536D01*
X81399099Y-62301906D01*
X81401330Y-62299403D01*
X81401832Y-62298867D01*
X81405490Y-62294830D01*
X81409888Y-62289615D01*
X81414527Y-62283820D01*
X81416235Y-62281610D01*
X81418476Y-62278733D01*
X81420381Y-62276377D01*
X81420993Y-62275660D01*
X81424236Y-62271909D01*
X81428489Y-62266808D01*
X81433453Y-62260731D01*
X81438830Y-62254050D01*
X81444319Y-62247140D01*
X81449622Y-62240371D01*
X81454440Y-62234118D01*
X81456914Y-62230849D01*
X81459638Y-62227264D01*
X81462040Y-62224186D01*
X81463691Y-62222160D01*
X81463939Y-62221880D01*
X81465814Y-62219537D01*
X81466643Y-62218290D01*
X81467755Y-62216630D01*
X81469762Y-62213794D01*
X81472263Y-62210334D01*
X81474854Y-62206803D01*
X81477131Y-62203754D01*
X81478692Y-62201741D01*
X81478866Y-62201530D01*
X81480066Y-62199903D01*
X81481723Y-62197436D01*
X81481873Y-62197204D01*
X81483504Y-62194723D01*
X81484701Y-62192996D01*
X81484770Y-62192905D01*
X81489295Y-62187017D01*
X81494515Y-62180261D01*
X81499787Y-62173474D01*
X81502618Y-62169840D01*
X81505457Y-62166124D01*
X81507708Y-62163011D01*
X81509086Y-62160910D01*
X81509380Y-62160267D01*
X81510051Y-62158916D01*
X81511684Y-62156859D01*
X81511870Y-62156654D01*
X81514204Y-62153762D01*
X81516386Y-62150520D01*
X81516430Y-62150445D01*
X81517975Y-62148168D01*
X81519178Y-62146979D01*
X81519349Y-62146930D01*
X81520155Y-62146082D01*
X81520198Y-62145696D01*
X81520775Y-62144371D01*
X81522349Y-62141654D01*
X81524684Y-62137932D01*
X81527545Y-62133591D01*
X81527770Y-62133258D01*
X81530648Y-62128965D01*
X81533022Y-62125354D01*
X81534663Y-62122781D01*
X81535337Y-62121605D01*
X81535343Y-62121578D01*
X81535916Y-62120550D01*
X81537475Y-62118107D01*
X81539783Y-62114615D01*
X81542566Y-62110487D01*
X81545798Y-62105734D01*
X81548939Y-62101107D01*
X81551587Y-62097200D01*
X81553071Y-62095004D01*
X81555323Y-62091745D01*
X81558288Y-62087564D01*
X81561389Y-62083275D01*
X81561910Y-62082564D01*
X81564758Y-62078583D01*
X81567352Y-62074784D01*
X81569224Y-62071853D01*
X81569526Y-62071335D01*
X81571169Y-62068450D01*
X81572520Y-62066142D01*
X81572664Y-62065904D01*
X81573798Y-62064010D01*
X81575567Y-62061026D01*
X81576911Y-62058743D01*
X81578680Y-62055905D01*
X81581380Y-62051784D01*
X81584691Y-62046859D01*
X81588293Y-62041610D01*
X81589622Y-62039701D01*
X81592915Y-62034945D01*
X81595717Y-62030814D01*
X81597813Y-62027630D01*
X81598990Y-62025715D01*
X81599167Y-62025322D01*
X81599788Y-62023959D01*
X81600299Y-62023291D01*
X81602234Y-62020847D01*
X81604806Y-62017322D01*
X81607631Y-62013277D01*
X81610325Y-62009273D01*
X81612504Y-62005869D01*
X81613783Y-62003628D01*
X81613799Y-62003594D01*
X81614544Y-62002059D01*
X81615424Y-62000411D01*
X81616634Y-61998323D01*
X81618371Y-61995468D01*
X81620831Y-61991516D01*
X81624210Y-61986142D01*
X81625130Y-61984682D01*
X81629744Y-61977240D01*
X81633398Y-61971075D01*
X81635987Y-61966373D01*
X81637060Y-61964160D01*
X81638355Y-61961759D01*
X81640389Y-61958535D01*
X81641726Y-61956587D01*
X81644204Y-61952877D01*
X81646975Y-61948393D01*
X81648833Y-61945179D01*
X81651472Y-61940694D01*
X81654621Y-61935711D01*
X81656987Y-61932198D01*
X81661137Y-61926071D01*
X81665057Y-61919903D01*
X81668563Y-61914022D01*
X81671468Y-61908757D01*
X81673588Y-61904436D01*
X81674737Y-61901389D01*
X81674891Y-61900444D01*
X81674547Y-61898169D01*
X81673072Y-61897038D01*
X81671444Y-61896621D01*
X81669191Y-61896495D01*
X81666472Y-61897086D01*
X81662776Y-61898549D01*
X81659274Y-61900201D01*
X81654937Y-61902207D01*
X81650953Y-61903847D01*
X81647987Y-61904852D01*
X81647306Y-61905005D01*
X81644645Y-61905500D01*
X81640693Y-61906296D01*
X81636272Y-61907232D01*
X81635948Y-61907302D01*
X81629284Y-61908442D01*
X81623468Y-61908628D01*
X81617876Y-61907759D01*
X81611887Y-61905734D01*
X81604879Y-61902452D01*
X81604384Y-61902199D01*
X81598106Y-61898675D01*
X81592302Y-61894881D01*
X81587697Y-61891296D01*
X81587171Y-61890821D01*
X81583944Y-61887475D01*
X81580643Y-61883453D01*
X81577596Y-61879230D01*
X81575130Y-61875287D01*
X81573576Y-61872098D01*
X81573205Y-61870523D01*
X81572612Y-61868779D01*
X81572269Y-61868463D01*
X81571568Y-61867223D01*
X81570446Y-61864354D01*
X81569049Y-61860313D01*
X81567524Y-61855558D01*
X81566016Y-61850548D01*
X81564674Y-61845740D01*
X81563643Y-61841592D01*
X81563585Y-61841329D01*
X81562213Y-61833397D01*
X81561286Y-61824339D01*
X81560806Y-61814723D01*
X81560779Y-61805113D01*
X81561212Y-61796075D01*
X81561281Y-61795468D01*
X81619242Y-61795468D01*
X81619338Y-61796706D01*
X81619523Y-61799322D01*
X81619726Y-61803632D01*
X81619932Y-61809160D01*
X81620120Y-61815437D01*
X81620233Y-61820036D01*
X81620437Y-61827339D01*
X81620699Y-61832783D01*
X81621050Y-61836673D01*
X81621520Y-61839314D01*
X81622140Y-61841009D01*
X81622348Y-61841363D01*
X81623634Y-61844444D01*
X81624048Y-61847177D01*
X81624378Y-61849689D01*
X81625130Y-61851065D01*
X81625973Y-61852559D01*
X81626212Y-61854332D01*
X81627170Y-61857335D01*
X81629572Y-61859860D01*
X81632703Y-61861242D01*
X81633717Y-61861335D01*
X81636596Y-61860730D01*
X81639535Y-61859319D01*
X81642012Y-61857258D01*
X81645636Y-61853625D01*
X81650257Y-61848579D01*
X81655724Y-61842281D01*
X81657137Y-61840613D01*
X81659243Y-61837771D01*
X81661320Y-61834476D01*
X81661464Y-61834221D01*
X81662948Y-61831711D01*
X81664036Y-61830131D01*
X81664190Y-61829970D01*
X81665002Y-61828749D01*
X81666335Y-61826246D01*
X81667158Y-61824563D01*
X81668537Y-61821761D01*
X81669937Y-61819237D01*
X81671645Y-61816557D01*
X81673944Y-61813288D01*
X81677121Y-61808998D01*
X81679489Y-61805857D01*
X81682174Y-61802229D01*
X81684277Y-61799241D01*
X81685508Y-61797311D01*
X81685709Y-61796849D01*
X81686351Y-61795491D01*
X81687233Y-61794357D01*
X81688909Y-61791997D01*
X81691038Y-61788353D01*
X81693240Y-61784140D01*
X81695133Y-61780072D01*
X81695960Y-61778005D01*
X81697219Y-61775184D01*
X81699235Y-61771336D01*
X81701592Y-61767251D01*
X81701806Y-61766898D01*
X81703910Y-61763341D01*
X81705478Y-61760459D01*
X81706233Y-61758772D01*
X81706262Y-61758608D01*
X81707056Y-61757188D01*
X81707626Y-61756734D01*
X81708962Y-61755277D01*
X81710628Y-61752704D01*
X81711117Y-61751812D01*
X81712608Y-61749311D01*
X81713806Y-61747883D01*
X81714081Y-61747756D01*
X81714767Y-61746850D01*
X81714917Y-61745656D01*
X81715383Y-61743606D01*
X81715935Y-61742926D01*
X81716979Y-61741655D01*
X81718500Y-61739119D01*
X81719372Y-61737454D01*
X81720875Y-61734678D01*
X81722050Y-61732927D01*
X81722435Y-61732611D01*
X81723279Y-61731741D01*
X81724626Y-61729561D01*
X81725165Y-61728554D01*
X81726807Y-61725579D01*
X81728284Y-61723252D01*
X81728569Y-61722875D01*
X81729887Y-61720938D01*
X81731981Y-61717493D01*
X81734619Y-61712942D01*
X81737567Y-61707692D01*
X81740593Y-61702146D01*
X81741367Y-61700699D01*
X81743923Y-61696097D01*
X81746827Y-61691156D01*
X81748620Y-61688258D01*
X81751010Y-61684426D01*
X81753251Y-61680693D01*
X81754491Y-61678522D01*
X81755937Y-61675985D01*
X81756960Y-61674374D01*
X81757106Y-61674194D01*
X81757603Y-61673514D01*
X81758527Y-61671953D01*
X81760048Y-61669206D01*
X81762338Y-61664969D01*
X81763481Y-61662837D01*
X81764812Y-61660482D01*
X81765716Y-61659101D01*
X81765760Y-61659051D01*
X81766531Y-61657848D01*
X81767897Y-61655377D01*
X81768805Y-61653642D01*
X81770921Y-61649632D01*
X81773318Y-61645235D01*
X81774213Y-61643637D01*
X81776465Y-61639603D01*
X81779359Y-61634347D01*
X81782517Y-61628557D01*
X81785563Y-61622920D01*
X81786491Y-61621188D01*
X81787911Y-61618811D01*
X81790049Y-61615525D01*
X81791724Y-61613075D01*
X81794787Y-61608635D01*
X81796823Y-61605494D01*
X81798102Y-61603216D01*
X81798863Y-61601446D01*
X81799846Y-61599853D01*
X81800430Y-61599553D01*
X81801397Y-61598654D01*
X81802080Y-61597119D01*
X81803062Y-61594978D01*
X81804874Y-61591785D01*
X81806927Y-61588528D01*
X81809298Y-61584646D01*
X81811331Y-61580785D01*
X81812407Y-61578253D01*
X81813616Y-61575170D01*
X81814820Y-61572812D01*
X81815026Y-61572509D01*
X81816226Y-61570421D01*
X81817541Y-61567471D01*
X81817685Y-61567100D01*
X81819040Y-61564088D01*
X81820434Y-61561773D01*
X81820568Y-61561606D01*
X81821768Y-61559637D01*
X81822012Y-61558663D01*
X81822596Y-61557159D01*
X81824059Y-61554592D01*
X81825969Y-61551619D01*
X81827895Y-61548897D01*
X81829404Y-61547082D01*
X81829855Y-61546727D01*
X81830646Y-61545484D01*
X81830666Y-61545217D01*
X81831126Y-61543943D01*
X81832366Y-61541165D01*
X81834180Y-61537307D01*
X81836362Y-61532789D01*
X81838705Y-61528035D01*
X81841001Y-61523465D01*
X81843044Y-61519502D01*
X81844629Y-61516570D01*
X81845087Y-61515779D01*
X81846343Y-61513711D01*
X81848244Y-61510602D01*
X81849713Y-61508207D01*
X81851844Y-61504602D01*
X81854478Y-61499955D01*
X81857122Y-61495141D01*
X81857691Y-61494080D01*
X81859852Y-61490093D01*
X81861710Y-61486779D01*
X81862976Y-61484646D01*
X81863271Y-61484215D01*
X81864164Y-61482781D01*
X81865815Y-61479868D01*
X81867983Y-61475918D01*
X81870432Y-61471372D01*
X81872920Y-61466673D01*
X81875209Y-61462261D01*
X81875806Y-61461086D01*
X81877174Y-61458529D01*
X81878169Y-61456922D01*
X81878308Y-61456759D01*
X81879032Y-61455604D01*
X81880451Y-61452998D01*
X81882300Y-61449430D01*
X81882971Y-61448105D01*
X81885406Y-61443328D01*
X81888352Y-61437640D01*
X81891295Y-61432034D01*
X81892239Y-61430256D01*
X81894981Y-61425111D01*
X81897851Y-61419726D01*
X81900372Y-61414996D01*
X81901175Y-61413488D01*
X81903554Y-61409083D01*
X81906451Y-61403812D01*
X81909306Y-61398687D01*
X81909804Y-61397803D01*
X81912051Y-61393785D01*
X81913930Y-61390363D01*
X81915158Y-61388059D01*
X81915421Y-61387526D01*
X81916363Y-61385741D01*
X81918019Y-61382848D01*
X81919417Y-61380494D01*
X81921410Y-61377128D01*
X81923068Y-61374223D01*
X81923767Y-61372922D01*
X81924904Y-61370785D01*
X81926660Y-61367615D01*
X81927942Y-61365349D01*
X81929886Y-61361863D01*
X81932385Y-61357270D01*
X81934999Y-61352385D01*
X81935866Y-61350746D01*
X81938642Y-61345649D01*
X81941720Y-61340288D01*
X81944539Y-61335631D01*
X81945181Y-61334623D01*
X81947325Y-61331203D01*
X81948910Y-61328480D01*
X81949644Y-61326961D01*
X81949661Y-61326855D01*
X81950207Y-61325587D01*
X81951639Y-61323054D01*
X81953651Y-61319797D01*
X81953718Y-61319693D01*
X81955979Y-61316154D01*
X81957925Y-61313082D01*
X81959079Y-61311233D01*
X81961710Y-61306979D01*
X81964459Y-61302622D01*
X81967062Y-61298572D01*
X81969256Y-61295235D01*
X81970775Y-61293016D01*
X81971317Y-61292330D01*
X81972271Y-61291013D01*
X81973758Y-61288417D01*
X81975423Y-61285231D01*
X81976908Y-61282148D01*
X81977856Y-61279861D01*
X81978001Y-61279349D01*
X81977839Y-61277776D01*
X81977499Y-61277477D01*
X81976053Y-61276849D01*
X81973644Y-61275657D01*
X81973438Y-61275551D01*
X81971769Y-61274791D01*
X81970249Y-61274574D01*
X81968344Y-61275015D01*
X81965520Y-61276228D01*
X81961821Y-61278041D01*
X81955702Y-61281180D01*
X81949136Y-61284710D01*
X81942405Y-61288463D01*
X81935791Y-61292269D01*
X81929576Y-61295961D01*
X81924043Y-61299369D01*
X81919476Y-61302324D01*
X81916152Y-61304659D01*
X81914358Y-61306205D01*
X81914143Y-61306528D01*
X81912902Y-61307442D01*
X81912574Y-61307475D01*
X81911321Y-61308031D01*
X81908710Y-61309515D01*
X81905185Y-61311646D01*
X81901185Y-61314148D01*
X81897153Y-61316738D01*
X81893527Y-61319143D01*
X81890750Y-61321082D01*
X81889473Y-61322076D01*
X81884569Y-61326080D01*
X81878465Y-61330597D01*
X81871879Y-61335129D01*
X81865525Y-61339180D01*
X81861497Y-61341519D01*
X81856716Y-61344250D01*
X81851589Y-61347411D01*
X81845969Y-61351112D01*
X81839708Y-61355460D01*
X81832659Y-61360563D01*
X81824675Y-61366530D01*
X81815607Y-61373470D01*
X81805310Y-61381490D01*
X81793635Y-61390698D01*
X81781987Y-61399966D01*
X81775437Y-61405193D01*
X81770304Y-61409283D01*
X81766316Y-61412451D01*
X81763200Y-61414912D01*
X81760684Y-61416877D01*
X81758496Y-61418565D01*
X81756361Y-61420188D01*
X81754273Y-61421763D01*
X81748536Y-61426194D01*
X81743147Y-61430635D01*
X81737481Y-61435616D01*
X81731340Y-61441270D01*
X81726591Y-61445522D01*
X81721152Y-61450099D01*
X81715968Y-61454218D01*
X81714376Y-61455415D01*
X81710489Y-61458352D01*
X81707149Y-61461014D01*
X81704825Y-61463020D01*
X81704138Y-61463721D01*
X81702619Y-61465226D01*
X81699867Y-61467655D01*
X81696353Y-61470596D01*
X81694401Y-61472177D01*
X81684067Y-61481266D01*
X81674494Y-61491260D01*
X81671480Y-61494825D01*
X81665933Y-61503104D01*
X81662361Y-61512036D01*
X81660931Y-61518961D01*
X81659843Y-61526538D01*
X81658918Y-61532289D01*
X81658091Y-61536544D01*
X81657304Y-61539629D01*
X81656657Y-61541478D01*
X81655955Y-61544300D01*
X81655506Y-61548203D01*
X81655419Y-61550673D01*
X81655156Y-61555385D01*
X81654455Y-61561111D01*
X81653453Y-61567047D01*
X81652283Y-61572384D01*
X81651155Y-61576127D01*
X81650339Y-61579413D01*
X81650011Y-61582927D01*
X81649642Y-61586260D01*
X81648752Y-61589035D01*
X81648729Y-61589077D01*
X81647908Y-61591168D01*
X81646996Y-61594644D01*
X81645966Y-61599650D01*
X81644791Y-61606332D01*
X81643445Y-61614834D01*
X81641901Y-61625302D01*
X81641440Y-61628529D01*
X81640773Y-61632300D01*
X81640010Y-61635277D01*
X81639415Y-61636643D01*
X81638591Y-61638510D01*
X81637880Y-61641490D01*
X81637755Y-61642283D01*
X81637288Y-61645355D01*
X81636566Y-61649761D01*
X81635725Y-61654705D01*
X81635437Y-61656346D01*
X81634500Y-61661793D01*
X81633565Y-61667454D01*
X81632805Y-61672272D01*
X81632678Y-61673115D01*
X81631801Y-61678431D01*
X81630591Y-61684675D01*
X81628968Y-61692259D01*
X81627302Y-61699618D01*
X81626769Y-61703028D01*
X81626390Y-61707530D01*
X81626259Y-61711392D01*
X81626059Y-61716546D01*
X81625595Y-61722046D01*
X81625152Y-61725455D01*
X81623027Y-61740247D01*
X81621629Y-61753774D01*
X81620888Y-61766787D01*
X81620735Y-61774531D01*
X81620641Y-61780422D01*
X81620465Y-61785474D01*
X81620225Y-61789327D01*
X81619942Y-61791622D01*
X81619734Y-61792108D01*
X81619302Y-61793064D01*
X81619242Y-61795468D01*
X81561281Y-61795468D01*
X81562108Y-61788174D01*
X81563045Y-61783497D01*
X81563771Y-61779191D01*
X81564269Y-61772986D01*
X81564521Y-61765139D01*
X81564551Y-61760980D01*
X81564623Y-61754789D01*
X81564824Y-61749417D01*
X81565129Y-61745261D01*
X81565515Y-61742721D01*
X81565675Y-61742267D01*
X81566445Y-61740075D01*
X81567294Y-61736168D01*
X81568245Y-61730418D01*
X81569321Y-61722696D01*
X81569851Y-61718548D01*
X81570515Y-61714042D01*
X81571320Y-61709692D01*
X81571900Y-61707189D01*
X81572580Y-61704098D01*
X81573366Y-61699665D01*
X81574117Y-61694695D01*
X81574327Y-61693126D01*
X81575347Y-61685644D01*
X81576302Y-61679665D01*
X81577313Y-61674536D01*
X81578503Y-61669604D01*
X81579160Y-61667164D01*
X81580223Y-61662966D01*
X81581076Y-61658989D01*
X81581423Y-61656887D01*
X81582067Y-61652265D01*
X81582891Y-61647165D01*
X81583800Y-61642075D01*
X81584703Y-61637486D01*
X81585505Y-61633882D01*
X81586116Y-61631752D01*
X81586272Y-61631438D01*
X81586815Y-61629930D01*
X81587547Y-61626829D01*
X81588345Y-61622683D01*
X81588712Y-61620509D01*
X81589614Y-61615702D01*
X81590661Y-61611340D01*
X81591671Y-61608136D01*
X81592009Y-61607370D01*
X81592930Y-61604616D01*
X81593703Y-61600567D01*
X81594163Y-61596092D01*
X81594167Y-61596022D01*
X81594624Y-61591539D01*
X81595402Y-61587460D01*
X81596333Y-61584659D01*
X81596345Y-61584633D01*
X81597524Y-61582065D01*
X81598079Y-61580279D01*
X81598086Y-61580172D01*
X81597360Y-61578732D01*
X81595606Y-61576596D01*
X81593457Y-61574424D01*
X81591548Y-61572872D01*
X81590710Y-61572509D01*
X81589110Y-61573317D01*
X81586721Y-61575428D01*
X81583998Y-61578371D01*
X81581391Y-61581674D01*
X81580098Y-61583588D01*
X81578134Y-61586448D01*
X81576388Y-61588525D01*
X81575752Y-61589060D01*
X81574441Y-61590444D01*
X81574287Y-61591025D01*
X81573602Y-61592719D01*
X81571815Y-61595437D01*
X81569326Y-61598648D01*
X81566536Y-61601819D01*
X81565031Y-61603339D01*
X81563082Y-61605402D01*
X81560164Y-61608731D01*
X81556647Y-61612896D01*
X81552900Y-61617465D01*
X81552273Y-61618242D01*
X81547691Y-61623774D01*
X81542436Y-61629856D01*
X81537206Y-61635692D01*
X81533291Y-61639877D01*
X81528677Y-61644836D01*
X81523434Y-61650741D01*
X81518241Y-61656814D01*
X81514190Y-61661755D01*
X81510047Y-61666884D01*
X81505699Y-61672153D01*
X81501652Y-61676955D01*
X81498410Y-61680684D01*
X81498301Y-61680806D01*
X81495159Y-61684397D01*
X81492389Y-61687702D01*
X81490463Y-61690160D01*
X81490091Y-61690689D01*
X81488488Y-61693002D01*
X81486137Y-61696270D01*
X81483959Y-61699228D01*
X81481326Y-61702922D01*
X81478925Y-61706557D01*
X81477578Y-61708818D01*
X81475340Y-61712666D01*
X81472488Y-61717201D01*
X81469420Y-61721824D01*
X81466534Y-61725938D01*
X81464232Y-61728946D01*
X81463753Y-61729501D01*
X81459662Y-61734196D01*
X81456671Y-61738051D01*
X81454878Y-61740725D01*
X81453412Y-61742912D01*
X81451229Y-61746001D01*
X81448733Y-61749446D01*
X81446320Y-61752701D01*
X81444390Y-61755221D01*
X81443395Y-61756410D01*
X81441638Y-61758491D01*
X81439138Y-61761868D01*
X81436281Y-61765991D01*
X81433454Y-61770308D01*
X81431984Y-61772675D01*
X81429717Y-61776407D01*
X81427733Y-61779647D01*
X81426430Y-61781747D01*
X81426352Y-61781870D01*
X81424779Y-61784624D01*
X81424021Y-61786159D01*
X81422508Y-61788653D01*
X81421032Y-61790486D01*
X81419346Y-61792628D01*
X81417177Y-61795804D01*
X81415766Y-61798057D01*
X81414296Y-61800509D01*
X81413109Y-61802523D01*
X81411955Y-61804545D01*
X81410587Y-61807022D01*
X81408755Y-61810400D01*
X81406209Y-61815125D01*
X81405426Y-61816582D01*
X81402763Y-61821386D01*
X81399896Y-61826327D01*
X81397376Y-61830463D01*
X81396999Y-61831052D01*
X81394310Y-61835230D01*
X81392465Y-61838143D01*
X81391128Y-61840339D01*
X81389962Y-61842365D01*
X81389234Y-61843674D01*
X81384131Y-61852876D01*
X81379954Y-61860321D01*
X81376615Y-61866165D01*
X81374022Y-61870556D01*
X81372086Y-61873654D01*
X81370718Y-61875609D01*
X81370136Y-61876293D01*
X81368945Y-61878050D01*
X81368750Y-61878800D01*
X81368142Y-61880275D01*
X81366626Y-61882636D01*
X81366045Y-61883422D01*
X81364340Y-61885918D01*
X81363403Y-61887795D01*
X81363340Y-61888121D01*
X81362899Y-61889610D01*
X81361756Y-61892420D01*
X81360192Y-61895943D01*
X81358485Y-61899569D01*
X81356912Y-61902689D01*
X81355809Y-61904613D01*
X81352845Y-61909080D01*
X81350907Y-61912075D01*
X81349800Y-61913913D01*
X81349330Y-61914907D01*
X81349272Y-61915208D01*
X81348817Y-61916525D01*
X81347647Y-61919105D01*
X81346569Y-61921293D01*
X81345067Y-61924457D01*
X81344087Y-61926908D01*
X81343869Y-61927800D01*
X81343393Y-61929456D01*
X81342213Y-61932069D01*
X81341857Y-61932755D01*
X81340296Y-61935985D01*
X81339124Y-61938926D01*
X81339028Y-61939228D01*
X81338228Y-61941341D01*
X81336737Y-61944839D01*
X81334798Y-61949159D01*
X81333467Y-61952028D01*
X81331492Y-61956296D01*
X81329920Y-61959816D01*
X81328946Y-61962144D01*
X81328724Y-61962829D01*
X81328288Y-61964119D01*
X81327165Y-61966700D01*
X81326101Y-61968961D01*
X81324178Y-61973160D01*
X81322331Y-61977547D01*
X81321668Y-61979255D01*
X81320068Y-61983238D01*
X81318104Y-61987703D01*
X81317244Y-61989531D01*
X81315789Y-61992795D01*
X81314847Y-61995399D01*
X81314644Y-61996399D01*
X81314228Y-61998333D01*
X81313195Y-62001056D01*
X81313099Y-62001268D01*
X81311941Y-62004213D01*
X81310599Y-62008218D01*
X81309723Y-62011167D01*
X81308620Y-62014784D01*
X81307591Y-62017602D01*
X81306974Y-62018831D01*
X81306335Y-62020402D01*
X81305493Y-62023493D01*
X81304610Y-62027492D01*
X81304449Y-62028315D01*
X81303468Y-62032641D01*
X81302348Y-62036387D01*
X81301309Y-62038823D01*
X81301188Y-62039011D01*
X81299897Y-62041683D01*
X81299517Y-62043658D01*
X81299055Y-62046024D01*
X81297902Y-62049198D01*
X81297423Y-62050251D01*
X81295921Y-62053762D01*
X81294798Y-62057080D01*
X81294628Y-62057756D01*
X81293638Y-62061163D01*
X81292484Y-62064174D01*
X81290781Y-62068680D01*
X81288997Y-62074500D01*
X81287353Y-62080806D01*
X81286069Y-62086771D01*
X81285491Y-62090397D01*
X81284883Y-62094169D01*
X81284149Y-62097153D01*
X81283562Y-62098510D01*
X81282770Y-62100197D01*
X81281725Y-62103326D01*
X81280654Y-62107229D01*
X81280628Y-62107335D01*
X81279579Y-62111316D01*
X81278595Y-62114613D01*
X81277889Y-62116518D01*
X81277884Y-62116529D01*
X81276765Y-62119220D01*
X81275388Y-62123299D01*
X81273912Y-62128177D01*
X81272504Y-62133271D01*
X81271325Y-62137989D01*
X81270540Y-62141750D01*
X81270303Y-62143765D01*
X81269953Y-62146707D01*
X81269026Y-62150819D01*
X81267716Y-62155250D01*
X81267604Y-62155584D01*
X81266287Y-62159830D01*
X81265325Y-62163644D01*
X81264905Y-62166272D01*
X81264900Y-62166467D01*
X81264384Y-62169597D01*
X81263284Y-62172497D01*
X81262156Y-62175794D01*
X81261662Y-62179471D01*
X81261661Y-62179575D01*
X81261446Y-62183952D01*
X81260885Y-62189108D01*
X81260085Y-62194381D01*
X81259151Y-62199108D01*
X81258192Y-62202626D01*
X81257791Y-62203618D01*
X81256820Y-62206706D01*
X81256283Y-62210576D01*
X81256246Y-62211739D01*
X81255966Y-62215786D01*
X81255272Y-62219666D01*
X81255037Y-62220496D01*
X81253823Y-62225137D01*
X81252683Y-62231299D01*
X81251582Y-62239209D01*
X81250642Y-62247534D01*
X81250086Y-62252260D01*
X81249511Y-62256133D01*
X81248994Y-62258677D01*
X81248690Y-62259434D01*
X81248041Y-62260595D01*
X81247452Y-62263214D01*
X81246908Y-62267431D01*
X81246394Y-62273387D01*
X81245895Y-62281225D01*
X81245397Y-62291083D01*
X81245001Y-62298403D01*
X81244539Y-62304761D01*
X81244044Y-62309845D01*
X81243544Y-62313346D01*
X81243132Y-62314851D01*
X81242490Y-62317193D01*
X81241983Y-62321333D01*
X81241618Y-62326908D01*
X81241403Y-62333556D01*
X81241344Y-62340916D01*
X81189734Y-62340916D01*
X81189882Y-62338532D01*
X81190420Y-62331397D01*
X81191001Y-62325071D01*
X81191595Y-62319957D01*
X81192175Y-62316460D01*
X81192369Y-62315693D01*
X81192921Y-62312759D01*
X81193326Y-62308519D01*
X81193506Y-62303828D01*
X81193509Y-62303253D01*
X81193742Y-62297204D01*
X81194365Y-62290373D01*
X81195288Y-62283416D01*
X81196418Y-62276982D01*
X81197660Y-62271725D01*
X81198304Y-62269711D01*
X81199108Y-62266428D01*
X81199697Y-62261942D01*
X81199945Y-62257209D01*
X81199946Y-62257104D01*
X81200204Y-62252167D01*
X81200853Y-62246172D01*
X81201769Y-62240161D01*
X81202146Y-62238173D01*
X81203190Y-62232630D01*
X81204139Y-62226940D01*
X81204837Y-62222043D01*
X81205017Y-62220490D01*
X81205593Y-62216475D01*
X81206371Y-62213085D01*
X81207062Y-62211295D01*
X81208006Y-62208913D01*
X81208813Y-62205473D01*
X81209031Y-62204045D01*
X81209784Y-62200058D01*
X81211011Y-62195386D01*
X81211865Y-62192724D01*
X81213212Y-62187612D01*
X81213977Y-62182139D01*
X81214057Y-62180160D01*
X81214272Y-62176260D01*
X81214827Y-62172939D01*
X81215338Y-62171469D01*
X81216385Y-62168840D01*
X81217314Y-62165408D01*
X81217442Y-62164779D01*
X81218676Y-62158589D01*
X81219685Y-62154248D01*
X81220544Y-62151463D01*
X81221335Y-62149940D01*
X81221348Y-62149924D01*
X81222145Y-62148232D01*
X81223193Y-62145098D01*
X81224267Y-62141193D01*
X81224291Y-62141091D01*
X81225342Y-62137108D01*
X81226330Y-62133811D01*
X81227042Y-62131907D01*
X81227048Y-62131896D01*
X81227836Y-62129727D01*
X81228810Y-62126143D01*
X81229808Y-62121869D01*
X81230669Y-62117626D01*
X81231235Y-62114136D01*
X81231368Y-62112516D01*
X81231717Y-62109905D01*
X81232605Y-62106130D01*
X81233795Y-62102044D01*
X81235046Y-62098500D01*
X81235744Y-62096953D01*
X81236454Y-62095028D01*
X81237409Y-62091679D01*
X81238412Y-62087596D01*
X81238497Y-62087217D01*
X81239483Y-62083221D01*
X81240434Y-62080011D01*
X81241163Y-62078217D01*
X81241226Y-62078128D01*
X81241925Y-62076413D01*
X81242620Y-62073404D01*
X81242904Y-62071637D01*
X81243806Y-62067455D01*
X81245285Y-62062789D01*
X81246151Y-62060627D01*
X81247545Y-62057123D01*
X81248461Y-62054155D01*
X81248673Y-62052849D01*
X81249106Y-62050839D01*
X81249609Y-62050201D01*
X81250359Y-62048870D01*
X81251642Y-62045502D01*
X81253439Y-62040155D01*
X81255733Y-62032883D01*
X81258504Y-62023743D01*
X81259189Y-62021445D01*
X81260304Y-62018011D01*
X81261325Y-62015413D01*
X81261846Y-62014467D01*
X81262684Y-62012496D01*
X81262736Y-62011925D01*
X81263150Y-62009940D01*
X81264154Y-62007182D01*
X81264232Y-62007004D01*
X81265692Y-62003482D01*
X81267099Y-61999808D01*
X81268481Y-61996202D01*
X81269893Y-61992806D01*
X81269906Y-61992777D01*
X81270853Y-61990378D01*
X81272245Y-61986533D01*
X81273864Y-61981855D01*
X81274916Y-61978713D01*
X81276502Y-61974056D01*
X81277945Y-61970064D01*
X81279055Y-61967258D01*
X81279531Y-61966274D01*
X81280955Y-61963623D01*
X81282613Y-61959921D01*
X81284246Y-61955832D01*
X81285597Y-61952017D01*
X81286411Y-61949140D01*
X81286535Y-61948221D01*
X81286963Y-61945662D01*
X81288021Y-61942407D01*
X81288314Y-61941700D01*
X81289577Y-61938915D01*
X81291436Y-61934960D01*
X81293606Y-61930425D01*
X81295804Y-61925897D01*
X81297745Y-61921964D01*
X81299145Y-61919214D01*
X81299436Y-61918676D01*
X81300982Y-61915545D01*
X81302434Y-61912053D01*
X81303489Y-61908992D01*
X81303844Y-61907266D01*
X81304339Y-61904969D01*
X81304853Y-61903787D01*
X81305842Y-61901866D01*
X81307421Y-61898722D01*
X81309058Y-61895418D01*
X81312147Y-61889246D01*
X81314601Y-61884604D01*
X81316667Y-61881046D01*
X81318590Y-61878128D01*
X81318764Y-61877884D01*
X81320333Y-61875303D01*
X81321128Y-61873259D01*
X81321152Y-61873011D01*
X81321767Y-61870999D01*
X81322740Y-61869391D01*
X81324016Y-61867015D01*
X81324363Y-61865498D01*
X81324868Y-61863606D01*
X81326127Y-61860514D01*
X81327820Y-61856905D01*
X81329623Y-61853458D01*
X81331215Y-61850854D01*
X81331456Y-61850524D01*
X81332679Y-61848444D01*
X81334033Y-61845500D01*
X81334188Y-61845115D01*
X81335472Y-61842411D01*
X81337373Y-61839010D01*
X81339493Y-61835557D01*
X81341433Y-61832700D01*
X81342797Y-61831087D01*
X81342841Y-61831052D01*
X81343855Y-61829760D01*
X81345468Y-61827230D01*
X81347279Y-61824146D01*
X81348890Y-61821190D01*
X81349900Y-61819044D01*
X81349959Y-61818882D01*
X81350862Y-61817289D01*
X81351376Y-61816989D01*
X81352281Y-61816117D01*
X81353722Y-61813899D01*
X81354556Y-61812392D01*
X81356573Y-61808689D01*
X81358989Y-61804432D01*
X81360187Y-61802385D01*
X81362155Y-61799013D01*
X81363788Y-61796104D01*
X81364469Y-61794813D01*
X81365815Y-61792403D01*
X81367608Y-61789536D01*
X81367697Y-61789404D01*
X81369355Y-61786665D01*
X81370464Y-61784392D01*
X81370511Y-61784266D01*
X81371506Y-61782670D01*
X81372121Y-61782372D01*
X81373044Y-61781539D01*
X81373077Y-61781244D01*
X81373675Y-61779841D01*
X81375236Y-61777295D01*
X81377190Y-61774483D01*
X81379409Y-61771305D01*
X81382362Y-61766879D01*
X81385653Y-61761806D01*
X81388724Y-61756951D01*
X81392566Y-61751050D01*
X81397537Y-61743825D01*
X81403386Y-61735621D01*
X81409864Y-61726781D01*
X81416719Y-61717650D01*
X81423703Y-61708569D01*
X81426477Y-61705026D01*
X81429895Y-61700463D01*
X81433718Y-61695015D01*
X81437259Y-61689669D01*
X81438147Y-61688258D01*
X81440857Y-61684035D01*
X81443427Y-61680281D01*
X81445477Y-61677540D01*
X81446243Y-61676663D01*
X81448472Y-61673773D01*
X81449567Y-61670978D01*
X81449304Y-61668899D01*
X81449112Y-61668664D01*
X81447469Y-61667932D01*
X81444636Y-61667355D01*
X81443866Y-61667266D01*
X81433510Y-61666082D01*
X81424951Y-61664646D01*
X81417824Y-61662830D01*
X81411765Y-61660507D01*
X81406410Y-61657548D01*
X81401396Y-61653826D01*
X81398618Y-61651376D01*
X81395300Y-61648406D01*
X81392308Y-61645905D01*
X81390213Y-61644349D01*
X81389992Y-61644214D01*
X81386623Y-61642979D01*
X81383366Y-61643325D01*
X81380019Y-61645372D01*
X81376380Y-61649240D01*
X81372555Y-61654578D01*
X81367995Y-61660787D01*
X81362506Y-61667127D01*
X81356454Y-61673271D01*
X81350201Y-61678888D01*
X81344112Y-61683648D01*
X81338549Y-61687223D01*
X81334470Y-61689095D01*
X81332008Y-61689684D01*
X81327985Y-61690381D01*
X81322997Y-61691096D01*
X81318531Y-61691633D01*
X81310553Y-61692266D01*
X81304099Y-61692170D01*
X81298632Y-61691284D01*
X81293618Y-61689547D01*
X81291597Y-61688589D01*
X81287971Y-61686384D01*
X81283463Y-61683119D01*
X81278703Y-61679291D01*
X81274314Y-61675395D01*
X81271839Y-61672935D01*
X81267849Y-61668559D01*
X81265200Y-61665205D01*
X81263635Y-61662436D01*
X81262899Y-61659811D01*
X81262736Y-61657282D01*
X81262523Y-61654430D01*
X81261984Y-61652750D01*
X81261692Y-61652560D01*
X81260345Y-61651861D01*
X81258172Y-61650101D01*
X81257182Y-61649173D01*
X81253717Y-61645785D01*
X81250683Y-61649443D01*
X81248828Y-61651824D01*
X81247738Y-61653496D01*
X81247621Y-61653820D01*
X81247040Y-61654970D01*
X81245501Y-61657483D01*
X81243268Y-61660936D01*
X81241642Y-61663378D01*
X81239118Y-61667171D01*
X81237125Y-61670248D01*
X81235924Y-61672203D01*
X81235692Y-61672674D01*
X81235111Y-61673734D01*
X81233623Y-61675956D01*
X81232369Y-61677720D01*
X81224997Y-61686616D01*
X81217207Y-61693445D01*
X81208862Y-61698285D01*
X81199822Y-61701213D01*
X81189949Y-61702309D01*
X81188727Y-61702321D01*
X81182602Y-61702161D01*
X81177649Y-61701556D01*
X81172893Y-61700317D01*
X81167357Y-61698255D01*
X81167081Y-61698144D01*
X81164662Y-61696732D01*
X81161537Y-61694333D01*
X81158132Y-61691360D01*
X81154881Y-61688218D01*
X81152215Y-61685316D01*
X81150566Y-61683065D01*
X81150242Y-61682171D01*
X81149481Y-61680518D01*
X81148609Y-61679604D01*
X81147427Y-61677616D01*
X81147011Y-61674850D01*
X81147359Y-61672217D01*
X81148473Y-61670620D01*
X81148609Y-61670558D01*
X81150047Y-61669187D01*
X81150232Y-61668412D01*
X81150997Y-61666485D01*
X81151855Y-61665541D01*
X81153237Y-61663535D01*
X81153477Y-61662400D01*
X81154192Y-61660759D01*
X81156067Y-61658182D01*
X81158692Y-61655230D01*
X81162630Y-61651684D01*
X81167090Y-61648839D01*
X81172745Y-61646229D01*
X81177400Y-61644162D01*
X81181833Y-61641928D01*
X81185239Y-61639934D01*
X81185822Y-61639533D01*
X81190429Y-61635441D01*
X81195431Y-61629667D01*
X81200547Y-61622587D01*
X81205496Y-61614576D01*
X81208084Y-61609830D01*
X81210600Y-61605093D01*
X81212886Y-61600953D01*
X81214696Y-61597853D01*
X81215779Y-61596234D01*
X81215788Y-61596223D01*
X81217024Y-61594477D01*
X81217302Y-61593685D01*
X81217880Y-61592344D01*
X81219311Y-61590064D01*
X81219736Y-61589458D01*
X81221718Y-61586523D01*
X81223316Y-61583879D01*
X81223436Y-61583654D01*
X81224913Y-61580875D01*
X81226336Y-61578230D01*
X81227680Y-61575610D01*
X81229481Y-61571932D01*
X81230923Y-61568896D01*
X81232670Y-61565386D01*
X81234254Y-61562585D01*
X81235200Y-61561255D01*
X81236518Y-61559513D01*
X81238231Y-61556738D01*
X81238823Y-61555673D01*
X81240097Y-61553336D01*
X81241250Y-61551299D01*
X81242571Y-61549085D01*
X81244348Y-61546220D01*
X81246866Y-61542227D01*
X81248369Y-61539855D01*
X81251216Y-61535208D01*
X81254329Y-61529865D01*
X81257521Y-61524178D01*
X81260605Y-61518501D01*
X81263394Y-61513186D01*
X81265698Y-61508585D01*
X81267332Y-61505050D01*
X81268107Y-61502936D01*
X81268145Y-61502658D01*
X81268850Y-61500776D01*
X81269653Y-61499758D01*
X81270996Y-61497894D01*
X81272644Y-61494929D01*
X81273350Y-61493461D01*
X81275383Y-61489476D01*
X81277729Y-61485485D01*
X81278333Y-61484567D01*
X81279999Y-61482016D01*
X81280998Y-61480289D01*
X81281126Y-61479948D01*
X81281654Y-61478808D01*
X81282991Y-61476506D01*
X81283831Y-61475149D01*
X81285448Y-61472346D01*
X81286415Y-61470205D01*
X81286534Y-61469658D01*
X81287118Y-61468043D01*
X81288557Y-61465624D01*
X81288877Y-61465163D01*
X81290368Y-61462755D01*
X81292438Y-61459005D01*
X81294751Y-61454536D01*
X81295996Y-61452015D01*
X81298784Y-61446275D01*
X81301938Y-61439807D01*
X81304881Y-61433791D01*
X81305554Y-61432419D01*
X81307574Y-61428215D01*
X81309172Y-61424721D01*
X81310141Y-61422400D01*
X81310334Y-61421739D01*
X81310788Y-61420500D01*
X81312045Y-61417659D01*
X81313949Y-61413555D01*
X81316344Y-61408526D01*
X81318448Y-61404188D01*
X81321124Y-61398623D01*
X81323429Y-61393669D01*
X81325204Y-61389678D01*
X81326292Y-61387002D01*
X81326561Y-61386062D01*
X81327325Y-61384142D01*
X81328183Y-61383199D01*
X81329550Y-61381507D01*
X81329806Y-61380648D01*
X81330241Y-61379085D01*
X81331369Y-61376256D01*
X81332620Y-61373478D01*
X81334422Y-61369629D01*
X81336073Y-61366057D01*
X81336885Y-61364268D01*
X81337902Y-61362055D01*
X81339617Y-61358389D01*
X81341796Y-61353769D01*
X81344204Y-61348693D01*
X81344348Y-61348391D01*
X81346613Y-61343514D01*
X81348489Y-61339255D01*
X81349794Y-61336040D01*
X81350352Y-61334288D01*
X81350360Y-61334190D01*
X81351125Y-61332163D01*
X81351776Y-61331445D01*
X81352860Y-61329774D01*
X81354066Y-61326803D01*
X81354687Y-61324783D01*
X81355800Y-61321426D01*
X81356998Y-61318895D01*
X81357597Y-61318121D01*
X81358841Y-61316078D01*
X81359014Y-61315014D01*
X81359469Y-61313026D01*
X81360643Y-61309903D01*
X81361817Y-61307304D01*
X81363550Y-61303687D01*
X81365048Y-61300430D01*
X81366623Y-61296825D01*
X81368589Y-61292168D01*
X81369424Y-61290166D01*
X81373900Y-61280876D01*
X81378804Y-61273396D01*
X81384052Y-61267834D01*
X81389552Y-61264296D01*
X81390926Y-61263753D01*
X81397495Y-61261817D01*
X81404466Y-61260348D01*
X81410895Y-61259525D01*
X81413628Y-61259413D01*
X81417499Y-61259721D01*
X81420869Y-61260878D01*
X81424470Y-61263020D01*
X81430081Y-61267301D01*
X81433991Y-61271632D01*
X81436412Y-61275965D01*
X81437625Y-61280557D01*
X81437850Y-61285755D01*
X81437118Y-61290660D01*
X81435753Y-61293953D01*
X81434150Y-61296619D01*
X81433058Y-61298712D01*
X81433011Y-61298820D01*
X81432164Y-61300876D01*
X81430965Y-61303789D01*
X81430784Y-61304229D01*
X81429464Y-61307272D01*
X81428302Y-61309695D01*
X81428195Y-61309894D01*
X81427306Y-61312477D01*
X81427171Y-61313680D01*
X81426822Y-61315855D01*
X81425929Y-61319250D01*
X81424736Y-61323070D01*
X81423484Y-61326521D01*
X81422708Y-61328284D01*
X81421896Y-61330465D01*
X81421757Y-61331366D01*
X81421330Y-61333104D01*
X81420290Y-61335721D01*
X81420172Y-61335978D01*
X81418572Y-61340226D01*
X81416992Y-61345824D01*
X81415659Y-61351971D01*
X81415586Y-61352368D01*
X81414745Y-61355271D01*
X81413721Y-61357236D01*
X81412295Y-61359659D01*
X81410487Y-61363610D01*
X81408506Y-61368537D01*
X81406562Y-61373886D01*
X81404862Y-61379105D01*
X81403619Y-61383641D01*
X81403473Y-61384280D01*
X81402137Y-61388392D01*
X81399624Y-61394060D01*
X81396026Y-61401090D01*
X81393668Y-61405375D01*
X81391716Y-61409335D01*
X81389676Y-61414229D01*
X81388206Y-61418356D01*
X81386884Y-61422408D01*
X81385703Y-61425877D01*
X81384911Y-61428037D01*
X81384888Y-61428092D01*
X81384197Y-61430210D01*
X81383248Y-61433691D01*
X81382241Y-61437786D01*
X81382231Y-61437828D01*
X81380541Y-61444425D01*
X81378620Y-61450349D01*
X81376162Y-61456434D01*
X81372864Y-61463515D01*
X81372845Y-61463555D01*
X81370984Y-61467532D01*
X81369565Y-61470855D01*
X81368814Y-61472984D01*
X81368750Y-61473359D01*
X81368305Y-61475040D01*
X81367157Y-61477923D01*
X81366045Y-61480350D01*
X81364558Y-61483711D01*
X81363575Y-61486460D01*
X81363341Y-61487622D01*
X81362775Y-61489767D01*
X81361773Y-61491684D01*
X81360626Y-61494067D01*
X81359359Y-61497620D01*
X81358623Y-61500163D01*
X81357570Y-61503877D01*
X81356541Y-61506968D01*
X81355996Y-61508276D01*
X81352985Y-61515075D01*
X81351573Y-61520716D01*
X81351442Y-61522784D01*
X81351231Y-61525481D01*
X81350704Y-61526971D01*
X81350498Y-61527074D01*
X81349758Y-61528030D01*
X81349045Y-61530423D01*
X81348855Y-61531449D01*
X81348175Y-61534722D01*
X81347375Y-61537296D01*
X81347206Y-61537669D01*
X81346233Y-61539844D01*
X81344991Y-61542959D01*
X81344661Y-61543842D01*
X81342272Y-61550629D01*
X81340695Y-61555899D01*
X81339820Y-61560089D01*
X81339534Y-61563637D01*
X81339533Y-61563855D01*
X81338655Y-61569344D01*
X81337211Y-61572509D01*
X81335377Y-61576148D01*
X81334107Y-61579907D01*
X81333587Y-61583097D01*
X81333898Y-61584890D01*
X81334650Y-61586873D01*
X81334926Y-61588195D01*
X81335577Y-61591266D01*
X81336680Y-61592613D01*
X81338735Y-61592673D01*
X81339811Y-61592462D01*
X81342706Y-61591327D01*
X81344737Y-61589679D01*
X81344742Y-61589672D01*
X81346636Y-61588051D01*
X81348024Y-61587654D01*
X81349171Y-61587358D01*
X81350453Y-61586250D01*
X81352156Y-61583995D01*
X81354563Y-61580260D01*
X81355244Y-61579159D01*
X81357674Y-61575343D01*
X81360060Y-61571809D01*
X81362074Y-61569024D01*
X81363386Y-61567453D01*
X81363611Y-61567280D01*
X81364371Y-61566034D01*
X81364423Y-61565520D01*
X81365182Y-61563705D01*
X81366045Y-61562773D01*
X81367417Y-61560996D01*
X81367668Y-61560059D01*
X81368246Y-61558553D01*
X81369772Y-61555837D01*
X81371933Y-61552460D01*
X81372266Y-61551970D01*
X81376899Y-61545145D01*
X81380374Y-61539903D01*
X81382796Y-61536075D01*
X81384273Y-61533488D01*
X81384910Y-61531972D01*
X81384954Y-61531672D01*
X81385600Y-61530414D01*
X81385961Y-61530320D01*
X81386991Y-61529440D01*
X81388493Y-61527206D01*
X81389308Y-61525722D01*
X81391639Y-61521274D01*
X81393489Y-61518009D01*
X81395308Y-61515160D01*
X81396430Y-61513530D01*
X81398020Y-61510941D01*
X81400079Y-61507169D01*
X81402173Y-61503001D01*
X81402301Y-61502734D01*
X81404093Y-61499070D01*
X81405566Y-61496225D01*
X81406451Y-61494717D01*
X81406533Y-61494620D01*
X81407397Y-61493392D01*
X81408768Y-61491017D01*
X81409157Y-61490293D01*
X81411588Y-61485786D01*
X81414350Y-61480788D01*
X81417038Y-61476025D01*
X81419245Y-61472224D01*
X81419762Y-61471364D01*
X81421331Y-61468674D01*
X81422440Y-61466579D01*
X81422479Y-61466495D01*
X81423599Y-61464584D01*
X81425394Y-61461982D01*
X81425734Y-61461525D01*
X81427379Y-61458910D01*
X81428220Y-61456744D01*
X81428246Y-61456450D01*
X81428829Y-61454548D01*
X81429300Y-61454073D01*
X81430369Y-61452729D01*
X81431719Y-61450198D01*
X81432071Y-61449411D01*
X81433640Y-61445897D01*
X81435194Y-61442638D01*
X81435345Y-61442338D01*
X81436438Y-61439923D01*
X81436901Y-61438372D01*
X81436902Y-61438360D01*
X81437366Y-61436891D01*
X81438606Y-61433983D01*
X81440394Y-61430111D01*
X81442503Y-61425754D01*
X81444704Y-61421389D01*
X81446770Y-61417492D01*
X81447495Y-61416193D01*
X81452862Y-61406511D01*
X81457091Y-61398340D01*
X81460137Y-61391767D01*
X81461757Y-61387526D01*
X81463429Y-61383059D01*
X81465485Y-61378481D01*
X81466463Y-61376600D01*
X81469915Y-61370315D01*
X81473547Y-61363521D01*
X81477215Y-61356505D01*
X81480777Y-61349553D01*
X81484089Y-61342951D01*
X81487008Y-61336987D01*
X81489392Y-61331945D01*
X81491097Y-61328114D01*
X81491980Y-61325779D01*
X81492072Y-61325308D01*
X81492527Y-61323999D01*
X81493724Y-61321304D01*
X81495407Y-61317757D01*
X81497322Y-61313893D01*
X81499214Y-61310244D01*
X81499540Y-61309638D01*
X81501205Y-61306502D01*
X81502985Y-61303055D01*
X81504461Y-61300123D01*
X81505085Y-61298820D01*
X81507264Y-61293931D01*
X81508825Y-61290253D01*
X81510077Y-61287041D01*
X81511091Y-61284217D01*
X81512328Y-61280956D01*
X81513427Y-61278527D01*
X81513886Y-61277780D01*
X81514743Y-61275804D01*
X81514789Y-61275279D01*
X81515222Y-61273537D01*
X81516336Y-61270600D01*
X81517393Y-61268193D01*
X81520433Y-61261573D01*
X81522668Y-61256551D01*
X81524048Y-61253242D01*
X81524525Y-61251760D01*
X81524525Y-61251756D01*
X81524978Y-61250383D01*
X81526273Y-61247276D01*
X81528318Y-61242647D01*
X81531019Y-61236712D01*
X81532061Y-61234455D01*
X81535530Y-61228332D01*
X81540114Y-61222160D01*
X81545211Y-61216669D01*
X81549782Y-61212885D01*
X81556114Y-61209534D01*
X81562876Y-61208037D01*
X81570436Y-61208335D01*
X81574085Y-61209016D01*
X81579040Y-61210493D01*
X81584477Y-61212692D01*
X81589609Y-61215248D01*
X81593650Y-61217794D01*
X81594517Y-61218489D01*
X81596590Y-61221102D01*
X81598339Y-61224760D01*
X81599634Y-61228896D01*
X81600344Y-61232945D01*
X81600341Y-61236341D01*
X81599494Y-61238515D01*
X81599168Y-61238782D01*
X81598211Y-61240328D01*
X81598075Y-61241280D01*
X81597940Y-61242204D01*
X81597444Y-61243534D01*
X81596437Y-61245545D01*
X81594771Y-61248514D01*
X81592294Y-61252715D01*
X81588858Y-61258425D01*
X81588043Y-61259772D01*
X81586065Y-61263176D01*
X81584407Y-61266263D01*
X81583838Y-61267449D01*
X81582450Y-61270493D01*
X81580521Y-61274590D01*
X81578367Y-61279088D01*
X81576303Y-61283334D01*
X81574639Y-61286674D01*
X81573949Y-61288003D01*
X81571276Y-61293127D01*
X81569560Y-61296805D01*
X81568885Y-61298851D01*
X81568878Y-61298969D01*
X81568377Y-61300568D01*
X81567020Y-61303613D01*
X81565020Y-61307673D01*
X81562594Y-61312309D01*
X81559956Y-61317094D01*
X81559272Y-61318293D01*
X81556951Y-61322459D01*
X81554669Y-61326771D01*
X81553498Y-61329110D01*
X81551990Y-61332033D01*
X81550770Y-61334052D01*
X81550363Y-61334530D01*
X81549547Y-61335890D01*
X81548831Y-61338056D01*
X81547982Y-61340425D01*
X81547151Y-61341607D01*
X81546160Y-61342895D01*
X81544849Y-61345387D01*
X81544487Y-61346194D01*
X81542944Y-61349767D01*
X81541484Y-61353147D01*
X81541354Y-61353450D01*
X81539931Y-61356812D01*
X81538778Y-61359615D01*
X81537481Y-61362295D01*
X81535560Y-61365694D01*
X81534639Y-61367188D01*
X81532772Y-61370296D01*
X81530343Y-61374578D01*
X81527777Y-61379284D01*
X81526847Y-61381035D01*
X81524568Y-61385370D01*
X81522520Y-61389259D01*
X81521013Y-61392109D01*
X81520575Y-61392935D01*
X81519500Y-61395377D01*
X81519123Y-61396953D01*
X81518607Y-61398594D01*
X81517327Y-61401342D01*
X81515671Y-61404471D01*
X81514028Y-61407260D01*
X81512783Y-61408983D01*
X81512580Y-61409161D01*
X81511644Y-61410373D01*
X81510180Y-61412831D01*
X81509387Y-61414305D01*
X81507782Y-61417144D01*
X81506444Y-61419092D01*
X81506023Y-61419507D01*
X81505187Y-61420978D01*
X81505053Y-61422046D01*
X81504564Y-61424073D01*
X81503314Y-61427125D01*
X81502349Y-61429070D01*
X81500815Y-61432211D01*
X81499834Y-61434706D01*
X81499644Y-61435589D01*
X81498884Y-61437433D01*
X81498022Y-61438369D01*
X81496646Y-61440222D01*
X81496399Y-61441227D01*
X81495851Y-61443002D01*
X81494472Y-61445727D01*
X81493694Y-61447023D01*
X81491528Y-61450901D01*
X81489582Y-61455084D01*
X81489249Y-61455927D01*
X81487784Y-61459676D01*
X81486318Y-61463231D01*
X81486004Y-61463954D01*
X81484965Y-61466765D01*
X81484501Y-61468922D01*
X81484499Y-61469002D01*
X81484044Y-61470677D01*
X81483688Y-61471002D01*
X81482790Y-61472106D01*
X81481370Y-61474543D01*
X81480379Y-61476477D01*
X81478779Y-61479495D01*
X81477410Y-61481634D01*
X81476863Y-61482220D01*
X81476012Y-61483708D01*
X81475845Y-61484971D01*
X81475393Y-61486854D01*
X81474185Y-61490102D01*
X81472438Y-61494148D01*
X81471518Y-61496115D01*
X81469597Y-61500358D01*
X81468113Y-61504081D01*
X81467289Y-61506711D01*
X81467191Y-61507388D01*
X81466726Y-61509522D01*
X81466109Y-61510307D01*
X81465252Y-61511808D01*
X81465028Y-61513451D01*
X81464656Y-61515556D01*
X81463681Y-61519057D01*
X81462308Y-61523342D01*
X81460745Y-61527801D01*
X81459199Y-61531823D01*
X81457877Y-61534797D01*
X81457629Y-61535265D01*
X81456512Y-61538124D01*
X81455278Y-61542791D01*
X81454011Y-61548917D01*
X81453094Y-61554217D01*
X81452340Y-61558187D01*
X81451476Y-61561728D01*
X81451003Y-61563212D01*
X81450149Y-61566392D01*
X81449883Y-61568793D01*
X81449547Y-61570793D01*
X81448925Y-61571427D01*
X81448208Y-61572391D01*
X81447148Y-61574957D01*
X81445943Y-61578625D01*
X81445598Y-61579811D01*
X81444397Y-61584041D01*
X81443359Y-61587658D01*
X81442678Y-61589996D01*
X81442599Y-61590257D01*
X81442459Y-61591677D01*
X81443289Y-61591503D01*
X81445039Y-61591490D01*
X81446435Y-61592315D01*
X81448759Y-61593389D01*
X81451837Y-61593631D01*
X81454962Y-61593157D01*
X81457428Y-61592079D01*
X81458529Y-61590515D01*
X81458537Y-61590358D01*
X81459408Y-61588794D01*
X81460169Y-61588341D01*
X81461757Y-61586956D01*
X81463122Y-61584709D01*
X81464235Y-61582402D01*
X81465012Y-61581163D01*
X81466213Y-61579759D01*
X81467940Y-61577472D01*
X81469717Y-61574971D01*
X81471065Y-61572928D01*
X81471518Y-61572040D01*
X81472183Y-61570880D01*
X81473411Y-61569449D01*
X81477089Y-61565289D01*
X81480599Y-61560557D01*
X81483405Y-61556282D01*
X81485686Y-61552691D01*
X81487271Y-61550283D01*
X81488624Y-61548414D01*
X81490204Y-61546438D01*
X81492035Y-61544240D01*
X81493972Y-61541777D01*
X81495151Y-61540002D01*
X81495317Y-61539570D01*
X81495918Y-61538319D01*
X81497417Y-61536096D01*
X81498022Y-61535284D01*
X81499730Y-61532764D01*
X81500666Y-61530843D01*
X81500726Y-61530504D01*
X81501247Y-61529093D01*
X81502563Y-61526503D01*
X81504311Y-61523377D01*
X81506117Y-61520359D01*
X81507005Y-61519016D01*
X81564551Y-61519016D01*
X81565548Y-61520570D01*
X81568210Y-61521811D01*
X81572042Y-61522551D01*
X81574184Y-61522674D01*
X81578519Y-61522168D01*
X81582275Y-61520204D01*
X81582715Y-61519876D01*
X81587263Y-61516034D01*
X81592523Y-61511005D01*
X81597942Y-61505361D01*
X81602972Y-61499669D01*
X81606572Y-61495162D01*
X81609391Y-61491416D01*
X81611922Y-61488094D01*
X81613733Y-61485763D01*
X81614085Y-61485324D01*
X81618031Y-61479355D01*
X81620928Y-61472280D01*
X81622840Y-61463850D01*
X81623832Y-61453817D01*
X81624013Y-61446843D01*
X81624167Y-61441602D01*
X81624597Y-61438365D01*
X81625322Y-61436985D01*
X81625400Y-61436949D01*
X81625784Y-61436068D01*
X81624300Y-61434621D01*
X81622725Y-61433007D01*
X81622471Y-61431804D01*
X81622124Y-61430990D01*
X81621034Y-61430797D01*
X81618795Y-61431490D01*
X81616497Y-61433731D01*
X81613908Y-61437763D01*
X81613279Y-61438910D01*
X81610862Y-61443314D01*
X81608866Y-61446660D01*
X81606756Y-61449831D01*
X81605931Y-61451008D01*
X81604357Y-61453503D01*
X81603531Y-61455340D01*
X81603494Y-61455586D01*
X81602942Y-61457035D01*
X81601479Y-61459792D01*
X81599401Y-61463370D01*
X81597002Y-61467278D01*
X81594576Y-61471029D01*
X81592417Y-61474132D01*
X81592016Y-61474669D01*
X81589959Y-61477773D01*
X81587852Y-61481557D01*
X81587254Y-61482781D01*
X81582855Y-61491181D01*
X81578483Y-61497466D01*
X81577231Y-61498879D01*
X81575328Y-61501202D01*
X81572943Y-61504539D01*
X81570386Y-61508398D01*
X81567967Y-61512285D01*
X81565997Y-61515710D01*
X81564785Y-61518178D01*
X81564551Y-61519016D01*
X81507005Y-61519016D01*
X81507006Y-61519015D01*
X81507617Y-61518093D01*
X81508244Y-61517338D01*
X81509104Y-61516120D01*
X81510503Y-61513761D01*
X81510921Y-61513011D01*
X81512412Y-61510471D01*
X81513531Y-61508860D01*
X81513706Y-61508684D01*
X81514521Y-61507523D01*
X81516018Y-61504965D01*
X81517891Y-61501534D01*
X81518114Y-61501112D01*
X81520001Y-61497617D01*
X81521533Y-61494933D01*
X81522410Y-61493585D01*
X81522455Y-61493538D01*
X81523143Y-61492642D01*
X81524511Y-61490481D01*
X81526678Y-61486860D01*
X81529763Y-61481586D01*
X81530476Y-61480360D01*
X81531481Y-61478765D01*
X81533421Y-61475802D01*
X81536017Y-61471894D01*
X81538987Y-61467465D01*
X81538991Y-61467459D01*
X81542533Y-61462009D01*
X81546199Y-61456053D01*
X81549479Y-61450429D01*
X81551282Y-61447126D01*
X81553436Y-61443083D01*
X81555259Y-61439810D01*
X81556500Y-61437750D01*
X81556854Y-61437287D01*
X81557872Y-61436081D01*
X81559416Y-61433848D01*
X81559620Y-61433529D01*
X81561274Y-61431032D01*
X81562533Y-61429287D01*
X81562602Y-61429202D01*
X81567096Y-61423622D01*
X81571321Y-61417979D01*
X81574910Y-61412788D01*
X81577498Y-61408562D01*
X81577926Y-61407754D01*
X81580087Y-61403674D01*
X81582395Y-61399579D01*
X81583458Y-61397803D01*
X81586396Y-61392989D01*
X81589466Y-61387851D01*
X81592435Y-61382789D01*
X81595072Y-61378206D01*
X81597141Y-61374505D01*
X81598412Y-61372089D01*
X81598645Y-61371570D01*
X81599860Y-61368598D01*
X81601083Y-61366219D01*
X81602243Y-61364268D01*
X81604816Y-61359878D01*
X81608096Y-61354026D01*
X81611823Y-61347182D01*
X81615201Y-61340835D01*
X81617319Y-61336827D01*
X81619164Y-61333351D01*
X81620418Y-61331017D01*
X81620620Y-61330645D01*
X81621503Y-61328918D01*
X81623101Y-61325676D01*
X81625198Y-61321359D01*
X81627581Y-61316407D01*
X81627973Y-61315589D01*
X81630707Y-61310011D01*
X81633541Y-61304467D01*
X81636137Y-61299605D01*
X81638129Y-61296116D01*
X81641190Y-61290957D01*
X81644788Y-61284691D01*
X81648557Y-61277980D01*
X81652125Y-61271484D01*
X81655125Y-61265863D01*
X81656258Y-61263664D01*
X81657823Y-61260884D01*
X81659260Y-61258795D01*
X81660353Y-61257132D01*
X81662105Y-61254083D01*
X81664205Y-61250195D01*
X81665079Y-61248518D01*
X81667228Y-61244370D01*
X81669124Y-61240749D01*
X81670462Y-61238244D01*
X81670762Y-61237700D01*
X81671657Y-61236107D01*
X81672533Y-61234499D01*
X81673580Y-61232513D01*
X81674984Y-61229791D01*
X81676932Y-61225968D01*
X81679613Y-61220684D01*
X81680583Y-61218769D01*
X81683723Y-61212774D01*
X81687193Y-61206479D01*
X81690567Y-61200639D01*
X81693390Y-61196052D01*
X81696469Y-61191138D01*
X81699565Y-61185926D01*
X81702164Y-61181291D01*
X81702933Y-61179826D01*
X81704918Y-61176097D01*
X81706727Y-61172979D01*
X81707980Y-61171125D01*
X81708013Y-61171086D01*
X81709236Y-61169336D01*
X81709508Y-61168549D01*
X81710075Y-61167165D01*
X81711449Y-61164959D01*
X81711526Y-61164848D01*
X81712777Y-61162817D01*
X81714748Y-61159323D01*
X81717188Y-61154831D01*
X81719836Y-61149807D01*
X81720215Y-61149076D01*
X81724377Y-61141268D01*
X81727961Y-61135156D01*
X81731197Y-61130426D01*
X81734315Y-61126767D01*
X81737547Y-61123869D01*
X81740302Y-61121928D01*
X81746681Y-61118611D01*
X81754158Y-61115925D01*
X81761679Y-61114242D01*
X81761974Y-61114200D01*
X81766639Y-61114508D01*
X81771930Y-61116423D01*
X81777404Y-61119667D01*
X81782621Y-61123964D01*
X81787142Y-61129038D01*
X81788329Y-61130720D01*
X81790027Y-61133470D01*
X81791041Y-61135865D01*
X81791544Y-61138632D01*
X81791711Y-61142498D01*
X81791723Y-61144874D01*
X81791626Y-61149692D01*
X81791220Y-61153177D01*
X81790324Y-61156154D01*
X81788761Y-61159449D01*
X81788447Y-61160045D01*
X81786072Y-61164131D01*
X81783440Y-61168129D01*
X81781837Y-61170274D01*
X81779768Y-61173250D01*
X81777325Y-61177408D01*
X81774976Y-61181940D01*
X81774580Y-61182773D01*
X81772721Y-61186650D01*
X81771154Y-61189721D01*
X81770132Y-61191495D01*
X81769943Y-61191725D01*
X81769221Y-61192848D01*
X81767773Y-61195497D01*
X81765811Y-61199250D01*
X81763550Y-61203683D01*
X81761201Y-61208374D01*
X81758979Y-61212899D01*
X81757096Y-61216837D01*
X81755765Y-61219764D01*
X81755501Y-61220392D01*
X81754124Y-61223638D01*
X81752347Y-61227637D01*
X81750462Y-61231754D01*
X81748760Y-61235356D01*
X81747533Y-61237807D01*
X81747292Y-61238241D01*
X81746246Y-61240180D01*
X81744758Y-61243139D01*
X81744147Y-61244396D01*
X81742619Y-61247252D01*
X81741288Y-61249211D01*
X81740882Y-61249598D01*
X81740094Y-61251064D01*
X81739798Y-61253386D01*
X81739467Y-61255853D01*
X81738745Y-61257154D01*
X81738178Y-61257792D01*
X81737253Y-61259307D01*
X81735878Y-61261880D01*
X81733965Y-61265688D01*
X81731425Y-61270910D01*
X81728166Y-61277725D01*
X81724103Y-61286311D01*
X81723698Y-61287170D01*
X81721760Y-61291500D01*
X81720249Y-61295295D01*
X81719375Y-61298006D01*
X81719244Y-61298812D01*
X81718711Y-61301648D01*
X81718173Y-61302892D01*
X81716890Y-61305538D01*
X81715322Y-61309328D01*
X81713686Y-61313654D01*
X81712203Y-61317910D01*
X81711092Y-61321490D01*
X81710570Y-61323785D01*
X81710556Y-61324000D01*
X81710069Y-61326308D01*
X81708859Y-61329618D01*
X81707861Y-61331815D01*
X81706363Y-61335241D01*
X81705393Y-61338183D01*
X81705191Y-61339417D01*
X81704595Y-61342108D01*
X81703793Y-61343744D01*
X81702321Y-61346659D01*
X81700682Y-61350917D01*
X81699160Y-61355746D01*
X81698619Y-61357777D01*
X81696621Y-61365565D01*
X81694913Y-61371780D01*
X81693540Y-61376263D01*
X81692549Y-61378855D01*
X81692260Y-61379340D01*
X81691225Y-61381276D01*
X81689854Y-61384771D01*
X81688314Y-61389280D01*
X81686774Y-61394258D01*
X81685403Y-61399161D01*
X81684372Y-61403444D01*
X81683860Y-61406426D01*
X81683676Y-61410151D01*
X81684168Y-61412489D01*
X81685152Y-61413859D01*
X81687701Y-61414939D01*
X81691367Y-61414386D01*
X81695958Y-61412291D01*
X81701284Y-61408742D01*
X81707151Y-61403831D01*
X81707885Y-61403151D01*
X81712506Y-61398989D01*
X81717819Y-61394436D01*
X81722799Y-61390367D01*
X81723571Y-61389761D01*
X81727563Y-61386619D01*
X81731289Y-61383624D01*
X81734146Y-61381262D01*
X81734931Y-61380588D01*
X81736884Y-61378962D01*
X81740185Y-61376318D01*
X81744461Y-61372950D01*
X81749337Y-61369152D01*
X81752551Y-61366671D01*
X81758355Y-61362188D01*
X81764503Y-61357408D01*
X81770384Y-61352809D01*
X81775384Y-61348867D01*
X81776891Y-61347670D01*
X81785983Y-61340643D01*
X81796561Y-61332849D01*
X81808222Y-61324569D01*
X81820557Y-61316089D01*
X81833164Y-61307689D01*
X81844729Y-61300229D01*
X81849720Y-61297044D01*
X81854046Y-61294242D01*
X81857385Y-61292036D01*
X81859415Y-61290637D01*
X81859874Y-61290268D01*
X81860917Y-61289477D01*
X81863402Y-61287779D01*
X81866970Y-61285409D01*
X81871256Y-61282598D01*
X81875901Y-61279583D01*
X81880542Y-61276596D01*
X81884817Y-61273871D01*
X81888365Y-61271643D01*
X81890823Y-61270146D01*
X81891826Y-61269613D01*
X81892883Y-61269045D01*
X81895248Y-61267542D01*
X81898453Y-61265403D01*
X81899175Y-61264911D01*
X81902979Y-61262374D01*
X81906522Y-61260129D01*
X81909072Y-61258637D01*
X81909191Y-61258574D01*
X81911545Y-61257304D01*
X81915145Y-61255307D01*
X81919362Y-61252933D01*
X81921150Y-61251917D01*
X81925120Y-61249723D01*
X81928441Y-61248016D01*
X81930629Y-61247036D01*
X81931157Y-61246895D01*
X81932298Y-61246138D01*
X81932353Y-61245814D01*
X81933208Y-61244805D01*
X81933705Y-61244726D01*
X81935017Y-61244275D01*
X81938044Y-61242915D01*
X81942816Y-61240632D01*
X81949364Y-61237411D01*
X81957718Y-61233236D01*
X81967908Y-61228093D01*
X81979963Y-61221967D01*
X81988604Y-61217558D01*
X81992946Y-61215396D01*
X81996631Y-61213663D01*
X81999202Y-61212570D01*
X82000126Y-61212293D01*
X82002002Y-61211787D01*
X82005250Y-61210462D01*
X82009363Y-61208566D01*
X82013835Y-61206350D01*
X82018157Y-61204064D01*
X82021822Y-61201958D01*
X82024011Y-61200519D01*
X82027452Y-61197480D01*
X82030659Y-61193845D01*
X82031585Y-61192545D01*
X82033453Y-61189834D01*
X82034915Y-61188000D01*
X82035392Y-61187578D01*
X82036201Y-61186348D01*
X82036203Y-61186275D01*
X82036782Y-61185108D01*
X82038385Y-61182472D01*
X82040812Y-61178679D01*
X82043863Y-61174044D01*
X82046480Y-61170145D01*
X82049867Y-61165108D01*
X82052783Y-61160705D01*
X82055031Y-61157244D01*
X82056411Y-61155029D01*
X82056758Y-61154366D01*
X82056877Y-61153863D01*
X82057430Y-61152989D01*
X82058700Y-61151366D01*
X82060976Y-61148610D01*
X82062127Y-61147230D01*
X82064064Y-61144784D01*
X82065244Y-61143046D01*
X82065411Y-61142635D01*
X82065999Y-61141478D01*
X82067533Y-61139117D01*
X82069468Y-61136362D01*
X82072036Y-61132718D01*
X82074421Y-61129176D01*
X82075688Y-61127185D01*
X82082198Y-61116597D01*
X82087880Y-61107706D01*
X82092888Y-61100280D01*
X82097377Y-61094086D01*
X82099680Y-61091120D01*
X82102738Y-61087349D01*
X82105335Y-61084256D01*
X82107158Y-61082207D01*
X82107851Y-61081565D01*
X82108678Y-61080333D01*
X82108682Y-61080244D01*
X82109236Y-61079001D01*
X82110629Y-61076616D01*
X82112460Y-61073716D01*
X82114327Y-61070931D01*
X82115826Y-61068891D01*
X82116254Y-61068403D01*
X82117424Y-61066829D01*
X82118944Y-61064365D01*
X82120178Y-61062046D01*
X82120239Y-61061912D01*
X82121225Y-61060170D01*
X82121584Y-61059749D01*
X82123026Y-61058017D01*
X82125129Y-61054927D01*
X82127549Y-61051039D01*
X82129938Y-61046908D01*
X82131951Y-61043093D01*
X82132006Y-61042981D01*
X82137380Y-61033482D01*
X82143423Y-61025759D01*
X82150430Y-61019458D01*
X82153575Y-61017253D01*
X82159721Y-61014014D01*
X82165679Y-61012666D01*
X82172089Y-61013098D01*
X82174603Y-61013661D01*
X82179313Y-61015285D01*
X82183906Y-61017567D01*
X82187842Y-61020168D01*
X82190580Y-61022747D01*
X82191457Y-61024237D01*
X82192571Y-61025944D01*
X82194775Y-61028389D01*
X82196574Y-61030114D01*
X82201077Y-61034183D01*
X82200924Y-61042206D01*
X82200665Y-61047051D01*
X82199933Y-61050802D01*
X82198463Y-61054520D01*
X82197272Y-61056883D01*
X82195057Y-61061163D01*
X82192414Y-61066366D01*
X82189861Y-61071469D01*
X82189506Y-61072189D01*
X82187439Y-61076355D01*
X82185621Y-61079985D01*
X82184348Y-61082486D01*
X82184074Y-61083007D01*
X82181317Y-61088216D01*
X82179344Y-61092135D01*
X82177877Y-61095356D01*
X82176630Y-61098470D01*
X82176345Y-61099234D01*
X82174842Y-61103069D01*
X82172874Y-61107781D01*
X82170746Y-61112677D01*
X82168758Y-61117059D01*
X82167216Y-61120236D01*
X82167032Y-61120584D01*
X82166147Y-61123263D01*
X82166015Y-61124508D01*
X82165229Y-61126912D01*
X82164393Y-61127901D01*
X82163016Y-61129798D01*
X82162770Y-61130841D01*
X82162176Y-61132724D01*
X82160714Y-61135307D01*
X82160383Y-61135789D01*
X82158222Y-61139076D01*
X82156315Y-61142367D01*
X82156273Y-61142446D01*
X82154557Y-61145586D01*
X82152982Y-61148260D01*
X82152107Y-61150013D01*
X82152437Y-61151346D01*
X82154225Y-61153041D01*
X82154657Y-61153392D01*
X82158931Y-61155512D01*
X82164253Y-61156014D01*
X82169726Y-61154999D01*
X82172102Y-61154347D01*
X82176019Y-61153364D01*
X82180904Y-61152189D01*
X82185488Y-61151123D01*
X82190826Y-61149892D01*
X82195771Y-61148738D01*
X82199720Y-61147802D01*
X82201840Y-61147283D01*
X82205649Y-61146586D01*
X82209377Y-61146291D01*
X82209419Y-61146291D01*
X82213128Y-61145941D01*
X82216866Y-61145105D01*
X82218893Y-61144563D01*
X82221590Y-61144031D01*
X82225239Y-61143472D01*
X82230117Y-61142847D01*
X82236503Y-61142119D01*
X82244678Y-61141250D01*
X82247688Y-61140939D01*
X82255791Y-61140061D01*
X82262017Y-61139271D01*
X82266649Y-61138517D01*
X82269972Y-61137748D01*
X82272269Y-61136915D01*
X82273300Y-61136344D01*
X82274463Y-61135479D01*
X82275521Y-61134345D01*
X82276660Y-61132606D01*
X82278068Y-61129937D01*
X82279932Y-61126005D01*
X82282438Y-61120482D01*
X82282993Y-61119246D01*
X82284745Y-61115431D01*
X82286197Y-61112434D01*
X82287103Y-61110761D01*
X82287231Y-61110592D01*
X82288028Y-61109347D01*
X82289283Y-61106905D01*
X82289693Y-61106041D01*
X82291096Y-61103364D01*
X82292290Y-61101639D01*
X82292529Y-61101431D01*
X82293410Y-61100047D01*
X82294226Y-61097508D01*
X82294267Y-61097327D01*
X82295338Y-61094194D01*
X82297298Y-61089931D01*
X82299812Y-61085192D01*
X82302546Y-61080632D01*
X82303593Y-61079054D01*
X82304986Y-61076555D01*
X82305564Y-61074589D01*
X82306331Y-61072548D01*
X82307012Y-61071794D01*
X82308233Y-61070032D01*
X82309470Y-61067152D01*
X82309746Y-61066301D01*
X82310884Y-61063225D01*
X82312105Y-61060945D01*
X82312380Y-61060609D01*
X82313466Y-61059002D01*
X82315124Y-61056010D01*
X82317035Y-61052217D01*
X82317442Y-61051365D01*
X82319256Y-61047714D01*
X82320781Y-61044969D01*
X82321752Y-61043597D01*
X82321888Y-61043522D01*
X82322722Y-61042628D01*
X82323167Y-61041430D01*
X82323932Y-61039689D01*
X82325584Y-61036579D01*
X82327865Y-61032570D01*
X82330055Y-61028891D01*
X82334376Y-61021723D01*
X82338005Y-61015604D01*
X82340805Y-61010771D01*
X82342638Y-61007458D01*
X82343005Y-61006741D01*
X82344076Y-61004803D01*
X82345721Y-61002034D01*
X82346152Y-61001333D01*
X82347756Y-60998667D01*
X82349788Y-60995144D01*
X82352413Y-60990470D01*
X82355798Y-60984353D01*
X82358160Y-60980053D01*
X82361037Y-60974902D01*
X82364249Y-60969299D01*
X82367451Y-60963834D01*
X82370296Y-60959098D01*
X82372394Y-60955752D01*
X82373879Y-60953541D01*
X82376181Y-60950186D01*
X82378871Y-60946306D01*
X82379666Y-60945168D01*
X82384470Y-60938200D01*
X82388271Y-60932475D01*
X82390952Y-60928169D01*
X82392075Y-60926150D01*
X82393230Y-60924210D01*
X82395229Y-60921157D01*
X82397650Y-60917636D01*
X82397776Y-60917456D01*
X82400765Y-60913103D01*
X82404139Y-60908017D01*
X82407106Y-60903393D01*
X82409617Y-60899430D01*
X82411949Y-60895814D01*
X82413661Y-60893231D01*
X82413867Y-60892930D01*
X82415267Y-60890721D01*
X82415902Y-60889335D01*
X82415905Y-60889289D01*
X82416566Y-60887989D01*
X82418552Y-60884984D01*
X82421862Y-60880273D01*
X82426497Y-60873855D01*
X82427804Y-60872063D01*
X82430270Y-60868639D01*
X82432718Y-60865165D01*
X82432968Y-60864804D01*
X82434547Y-60862542D01*
X82437040Y-60858999D01*
X82440109Y-60854655D01*
X82443413Y-60849992D01*
X82443490Y-60849885D01*
X82446769Y-60845260D01*
X82449794Y-60840981D01*
X82452235Y-60837516D01*
X82453763Y-60835330D01*
X82453797Y-60835281D01*
X82455341Y-60833102D01*
X82457807Y-60829678D01*
X82460834Y-60825510D01*
X82463576Y-60821759D01*
X82467411Y-60816531D01*
X82470225Y-60812706D01*
X82472272Y-60809941D01*
X82473810Y-60807893D01*
X82475094Y-60806220D01*
X82476382Y-60804579D01*
X82477028Y-60803761D01*
X82479038Y-60800887D01*
X82481376Y-60797066D01*
X82482892Y-60794332D01*
X82487515Y-60786333D01*
X82492115Y-60780072D01*
X82496997Y-60775144D01*
X82497765Y-60774500D01*
X82500407Y-60772425D01*
X82502519Y-60771205D01*
X82504831Y-60770624D01*
X82508070Y-60770467D01*
X82511258Y-60770492D01*
G37*
G36*
X81034959Y-60707443D02*
G01*
X81040039Y-60707662D01*
X81044990Y-60708016D01*
X81052001Y-60708744D01*
X81057244Y-60709684D01*
X81061120Y-60711024D01*
X81064026Y-60712951D01*
X81066359Y-60715654D01*
X81068390Y-60719078D01*
X81069877Y-60722050D01*
X81070749Y-60724504D01*
X81071121Y-60727146D01*
X81071106Y-60730680D01*
X81070893Y-60734601D01*
X81070442Y-60739850D01*
X81069830Y-60743201D01*
X81069001Y-60744918D01*
X81068697Y-60745157D01*
X81067307Y-60746729D01*
X81065998Y-60749407D01*
X81065851Y-60749830D01*
X81064801Y-60752295D01*
X81063801Y-60753562D01*
X81063637Y-60753608D01*
X81062858Y-60754562D01*
X81061818Y-60757041D01*
X81060940Y-60759828D01*
X81059685Y-60764079D01*
X81058356Y-60768186D01*
X81057665Y-60770126D01*
X81056651Y-60773397D01*
X81056137Y-60776225D01*
X81056121Y-60776617D01*
X81055735Y-60778875D01*
X81054727Y-60782308D01*
X81053566Y-60785520D01*
X81051295Y-60791385D01*
X81049688Y-60795843D01*
X81048558Y-60799475D01*
X81047717Y-60802861D01*
X81047278Y-60804992D01*
X81046206Y-60809022D01*
X81044744Y-60812807D01*
X81044143Y-60813974D01*
X81042827Y-60817135D01*
X81041752Y-60821280D01*
X81041369Y-60823709D01*
X81040843Y-60827280D01*
X81040211Y-60830005D01*
X81039784Y-60831016D01*
X81039016Y-60832640D01*
X81037988Y-60835604D01*
X81037266Y-60838048D01*
X81035941Y-60842561D01*
X81034339Y-60847635D01*
X81033439Y-60850324D01*
X81032264Y-60854038D01*
X81031467Y-60857159D01*
X81031237Y-60858711D01*
X81030742Y-60860903D01*
X81029511Y-60863891D01*
X81029074Y-60864747D01*
X81027690Y-60867883D01*
X81026949Y-60870644D01*
X81026910Y-60871170D01*
X81026489Y-60873346D01*
X81025872Y-60874198D01*
X81025032Y-60875514D01*
X81023921Y-60878266D01*
X81023033Y-60881023D01*
X81021895Y-60884774D01*
X81020856Y-60887942D01*
X81020329Y-60889370D01*
X81019090Y-60892593D01*
X81017536Y-60896988D01*
X81015898Y-60901852D01*
X81014411Y-60906480D01*
X81013309Y-60910170D01*
X81012952Y-60911546D01*
X81012127Y-60914621D01*
X81010888Y-60918657D01*
X81009426Y-60923096D01*
X81007933Y-60927378D01*
X81006601Y-60930948D01*
X81005620Y-60933245D01*
X81005353Y-60933705D01*
X81004767Y-60935204D01*
X81003920Y-60938276D01*
X81002960Y-60942372D01*
X81002547Y-60944317D01*
X81001583Y-60948601D01*
X81000660Y-60952019D01*
X80999921Y-60954056D01*
X80999687Y-60954387D01*
X80998867Y-60955835D01*
X80998784Y-60956563D01*
X80998356Y-60958438D01*
X80997265Y-60961417D01*
X80996475Y-60963249D01*
X80995151Y-60966975D01*
X80993933Y-60971789D01*
X80993117Y-60976440D01*
X80992408Y-60980909D01*
X80991540Y-60984953D01*
X80990695Y-60987727D01*
X80990659Y-60987811D01*
X80989533Y-60990752D01*
X80988223Y-60994658D01*
X80987544Y-60996875D01*
X80986433Y-61000317D01*
X80985397Y-61002959D01*
X80984887Y-61003907D01*
X80984174Y-61005663D01*
X80983499Y-61008651D01*
X80983294Y-61009987D01*
X80982355Y-61014205D01*
X80980837Y-61018530D01*
X80980440Y-61019401D01*
X80979067Y-61022937D01*
X80978293Y-61026308D01*
X80978230Y-61027207D01*
X80977790Y-61030556D01*
X80976733Y-61034020D01*
X80975205Y-61038383D01*
X80973899Y-61043408D01*
X80973039Y-61048128D01*
X80972821Y-61050870D01*
X80972283Y-61053950D01*
X80971347Y-61055992D01*
X80970556Y-61057657D01*
X80969559Y-61060726D01*
X80968314Y-61065359D01*
X80966780Y-61071715D01*
X80964915Y-61079950D01*
X80963727Y-61085368D01*
X80962900Y-61088677D01*
X80962100Y-61091069D01*
X80961716Y-61091768D01*
X80961010Y-61093450D01*
X80960922Y-61094359D01*
X80960599Y-61096137D01*
X80959733Y-61099399D01*
X80958479Y-61103581D01*
X80957767Y-61105808D01*
X80956230Y-61110917D01*
X80954902Y-61116063D01*
X80954008Y-61120354D01*
X80953848Y-61121410D01*
X80952984Y-61126020D01*
X80951679Y-61130775D01*
X80951055Y-61132538D01*
X80949858Y-61136100D01*
X80949127Y-61139260D01*
X80949022Y-61140365D01*
X80948727Y-61142581D01*
X80947940Y-61146215D01*
X80946808Y-61150611D01*
X80946318Y-61152345D01*
X80945076Y-61157081D01*
X80944134Y-61161524D01*
X80943648Y-61164915D01*
X80943615Y-61165667D01*
X80943305Y-61168631D01*
X80942545Y-61170696D01*
X80942402Y-61170868D01*
X80941390Y-61172665D01*
X80940432Y-61175560D01*
X80940273Y-61176223D01*
X80939510Y-61179532D01*
X80938470Y-61183875D01*
X80937604Y-61187398D01*
X80936498Y-61192285D01*
X80935495Y-61197457D01*
X80934996Y-61200542D01*
X80934371Y-61204165D01*
X80933671Y-61207013D01*
X80933238Y-61208109D01*
X80932535Y-61210026D01*
X80931829Y-61213119D01*
X80931609Y-61214437D01*
X80930637Y-61220312D01*
X80929599Y-61225599D01*
X80928592Y-61229865D01*
X80927715Y-61232673D01*
X80927306Y-61233462D01*
X80926800Y-61234902D01*
X80926051Y-61238073D01*
X80925129Y-61242568D01*
X80924106Y-61247976D01*
X80923053Y-61253892D01*
X80922040Y-61259903D01*
X80921139Y-61265602D01*
X80920421Y-61270581D01*
X80919958Y-61274430D01*
X80919815Y-61276558D01*
X80919541Y-61279752D01*
X80918833Y-61283963D01*
X80918105Y-61287207D01*
X80916988Y-61291609D01*
X80915899Y-61295891D01*
X80915290Y-61298280D01*
X80914217Y-61301811D01*
X80913005Y-61304908D01*
X80912810Y-61305311D01*
X80912004Y-61307762D01*
X80911236Y-61311535D01*
X80910699Y-61315588D01*
X80910031Y-61320859D01*
X80909076Y-61326563D01*
X80908325Y-61330192D01*
X80907224Y-61335347D01*
X80906163Y-61341019D01*
X80905631Y-61344255D01*
X80904810Y-61348572D01*
X80903763Y-61352559D01*
X80902935Y-61354832D01*
X80901856Y-61357887D01*
X80900801Y-61362015D01*
X80900228Y-61365003D01*
X80899517Y-61368813D01*
X80898765Y-61371915D01*
X80898256Y-61373357D01*
X80897763Y-61375114D01*
X80897146Y-61378483D01*
X80896492Y-61382929D01*
X80896058Y-61386444D01*
X80895364Y-61391552D01*
X80894538Y-61396181D01*
X80893701Y-61399699D01*
X80893211Y-61401089D01*
X80892224Y-61403935D01*
X80891255Y-61407953D01*
X80890652Y-61411365D01*
X80889886Y-61415905D01*
X80888798Y-61421440D01*
X80887606Y-61426871D01*
X80887445Y-61427551D01*
X80886386Y-61432802D01*
X80885601Y-61438254D01*
X80885234Y-61442851D01*
X80885224Y-61443444D01*
X80885059Y-61447053D01*
X80884658Y-61449721D01*
X80884192Y-61450763D01*
X80883542Y-61452100D01*
X80882908Y-61454911D01*
X80882541Y-61457588D01*
X80881630Y-61464319D01*
X80880367Y-61470854D01*
X80878913Y-61476448D01*
X80877962Y-61479171D01*
X80877290Y-61481928D01*
X80876784Y-61486157D01*
X80876518Y-61491167D01*
X80876496Y-61492693D01*
X80876345Y-61498986D01*
X80875909Y-61505295D01*
X80875128Y-61512233D01*
X80873940Y-61520409D01*
X80873303Y-61524370D01*
X80872213Y-61530877D01*
X80871363Y-61535574D01*
X80870682Y-61538788D01*
X80870095Y-61540848D01*
X80869529Y-61542085D01*
X80869285Y-61542432D01*
X80868367Y-61544538D01*
X80867465Y-61548241D01*
X80866671Y-61552974D01*
X80866070Y-61558174D01*
X80865754Y-61563273D01*
X80865726Y-61565035D01*
X80866010Y-61569687D01*
X80867011Y-61572548D01*
X80868955Y-61573936D01*
X80872067Y-61574169D01*
X80872217Y-61574158D01*
X80873906Y-61573651D01*
X80875711Y-61572213D01*
X80877806Y-61569612D01*
X80880368Y-61565617D01*
X80883573Y-61559990D01*
X80885294Y-61556823D01*
X80887729Y-61552323D01*
X80890100Y-61547986D01*
X80891991Y-61544571D01*
X80892402Y-61543842D01*
X80894562Y-61539948D01*
X80896752Y-61535882D01*
X80897117Y-61535188D01*
X80899070Y-61531554D01*
X80901370Y-61527415D01*
X80902295Y-61525789D01*
X80904570Y-61521792D01*
X80906891Y-61517650D01*
X80907693Y-61516199D01*
X80909457Y-61513172D01*
X80911012Y-61510812D01*
X80911479Y-61510219D01*
X80913992Y-61507301D01*
X80915233Y-61505555D01*
X80915488Y-61504791D01*
X80916031Y-61503621D01*
X80917499Y-61501050D01*
X80919645Y-61497497D01*
X80921438Y-61494621D01*
X80923916Y-61490619D01*
X80925889Y-61487298D01*
X80927110Y-61485075D01*
X80927387Y-61484398D01*
X80927949Y-61483233D01*
X80929478Y-61480653D01*
X80931738Y-61477044D01*
X80934419Y-61472906D01*
X80937179Y-61468584D01*
X80939430Y-61464828D01*
X80940933Y-61462052D01*
X80941450Y-61460698D01*
X80942214Y-61458784D01*
X80943073Y-61457841D01*
X80944433Y-61456268D01*
X80944695Y-61455523D01*
X80945228Y-61454080D01*
X80946568Y-61451602D01*
X80947228Y-61450517D01*
X80948965Y-61447601D01*
X80951258Y-61443553D01*
X80953660Y-61439164D01*
X80954087Y-61438369D01*
X80957309Y-61432343D01*
X80959665Y-61427978D01*
X80961298Y-61425018D01*
X80962349Y-61423211D01*
X80962957Y-61422301D01*
X80963096Y-61422143D01*
X80964258Y-61420623D01*
X80966040Y-61417924D01*
X80968002Y-61414755D01*
X80969704Y-61411824D01*
X80970669Y-61409932D01*
X80971785Y-61407681D01*
X80973578Y-61404446D01*
X80974940Y-61402130D01*
X80976849Y-61398893D01*
X80978340Y-61396238D01*
X80978921Y-61395099D01*
X80980245Y-61392853D01*
X80981001Y-61391853D01*
X80982302Y-61389971D01*
X80984072Y-61387022D01*
X80984995Y-61385362D01*
X80987774Y-61380237D01*
X80989707Y-61376705D01*
X80990971Y-61374455D01*
X80991744Y-61373169D01*
X80992203Y-61372538D01*
X80992357Y-61372382D01*
X80993140Y-61371244D01*
X80994680Y-61368708D01*
X80996679Y-61365266D01*
X80997225Y-61364306D01*
X80999743Y-61359894D01*
X81002304Y-61355468D01*
X81004365Y-61351963D01*
X81004423Y-61351865D01*
X81006673Y-61347978D01*
X81008877Y-61343973D01*
X81009580Y-61342632D01*
X81011154Y-61339601D01*
X81012427Y-61337204D01*
X81012714Y-61336683D01*
X81013623Y-61334956D01*
X81015173Y-61331913D01*
X81017048Y-61328179D01*
X81017258Y-61327758D01*
X81019103Y-61324261D01*
X81020664Y-61321676D01*
X81021647Y-61320485D01*
X81021738Y-61320456D01*
X81022558Y-61319625D01*
X81022583Y-61319363D01*
X81023160Y-61317881D01*
X81024751Y-61314963D01*
X81027137Y-61310950D01*
X81030103Y-61306188D01*
X81033434Y-61301020D01*
X81036913Y-61295790D01*
X81040324Y-61290841D01*
X81041746Y-61288844D01*
X81044520Y-61284939D01*
X81046747Y-61281695D01*
X81048168Y-61279501D01*
X81048545Y-61278766D01*
X81049144Y-61277579D01*
X81050638Y-61275395D01*
X81051250Y-61274577D01*
X81052956Y-61272075D01*
X81053893Y-61270187D01*
X81053954Y-61269858D01*
X81054642Y-61268147D01*
X81055353Y-61267256D01*
X81056399Y-61265809D01*
X81058253Y-61262882D01*
X81060663Y-61258883D01*
X81063379Y-61254219D01*
X81063737Y-61253594D01*
X81066949Y-61247982D01*
X81069397Y-61243778D01*
X81071386Y-61240506D01*
X81073221Y-61237692D01*
X81075207Y-61234862D01*
X81077648Y-61231543D01*
X81079571Y-61228966D01*
X81082718Y-61224520D01*
X81085820Y-61219742D01*
X81088261Y-61215585D01*
X81088479Y-61215175D01*
X81091083Y-61210799D01*
X81094344Y-61206098D01*
X81096668Y-61203159D01*
X81099101Y-61200211D01*
X81100851Y-61197903D01*
X81101551Y-61196718D01*
X81101552Y-61196701D01*
X81102153Y-61195526D01*
X81103735Y-61193133D01*
X81105964Y-61190023D01*
X81106140Y-61189787D01*
X81109832Y-61184751D01*
X81112753Y-61180635D01*
X81114730Y-61177687D01*
X81115592Y-61176156D01*
X81115615Y-61176046D01*
X81116152Y-61174903D01*
X81117542Y-61172485D01*
X81119457Y-61169325D01*
X81121568Y-61165961D01*
X81123544Y-61162926D01*
X81124810Y-61161091D01*
X81127154Y-61157916D01*
X81130578Y-61153359D01*
X81134835Y-61147746D01*
X81139676Y-61141406D01*
X81142548Y-61137662D01*
X81145251Y-61134272D01*
X81147518Y-61131662D01*
X81148999Y-61130224D01*
X81149309Y-61130064D01*
X81150147Y-61129195D01*
X81150232Y-61128574D01*
X81150996Y-61126706D01*
X81151964Y-61125646D01*
X81153687Y-61123724D01*
X81155954Y-61120582D01*
X81158314Y-61116921D01*
X81160316Y-61113443D01*
X81161509Y-61110849D01*
X81161532Y-61110777D01*
X81162457Y-61108935D01*
X81163169Y-61108429D01*
X81164070Y-61107514D01*
X81164729Y-61105767D01*
X81165682Y-61104101D01*
X81167885Y-61101228D01*
X81171062Y-61097472D01*
X81174940Y-61093162D01*
X81177580Y-61090352D01*
X81183730Y-61083869D01*
X81188544Y-61078674D01*
X81192232Y-61074535D01*
X81194996Y-61071217D01*
X81197043Y-61068489D01*
X81197830Y-61067322D01*
X81199425Y-61065129D01*
X81201843Y-61062093D01*
X81203780Y-61059784D01*
X81207048Y-61055938D01*
X81210624Y-61051665D01*
X81212434Y-61049475D01*
X81214577Y-61046988D01*
X81217891Y-61043304D01*
X81222046Y-61038776D01*
X81226712Y-61033767D01*
X81231227Y-61028986D01*
X81235847Y-61024085D01*
X81240046Y-61019555D01*
X81243554Y-61015689D01*
X81246107Y-61012783D01*
X81247434Y-61011131D01*
X81247453Y-61011102D01*
X81250252Y-61007538D01*
X81254052Y-61003581D01*
X81258269Y-60999760D01*
X81262318Y-60996608D01*
X81265551Y-60994682D01*
X81268120Y-60993755D01*
X81271214Y-60993112D01*
X81275299Y-60992698D01*
X81280839Y-60992454D01*
X81284439Y-60992376D01*
X81298652Y-60992138D01*
X81304410Y-60998320D01*
X81307408Y-61001679D01*
X81309217Y-61004257D01*
X81310208Y-61006771D01*
X81310752Y-61009937D01*
X81310845Y-61010760D01*
X81311390Y-61014527D01*
X81312078Y-61017606D01*
X81312551Y-61018896D01*
X81313224Y-61021077D01*
X81313531Y-61023975D01*
X81313473Y-61026833D01*
X81313056Y-61028894D01*
X81312498Y-61029459D01*
X81311641Y-61030376D01*
X81311385Y-61031892D01*
X81311072Y-61034124D01*
X81310281Y-61037666D01*
X81309181Y-61041766D01*
X81309142Y-61041899D01*
X81307842Y-61046409D01*
X81306614Y-61050759D01*
X81305781Y-61053799D01*
X81303909Y-61060647D01*
X81302249Y-61066231D01*
X81300539Y-61071402D01*
X81299094Y-61075435D01*
X81297723Y-61079440D01*
X81296719Y-61082884D01*
X81296283Y-61085069D01*
X81296278Y-61085171D01*
X81295876Y-61087557D01*
X81294922Y-61090981D01*
X81293709Y-61094540D01*
X81292531Y-61097331D01*
X81292057Y-61098143D01*
X81291328Y-61099696D01*
X81290238Y-61102637D01*
X81289215Y-61105724D01*
X81288011Y-61109294D01*
X81286935Y-61112048D01*
X81286313Y-61113243D01*
X81285627Y-61115068D01*
X81285453Y-61116779D01*
X81285104Y-61119021D01*
X81284186Y-61122548D01*
X81282892Y-61126617D01*
X81282816Y-61126837D01*
X81281358Y-61131405D01*
X81280134Y-61135947D01*
X81279445Y-61139269D01*
X81278833Y-61142310D01*
X81278131Y-61144324D01*
X81277850Y-61144687D01*
X81277141Y-61146003D01*
X81276429Y-61148627D01*
X81276256Y-61149551D01*
X81275421Y-61153161D01*
X81274122Y-61157460D01*
X81273381Y-61159552D01*
X81271107Y-61165799D01*
X81269009Y-61171991D01*
X81267215Y-61177705D01*
X81265854Y-61182519D01*
X81265056Y-61186008D01*
X81264900Y-61187362D01*
X81264459Y-61189982D01*
X81263667Y-61191444D01*
X81262785Y-61193181D01*
X81261933Y-61196210D01*
X81261588Y-61198028D01*
X81260559Y-61202412D01*
X81259018Y-61206855D01*
X81258494Y-61208032D01*
X81257128Y-61211300D01*
X81256311Y-61214106D01*
X81256211Y-61214916D01*
X81255539Y-61217560D01*
X81254589Y-61219247D01*
X81253323Y-61221686D01*
X81253000Y-61223272D01*
X81252579Y-61225289D01*
X81251493Y-61228445D01*
X81250477Y-61230908D01*
X81248885Y-61235025D01*
X81247238Y-61240089D01*
X81246031Y-61244471D01*
X81244998Y-61248328D01*
X81244038Y-61251286D01*
X81243339Y-61252780D01*
X81243269Y-61252842D01*
X81242620Y-61254136D01*
X81241948Y-61256807D01*
X81241699Y-61258246D01*
X81240886Y-61262004D01*
X81239760Y-61265368D01*
X81239418Y-61266103D01*
X81238303Y-61268685D01*
X81237862Y-61270537D01*
X81237398Y-61272270D01*
X81236211Y-61275160D01*
X81235151Y-61277386D01*
X81233607Y-61280964D01*
X81232611Y-61284233D01*
X81232411Y-61285657D01*
X81232022Y-61288278D01*
X81231058Y-61291933D01*
X81230206Y-61294493D01*
X81228676Y-61299125D01*
X81227187Y-61304329D01*
X81226536Y-61306934D01*
X81225392Y-61311428D01*
X81224080Y-61315912D01*
X81223333Y-61318158D01*
X81222317Y-61322153D01*
X81221708Y-61326817D01*
X81221629Y-61328809D01*
X81221351Y-61332746D01*
X81220642Y-61336231D01*
X81220117Y-61337597D01*
X81218868Y-61340466D01*
X81217579Y-61344153D01*
X81217224Y-61345337D01*
X81216083Y-61348955D01*
X81214891Y-61352138D01*
X81214550Y-61352909D01*
X81213087Y-61356690D01*
X81211432Y-61362211D01*
X81209695Y-61369071D01*
X81208132Y-61376167D01*
X81207173Y-61380516D01*
X81206237Y-61384249D01*
X81205499Y-61386687D01*
X81205378Y-61386985D01*
X81204108Y-61390310D01*
X81202487Y-61395265D01*
X81200647Y-61401375D01*
X81198720Y-61408159D01*
X81196835Y-61415140D01*
X81195124Y-61421841D01*
X81193718Y-61427782D01*
X81192748Y-61432485D01*
X81192491Y-61434047D01*
X81191850Y-61437384D01*
X81191067Y-61439966D01*
X81190788Y-61440536D01*
X81190045Y-61442518D01*
X81189294Y-61445725D01*
X81188980Y-61447564D01*
X81187923Y-61454413D01*
X81187039Y-61459425D01*
X81186265Y-61462915D01*
X81185536Y-61465196D01*
X81185181Y-61465954D01*
X81184315Y-61468157D01*
X81183146Y-61471923D01*
X81181819Y-61476702D01*
X81180482Y-61481940D01*
X81179280Y-61487086D01*
X81178359Y-61491587D01*
X81178300Y-61491917D01*
X81177526Y-61495535D01*
X81176662Y-61498543D01*
X81176287Y-61499489D01*
X81175331Y-61502141D01*
X81174221Y-61506229D01*
X81173132Y-61511047D01*
X81172236Y-61515893D01*
X81172178Y-61516257D01*
X81171511Y-61518970D01*
X81170656Y-61520620D01*
X81170545Y-61520710D01*
X81169858Y-61522068D01*
X81169150Y-61524902D01*
X81168692Y-61527741D01*
X81167817Y-61532501D01*
X81166461Y-61537745D01*
X81165548Y-61540559D01*
X81164284Y-61544558D01*
X81163421Y-61548250D01*
X81163180Y-61550295D01*
X81162631Y-61553415D01*
X81161556Y-61555678D01*
X81160311Y-61558410D01*
X81159968Y-61560636D01*
X81159694Y-61563066D01*
X81159175Y-61564287D01*
X81158125Y-61566170D01*
X81156931Y-61569567D01*
X81155777Y-61573852D01*
X81154844Y-61578398D01*
X81154583Y-61580081D01*
X81152853Y-61588226D01*
X81150169Y-61595315D01*
X81150087Y-61595482D01*
X81149376Y-61597978D01*
X81149150Y-61600413D01*
X81148587Y-61603487D01*
X81147562Y-61605566D01*
X81146247Y-61608351D01*
X81145877Y-61610371D01*
X81145553Y-61612779D01*
X81144814Y-61616364D01*
X81143836Y-61620422D01*
X81142797Y-61624247D01*
X81141871Y-61627138D01*
X81141392Y-61628220D01*
X81140849Y-61629857D01*
X81140229Y-61632818D01*
X81139924Y-61634711D01*
X81139314Y-61638051D01*
X81138635Y-61640517D01*
X81138307Y-61641201D01*
X81137586Y-61642676D01*
X81136405Y-61645643D01*
X81134986Y-61649535D01*
X81134564Y-61650750D01*
X81132379Y-61657900D01*
X81130696Y-61665373D01*
X81129367Y-61673889D01*
X81128732Y-61679301D01*
X81128148Y-61683064D01*
X81127360Y-61686030D01*
X81126682Y-61687361D01*
X81125602Y-61689468D01*
X81125351Y-61691148D01*
X81124923Y-61693440D01*
X81123814Y-61696840D01*
X81122647Y-61699721D01*
X81121179Y-61703531D01*
X81120196Y-61707020D01*
X81119942Y-61708876D01*
X81119512Y-61712232D01*
X81118704Y-61714962D01*
X81117732Y-61717994D01*
X81116841Y-61721799D01*
X81116643Y-61722875D01*
X81115934Y-61727081D01*
X81115225Y-61731302D01*
X81115097Y-61732070D01*
X81114225Y-61736042D01*
X81113076Y-61739897D01*
X81112972Y-61740183D01*
X81110761Y-61746560D01*
X81109495Y-61751199D01*
X81109125Y-61754107D01*
X81108626Y-61756858D01*
X81107616Y-61759440D01*
X81106375Y-61762858D01*
X81105069Y-61768425D01*
X81103703Y-61776129D01*
X81102618Y-61783454D01*
X81101910Y-61788089D01*
X81101100Y-61792695D01*
X81100563Y-61795354D01*
X81099913Y-61799425D01*
X81099502Y-61804159D01*
X81099436Y-61806226D01*
X81099212Y-61809761D01*
X81098688Y-61812448D01*
X81098227Y-61813390D01*
X81097592Y-61814935D01*
X81096885Y-61818069D01*
X81096223Y-61822231D01*
X81095987Y-61824155D01*
X81095094Y-61832013D01*
X81094380Y-61838031D01*
X81093797Y-61842518D01*
X81093301Y-61845788D01*
X81092840Y-61848149D01*
X81092374Y-61849914D01*
X81091912Y-61851231D01*
X81091374Y-61853654D01*
X81091039Y-61857701D01*
X81090901Y-61863533D01*
X81090954Y-61871312D01*
X81091004Y-61873948D01*
X81091387Y-61884864D01*
X81092086Y-61893992D01*
X81093189Y-61901695D01*
X81094782Y-61908336D01*
X81096950Y-61914280D01*
X81099779Y-61919888D01*
X81103168Y-61925252D01*
X81106805Y-61930380D01*
X81109758Y-61934040D01*
X81112417Y-61936638D01*
X81115171Y-61938585D01*
X81116697Y-61939437D01*
X81119161Y-61940875D01*
X81120641Y-61941934D01*
X81122262Y-61943291D01*
X81124690Y-61945268D01*
X81125238Y-61945708D01*
X81127413Y-61947809D01*
X81128384Y-61950091D01*
X81128597Y-61953310D01*
X81127577Y-61958342D01*
X81124511Y-61962722D01*
X81119386Y-61966462D01*
X81116977Y-61967683D01*
X81114332Y-61968754D01*
X81111586Y-61969454D01*
X81108186Y-61969855D01*
X81103576Y-61970031D01*
X81099233Y-61970060D01*
X81086636Y-61970060D01*
X81077321Y-61963734D01*
X81071580Y-61959566D01*
X81066668Y-61955309D01*
X81062270Y-61950583D01*
X81058070Y-61945006D01*
X81053757Y-61938202D01*
X81049014Y-61929788D01*
X81048564Y-61928953D01*
X81046653Y-61925511D01*
X81045042Y-61922797D01*
X81044103Y-61921434D01*
X81043264Y-61919541D01*
X81043137Y-61918420D01*
X81042580Y-61915973D01*
X81041656Y-61914040D01*
X81040214Y-61910547D01*
X81038971Y-61905250D01*
X81037945Y-61898505D01*
X81037157Y-61890664D01*
X81036630Y-61882081D01*
X81036384Y-61873110D01*
X81036443Y-61864105D01*
X81036827Y-61855419D01*
X81037559Y-61847405D01*
X81037573Y-61847279D01*
X81038281Y-61841312D01*
X81039005Y-61834979D01*
X81039627Y-61829308D01*
X81039840Y-61827266D01*
X81040408Y-61822688D01*
X81041093Y-61818550D01*
X81041762Y-61815648D01*
X81041854Y-61815366D01*
X81042790Y-61812029D01*
X81043902Y-61807057D01*
X81045081Y-61800962D01*
X81046226Y-61794255D01*
X81046478Y-61792650D01*
X81047711Y-61785582D01*
X81048920Y-61780455D01*
X81050084Y-61777359D01*
X81050580Y-61776660D01*
X81051540Y-61774683D01*
X81051791Y-61772857D01*
X81052112Y-61770191D01*
X81052930Y-61766336D01*
X81054025Y-61762141D01*
X81055176Y-61758459D01*
X81056059Y-61756324D01*
X81056626Y-61754420D01*
X81057213Y-61751087D01*
X81057683Y-61747129D01*
X81058379Y-61741397D01*
X81059312Y-61736135D01*
X81060371Y-61731862D01*
X81061443Y-61729101D01*
X81061693Y-61728716D01*
X81062362Y-61727000D01*
X81063026Y-61723990D01*
X81063297Y-61722225D01*
X81063882Y-61718885D01*
X81064584Y-61716400D01*
X81064919Y-61715736D01*
X81065704Y-61713889D01*
X81066667Y-61710337D01*
X81067706Y-61705521D01*
X81068719Y-61699880D01*
X81069018Y-61697994D01*
X81069768Y-61694434D01*
X81070740Y-61691435D01*
X81071054Y-61690763D01*
X81071872Y-61688189D01*
X81072316Y-61684692D01*
X81072344Y-61683679D01*
X81072563Y-61680546D01*
X81073110Y-61678332D01*
X81073364Y-61677927D01*
X81074260Y-61676284D01*
X81075228Y-61673463D01*
X81075466Y-61672574D01*
X81077686Y-61664167D01*
X81079672Y-61657603D01*
X81079730Y-61657428D01*
X81081504Y-61651900D01*
X81082584Y-61647903D01*
X81083088Y-61644963D01*
X81083162Y-61643504D01*
X81083663Y-61640269D01*
X81084611Y-61637632D01*
X81085513Y-61635125D01*
X81086523Y-61631279D01*
X81087432Y-61626897D01*
X81087485Y-61626597D01*
X81088368Y-61622250D01*
X81089353Y-61618425D01*
X81090238Y-61615900D01*
X81090297Y-61615780D01*
X81091743Y-61612314D01*
X81093377Y-61607409D01*
X81095009Y-61601757D01*
X81096449Y-61596047D01*
X81097508Y-61590971D01*
X81097951Y-61587861D01*
X81098543Y-61583733D01*
X81099446Y-61579933D01*
X81100029Y-61578295D01*
X81101009Y-61574971D01*
X81101527Y-61571002D01*
X81101552Y-61570079D01*
X81101931Y-61566329D01*
X81102906Y-61561801D01*
X81103790Y-61558884D01*
X81105177Y-61554746D01*
X81106396Y-61550808D01*
X81106979Y-61548710D01*
X81107849Y-61545453D01*
X81109017Y-61541316D01*
X81109703Y-61538974D01*
X81110863Y-61534977D01*
X81111892Y-61531269D01*
X81112320Y-61529636D01*
X81113190Y-61526791D01*
X81114057Y-61524807D01*
X81114810Y-61522861D01*
X81115567Y-61519831D01*
X81115726Y-61519001D01*
X81116509Y-61515368D01*
X81117635Y-61510976D01*
X81118290Y-61508684D01*
X81119611Y-61504070D01*
X81120999Y-61498882D01*
X81121666Y-61496244D01*
X81122745Y-61491876D01*
X81123814Y-61487613D01*
X81124371Y-61485426D01*
X81125204Y-61481865D01*
X81126139Y-61477399D01*
X81126673Y-61474608D01*
X81127408Y-61471093D01*
X81128114Y-61468527D01*
X81128559Y-61467577D01*
X81129120Y-61466333D01*
X81129954Y-61463599D01*
X81130906Y-61460005D01*
X81131819Y-61456177D01*
X81132537Y-61452750D01*
X81132905Y-61450350D01*
X81132924Y-61449966D01*
X81133402Y-61447907D01*
X81134540Y-61445254D01*
X81135735Y-61441860D01*
X81136162Y-61438778D01*
X81136501Y-61436125D01*
X81137390Y-61432212D01*
X81138649Y-61427814D01*
X81138873Y-61427115D01*
X81140146Y-61423043D01*
X81141097Y-61419671D01*
X81141558Y-61417600D01*
X81141578Y-61417365D01*
X81142052Y-61415421D01*
X81143192Y-61412804D01*
X81143194Y-61412801D01*
X81144368Y-61409730D01*
X81144815Y-61407074D01*
X81145274Y-61403650D01*
X81146429Y-61399393D01*
X81147972Y-61395386D01*
X81148374Y-61394565D01*
X81149711Y-61391147D01*
X81150887Y-61386232D01*
X81151962Y-61379541D01*
X81152372Y-61376346D01*
X81152930Y-61372048D01*
X81153505Y-61368577D01*
X81154260Y-61365230D01*
X81155356Y-61361306D01*
X81156950Y-61356102D01*
X81157147Y-61355468D01*
X81158144Y-61351885D01*
X81158773Y-61348854D01*
X81158886Y-61347713D01*
X81159166Y-61345359D01*
X81159888Y-61341686D01*
X81160872Y-61337453D01*
X81161938Y-61333411D01*
X81162908Y-61330317D01*
X81163169Y-61329652D01*
X81164076Y-61327311D01*
X81165256Y-61323983D01*
X81165717Y-61322619D01*
X81168068Y-61315716D01*
X81170254Y-61309592D01*
X81172078Y-61304796D01*
X81172598Y-61303525D01*
X81173588Y-61300766D01*
X81174034Y-61298731D01*
X81174037Y-61298657D01*
X81174382Y-61296972D01*
X81175289Y-61293892D01*
X81176569Y-61290048D01*
X81176717Y-61289625D01*
X81178066Y-61285301D01*
X81179036Y-61281227D01*
X81179418Y-61278280D01*
X81179418Y-61278267D01*
X81179795Y-61275300D01*
X81180729Y-61271529D01*
X81181970Y-61267746D01*
X81183268Y-61264746D01*
X81184077Y-61263532D01*
X81184588Y-61262027D01*
X81184842Y-61259328D01*
X81184849Y-61258821D01*
X81185280Y-61255560D01*
X81186328Y-61252935D01*
X81186437Y-61252782D01*
X81187725Y-61250215D01*
X81188060Y-61248503D01*
X81188451Y-61246319D01*
X81189424Y-61242989D01*
X81190340Y-61240390D01*
X81191773Y-61236485D01*
X81193028Y-61232880D01*
X81193568Y-61231210D01*
X81194612Y-61228115D01*
X81195532Y-61225802D01*
X81196616Y-61222987D01*
X81197822Y-61219251D01*
X81198930Y-61215351D01*
X81199725Y-61212047D01*
X81199994Y-61210207D01*
X81200484Y-61208015D01*
X81200887Y-61207357D01*
X81201713Y-61205759D01*
X81202763Y-61202916D01*
X81203217Y-61201461D01*
X81204599Y-61197296D01*
X81206216Y-61193100D01*
X81206575Y-61192266D01*
X81208314Y-61188127D01*
X81210105Y-61183505D01*
X81211759Y-61178934D01*
X81213085Y-61174951D01*
X81213896Y-61172089D01*
X81214057Y-61171094D01*
X81214775Y-61168867D01*
X81215269Y-61168229D01*
X81216259Y-61166438D01*
X81217287Y-61162933D01*
X81218390Y-61157554D01*
X81219369Y-61151700D01*
X81220355Y-61147077D01*
X81221809Y-61142050D01*
X81222607Y-61139800D01*
X81223893Y-61135256D01*
X81224532Y-61130324D01*
X81224532Y-61125585D01*
X81223905Y-61121619D01*
X81222658Y-61119004D01*
X81222254Y-61118633D01*
X81219417Y-61117772D01*
X81216230Y-61118941D01*
X81213582Y-61121275D01*
X81204215Y-61131819D01*
X81195515Y-61141959D01*
X81187683Y-61151446D01*
X81180917Y-61160042D01*
X81175417Y-61167501D01*
X81173283Y-61170607D01*
X81169780Y-61175755D01*
X81166036Y-61181075D01*
X81162574Y-61185833D01*
X81160564Y-61188481D01*
X81157642Y-61192384D01*
X81154989Y-61196220D01*
X81153119Y-61199241D01*
X81152943Y-61199568D01*
X81151482Y-61202068D01*
X81150350Y-61203496D01*
X81150103Y-61203625D01*
X81149337Y-61204538D01*
X81148706Y-61206329D01*
X81147837Y-61208355D01*
X81146966Y-61209033D01*
X81145952Y-61209870D01*
X81145905Y-61210219D01*
X81145318Y-61211806D01*
X81143867Y-61214227D01*
X81143471Y-61214794D01*
X81141567Y-61217536D01*
X81140092Y-61219814D01*
X81139955Y-61220045D01*
X81139006Y-61221597D01*
X81137135Y-61224591D01*
X81134582Y-61228646D01*
X81131590Y-61233379D01*
X81130427Y-61235212D01*
X81127311Y-61240124D01*
X81124526Y-61244522D01*
X81122319Y-61248016D01*
X81120937Y-61250214D01*
X81120691Y-61250610D01*
X81119521Y-61252401D01*
X81117503Y-61255391D01*
X81114992Y-61259064D01*
X81112345Y-61262905D01*
X81109915Y-61266397D01*
X81108060Y-61269024D01*
X81107230Y-61270154D01*
X81106317Y-61271487D01*
X81104546Y-61274202D01*
X81102209Y-61277846D01*
X81100594Y-61280395D01*
X81097558Y-61284958D01*
X81094350Y-61289385D01*
X81091493Y-61292968D01*
X81090486Y-61294090D01*
X81086305Y-61298924D01*
X81083470Y-61303362D01*
X81082548Y-61305311D01*
X81081679Y-61307366D01*
X81080465Y-61310279D01*
X81080283Y-61310720D01*
X81078518Y-61314692D01*
X81076440Y-61318706D01*
X81073710Y-61323377D01*
X81070812Y-61328028D01*
X81068499Y-61331747D01*
X81066619Y-61334984D01*
X81064839Y-61338371D01*
X81062827Y-61342539D01*
X81060530Y-61347500D01*
X81053809Y-61359873D01*
X81048449Y-61367689D01*
X81042340Y-61377155D01*
X81037128Y-61387730D01*
X81034427Y-61394846D01*
X81032812Y-61399110D01*
X81031029Y-61402909D01*
X81029447Y-61405461D01*
X81029363Y-61405561D01*
X81027694Y-61407895D01*
X81026917Y-61409752D01*
X81026910Y-61409870D01*
X81026345Y-61411200D01*
X81025961Y-61411325D01*
X81025011Y-61412224D01*
X81023601Y-61414528D01*
X81022634Y-61416463D01*
X81019501Y-61422868D01*
X81016166Y-61429065D01*
X81013099Y-61434188D01*
X81012842Y-61434583D01*
X81011187Y-61437239D01*
X81010034Y-61439331D01*
X81009979Y-61439451D01*
X81008866Y-61441458D01*
X81007201Y-61444029D01*
X81007177Y-61444064D01*
X81005597Y-61446595D01*
X81003693Y-61449988D01*
X81001768Y-61453661D01*
X81000119Y-61457029D01*
X80999046Y-61459510D01*
X80998798Y-61460398D01*
X80998258Y-61461693D01*
X80996831Y-61464325D01*
X80994793Y-61467802D01*
X80994031Y-61469052D01*
X80991706Y-61472992D01*
X80989790Y-61476547D01*
X80988620Y-61479078D01*
X80988484Y-61479476D01*
X80987490Y-61481963D01*
X80985641Y-61485819D01*
X80983196Y-61490559D01*
X80980413Y-61495699D01*
X80977550Y-61500752D01*
X80974868Y-61505235D01*
X80974055Y-61506521D01*
X80971732Y-61510220D01*
X80969628Y-61513700D01*
X80968474Y-61515716D01*
X80967152Y-61518155D01*
X80965162Y-61521836D01*
X80962863Y-61526096D01*
X80962044Y-61527615D01*
X80959888Y-61531576D01*
X80958066Y-61534848D01*
X80956856Y-61536933D01*
X80956588Y-61537351D01*
X80955774Y-61539008D01*
X80954715Y-61541811D01*
X80954401Y-61542755D01*
X80952175Y-61548340D01*
X80949196Y-61554090D01*
X80946043Y-61558892D01*
X80945878Y-61559103D01*
X80944321Y-61561455D01*
X80943617Y-61563249D01*
X80943615Y-61563327D01*
X80942857Y-61565091D01*
X80941991Y-61566018D01*
X80940635Y-61568163D01*
X80940355Y-61569666D01*
X80939824Y-61571942D01*
X80938492Y-61575090D01*
X80937651Y-61576676D01*
X80936069Y-61579820D01*
X80935102Y-61582471D01*
X80934960Y-61583348D01*
X80934464Y-61585346D01*
X80933138Y-61588742D01*
X80931217Y-61593054D01*
X80928940Y-61597798D01*
X80926544Y-61602493D01*
X80924267Y-61606654D01*
X80922345Y-61609801D01*
X80921228Y-61611259D01*
X80920009Y-61613163D01*
X80919815Y-61614044D01*
X80919342Y-61615570D01*
X80918082Y-61618474D01*
X80916270Y-61622227D01*
X80915488Y-61623761D01*
X80913521Y-61627746D01*
X80912022Y-61631138D01*
X80911228Y-61633384D01*
X80911160Y-61633811D01*
X80910691Y-61635704D01*
X80909494Y-61638664D01*
X80908605Y-61640514D01*
X80907028Y-61643637D01*
X80904835Y-61648024D01*
X80902363Y-61652996D01*
X80900762Y-61656229D01*
X80897260Y-61662863D01*
X80893876Y-61668021D01*
X80890223Y-61671977D01*
X80885918Y-61675011D01*
X80880575Y-61677399D01*
X80873807Y-61679418D01*
X80866101Y-61681165D01*
X80859401Y-61683015D01*
X80853999Y-61685433D01*
X80850164Y-61688259D01*
X80848169Y-61691334D01*
X80848008Y-61691988D01*
X80847811Y-61694024D01*
X80847582Y-61697854D01*
X80847336Y-61703110D01*
X80847092Y-61709424D01*
X80846864Y-61716427D01*
X80846788Y-61719089D01*
X80846358Y-61730183D01*
X80845693Y-61741027D01*
X80844844Y-61750976D01*
X80843895Y-61759114D01*
X80843246Y-61764014D01*
X80842747Y-61768415D01*
X80842387Y-61772679D01*
X80842155Y-61777167D01*
X80842039Y-61782241D01*
X80842030Y-61788262D01*
X80842114Y-61795592D01*
X80842281Y-61804593D01*
X80842360Y-61808335D01*
X80842531Y-61817097D01*
X80842668Y-61825620D01*
X80842767Y-61833537D01*
X80842824Y-61840475D01*
X80842833Y-61846068D01*
X80842796Y-61849946D01*
X80842781Y-61850524D01*
X80842648Y-61858063D01*
X80842684Y-61866116D01*
X80842871Y-61874349D01*
X80843189Y-61882424D01*
X80843620Y-61890004D01*
X80844144Y-61896754D01*
X80844741Y-61902335D01*
X80845395Y-61906413D01*
X80846056Y-61908598D01*
X80846973Y-61911388D01*
X80847331Y-61914548D01*
X80847668Y-61917865D01*
X80848517Y-61921803D01*
X80848868Y-61923003D01*
X80850214Y-61927969D01*
X80851411Y-61933643D01*
X80852299Y-61939166D01*
X80852728Y-61943682D01*
X80852745Y-61944492D01*
X80853275Y-61947879D01*
X80854693Y-61952364D01*
X80856742Y-61957215D01*
X80858192Y-61960039D01*
X80859030Y-61962627D01*
X80859235Y-61964572D01*
X80859596Y-61966843D01*
X80860223Y-61967838D01*
X80861001Y-61969201D01*
X80861764Y-61971883D01*
X80861980Y-61973005D01*
X80863115Y-61976987D01*
X80864929Y-61980975D01*
X80865320Y-61981632D01*
X80866904Y-61984420D01*
X80867830Y-61986587D01*
X80867924Y-61987076D01*
X80868562Y-61988964D01*
X80869547Y-61990550D01*
X80870841Y-61993315D01*
X80871215Y-61995418D01*
X80871855Y-61998261D01*
X80873297Y-62001323D01*
X80873366Y-62001431D01*
X80874990Y-62004101D01*
X80876133Y-62006194D01*
X80876183Y-62006299D01*
X80877303Y-62008211D01*
X80879100Y-62010812D01*
X80879439Y-62011269D01*
X80881057Y-62013616D01*
X80881913Y-62015227D01*
X80881953Y-62015423D01*
X80882545Y-62016591D01*
X80884390Y-62018821D01*
X80887588Y-62022224D01*
X80892240Y-62026910D01*
X80895205Y-62029828D01*
X80899419Y-62034283D01*
X80901832Y-62037887D01*
X80902429Y-62041011D01*
X80901194Y-62044023D01*
X80898114Y-62047294D01*
X80894393Y-62050283D01*
X80888006Y-62054361D01*
X80881748Y-62056964D01*
X80875991Y-62057974D01*
X80871853Y-62057515D01*
X80869520Y-62056575D01*
X80865999Y-62054859D01*
X80861945Y-62052718D01*
X80858015Y-62050509D01*
X80854865Y-62048581D01*
X80853634Y-62047716D01*
X80844661Y-62039468D01*
X80836624Y-62029598D01*
X80829898Y-62018571D01*
X80829430Y-62017658D01*
X80827928Y-62014860D01*
X80825862Y-62011229D01*
X80824551Y-62009004D01*
X80822559Y-62005545D01*
X80820911Y-62002452D01*
X80820239Y-62001033D01*
X80818754Y-61998264D01*
X80817025Y-61995749D01*
X80815487Y-61993093D01*
X80814883Y-61990722D01*
X80814382Y-61988316D01*
X80813136Y-61985202D01*
X80812719Y-61984381D01*
X80811340Y-61981296D01*
X80810597Y-61978636D01*
X80810556Y-61978125D01*
X80810096Y-61975817D01*
X80808940Y-61972639D01*
X80808363Y-61971366D01*
X80806818Y-61967459D01*
X80805714Y-61963404D01*
X80805557Y-61962494D01*
X80804778Y-61958727D01*
X80803688Y-61955251D01*
X80803550Y-61954915D01*
X80802505Y-61951963D01*
X80801381Y-61948016D01*
X80800825Y-61945720D01*
X80799867Y-61941854D01*
X80798868Y-61938463D01*
X80798365Y-61937065D01*
X80797295Y-61933641D01*
X80796308Y-61928608D01*
X80795373Y-61921787D01*
X80794463Y-61912998D01*
X80794388Y-61912185D01*
X80793960Y-61907487D01*
X80793607Y-61903669D01*
X80793374Y-61901193D01*
X80793302Y-61900492D01*
X80792548Y-61900603D01*
X80792301Y-61900742D01*
X80791929Y-61899962D01*
X80791599Y-61897408D01*
X80791346Y-61893469D01*
X80791203Y-61888539D01*
X80791197Y-61888095D01*
X80791038Y-61881798D01*
X80790732Y-61875195D01*
X80790330Y-61869187D01*
X80790000Y-61865669D01*
X80789687Y-61861624D01*
X80789432Y-61855762D01*
X80789235Y-61848427D01*
X80789095Y-61839964D01*
X80789012Y-61830720D01*
X80788987Y-61821037D01*
X80789020Y-61811263D01*
X80789110Y-61801742D01*
X80789258Y-61792819D01*
X80789464Y-61784840D01*
X80789727Y-61778147D01*
X80789996Y-61773718D01*
X80791183Y-61757727D01*
X80792200Y-61742732D01*
X80793034Y-61728942D01*
X80793675Y-61716565D01*
X80794111Y-61705812D01*
X80794332Y-61696890D01*
X80794358Y-61692993D01*
X80794405Y-61685895D01*
X80794609Y-61680403D01*
X80795022Y-61675960D01*
X80795693Y-61672011D01*
X80796644Y-61668112D01*
X80797733Y-61663152D01*
X80798710Y-61657003D01*
X80799430Y-61650640D01*
X80799650Y-61647692D01*
X80800051Y-61642602D01*
X80800594Y-61638125D01*
X80801202Y-61634821D01*
X80801662Y-61633430D01*
X80802652Y-61630557D01*
X80802983Y-61627814D01*
X80803310Y-61625289D01*
X80804065Y-61623893D01*
X80804640Y-61622536D01*
X80805051Y-61619678D01*
X80805194Y-61616527D01*
X80805416Y-61611921D01*
X80805937Y-61607322D01*
X80806370Y-61604962D01*
X80807376Y-61599893D01*
X80808243Y-61593853D01*
X80809001Y-61586551D01*
X80809678Y-61577698D01*
X80810306Y-61567001D01*
X80810370Y-61565761D01*
X80810749Y-61559470D01*
X80811195Y-61553888D01*
X80811668Y-61549390D01*
X80812129Y-61546355D01*
X80812486Y-61545204D01*
X80813095Y-61543581D01*
X80813788Y-61540355D01*
X80814458Y-61536079D01*
X80814773Y-61533521D01*
X80815544Y-61528088D01*
X80816594Y-61522613D01*
X80817734Y-61518035D01*
X80818107Y-61516858D01*
X80819319Y-61512579D01*
X80820113Y-61508324D01*
X80820292Y-61506027D01*
X80820545Y-61502942D01*
X80821175Y-61500760D01*
X80821410Y-61500426D01*
X80822349Y-61498459D01*
X80823380Y-61494355D01*
X80824498Y-61488139D01*
X80825602Y-61480558D01*
X80826288Y-61476356D01*
X80827109Y-61472590D01*
X80827747Y-61470481D01*
X80828425Y-61467659D01*
X80828855Y-61463757D01*
X80828935Y-61461286D01*
X80829111Y-61455838D01*
X80829598Y-61449379D01*
X80830323Y-61442589D01*
X80831202Y-61436146D01*
X80832158Y-61430729D01*
X80832807Y-61427997D01*
X80833680Y-61423705D01*
X80834241Y-61418664D01*
X80834355Y-61415720D01*
X80834591Y-61411475D01*
X80835203Y-61407585D01*
X80835811Y-61405538D01*
X80837466Y-61401315D01*
X80838811Y-61397246D01*
X80839627Y-61394039D01*
X80839770Y-61392858D01*
X80840252Y-61390800D01*
X80841230Y-61388527D01*
X80841988Y-61386265D01*
X80842829Y-61382479D01*
X80843624Y-61377795D01*
X80844003Y-61375005D01*
X80845117Y-61366221D01*
X80846249Y-61357809D01*
X80847353Y-61350068D01*
X80848385Y-61343294D01*
X80849298Y-61337788D01*
X80850048Y-61333848D01*
X80850572Y-61331815D01*
X80851616Y-61329115D01*
X80852523Y-61326817D01*
X80853366Y-61324008D01*
X80854164Y-61320256D01*
X80854417Y-61318704D01*
X80855036Y-61315389D01*
X80855743Y-61312943D01*
X80856070Y-61312300D01*
X80857189Y-61309836D01*
X80858331Y-61305280D01*
X80859483Y-61298705D01*
X80860629Y-61290182D01*
X80860885Y-61288003D01*
X80862059Y-61278400D01*
X80863194Y-61270581D01*
X80864366Y-61264165D01*
X80865650Y-61258774D01*
X80867120Y-61254030D01*
X80868167Y-61251224D01*
X80868799Y-61248990D01*
X80869307Y-61246355D01*
X80870073Y-61242814D01*
X80870953Y-61239865D01*
X80871814Y-61236902D01*
X80872742Y-61232941D01*
X80873194Y-61230669D01*
X80874784Y-61222116D01*
X80876089Y-61215374D01*
X80877191Y-61210121D01*
X80878171Y-61206035D01*
X80879112Y-61202795D01*
X80880097Y-61200079D01*
X80881204Y-61197565D01*
X80882058Y-61195829D01*
X80882808Y-61193619D01*
X80883530Y-61190372D01*
X80883703Y-61189338D01*
X80884374Y-61186151D01*
X80885195Y-61183801D01*
X80885455Y-61183370D01*
X80885949Y-61181816D01*
X80886506Y-61178585D01*
X80887060Y-61174157D01*
X80887515Y-61169320D01*
X80888034Y-61164097D01*
X80888678Y-61159511D01*
X80889361Y-61156086D01*
X80889947Y-61154417D01*
X80891203Y-61151970D01*
X80892520Y-61148675D01*
X80892771Y-61147939D01*
X80894225Y-61144228D01*
X80895941Y-61140765D01*
X80896176Y-61140367D01*
X80897529Y-61137030D01*
X80898196Y-61133203D01*
X80898210Y-61132769D01*
X80898626Y-61129415D01*
X80899603Y-61126695D01*
X80899836Y-61126342D01*
X80900914Y-61123848D01*
X80901419Y-61120575D01*
X80901425Y-61120245D01*
X80901882Y-61116584D01*
X80902991Y-61113246D01*
X80903041Y-61113150D01*
X80904238Y-61109722D01*
X80904664Y-61106599D01*
X80904976Y-61104002D01*
X80905723Y-61102498D01*
X80905752Y-61102479D01*
X80906307Y-61101129D01*
X80906698Y-61098257D01*
X80906833Y-61094773D01*
X80907303Y-61088667D01*
X80908876Y-61083326D01*
X80909398Y-61082126D01*
X80911049Y-61077926D01*
X80912360Y-61073557D01*
X80912766Y-61071648D01*
X80913419Y-61068469D01*
X80914123Y-61066178D01*
X80914372Y-61065698D01*
X80915080Y-61064078D01*
X80915989Y-61061156D01*
X80916481Y-61059269D01*
X80917751Y-61054939D01*
X80919353Y-61050554D01*
X80919883Y-61049322D01*
X80921155Y-61046134D01*
X80921899Y-61043503D01*
X80921978Y-61042807D01*
X80922318Y-61040598D01*
X80923164Y-61037461D01*
X80923469Y-61036527D01*
X80925480Y-61029787D01*
X80926849Y-61023411D01*
X80927416Y-61018159D01*
X80927421Y-61017815D01*
X80927865Y-61014528D01*
X80928902Y-61011878D01*
X80929045Y-61011674D01*
X80930226Y-61009046D01*
X80930666Y-61006265D01*
X80931168Y-61003392D01*
X80932411Y-60999691D01*
X80933361Y-60997547D01*
X80934844Y-60994287D01*
X80935813Y-60991681D01*
X80936031Y-60990673D01*
X80936497Y-60988918D01*
X80937678Y-60986044D01*
X80938590Y-60984134D01*
X80941377Y-60976309D01*
X80942059Y-60968069D01*
X80941603Y-60963677D01*
X80940627Y-60959331D01*
X80939448Y-60956768D01*
X80938161Y-60956119D01*
X80936968Y-60957311D01*
X80935133Y-60959189D01*
X80933145Y-60960299D01*
X80930886Y-60961834D01*
X80929861Y-60963484D01*
X80929012Y-60965231D01*
X80928361Y-60965635D01*
X80927396Y-60966521D01*
X80925898Y-60968805D01*
X80924721Y-60970967D01*
X80923031Y-60974051D01*
X80921566Y-60976285D01*
X80920917Y-60976981D01*
X80919991Y-60978518D01*
X80919815Y-60979762D01*
X80919338Y-60981484D01*
X80918706Y-60981860D01*
X80917572Y-60982762D01*
X80916475Y-60984837D01*
X80915214Y-60987921D01*
X80913420Y-60992017D01*
X80911513Y-60996189D01*
X80909946Y-60999431D01*
X80906428Y-61006423D01*
X80903787Y-61011821D01*
X80901874Y-61015937D01*
X80900936Y-61018101D01*
X80899885Y-61020528D01*
X80898587Y-61023303D01*
X80896874Y-61026767D01*
X80894574Y-61031262D01*
X80891517Y-61037127D01*
X80889381Y-61041197D01*
X80887433Y-61045120D01*
X80885969Y-61048495D01*
X80885238Y-61050730D01*
X80885198Y-61051070D01*
X80884417Y-61053362D01*
X80883575Y-61054340D01*
X80882190Y-61056393D01*
X80881953Y-61057567D01*
X80881371Y-61059586D01*
X80879912Y-61062396D01*
X80879248Y-61063432D01*
X80877553Y-61066440D01*
X80876585Y-61069143D01*
X80876502Y-61069803D01*
X80875930Y-61071955D01*
X80874484Y-61075149D01*
X80872807Y-61078139D01*
X80870406Y-61082258D01*
X80867667Y-61087289D01*
X80864808Y-61092789D01*
X80862053Y-61098311D01*
X80859618Y-61103411D01*
X80857726Y-61107646D01*
X80856600Y-61110570D01*
X80856442Y-61111133D01*
X80855660Y-61113798D01*
X80854902Y-61115460D01*
X80854148Y-61117033D01*
X80853042Y-61119935D01*
X80852220Y-61122343D01*
X80850870Y-61126171D01*
X80849498Y-61129587D01*
X80848838Y-61130998D01*
X80847746Y-61133578D01*
X80847343Y-61135388D01*
X80846657Y-61137377D01*
X80845674Y-61138762D01*
X80844138Y-61140918D01*
X80842205Y-61144243D01*
X80840177Y-61148137D01*
X80838353Y-61151993D01*
X80837033Y-61155208D01*
X80836518Y-61157175D01*
X80836518Y-61157187D01*
X80836020Y-61159176D01*
X80835500Y-61159773D01*
X80834495Y-61161053D01*
X80833042Y-61163634D01*
X80832126Y-61165517D01*
X80830575Y-61168848D01*
X80829270Y-61171590D01*
X80828817Y-61172509D01*
X80827984Y-61175168D01*
X80827864Y-61176359D01*
X80827231Y-61178768D01*
X80826276Y-61180430D01*
X80825009Y-61182675D01*
X80824653Y-61184046D01*
X80824191Y-61185812D01*
X80823036Y-61188751D01*
X80821982Y-61191076D01*
X80820140Y-61194987D01*
X80818394Y-61198781D01*
X80817677Y-61200379D01*
X80816291Y-61203319D01*
X80815079Y-61205576D01*
X80814946Y-61205788D01*
X80813285Y-61208801D01*
X80811376Y-61212946D01*
X80809564Y-61217391D01*
X80808196Y-61221301D01*
X80807707Y-61223178D01*
X80806753Y-61226726D01*
X80805533Y-61229804D01*
X80804446Y-61232715D01*
X80804065Y-61234994D01*
X80803578Y-61236859D01*
X80802261Y-61240111D01*
X80800333Y-61244243D01*
X80798655Y-61247541D01*
X80796426Y-61251945D01*
X80794642Y-61255787D01*
X80793522Y-61258579D01*
X80793248Y-61259689D01*
X80792656Y-61262058D01*
X80791793Y-61263693D01*
X80790683Y-61265990D01*
X80789514Y-61269402D01*
X80789018Y-61271235D01*
X80787968Y-61274840D01*
X80786804Y-61277851D01*
X80786287Y-61278824D01*
X80785076Y-61281413D01*
X80784094Y-61284662D01*
X80784069Y-61284773D01*
X80783296Y-61287609D01*
X80782482Y-61289515D01*
X80782403Y-61289625D01*
X80781620Y-61291165D01*
X80780444Y-61294085D01*
X80779324Y-61297197D01*
X80777454Y-61302585D01*
X80775486Y-61308116D01*
X80773608Y-61313281D01*
X80772006Y-61317571D01*
X80770865Y-61320476D01*
X80770643Y-61320997D01*
X80767660Y-61328007D01*
X80765524Y-61333691D01*
X80764306Y-61337839D01*
X80764040Y-61339758D01*
X80763506Y-61342830D01*
X80762606Y-61344826D01*
X80761609Y-61347023D01*
X80760519Y-61350491D01*
X80759800Y-61353450D01*
X80758807Y-61357369D01*
X80757672Y-61360729D01*
X80756906Y-61362337D01*
X80755750Y-61364555D01*
X80755385Y-61365858D01*
X80754944Y-61367387D01*
X80753805Y-61370157D01*
X80752681Y-61372588D01*
X80751204Y-61375841D01*
X80750222Y-61378369D01*
X80749976Y-61379360D01*
X80749503Y-61381004D01*
X80748331Y-61383614D01*
X80747979Y-61384296D01*
X80746415Y-61387721D01*
X80745270Y-61391033D01*
X80745200Y-61391312D01*
X80744233Y-61394440D01*
X80742824Y-61398093D01*
X80742480Y-61398884D01*
X80740846Y-61402892D01*
X80739119Y-61407702D01*
X80737478Y-61412746D01*
X80736098Y-61417455D01*
X80735157Y-61421257D01*
X80734832Y-61423503D01*
X80734218Y-61426127D01*
X80733209Y-61427551D01*
X80731853Y-61429697D01*
X80731570Y-61431200D01*
X80731130Y-61434135D01*
X80730060Y-61437713D01*
X80728696Y-61440989D01*
X80727441Y-61442947D01*
X80726419Y-61444991D01*
X80726176Y-61446677D01*
X80725645Y-61449855D01*
X80724074Y-61454794D01*
X80721842Y-61460545D01*
X80721031Y-61462919D01*
X80720058Y-61466292D01*
X80719723Y-61467577D01*
X80717813Y-61475090D01*
X80716350Y-61480770D01*
X80715258Y-61484881D01*
X80714463Y-61487690D01*
X80713890Y-61489464D01*
X80713465Y-61490467D01*
X80713231Y-61490835D01*
X80712495Y-61492394D01*
X80711450Y-61495347D01*
X80710527Y-61498360D01*
X80709285Y-61502189D01*
X80707984Y-61505428D01*
X80707151Y-61506985D01*
X80706208Y-61509396D01*
X80705671Y-61512832D01*
X80705624Y-61514117D01*
X80705415Y-61517318D01*
X80704890Y-61519610D01*
X80704604Y-61520097D01*
X80703637Y-61521960D01*
X80702490Y-61525611D01*
X80701261Y-61530691D01*
X80700215Y-61535927D01*
X80699436Y-61539405D01*
X80698563Y-61542225D01*
X80698241Y-61542959D01*
X80697654Y-61544937D01*
X80697046Y-61548397D01*
X80696532Y-61552663D01*
X80696447Y-61553578D01*
X80695674Y-61560680D01*
X80694622Y-61566376D01*
X80693113Y-61571424D01*
X80690966Y-61576577D01*
X80690958Y-61576595D01*
X80689512Y-61579921D01*
X80688535Y-61582550D01*
X80688278Y-61583626D01*
X80687587Y-61585296D01*
X80685966Y-61587545D01*
X80685843Y-61587690D01*
X80681194Y-61591413D01*
X80675200Y-61593697D01*
X80668154Y-61594512D01*
X80660351Y-61593827D01*
X80652083Y-61591616D01*
X80650828Y-61591152D01*
X80646876Y-61589072D01*
X80642733Y-61585978D01*
X80638939Y-61582378D01*
X80636034Y-61578781D01*
X80634605Y-61575893D01*
X80634392Y-61573716D01*
X80634385Y-61570014D01*
X80634576Y-61565417D01*
X80634750Y-61562911D01*
X80635124Y-61558128D01*
X80635441Y-61553951D01*
X80635656Y-61550999D01*
X80635712Y-61550152D01*
X80636164Y-61547902D01*
X80636661Y-61546997D01*
X80637248Y-61545418D01*
X80637472Y-61543005D01*
X80637811Y-61539707D01*
X80638685Y-61535356D01*
X80639881Y-61530780D01*
X80641186Y-61526807D01*
X80642235Y-61524503D01*
X80643382Y-61522038D01*
X80644601Y-61518607D01*
X80644978Y-61517338D01*
X80646184Y-61513441D01*
X80647515Y-61509744D01*
X80647853Y-61508918D01*
X80648900Y-61505850D01*
X80649370Y-61503249D01*
X80649372Y-61503132D01*
X80649797Y-61500580D01*
X80650821Y-61497539D01*
X80650842Y-61497489D01*
X80652773Y-61492915D01*
X80653962Y-61489768D01*
X80654581Y-61487515D01*
X80654802Y-61485623D01*
X80654815Y-61485105D01*
X80655433Y-61482051D01*
X80656438Y-61480081D01*
X80657719Y-61477492D01*
X80658042Y-61475754D01*
X80658634Y-61472447D01*
X80660349Y-61467409D01*
X80662287Y-61462709D01*
X80663412Y-61460087D01*
X80665031Y-61456274D01*
X80666803Y-61452075D01*
X80666880Y-61451891D01*
X80668537Y-61448002D01*
X80669956Y-61444763D01*
X80670859Y-61442811D01*
X80670919Y-61442692D01*
X80671608Y-61440854D01*
X80672579Y-61437620D01*
X80673592Y-61433818D01*
X80674766Y-61429614D01*
X80676025Y-61425841D01*
X80676988Y-61423545D01*
X80678138Y-61420675D01*
X80678582Y-61418356D01*
X80679036Y-61416219D01*
X80680185Y-61412977D01*
X80681296Y-61410406D01*
X80682777Y-61406813D01*
X80683755Y-61403656D01*
X80683988Y-61402155D01*
X80684664Y-61399598D01*
X80685611Y-61398343D01*
X80686987Y-61396478D01*
X80687234Y-61395461D01*
X80687694Y-61393712D01*
X80688951Y-61390463D01*
X80690819Y-61386139D01*
X80693113Y-61381169D01*
X80695647Y-61375980D01*
X80695979Y-61375323D01*
X80697276Y-61372489D01*
X80697998Y-61370383D01*
X80698051Y-61369999D01*
X80698710Y-61368237D01*
X80699561Y-61367057D01*
X80700773Y-61365064D01*
X80702175Y-61361891D01*
X80702877Y-61359967D01*
X80704059Y-61356690D01*
X80705095Y-61354230D01*
X80705510Y-61353476D01*
X80706294Y-61351963D01*
X80707561Y-61349052D01*
X80709085Y-61345322D01*
X80710639Y-61341356D01*
X80711994Y-61337730D01*
X80712922Y-61335024D01*
X80713206Y-61333886D01*
X80713658Y-61332432D01*
X80714810Y-61329737D01*
X80715877Y-61327487D01*
X80717373Y-61324191D01*
X80718369Y-61321513D01*
X80718606Y-61320456D01*
X80719281Y-61318349D01*
X80720262Y-61316733D01*
X80721551Y-61314143D01*
X80721884Y-61312406D01*
X80722368Y-61310208D01*
X80723572Y-61306977D01*
X80724579Y-61304770D01*
X80726070Y-61301421D01*
X80727040Y-61298632D01*
X80727249Y-61297498D01*
X80727685Y-61295654D01*
X80728805Y-61292509D01*
X80730349Y-61288707D01*
X80732053Y-61284890D01*
X80733656Y-61281703D01*
X80733762Y-61281512D01*
X80735199Y-61278797D01*
X80737101Y-61274996D01*
X80739262Y-61270547D01*
X80741475Y-61265887D01*
X80743534Y-61261456D01*
X80745234Y-61257692D01*
X80746367Y-61255034D01*
X80746731Y-61253949D01*
X80747150Y-61252714D01*
X80748254Y-61250060D01*
X80749816Y-61246529D01*
X80750040Y-61246039D01*
X80751906Y-61241932D01*
X80753608Y-61238155D01*
X80754775Y-61235537D01*
X80756007Y-61232767D01*
X80757708Y-61228984D01*
X80759038Y-61226047D01*
X80760527Y-61222577D01*
X80761558Y-61219800D01*
X80761886Y-61218475D01*
X80762342Y-61216821D01*
X80763506Y-61213979D01*
X80764556Y-61211739D01*
X80766049Y-61208411D01*
X80767030Y-61205670D01*
X80767251Y-61204568D01*
X80768057Y-61202423D01*
X80768907Y-61201461D01*
X80770282Y-61199620D01*
X80770530Y-61198625D01*
X80770992Y-61196861D01*
X80772174Y-61193975D01*
X80773118Y-61191996D01*
X80774819Y-61188203D01*
X80776672Y-61183437D01*
X80778094Y-61179285D01*
X80779633Y-61174976D01*
X80781816Y-61169586D01*
X80784296Y-61163954D01*
X80785738Y-61160895D01*
X80788174Y-61155827D01*
X80790522Y-61150849D01*
X80792456Y-61146658D01*
X80793343Y-61144667D01*
X80794936Y-61141079D01*
X80797198Y-61136096D01*
X80799868Y-61130279D01*
X80802689Y-61124188D01*
X80805402Y-61118386D01*
X80807298Y-61114378D01*
X80810620Y-61107234D01*
X80813177Y-61101375D01*
X80814872Y-61097034D01*
X80815464Y-61095132D01*
X80816291Y-61092788D01*
X80817077Y-61091642D01*
X80817910Y-61090476D01*
X80819376Y-61087834D01*
X80821209Y-61084205D01*
X80821919Y-61082728D01*
X80823857Y-61078694D01*
X80825538Y-61075290D01*
X80826678Y-61073089D01*
X80826885Y-61072730D01*
X80828135Y-61070328D01*
X80828490Y-61069485D01*
X80829637Y-61066795D01*
X80831247Y-61063365D01*
X80832766Y-61060367D01*
X80833109Y-61059749D01*
X80834541Y-61056898D01*
X80836331Y-61052860D01*
X80838110Y-61048483D01*
X80838757Y-61046768D01*
X80839946Y-61044025D01*
X80841853Y-61040145D01*
X80844110Y-61035865D01*
X80844661Y-61034868D01*
X80849614Y-61025869D01*
X80853496Y-61018592D01*
X80856367Y-61012920D01*
X80858288Y-61008730D01*
X80859131Y-61006524D01*
X80859963Y-61004505D01*
X80861606Y-61000933D01*
X80863908Y-60996109D01*
X80866719Y-60990330D01*
X80869890Y-60983901D01*
X80873268Y-60977119D01*
X80876703Y-60970287D01*
X80880044Y-60963703D01*
X80883140Y-60957670D01*
X80885840Y-60952486D01*
X80887995Y-60948452D01*
X80889452Y-60945870D01*
X80889953Y-60945113D01*
X80891023Y-60943437D01*
X80892682Y-60940395D01*
X80894623Y-60936592D01*
X80896540Y-60932634D01*
X80898130Y-60929126D01*
X80898690Y-60927773D01*
X80899560Y-60925974D01*
X80901128Y-60923057D01*
X80902431Y-60920741D01*
X80904154Y-60917618D01*
X80906520Y-60913161D01*
X80909214Y-60907977D01*
X80911805Y-60902892D01*
X80914939Y-60896764D01*
X80918125Y-60890699D01*
X80921186Y-60885017D01*
X80923942Y-60880042D01*
X80926218Y-60876094D01*
X80927834Y-60873496D01*
X80928534Y-60872602D01*
X80929447Y-60871390D01*
X80930901Y-60868969D01*
X80931580Y-60867734D01*
X80933213Y-60864717D01*
X80934534Y-60862323D01*
X80934840Y-60861784D01*
X80935904Y-60859746D01*
X80937293Y-60856852D01*
X80937513Y-60856376D01*
X80938842Y-60853686D01*
X80940871Y-60849810D01*
X80943237Y-60845445D01*
X80944073Y-60843935D01*
X80946997Y-60838605D01*
X80950215Y-60832604D01*
X80953080Y-60827141D01*
X80953345Y-60826627D01*
X80955596Y-60822376D01*
X80957733Y-60818572D01*
X80959392Y-60815849D01*
X80959795Y-60815269D01*
X80962879Y-60810800D01*
X80966425Y-60805200D01*
X80969940Y-60799278D01*
X80972929Y-60793843D01*
X80973317Y-60793092D01*
X80975773Y-60788590D01*
X80978753Y-60783584D01*
X80981006Y-60780072D01*
X80983282Y-60776626D01*
X80985117Y-60773739D01*
X80986132Y-60772009D01*
X80986157Y-60771959D01*
X80987166Y-60770187D01*
X80988914Y-60767386D01*
X80990136Y-60765507D01*
X80992514Y-60761699D01*
X80994779Y-60757749D01*
X80995535Y-60756312D01*
X80997403Y-60752809D01*
X80999738Y-60748692D01*
X81000990Y-60746576D01*
X81002896Y-60743342D01*
X81004369Y-60740687D01*
X81004933Y-60739545D01*
X81006194Y-60737267D01*
X81006884Y-60736299D01*
X81008125Y-60734211D01*
X81009459Y-60731257D01*
X81009602Y-60730890D01*
X81010915Y-60727912D01*
X81012217Y-60725652D01*
X81012348Y-60725480D01*
X81013539Y-60723394D01*
X81014765Y-60720379D01*
X81014934Y-60719874D01*
X81017010Y-60715985D01*
X81020377Y-60712228D01*
X81024353Y-60709228D01*
X81028253Y-60707614D01*
X81028315Y-60707602D01*
X81030855Y-60707418D01*
X81034959Y-60707443D01*
G37*
G36*
X83151114Y-61267103D02*
G01*
X83155662Y-61267231D01*
X83158960Y-61267460D01*
X83161310Y-61267811D01*
X83163020Y-61268303D01*
X83164167Y-61268830D01*
X83167006Y-61270092D01*
X83169324Y-61270688D01*
X83169497Y-61270694D01*
X83171161Y-61271163D01*
X83174230Y-61272409D01*
X83178191Y-61274196D01*
X83182542Y-61276285D01*
X83186772Y-61278437D01*
X83190375Y-61280416D01*
X83190994Y-61280781D01*
X83201481Y-61287519D01*
X83211469Y-61294940D01*
X83221415Y-61303418D01*
X83231779Y-61313324D01*
X83235041Y-61316634D01*
X83240302Y-61322043D01*
X83244263Y-61326140D01*
X83247133Y-61329164D01*
X83249122Y-61331354D01*
X83250441Y-61332943D01*
X83251299Y-61334174D01*
X83251908Y-61335281D01*
X83252331Y-61336185D01*
X83253457Y-61338146D01*
X83254258Y-61338846D01*
X83255246Y-61339639D01*
X83257122Y-61341692D01*
X83259493Y-61344519D01*
X83261973Y-61347633D01*
X83264171Y-61350544D01*
X83265698Y-61352769D01*
X83266177Y-61353763D01*
X83266896Y-61355068D01*
X83268649Y-61357014D01*
X83268882Y-61357236D01*
X83270737Y-61359455D01*
X83271581Y-61361406D01*
X83271586Y-61361517D01*
X83272446Y-61363924D01*
X83275021Y-61367629D01*
X83278888Y-61372165D01*
X83280564Y-61374379D01*
X83281319Y-61376085D01*
X83281322Y-61376157D01*
X83282058Y-61377807D01*
X83283424Y-61379357D01*
X83285265Y-61381883D01*
X83286190Y-61384280D01*
X83287444Y-61387262D01*
X83288955Y-61389204D01*
X83290566Y-61391316D01*
X83291058Y-61392935D01*
X83291812Y-61395016D01*
X83293160Y-61396665D01*
X83294995Y-61399186D01*
X83295930Y-61401611D01*
X83296882Y-61404009D01*
X83298054Y-61405212D01*
X83299299Y-61406578D01*
X83300225Y-61409037D01*
X83301429Y-61412335D01*
X83302894Y-61414790D01*
X83304332Y-61417472D01*
X83305448Y-61421005D01*
X83305619Y-61421871D01*
X83306439Y-61424916D01*
X83307561Y-61427003D01*
X83307955Y-61427342D01*
X83309109Y-61428904D01*
X83310018Y-61431684D01*
X83310163Y-61432480D01*
X83311174Y-61436341D01*
X83312761Y-61439987D01*
X83312907Y-61440238D01*
X83313694Y-61441743D01*
X83314243Y-61443459D01*
X83314585Y-61445761D01*
X83314753Y-61449027D01*
X83314775Y-61453632D01*
X83314687Y-61459952D01*
X83314660Y-61461361D01*
X83314466Y-61468718D01*
X83314131Y-61474211D01*
X83313530Y-61478140D01*
X83312543Y-61480804D01*
X83311046Y-61482503D01*
X83308918Y-61483538D01*
X83306036Y-61484206D01*
X83305271Y-61484337D01*
X83302071Y-61484620D01*
X83299199Y-61484123D01*
X83295693Y-61482651D01*
X83294791Y-61482202D01*
X83291222Y-61480190D01*
X83288166Y-61478115D01*
X83286810Y-61476948D01*
X83283181Y-61473007D01*
X83280822Y-61470090D01*
X83279425Y-61467744D01*
X83278678Y-61465516D01*
X83278560Y-61464943D01*
X83277487Y-61461820D01*
X83275861Y-61459417D01*
X83275806Y-61459367D01*
X83274217Y-61457250D01*
X83273751Y-61455656D01*
X83273111Y-61453516D01*
X83271653Y-61451140D01*
X83269865Y-61448233D01*
X83268852Y-61445665D01*
X83267508Y-61442745D01*
X83266080Y-61440985D01*
X83264482Y-61438805D01*
X83264014Y-61437120D01*
X83263285Y-61434854D01*
X83262007Y-61433118D01*
X83260174Y-61430472D01*
X83259273Y-61428213D01*
X83257923Y-61425297D01*
X83256412Y-61423489D01*
X83254787Y-61421714D01*
X83254258Y-61420550D01*
X83253663Y-61419023D01*
X83252170Y-61416394D01*
X83250182Y-61413282D01*
X83248099Y-61410318D01*
X83246324Y-61408123D01*
X83246196Y-61407988D01*
X83244868Y-61406273D01*
X83244541Y-61405440D01*
X83243905Y-61404146D01*
X83242325Y-61401983D01*
X83241838Y-61401392D01*
X83240082Y-61398966D01*
X83239169Y-61397043D01*
X83239133Y-61396770D01*
X83238372Y-61394975D01*
X83237398Y-61393923D01*
X83235491Y-61391711D01*
X83234666Y-61390275D01*
X83233263Y-61387754D01*
X83231070Y-61384384D01*
X83228655Y-61381004D01*
X83226982Y-61378900D01*
X83225207Y-61376620D01*
X83223184Y-61373728D01*
X83221323Y-61370845D01*
X83220031Y-61368600D01*
X83219682Y-61367708D01*
X83219440Y-61367107D01*
X83218630Y-61366006D01*
X83217096Y-61364235D01*
X83214681Y-61361628D01*
X83211229Y-61358015D01*
X83206585Y-61353228D01*
X83200591Y-61347100D01*
X83199649Y-61346140D01*
X83195092Y-61341518D01*
X83191646Y-61338138D01*
X83188910Y-61335686D01*
X83186489Y-61333852D01*
X83183984Y-61332324D01*
X83180997Y-61330790D01*
X83178554Y-61329617D01*
X83173247Y-61327113D01*
X83169518Y-61325417D01*
X83166999Y-61324383D01*
X83165326Y-61323861D01*
X83164134Y-61323703D01*
X83164003Y-61323701D01*
X83161888Y-61323202D01*
X83159087Y-61321984D01*
X83158758Y-61321808D01*
X83156082Y-61320995D01*
X83151735Y-61320391D01*
X83146196Y-61319996D01*
X83139948Y-61319809D01*
X83133470Y-61319829D01*
X83127248Y-61320055D01*
X83121758Y-61320488D01*
X83117483Y-61321124D01*
X83115054Y-61321882D01*
X83112005Y-61323132D01*
X83109300Y-61323698D01*
X83109155Y-61323701D01*
X83107455Y-61324151D01*
X83104325Y-61325356D01*
X83100227Y-61327101D01*
X83095627Y-61329172D01*
X83090988Y-61331351D01*
X83086777Y-61333425D01*
X83083456Y-61335177D01*
X83081490Y-61336393D01*
X83081195Y-61336670D01*
X83079851Y-61337448D01*
X83077473Y-61338211D01*
X83074639Y-61339379D01*
X83071354Y-61341370D01*
X83070285Y-61342164D01*
X83067822Y-61344033D01*
X83066120Y-61345173D01*
X83065744Y-61345337D01*
X83064668Y-61345890D01*
X83062199Y-61347383D01*
X83058750Y-61349559D01*
X83056163Y-61351230D01*
X83046162Y-61357830D01*
X83037836Y-61363513D01*
X83030978Y-61368431D01*
X83025382Y-61372735D01*
X83020843Y-61376576D01*
X83018526Y-61378734D01*
X83014537Y-61382453D01*
X83009604Y-61386834D01*
X83004491Y-61391207D01*
X83001683Y-61393523D01*
X82996527Y-61397895D01*
X82990838Y-61403014D01*
X82985522Y-61408058D01*
X82983294Y-61410286D01*
X82978635Y-61415018D01*
X82973385Y-61420284D01*
X82968384Y-61425244D01*
X82966256Y-61427330D01*
X82962836Y-61430774D01*
X82960090Y-61433748D01*
X82958339Y-61435890D01*
X82957873Y-61436755D01*
X82957014Y-61438126D01*
X82955181Y-61439444D01*
X82953407Y-61440768D01*
X82950555Y-61443317D01*
X82947014Y-61446726D01*
X82943176Y-61450630D01*
X82943096Y-61450715D01*
X82938316Y-61455711D01*
X82932952Y-61461306D01*
X82927784Y-61466684D01*
X82924844Y-61469740D01*
X82920240Y-61474786D01*
X82915225Y-61480705D01*
X82910582Y-61486563D01*
X82908532Y-61489330D01*
X82905004Y-61494153D01*
X82901351Y-61498984D01*
X82898073Y-61503168D01*
X82896212Y-61505431D01*
X82894264Y-61507708D01*
X82892388Y-61509880D01*
X82890330Y-61512235D01*
X82887838Y-61515059D01*
X82884659Y-61518638D01*
X82880540Y-61523260D01*
X82875308Y-61529122D01*
X82872139Y-61532712D01*
X82869603Y-61535731D01*
X82867332Y-61538678D01*
X82864952Y-61542055D01*
X82862095Y-61546359D01*
X82859173Y-61550873D01*
X82856761Y-61554368D01*
X82854397Y-61557390D01*
X82852902Y-61558987D01*
X82850908Y-61561007D01*
X82848262Y-61564009D01*
X82846164Y-61566559D01*
X82843333Y-61569989D01*
X82839710Y-61574197D01*
X82835985Y-61578386D01*
X82835233Y-61579211D01*
X82831864Y-61583002D01*
X82828733Y-61586720D01*
X82826381Y-61589712D01*
X82825896Y-61590389D01*
X82822504Y-61595017D01*
X82818224Y-61600422D01*
X82813683Y-61605838D01*
X82809508Y-61610497D01*
X82809025Y-61611008D01*
X82804650Y-61615667D01*
X82801750Y-61618946D01*
X82800229Y-61620955D01*
X82799934Y-61621658D01*
X82799297Y-61622940D01*
X82797582Y-61625501D01*
X82795081Y-61628949D01*
X82792089Y-61632887D01*
X82788898Y-61636921D01*
X82785802Y-61640657D01*
X82785799Y-61640660D01*
X82782977Y-61644145D01*
X82780534Y-61647479D01*
X82779048Y-61649855D01*
X82777559Y-61652170D01*
X82775067Y-61655471D01*
X82772036Y-61659152D01*
X82771078Y-61660255D01*
X82767910Y-61663925D01*
X82765049Y-61667368D01*
X82762993Y-61669981D01*
X82762613Y-61670506D01*
X82760428Y-61673299D01*
X82757683Y-61676400D01*
X82756962Y-61677152D01*
X82754447Y-61679940D01*
X82751410Y-61683626D01*
X82748937Y-61686843D01*
X82745621Y-61691301D01*
X82743217Y-61694434D01*
X82741374Y-61696676D01*
X82739742Y-61698457D01*
X82738544Y-61699655D01*
X82736841Y-61701527D01*
X82736110Y-61702754D01*
X82736109Y-61702768D01*
X82735408Y-61703911D01*
X82733633Y-61705944D01*
X82732594Y-61707013D01*
X82724901Y-61713913D01*
X82716004Y-61720635D01*
X82706578Y-61726726D01*
X82697302Y-61731733D01*
X82692363Y-61733919D01*
X82687324Y-61735452D01*
X82681214Y-61736599D01*
X82674884Y-61737259D01*
X82669180Y-61737330D01*
X82666205Y-61737013D01*
X82662452Y-61735755D01*
X82657852Y-61733361D01*
X82652822Y-61730151D01*
X82647782Y-61726446D01*
X82643152Y-61722568D01*
X82639351Y-61718836D01*
X82636796Y-61715571D01*
X82636027Y-61713932D01*
X82635091Y-61711322D01*
X82633717Y-61708125D01*
X82633532Y-61707730D01*
X82632441Y-61704041D01*
X82631807Y-61698995D01*
X82631628Y-61693301D01*
X82631897Y-61687665D01*
X82632614Y-61682796D01*
X82633653Y-61679622D01*
X82634880Y-61676342D01*
X82635881Y-61672105D01*
X82636239Y-61669645D01*
X82636705Y-61666409D01*
X82637251Y-61664348D01*
X82637661Y-61663914D01*
X82638678Y-61663524D01*
X82639682Y-61661543D01*
X82640484Y-61658538D01*
X82640894Y-61655073D01*
X82640913Y-61654202D01*
X82640473Y-61648846D01*
X82639144Y-61645445D01*
X82636916Y-61643974D01*
X82636162Y-61643906D01*
X82633921Y-61643413D01*
X82632958Y-61642553D01*
X82632099Y-61642038D01*
X82630659Y-61643365D01*
X82626891Y-61648182D01*
X82624171Y-61651932D01*
X82623147Y-61653522D01*
X82619995Y-61658622D01*
X82615989Y-61664742D01*
X82611587Y-61671211D01*
X82607248Y-61677360D01*
X82603427Y-61682521D01*
X82602461Y-61683764D01*
X82599113Y-61688146D01*
X82595840Y-61692669D01*
X82593191Y-61696569D01*
X82592481Y-61697698D01*
X82590338Y-61701081D01*
X82588383Y-61703937D01*
X82587352Y-61705270D01*
X82584110Y-61709215D01*
X82581036Y-61713580D01*
X82577726Y-61718965D01*
X82575493Y-61722875D01*
X82572336Y-61728230D01*
X82568828Y-61733728D01*
X82565339Y-61738826D01*
X82562237Y-61742980D01*
X82560372Y-61745163D01*
X82559151Y-61746605D01*
X82557091Y-61749181D01*
X82554913Y-61751977D01*
X82549240Y-61759245D01*
X82543911Y-61765871D01*
X82539145Y-61771598D01*
X82535156Y-61776165D01*
X82532163Y-61779313D01*
X82531536Y-61779904D01*
X82527881Y-61783017D01*
X82523383Y-61786565D01*
X82518495Y-61790225D01*
X82513668Y-61793671D01*
X82509354Y-61796575D01*
X82506004Y-61798611D01*
X82504712Y-61799254D01*
X82497917Y-61801396D01*
X82489879Y-61802835D01*
X82481430Y-61803478D01*
X82473403Y-61803235D01*
X82471075Y-61802957D01*
X82466585Y-61802195D01*
X82462719Y-61801210D01*
X82458753Y-61799764D01*
X82453963Y-61797610D01*
X82451241Y-61796293D01*
X82447166Y-61793779D01*
X82442693Y-61790211D01*
X82438394Y-61786130D01*
X82434840Y-61782076D01*
X82432648Y-61778688D01*
X82431421Y-61775412D01*
X82430319Y-61771350D01*
X82430009Y-61769845D01*
X82429161Y-61765596D01*
X82428204Y-61761374D01*
X82427908Y-61760195D01*
X82427137Y-61756218D01*
X82426756Y-61752233D01*
X82426748Y-61751833D01*
X82426503Y-61749071D01*
X82425497Y-61747696D01*
X82423748Y-61747069D01*
X82421268Y-61746139D01*
X82419934Y-61745155D01*
X82418887Y-61745242D01*
X82417075Y-61746591D01*
X82414974Y-61748696D01*
X82413064Y-61751047D01*
X82411821Y-61753138D01*
X82411594Y-61754022D01*
X82410889Y-61755840D01*
X82409015Y-61758805D01*
X82406295Y-61762499D01*
X82403050Y-61766500D01*
X82399603Y-61770391D01*
X82396878Y-61773177D01*
X82390597Y-61778481D01*
X82383576Y-61783153D01*
X82376625Y-61786672D01*
X82374548Y-61787470D01*
X82368795Y-61788538D01*
X82362051Y-61788302D01*
X82354942Y-61786888D01*
X82348099Y-61784432D01*
X82342147Y-61781060D01*
X82341492Y-61780578D01*
X82336915Y-61776229D01*
X82334081Y-61771263D01*
X82332766Y-61765202D01*
X82332609Y-61761555D01*
X82332608Y-61753676D01*
X82340451Y-61745487D01*
X82345626Y-61740549D01*
X82351172Y-61736024D01*
X82356006Y-61732746D01*
X82360362Y-61729837D01*
X82364580Y-61726460D01*
X82367797Y-61723310D01*
X82367975Y-61723101D01*
X82371370Y-61718917D01*
X82374653Y-61714656D01*
X82377550Y-61710701D01*
X82379783Y-61707435D01*
X82381077Y-61705243D01*
X82381288Y-61704621D01*
X82382007Y-61703290D01*
X82382136Y-61703223D01*
X82383144Y-61702245D01*
X82385071Y-61699964D01*
X82387551Y-61696820D01*
X82388306Y-61695831D01*
X82390857Y-61692498D01*
X82392922Y-61689873D01*
X82394148Y-61688401D01*
X82394291Y-61688258D01*
X82395041Y-61687210D01*
X82396736Y-61684609D01*
X82399192Y-61680742D01*
X82402225Y-61675902D01*
X82405651Y-61670382D01*
X82406081Y-61669684D01*
X82409648Y-61663956D01*
X82412960Y-61658745D01*
X82415801Y-61654380D01*
X82417957Y-61651187D01*
X82419216Y-61649495D01*
X82419259Y-61649447D01*
X82420764Y-61647625D01*
X82421314Y-61646598D01*
X82421915Y-61645497D01*
X82423523Y-61643096D01*
X82425845Y-61639825D01*
X82427056Y-61638169D01*
X82429721Y-61634492D01*
X82431921Y-61631339D01*
X82433307Y-61629214D01*
X82433558Y-61628761D01*
X82434658Y-61626773D01*
X82436309Y-61624121D01*
X82436459Y-61623893D01*
X82438129Y-61621236D01*
X82439309Y-61619144D01*
X82439367Y-61619025D01*
X82440679Y-61617006D01*
X82442150Y-61615239D01*
X82443913Y-61612876D01*
X82445813Y-61609668D01*
X82446285Y-61608748D01*
X82448677Y-61604112D01*
X82451053Y-61600164D01*
X82453320Y-61596825D01*
X82455048Y-61594205D01*
X82456241Y-61592123D01*
X82456308Y-61591981D01*
X82457388Y-61589998D01*
X82459040Y-61587354D01*
X82459200Y-61587113D01*
X82460861Y-61584374D01*
X82461974Y-61582102D01*
X82462020Y-61581974D01*
X82462979Y-61580380D01*
X82463556Y-61580081D01*
X82464521Y-61579182D01*
X82465198Y-61577647D01*
X82466092Y-61575523D01*
X82466725Y-61574672D01*
X82468383Y-61572954D01*
X82470771Y-61569789D01*
X82473591Y-61565635D01*
X82476548Y-61560949D01*
X82479344Y-61556188D01*
X82481684Y-61551810D01*
X82482081Y-61551001D01*
X82484401Y-61546322D01*
X82486742Y-61541849D01*
X82488715Y-61538317D01*
X82489302Y-61537351D01*
X82491456Y-61533699D01*
X82493751Y-61529435D01*
X82494662Y-61527615D01*
X82496798Y-61523527D01*
X82499186Y-61519415D01*
X82500167Y-61517879D01*
X82502411Y-61514303D01*
X82504472Y-61510679D01*
X82504944Y-61509766D01*
X82506434Y-61506863D01*
X82507658Y-61504610D01*
X82507805Y-61504357D01*
X82508638Y-61502786D01*
X82510188Y-61499710D01*
X82512232Y-61495575D01*
X82514537Y-61490849D01*
X82516883Y-61486113D01*
X82519006Y-61482020D01*
X82520674Y-61479008D01*
X82521648Y-61477519D01*
X82522826Y-61475494D01*
X82523000Y-61474570D01*
X82523500Y-61472803D01*
X82524775Y-61469975D01*
X82525705Y-61468218D01*
X82527262Y-61465189D01*
X82528239Y-61462826D01*
X82528409Y-61462068D01*
X82528839Y-61460447D01*
X82529956Y-61457563D01*
X82531216Y-61454703D01*
X82533155Y-61450518D01*
X82535096Y-61446330D01*
X82536083Y-61444200D01*
X82537335Y-61441260D01*
X82538067Y-61439077D01*
X82538145Y-61438592D01*
X82538587Y-61436823D01*
X82539795Y-61433530D01*
X82541591Y-61429139D01*
X82543798Y-61424074D01*
X82546240Y-61418760D01*
X82547634Y-61415853D01*
X82551470Y-61409201D01*
X82555966Y-61403992D01*
X82561623Y-61399763D01*
X82568940Y-61396048D01*
X82568976Y-61396033D01*
X82570977Y-61395598D01*
X82574530Y-61395214D01*
X82579024Y-61394942D01*
X82581416Y-61394865D01*
X82587694Y-61394950D01*
X82592383Y-61395668D01*
X82596013Y-61397231D01*
X82599120Y-61399846D01*
X82601555Y-61402795D01*
X82604697Y-61407393D01*
X82606742Y-61411579D01*
X82607903Y-61416066D01*
X82608396Y-61421562D01*
X82608460Y-61425578D01*
X82608460Y-61436179D01*
X82601428Y-61450769D01*
X82598958Y-61455993D01*
X82596867Y-61460600D01*
X82595323Y-61464206D01*
X82594492Y-61466428D01*
X82594397Y-61466876D01*
X82593633Y-61468797D01*
X82592776Y-61469740D01*
X82591351Y-61471737D01*
X82591073Y-61472848D01*
X82590475Y-61474938D01*
X82589128Y-61477642D01*
X82588999Y-61477854D01*
X82587293Y-61480871D01*
X82585055Y-61485144D01*
X82582646Y-61489953D01*
X82580424Y-61494583D01*
X82578749Y-61498315D01*
X82578711Y-61498407D01*
X82577556Y-61501041D01*
X82575843Y-61504805D01*
X82573975Y-61508818D01*
X82572331Y-61512389D01*
X82571130Y-61515158D01*
X82570605Y-61516584D01*
X82570598Y-61516640D01*
X82570157Y-61517909D01*
X82568972Y-61520678D01*
X82567253Y-61524500D01*
X82565206Y-61528931D01*
X82563041Y-61533527D01*
X82560965Y-61537842D01*
X82559187Y-61541432D01*
X82557916Y-61543853D01*
X82557603Y-61544383D01*
X82556658Y-61546116D01*
X82555128Y-61549191D01*
X82553228Y-61553145D01*
X82551173Y-61557515D01*
X82549179Y-61561836D01*
X82547462Y-61565647D01*
X82546238Y-61568482D01*
X82545722Y-61569879D01*
X82545718Y-61569921D01*
X82545090Y-61571306D01*
X82544256Y-61572424D01*
X82543078Y-61574108D01*
X82541386Y-61577048D01*
X82539104Y-61581393D01*
X82536153Y-61587293D01*
X82532458Y-61594899D01*
X82528941Y-61602257D01*
X82525665Y-61609154D01*
X82523182Y-61614415D01*
X82521351Y-61618360D01*
X82520032Y-61621305D01*
X82519083Y-61623568D01*
X82518365Y-61625466D01*
X82517737Y-61627317D01*
X82517445Y-61628220D01*
X82516277Y-61631364D01*
X82515099Y-61633783D01*
X82514840Y-61634170D01*
X82513638Y-61636254D01*
X82512311Y-61639202D01*
X82512163Y-61639579D01*
X82510603Y-61642924D01*
X82508821Y-61645836D01*
X82508740Y-61645945D01*
X82507320Y-61648203D01*
X82506774Y-61649798D01*
X82506331Y-61651480D01*
X82505212Y-61654250D01*
X82504582Y-61655608D01*
X82503067Y-61659160D01*
X82501948Y-61662521D01*
X82501747Y-61663360D01*
X82500806Y-61666093D01*
X82499612Y-61667813D01*
X82498395Y-61669839D01*
X82498119Y-61671455D01*
X82497767Y-61673742D01*
X82496852Y-61677205D01*
X82495865Y-61680248D01*
X82494544Y-61684247D01*
X82493480Y-61687924D01*
X82493024Y-61689881D01*
X82492335Y-61692561D01*
X82491578Y-61694217D01*
X82490602Y-61696082D01*
X82489391Y-61699168D01*
X82488249Y-61702599D01*
X82487474Y-61705501D01*
X82487311Y-61706648D01*
X82486816Y-61708716D01*
X82485673Y-61711370D01*
X82484484Y-61714696D01*
X82484057Y-61717694D01*
X82483751Y-61720564D01*
X82482968Y-61724430D01*
X82482311Y-61726923D01*
X82481306Y-61731941D01*
X82481061Y-61736973D01*
X82481543Y-61741396D01*
X82482722Y-61744583D01*
X82483245Y-61745244D01*
X82485795Y-61746496D01*
X82489048Y-61745811D01*
X82493046Y-61743169D01*
X82497736Y-61738657D01*
X82504028Y-61731787D01*
X82509250Y-61725872D01*
X82513299Y-61721039D01*
X82516067Y-61717417D01*
X82517450Y-61715135D01*
X82517591Y-61714595D01*
X82518265Y-61713251D01*
X82519924Y-61711152D01*
X82520296Y-61710741D01*
X82522079Y-61708570D01*
X82522975Y-61706991D01*
X82523000Y-61706828D01*
X82523744Y-61705385D01*
X82524682Y-61704437D01*
X82526046Y-61702938D01*
X82528313Y-61700077D01*
X82531172Y-61696280D01*
X82534316Y-61691977D01*
X82537434Y-61687596D01*
X82540219Y-61683568D01*
X82542361Y-61680319D01*
X82543552Y-61678281D01*
X82543606Y-61678162D01*
X82544958Y-61675688D01*
X82546888Y-61672825D01*
X82547060Y-61672595D01*
X82551832Y-61666208D01*
X82556603Y-61659650D01*
X82560980Y-61653476D01*
X82564565Y-61648239D01*
X82565637Y-61646610D01*
X82568569Y-61642121D01*
X82571637Y-61637477D01*
X82574554Y-61633108D01*
X82577033Y-61629442D01*
X82578788Y-61626910D01*
X82579362Y-61626124D01*
X82580562Y-61624642D01*
X82582555Y-61622230D01*
X82583542Y-61621046D01*
X82585491Y-61618486D01*
X82586668Y-61616502D01*
X82586825Y-61615961D01*
X82587630Y-61614415D01*
X82588219Y-61613940D01*
X82589365Y-61612780D01*
X82591326Y-61610389D01*
X82593746Y-61607249D01*
X82596268Y-61603842D01*
X82598536Y-61600651D01*
X82600194Y-61598157D01*
X82600885Y-61596841D01*
X82600888Y-61596808D01*
X82601500Y-61595734D01*
X82603145Y-61593355D01*
X82605533Y-61590079D01*
X82607108Y-61587977D01*
X82610135Y-61583943D01*
X82612927Y-61580157D01*
X82615037Y-61577226D01*
X82615619Y-61576388D01*
X82617633Y-61573720D01*
X82619506Y-61571693D01*
X82619675Y-61571546D01*
X82621113Y-61569946D01*
X82621442Y-61569114D01*
X82622031Y-61567826D01*
X82623591Y-61565299D01*
X82625807Y-61562036D01*
X82626256Y-61561404D01*
X82629001Y-61557544D01*
X82631611Y-61553855D01*
X82633528Y-61551122D01*
X82633558Y-61551079D01*
X82635523Y-61548369D01*
X82637196Y-61546252D01*
X82637436Y-61545979D01*
X82638833Y-61543970D01*
X82640350Y-61541140D01*
X82640459Y-61540905D01*
X82642426Y-61537242D01*
X82645341Y-61532889D01*
X82649450Y-61527479D01*
X82650976Y-61525567D01*
X82653210Y-61522695D01*
X82656197Y-61518716D01*
X82659444Y-61514293D01*
X82660986Y-61512157D01*
X82663969Y-61508005D01*
X82666710Y-61504202D01*
X82668815Y-61501295D01*
X82669580Y-61500247D01*
X82671705Y-61497319D01*
X82674416Y-61493528D01*
X82677400Y-61489319D01*
X82680347Y-61485134D01*
X82682944Y-61481415D01*
X82684879Y-61478606D01*
X82685808Y-61477205D01*
X82687051Y-61475093D01*
X82688691Y-61472225D01*
X82688945Y-61471775D01*
X82690561Y-61469167D01*
X82693012Y-61465517D01*
X82695831Y-61461513D01*
X82696534Y-61460545D01*
X82698960Y-61457220D01*
X82700877Y-61454575D01*
X82702617Y-61452137D01*
X82704513Y-61449435D01*
X82706898Y-61446000D01*
X82710104Y-61441358D01*
X82710959Y-61440120D01*
X82713660Y-61436224D01*
X82716166Y-61432647D01*
X82718007Y-61430053D01*
X82718260Y-61429704D01*
X82719905Y-61427381D01*
X82722294Y-61423938D01*
X82724960Y-61420042D01*
X82725465Y-61419299D01*
X82730380Y-61412097D01*
X82734676Y-61405885D01*
X82738173Y-61400924D01*
X82740693Y-61397466D01*
X82741019Y-61397037D01*
X82743122Y-61394183D01*
X82744764Y-61391817D01*
X82746232Y-61389804D01*
X82748616Y-61386751D01*
X82751436Y-61383266D01*
X82751848Y-61382767D01*
X82757129Y-61376164D01*
X82761380Y-61370387D01*
X82763695Y-61366867D01*
X82768860Y-61359441D01*
X82774580Y-61353476D01*
X82781557Y-61348274D01*
X82783686Y-61346947D01*
X82787205Y-61344892D01*
X82789911Y-61343646D01*
X82792574Y-61343015D01*
X82795965Y-61342807D01*
X82800072Y-61342815D01*
X82807939Y-61343483D01*
X82814330Y-61345424D01*
X82819644Y-61348834D01*
X82824282Y-61353908D01*
X82825057Y-61354987D01*
X82826940Y-61357770D01*
X82828132Y-61359990D01*
X82828790Y-61362280D01*
X82829074Y-61365271D01*
X82829139Y-61369596D01*
X82829142Y-61371323D01*
X82828866Y-61378953D01*
X82828006Y-61384734D01*
X82826511Y-61388913D01*
X82825202Y-61390856D01*
X82823974Y-61393006D01*
X82823733Y-61394159D01*
X82823331Y-61395887D01*
X82822084Y-61399065D01*
X82819930Y-61403843D01*
X82816806Y-61410364D01*
X82816523Y-61410944D01*
X82815347Y-61413939D01*
X82814116Y-61417974D01*
X82813440Y-61420680D01*
X82811879Y-61426454D01*
X82809674Y-61432408D01*
X82806643Y-61438950D01*
X82802601Y-61446488D01*
X82798834Y-61452973D01*
X82796961Y-61456213D01*
X82795522Y-61458870D01*
X82794982Y-61460004D01*
X82793157Y-61464048D01*
X82790477Y-61468850D01*
X82789614Y-61470281D01*
X82787548Y-61473908D01*
X82785690Y-61477563D01*
X82785311Y-61478395D01*
X82784023Y-61481192D01*
X82782992Y-61483188D01*
X82782870Y-61483387D01*
X82781899Y-61484861D01*
X82780124Y-61487546D01*
X82778028Y-61490710D01*
X82775988Y-61493864D01*
X82774531Y-61496263D01*
X82773971Y-61497391D01*
X82773354Y-61498597D01*
X82772826Y-61499264D01*
X82771523Y-61500991D01*
X82769739Y-61503620D01*
X82769310Y-61504286D01*
X82767244Y-61507496D01*
X82765304Y-61510462D01*
X82765095Y-61510777D01*
X82763345Y-61513724D01*
X82761598Y-61517115D01*
X82761494Y-61517338D01*
X82758002Y-61524760D01*
X82755048Y-61530779D01*
X82752333Y-61535992D01*
X82750091Y-61540056D01*
X82748018Y-61543901D01*
X82746326Y-61547360D01*
X82745365Y-61549711D01*
X82745341Y-61549792D01*
X82743445Y-61554822D01*
X82740391Y-61561007D01*
X82736424Y-61567856D01*
X82735363Y-61569545D01*
X82733177Y-61573100D01*
X82731540Y-61576003D01*
X82730737Y-61577740D01*
X82730700Y-61577933D01*
X82730239Y-61579270D01*
X82728982Y-61582114D01*
X82727122Y-61586047D01*
X82724860Y-61590633D01*
X82722056Y-61596219D01*
X82719118Y-61602079D01*
X82716456Y-61607395D01*
X82714968Y-61610371D01*
X82712331Y-61615615D01*
X82709351Y-61621487D01*
X82706745Y-61626577D01*
X82704829Y-61630423D01*
X82703378Y-61633585D01*
X82702628Y-61635537D01*
X82702574Y-61635825D01*
X82703540Y-61637079D01*
X82705973Y-61638199D01*
X82709178Y-61638987D01*
X82712461Y-61639244D01*
X82714025Y-61639092D01*
X82716485Y-61638366D01*
X82717694Y-61637492D01*
X82717719Y-61637366D01*
X82718616Y-61636501D01*
X82719684Y-61636333D01*
X82721504Y-61635560D01*
X82723912Y-61633594D01*
X82725159Y-61632277D01*
X82727969Y-61629053D01*
X82731255Y-61625311D01*
X82732986Y-61623352D01*
X82735730Y-61620108D01*
X82739098Y-61615911D01*
X82742451Y-61611564D01*
X82743099Y-61610699D01*
X82746309Y-61606514D01*
X82749622Y-61602399D01*
X82752425Y-61599110D01*
X82752946Y-61598537D01*
X82756599Y-61594259D01*
X82759221Y-61590258D01*
X82760875Y-61586951D01*
X82762599Y-61584402D01*
X82763897Y-61583160D01*
X82765788Y-61581435D01*
X82768611Y-61578498D01*
X82771937Y-61574821D01*
X82775342Y-61570875D01*
X82778396Y-61567132D01*
X82778492Y-61567011D01*
X82783341Y-61560882D01*
X82788798Y-61554084D01*
X82794494Y-61547067D01*
X82800060Y-61540284D01*
X82805129Y-61534184D01*
X82809331Y-61529219D01*
X82810248Y-61528156D01*
X82814390Y-61523235D01*
X82818827Y-61517733D01*
X82822859Y-61512523D01*
X82824501Y-61510307D01*
X82831546Y-61500767D01*
X82837711Y-61492804D01*
X82843219Y-61486137D01*
X82847322Y-61481528D01*
X82850683Y-61477677D01*
X82854568Y-61472900D01*
X82858285Y-61468063D01*
X82859274Y-61466712D01*
X82863056Y-61461695D01*
X82867487Y-61456139D01*
X82871731Y-61451087D01*
X82872570Y-61450133D01*
X82875868Y-61446393D01*
X82878832Y-61442988D01*
X82881023Y-61440423D01*
X82881712Y-61439589D01*
X82883841Y-61437070D01*
X82885505Y-61435261D01*
X82886962Y-61433658D01*
X82889371Y-61430881D01*
X82892305Y-61427426D01*
X82893559Y-61425929D01*
X82896805Y-61422197D01*
X82901058Y-61417528D01*
X82905785Y-61412501D01*
X82910448Y-61407691D01*
X82910756Y-61407380D01*
X82915869Y-61402204D01*
X82921760Y-61396215D01*
X82927703Y-61390152D01*
X82932969Y-61384756D01*
X82932992Y-61384733D01*
X82939977Y-61377658D01*
X82945970Y-61371828D01*
X82951391Y-61366845D01*
X82956366Y-61362556D01*
X82958477Y-61360591D01*
X82960950Y-61358032D01*
X82961264Y-61357688D01*
X82963118Y-61355752D01*
X82965443Y-61353586D01*
X82968570Y-61350900D01*
X82972833Y-61347407D01*
X82976993Y-61344071D01*
X82979746Y-61341810D01*
X82983534Y-61338607D01*
X82987777Y-61334960D01*
X82990515Y-61332574D01*
X82994258Y-61329309D01*
X82997450Y-61326555D01*
X82999711Y-61324637D01*
X83000603Y-61323918D01*
X83002101Y-61322785D01*
X83004450Y-61320935D01*
X83005050Y-61320456D01*
X83007954Y-61318220D01*
X83010628Y-61316313D01*
X83010907Y-61316129D01*
X83013536Y-61314249D01*
X83015209Y-61312885D01*
X83017163Y-61311295D01*
X83019673Y-61309628D01*
X83023274Y-61307547D01*
X83026151Y-61305974D01*
X83030082Y-61303731D01*
X83034037Y-61301292D01*
X83035281Y-61300471D01*
X83038055Y-61298796D01*
X83042146Y-61296579D01*
X83046898Y-61294168D01*
X83049755Y-61292790D01*
X83054208Y-61290684D01*
X83058036Y-61288859D01*
X83060746Y-61287553D01*
X83061723Y-61287067D01*
X83068818Y-61283438D01*
X83074727Y-61280554D01*
X83079258Y-61278504D01*
X83082218Y-61277380D01*
X83083169Y-61277186D01*
X83084913Y-61276795D01*
X83087583Y-61275842D01*
X83087919Y-61275704D01*
X83093841Y-61273396D01*
X83098830Y-61271885D01*
X83103833Y-61270896D01*
X83105408Y-61270669D01*
X83108960Y-61270001D01*
X83111603Y-61269153D01*
X83112586Y-61268498D01*
X83113542Y-61268026D01*
X83115874Y-61267659D01*
X83119759Y-61267391D01*
X83125372Y-61267208D01*
X83132890Y-61267101D01*
X83137052Y-61267074D01*
X83145013Y-61267057D01*
X83151114Y-61267103D01*
G37*
D12*
X66980500Y-62604936D02*
X66980500Y-63809064D01*
X68800500Y-62604936D02*
X68800500Y-63809064D01*
X81922500Y-65839359D02*
X81922500Y-66146641D01*
X82682500Y-65839359D02*
X82682500Y-66146641D01*
X80322500Y-65839359D02*
X80322500Y-66146641D01*
X81082500Y-65839359D02*
X81082500Y-66146641D01*
X73345921Y-69101579D02*
G75*
G02*
X73063079Y-69101579I-141421J0D01*
G01*
X73063079Y-69101579D02*
G75*
G02*
X73345921Y-69101579I141421J0D01*
G01*
X78304500Y-68543000D02*
X77404500Y-68543000D01*
X78304500Y-68143000D02*
X78304500Y-71543000D01*
X77404500Y-68143000D02*
X78304500Y-68143000D01*
X77004500Y-72643000D02*
X77504500Y-72643000D01*
X77004500Y-72643000D02*
X76454500Y-71943000D01*
X76454500Y-71943000D02*
X73554500Y-71943000D01*
X73554500Y-71943000D02*
X73004500Y-72643000D01*
X73004500Y-72643000D02*
X72504500Y-72643000D01*
X72604500Y-68543000D02*
X71704500Y-68543000D01*
X71704500Y-68143000D02*
X72604500Y-68143000D01*
X71704500Y-68143000D02*
X71704500Y-71543000D01*
D13*
X73502501Y-66426400D02*
X73502501Y-66426400D01*
X73502501Y-66426400D01*
X73502501Y-66426400D01*
X73502501Y-66426400D01*
X73502501Y-66426400D01*
X73502501Y-66426401D01*
X73502501Y-66426401D01*
X73502501Y-66426401D01*
X73502501Y-66426401D01*
X73502501Y-66426401D01*
X73502501Y-66426401D01*
X73502501Y-66426401D01*
X73502500Y-66426401D01*
X73502500Y-66426401D01*
X73502500Y-66426401D01*
X73502500Y-66426401D01*
X73502500Y-66426401D01*
X73502500Y-66426401D01*
X73502500Y-66426401D01*
X73502500Y-66426401D01*
X73502500Y-66426401D01*
X73502500Y-66426401D01*
X73502500Y-66426401D01*
X73502500Y-66426401D01*
X73502499Y-66426401D01*
X73502499Y-66426401D01*
X73502499Y-66426401D01*
X73502499Y-66426401D01*
X73502499Y-66426401D01*
X73502499Y-66426401D01*
X73502499Y-66426400D01*
X73502499Y-66426400D01*
X73502499Y-66426400D01*
X73502499Y-66426400D01*
X73502499Y-66426400D01*
X73502499Y-66426400D01*
X73502499Y-66426400D02*
X73502499Y-66426400D01*
X73502499Y-66426400D01*
X73502499Y-66426400D01*
X73502499Y-66426400D01*
X73502499Y-66426400D01*
X73502499Y-66426400D01*
X73502499Y-66426399D01*
X73502499Y-66426399D01*
X73502499Y-66426399D01*
X73502499Y-66426399D01*
X73502499Y-66426399D01*
X73502500Y-66426399D01*
X73502500Y-66426399D01*
X73502500Y-66426399D01*
X73502500Y-66426399D01*
X73502500Y-66426399D01*
X73502500Y-66426399D01*
X73502500Y-66426399D01*
X73502500Y-66426399D01*
X73502500Y-66426399D01*
X73502500Y-66426399D01*
X73502500Y-66426399D01*
X73502500Y-66426399D01*
X73502501Y-66426399D01*
X73502501Y-66426399D01*
X73502501Y-66426399D01*
X73502501Y-66426399D01*
X73502501Y-66426399D01*
X73502501Y-66426399D01*
X73502501Y-66426400D01*
X73502501Y-66426400D01*
X73502501Y-66426400D01*
X73502501Y-66426400D01*
X73502501Y-66426400D01*
X73502501Y-66426400D01*
X73502501Y-66426400D01*
D14*
X69404500Y-67690000D02*
X68404500Y-66890000D01*
X69404500Y-66090000D01*
X69404500Y-67690000D01*
G36*
X69404500Y-67690000D02*
G01*
X68404500Y-66890000D01*
X69404500Y-66090000D01*
X69404500Y-67690000D01*
G37*
D15*
X68054500Y-67390000D02*
G75*
G02*
X67554500Y-67890000I-500001J1D01*
G01*
X67554500Y-65890000D02*
G75*
G02*
X68054500Y-66390000I-1J-500001D01*
G01*
X66754500Y-67890000D02*
G75*
G02*
X66254500Y-67390000I1J500001D01*
G01*
X66254500Y-66390000D02*
G75*
G02*
X66754500Y-65890000I500001J-1D01*
G01*
X68054500Y-66390000D02*
X68054500Y-67390000D01*
X67554500Y-67890000D02*
X66754500Y-67890000D01*
X66754500Y-65890000D02*
X67554500Y-65890000D01*
X66254500Y-66390000D02*
X66254500Y-67390000D01*
%LPC*%
D16*
X67890500Y-64607000D03*
X67890500Y-61807000D03*
D17*
X68004500Y-71043000D03*
D18*
X82302500Y-66503000D03*
X82302500Y-65483000D03*
D17*
X68004500Y-58543000D03*
D18*
X80702500Y-66503000D03*
X80702500Y-65483000D03*
D17*
X82004500Y-58543000D03*
D19*
X77954500Y-72143000D03*
D20*
X76804500Y-68143000D03*
X75604500Y-68143000D03*
X74404500Y-68143000D03*
X73204500Y-68143000D03*
D19*
X72054500Y-72143000D03*
D21*
X70702500Y-59143000D03*
D22*
X70702500Y-63343000D03*
D21*
X79302500Y-59143000D03*
D22*
X79302500Y-63343000D03*
D23*
X76752500Y-64118000D03*
X75752500Y-64118000D03*
X74252500Y-64118000D03*
X73252500Y-64118000D03*
D24*
X72552500Y-64118000D03*
X71752500Y-64118000D03*
D23*
X73752500Y-64118000D03*
X74752500Y-64118000D03*
X75256500Y-64118000D03*
X76252500Y-64118000D03*
D24*
X77452500Y-64118000D03*
X78252500Y-64118000D03*
D25*
X72112500Y-62792000D03*
X77892500Y-62792000D03*
D26*
X74002500Y-66411400D03*
D27*
X74502500Y-66411400D03*
D28*
X75002500Y-66411400D03*
D27*
X75502500Y-66411400D03*
X76002500Y-66411400D03*
X76002500Y-65641400D03*
X75502500Y-65641400D03*
D28*
X75002500Y-65641400D03*
D27*
X74502500Y-65641400D03*
X74002500Y-65641400D03*
D17*
X82004500Y-71043000D03*
D29*
X70454500Y-66890000D03*
X67154500Y-66890000D03*
%LPD*%
M02*
