%TF.GenerationSoftware,KiCad,Pcbnew,8.0.4*%
%TF.CreationDate,2024-08-22T18:58:07-07:00*%
%TF.ProjectId,UDB,5544422e-6b69-4636-9164-5f7063625858,C4-RC1*%
%TF.SameCoordinates,Original*%
%TF.FileFunction,AssemblyDrawing,Top*%
%FSLAX46Y46*%
G04 Gerber Fmt 4.6, Leading zero omitted, Abs format (unit mm)*
G04 Created by KiCad (PCBNEW 8.0.4) date 2024-08-22 18:58:07*
%MOMM*%
%LPD*%
G01*
G04 APERTURE LIST*
%ADD10C,0.060000*%
%ADD11C,0.063500*%
%ADD12C,0.120000*%
%ADD13C,0.040000*%
%ADD14C,0.150000*%
%ADD15C,0.125000*%
%ADD16C,0.100000*%
%ADD17C,0.080000*%
%ADD18C,0.050000*%
%ADD19C,0.100000*%
%TD*%
G04 APERTURE END LIST*
D10*
X82138165Y-65404285D02*
X82138165Y-65547142D01*
X82138165Y-65547142D02*
X82281022Y-65561428D01*
X82281022Y-65561428D02*
X82266737Y-65547142D01*
X82266737Y-65547142D02*
X82252451Y-65518571D01*
X82252451Y-65518571D02*
X82252451Y-65447142D01*
X82252451Y-65447142D02*
X82266737Y-65418571D01*
X82266737Y-65418571D02*
X82281022Y-65404285D01*
X82281022Y-65404285D02*
X82309594Y-65389999D01*
X82309594Y-65389999D02*
X82381022Y-65389999D01*
X82381022Y-65389999D02*
X82409594Y-65404285D01*
X82409594Y-65404285D02*
X82423880Y-65418571D01*
X82423880Y-65418571D02*
X82438165Y-65447142D01*
X82438165Y-65447142D02*
X82438165Y-65518571D01*
X82438165Y-65518571D02*
X82423880Y-65547142D01*
X82423880Y-65547142D02*
X82409594Y-65561428D01*
X82409594Y-65261428D02*
X82423880Y-65247142D01*
X82423880Y-65247142D02*
X82438165Y-65261428D01*
X82438165Y-65261428D02*
X82423880Y-65275714D01*
X82423880Y-65275714D02*
X82409594Y-65261428D01*
X82409594Y-65261428D02*
X82438165Y-65261428D01*
X82438165Y-64961428D02*
X82438165Y-65132857D01*
X82438165Y-65047142D02*
X82138165Y-65047142D01*
X82138165Y-65047142D02*
X82181022Y-65075714D01*
X82181022Y-65075714D02*
X82209594Y-65104285D01*
X82209594Y-65104285D02*
X82223880Y-65132857D01*
X82438165Y-64832857D02*
X82138165Y-64832857D01*
X82323880Y-64804286D02*
X82438165Y-64718571D01*
X82238165Y-64718571D02*
X82352451Y-64832857D01*
X80538165Y-65404285D02*
X80538165Y-65547142D01*
X80538165Y-65547142D02*
X80681022Y-65561428D01*
X80681022Y-65561428D02*
X80666737Y-65547142D01*
X80666737Y-65547142D02*
X80652451Y-65518571D01*
X80652451Y-65518571D02*
X80652451Y-65447142D01*
X80652451Y-65447142D02*
X80666737Y-65418571D01*
X80666737Y-65418571D02*
X80681022Y-65404285D01*
X80681022Y-65404285D02*
X80709594Y-65389999D01*
X80709594Y-65389999D02*
X80781022Y-65389999D01*
X80781022Y-65389999D02*
X80809594Y-65404285D01*
X80809594Y-65404285D02*
X80823880Y-65418571D01*
X80823880Y-65418571D02*
X80838165Y-65447142D01*
X80838165Y-65447142D02*
X80838165Y-65518571D01*
X80838165Y-65518571D02*
X80823880Y-65547142D01*
X80823880Y-65547142D02*
X80809594Y-65561428D01*
X80809594Y-65261428D02*
X80823880Y-65247142D01*
X80823880Y-65247142D02*
X80838165Y-65261428D01*
X80838165Y-65261428D02*
X80823880Y-65275714D01*
X80823880Y-65275714D02*
X80809594Y-65261428D01*
X80809594Y-65261428D02*
X80838165Y-65261428D01*
X80838165Y-64961428D02*
X80838165Y-65132857D01*
X80838165Y-65047142D02*
X80538165Y-65047142D01*
X80538165Y-65047142D02*
X80581022Y-65075714D01*
X80581022Y-65075714D02*
X80609594Y-65104285D01*
X80609594Y-65104285D02*
X80623880Y-65132857D01*
X80838165Y-64832857D02*
X80538165Y-64832857D01*
X80723880Y-64804286D02*
X80838165Y-64718571D01*
X80638165Y-64718571D02*
X80752451Y-64832857D01*
D11*
X66789131Y-64649477D02*
X66789131Y-64528524D01*
X66861703Y-64673667D02*
X66607703Y-64589000D01*
X66607703Y-64589000D02*
X66861703Y-64504334D01*
X66849608Y-64431763D02*
X66861703Y-64395477D01*
X66861703Y-64395477D02*
X66861703Y-64335001D01*
X66861703Y-64335001D02*
X66849608Y-64310810D01*
X66849608Y-64310810D02*
X66837512Y-64298715D01*
X66837512Y-64298715D02*
X66813322Y-64286620D01*
X66813322Y-64286620D02*
X66789131Y-64286620D01*
X66789131Y-64286620D02*
X66764941Y-64298715D01*
X66764941Y-64298715D02*
X66752846Y-64310810D01*
X66752846Y-64310810D02*
X66740750Y-64335001D01*
X66740750Y-64335001D02*
X66728655Y-64383382D01*
X66728655Y-64383382D02*
X66716560Y-64407572D01*
X66716560Y-64407572D02*
X66704465Y-64419667D01*
X66704465Y-64419667D02*
X66680274Y-64431763D01*
X66680274Y-64431763D02*
X66656084Y-64431763D01*
X66656084Y-64431763D02*
X66631893Y-64419667D01*
X66631893Y-64419667D02*
X66619798Y-64407572D01*
X66619798Y-64407572D02*
X66607703Y-64383382D01*
X66607703Y-64383382D02*
X66607703Y-64322905D01*
X66607703Y-64322905D02*
X66619798Y-64286620D01*
X66861703Y-64177762D02*
X66607703Y-64177762D01*
X66607703Y-64177762D02*
X66789131Y-64093096D01*
X66789131Y-64093096D02*
X66607703Y-64008429D01*
X66607703Y-64008429D02*
X66861703Y-64008429D01*
X66861703Y-63887476D02*
X66607703Y-63887476D01*
X66607703Y-63887476D02*
X66607703Y-63827000D01*
X66607703Y-63827000D02*
X66619798Y-63790714D01*
X66619798Y-63790714D02*
X66643988Y-63766524D01*
X66643988Y-63766524D02*
X66668179Y-63754429D01*
X66668179Y-63754429D02*
X66716560Y-63742333D01*
X66716560Y-63742333D02*
X66752846Y-63742333D01*
X66752846Y-63742333D02*
X66801227Y-63754429D01*
X66801227Y-63754429D02*
X66825417Y-63766524D01*
X66825417Y-63766524D02*
X66849608Y-63790714D01*
X66849608Y-63790714D02*
X66861703Y-63827000D01*
X66861703Y-63827000D02*
X66861703Y-63887476D01*
X66861703Y-63500429D02*
X66861703Y-63645572D01*
X66861703Y-63573000D02*
X66607703Y-63573000D01*
X66607703Y-63573000D02*
X66643988Y-63597191D01*
X66643988Y-63597191D02*
X66668179Y-63621381D01*
X66668179Y-63621381D02*
X66680274Y-63645572D01*
X66631893Y-63403667D02*
X66619798Y-63391571D01*
X66619798Y-63391571D02*
X66607703Y-63367381D01*
X66607703Y-63367381D02*
X66607703Y-63306905D01*
X66607703Y-63306905D02*
X66619798Y-63282714D01*
X66619798Y-63282714D02*
X66631893Y-63270619D01*
X66631893Y-63270619D02*
X66656084Y-63258524D01*
X66656084Y-63258524D02*
X66680274Y-63258524D01*
X66680274Y-63258524D02*
X66716560Y-63270619D01*
X66716560Y-63270619D02*
X66861703Y-63415762D01*
X66861703Y-63415762D02*
X66861703Y-63258524D01*
X66607703Y-63101285D02*
X66607703Y-63077095D01*
X66607703Y-63077095D02*
X66619798Y-63052904D01*
X66619798Y-63052904D02*
X66631893Y-63040809D01*
X66631893Y-63040809D02*
X66656084Y-63028714D01*
X66656084Y-63028714D02*
X66704465Y-63016619D01*
X66704465Y-63016619D02*
X66764941Y-63016619D01*
X66764941Y-63016619D02*
X66813322Y-63028714D01*
X66813322Y-63028714D02*
X66837512Y-63040809D01*
X66837512Y-63040809D02*
X66849608Y-63052904D01*
X66849608Y-63052904D02*
X66861703Y-63077095D01*
X66861703Y-63077095D02*
X66861703Y-63101285D01*
X66861703Y-63101285D02*
X66849608Y-63125476D01*
X66849608Y-63125476D02*
X66837512Y-63137571D01*
X66837512Y-63137571D02*
X66813322Y-63149666D01*
X66813322Y-63149666D02*
X66764941Y-63161762D01*
X66764941Y-63161762D02*
X66704465Y-63161762D01*
X66704465Y-63161762D02*
X66656084Y-63149666D01*
X66656084Y-63149666D02*
X66631893Y-63137571D01*
X66631893Y-63137571D02*
X66619798Y-63125476D01*
X66619798Y-63125476D02*
X66607703Y-63101285D01*
X66607703Y-62798904D02*
X66607703Y-62847285D01*
X66607703Y-62847285D02*
X66619798Y-62871476D01*
X66619798Y-62871476D02*
X66631893Y-62883571D01*
X66631893Y-62883571D02*
X66668179Y-62907761D01*
X66668179Y-62907761D02*
X66716560Y-62919857D01*
X66716560Y-62919857D02*
X66813322Y-62919857D01*
X66813322Y-62919857D02*
X66837512Y-62907761D01*
X66837512Y-62907761D02*
X66849608Y-62895666D01*
X66849608Y-62895666D02*
X66861703Y-62871476D01*
X66861703Y-62871476D02*
X66861703Y-62823095D01*
X66861703Y-62823095D02*
X66849608Y-62798904D01*
X66849608Y-62798904D02*
X66837512Y-62786809D01*
X66837512Y-62786809D02*
X66813322Y-62774714D01*
X66813322Y-62774714D02*
X66752846Y-62774714D01*
X66752846Y-62774714D02*
X66728655Y-62786809D01*
X66728655Y-62786809D02*
X66716560Y-62798904D01*
X66716560Y-62798904D02*
X66704465Y-62823095D01*
X66704465Y-62823095D02*
X66704465Y-62871476D01*
X66704465Y-62871476D02*
X66716560Y-62895666D01*
X66716560Y-62895666D02*
X66728655Y-62907761D01*
X66728655Y-62907761D02*
X66752846Y-62919857D01*
X66764941Y-62665856D02*
X66764941Y-62472333D01*
X66861703Y-62218333D02*
X66861703Y-62363476D01*
X66861703Y-62290904D02*
X66607703Y-62290904D01*
X66607703Y-62290904D02*
X66643988Y-62315095D01*
X66643988Y-62315095D02*
X66668179Y-62339285D01*
X66668179Y-62339285D02*
X66680274Y-62363476D01*
X66607703Y-61988523D02*
X66607703Y-62109475D01*
X66607703Y-62109475D02*
X66728655Y-62121571D01*
X66728655Y-62121571D02*
X66716560Y-62109475D01*
X66716560Y-62109475D02*
X66704465Y-62085285D01*
X66704465Y-62085285D02*
X66704465Y-62024809D01*
X66704465Y-62024809D02*
X66716560Y-62000618D01*
X66716560Y-62000618D02*
X66728655Y-61988523D01*
X66728655Y-61988523D02*
X66752846Y-61976428D01*
X66752846Y-61976428D02*
X66813322Y-61976428D01*
X66813322Y-61976428D02*
X66837512Y-61988523D01*
X66837512Y-61988523D02*
X66849608Y-62000618D01*
X66849608Y-62000618D02*
X66861703Y-62024809D01*
X66861703Y-62024809D02*
X66861703Y-62085285D01*
X66861703Y-62085285D02*
X66849608Y-62109475D01*
X66849608Y-62109475D02*
X66837512Y-62121571D01*
X66607703Y-61819189D02*
X66607703Y-61794999D01*
X66607703Y-61794999D02*
X66619798Y-61770808D01*
X66619798Y-61770808D02*
X66631893Y-61758713D01*
X66631893Y-61758713D02*
X66656084Y-61746618D01*
X66656084Y-61746618D02*
X66704465Y-61734523D01*
X66704465Y-61734523D02*
X66764941Y-61734523D01*
X66764941Y-61734523D02*
X66813322Y-61746618D01*
X66813322Y-61746618D02*
X66837512Y-61758713D01*
X66837512Y-61758713D02*
X66849608Y-61770808D01*
X66849608Y-61770808D02*
X66861703Y-61794999D01*
X66861703Y-61794999D02*
X66861703Y-61819189D01*
X66861703Y-61819189D02*
X66849608Y-61843380D01*
X66849608Y-61843380D02*
X66837512Y-61855475D01*
X66837512Y-61855475D02*
X66813322Y-61867570D01*
X66813322Y-61867570D02*
X66764941Y-61879666D01*
X66764941Y-61879666D02*
X66704465Y-61879666D01*
X66704465Y-61879666D02*
X66656084Y-61867570D01*
X66656084Y-61867570D02*
X66631893Y-61855475D01*
X66631893Y-61855475D02*
X66619798Y-61843380D01*
X66619798Y-61843380D02*
X66607703Y-61819189D01*
D12*
X67835307Y-63473666D02*
X67835307Y-63740332D01*
X68254355Y-63740332D02*
X67454355Y-63740332D01*
X67454355Y-63740332D02*
X67454355Y-63359380D01*
X68254355Y-62635571D02*
X68254355Y-63092714D01*
X68254355Y-62864142D02*
X67454355Y-62864142D01*
X67454355Y-62864142D02*
X67568640Y-62940333D01*
X67568640Y-62940333D02*
X67644831Y-63016523D01*
X67644831Y-63016523D02*
X67682926Y-63092714D01*
D10*
X82038214Y-64975665D02*
X81895357Y-64975665D01*
X81895357Y-64975665D02*
X81881071Y-65118522D01*
X81881071Y-65118522D02*
X81895357Y-65104237D01*
X81895357Y-65104237D02*
X81923929Y-65089951D01*
X81923929Y-65089951D02*
X81995357Y-65089951D01*
X81995357Y-65089951D02*
X82023929Y-65104237D01*
X82023929Y-65104237D02*
X82038214Y-65118522D01*
X82038214Y-65118522D02*
X82052500Y-65147094D01*
X82052500Y-65147094D02*
X82052500Y-65218522D01*
X82052500Y-65218522D02*
X82038214Y-65247094D01*
X82038214Y-65247094D02*
X82023929Y-65261380D01*
X82023929Y-65261380D02*
X81995357Y-65275665D01*
X81995357Y-65275665D02*
X81923929Y-65275665D01*
X81923929Y-65275665D02*
X81895357Y-65261380D01*
X81895357Y-65261380D02*
X81881071Y-65247094D01*
X82181071Y-65247094D02*
X82195357Y-65261380D01*
X82195357Y-65261380D02*
X82181071Y-65275665D01*
X82181071Y-65275665D02*
X82166785Y-65261380D01*
X82166785Y-65261380D02*
X82181071Y-65247094D01*
X82181071Y-65247094D02*
X82181071Y-65275665D01*
X82481071Y-65275665D02*
X82309642Y-65275665D01*
X82395357Y-65275665D02*
X82395357Y-64975665D01*
X82395357Y-64975665D02*
X82366785Y-65018522D01*
X82366785Y-65018522D02*
X82338214Y-65047094D01*
X82338214Y-65047094D02*
X82309642Y-65061380D01*
X82609642Y-65275665D02*
X82609642Y-64975665D01*
X82638214Y-65161380D02*
X82723928Y-65275665D01*
X82723928Y-65075665D02*
X82609642Y-65189951D01*
D13*
X82420700Y-66036332D02*
X82296891Y-66122999D01*
X82420700Y-66184904D02*
X82160700Y-66184904D01*
X82160700Y-66184904D02*
X82160700Y-66085856D01*
X82160700Y-66085856D02*
X82173081Y-66061094D01*
X82173081Y-66061094D02*
X82185462Y-66048713D01*
X82185462Y-66048713D02*
X82210224Y-66036332D01*
X82210224Y-66036332D02*
X82247367Y-66036332D01*
X82247367Y-66036332D02*
X82272129Y-66048713D01*
X82272129Y-66048713D02*
X82284510Y-66061094D01*
X82284510Y-66061094D02*
X82296891Y-66085856D01*
X82296891Y-66085856D02*
X82296891Y-66184904D01*
X82185462Y-65937285D02*
X82173081Y-65924904D01*
X82173081Y-65924904D02*
X82160700Y-65900142D01*
X82160700Y-65900142D02*
X82160700Y-65838237D01*
X82160700Y-65838237D02*
X82173081Y-65813475D01*
X82173081Y-65813475D02*
X82185462Y-65801094D01*
X82185462Y-65801094D02*
X82210224Y-65788713D01*
X82210224Y-65788713D02*
X82234986Y-65788713D01*
X82234986Y-65788713D02*
X82272129Y-65801094D01*
X82272129Y-65801094D02*
X82420700Y-65949666D01*
X82420700Y-65949666D02*
X82420700Y-65788713D01*
D10*
X80438214Y-64975665D02*
X80295357Y-64975665D01*
X80295357Y-64975665D02*
X80281071Y-65118522D01*
X80281071Y-65118522D02*
X80295357Y-65104237D01*
X80295357Y-65104237D02*
X80323929Y-65089951D01*
X80323929Y-65089951D02*
X80395357Y-65089951D01*
X80395357Y-65089951D02*
X80423929Y-65104237D01*
X80423929Y-65104237D02*
X80438214Y-65118522D01*
X80438214Y-65118522D02*
X80452500Y-65147094D01*
X80452500Y-65147094D02*
X80452500Y-65218522D01*
X80452500Y-65218522D02*
X80438214Y-65247094D01*
X80438214Y-65247094D02*
X80423929Y-65261380D01*
X80423929Y-65261380D02*
X80395357Y-65275665D01*
X80395357Y-65275665D02*
X80323929Y-65275665D01*
X80323929Y-65275665D02*
X80295357Y-65261380D01*
X80295357Y-65261380D02*
X80281071Y-65247094D01*
X80581071Y-65247094D02*
X80595357Y-65261380D01*
X80595357Y-65261380D02*
X80581071Y-65275665D01*
X80581071Y-65275665D02*
X80566785Y-65261380D01*
X80566785Y-65261380D02*
X80581071Y-65247094D01*
X80581071Y-65247094D02*
X80581071Y-65275665D01*
X80881071Y-65275665D02*
X80709642Y-65275665D01*
X80795357Y-65275665D02*
X80795357Y-64975665D01*
X80795357Y-64975665D02*
X80766785Y-65018522D01*
X80766785Y-65018522D02*
X80738214Y-65047094D01*
X80738214Y-65047094D02*
X80709642Y-65061380D01*
X81009642Y-65275665D02*
X81009642Y-64975665D01*
X81038214Y-65161380D02*
X81123928Y-65275665D01*
X81123928Y-65075665D02*
X81009642Y-65189951D01*
D13*
X80820700Y-66036332D02*
X80696891Y-66122999D01*
X80820700Y-66184904D02*
X80560700Y-66184904D01*
X80560700Y-66184904D02*
X80560700Y-66085856D01*
X80560700Y-66085856D02*
X80573081Y-66061094D01*
X80573081Y-66061094D02*
X80585462Y-66048713D01*
X80585462Y-66048713D02*
X80610224Y-66036332D01*
X80610224Y-66036332D02*
X80647367Y-66036332D01*
X80647367Y-66036332D02*
X80672129Y-66048713D01*
X80672129Y-66048713D02*
X80684510Y-66061094D01*
X80684510Y-66061094D02*
X80696891Y-66085856D01*
X80696891Y-66085856D02*
X80696891Y-66184904D01*
X80820700Y-65788713D02*
X80820700Y-65937285D01*
X80820700Y-65862999D02*
X80560700Y-65862999D01*
X80560700Y-65862999D02*
X80597843Y-65887761D01*
X80597843Y-65887761D02*
X80622605Y-65912523D01*
X80622605Y-65912523D02*
X80634986Y-65937285D01*
D14*
X74671166Y-70154819D02*
X74671166Y-70869104D01*
X74671166Y-70869104D02*
X74623547Y-71011961D01*
X74623547Y-71011961D02*
X74528309Y-71107200D01*
X74528309Y-71107200D02*
X74385452Y-71154819D01*
X74385452Y-71154819D02*
X74290214Y-71154819D01*
X75099738Y-70250057D02*
X75147357Y-70202438D01*
X75147357Y-70202438D02*
X75242595Y-70154819D01*
X75242595Y-70154819D02*
X75480690Y-70154819D01*
X75480690Y-70154819D02*
X75575928Y-70202438D01*
X75575928Y-70202438D02*
X75623547Y-70250057D01*
X75623547Y-70250057D02*
X75671166Y-70345295D01*
X75671166Y-70345295D02*
X75671166Y-70440533D01*
X75671166Y-70440533D02*
X75623547Y-70583390D01*
X75623547Y-70583390D02*
X75052119Y-71154819D01*
X75052119Y-71154819D02*
X75671166Y-71154819D01*
D10*
X72525930Y-73225665D02*
X72725930Y-73525665D01*
X72725930Y-73225665D02*
X72525930Y-73525665D01*
X72997358Y-73525665D02*
X72825929Y-73525665D01*
X72911644Y-73525665D02*
X72911644Y-73225665D01*
X72911644Y-73225665D02*
X72883072Y-73268522D01*
X72883072Y-73268522D02*
X72854501Y-73297094D01*
X72854501Y-73297094D02*
X72825929Y-73311380D01*
X73111643Y-73254237D02*
X73125929Y-73239951D01*
X73125929Y-73239951D02*
X73154501Y-73225665D01*
X73154501Y-73225665D02*
X73225929Y-73225665D01*
X73225929Y-73225665D02*
X73254501Y-73239951D01*
X73254501Y-73239951D02*
X73268786Y-73254237D01*
X73268786Y-73254237D02*
X73283072Y-73282808D01*
X73283072Y-73282808D02*
X73283072Y-73311380D01*
X73283072Y-73311380D02*
X73268786Y-73354237D01*
X73268786Y-73354237D02*
X73097358Y-73525665D01*
X73097358Y-73525665D02*
X73283072Y-73525665D01*
X73397357Y-73254237D02*
X73411643Y-73239951D01*
X73411643Y-73239951D02*
X73440215Y-73225665D01*
X73440215Y-73225665D02*
X73511643Y-73225665D01*
X73511643Y-73225665D02*
X73540215Y-73239951D01*
X73540215Y-73239951D02*
X73554500Y-73254237D01*
X73554500Y-73254237D02*
X73568786Y-73282808D01*
X73568786Y-73282808D02*
X73568786Y-73311380D01*
X73568786Y-73311380D02*
X73554500Y-73354237D01*
X73554500Y-73354237D02*
X73383072Y-73525665D01*
X73383072Y-73525665D02*
X73568786Y-73525665D01*
X73825929Y-73325665D02*
X73825929Y-73525665D01*
X73754500Y-73211380D02*
X73683071Y-73425665D01*
X73683071Y-73425665D02*
X73868786Y-73425665D01*
X73954500Y-73225665D02*
X74025928Y-73525665D01*
X74025928Y-73525665D02*
X74083071Y-73311380D01*
X74083071Y-73311380D02*
X74140214Y-73525665D01*
X74140214Y-73525665D02*
X74211643Y-73225665D01*
X74497357Y-73525665D02*
X74397357Y-73382808D01*
X74325928Y-73525665D02*
X74325928Y-73225665D01*
X74325928Y-73225665D02*
X74440214Y-73225665D01*
X74440214Y-73225665D02*
X74468785Y-73239951D01*
X74468785Y-73239951D02*
X74483071Y-73254237D01*
X74483071Y-73254237D02*
X74497357Y-73282808D01*
X74497357Y-73282808D02*
X74497357Y-73325665D01*
X74497357Y-73325665D02*
X74483071Y-73354237D01*
X74483071Y-73354237D02*
X74468785Y-73368522D01*
X74468785Y-73368522D02*
X74440214Y-73382808D01*
X74440214Y-73382808D02*
X74325928Y-73382808D01*
X74611642Y-73511380D02*
X74654500Y-73525665D01*
X74654500Y-73525665D02*
X74725928Y-73525665D01*
X74725928Y-73525665D02*
X74754500Y-73511380D01*
X74754500Y-73511380D02*
X74768785Y-73497094D01*
X74768785Y-73497094D02*
X74783071Y-73468522D01*
X74783071Y-73468522D02*
X74783071Y-73439951D01*
X74783071Y-73439951D02*
X74768785Y-73411380D01*
X74768785Y-73411380D02*
X74754500Y-73397094D01*
X74754500Y-73397094D02*
X74725928Y-73382808D01*
X74725928Y-73382808D02*
X74668785Y-73368522D01*
X74668785Y-73368522D02*
X74640214Y-73354237D01*
X74640214Y-73354237D02*
X74625928Y-73339951D01*
X74625928Y-73339951D02*
X74611642Y-73311380D01*
X74611642Y-73311380D02*
X74611642Y-73282808D01*
X74611642Y-73282808D02*
X74625928Y-73254237D01*
X74625928Y-73254237D02*
X74640214Y-73239951D01*
X74640214Y-73239951D02*
X74668785Y-73225665D01*
X74668785Y-73225665D02*
X74740214Y-73225665D01*
X74740214Y-73225665D02*
X74783071Y-73239951D01*
X74911642Y-73411380D02*
X75140214Y-73411380D01*
X75340214Y-73225665D02*
X75368785Y-73225665D01*
X75368785Y-73225665D02*
X75397357Y-73239951D01*
X75397357Y-73239951D02*
X75411643Y-73254237D01*
X75411643Y-73254237D02*
X75425928Y-73282808D01*
X75425928Y-73282808D02*
X75440214Y-73339951D01*
X75440214Y-73339951D02*
X75440214Y-73411380D01*
X75440214Y-73411380D02*
X75425928Y-73468522D01*
X75425928Y-73468522D02*
X75411643Y-73497094D01*
X75411643Y-73497094D02*
X75397357Y-73511380D01*
X75397357Y-73511380D02*
X75368785Y-73525665D01*
X75368785Y-73525665D02*
X75340214Y-73525665D01*
X75340214Y-73525665D02*
X75311643Y-73511380D01*
X75311643Y-73511380D02*
X75297357Y-73497094D01*
X75297357Y-73497094D02*
X75283071Y-73468522D01*
X75283071Y-73468522D02*
X75268785Y-73411380D01*
X75268785Y-73411380D02*
X75268785Y-73339951D01*
X75268785Y-73339951D02*
X75283071Y-73282808D01*
X75283071Y-73282808D02*
X75297357Y-73254237D01*
X75297357Y-73254237D02*
X75311643Y-73239951D01*
X75311643Y-73239951D02*
X75340214Y-73225665D01*
X75697357Y-73325665D02*
X75697357Y-73525665D01*
X75625928Y-73211380D02*
X75554499Y-73425665D01*
X75554499Y-73425665D02*
X75740214Y-73425665D01*
X75854499Y-73411380D02*
X76083071Y-73411380D01*
X76368785Y-73525665D02*
X76225928Y-73525665D01*
X76225928Y-73525665D02*
X76225928Y-73225665D01*
X76468785Y-73525665D02*
X76468785Y-73225665D01*
X76468785Y-73225665D02*
X76583071Y-73225665D01*
X76583071Y-73225665D02*
X76611642Y-73239951D01*
X76611642Y-73239951D02*
X76625928Y-73254237D01*
X76625928Y-73254237D02*
X76640214Y-73282808D01*
X76640214Y-73282808D02*
X76640214Y-73325665D01*
X76640214Y-73325665D02*
X76625928Y-73354237D01*
X76625928Y-73354237D02*
X76611642Y-73368522D01*
X76611642Y-73368522D02*
X76583071Y-73382808D01*
X76583071Y-73382808D02*
X76468785Y-73382808D01*
X76725928Y-73225665D02*
X76825928Y-73525665D01*
X76825928Y-73525665D02*
X76925928Y-73225665D01*
X77083071Y-73225665D02*
X77111642Y-73225665D01*
X77111642Y-73225665D02*
X77140214Y-73239951D01*
X77140214Y-73239951D02*
X77154500Y-73254237D01*
X77154500Y-73254237D02*
X77168785Y-73282808D01*
X77168785Y-73282808D02*
X77183071Y-73339951D01*
X77183071Y-73339951D02*
X77183071Y-73411380D01*
X77183071Y-73411380D02*
X77168785Y-73468522D01*
X77168785Y-73468522D02*
X77154500Y-73497094D01*
X77154500Y-73497094D02*
X77140214Y-73511380D01*
X77140214Y-73511380D02*
X77111642Y-73525665D01*
X77111642Y-73525665D02*
X77083071Y-73525665D01*
X77083071Y-73525665D02*
X77054500Y-73511380D01*
X77054500Y-73511380D02*
X77040214Y-73497094D01*
X77040214Y-73497094D02*
X77025928Y-73468522D01*
X77025928Y-73468522D02*
X77011642Y-73411380D01*
X77011642Y-73411380D02*
X77011642Y-73339951D01*
X77011642Y-73339951D02*
X77025928Y-73282808D01*
X77025928Y-73282808D02*
X77040214Y-73254237D01*
X77040214Y-73254237D02*
X77054500Y-73239951D01*
X77054500Y-73239951D02*
X77083071Y-73225665D01*
X77468785Y-73525665D02*
X77297356Y-73525665D01*
X77383071Y-73525665D02*
X77383071Y-73225665D01*
X77383071Y-73225665D02*
X77354499Y-73268522D01*
X77354499Y-73268522D02*
X77325928Y-73297094D01*
X77325928Y-73297094D02*
X77297356Y-73311380D01*
D14*
X74666666Y-70154819D02*
X74666666Y-70869104D01*
X74666666Y-70869104D02*
X74619047Y-71011961D01*
X74619047Y-71011961D02*
X74523809Y-71107200D01*
X74523809Y-71107200D02*
X74380952Y-71154819D01*
X74380952Y-71154819D02*
X74285714Y-71154819D01*
X75095238Y-70250057D02*
X75142857Y-70202438D01*
X75142857Y-70202438D02*
X75238095Y-70154819D01*
X75238095Y-70154819D02*
X75476190Y-70154819D01*
X75476190Y-70154819D02*
X75571428Y-70202438D01*
X75571428Y-70202438D02*
X75619047Y-70250057D01*
X75619047Y-70250057D02*
X75666666Y-70345295D01*
X75666666Y-70345295D02*
X75666666Y-70440533D01*
X75666666Y-70440533D02*
X75619047Y-70583390D01*
X75619047Y-70583390D02*
X75047619Y-71154819D01*
X75047619Y-71154819D02*
X75666666Y-71154819D01*
D15*
X71035835Y-57217809D02*
X71321549Y-57217809D01*
X71178692Y-57717809D02*
X71178692Y-57217809D01*
X71583453Y-57479714D02*
X71583453Y-57717809D01*
X71416787Y-57217809D02*
X71583453Y-57479714D01*
X71583453Y-57479714D02*
X71750120Y-57217809D01*
X71916786Y-57717809D02*
X71916786Y-57217809D01*
X71916786Y-57217809D02*
X72107262Y-57217809D01*
X72107262Y-57217809D02*
X72154881Y-57241619D01*
X72154881Y-57241619D02*
X72178691Y-57265428D01*
X72178691Y-57265428D02*
X72202500Y-57313047D01*
X72202500Y-57313047D02*
X72202500Y-57384476D01*
X72202500Y-57384476D02*
X72178691Y-57432095D01*
X72178691Y-57432095D02*
X72154881Y-57455904D01*
X72154881Y-57455904D02*
X72107262Y-57479714D01*
X72107262Y-57479714D02*
X71916786Y-57479714D01*
X72416786Y-57455904D02*
X72583453Y-57455904D01*
X72654881Y-57717809D02*
X72416786Y-57717809D01*
X72416786Y-57717809D02*
X72416786Y-57217809D01*
X72416786Y-57217809D02*
X72654881Y-57217809D01*
X72869167Y-57527333D02*
X73250120Y-57527333D01*
X73773929Y-57670190D02*
X73750120Y-57694000D01*
X73750120Y-57694000D02*
X73678691Y-57717809D01*
X73678691Y-57717809D02*
X73631072Y-57717809D01*
X73631072Y-57717809D02*
X73559644Y-57694000D01*
X73559644Y-57694000D02*
X73512025Y-57646380D01*
X73512025Y-57646380D02*
X73488215Y-57598761D01*
X73488215Y-57598761D02*
X73464406Y-57503523D01*
X73464406Y-57503523D02*
X73464406Y-57432095D01*
X73464406Y-57432095D02*
X73488215Y-57336857D01*
X73488215Y-57336857D02*
X73512025Y-57289238D01*
X73512025Y-57289238D02*
X73559644Y-57241619D01*
X73559644Y-57241619D02*
X73631072Y-57217809D01*
X73631072Y-57217809D02*
X73678691Y-57217809D01*
X73678691Y-57217809D02*
X73750120Y-57241619D01*
X73750120Y-57241619D02*
X73773929Y-57265428D01*
X73988215Y-57527333D02*
X74369168Y-57527333D01*
X74559644Y-57217809D02*
X74869168Y-57217809D01*
X74869168Y-57217809D02*
X74702501Y-57408285D01*
X74702501Y-57408285D02*
X74773930Y-57408285D01*
X74773930Y-57408285D02*
X74821549Y-57432095D01*
X74821549Y-57432095D02*
X74845358Y-57455904D01*
X74845358Y-57455904D02*
X74869168Y-57503523D01*
X74869168Y-57503523D02*
X74869168Y-57622571D01*
X74869168Y-57622571D02*
X74845358Y-57670190D01*
X74845358Y-57670190D02*
X74821549Y-57694000D01*
X74821549Y-57694000D02*
X74773930Y-57717809D01*
X74773930Y-57717809D02*
X74631073Y-57717809D01*
X74631073Y-57717809D02*
X74583454Y-57694000D01*
X74583454Y-57694000D02*
X74559644Y-57670190D01*
X75345358Y-57717809D02*
X75059644Y-57717809D01*
X75202501Y-57717809D02*
X75202501Y-57217809D01*
X75202501Y-57217809D02*
X75154882Y-57289238D01*
X75154882Y-57289238D02*
X75107263Y-57336857D01*
X75107263Y-57336857D02*
X75059644Y-57360666D01*
X75559643Y-57527333D02*
X75940596Y-57527333D01*
X76178691Y-57717809D02*
X76178691Y-57217809D01*
X76178691Y-57217809D02*
X76345358Y-57574952D01*
X76345358Y-57574952D02*
X76512024Y-57217809D01*
X76512024Y-57217809D02*
X76512024Y-57717809D01*
X77012025Y-57717809D02*
X76726311Y-57717809D01*
X76869168Y-57717809D02*
X76869168Y-57217809D01*
X76869168Y-57217809D02*
X76821549Y-57289238D01*
X76821549Y-57289238D02*
X76773930Y-57336857D01*
X76773930Y-57336857D02*
X76726311Y-57360666D01*
X77202501Y-57265428D02*
X77226310Y-57241619D01*
X77226310Y-57241619D02*
X77273929Y-57217809D01*
X77273929Y-57217809D02*
X77392977Y-57217809D01*
X77392977Y-57217809D02*
X77440596Y-57241619D01*
X77440596Y-57241619D02*
X77464405Y-57265428D01*
X77464405Y-57265428D02*
X77488215Y-57313047D01*
X77488215Y-57313047D02*
X77488215Y-57360666D01*
X77488215Y-57360666D02*
X77464405Y-57432095D01*
X77464405Y-57432095D02*
X77178691Y-57717809D01*
X77178691Y-57717809D02*
X77488215Y-57717809D01*
X77583453Y-57765428D02*
X77964405Y-57765428D01*
X78345357Y-57717809D02*
X78059643Y-57717809D01*
X78202500Y-57717809D02*
X78202500Y-57217809D01*
X78202500Y-57217809D02*
X78154881Y-57289238D01*
X78154881Y-57289238D02*
X78107262Y-57336857D01*
X78107262Y-57336857D02*
X78059643Y-57360666D01*
X78512023Y-57217809D02*
X78821547Y-57217809D01*
X78821547Y-57217809D02*
X78654880Y-57408285D01*
X78654880Y-57408285D02*
X78726309Y-57408285D01*
X78726309Y-57408285D02*
X78773928Y-57432095D01*
X78773928Y-57432095D02*
X78797737Y-57455904D01*
X78797737Y-57455904D02*
X78821547Y-57503523D01*
X78821547Y-57503523D02*
X78821547Y-57622571D01*
X78821547Y-57622571D02*
X78797737Y-57670190D01*
X78797737Y-57670190D02*
X78773928Y-57694000D01*
X78773928Y-57694000D02*
X78726309Y-57717809D01*
X78726309Y-57717809D02*
X78583452Y-57717809D01*
X78583452Y-57717809D02*
X78535833Y-57694000D01*
X78535833Y-57694000D02*
X78512023Y-57670190D01*
X72276309Y-61067809D02*
X72276309Y-60567809D01*
X72562023Y-61067809D02*
X72347738Y-60782095D01*
X72562023Y-60567809D02*
X72276309Y-60853523D01*
X72776309Y-60805904D02*
X72942976Y-60805904D01*
X73014404Y-61067809D02*
X72776309Y-61067809D01*
X72776309Y-61067809D02*
X72776309Y-60567809D01*
X72776309Y-60567809D02*
X73014404Y-60567809D01*
X73228690Y-60805904D02*
X73395357Y-60805904D01*
X73466785Y-61067809D02*
X73228690Y-61067809D01*
X73228690Y-61067809D02*
X73228690Y-60567809D01*
X73228690Y-60567809D02*
X73466785Y-60567809D01*
X73681071Y-61067809D02*
X73681071Y-60567809D01*
X73681071Y-60567809D02*
X73871547Y-60567809D01*
X73871547Y-60567809D02*
X73919166Y-60591619D01*
X73919166Y-60591619D02*
X73942976Y-60615428D01*
X73942976Y-60615428D02*
X73966785Y-60663047D01*
X73966785Y-60663047D02*
X73966785Y-60734476D01*
X73966785Y-60734476D02*
X73942976Y-60782095D01*
X73942976Y-60782095D02*
X73919166Y-60805904D01*
X73919166Y-60805904D02*
X73871547Y-60829714D01*
X73871547Y-60829714D02*
X73681071Y-60829714D01*
X74276309Y-60567809D02*
X74371547Y-60567809D01*
X74371547Y-60567809D02*
X74419166Y-60591619D01*
X74419166Y-60591619D02*
X74466785Y-60639238D01*
X74466785Y-60639238D02*
X74490595Y-60734476D01*
X74490595Y-60734476D02*
X74490595Y-60901142D01*
X74490595Y-60901142D02*
X74466785Y-60996380D01*
X74466785Y-60996380D02*
X74419166Y-61044000D01*
X74419166Y-61044000D02*
X74371547Y-61067809D01*
X74371547Y-61067809D02*
X74276309Y-61067809D01*
X74276309Y-61067809D02*
X74228690Y-61044000D01*
X74228690Y-61044000D02*
X74181071Y-60996380D01*
X74181071Y-60996380D02*
X74157262Y-60901142D01*
X74157262Y-60901142D02*
X74157262Y-60734476D01*
X74157262Y-60734476D02*
X74181071Y-60639238D01*
X74181071Y-60639238D02*
X74228690Y-60591619D01*
X74228690Y-60591619D02*
X74276309Y-60567809D01*
X74704881Y-60567809D02*
X74704881Y-60972571D01*
X74704881Y-60972571D02*
X74728691Y-61020190D01*
X74728691Y-61020190D02*
X74752500Y-61044000D01*
X74752500Y-61044000D02*
X74800119Y-61067809D01*
X74800119Y-61067809D02*
X74895357Y-61067809D01*
X74895357Y-61067809D02*
X74942976Y-61044000D01*
X74942976Y-61044000D02*
X74966786Y-61020190D01*
X74966786Y-61020190D02*
X74990595Y-60972571D01*
X74990595Y-60972571D02*
X74990595Y-60567809D01*
X75157263Y-60567809D02*
X75442977Y-60567809D01*
X75300120Y-61067809D02*
X75300120Y-60567809D01*
X75942976Y-60567809D02*
X76276309Y-60567809D01*
X76276309Y-60567809D02*
X75942976Y-61067809D01*
X75942976Y-61067809D02*
X76276309Y-61067809D01*
X76562023Y-60567809D02*
X76657261Y-60567809D01*
X76657261Y-60567809D02*
X76704880Y-60591619D01*
X76704880Y-60591619D02*
X76752499Y-60639238D01*
X76752499Y-60639238D02*
X76776309Y-60734476D01*
X76776309Y-60734476D02*
X76776309Y-60901142D01*
X76776309Y-60901142D02*
X76752499Y-60996380D01*
X76752499Y-60996380D02*
X76704880Y-61044000D01*
X76704880Y-61044000D02*
X76657261Y-61067809D01*
X76657261Y-61067809D02*
X76562023Y-61067809D01*
X76562023Y-61067809D02*
X76514404Y-61044000D01*
X76514404Y-61044000D02*
X76466785Y-60996380D01*
X76466785Y-60996380D02*
X76442976Y-60901142D01*
X76442976Y-60901142D02*
X76442976Y-60734476D01*
X76442976Y-60734476D02*
X76466785Y-60639238D01*
X76466785Y-60639238D02*
X76514404Y-60591619D01*
X76514404Y-60591619D02*
X76562023Y-60567809D01*
X76990595Y-61067809D02*
X76990595Y-60567809D01*
X76990595Y-60567809D02*
X77276309Y-61067809D01*
X77276309Y-61067809D02*
X77276309Y-60567809D01*
X77514405Y-60805904D02*
X77681072Y-60805904D01*
X77752500Y-61067809D02*
X77514405Y-61067809D01*
X77514405Y-61067809D02*
X77514405Y-60567809D01*
X77514405Y-60567809D02*
X77752500Y-60567809D01*
D11*
X73327309Y-65084203D02*
X73472452Y-65084203D01*
X73399880Y-65338203D02*
X73399880Y-65084203D01*
X73557119Y-65338203D02*
X73557119Y-65084203D01*
X73557119Y-65084203D02*
X73653881Y-65084203D01*
X73653881Y-65084203D02*
X73678071Y-65096298D01*
X73678071Y-65096298D02*
X73690166Y-65108393D01*
X73690166Y-65108393D02*
X73702262Y-65132584D01*
X73702262Y-65132584D02*
X73702262Y-65168869D01*
X73702262Y-65168869D02*
X73690166Y-65193060D01*
X73690166Y-65193060D02*
X73678071Y-65205155D01*
X73678071Y-65205155D02*
X73653881Y-65217250D01*
X73653881Y-65217250D02*
X73557119Y-65217250D01*
X73811119Y-65338203D02*
X73811119Y-65084203D01*
X73811119Y-65084203D02*
X73871595Y-65084203D01*
X73871595Y-65084203D02*
X73907881Y-65096298D01*
X73907881Y-65096298D02*
X73932071Y-65120488D01*
X73932071Y-65120488D02*
X73944166Y-65144679D01*
X73944166Y-65144679D02*
X73956262Y-65193060D01*
X73956262Y-65193060D02*
X73956262Y-65229346D01*
X73956262Y-65229346D02*
X73944166Y-65277727D01*
X73944166Y-65277727D02*
X73932071Y-65301917D01*
X73932071Y-65301917D02*
X73907881Y-65326108D01*
X73907881Y-65326108D02*
X73871595Y-65338203D01*
X73871595Y-65338203D02*
X73811119Y-65338203D01*
X74173976Y-65168869D02*
X74173976Y-65338203D01*
X74113500Y-65072108D02*
X74053023Y-65253536D01*
X74053023Y-65253536D02*
X74210262Y-65253536D01*
X74307024Y-65205155D02*
X74391690Y-65205155D01*
X74427976Y-65338203D02*
X74307024Y-65338203D01*
X74307024Y-65338203D02*
X74307024Y-65084203D01*
X74307024Y-65084203D02*
X74427976Y-65084203D01*
X74585215Y-65084203D02*
X74609405Y-65084203D01*
X74609405Y-65084203D02*
X74633596Y-65096298D01*
X74633596Y-65096298D02*
X74645691Y-65108393D01*
X74645691Y-65108393D02*
X74657786Y-65132584D01*
X74657786Y-65132584D02*
X74669881Y-65180965D01*
X74669881Y-65180965D02*
X74669881Y-65241441D01*
X74669881Y-65241441D02*
X74657786Y-65289822D01*
X74657786Y-65289822D02*
X74645691Y-65314012D01*
X74645691Y-65314012D02*
X74633596Y-65326108D01*
X74633596Y-65326108D02*
X74609405Y-65338203D01*
X74609405Y-65338203D02*
X74585215Y-65338203D01*
X74585215Y-65338203D02*
X74561024Y-65326108D01*
X74561024Y-65326108D02*
X74548929Y-65314012D01*
X74548929Y-65314012D02*
X74536834Y-65289822D01*
X74536834Y-65289822D02*
X74524738Y-65241441D01*
X74524738Y-65241441D02*
X74524738Y-65180965D01*
X74524738Y-65180965D02*
X74536834Y-65132584D01*
X74536834Y-65132584D02*
X74548929Y-65108393D01*
X74548929Y-65108393D02*
X74561024Y-65096298D01*
X74561024Y-65096298D02*
X74585215Y-65084203D01*
X74899691Y-65084203D02*
X74778739Y-65084203D01*
X74778739Y-65084203D02*
X74766643Y-65205155D01*
X74766643Y-65205155D02*
X74778739Y-65193060D01*
X74778739Y-65193060D02*
X74802929Y-65180965D01*
X74802929Y-65180965D02*
X74863405Y-65180965D01*
X74863405Y-65180965D02*
X74887596Y-65193060D01*
X74887596Y-65193060D02*
X74899691Y-65205155D01*
X74899691Y-65205155D02*
X74911786Y-65229346D01*
X74911786Y-65229346D02*
X74911786Y-65289822D01*
X74911786Y-65289822D02*
X74899691Y-65314012D01*
X74899691Y-65314012D02*
X74887596Y-65326108D01*
X74887596Y-65326108D02*
X74863405Y-65338203D01*
X74863405Y-65338203D02*
X74802929Y-65338203D01*
X74802929Y-65338203D02*
X74778739Y-65326108D01*
X74778739Y-65326108D02*
X74766643Y-65314012D01*
X75020644Y-65084203D02*
X75020644Y-65289822D01*
X75020644Y-65289822D02*
X75032739Y-65314012D01*
X75032739Y-65314012D02*
X75044834Y-65326108D01*
X75044834Y-65326108D02*
X75069025Y-65338203D01*
X75069025Y-65338203D02*
X75117406Y-65338203D01*
X75117406Y-65338203D02*
X75141596Y-65326108D01*
X75141596Y-65326108D02*
X75153691Y-65314012D01*
X75153691Y-65314012D02*
X75165787Y-65289822D01*
X75165787Y-65289822D02*
X75165787Y-65084203D01*
X75335120Y-65084203D02*
X75359310Y-65084203D01*
X75359310Y-65084203D02*
X75383501Y-65096298D01*
X75383501Y-65096298D02*
X75395596Y-65108393D01*
X75395596Y-65108393D02*
X75407691Y-65132584D01*
X75407691Y-65132584D02*
X75419786Y-65180965D01*
X75419786Y-65180965D02*
X75419786Y-65241441D01*
X75419786Y-65241441D02*
X75407691Y-65289822D01*
X75407691Y-65289822D02*
X75395596Y-65314012D01*
X75395596Y-65314012D02*
X75383501Y-65326108D01*
X75383501Y-65326108D02*
X75359310Y-65338203D01*
X75359310Y-65338203D02*
X75335120Y-65338203D01*
X75335120Y-65338203D02*
X75310929Y-65326108D01*
X75310929Y-65326108D02*
X75298834Y-65314012D01*
X75298834Y-65314012D02*
X75286739Y-65289822D01*
X75286739Y-65289822D02*
X75274643Y-65241441D01*
X75274643Y-65241441D02*
X75274643Y-65180965D01*
X75274643Y-65180965D02*
X75286739Y-65132584D01*
X75286739Y-65132584D02*
X75298834Y-65108393D01*
X75298834Y-65108393D02*
X75310929Y-65096298D01*
X75310929Y-65096298D02*
X75335120Y-65084203D01*
X75637501Y-65084203D02*
X75589120Y-65084203D01*
X75589120Y-65084203D02*
X75564929Y-65096298D01*
X75564929Y-65096298D02*
X75552834Y-65108393D01*
X75552834Y-65108393D02*
X75528644Y-65144679D01*
X75528644Y-65144679D02*
X75516548Y-65193060D01*
X75516548Y-65193060D02*
X75516548Y-65289822D01*
X75516548Y-65289822D02*
X75528644Y-65314012D01*
X75528644Y-65314012D02*
X75540739Y-65326108D01*
X75540739Y-65326108D02*
X75564929Y-65338203D01*
X75564929Y-65338203D02*
X75613310Y-65338203D01*
X75613310Y-65338203D02*
X75637501Y-65326108D01*
X75637501Y-65326108D02*
X75649596Y-65314012D01*
X75649596Y-65314012D02*
X75661691Y-65289822D01*
X75661691Y-65289822D02*
X75661691Y-65229346D01*
X75661691Y-65229346D02*
X75649596Y-65205155D01*
X75649596Y-65205155D02*
X75637501Y-65193060D01*
X75637501Y-65193060D02*
X75613310Y-65180965D01*
X75613310Y-65180965D02*
X75564929Y-65180965D01*
X75564929Y-65180965D02*
X75540739Y-65193060D01*
X75540739Y-65193060D02*
X75528644Y-65205155D01*
X75528644Y-65205155D02*
X75516548Y-65229346D01*
X75770549Y-65338203D02*
X75770549Y-65084203D01*
X75770549Y-65084203D02*
X75831025Y-65084203D01*
X75831025Y-65084203D02*
X75867311Y-65096298D01*
X75867311Y-65096298D02*
X75891501Y-65120488D01*
X75891501Y-65120488D02*
X75903596Y-65144679D01*
X75903596Y-65144679D02*
X75915692Y-65193060D01*
X75915692Y-65193060D02*
X75915692Y-65229346D01*
X75915692Y-65229346D02*
X75903596Y-65277727D01*
X75903596Y-65277727D02*
X75891501Y-65301917D01*
X75891501Y-65301917D02*
X75867311Y-65326108D01*
X75867311Y-65326108D02*
X75831025Y-65338203D01*
X75831025Y-65338203D02*
X75770549Y-65338203D01*
X76193882Y-65362393D02*
X76169692Y-65350298D01*
X76169692Y-65350298D02*
X76145501Y-65326108D01*
X76145501Y-65326108D02*
X76109215Y-65289822D01*
X76109215Y-65289822D02*
X76085025Y-65277727D01*
X76085025Y-65277727D02*
X76060834Y-65277727D01*
X76072930Y-65338203D02*
X76048739Y-65326108D01*
X76048739Y-65326108D02*
X76024549Y-65301917D01*
X76024549Y-65301917D02*
X76012453Y-65253536D01*
X76012453Y-65253536D02*
X76012453Y-65168869D01*
X76012453Y-65168869D02*
X76024549Y-65120488D01*
X76024549Y-65120488D02*
X76048739Y-65096298D01*
X76048739Y-65096298D02*
X76072930Y-65084203D01*
X76072930Y-65084203D02*
X76121311Y-65084203D01*
X76121311Y-65084203D02*
X76145501Y-65096298D01*
X76145501Y-65096298D02*
X76169692Y-65120488D01*
X76169692Y-65120488D02*
X76181787Y-65168869D01*
X76181787Y-65168869D02*
X76181787Y-65253536D01*
X76181787Y-65253536D02*
X76169692Y-65301917D01*
X76169692Y-65301917D02*
X76145501Y-65326108D01*
X76145501Y-65326108D02*
X76121311Y-65338203D01*
X76121311Y-65338203D02*
X76072930Y-65338203D01*
X76278548Y-65265631D02*
X76399501Y-65265631D01*
X76254358Y-65338203D02*
X76339025Y-65084203D01*
X76339025Y-65084203D02*
X76423691Y-65338203D01*
X76653501Y-65338203D02*
X76568834Y-65217250D01*
X76508358Y-65338203D02*
X76508358Y-65084203D01*
X76508358Y-65084203D02*
X76605120Y-65084203D01*
X76605120Y-65084203D02*
X76629310Y-65096298D01*
X76629310Y-65096298D02*
X76641405Y-65108393D01*
X76641405Y-65108393D02*
X76653501Y-65132584D01*
X76653501Y-65132584D02*
X76653501Y-65168869D01*
X76653501Y-65168869D02*
X76641405Y-65193060D01*
X76641405Y-65193060D02*
X76629310Y-65205155D01*
X76629310Y-65205155D02*
X76605120Y-65217250D01*
X76605120Y-65217250D02*
X76508358Y-65217250D01*
D16*
X74583452Y-65725640D02*
X74583452Y-66170878D01*
X74583452Y-66170878D02*
X74609642Y-66223259D01*
X74609642Y-66223259D02*
X74635833Y-66249450D01*
X74635833Y-66249450D02*
X74688214Y-66275640D01*
X74688214Y-66275640D02*
X74792976Y-66275640D01*
X74792976Y-66275640D02*
X74845357Y-66249450D01*
X74845357Y-66249450D02*
X74871547Y-66223259D01*
X74871547Y-66223259D02*
X74897738Y-66170878D01*
X74897738Y-66170878D02*
X74897738Y-65725640D01*
X75447737Y-66275640D02*
X75133451Y-66275640D01*
X75290594Y-66275640D02*
X75290594Y-65725640D01*
X75290594Y-65725640D02*
X75238213Y-65804211D01*
X75238213Y-65804211D02*
X75185832Y-65856592D01*
X75185832Y-65856592D02*
X75133451Y-65882783D01*
D17*
X67642596Y-68451840D02*
X67699739Y-68470887D01*
X67699739Y-68470887D02*
X67794977Y-68470887D01*
X67794977Y-68470887D02*
X67833072Y-68451840D01*
X67833072Y-68451840D02*
X67852120Y-68432792D01*
X67852120Y-68432792D02*
X67871167Y-68394697D01*
X67871167Y-68394697D02*
X67871167Y-68356601D01*
X67871167Y-68356601D02*
X67852120Y-68318506D01*
X67852120Y-68318506D02*
X67833072Y-68299459D01*
X67833072Y-68299459D02*
X67794977Y-68280411D01*
X67794977Y-68280411D02*
X67718786Y-68261363D01*
X67718786Y-68261363D02*
X67680691Y-68242316D01*
X67680691Y-68242316D02*
X67661644Y-68223268D01*
X67661644Y-68223268D02*
X67642596Y-68185173D01*
X67642596Y-68185173D02*
X67642596Y-68147078D01*
X67642596Y-68147078D02*
X67661644Y-68108982D01*
X67661644Y-68108982D02*
X67680691Y-68089935D01*
X67680691Y-68089935D02*
X67718786Y-68070887D01*
X67718786Y-68070887D02*
X67814025Y-68070887D01*
X67814025Y-68070887D02*
X67871167Y-68089935D01*
X68042596Y-68470887D02*
X68042596Y-68070887D01*
X68042596Y-68070887D02*
X68175929Y-68356601D01*
X68175929Y-68356601D02*
X68309262Y-68070887D01*
X68309262Y-68070887D02*
X68309262Y-68470887D01*
X68633072Y-68261363D02*
X68499739Y-68261363D01*
X68499739Y-68470887D02*
X68499739Y-68070887D01*
X68499739Y-68070887D02*
X68690215Y-68070887D01*
X69014024Y-68070887D02*
X68937834Y-68070887D01*
X68937834Y-68070887D02*
X68899738Y-68089935D01*
X68899738Y-68089935D02*
X68880691Y-68108982D01*
X68880691Y-68108982D02*
X68842596Y-68166125D01*
X68842596Y-68166125D02*
X68823548Y-68242316D01*
X68823548Y-68242316D02*
X68823548Y-68394697D01*
X68823548Y-68394697D02*
X68842596Y-68432792D01*
X68842596Y-68432792D02*
X68861643Y-68451840D01*
X68861643Y-68451840D02*
X68899738Y-68470887D01*
X68899738Y-68470887D02*
X68975929Y-68470887D01*
X68975929Y-68470887D02*
X69014024Y-68451840D01*
X69014024Y-68451840D02*
X69033072Y-68432792D01*
X69033072Y-68432792D02*
X69052119Y-68394697D01*
X69052119Y-68394697D02*
X69052119Y-68299459D01*
X69052119Y-68299459D02*
X69033072Y-68261363D01*
X69033072Y-68261363D02*
X69014024Y-68242316D01*
X69014024Y-68242316D02*
X68975929Y-68223268D01*
X68975929Y-68223268D02*
X68899738Y-68223268D01*
X68899738Y-68223268D02*
X68861643Y-68242316D01*
X68861643Y-68242316D02*
X68842596Y-68261363D01*
X68842596Y-68261363D02*
X68823548Y-68299459D01*
X69223548Y-68432792D02*
X69242595Y-68451840D01*
X69242595Y-68451840D02*
X69223548Y-68470887D01*
X69223548Y-68470887D02*
X69204500Y-68451840D01*
X69204500Y-68451840D02*
X69223548Y-68432792D01*
X69223548Y-68432792D02*
X69223548Y-68470887D01*
X69490214Y-68070887D02*
X69528309Y-68070887D01*
X69528309Y-68070887D02*
X69566405Y-68089935D01*
X69566405Y-68089935D02*
X69585452Y-68108982D01*
X69585452Y-68108982D02*
X69604500Y-68147078D01*
X69604500Y-68147078D02*
X69623547Y-68223268D01*
X69623547Y-68223268D02*
X69623547Y-68318506D01*
X69623547Y-68318506D02*
X69604500Y-68394697D01*
X69604500Y-68394697D02*
X69585452Y-68432792D01*
X69585452Y-68432792D02*
X69566405Y-68451840D01*
X69566405Y-68451840D02*
X69528309Y-68470887D01*
X69528309Y-68470887D02*
X69490214Y-68470887D01*
X69490214Y-68470887D02*
X69452119Y-68451840D01*
X69452119Y-68451840D02*
X69433071Y-68432792D01*
X69433071Y-68432792D02*
X69414024Y-68394697D01*
X69414024Y-68394697D02*
X69394976Y-68318506D01*
X69394976Y-68318506D02*
X69394976Y-68223268D01*
X69394976Y-68223268D02*
X69414024Y-68147078D01*
X69414024Y-68147078D02*
X69433071Y-68108982D01*
X69433071Y-68108982D02*
X69452119Y-68089935D01*
X69452119Y-68089935D02*
X69490214Y-68070887D01*
X69775928Y-68356601D02*
X69966404Y-68356601D01*
X69737833Y-68470887D02*
X69871166Y-68070887D01*
X69871166Y-68070887D02*
X70004499Y-68470887D01*
X68509262Y-65670887D02*
X68509262Y-65270887D01*
X68509262Y-65270887D02*
X68604500Y-65270887D01*
X68604500Y-65270887D02*
X68661643Y-65289935D01*
X68661643Y-65289935D02*
X68699738Y-65328030D01*
X68699738Y-65328030D02*
X68718785Y-65366125D01*
X68718785Y-65366125D02*
X68737833Y-65442316D01*
X68737833Y-65442316D02*
X68737833Y-65499459D01*
X68737833Y-65499459D02*
X68718785Y-65575649D01*
X68718785Y-65575649D02*
X68699738Y-65613744D01*
X68699738Y-65613744D02*
X68661643Y-65651840D01*
X68661643Y-65651840D02*
X68604500Y-65670887D01*
X68604500Y-65670887D02*
X68509262Y-65670887D01*
X69118785Y-65670887D02*
X68890214Y-65670887D01*
X69004500Y-65670887D02*
X69004500Y-65270887D01*
X69004500Y-65270887D02*
X68966404Y-65328030D01*
X68966404Y-65328030D02*
X68928309Y-65366125D01*
X68928309Y-65366125D02*
X68890214Y-65385173D01*
D16*
X67090500Y-64807000D02*
X67090500Y-61607000D01*
X68690500Y-64807000D02*
X67090500Y-64807000D01*
X67090500Y-61607000D02*
X68690500Y-61607000D01*
X68690500Y-61607000D02*
X68690500Y-64807000D01*
X82032500Y-66518000D02*
X82032500Y-65468000D01*
X82572500Y-66518000D02*
X82032500Y-66518000D01*
X82032500Y-65468000D02*
X82572500Y-65468000D01*
X82572500Y-65468000D02*
X82572500Y-66518000D01*
X80432500Y-66518000D02*
X80432500Y-65468000D01*
X80972500Y-66518000D02*
X80432500Y-66518000D01*
X80432500Y-65468000D02*
X80972500Y-65468000D01*
X80972500Y-65468000D02*
X80972500Y-66518000D01*
X78304500Y-68163000D02*
X78304500Y-72663000D01*
X76954500Y-72663000D02*
X78304500Y-72663000D01*
X76654500Y-72163000D02*
X76954500Y-72663000D01*
X73354500Y-72163000D02*
X76654500Y-72163000D01*
X73204500Y-68870107D02*
X73704500Y-68163000D01*
X73054500Y-72663000D02*
X73354500Y-72163000D01*
X72704500Y-68163000D02*
X73204500Y-68870107D01*
X71704500Y-72663000D02*
X73054500Y-72663000D01*
X71704500Y-68163000D02*
X78304500Y-68163000D01*
X71704500Y-68163000D02*
X71704500Y-72663000D01*
D12*
X70002500Y-58043000D02*
X70002500Y-63443000D01*
X70002500Y-63443000D02*
X80002500Y-63443000D01*
D18*
X71302500Y-58043000D02*
X70002500Y-59343000D01*
X71902500Y-61443000D02*
X70002500Y-63343000D01*
X72302500Y-58043000D02*
X70002500Y-60343000D01*
X72902500Y-61443000D02*
X70902500Y-63443000D01*
X73302500Y-58043000D02*
X70002500Y-61343000D01*
X73902500Y-61443000D02*
X71902500Y-63443000D01*
X74302500Y-58043000D02*
X70002500Y-62343000D01*
X74902500Y-61443000D02*
X72902500Y-63443000D01*
X75302500Y-58043000D02*
X72902500Y-60343000D01*
X75902500Y-61443000D02*
X73902500Y-63443000D01*
X76302500Y-58043000D02*
X73902500Y-60343000D01*
X76902500Y-61443000D02*
X74902500Y-63443000D01*
X77302500Y-58043000D02*
X74902500Y-60343000D01*
X78302500Y-58043000D02*
X75902500Y-60343000D01*
X79302500Y-58043000D02*
X76902500Y-60343000D01*
D12*
X80002500Y-58043000D02*
X70002500Y-58043000D01*
D18*
X80002500Y-58343000D02*
X77902500Y-60343000D01*
X80002500Y-59343000D02*
X75902500Y-63443000D01*
X80002500Y-60343000D02*
X76902500Y-63443000D01*
X80002500Y-61343000D02*
X77902500Y-63443000D01*
X80002500Y-62343000D02*
X78902500Y-63443000D01*
D12*
X80002500Y-63443000D02*
X80002500Y-58043000D01*
D16*
X74002500Y-66526400D02*
X76252500Y-66526400D01*
X76252500Y-66526400D02*
X76252500Y-65526400D01*
X73752500Y-66276400D02*
X74002500Y-66526400D01*
X73752500Y-65526400D02*
X73752500Y-66276400D01*
X73752500Y-65526400D02*
X76252500Y-65526400D01*
X70204500Y-67790000D02*
X67404500Y-67790000D01*
X70204500Y-65990000D02*
X70204500Y-67790000D01*
X69054500Y-67290000D02*
X68454500Y-66890000D01*
X69054500Y-66890000D02*
X69554500Y-66890000D01*
X69054500Y-66490000D02*
X69054500Y-67290000D01*
X68454500Y-66890000D02*
X69054500Y-66490000D01*
X68454500Y-66890000D02*
X68454500Y-67440000D01*
X68454500Y-66890000D02*
X68454500Y-66340000D01*
X68054500Y-66890000D02*
X68454500Y-66890000D01*
X67404500Y-67790000D02*
X67404500Y-65990000D01*
X67404500Y-65990000D02*
X70204500Y-65990000D01*
D19*
D16*
X68515500Y-63982000D02*
X68611171Y-64001030D01*
X68692277Y-64055223D01*
X68746470Y-64136329D01*
X68765500Y-64232000D01*
X68765500Y-64982000D01*
X68746470Y-65077671D01*
X68692277Y-65158777D01*
X68611171Y-65212970D01*
X68515500Y-65232000D01*
X67265500Y-65232000D01*
X67169829Y-65212970D01*
X67088723Y-65158777D01*
X67034530Y-65077671D01*
X67015500Y-64982000D01*
X67015500Y-64232000D01*
X67034530Y-64136329D01*
X67088723Y-64055223D01*
X67169829Y-64001030D01*
X67265500Y-63982000D01*
X68515500Y-63982000D01*
D19*
D16*
X68515500Y-61182000D02*
X68611171Y-61201030D01*
X68692277Y-61255223D01*
X68746470Y-61336329D01*
X68765500Y-61432000D01*
X68765500Y-62182000D01*
X68746470Y-62277671D01*
X68692277Y-62358777D01*
X68611171Y-62412970D01*
X68515500Y-62432000D01*
X67265500Y-62432000D01*
X67169829Y-62412970D01*
X67088723Y-62358777D01*
X67034530Y-62277671D01*
X67015500Y-62182000D01*
X67015500Y-61432000D01*
X67034530Y-61336329D01*
X67088723Y-61255223D01*
X67169829Y-61201030D01*
X67265500Y-61182000D01*
X68515500Y-61182000D01*
X69754500Y-71043000D02*
G75*
G02*
X66254500Y-71043000I-1750000J0D01*
G01*
X66254500Y-71043000D02*
G75*
G02*
X69754500Y-71043000I1750000J0D01*
G01*
D19*
D16*
X82487500Y-66233000D02*
X82539162Y-66243276D01*
X82582959Y-66272541D01*
X82612224Y-66316338D01*
X82622500Y-66368000D01*
X82622500Y-66638000D01*
X82612224Y-66689662D01*
X82582959Y-66733459D01*
X82539162Y-66762724D01*
X82487500Y-66773000D01*
X82117500Y-66773000D01*
X82065838Y-66762724D01*
X82022041Y-66733459D01*
X81992776Y-66689662D01*
X81982500Y-66638000D01*
X81982500Y-66368000D01*
X81992776Y-66316338D01*
X82022041Y-66272541D01*
X82065838Y-66243276D01*
X82117500Y-66233000D01*
X82487500Y-66233000D01*
D19*
D16*
X82487500Y-65213000D02*
X82539162Y-65223276D01*
X82582959Y-65252541D01*
X82612224Y-65296338D01*
X82622500Y-65348000D01*
X82622500Y-65618000D01*
X82612224Y-65669662D01*
X82582959Y-65713459D01*
X82539162Y-65742724D01*
X82487500Y-65753000D01*
X82117500Y-65753000D01*
X82065838Y-65742724D01*
X82022041Y-65713459D01*
X81992776Y-65669662D01*
X81982500Y-65618000D01*
X81982500Y-65348000D01*
X81992776Y-65296338D01*
X82022041Y-65252541D01*
X82065838Y-65223276D01*
X82117500Y-65213000D01*
X82487500Y-65213000D01*
X69754500Y-58543000D02*
G75*
G02*
X66254500Y-58543000I-1750000J0D01*
G01*
X66254500Y-58543000D02*
G75*
G02*
X69754500Y-58543000I1750000J0D01*
G01*
D19*
D16*
X80887500Y-66233000D02*
X80939162Y-66243276D01*
X80982959Y-66272541D01*
X81012224Y-66316338D01*
X81022500Y-66368000D01*
X81022500Y-66638000D01*
X81012224Y-66689662D01*
X80982959Y-66733459D01*
X80939162Y-66762724D01*
X80887500Y-66773000D01*
X80517500Y-66773000D01*
X80465838Y-66762724D01*
X80422041Y-66733459D01*
X80392776Y-66689662D01*
X80382500Y-66638000D01*
X80382500Y-66368000D01*
X80392776Y-66316338D01*
X80422041Y-66272541D01*
X80465838Y-66243276D01*
X80517500Y-66233000D01*
X80887500Y-66233000D01*
D19*
D16*
X80887500Y-65213000D02*
X80939162Y-65223276D01*
X80982959Y-65252541D01*
X81012224Y-65296338D01*
X81022500Y-65348000D01*
X81022500Y-65618000D01*
X81012224Y-65669662D01*
X80982959Y-65713459D01*
X80939162Y-65742724D01*
X80887500Y-65753000D01*
X80517500Y-65753000D01*
X80465838Y-65742724D01*
X80422041Y-65713459D01*
X80392776Y-65669662D01*
X80382500Y-65618000D01*
X80382500Y-65348000D01*
X80392776Y-65296338D01*
X80422041Y-65252541D01*
X80465838Y-65223276D01*
X80517500Y-65213000D01*
X80887500Y-65213000D01*
X83754500Y-58543000D02*
G75*
G02*
X80254500Y-58543000I-1750000J0D01*
G01*
X80254500Y-58543000D02*
G75*
G02*
X83754500Y-58543000I1750000J0D01*
G01*
X78254500Y-70943000D02*
G75*
G02*
X77654500Y-70943000I-300000J0D01*
G01*
X77654500Y-70943000D02*
G75*
G02*
X78254500Y-70943000I300000J0D01*
G01*
D19*
D16*
X76854500Y-70743000D02*
X76862112Y-70704732D01*
X76883789Y-70672289D01*
X76916232Y-70650612D01*
X76954500Y-70643000D01*
X78204500Y-70643000D01*
X78242768Y-70650612D01*
X78275211Y-70672289D01*
X78296888Y-70704732D01*
X78304500Y-70743000D01*
X78304500Y-72543000D01*
X78296888Y-72581268D01*
X78275211Y-72613711D01*
X78242768Y-72635388D01*
X78204500Y-72643000D01*
X76954500Y-72643000D01*
X76916232Y-72635388D01*
X76883789Y-72613711D01*
X76862112Y-72581268D01*
X76854500Y-72543000D01*
X76854500Y-70743000D01*
X77504500Y-72343000D02*
G75*
G02*
X76904500Y-72343000I-300000J0D01*
G01*
X76904500Y-72343000D02*
G75*
G02*
X77504500Y-72343000I300000J0D01*
G01*
X77504500Y-71643000D02*
G75*
G02*
X76904500Y-71643000I-300000J0D01*
G01*
X76904500Y-71643000D02*
G75*
G02*
X77504500Y-71643000I300000J0D01*
G01*
X77504500Y-70943000D02*
G75*
G02*
X76904500Y-70943000I-300000J0D01*
G01*
X76904500Y-70943000D02*
G75*
G02*
X77504500Y-70943000I300000J0D01*
G01*
X73104500Y-72343000D02*
G75*
G02*
X72504500Y-72343000I-300000J0D01*
G01*
X72504500Y-72343000D02*
G75*
G02*
X73104500Y-72343000I300000J0D01*
G01*
X73104500Y-71643000D02*
G75*
G02*
X72504500Y-71643000I-300000J0D01*
G01*
X72504500Y-71643000D02*
G75*
G02*
X73104500Y-71643000I300000J0D01*
G01*
X73104500Y-70943000D02*
G75*
G02*
X72504500Y-70943000I-300000J0D01*
G01*
X72504500Y-70943000D02*
G75*
G02*
X73104500Y-70943000I300000J0D01*
G01*
D19*
D16*
X71704500Y-70743000D02*
X71712112Y-70704732D01*
X71733789Y-70672289D01*
X71766232Y-70650612D01*
X71804500Y-70643000D01*
X73054500Y-70643000D01*
X73092768Y-70650612D01*
X73125211Y-70672289D01*
X73146888Y-70704732D01*
X73154500Y-70743000D01*
X73154500Y-72543000D01*
X73146888Y-72581268D01*
X73125211Y-72613711D01*
X73092768Y-72635388D01*
X73054500Y-72643000D01*
X71804500Y-72643000D01*
X71766232Y-72635388D01*
X71733789Y-72613711D01*
X71712112Y-72581268D01*
X71704500Y-72543000D01*
X71704500Y-70743000D01*
X72304500Y-70943000D02*
G75*
G02*
X71704500Y-70943000I-300000J0D01*
G01*
X71704500Y-70943000D02*
G75*
G02*
X72304500Y-70943000I300000J0D01*
G01*
D19*
D16*
X76304500Y-67709667D02*
X76317187Y-67645886D01*
X76353316Y-67591816D01*
X76407386Y-67555687D01*
X76471168Y-67543001D01*
X77137833Y-67543000D01*
X77201614Y-67555687D01*
X77255684Y-67591816D01*
X77291813Y-67645886D01*
X77304499Y-67709668D01*
X77304500Y-68676333D01*
X77291813Y-68740114D01*
X77255684Y-68794184D01*
X77201614Y-68830313D01*
X77137832Y-68842999D01*
X76471167Y-68843000D01*
X76407386Y-68830313D01*
X76353316Y-68794184D01*
X76317187Y-68740114D01*
X76304501Y-68676332D01*
X76304500Y-67709667D01*
D19*
D16*
X75104500Y-67709667D02*
X75117187Y-67645886D01*
X75153316Y-67591816D01*
X75207386Y-67555687D01*
X75271168Y-67543001D01*
X75937833Y-67543000D01*
X76001614Y-67555687D01*
X76055684Y-67591816D01*
X76091813Y-67645886D01*
X76104499Y-67709668D01*
X76104500Y-68676333D01*
X76091813Y-68740114D01*
X76055684Y-68794184D01*
X76001614Y-68830313D01*
X75937832Y-68842999D01*
X75271167Y-68843000D01*
X75207386Y-68830313D01*
X75153316Y-68794184D01*
X75117187Y-68740114D01*
X75104501Y-68676332D01*
X75104500Y-67709667D01*
D19*
D16*
X73904500Y-67709667D02*
X73917187Y-67645886D01*
X73953316Y-67591816D01*
X74007386Y-67555687D01*
X74071168Y-67543001D01*
X74737833Y-67543000D01*
X74801614Y-67555687D01*
X74855684Y-67591816D01*
X74891813Y-67645886D01*
X74904499Y-67709668D01*
X74904500Y-68676333D01*
X74891813Y-68740114D01*
X74855684Y-68794184D01*
X74801614Y-68830313D01*
X74737832Y-68842999D01*
X74071167Y-68843000D01*
X74007386Y-68830313D01*
X73953316Y-68794184D01*
X73917187Y-68740114D01*
X73904501Y-68676332D01*
X73904500Y-67709667D01*
D19*
D16*
X72704500Y-67709667D02*
X72717187Y-67645886D01*
X72753316Y-67591816D01*
X72807386Y-67555687D01*
X72871168Y-67543001D01*
X73537833Y-67543000D01*
X73601614Y-67555687D01*
X73655684Y-67591816D01*
X73691813Y-67645886D01*
X73704499Y-67709668D01*
X73704500Y-68676333D01*
X73691813Y-68740114D01*
X73655684Y-68794184D01*
X73601614Y-68830313D01*
X73537832Y-68842999D01*
X72871167Y-68843000D01*
X72807386Y-68830313D01*
X72753316Y-68794184D01*
X72717187Y-68740114D01*
X72704501Y-68676332D01*
X72704500Y-67709667D01*
X71352500Y-59443000D02*
X71352500Y-58843000D01*
X70052500Y-58843000D02*
G75*
G02*
X71352500Y-58843000I650000J0D01*
G01*
X70052500Y-58843000D02*
X70052500Y-59443000D01*
X70052500Y-59443000D02*
G75*
G03*
X71352500Y-59443000I650000J0D01*
G01*
X71252500Y-63893000D02*
X71252500Y-62793000D01*
X70152500Y-62793000D02*
G75*
G02*
X71252500Y-62793000I550000J0D01*
G01*
X70152500Y-62793000D02*
X70152500Y-63893000D01*
X70152500Y-63893000D02*
G75*
G03*
X71252500Y-63893000I550000J0D01*
G01*
X79952500Y-59443000D02*
X79952500Y-58843000D01*
X78652500Y-58843000D02*
G75*
G02*
X79952500Y-58843000I650000J0D01*
G01*
X78652500Y-58843000D02*
X78652500Y-59443000D01*
X78652500Y-59443000D02*
G75*
G03*
X79952500Y-59443000I650000J0D01*
G01*
X79852500Y-63893000D02*
X79852500Y-62793000D01*
X78752500Y-62793000D02*
G75*
G02*
X79852500Y-62793000I550000J0D01*
G01*
X78752500Y-62793000D02*
X78752500Y-63893000D01*
X78752500Y-63893000D02*
G75*
G03*
X79852500Y-63893000I550000J0D01*
G01*
D19*
D16*
X76902500Y-64768000D02*
X76896791Y-64796701D01*
X76880533Y-64821033D01*
X76856201Y-64837291D01*
X76827500Y-64843000D01*
X76677500Y-64843000D01*
X76648799Y-64837291D01*
X76624467Y-64821033D01*
X76608209Y-64796701D01*
X76602500Y-64768000D01*
X76602500Y-63468000D01*
X76608209Y-63439299D01*
X76624467Y-63414967D01*
X76648799Y-63398709D01*
X76677500Y-63393000D01*
X76827500Y-63393000D01*
X76856201Y-63398709D01*
X76880533Y-63414967D01*
X76896791Y-63439299D01*
X76902500Y-63468000D01*
X76902500Y-64768000D01*
D19*
D16*
X75902500Y-64768000D02*
X75896791Y-64796701D01*
X75880533Y-64821033D01*
X75856201Y-64837291D01*
X75827500Y-64843000D01*
X75677500Y-64843000D01*
X75648799Y-64837291D01*
X75624467Y-64821033D01*
X75608209Y-64796701D01*
X75602500Y-64768000D01*
X75602500Y-63468000D01*
X75608209Y-63439299D01*
X75624467Y-63414967D01*
X75648799Y-63398709D01*
X75677500Y-63393000D01*
X75827500Y-63393000D01*
X75856201Y-63398709D01*
X75880533Y-63414967D01*
X75896791Y-63439299D01*
X75902500Y-63468000D01*
X75902500Y-64768000D01*
D19*
D16*
X74402500Y-64768000D02*
X74396791Y-64796701D01*
X74380533Y-64821033D01*
X74356201Y-64837291D01*
X74327500Y-64843000D01*
X74177500Y-64843000D01*
X74148799Y-64837291D01*
X74124467Y-64821033D01*
X74108209Y-64796701D01*
X74102500Y-64768000D01*
X74102500Y-63468000D01*
X74108209Y-63439299D01*
X74124467Y-63414967D01*
X74148799Y-63398709D01*
X74177500Y-63393000D01*
X74327500Y-63393000D01*
X74356201Y-63398709D01*
X74380533Y-63414967D01*
X74396791Y-63439299D01*
X74402500Y-63468000D01*
X74402500Y-64768000D01*
D19*
D16*
X73402500Y-64768000D02*
X73396791Y-64796701D01*
X73380533Y-64821033D01*
X73356201Y-64837291D01*
X73327500Y-64843000D01*
X73177500Y-64843000D01*
X73148799Y-64837291D01*
X73124467Y-64821033D01*
X73108209Y-64796701D01*
X73102500Y-64768000D01*
X73102500Y-63468000D01*
X73108209Y-63439299D01*
X73124467Y-63414967D01*
X73148799Y-63398709D01*
X73177500Y-63393000D01*
X73327500Y-63393000D01*
X73356201Y-63398709D01*
X73380533Y-63414967D01*
X73396791Y-63439299D01*
X73402500Y-63468000D01*
X73402500Y-64768000D01*
D19*
D16*
X72852500Y-64693000D02*
X72841082Y-64750403D01*
X72808566Y-64799066D01*
X72759903Y-64831582D01*
X72702500Y-64843000D01*
X72402500Y-64843000D01*
X72345097Y-64831582D01*
X72296434Y-64799066D01*
X72263918Y-64750403D01*
X72252500Y-64693000D01*
X72252500Y-63543000D01*
X72263918Y-63485597D01*
X72296434Y-63436934D01*
X72345097Y-63404418D01*
X72402500Y-63393000D01*
X72702500Y-63393000D01*
X72759903Y-63404418D01*
X72808566Y-63436934D01*
X72841082Y-63485597D01*
X72852500Y-63543000D01*
X72852500Y-64693000D01*
D19*
D16*
X72052500Y-64693000D02*
X72041082Y-64750403D01*
X72008566Y-64799066D01*
X71959903Y-64831582D01*
X71902500Y-64843000D01*
X71602500Y-64843000D01*
X71545097Y-64831582D01*
X71496434Y-64799066D01*
X71463918Y-64750403D01*
X71452500Y-64693000D01*
X71452500Y-63543000D01*
X71463918Y-63485597D01*
X71496434Y-63436934D01*
X71545097Y-63404418D01*
X71602500Y-63393000D01*
X71902500Y-63393000D01*
X71959903Y-63404418D01*
X72008566Y-63436934D01*
X72041082Y-63485597D01*
X72052500Y-63543000D01*
X72052500Y-64693000D01*
D19*
D16*
X73902500Y-64768000D02*
X73896791Y-64796701D01*
X73880533Y-64821033D01*
X73856201Y-64837291D01*
X73827500Y-64843000D01*
X73677500Y-64843000D01*
X73648799Y-64837291D01*
X73624467Y-64821033D01*
X73608209Y-64796701D01*
X73602500Y-64768000D01*
X73602500Y-63468000D01*
X73608209Y-63439299D01*
X73624467Y-63414967D01*
X73648799Y-63398709D01*
X73677500Y-63393000D01*
X73827500Y-63393000D01*
X73856201Y-63398709D01*
X73880533Y-63414967D01*
X73896791Y-63439299D01*
X73902500Y-63468000D01*
X73902500Y-64768000D01*
D19*
D16*
X74902500Y-64768000D02*
X74896791Y-64796701D01*
X74880533Y-64821033D01*
X74856201Y-64837291D01*
X74827500Y-64843000D01*
X74677500Y-64843000D01*
X74648799Y-64837291D01*
X74624467Y-64821033D01*
X74608209Y-64796701D01*
X74602500Y-64768000D01*
X74602500Y-63468000D01*
X74608209Y-63439299D01*
X74624467Y-63414967D01*
X74648799Y-63398709D01*
X74677500Y-63393000D01*
X74827500Y-63393000D01*
X74856201Y-63398709D01*
X74880533Y-63414967D01*
X74896791Y-63439299D01*
X74902500Y-63468000D01*
X74902500Y-64768000D01*
D19*
D16*
X75406500Y-64768000D02*
X75400791Y-64796701D01*
X75384533Y-64821033D01*
X75360201Y-64837291D01*
X75331500Y-64843000D01*
X75181500Y-64843000D01*
X75152799Y-64837291D01*
X75128467Y-64821033D01*
X75112209Y-64796701D01*
X75106500Y-64768000D01*
X75106500Y-63468000D01*
X75112209Y-63439299D01*
X75128467Y-63414967D01*
X75152799Y-63398709D01*
X75181500Y-63393000D01*
X75331500Y-63393000D01*
X75360201Y-63398709D01*
X75384533Y-63414967D01*
X75400791Y-63439299D01*
X75406500Y-63468000D01*
X75406500Y-64768000D01*
D19*
D16*
X76402500Y-64768000D02*
X76396791Y-64796701D01*
X76380533Y-64821033D01*
X76356201Y-64837291D01*
X76327500Y-64843000D01*
X76177500Y-64843000D01*
X76148799Y-64837291D01*
X76124467Y-64821033D01*
X76108209Y-64796701D01*
X76102500Y-64768000D01*
X76102500Y-63468000D01*
X76108209Y-63439299D01*
X76124467Y-63414967D01*
X76148799Y-63398709D01*
X76177500Y-63393000D01*
X76327500Y-63393000D01*
X76356201Y-63398709D01*
X76380533Y-63414967D01*
X76396791Y-63439299D01*
X76402500Y-63468000D01*
X76402500Y-64768000D01*
D19*
D16*
X77752500Y-64693000D02*
X77741082Y-64750403D01*
X77708566Y-64799066D01*
X77659903Y-64831582D01*
X77602500Y-64843000D01*
X77302500Y-64843000D01*
X77245097Y-64831582D01*
X77196434Y-64799066D01*
X77163918Y-64750403D01*
X77152500Y-64693000D01*
X77152500Y-63543000D01*
X77163918Y-63485597D01*
X77196434Y-63436934D01*
X77245097Y-63404418D01*
X77302500Y-63393000D01*
X77602500Y-63393000D01*
X77659903Y-63404418D01*
X77708566Y-63436934D01*
X77741082Y-63485597D01*
X77752500Y-63543000D01*
X77752500Y-64693000D01*
D19*
D16*
X78552500Y-64693000D02*
X78541082Y-64750403D01*
X78508566Y-64799066D01*
X78459903Y-64831582D01*
X78402500Y-64843000D01*
X78102500Y-64843000D01*
X78045097Y-64831582D01*
X77996434Y-64799066D01*
X77963918Y-64750403D01*
X77952500Y-64693000D01*
X77952500Y-63543000D01*
X77963918Y-63485597D01*
X77996434Y-63436934D01*
X78045097Y-63404418D01*
X78102500Y-63393000D01*
X78402500Y-63393000D01*
X78459903Y-63404418D01*
X78508566Y-63436934D01*
X78541082Y-63485597D01*
X78552500Y-63543000D01*
X78552500Y-64693000D01*
X72437500Y-62792000D02*
G75*
G02*
X71787500Y-62792000I-325000J0D01*
G01*
X71787500Y-62792000D02*
G75*
G02*
X72437500Y-62792000I325000J0D01*
G01*
X78217500Y-62792000D02*
G75*
G02*
X77567500Y-62792000I-325000J0D01*
G01*
X77567500Y-62792000D02*
G75*
G02*
X78217500Y-62792000I325000J0D01*
G01*
D19*
D16*
X73877500Y-66261400D02*
X73887015Y-66213565D01*
X73914112Y-66173012D01*
X73954665Y-66145915D01*
X74002500Y-66136400D01*
X74050335Y-66145915D01*
X74090888Y-66173012D01*
X74117985Y-66213565D01*
X74127500Y-66261400D01*
X74127500Y-66561400D01*
X74117985Y-66609235D01*
X74090888Y-66649788D01*
X74050335Y-66676885D01*
X74002500Y-66686400D01*
X73954665Y-66676885D01*
X73914112Y-66649788D01*
X73887015Y-66609235D01*
X73877500Y-66561400D01*
X73877500Y-66261400D01*
X74377500Y-66136400D02*
X74377500Y-66686400D01*
X74627500Y-66686400D01*
X74627500Y-66136400D01*
X74377500Y-66136400D01*
X74852500Y-66136400D02*
X74852500Y-66686400D01*
X75152500Y-66686400D01*
X75152500Y-66136400D01*
X74852500Y-66136400D01*
X75377500Y-66136400D02*
X75377500Y-66686400D01*
X75627500Y-66686400D01*
X75627500Y-66136400D01*
X75377500Y-66136400D01*
X75877500Y-66136400D02*
X75877500Y-66686400D01*
X76127500Y-66686400D01*
X76127500Y-66136400D01*
X75877500Y-66136400D01*
X75877500Y-65366400D02*
X75877500Y-65916400D01*
X76127500Y-65916400D01*
X76127500Y-65366400D01*
X75877500Y-65366400D01*
X75377500Y-65366400D02*
X75377500Y-65916400D01*
X75627500Y-65916400D01*
X75627500Y-65366400D01*
X75377500Y-65366400D01*
X74852500Y-65366400D02*
X74852500Y-65916400D01*
X75152500Y-65916400D01*
X75152500Y-65366400D01*
X74852500Y-65366400D01*
X74377500Y-65366400D02*
X74377500Y-65916400D01*
X74627500Y-65916400D01*
X74627500Y-65366400D01*
X74377500Y-65366400D01*
X73877500Y-65366400D02*
X73877500Y-65916400D01*
X74127500Y-65916400D01*
X74127500Y-65366400D01*
X73877500Y-65366400D01*
X83754500Y-71043000D02*
G75*
G02*
X80254500Y-71043000I-1750000J0D01*
G01*
X80254500Y-71043000D02*
G75*
G02*
X83754500Y-71043000I1750000J0D01*
G01*
D19*
D16*
X69954500Y-66540000D02*
X69973530Y-66444329D01*
X70027723Y-66363223D01*
X70108829Y-66309030D01*
X70204500Y-66290000D01*
X70704500Y-66290000D01*
X70800171Y-66309030D01*
X70881277Y-66363223D01*
X70935470Y-66444329D01*
X70954500Y-66540000D01*
X70954500Y-67240000D01*
X70935470Y-67335671D01*
X70881277Y-67416777D01*
X70800171Y-67470970D01*
X70704500Y-67490000D01*
X70204500Y-67490000D01*
X70108829Y-67470970D01*
X70027723Y-67416777D01*
X69973530Y-67335671D01*
X69954500Y-67240000D01*
X69954500Y-66540000D01*
D19*
D16*
X66654500Y-66540000D02*
X66673530Y-66444329D01*
X66727723Y-66363223D01*
X66808829Y-66309030D01*
X66904500Y-66290000D01*
X67404500Y-66290000D01*
X67500171Y-66309030D01*
X67581277Y-66363223D01*
X67635470Y-66444329D01*
X67654500Y-66540000D01*
X67654500Y-67240000D01*
X67635470Y-67335671D01*
X67581277Y-67416777D01*
X67500171Y-67470970D01*
X67404500Y-67490000D01*
X66904500Y-67490000D01*
X66808829Y-67470970D01*
X66727723Y-67416777D01*
X66673530Y-67335671D01*
X66654500Y-67240000D01*
X66654500Y-66540000D01*
M02*
