%TF.GenerationSoftware,KiCad,Pcbnew,8.0.4*%
%TF.CreationDate,2024-08-22T18:58:07-07:00*%
%TF.ProjectId,UDB,5544422e-6b69-4636-9164-5f7063625858,C4-RC1*%
%TF.SameCoordinates,Original*%
%TF.FileFunction,Copper,L3,Inr*%
%TF.FilePolarity,Positive*%
%FSLAX46Y46*%
G04 Gerber Fmt 4.6, Leading zero omitted, Abs format (unit mm)*
G04 Created by KiCad (PCBNEW 8.0.4) date 2024-08-22 18:58:07*
%MOMM*%
%LPD*%
G01*
G04 APERTURE LIST*
%TA.AperFunction,ComponentPad*%
%ADD10C,3.500001*%
%TD*%
%TA.AperFunction,ComponentPad*%
%ADD11C,0.600000*%
%TD*%
%TA.AperFunction,ComponentPad*%
%ADD12O,1.300000X1.900000*%
%TD*%
%TA.AperFunction,ComponentPad*%
%ADD13O,1.100000X2.200000*%
%TD*%
%TA.AperFunction,ViaPad*%
%ADD14C,0.600000*%
%TD*%
%TA.AperFunction,ViaPad*%
%ADD15C,0.800000*%
%TD*%
%TA.AperFunction,ViaPad*%
%ADD16C,1.000000*%
%TD*%
%TA.AperFunction,Conductor*%
%ADD17C,0.250000*%
%TD*%
G04 APERTURE END LIST*
D10*
X82004500Y-58543000D03*
D11*
X77954500Y-70943000D03*
X77204500Y-72343000D03*
X77204500Y-71643000D03*
X77204500Y-70943000D03*
X72804500Y-72343000D03*
X72804500Y-71643000D03*
X72804500Y-70943000D03*
X72004500Y-70943000D03*
D12*
X70702500Y-59143000D03*
D13*
X70702500Y-63343000D03*
D12*
X79302500Y-59143000D03*
D13*
X79302500Y-63343000D03*
D14*
X75002500Y-67143000D03*
D15*
X80702500Y-64668000D03*
D14*
X76825978Y-66043018D03*
X72052500Y-66933000D03*
D15*
X82302500Y-64668000D03*
D14*
X74404500Y-70743000D03*
X73704500Y-66943000D03*
X74204500Y-69343000D03*
X76304500Y-66943000D03*
D16*
X77602500Y-65437300D03*
X72402500Y-65443000D03*
X69490500Y-61007000D03*
X71214500Y-69448000D03*
X68240500Y-66890000D03*
D17*
X73411607Y-67939321D02*
X73297393Y-68053535D01*
X73004500Y-69343000D02*
X73004500Y-68760642D01*
X73704500Y-66943000D02*
X73704500Y-67232214D01*
X73411607Y-67939321D02*
G75*
G03*
X73704510Y-67232214I-707107J707121D01*
G01*
X73004500Y-69343000D02*
G75*
G03*
X74404500Y-70743000I1400000J0D01*
G01*
X73297393Y-68053535D02*
G75*
G03*
X73004529Y-68760642I707107J-707065D01*
G01*
X75004500Y-68543000D02*
X77254500Y-68543000D01*
X77254500Y-66943000D02*
X76304500Y-66943000D01*
X77254500Y-68543000D02*
G75*
G03*
X78054500Y-67743000I0J800000D01*
G01*
X74204500Y-69343000D02*
G75*
G02*
X75004500Y-68543000I800000J0D01*
G01*
X78054500Y-67743000D02*
G75*
G03*
X77254500Y-66943000I-800000J0D01*
G01*
%TA.AperFunction,Conductor*%
G36*
X82008022Y-57043752D02*
G01*
X82033005Y-57045538D01*
X82210845Y-57058258D01*
X82224808Y-57060265D01*
X82420049Y-57102737D01*
X82433588Y-57106713D01*
X82620792Y-57176537D01*
X82633618Y-57182394D01*
X82808976Y-57278146D01*
X82820856Y-57285781D01*
X82980794Y-57405509D01*
X82991466Y-57414756D01*
X83132743Y-57556033D01*
X83141993Y-57566709D01*
X83261718Y-57726643D01*
X83269354Y-57738525D01*
X83365102Y-57913875D01*
X83370966Y-57926715D01*
X83440784Y-58113904D01*
X83444764Y-58127457D01*
X83487232Y-58322681D01*
X83489242Y-58336662D01*
X83503748Y-58539476D01*
X83504000Y-58546539D01*
X83504000Y-70079260D01*
X83485093Y-70137451D01*
X83435593Y-70173415D01*
X83374407Y-70173415D01*
X83324907Y-70137451D01*
X83303357Y-70107790D01*
X83225293Y-70000344D01*
X83047156Y-69822207D01*
X82843345Y-69674130D01*
X82843344Y-69674129D01*
X82843342Y-69674128D01*
X82618879Y-69559759D01*
X82379280Y-69481908D01*
X82130465Y-69442500D01*
X82130462Y-69442500D01*
X81878538Y-69442500D01*
X81878535Y-69442500D01*
X81629719Y-69481908D01*
X81390120Y-69559759D01*
X81165657Y-69674128D01*
X80961845Y-69822206D01*
X80783706Y-70000345D01*
X80635628Y-70204157D01*
X80521259Y-70428620D01*
X80443408Y-70668219D01*
X80404000Y-70917034D01*
X80404000Y-71168965D01*
X80443408Y-71417780D01*
X80468353Y-71494551D01*
X80521259Y-71657379D01*
X80635630Y-71881845D01*
X80783707Y-72085656D01*
X80961844Y-72263793D01*
X81098952Y-72363408D01*
X81134916Y-72412907D01*
X81134916Y-72474093D01*
X81098952Y-72523593D01*
X81040761Y-72542500D01*
X78703500Y-72542500D01*
X78645309Y-72523593D01*
X78609345Y-72474093D01*
X78604500Y-72443500D01*
X78604500Y-70843001D01*
X78604500Y-70843000D01*
X78587463Y-70713590D01*
X78567894Y-70666346D01*
X78537514Y-70593002D01*
X78537513Y-70593001D01*
X78537513Y-70593000D01*
X78458053Y-70489447D01*
X78354500Y-70409987D01*
X78354499Y-70409986D01*
X78354497Y-70409985D01*
X78233914Y-70360038D01*
X78233906Y-70360036D01*
X78104501Y-70343000D01*
X78104500Y-70343000D01*
X77004500Y-70343000D01*
X77004498Y-70343000D01*
X76875093Y-70360036D01*
X76875085Y-70360038D01*
X76754502Y-70409985D01*
X76650947Y-70489446D01*
X76650946Y-70489447D01*
X76571485Y-70593002D01*
X76521538Y-70713585D01*
X76521536Y-70713593D01*
X76504500Y-70842998D01*
X76504500Y-72443500D01*
X76485593Y-72501691D01*
X76436093Y-72537655D01*
X76405500Y-72542500D01*
X73603500Y-72542500D01*
X73545309Y-72523593D01*
X73509345Y-72474093D01*
X73504500Y-72443500D01*
X73504500Y-70982952D01*
X73523407Y-70924761D01*
X73572907Y-70888797D01*
X73634093Y-70888797D01*
X73644613Y-70892893D01*
X73799959Y-70963837D01*
X73951313Y-71008278D01*
X73998241Y-71038437D01*
X74073372Y-71125143D01*
X74194447Y-71202953D01*
X74300903Y-71234211D01*
X74332535Y-71243499D01*
X74332536Y-71243499D01*
X74332539Y-71243500D01*
X74332541Y-71243500D01*
X74476459Y-71243500D01*
X74476461Y-71243500D01*
X74614553Y-71202953D01*
X74735628Y-71125143D01*
X74829877Y-71016373D01*
X74889665Y-70885457D01*
X74910147Y-70743000D01*
X74899125Y-70666342D01*
X74889665Y-70600543D01*
X74886220Y-70593000D01*
X74829877Y-70469627D01*
X74735628Y-70360857D01*
X74735627Y-70360856D01*
X74735626Y-70360855D01*
X74614557Y-70283049D01*
X74614554Y-70283047D01*
X74614553Y-70283047D01*
X74614550Y-70283046D01*
X74476464Y-70242500D01*
X74476461Y-70242500D01*
X74332539Y-70242500D01*
X74332535Y-70242500D01*
X74194449Y-70283046D01*
X74194447Y-70283047D01*
X74111339Y-70336457D01*
X74052163Y-70352010D01*
X74015977Y-70342896D01*
X73875100Y-70277204D01*
X73860155Y-70268576D01*
X73720923Y-70171085D01*
X73707703Y-70159993D01*
X73587506Y-70039796D01*
X73576414Y-70026576D01*
X73554400Y-69995137D01*
X73478921Y-69887341D01*
X73470295Y-69872400D01*
X73456819Y-69843500D01*
X73398459Y-69718348D01*
X73392560Y-69702142D01*
X73348562Y-69537940D01*
X73345569Y-69520960D01*
X73330377Y-69347309D01*
X73330189Y-69342997D01*
X73698853Y-69342997D01*
X73698853Y-69343002D01*
X73719334Y-69485456D01*
X73753268Y-69559759D01*
X73779123Y-69616373D01*
X73873372Y-69725143D01*
X73873373Y-69725144D01*
X73952398Y-69775930D01*
X73994447Y-69802953D01*
X74100903Y-69834211D01*
X74132535Y-69843499D01*
X74132536Y-69843499D01*
X74132539Y-69843500D01*
X74132541Y-69843500D01*
X74276459Y-69843500D01*
X74276461Y-69843500D01*
X74414553Y-69802953D01*
X74535628Y-69725143D01*
X74629877Y-69616373D01*
X74689665Y-69485457D01*
X74696991Y-69434500D01*
X74710147Y-69343002D01*
X74710147Y-69342997D01*
X74689665Y-69200544D01*
X74689665Y-69200543D01*
X74651745Y-69117512D01*
X74644771Y-69056728D01*
X74674857Y-69003451D01*
X74681521Y-68997853D01*
X74756916Y-68940000D01*
X74779285Y-68927085D01*
X74869654Y-68889653D01*
X74894608Y-68882967D01*
X74985717Y-68870972D01*
X74998067Y-68869347D01*
X75010988Y-68868500D01*
X77352969Y-68868500D01*
X77352969Y-68868499D01*
X77546913Y-68834302D01*
X77731974Y-68766946D01*
X77902526Y-68668477D01*
X78053389Y-68541889D01*
X78179977Y-68391026D01*
X78278446Y-68220474D01*
X78345802Y-68035413D01*
X78380000Y-67841468D01*
X78380000Y-67743000D01*
X78380000Y-67691446D01*
X78380000Y-67644532D01*
X78345802Y-67450587D01*
X78278446Y-67265526D01*
X78179977Y-67094974D01*
X78053389Y-66944111D01*
X77902526Y-66817523D01*
X77735568Y-66721129D01*
X77731978Y-66719056D01*
X77731976Y-66719055D01*
X77731974Y-66719054D01*
X77546913Y-66651698D01*
X77546914Y-66651698D01*
X77352971Y-66617500D01*
X77352968Y-66617500D01*
X77297353Y-66617500D01*
X77194984Y-66617500D01*
X77136793Y-66598593D01*
X77100829Y-66549093D01*
X77100829Y-66487907D01*
X77136793Y-66438407D01*
X77141460Y-66435216D01*
X77145686Y-66432500D01*
X77157106Y-66425161D01*
X77251355Y-66316391D01*
X77311143Y-66185475D01*
X77311144Y-66185467D01*
X77311425Y-66184514D01*
X77311898Y-66183820D01*
X77314085Y-66179034D01*
X77314912Y-66179412D01*
X77345956Y-66134004D01*
X77403582Y-66113438D01*
X77430108Y-66116273D01*
X77517444Y-66137800D01*
X77517447Y-66137800D01*
X77687553Y-66137800D01*
X77687556Y-66137800D01*
X77852725Y-66097090D01*
X78003352Y-66018034D01*
X78130683Y-65905229D01*
X78227318Y-65765230D01*
X78287640Y-65606172D01*
X78308145Y-65437300D01*
X78287640Y-65268428D01*
X78227318Y-65109370D01*
X78130683Y-64969371D01*
X78003352Y-64856566D01*
X77852725Y-64777510D01*
X77852724Y-64777509D01*
X77852723Y-64777509D01*
X77687558Y-64736800D01*
X77687556Y-64736800D01*
X77517444Y-64736800D01*
X77517441Y-64736800D01*
X77352276Y-64777509D01*
X77201646Y-64856567D01*
X77074318Y-64969369D01*
X77074316Y-64969372D01*
X77070382Y-64975072D01*
X76977682Y-65109370D01*
X76923195Y-65253044D01*
X76917360Y-65268429D01*
X76896855Y-65437298D01*
X76896855Y-65443288D01*
X76893864Y-65443288D01*
X76884421Y-65491603D01*
X76839630Y-65533286D01*
X76797883Y-65542518D01*
X76754013Y-65542518D01*
X76615927Y-65583064D01*
X76615920Y-65583067D01*
X76494851Y-65660873D01*
X76400600Y-65769646D01*
X76340812Y-65900561D01*
X76320331Y-66043015D01*
X76320331Y-66043020D01*
X76340812Y-66185474D01*
X76394199Y-66302373D01*
X76401174Y-66363160D01*
X76371088Y-66416437D01*
X76315432Y-66441855D01*
X76304146Y-66442500D01*
X76232535Y-66442500D01*
X76094449Y-66483046D01*
X76094442Y-66483049D01*
X75973373Y-66560855D01*
X75879122Y-66669628D01*
X75819334Y-66800543D01*
X75798853Y-66942997D01*
X75798853Y-66943002D01*
X75819334Y-67085456D01*
X75823680Y-67094972D01*
X75879123Y-67216373D01*
X75940847Y-67287607D01*
X75973373Y-67325144D01*
X76089141Y-67399543D01*
X76094447Y-67402953D01*
X76198478Y-67433499D01*
X76232535Y-67443499D01*
X76232536Y-67443499D01*
X76232539Y-67443500D01*
X76232541Y-67443500D01*
X76376459Y-67443500D01*
X76376461Y-67443500D01*
X76514553Y-67402953D01*
X76635628Y-67325143D01*
X76655101Y-67302670D01*
X76707497Y-67271073D01*
X76729921Y-67268500D01*
X77202946Y-67268500D01*
X77248012Y-67268500D01*
X77260933Y-67269347D01*
X77274044Y-67271073D01*
X77364390Y-67282967D01*
X77389346Y-67289653D01*
X77479710Y-67327084D01*
X77502088Y-67340004D01*
X77579681Y-67399543D01*
X77597956Y-67417818D01*
X77657495Y-67495411D01*
X77670417Y-67517792D01*
X77707844Y-67608148D01*
X77714533Y-67633113D01*
X77727298Y-67730079D01*
X77727298Y-67755921D01*
X77714533Y-67852886D01*
X77707844Y-67877851D01*
X77670417Y-67968207D01*
X77657495Y-67990588D01*
X77597956Y-68068181D01*
X77579681Y-68086456D01*
X77502088Y-68145995D01*
X77479707Y-68158917D01*
X77389351Y-68196344D01*
X77364387Y-68203033D01*
X77260934Y-68216653D01*
X77248012Y-68217500D01*
X74906028Y-68217500D01*
X74712086Y-68251698D01*
X74527021Y-68319056D01*
X74356472Y-68417524D01*
X74205612Y-68544110D01*
X74205610Y-68544112D01*
X74079024Y-68694972D01*
X73980555Y-68865523D01*
X73980554Y-68865524D01*
X73979404Y-68868685D01*
X73941730Y-68916896D01*
X73939901Y-68918101D01*
X73873372Y-68960857D01*
X73779122Y-69069628D01*
X73719334Y-69200543D01*
X73698853Y-69342997D01*
X73330189Y-69342997D01*
X73330000Y-69338681D01*
X73330000Y-68820172D01*
X73330001Y-68820147D01*
X73330000Y-68812185D01*
X73330002Y-68812182D01*
X73330000Y-68765491D01*
X73330476Y-68755792D01*
X73331292Y-68747500D01*
X73342000Y-68638730D01*
X73345782Y-68619713D01*
X73378506Y-68511825D01*
X73385926Y-68493910D01*
X73439071Y-68394473D01*
X73449836Y-68378360D01*
X73524279Y-68287645D01*
X73530777Y-68280476D01*
X73672072Y-68139183D01*
X73672073Y-68139180D01*
X73677069Y-68134185D01*
X73677170Y-68134069D01*
X73703193Y-68108048D01*
X73808970Y-67970200D01*
X73895849Y-67819725D01*
X73962344Y-67659198D01*
X73962344Y-67659195D01*
X73962346Y-67659193D01*
X74007315Y-67491372D01*
X74007315Y-67491370D01*
X74007317Y-67491364D01*
X74024172Y-67363340D01*
X74047505Y-67311435D01*
X74129877Y-67216373D01*
X74189665Y-67085457D01*
X74209987Y-66944112D01*
X74210147Y-66943002D01*
X74210147Y-66942997D01*
X74189665Y-66800543D01*
X74153397Y-66721128D01*
X74129877Y-66669627D01*
X74035628Y-66560857D01*
X74035627Y-66560856D01*
X74035626Y-66560855D01*
X73914557Y-66483049D01*
X73914554Y-66483047D01*
X73914553Y-66483047D01*
X73914550Y-66483046D01*
X73776464Y-66442500D01*
X73776461Y-66442500D01*
X73632539Y-66442500D01*
X73632535Y-66442500D01*
X73494449Y-66483046D01*
X73494442Y-66483049D01*
X73373373Y-66560855D01*
X73279122Y-66669628D01*
X73219334Y-66800543D01*
X73198853Y-66942997D01*
X73198853Y-66943002D01*
X73219334Y-67085456D01*
X73279123Y-67216373D01*
X73340847Y-67287607D01*
X73364665Y-67343966D01*
X73360765Y-67381177D01*
X73330485Y-67480993D01*
X73323058Y-67498923D01*
X73269918Y-67598338D01*
X73259136Y-67614474D01*
X73184462Y-67705464D01*
X73177938Y-67712662D01*
X73103678Y-67786922D01*
X73103676Y-67786924D01*
X73103667Y-67786931D01*
X73096232Y-67794366D01*
X73096150Y-67794407D01*
X73005773Y-67884790D01*
X73005772Y-67884791D01*
X72899996Y-68022648D01*
X72813125Y-68173126D01*
X72813124Y-68173127D01*
X72746638Y-68333654D01*
X72746635Y-68333663D01*
X72701669Y-68501506D01*
X72696062Y-68544111D01*
X72678997Y-68673776D01*
X72678997Y-68673780D01*
X72678997Y-68673781D01*
X72679000Y-68747500D01*
X72679000Y-69466415D01*
X72714125Y-69710714D01*
X72714126Y-69710719D01*
X72774380Y-69915927D01*
X72783663Y-69947541D01*
X72886196Y-70172057D01*
X72886197Y-70172058D01*
X72886201Y-70172066D01*
X72898033Y-70190477D01*
X72913588Y-70249652D01*
X72891389Y-70306668D01*
X72839916Y-70339748D01*
X72814749Y-70343000D01*
X71804498Y-70343000D01*
X71675093Y-70360036D01*
X71675085Y-70360038D01*
X71554502Y-70409985D01*
X71450947Y-70489446D01*
X71450946Y-70489447D01*
X71371485Y-70593002D01*
X71321538Y-70713585D01*
X71321536Y-70713593D01*
X71304500Y-70842998D01*
X71304500Y-72443500D01*
X71285593Y-72501691D01*
X71236093Y-72537655D01*
X71205500Y-72542500D01*
X68981850Y-72542500D01*
X68923659Y-72523593D01*
X68887695Y-72474093D01*
X68887695Y-72412907D01*
X68923657Y-72363408D01*
X69052368Y-72269895D01*
X69231395Y-72090868D01*
X69380213Y-71886038D01*
X69495156Y-71660450D01*
X69573394Y-71419658D01*
X69573691Y-71417785D01*
X69613000Y-71169595D01*
X69613000Y-70916404D01*
X69573395Y-70666346D01*
X69573394Y-70666342D01*
X69495156Y-70425550D01*
X69380213Y-70199962D01*
X69231395Y-69995132D01*
X69052368Y-69816105D01*
X68847538Y-69667287D01*
X68847537Y-69667286D01*
X68847535Y-69667285D01*
X68621950Y-69552344D01*
X68381153Y-69474104D01*
X68216333Y-69448000D01*
X70508855Y-69448000D01*
X70529360Y-69616872D01*
X70589682Y-69775930D01*
X70686317Y-69915929D01*
X70813648Y-70028734D01*
X70964275Y-70107790D01*
X71129444Y-70148500D01*
X71129447Y-70148500D01*
X71299553Y-70148500D01*
X71299556Y-70148500D01*
X71464725Y-70107790D01*
X71615352Y-70028734D01*
X71742683Y-69915929D01*
X71839318Y-69775930D01*
X71899640Y-69616872D01*
X71920145Y-69448000D01*
X71899640Y-69279128D01*
X71839318Y-69120070D01*
X71742683Y-68980071D01*
X71615352Y-68867266D01*
X71464725Y-68788210D01*
X71464724Y-68788209D01*
X71464723Y-68788209D01*
X71299558Y-68747500D01*
X71299556Y-68747500D01*
X71129444Y-68747500D01*
X71129441Y-68747500D01*
X70964276Y-68788209D01*
X70813646Y-68867267D01*
X70686318Y-68980069D01*
X70686316Y-68980072D01*
X70624500Y-69069628D01*
X70589682Y-69120070D01*
X70529360Y-69279128D01*
X70508855Y-69448000D01*
X68216333Y-69448000D01*
X68131095Y-69434500D01*
X68131092Y-69434500D01*
X67877908Y-69434500D01*
X67877905Y-69434500D01*
X67627846Y-69474104D01*
X67387049Y-69552344D01*
X67161464Y-69667285D01*
X66956633Y-69816104D01*
X66777600Y-69995137D01*
X66684092Y-70123840D01*
X66634592Y-70159804D01*
X66573407Y-70159803D01*
X66523907Y-70123839D01*
X66505000Y-70065649D01*
X66505000Y-66890000D01*
X67534855Y-66890000D01*
X67555360Y-67058872D01*
X67615682Y-67217930D01*
X67712317Y-67357929D01*
X67839648Y-67470734D01*
X67990275Y-67549790D01*
X68155444Y-67590500D01*
X68155447Y-67590500D01*
X68325553Y-67590500D01*
X68325556Y-67590500D01*
X68490725Y-67549790D01*
X68641352Y-67470734D01*
X68768683Y-67357929D01*
X68865318Y-67217930D01*
X68925640Y-67058872D01*
X68940924Y-66932997D01*
X71546853Y-66932997D01*
X71546853Y-66933002D01*
X71567334Y-67075456D01*
X71576247Y-67094972D01*
X71627123Y-67206373D01*
X71697512Y-67287607D01*
X71721373Y-67315144D01*
X71787945Y-67357927D01*
X71842447Y-67392953D01*
X71948903Y-67424211D01*
X71980535Y-67433499D01*
X71980536Y-67433499D01*
X71980539Y-67433500D01*
X71980541Y-67433500D01*
X72124459Y-67433500D01*
X72124461Y-67433500D01*
X72262553Y-67392953D01*
X72383628Y-67315143D01*
X72477877Y-67206373D01*
X72537665Y-67075457D01*
X72544492Y-67027971D01*
X72558147Y-66933002D01*
X72558147Y-66932997D01*
X72537665Y-66790543D01*
X72505964Y-66721128D01*
X72477877Y-66659627D01*
X72383628Y-66550857D01*
X72383627Y-66550856D01*
X72383626Y-66550855D01*
X72262557Y-66473049D01*
X72262554Y-66473047D01*
X72262553Y-66473047D01*
X72262550Y-66473046D01*
X72124464Y-66432500D01*
X72124461Y-66432500D01*
X71980539Y-66432500D01*
X71980535Y-66432500D01*
X71842449Y-66473046D01*
X71842442Y-66473049D01*
X71721373Y-66550855D01*
X71627122Y-66659628D01*
X71567334Y-66790543D01*
X71546853Y-66932997D01*
X68940924Y-66932997D01*
X68946145Y-66890000D01*
X68925640Y-66721128D01*
X68865318Y-66562070D01*
X68768683Y-66422071D01*
X68641352Y-66309266D01*
X68490725Y-66230210D01*
X68490724Y-66230209D01*
X68490723Y-66230209D01*
X68325558Y-66189500D01*
X68325556Y-66189500D01*
X68155444Y-66189500D01*
X68155441Y-66189500D01*
X67990276Y-66230209D01*
X67839646Y-66309267D01*
X67712318Y-66422069D01*
X67712316Y-66422072D01*
X67666873Y-66487907D01*
X67615682Y-66562070D01*
X67555360Y-66721128D01*
X67534855Y-66890000D01*
X66505000Y-66890000D01*
X66505000Y-65443000D01*
X71696855Y-65443000D01*
X71717360Y-65611872D01*
X71777682Y-65770930D01*
X71874317Y-65910929D01*
X72001648Y-66023734D01*
X72152275Y-66102790D01*
X72317444Y-66143500D01*
X72317447Y-66143500D01*
X72487553Y-66143500D01*
X72487556Y-66143500D01*
X72652725Y-66102790D01*
X72803352Y-66023734D01*
X72930683Y-65910929D01*
X73027318Y-65770930D01*
X73087640Y-65611872D01*
X73108145Y-65443000D01*
X73087640Y-65274128D01*
X73027318Y-65115070D01*
X72930683Y-64975071D01*
X72925908Y-64970841D01*
X72803353Y-64862267D01*
X72803352Y-64862266D01*
X72652725Y-64783210D01*
X72652724Y-64783209D01*
X72652723Y-64783209D01*
X72487558Y-64742500D01*
X72487556Y-64742500D01*
X72317444Y-64742500D01*
X72317441Y-64742500D01*
X72152276Y-64783209D01*
X72001646Y-64862267D01*
X71874318Y-64975069D01*
X71874316Y-64975072D01*
X71790648Y-65096286D01*
X71777682Y-65115070D01*
X71717360Y-65274128D01*
X71696855Y-65443000D01*
X66505000Y-65443000D01*
X66505000Y-64667999D01*
X80096818Y-64667999D01*
X80096818Y-64668000D01*
X80117455Y-64824758D01*
X80117457Y-64824766D01*
X80177962Y-64970838D01*
X80177962Y-64970839D01*
X80274213Y-65096276D01*
X80274218Y-65096282D01*
X80399659Y-65192536D01*
X80545738Y-65253044D01*
X80662592Y-65268428D01*
X80702499Y-65273682D01*
X80702500Y-65273682D01*
X80702501Y-65273682D01*
X80733852Y-65269554D01*
X80859262Y-65253044D01*
X81005341Y-65192536D01*
X81130782Y-65096282D01*
X81227036Y-64970841D01*
X81287544Y-64824762D01*
X81308182Y-64668000D01*
X81308182Y-64667999D01*
X81696818Y-64667999D01*
X81696818Y-64668000D01*
X81717455Y-64824758D01*
X81717457Y-64824766D01*
X81777962Y-64970838D01*
X81777962Y-64970839D01*
X81874213Y-65096276D01*
X81874218Y-65096282D01*
X81999659Y-65192536D01*
X82145738Y-65253044D01*
X82262592Y-65268428D01*
X82302499Y-65273682D01*
X82302500Y-65273682D01*
X82302501Y-65273682D01*
X82333852Y-65269554D01*
X82459262Y-65253044D01*
X82605341Y-65192536D01*
X82730782Y-65096282D01*
X82827036Y-64970841D01*
X82887544Y-64824762D01*
X82908182Y-64668000D01*
X82887544Y-64511238D01*
X82827037Y-64365161D01*
X82827037Y-64365160D01*
X82730786Y-64239723D01*
X82730785Y-64239722D01*
X82730782Y-64239718D01*
X82730777Y-64239714D01*
X82730776Y-64239713D01*
X82605338Y-64143462D01*
X82459266Y-64082957D01*
X82459258Y-64082955D01*
X82302501Y-64062318D01*
X82302499Y-64062318D01*
X82145741Y-64082955D01*
X82145733Y-64082957D01*
X81999661Y-64143462D01*
X81999660Y-64143462D01*
X81874223Y-64239713D01*
X81874213Y-64239723D01*
X81777962Y-64365160D01*
X81777962Y-64365161D01*
X81717457Y-64511233D01*
X81717455Y-64511241D01*
X81696818Y-64667999D01*
X81308182Y-64667999D01*
X81287544Y-64511238D01*
X81227037Y-64365161D01*
X81227037Y-64365160D01*
X81130786Y-64239723D01*
X81130785Y-64239722D01*
X81130782Y-64239718D01*
X81130777Y-64239714D01*
X81130776Y-64239713D01*
X81005338Y-64143462D01*
X80859266Y-64082957D01*
X80859258Y-64082955D01*
X80702501Y-64062318D01*
X80702499Y-64062318D01*
X80545741Y-64082955D01*
X80545733Y-64082957D01*
X80399661Y-64143462D01*
X80399660Y-64143462D01*
X80274223Y-64239713D01*
X80274213Y-64239723D01*
X80177962Y-64365160D01*
X80177962Y-64365161D01*
X80117457Y-64511233D01*
X80117455Y-64511241D01*
X80096818Y-64667999D01*
X66505000Y-64667999D01*
X66505000Y-62716234D01*
X71537000Y-62716234D01*
X71537000Y-62867766D01*
X71571586Y-62996847D01*
X71576220Y-63014139D01*
X71651981Y-63145360D01*
X71651983Y-63145362D01*
X71651985Y-63145365D01*
X71759135Y-63252515D01*
X71759137Y-63252516D01*
X71759139Y-63252518D01*
X71890361Y-63328279D01*
X71890359Y-63328279D01*
X71890363Y-63328280D01*
X71890365Y-63328281D01*
X72036734Y-63367500D01*
X72036736Y-63367500D01*
X72188264Y-63367500D01*
X72188266Y-63367500D01*
X72334635Y-63328281D01*
X72334637Y-63328279D01*
X72334639Y-63328279D01*
X72465860Y-63252518D01*
X72465860Y-63252517D01*
X72465865Y-63252515D01*
X72573015Y-63145365D01*
X72648781Y-63014135D01*
X72688000Y-62867766D01*
X72688000Y-62716234D01*
X77317000Y-62716234D01*
X77317000Y-62867766D01*
X77351586Y-62996847D01*
X77356220Y-63014139D01*
X77431981Y-63145360D01*
X77431983Y-63145362D01*
X77431985Y-63145365D01*
X77539135Y-63252515D01*
X77539137Y-63252516D01*
X77539139Y-63252518D01*
X77670361Y-63328279D01*
X77670359Y-63328279D01*
X77670363Y-63328280D01*
X77670365Y-63328281D01*
X77816734Y-63367500D01*
X77816736Y-63367500D01*
X77968264Y-63367500D01*
X77968266Y-63367500D01*
X78114635Y-63328281D01*
X78114637Y-63328279D01*
X78114639Y-63328279D01*
X78245860Y-63252518D01*
X78245860Y-63252517D01*
X78245865Y-63252515D01*
X78353015Y-63145365D01*
X78428781Y-63014135D01*
X78468000Y-62867766D01*
X78468000Y-62716234D01*
X78428781Y-62569865D01*
X78428779Y-62569862D01*
X78428779Y-62569860D01*
X78353018Y-62438639D01*
X78353016Y-62438637D01*
X78353015Y-62438635D01*
X78245865Y-62331485D01*
X78245862Y-62331483D01*
X78245860Y-62331481D01*
X78114638Y-62255720D01*
X78114640Y-62255720D01*
X78057847Y-62240503D01*
X77968266Y-62216500D01*
X77816734Y-62216500D01*
X77727152Y-62240503D01*
X77670360Y-62255720D01*
X77539139Y-62331481D01*
X77431981Y-62438639D01*
X77356220Y-62569860D01*
X77356219Y-62569865D01*
X77317000Y-62716234D01*
X72688000Y-62716234D01*
X72648781Y-62569865D01*
X72648779Y-62569862D01*
X72648779Y-62569860D01*
X72573018Y-62438639D01*
X72573016Y-62438637D01*
X72573015Y-62438635D01*
X72465865Y-62331485D01*
X72465862Y-62331483D01*
X72465860Y-62331481D01*
X72334638Y-62255720D01*
X72334640Y-62255720D01*
X72277847Y-62240503D01*
X72188266Y-62216500D01*
X72036734Y-62216500D01*
X71947152Y-62240503D01*
X71890360Y-62255720D01*
X71759139Y-62331481D01*
X71651981Y-62438639D01*
X71576220Y-62569860D01*
X71576219Y-62569865D01*
X71537000Y-62716234D01*
X66505000Y-62716234D01*
X66505000Y-61007000D01*
X68784855Y-61007000D01*
X68805360Y-61175872D01*
X68865682Y-61334930D01*
X68962317Y-61474929D01*
X69089648Y-61587734D01*
X69240275Y-61666790D01*
X69405444Y-61707500D01*
X69405447Y-61707500D01*
X69575553Y-61707500D01*
X69575556Y-61707500D01*
X69740725Y-61666790D01*
X69891352Y-61587734D01*
X70018683Y-61474929D01*
X70115318Y-61334930D01*
X70175640Y-61175872D01*
X70196145Y-61007000D01*
X70175640Y-60838128D01*
X70115318Y-60679070D01*
X70018683Y-60539071D01*
X69891352Y-60426266D01*
X69740725Y-60347210D01*
X69740724Y-60347209D01*
X69740723Y-60347209D01*
X69575558Y-60306500D01*
X69575556Y-60306500D01*
X69405444Y-60306500D01*
X69405441Y-60306500D01*
X69240276Y-60347209D01*
X69089646Y-60426267D01*
X68962318Y-60539069D01*
X68962317Y-60539071D01*
X68865682Y-60679070D01*
X68805360Y-60838128D01*
X68784855Y-61007000D01*
X66505000Y-61007000D01*
X66505000Y-59520350D01*
X66523907Y-59462159D01*
X66573407Y-59426195D01*
X66634593Y-59426195D01*
X66684091Y-59462157D01*
X66777605Y-59590868D01*
X66956632Y-59769895D01*
X67161462Y-59918713D01*
X67387050Y-60033656D01*
X67627842Y-60111894D01*
X67627843Y-60111894D01*
X67627846Y-60111895D01*
X67877905Y-60151500D01*
X67877908Y-60151500D01*
X68131095Y-60151500D01*
X68381153Y-60111895D01*
X68381154Y-60111894D01*
X68381158Y-60111894D01*
X68621950Y-60033656D01*
X68847538Y-59918713D01*
X69052368Y-59769895D01*
X69231395Y-59590868D01*
X69380213Y-59386038D01*
X69495156Y-59160450D01*
X69573394Y-58919658D01*
X69613000Y-58669592D01*
X69613000Y-58416408D01*
X69613000Y-58416404D01*
X69573395Y-58166346D01*
X69573394Y-58166342D01*
X69495156Y-57925550D01*
X69380213Y-57699962D01*
X69231395Y-57495132D01*
X69052368Y-57316105D01*
X68923657Y-57222591D01*
X68887695Y-57173093D01*
X68887695Y-57111907D01*
X68923659Y-57062407D01*
X68981850Y-57043500D01*
X81938608Y-57043500D01*
X82000960Y-57043500D01*
X82008022Y-57043752D01*
G37*
%TD.AperFunction*%
M02*
