M48
; DRILL file {KiCad 8.0.4} date 2024-08-22T18:58:12-0700
; FORMAT={-:-/ absolute / inch / decimal}
; #@! TF.CreationDate,2024-08-22T18:58:12-07:00
; #@! TF.GenerationSoftware,Kicad,Pcbnew,8.0.4
; #@! TF.FileFunction,Plated,1,4,PTH
FMAT,2
INCH
; #@! TA.AperFunction,Plated,PTH,ViaDrill
T1C0.0118
; #@! TA.AperFunction,Plated,PTH,ViaDrill
T2C0.0157
; #@! TA.AperFunction,Plated,PTH,ComponentDrill
T3C0.0157
; #@! TA.AperFunction,Plated,PTH,ViaDrill
T4C0.0197
; #@! TA.AperFunction,Plated,PTH,ComponentDrill
T5C0.0236
; #@! TA.AperFunction,Plated,PTH,ComponentDrill
T6C0.0866
%
G90
G05
T1
X2.8367Y-2.6352
X2.9018Y-2.6356
X2.9214Y-2.73
X2.9293Y-2.7852
X2.9529Y-2.6434
X3.0041Y-2.6356
X3.0246Y-2.6001
T2
X3.1773Y-2.546
X3.2403Y-2.546
T3
X2.8348Y-2.793
X2.8663Y-2.793
X2.8663Y-2.8206
X2.8663Y-2.8481
X3.0395Y-2.793
X3.0395Y-2.8206
X3.0395Y-2.8481
X3.0691Y-2.793
T4
X2.6866Y-2.6335
X2.7358Y-2.4019
X2.8037Y-2.7342
X2.8505Y-2.5765
X3.0552Y-2.5763
T6
X3.2285Y-2.3048
T5
G00X2.7836Y-2.3403
M15
G01X2.7836Y-2.3167
M16
G05
G00X2.7836Y-2.5155
M15
G01X2.7836Y-2.4722
M16
G05
G00X3.1221Y-2.3403
M15
G01X3.1221Y-2.3167
M16
G05
G00X3.1221Y-2.5155
M15
G01X3.1221Y-2.4722
M16
G05
M30
