%TF.GenerationSoftware,KiCad,Pcbnew,8.0.4*%
%TF.CreationDate,2024-08-22T18:58:07-07:00*%
%TF.ProjectId,UDB,5544422e-6b69-4636-9164-5f7063625858,C4-RC1*%
%TF.SameCoordinates,Original*%
%TF.FileFunction,Copper,L2,Inr*%
%TF.FilePolarity,Positive*%
%FSLAX46Y46*%
G04 Gerber Fmt 4.6, Leading zero omitted, Abs format (unit mm)*
G04 Created by KiCad (PCBNEW 8.0.4) date 2024-08-22 18:58:07*
%MOMM*%
%LPD*%
G01*
G04 APERTURE LIST*
%TA.AperFunction,ComponentPad*%
%ADD10C,3.500001*%
%TD*%
%TA.AperFunction,ComponentPad*%
%ADD11C,0.600000*%
%TD*%
%TA.AperFunction,ComponentPad*%
%ADD12O,1.300000X1.900000*%
%TD*%
%TA.AperFunction,ComponentPad*%
%ADD13O,1.100000X2.200000*%
%TD*%
%TA.AperFunction,ViaPad*%
%ADD14C,0.600000*%
%TD*%
%TA.AperFunction,ViaPad*%
%ADD15C,0.800000*%
%TD*%
%TA.AperFunction,ViaPad*%
%ADD16C,1.000000*%
%TD*%
%TA.AperFunction,Conductor*%
%ADD17C,0.200000*%
%TD*%
%TA.AperFunction,Conductor*%
%ADD18C,0.500000*%
%TD*%
G04 APERTURE END LIST*
D10*
X82004500Y-58543000D03*
D11*
X77954500Y-70943000D03*
X77204500Y-72343000D03*
X77204500Y-71643000D03*
X77204500Y-70943000D03*
X72804500Y-72343000D03*
X72804500Y-71643000D03*
X72804500Y-70943000D03*
X72004500Y-70943000D03*
D12*
X70702500Y-59143000D03*
D13*
X70702500Y-63343000D03*
D12*
X79302500Y-59143000D03*
D13*
X79302500Y-63343000D03*
D14*
X75002500Y-67143000D03*
D15*
X80702500Y-64668000D03*
D14*
X76825978Y-66043018D03*
X72052500Y-66933000D03*
D15*
X82302500Y-64668000D03*
D14*
X74404500Y-70743000D03*
X73704500Y-66943000D03*
X74204500Y-69343000D03*
X76304500Y-66943000D03*
D16*
X77602500Y-65437300D03*
X72402500Y-65443000D03*
X69490500Y-61007000D03*
X71214500Y-69448000D03*
X68240500Y-66890000D03*
D17*
X80702500Y-65073000D02*
X79425393Y-66350107D01*
X80702500Y-64668000D02*
X80702500Y-65073000D01*
X77840174Y-66643000D02*
X78718286Y-66643000D01*
X76825978Y-66043018D02*
X77133067Y-66350107D01*
X77133067Y-66350107D02*
G75*
G03*
X77840174Y-66643019I707133J707107D01*
G01*
X79425393Y-66350107D02*
G75*
G02*
X78718286Y-66642990I-707093J707107D01*
G01*
X72052500Y-66933000D02*
X72840713Y-67721213D01*
X81716713Y-66468787D02*
X80464287Y-67721213D01*
X82302500Y-64668000D02*
X82302500Y-65054573D01*
X74254927Y-68307000D02*
X79050073Y-68307000D01*
X81716713Y-66468787D02*
G75*
G03*
X82302481Y-65054573I-1414213J1414187D01*
G01*
X72840713Y-67721213D02*
G75*
G03*
X74254927Y-68306981I1414187J1414213D01*
G01*
X80464287Y-67721213D02*
G75*
G02*
X79050073Y-68306981I-1414187J1414213D01*
G01*
D18*
X77040987Y-64875787D02*
X77602500Y-65437300D01*
X69324601Y-61172899D02*
X69490500Y-61007000D01*
X72402500Y-65443000D02*
X72969714Y-64875786D01*
X72402500Y-65443000D02*
X70238814Y-65443000D01*
X74383927Y-64290000D02*
X75626773Y-64290000D01*
X68738814Y-63943000D02*
X68738814Y-62587113D01*
X72969714Y-64875786D02*
G75*
G02*
X74383927Y-64290019I1414186J-1414214D01*
G01*
X69324601Y-61172899D02*
G75*
G03*
X68738819Y-62587113I1414199J-1414201D01*
G01*
X77040987Y-64875787D02*
G75*
G03*
X75626773Y-64290019I-1414187J-1414213D01*
G01*
X68738814Y-63943000D02*
G75*
G03*
X70238814Y-65442986I1499986J0D01*
G01*
X68240500Y-66890000D02*
X68240500Y-67659786D01*
X70028714Y-69448000D02*
X71214500Y-69448000D01*
X68533393Y-68366893D02*
X69321607Y-69155107D01*
X68240500Y-67659786D02*
G75*
G03*
X68533386Y-68366900I1000000J-14D01*
G01*
X70028714Y-69448000D02*
G75*
G02*
X69321600Y-69155114I-14J1000000D01*
G01*
%TA.AperFunction,Conductor*%
G36*
X82008022Y-57043752D02*
G01*
X82033005Y-57045538D01*
X82210845Y-57058258D01*
X82224808Y-57060265D01*
X82420049Y-57102737D01*
X82433588Y-57106713D01*
X82620792Y-57176537D01*
X82633618Y-57182394D01*
X82808976Y-57278146D01*
X82820856Y-57285781D01*
X82980794Y-57405509D01*
X82991466Y-57414756D01*
X83132743Y-57556033D01*
X83141993Y-57566709D01*
X83261718Y-57726643D01*
X83269354Y-57738525D01*
X83365102Y-57913875D01*
X83370966Y-57926715D01*
X83440784Y-58113904D01*
X83444764Y-58127457D01*
X83487232Y-58322681D01*
X83489242Y-58336662D01*
X83503748Y-58539476D01*
X83504000Y-58546539D01*
X83504000Y-70079260D01*
X83485093Y-70137451D01*
X83435593Y-70173415D01*
X83374407Y-70173415D01*
X83324907Y-70137451D01*
X83303357Y-70107790D01*
X83225293Y-70000344D01*
X83047156Y-69822207D01*
X82843345Y-69674130D01*
X82843344Y-69674129D01*
X82843342Y-69674128D01*
X82618879Y-69559759D01*
X82379280Y-69481908D01*
X82130465Y-69442500D01*
X82130462Y-69442500D01*
X81878538Y-69442500D01*
X81878535Y-69442500D01*
X81629719Y-69481908D01*
X81390120Y-69559759D01*
X81165657Y-69674128D01*
X80961845Y-69822206D01*
X80783706Y-70000345D01*
X80635628Y-70204157D01*
X80521259Y-70428620D01*
X80443408Y-70668219D01*
X80404000Y-70917034D01*
X80404000Y-71168965D01*
X80443408Y-71417780D01*
X80468353Y-71494551D01*
X80521259Y-71657379D01*
X80635630Y-71881845D01*
X80783707Y-72085656D01*
X80961844Y-72263793D01*
X81098952Y-72363408D01*
X81134916Y-72412907D01*
X81134916Y-72474093D01*
X81098952Y-72523593D01*
X81040761Y-72542500D01*
X78703500Y-72542500D01*
X78645309Y-72523593D01*
X78609345Y-72474093D01*
X78604500Y-72443500D01*
X78604500Y-70843001D01*
X78604500Y-70843000D01*
X78587463Y-70713590D01*
X78567894Y-70666346D01*
X78537514Y-70593002D01*
X78537513Y-70593001D01*
X78537513Y-70593000D01*
X78458053Y-70489447D01*
X78354500Y-70409987D01*
X78354499Y-70409986D01*
X78354497Y-70409985D01*
X78233914Y-70360038D01*
X78233906Y-70360036D01*
X78104501Y-70343000D01*
X78104500Y-70343000D01*
X77004500Y-70343000D01*
X77004498Y-70343000D01*
X76875093Y-70360036D01*
X76875085Y-70360038D01*
X76754502Y-70409985D01*
X76650947Y-70489446D01*
X76650946Y-70489447D01*
X76571485Y-70593002D01*
X76521538Y-70713585D01*
X76521536Y-70713593D01*
X76504500Y-70842998D01*
X76504500Y-72443500D01*
X76485593Y-72501691D01*
X76436093Y-72537655D01*
X76405500Y-72542500D01*
X73603500Y-72542500D01*
X73545309Y-72523593D01*
X73509345Y-72474093D01*
X73504500Y-72443500D01*
X73504500Y-70843001D01*
X73504500Y-70843000D01*
X73491334Y-70742997D01*
X73898853Y-70742997D01*
X73898853Y-70743002D01*
X73919334Y-70885456D01*
X73961191Y-70977108D01*
X73979123Y-71016373D01*
X74073372Y-71125143D01*
X74073373Y-71125144D01*
X74180908Y-71194252D01*
X74194447Y-71202953D01*
X74300903Y-71234211D01*
X74332535Y-71243499D01*
X74332536Y-71243499D01*
X74332539Y-71243500D01*
X74332541Y-71243500D01*
X74476459Y-71243500D01*
X74476461Y-71243500D01*
X74614553Y-71202953D01*
X74735628Y-71125143D01*
X74829877Y-71016373D01*
X74889665Y-70885457D01*
X74910147Y-70743000D01*
X74899125Y-70666342D01*
X74889665Y-70600543D01*
X74886220Y-70593000D01*
X74829877Y-70469627D01*
X74735628Y-70360857D01*
X74735627Y-70360856D01*
X74735626Y-70360855D01*
X74614557Y-70283049D01*
X74614554Y-70283047D01*
X74614553Y-70283047D01*
X74614550Y-70283046D01*
X74476464Y-70242500D01*
X74476461Y-70242500D01*
X74332539Y-70242500D01*
X74332535Y-70242500D01*
X74194449Y-70283046D01*
X74194442Y-70283049D01*
X74073373Y-70360855D01*
X73979122Y-70469628D01*
X73919334Y-70600543D01*
X73898853Y-70742997D01*
X73491334Y-70742997D01*
X73487463Y-70713590D01*
X73467894Y-70666346D01*
X73437514Y-70593002D01*
X73437513Y-70593001D01*
X73437513Y-70593000D01*
X73358053Y-70489447D01*
X73254500Y-70409987D01*
X73254499Y-70409986D01*
X73254497Y-70409985D01*
X73133914Y-70360038D01*
X73133906Y-70360036D01*
X73004501Y-70343000D01*
X73004500Y-70343000D01*
X71804500Y-70343000D01*
X71804498Y-70343000D01*
X71675093Y-70360036D01*
X71675085Y-70360038D01*
X71554502Y-70409985D01*
X71450947Y-70489446D01*
X71450946Y-70489447D01*
X71371485Y-70593002D01*
X71321538Y-70713585D01*
X71321536Y-70713593D01*
X71304500Y-70842998D01*
X71304500Y-72443500D01*
X71285593Y-72501691D01*
X71236093Y-72537655D01*
X71205500Y-72542500D01*
X68981850Y-72542500D01*
X68923659Y-72523593D01*
X68887695Y-72474093D01*
X68887695Y-72412907D01*
X68923657Y-72363408D01*
X69052368Y-72269895D01*
X69231395Y-72090868D01*
X69380213Y-71886038D01*
X69495156Y-71660450D01*
X69573394Y-71419658D01*
X69573691Y-71417785D01*
X69613000Y-71169595D01*
X69613000Y-70916404D01*
X69573395Y-70666346D01*
X69573394Y-70666342D01*
X69495156Y-70425550D01*
X69380213Y-70199962D01*
X69231395Y-69995132D01*
X69052368Y-69816105D01*
X68847538Y-69667287D01*
X68847537Y-69667286D01*
X68847535Y-69667285D01*
X68621950Y-69552344D01*
X68381153Y-69474104D01*
X68131095Y-69434500D01*
X68131092Y-69434500D01*
X67877908Y-69434500D01*
X67877905Y-69434500D01*
X67627846Y-69474104D01*
X67387049Y-69552344D01*
X67161464Y-69667285D01*
X66956633Y-69816104D01*
X66777600Y-69995137D01*
X66684092Y-70123840D01*
X66634592Y-70159804D01*
X66573407Y-70159803D01*
X66523907Y-70123839D01*
X66505000Y-70065649D01*
X66505000Y-66890000D01*
X67534855Y-66890000D01*
X67555360Y-67058872D01*
X67615682Y-67217930D01*
X67712317Y-67357929D01*
X67756649Y-67397203D01*
X67787667Y-67449941D01*
X67790000Y-67471305D01*
X67790000Y-67725439D01*
X67790009Y-67725578D01*
X67790009Y-67754853D01*
X67814825Y-67943365D01*
X67864034Y-68127026D01*
X67864039Y-68127040D01*
X67936797Y-68302698D01*
X67936798Y-68302699D01*
X68031861Y-68467359D01*
X68031863Y-68467361D01*
X68031865Y-68467365D01*
X68139393Y-68607501D01*
X68147615Y-68618216D01*
X68170413Y-68641015D01*
X68170429Y-68641032D01*
X68214832Y-68685436D01*
X68214835Y-68685438D01*
X68214838Y-68685441D01*
X68256776Y-68727380D01*
X68256778Y-68727381D01*
X68256779Y-68727382D01*
X68961118Y-69431721D01*
X68961117Y-69431721D01*
X68961119Y-69431723D01*
X68961120Y-69431724D01*
X68974053Y-69444657D01*
X68974067Y-69444684D01*
X69003052Y-69473668D01*
X69003052Y-69473669D01*
X69070278Y-69540893D01*
X69070282Y-69540896D01*
X69070284Y-69540898D01*
X69221131Y-69656644D01*
X69251419Y-69674130D01*
X69385799Y-69751712D01*
X69491833Y-69795631D01*
X69561456Y-69824470D01*
X69561462Y-69824472D01*
X69561469Y-69824475D01*
X69745133Y-69873685D01*
X69933649Y-69898501D01*
X70028720Y-69898500D01*
X70629098Y-69898500D01*
X70687289Y-69917407D01*
X70694743Y-69923394D01*
X70813648Y-70028734D01*
X70964275Y-70107790D01*
X71129444Y-70148500D01*
X71129447Y-70148500D01*
X71299553Y-70148500D01*
X71299556Y-70148500D01*
X71464725Y-70107790D01*
X71615352Y-70028734D01*
X71742683Y-69915929D01*
X71839318Y-69775930D01*
X71899640Y-69616872D01*
X71920145Y-69448000D01*
X71919742Y-69444684D01*
X71916494Y-69417938D01*
X71907395Y-69342997D01*
X73698853Y-69342997D01*
X73698853Y-69343002D01*
X73719334Y-69485456D01*
X73753268Y-69559759D01*
X73779123Y-69616373D01*
X73873372Y-69725143D01*
X73873373Y-69725144D01*
X73952398Y-69775930D01*
X73994447Y-69802953D01*
X74100903Y-69834211D01*
X74132535Y-69843499D01*
X74132536Y-69843499D01*
X74132539Y-69843500D01*
X74132541Y-69843500D01*
X74276459Y-69843500D01*
X74276461Y-69843500D01*
X74414553Y-69802953D01*
X74535628Y-69725143D01*
X74629877Y-69616373D01*
X74689665Y-69485457D01*
X74710147Y-69343000D01*
X74689665Y-69200543D01*
X74629877Y-69069627D01*
X74535628Y-68960857D01*
X74535627Y-68960856D01*
X74535626Y-68960855D01*
X74414557Y-68883049D01*
X74414554Y-68883047D01*
X74414553Y-68883047D01*
X74414550Y-68883046D01*
X74276464Y-68842500D01*
X74276461Y-68842500D01*
X74132539Y-68842500D01*
X74132535Y-68842500D01*
X73994449Y-68883046D01*
X73994442Y-68883049D01*
X73873373Y-68960855D01*
X73779122Y-69069628D01*
X73719334Y-69200543D01*
X73698853Y-69342997D01*
X71907395Y-69342997D01*
X71899640Y-69279128D01*
X71839318Y-69120070D01*
X71742683Y-68980071D01*
X71734253Y-68972603D01*
X71615353Y-68867267D01*
X71615352Y-68867266D01*
X71464725Y-68788210D01*
X71464724Y-68788209D01*
X71464723Y-68788209D01*
X71299558Y-68747500D01*
X71299556Y-68747500D01*
X71129444Y-68747500D01*
X71129441Y-68747500D01*
X70964276Y-68788209D01*
X70813646Y-68867267D01*
X70728052Y-68943096D01*
X70708008Y-68960855D01*
X70694747Y-68972603D01*
X70638653Y-68997038D01*
X70629098Y-68997500D01*
X70033566Y-68997500D01*
X70023865Y-68997023D01*
X70006513Y-68995314D01*
X69931208Y-68987898D01*
X69912174Y-68984112D01*
X69827755Y-68958505D01*
X69809825Y-68951079D01*
X69732015Y-68909490D01*
X69715882Y-68898710D01*
X69643979Y-68839702D01*
X69636790Y-68833187D01*
X68855389Y-68051786D01*
X68848864Y-68044586D01*
X68789797Y-67972611D01*
X68779016Y-67956475D01*
X68737726Y-67879226D01*
X68737429Y-67878671D01*
X68730008Y-67860756D01*
X68704393Y-67776310D01*
X68700612Y-67757302D01*
X68691475Y-67664519D01*
X68691000Y-67654827D01*
X68691000Y-67471305D01*
X68709907Y-67413114D01*
X68724346Y-67397207D01*
X68768683Y-67357929D01*
X68865318Y-67217930D01*
X68925640Y-67058872D01*
X68940924Y-66932997D01*
X71546853Y-66932997D01*
X71546853Y-66933002D01*
X71567334Y-67075456D01*
X71627122Y-67206371D01*
X71627123Y-67206373D01*
X71721372Y-67315143D01*
X71721373Y-67315144D01*
X71787945Y-67357927D01*
X71842447Y-67392953D01*
X71948903Y-67424211D01*
X71980535Y-67433499D01*
X71980536Y-67433499D01*
X71980539Y-67433500D01*
X71980541Y-67433500D01*
X72087021Y-67433500D01*
X72145212Y-67452407D01*
X72157025Y-67462496D01*
X72590274Y-67895745D01*
X72590299Y-67895773D01*
X72599216Y-67904689D01*
X72599243Y-67904742D01*
X72659578Y-67965075D01*
X72719571Y-68025067D01*
X72921588Y-68186168D01*
X73140373Y-68323636D01*
X73373174Y-68435744D01*
X73617063Y-68521081D01*
X73868973Y-68578575D01*
X74125737Y-68607502D01*
X74254931Y-68607500D01*
X74302526Y-68607500D01*
X79002474Y-68607500D01*
X79050069Y-68607500D01*
X79089635Y-68607500D01*
X79096207Y-68607500D01*
X79096495Y-68607480D01*
X79179262Y-68607482D01*
X79436023Y-68578555D01*
X79687932Y-68521062D01*
X79931819Y-68435725D01*
X80164617Y-68323619D01*
X80383400Y-68186151D01*
X80585416Y-68025052D01*
X80643154Y-67967314D01*
X80643165Y-67967306D01*
X80648798Y-67961673D01*
X80667105Y-67943365D01*
X80676770Y-67933700D01*
X80676771Y-67933701D01*
X80710426Y-67900047D01*
X80710426Y-67900044D01*
X80717527Y-67892945D01*
X80717534Y-67892935D01*
X81888436Y-66722034D01*
X81888441Y-66722030D01*
X81895544Y-66714926D01*
X81895547Y-66714926D01*
X81900193Y-66710279D01*
X81900247Y-66710251D01*
X81929213Y-66681283D01*
X81929214Y-66681284D01*
X82020567Y-66589929D01*
X82181668Y-66387912D01*
X82319136Y-66169127D01*
X82431244Y-65936326D01*
X82516581Y-65692437D01*
X82574075Y-65440527D01*
X82596985Y-65237162D01*
X82622288Y-65181455D01*
X82635096Y-65169704D01*
X82730782Y-65096282D01*
X82827036Y-64970841D01*
X82887544Y-64824762D01*
X82908182Y-64668000D01*
X82887544Y-64511238D01*
X82827037Y-64365161D01*
X82827037Y-64365160D01*
X82730786Y-64239723D01*
X82730785Y-64239722D01*
X82730782Y-64239718D01*
X82730777Y-64239714D01*
X82730776Y-64239713D01*
X82605338Y-64143462D01*
X82459266Y-64082957D01*
X82459258Y-64082955D01*
X82302501Y-64062318D01*
X82302499Y-64062318D01*
X82145741Y-64082955D01*
X82145733Y-64082957D01*
X81999661Y-64143462D01*
X81999660Y-64143462D01*
X81874223Y-64239713D01*
X81874213Y-64239723D01*
X81777962Y-64365160D01*
X81777962Y-64365161D01*
X81717457Y-64511233D01*
X81717455Y-64511241D01*
X81696818Y-64667999D01*
X81696818Y-64668000D01*
X81717455Y-64824758D01*
X81717457Y-64824766D01*
X81777962Y-64970838D01*
X81777962Y-64970839D01*
X81865546Y-65084981D01*
X81874218Y-65096282D01*
X81874222Y-65096285D01*
X81951298Y-65155427D01*
X81985954Y-65205851D01*
X81989819Y-65240441D01*
X81987887Y-65269930D01*
X81986197Y-65282771D01*
X81945362Y-65488076D01*
X81942011Y-65500584D01*
X81874726Y-65698808D01*
X81869770Y-65710773D01*
X81777186Y-65898519D01*
X81770711Y-65909733D01*
X81769912Y-65910930D01*
X81654422Y-66083776D01*
X81646539Y-66094050D01*
X81506561Y-66253667D01*
X81502133Y-66258394D01*
X81479170Y-66281358D01*
X81479169Y-66281360D01*
X80285459Y-67475070D01*
X80285456Y-67475072D01*
X80254084Y-67506442D01*
X80249358Y-67510869D01*
X80089546Y-67651018D01*
X80079272Y-67658901D01*
X79905220Y-67775196D01*
X79894004Y-67781671D01*
X79706260Y-67874253D01*
X79694297Y-67879208D01*
X79496085Y-67946490D01*
X79483576Y-67949842D01*
X79278267Y-67990678D01*
X79265427Y-67992368D01*
X79053005Y-68006287D01*
X79046532Y-68006499D01*
X78994509Y-68006499D01*
X78994497Y-68006500D01*
X74310503Y-68006500D01*
X74310491Y-68006499D01*
X74258161Y-68006499D01*
X74251688Y-68006287D01*
X74039568Y-67992387D01*
X74026728Y-67990697D01*
X73821423Y-67949862D01*
X73808915Y-67946511D01*
X73610691Y-67879226D01*
X73598726Y-67874270D01*
X73410980Y-67781686D01*
X73399773Y-67775215D01*
X73225723Y-67658922D01*
X73215450Y-67651039D01*
X73055844Y-67511072D01*
X73051128Y-67506656D01*
X73019542Y-67475071D01*
X72583046Y-67038575D01*
X72555269Y-66984058D01*
X72555058Y-66954482D01*
X72556709Y-66942997D01*
X73198853Y-66942997D01*
X73198853Y-66943002D01*
X73219334Y-67085456D01*
X73274555Y-67206371D01*
X73279123Y-67216373D01*
X73364707Y-67315143D01*
X73373373Y-67325144D01*
X73494442Y-67402950D01*
X73494447Y-67402953D01*
X73575490Y-67426749D01*
X73632535Y-67443499D01*
X73632536Y-67443499D01*
X73632539Y-67443500D01*
X73632541Y-67443500D01*
X73776459Y-67443500D01*
X73776461Y-67443500D01*
X73914553Y-67402953D01*
X74035628Y-67325143D01*
X74129877Y-67216373D01*
X74189665Y-67085457D01*
X74210075Y-66943500D01*
X74210147Y-66943002D01*
X74210147Y-66942997D01*
X74189665Y-66800543D01*
X74185098Y-66790543D01*
X74129877Y-66669627D01*
X74035628Y-66560857D01*
X74035627Y-66560856D01*
X74035626Y-66560855D01*
X73914557Y-66483049D01*
X73914554Y-66483047D01*
X73914553Y-66483047D01*
X73914550Y-66483046D01*
X73776464Y-66442500D01*
X73776461Y-66442500D01*
X73632539Y-66442500D01*
X73632535Y-66442500D01*
X73494449Y-66483046D01*
X73494442Y-66483049D01*
X73373373Y-66560855D01*
X73279122Y-66669628D01*
X73219334Y-66800543D01*
X73198853Y-66942997D01*
X72556709Y-66942997D01*
X72558147Y-66933000D01*
X72555051Y-66911470D01*
X72537665Y-66790543D01*
X72521563Y-66755286D01*
X72477877Y-66659627D01*
X72383628Y-66550857D01*
X72383627Y-66550856D01*
X72383626Y-66550855D01*
X72262557Y-66473049D01*
X72262554Y-66473047D01*
X72262553Y-66473047D01*
X72262550Y-66473046D01*
X72124464Y-66432500D01*
X72124461Y-66432500D01*
X71980539Y-66432500D01*
X71980535Y-66432500D01*
X71842449Y-66473046D01*
X71842442Y-66473049D01*
X71721373Y-66550855D01*
X71627122Y-66659628D01*
X71567334Y-66790543D01*
X71546853Y-66932997D01*
X68940924Y-66932997D01*
X68946145Y-66890000D01*
X68925640Y-66721128D01*
X68865318Y-66562070D01*
X68768683Y-66422071D01*
X68730126Y-66387913D01*
X68641353Y-66309267D01*
X68641352Y-66309266D01*
X68490725Y-66230210D01*
X68490724Y-66230209D01*
X68490723Y-66230209D01*
X68325558Y-66189500D01*
X68325556Y-66189500D01*
X68155444Y-66189500D01*
X68155441Y-66189500D01*
X67990276Y-66230209D01*
X67839646Y-66309267D01*
X67712318Y-66422069D01*
X67712316Y-66422072D01*
X67638549Y-66528941D01*
X67615682Y-66562070D01*
X67555360Y-66721128D01*
X67555250Y-66722038D01*
X67539929Y-66848216D01*
X67534855Y-66890000D01*
X66505000Y-66890000D01*
X66505000Y-63902022D01*
X68288300Y-63902022D01*
X68288300Y-63943000D01*
X68288300Y-64070843D01*
X68316929Y-64288304D01*
X68321673Y-64324334D01*
X68321673Y-64324339D01*
X68387850Y-64571316D01*
X68485700Y-64807544D01*
X68485701Y-64807545D01*
X68613541Y-65028967D01*
X68769190Y-65231813D01*
X68769192Y-65231815D01*
X68769196Y-65231820D01*
X68949994Y-65412617D01*
X68989592Y-65443001D01*
X69152842Y-65568266D01*
X69152851Y-65568272D01*
X69374275Y-65696108D01*
X69374277Y-65696109D01*
X69457800Y-65730705D01*
X69610493Y-65793952D01*
X69610501Y-65793955D01*
X69857476Y-65860129D01*
X70110975Y-65893501D01*
X70238818Y-65893500D01*
X71817098Y-65893500D01*
X71875289Y-65912407D01*
X71882743Y-65918394D01*
X72001648Y-66023734D01*
X72152275Y-66102790D01*
X72317444Y-66143500D01*
X72317447Y-66143500D01*
X72487553Y-66143500D01*
X72487556Y-66143500D01*
X72652725Y-66102790D01*
X72803352Y-66023734D01*
X72930683Y-65910929D01*
X73027318Y-65770930D01*
X73087640Y-65611872D01*
X73108145Y-65443000D01*
X73106534Y-65429735D01*
X73118285Y-65369691D01*
X73134804Y-65347798D01*
X73285987Y-65196616D01*
X73290668Y-65192231D01*
X73435788Y-65064967D01*
X73446028Y-65057110D01*
X73603789Y-64951700D01*
X73614988Y-64945235D01*
X73785142Y-64861326D01*
X73797100Y-64856374D01*
X73976737Y-64795398D01*
X73989239Y-64792047D01*
X74175317Y-64755036D01*
X74188140Y-64753349D01*
X74353705Y-64742500D01*
X74380993Y-64740712D01*
X74387466Y-64740500D01*
X74443230Y-64740500D01*
X75567470Y-64740500D01*
X75623540Y-64740500D01*
X75630013Y-64740712D01*
X75651571Y-64742124D01*
X75822562Y-64753330D01*
X75835385Y-64755017D01*
X75977128Y-64783210D01*
X76021462Y-64792028D01*
X76033970Y-64795380D01*
X76120518Y-64824758D01*
X76200470Y-64851897D01*
X76213604Y-64856355D01*
X76225567Y-64861309D01*
X76395719Y-64945216D01*
X76406924Y-64951685D01*
X76564676Y-65057090D01*
X76574941Y-65064966D01*
X76584986Y-65073776D01*
X76719785Y-65191990D01*
X76724510Y-65196415D01*
X76743403Y-65215306D01*
X76743405Y-65215311D01*
X76743407Y-65215310D01*
X76870191Y-65342094D01*
X76897968Y-65396611D01*
X76898466Y-65424026D01*
X76896855Y-65437299D01*
X76896855Y-65443289D01*
X76893854Y-65443289D01*
X76884446Y-65491558D01*
X76839677Y-65533264D01*
X76797883Y-65542518D01*
X76754013Y-65542518D01*
X76615927Y-65583064D01*
X76615920Y-65583067D01*
X76494851Y-65660873D01*
X76400600Y-65769646D01*
X76340812Y-65900561D01*
X76320331Y-66043015D01*
X76320331Y-66043020D01*
X76340812Y-66185474D01*
X76394199Y-66302373D01*
X76401174Y-66363160D01*
X76371088Y-66416437D01*
X76315432Y-66441855D01*
X76304146Y-66442500D01*
X76232535Y-66442500D01*
X76094449Y-66483046D01*
X76094442Y-66483049D01*
X75973373Y-66560855D01*
X75879122Y-66669628D01*
X75819334Y-66800543D01*
X75798853Y-66942997D01*
X75798853Y-66943002D01*
X75819334Y-67085456D01*
X75874555Y-67206371D01*
X75879123Y-67216373D01*
X75964707Y-67315143D01*
X75973373Y-67325144D01*
X76094442Y-67402950D01*
X76094447Y-67402953D01*
X76175490Y-67426749D01*
X76232535Y-67443499D01*
X76232536Y-67443499D01*
X76232539Y-67443500D01*
X76232541Y-67443500D01*
X76376459Y-67443500D01*
X76376461Y-67443500D01*
X76514553Y-67402953D01*
X76635628Y-67325143D01*
X76729877Y-67216373D01*
X76789665Y-67085457D01*
X76810075Y-66943500D01*
X76810147Y-66943002D01*
X76810147Y-66942997D01*
X76789665Y-66800543D01*
X76736279Y-66683645D01*
X76729304Y-66622858D01*
X76759390Y-66569581D01*
X76815046Y-66544163D01*
X76826332Y-66543518D01*
X76860500Y-66543518D01*
X76918691Y-66562425D01*
X76930497Y-66572508D01*
X76948556Y-66590567D01*
X76948558Y-66590568D01*
X76953104Y-66595114D01*
X76953303Y-66595288D01*
X76992956Y-66634944D01*
X76992960Y-66634947D01*
X76992962Y-66634949D01*
X77158567Y-66755273D01*
X77340955Y-66848209D01*
X77535636Y-66911470D01*
X77737816Y-66943497D01*
X77791160Y-66943497D01*
X77791178Y-66943500D01*
X77800612Y-66943500D01*
X77840166Y-66943500D01*
X77887761Y-66943501D01*
X77887764Y-66943500D01*
X78670687Y-66943500D01*
X78718282Y-66943500D01*
X78757848Y-66943500D01*
X78764678Y-66943500D01*
X78764817Y-66943490D01*
X78820633Y-66943491D01*
X78939683Y-66924636D01*
X79022812Y-66911472D01*
X79022814Y-66911471D01*
X79022816Y-66911471D01*
X79217500Y-66848217D01*
X79399893Y-66755286D01*
X79399913Y-66755272D01*
X79461880Y-66710251D01*
X79565502Y-66634967D01*
X79600382Y-66600085D01*
X79600388Y-66600081D01*
X79609902Y-66590567D01*
X79609904Y-66590567D01*
X79637876Y-66562595D01*
X79671531Y-66528941D01*
X79671531Y-66528940D01*
X79679673Y-66520799D01*
X79679680Y-66520789D01*
X80942960Y-65257511D01*
X80955222Y-65236273D01*
X80955815Y-65235244D01*
X81001249Y-65194269D01*
X81003631Y-65193244D01*
X81005341Y-65192536D01*
X81130782Y-65096282D01*
X81227036Y-64970841D01*
X81287544Y-64824762D01*
X81308182Y-64668000D01*
X81287544Y-64511238D01*
X81227037Y-64365161D01*
X81227037Y-64365160D01*
X81130786Y-64239723D01*
X81130785Y-64239722D01*
X81130782Y-64239718D01*
X81130777Y-64239714D01*
X81130776Y-64239713D01*
X81005338Y-64143462D01*
X80859266Y-64082957D01*
X80859258Y-64082955D01*
X80702501Y-64062318D01*
X80702499Y-64062318D01*
X80545741Y-64082955D01*
X80545733Y-64082957D01*
X80399661Y-64143462D01*
X80399660Y-64143462D01*
X80274223Y-64239713D01*
X80274213Y-64239723D01*
X80177962Y-64365160D01*
X80177962Y-64365161D01*
X80117457Y-64511233D01*
X80117455Y-64511241D01*
X80096818Y-64667999D01*
X80096818Y-64668000D01*
X80117455Y-64824758D01*
X80117457Y-64824766D01*
X80177962Y-64970838D01*
X80177963Y-64970839D01*
X80177964Y-64970841D01*
X80194294Y-64992123D01*
X80212693Y-65016100D01*
X80233117Y-65073776D01*
X80215740Y-65132442D01*
X80204155Y-65146371D01*
X79246564Y-66103964D01*
X79246562Y-66103966D01*
X79216346Y-66134181D01*
X79209148Y-66140705D01*
X79114447Y-66218422D01*
X79098311Y-66229204D01*
X78994575Y-66284651D01*
X78976643Y-66292078D01*
X78864080Y-66326221D01*
X78845046Y-66330006D01*
X78723026Y-66342022D01*
X78713324Y-66342499D01*
X78662723Y-66342499D01*
X78662711Y-66342500D01*
X77845046Y-66342500D01*
X77835341Y-66342023D01*
X77815805Y-66340098D01*
X77713418Y-66330011D01*
X77694397Y-66326228D01*
X77693500Y-66325956D01*
X77643299Y-66290976D01*
X77623247Y-66233170D01*
X77641002Y-66174617D01*
X77689783Y-66137684D01*
X77698527Y-66135095D01*
X77824836Y-66103964D01*
X77852722Y-66097091D01*
X77852722Y-66097090D01*
X77852725Y-66097090D01*
X78003352Y-66018034D01*
X78130683Y-65905229D01*
X78227318Y-65765230D01*
X78287640Y-65606172D01*
X78308145Y-65437300D01*
X78287640Y-65268428D01*
X78227318Y-65109370D01*
X78130683Y-64969371D01*
X78128687Y-64967603D01*
X78005490Y-64858460D01*
X78003352Y-64856566D01*
X77852725Y-64777510D01*
X77852724Y-64777509D01*
X77852723Y-64777509D01*
X77687558Y-64736800D01*
X77687556Y-64736800D01*
X77580111Y-64736800D01*
X77521920Y-64717893D01*
X77510107Y-64707804D01*
X77401475Y-64599172D01*
X77401473Y-64599169D01*
X77388543Y-64586238D01*
X77388515Y-64586184D01*
X77262241Y-64459912D01*
X77262238Y-64459909D01*
X77143422Y-64365159D01*
X77047050Y-64288306D01*
X77047046Y-64288304D01*
X76813998Y-64141873D01*
X76666499Y-64070843D01*
X76566019Y-64022455D01*
X76306280Y-63931573D01*
X76306226Y-63931554D01*
X76306225Y-63931553D01*
X76306223Y-63931553D01*
X76037890Y-63870311D01*
X75764385Y-63839498D01*
X75626767Y-63839500D01*
X74318370Y-63839500D01*
X74318077Y-63839518D01*
X74246313Y-63839518D01*
X73972813Y-63870330D01*
X73704485Y-63931571D01*
X73671822Y-63943000D01*
X73444691Y-64022474D01*
X73444684Y-64022476D01*
X73444679Y-64022479D01*
X73196710Y-64141891D01*
X72963670Y-64288315D01*
X72748477Y-64459923D01*
X72696567Y-64511831D01*
X72696524Y-64511871D01*
X72494891Y-64713504D01*
X72440375Y-64741281D01*
X72424888Y-64742500D01*
X72317441Y-64742500D01*
X72152276Y-64783209D01*
X72001646Y-64862267D01*
X71882747Y-64967603D01*
X71826653Y-64992038D01*
X71817098Y-64992500D01*
X70243128Y-64992500D01*
X70234500Y-64992123D01*
X70233528Y-64992038D01*
X70227144Y-64991479D01*
X70065195Y-64977311D01*
X70048201Y-64974315D01*
X69888225Y-64931452D01*
X69872008Y-64925550D01*
X69721903Y-64855556D01*
X69706958Y-64846927D01*
X69571293Y-64751934D01*
X69558074Y-64740842D01*
X69440963Y-64623733D01*
X69429870Y-64610513D01*
X69421929Y-64599172D01*
X69334873Y-64474844D01*
X69326247Y-64459903D01*
X69282068Y-64365161D01*
X69256252Y-64309799D01*
X69250353Y-64293593D01*
X69207482Y-64133600D01*
X69204489Y-64116620D01*
X69189691Y-63947469D01*
X69189314Y-63938841D01*
X69189314Y-62716234D01*
X71537000Y-62716234D01*
X71537000Y-62867766D01*
X71571586Y-62996847D01*
X71576220Y-63014139D01*
X71651981Y-63145360D01*
X71651983Y-63145362D01*
X71651985Y-63145365D01*
X71759135Y-63252515D01*
X71759137Y-63252516D01*
X71759139Y-63252518D01*
X71890361Y-63328279D01*
X71890359Y-63328279D01*
X71890363Y-63328280D01*
X71890365Y-63328281D01*
X72036734Y-63367500D01*
X72036736Y-63367500D01*
X72188264Y-63367500D01*
X72188266Y-63367500D01*
X72334635Y-63328281D01*
X72334637Y-63328279D01*
X72334639Y-63328279D01*
X72465860Y-63252518D01*
X72465860Y-63252517D01*
X72465865Y-63252515D01*
X72573015Y-63145365D01*
X72648781Y-63014135D01*
X72688000Y-62867766D01*
X72688000Y-62716234D01*
X77317000Y-62716234D01*
X77317000Y-62867766D01*
X77351586Y-62996847D01*
X77356220Y-63014139D01*
X77431981Y-63145360D01*
X77431983Y-63145362D01*
X77431985Y-63145365D01*
X77539135Y-63252515D01*
X77539137Y-63252516D01*
X77539139Y-63252518D01*
X77670361Y-63328279D01*
X77670359Y-63328279D01*
X77670363Y-63328280D01*
X77670365Y-63328281D01*
X77816734Y-63367500D01*
X77816736Y-63367500D01*
X77968264Y-63367500D01*
X77968266Y-63367500D01*
X78114635Y-63328281D01*
X78114637Y-63328279D01*
X78114639Y-63328279D01*
X78245860Y-63252518D01*
X78245860Y-63252517D01*
X78245865Y-63252515D01*
X78353015Y-63145365D01*
X78428781Y-63014135D01*
X78468000Y-62867766D01*
X78468000Y-62716234D01*
X78428781Y-62569865D01*
X78428779Y-62569862D01*
X78428779Y-62569860D01*
X78353018Y-62438639D01*
X78353016Y-62438637D01*
X78353015Y-62438635D01*
X78245865Y-62331485D01*
X78245862Y-62331483D01*
X78245860Y-62331481D01*
X78114638Y-62255720D01*
X78114640Y-62255720D01*
X78057847Y-62240503D01*
X77968266Y-62216500D01*
X77816734Y-62216500D01*
X77727152Y-62240503D01*
X77670360Y-62255720D01*
X77539139Y-62331481D01*
X77431981Y-62438639D01*
X77356220Y-62569860D01*
X77356219Y-62569865D01*
X77317000Y-62716234D01*
X72688000Y-62716234D01*
X72648781Y-62569865D01*
X72648779Y-62569862D01*
X72648779Y-62569860D01*
X72573018Y-62438639D01*
X72573016Y-62438637D01*
X72573015Y-62438635D01*
X72465865Y-62331485D01*
X72465862Y-62331483D01*
X72465860Y-62331481D01*
X72334638Y-62255720D01*
X72334640Y-62255720D01*
X72277847Y-62240503D01*
X72188266Y-62216500D01*
X72036734Y-62216500D01*
X71947152Y-62240503D01*
X71890360Y-62255720D01*
X71759139Y-62331481D01*
X71651981Y-62438639D01*
X71576220Y-62569860D01*
X71576219Y-62569865D01*
X71537000Y-62716234D01*
X69189314Y-62716234D01*
X69189314Y-62590349D01*
X69189526Y-62583875D01*
X69190444Y-62569865D01*
X69202144Y-62391331D01*
X69203834Y-62378499D01*
X69240847Y-62192416D01*
X69244189Y-62179942D01*
X69305175Y-62000283D01*
X69310128Y-61988326D01*
X69394035Y-61818176D01*
X69400507Y-61806965D01*
X69437570Y-61751497D01*
X69485620Y-61713619D01*
X69519885Y-61707500D01*
X69575553Y-61707500D01*
X69575556Y-61707500D01*
X69740725Y-61666790D01*
X69891352Y-61587734D01*
X70018683Y-61474929D01*
X70115318Y-61334930D01*
X70175640Y-61175872D01*
X70196145Y-61007000D01*
X70175640Y-60838128D01*
X70115318Y-60679070D01*
X70018683Y-60539071D01*
X69891352Y-60426266D01*
X69740725Y-60347210D01*
X69740724Y-60347209D01*
X69740723Y-60347209D01*
X69575558Y-60306500D01*
X69575556Y-60306500D01*
X69405444Y-60306500D01*
X69405441Y-60306500D01*
X69240276Y-60347209D01*
X69089646Y-60426267D01*
X68962318Y-60539069D01*
X68962316Y-60539072D01*
X68865682Y-60679070D01*
X68805360Y-60838129D01*
X68784855Y-61006997D01*
X68784855Y-61007002D01*
X68790388Y-61052576D01*
X68778632Y-61112621D01*
X68769513Y-61126231D01*
X68737131Y-61166838D01*
X68590694Y-61399891D01*
X68500236Y-61587732D01*
X68471276Y-61647869D01*
X68450411Y-61707499D01*
X68380371Y-61907663D01*
X68319128Y-62175994D01*
X68288313Y-62449496D01*
X68288313Y-62449497D01*
X68288314Y-62527804D01*
X68288314Y-63901979D01*
X68288300Y-63902022D01*
X66505000Y-63902022D01*
X66505000Y-59520350D01*
X66523907Y-59462159D01*
X66573407Y-59426195D01*
X66634593Y-59426195D01*
X66684091Y-59462157D01*
X66777605Y-59590868D01*
X66956632Y-59769895D01*
X67161462Y-59918713D01*
X67387050Y-60033656D01*
X67627842Y-60111894D01*
X67627843Y-60111894D01*
X67627846Y-60111895D01*
X67877905Y-60151500D01*
X67877908Y-60151500D01*
X68131095Y-60151500D01*
X68381153Y-60111895D01*
X68381154Y-60111894D01*
X68381158Y-60111894D01*
X68621950Y-60033656D01*
X68847538Y-59918713D01*
X69052368Y-59769895D01*
X69231395Y-59590868D01*
X69380213Y-59386038D01*
X69495156Y-59160450D01*
X69573394Y-58919658D01*
X69613000Y-58669592D01*
X69613000Y-58416408D01*
X69613000Y-58416404D01*
X69573395Y-58166346D01*
X69573394Y-58166342D01*
X69495156Y-57925550D01*
X69380213Y-57699962D01*
X69231395Y-57495132D01*
X69052368Y-57316105D01*
X68923657Y-57222591D01*
X68887695Y-57173093D01*
X68887695Y-57111907D01*
X68923659Y-57062407D01*
X68981850Y-57043500D01*
X81938608Y-57043500D01*
X82000960Y-57043500D01*
X82008022Y-57043752D01*
G37*
%TD.AperFunction*%
M02*
