%TF.GenerationSoftware,KiCad,Pcbnew,8.0.4*%
%TF.CreationDate,2024-08-22T18:58:07-07:00*%
%TF.ProjectId,UDB,5544422e-6b69-4636-9164-5f7063625858,C4-RC1*%
%TF.SameCoordinates,Original*%
%TF.FileFunction,Soldermask,Top*%
%TF.FilePolarity,Negative*%
%FSLAX46Y46*%
G04 Gerber Fmt 4.6, Leading zero omitted, Abs format (unit mm)*
G04 Created by KiCad (PCBNEW 8.0.4) date 2024-08-22 18:58:07*
%MOMM*%
%LPD*%
G01*
G04 APERTURE LIST*
G04 Aperture macros list*
%AMRoundRect*
0 Rectangle with rounded corners*
0 $1 Rounding radius*
0 $2 $3 $4 $5 $6 $7 $8 $9 X,Y pos of 4 corners*
0 Add a 4 corners polygon primitive as box body*
4,1,4,$2,$3,$4,$5,$6,$7,$8,$9,$2,$3,0*
0 Add four circle primitives for the rounded corners*
1,1,$1+$1,$2,$3*
1,1,$1+$1,$4,$5*
1,1,$1+$1,$6,$7*
1,1,$1+$1,$8,$9*
0 Add four rect primitives between the rounded corners*
20,1,$1+$1,$2,$3,$4,$5,0*
20,1,$1+$1,$4,$5,$6,$7,0*
20,1,$1+$1,$6,$7,$8,$9,0*
20,1,$1+$1,$8,$9,$2,$3,0*%
G04 Aperture macros list end*
%ADD10RoundRect,0.250000X-0.625000X0.375000X-0.625000X-0.375000X0.625000X-0.375000X0.625000X0.375000X0*%
%ADD11C,3.500001*%
%ADD12RoundRect,0.135000X-0.185000X0.135000X-0.185000X-0.135000X0.185000X-0.135000X0.185000X0.135000X0*%
%ADD13RoundRect,0.100000X-0.250000X-0.400000X0.250000X-0.400000X0.250000X0.400000X-0.250000X0.400000X0*%
%ADD14RoundRect,0.125000X-0.250000X-0.475000X0.250000X-0.475000X0.250000X0.475000X-0.250000X0.475000X0*%
%ADD15O,1.300000X1.900000*%
%ADD16O,1.100000X2.200000*%
%ADD17RoundRect,0.075000X0.075000X0.650000X-0.075000X0.650000X-0.075000X-0.650000X0.075000X-0.650000X0*%
%ADD18RoundRect,0.150000X0.150000X0.575000X-0.150000X0.575000X-0.150000X-0.575000X0.150000X-0.575000X0*%
%ADD19C,0.650000*%
%ADD20RoundRect,0.125000X-0.000010X-0.150000X0.000010X-0.150000X0.000010X0.150000X-0.000010X0.150000X0*%
%ADD21R,0.250000X0.550000*%
%ADD22R,0.300000X0.550000*%
%ADD23RoundRect,0.250000X-0.250000X-0.350000X0.250000X-0.350000X0.250000X0.350000X-0.250000X0.350000X0*%
G04 APERTURE END LIST*
D10*
X67890500Y-64607000D03*
X67890500Y-61807000D03*
D11*
X68004500Y-71043000D03*
D12*
X82302500Y-66503000D03*
X82302500Y-65483000D03*
D11*
X68004500Y-58543000D03*
D12*
X80702500Y-66503000D03*
X80702500Y-65483000D03*
D11*
X82004500Y-58543000D03*
D13*
X77954500Y-72143000D03*
D14*
X76804500Y-68143000D03*
X75604500Y-68143000D03*
X74404500Y-68143000D03*
X73204500Y-68143000D03*
D13*
X72054500Y-72143000D03*
D15*
X70702500Y-59143000D03*
D16*
X70702500Y-63343000D03*
D15*
X79302500Y-59143000D03*
D16*
X79302500Y-63343000D03*
D17*
X76752500Y-64118000D03*
X75752500Y-64118000D03*
X74252500Y-64118000D03*
X73252500Y-64118000D03*
D18*
X72552500Y-64118000D03*
X71752500Y-64118000D03*
D17*
X73752500Y-64118000D03*
X74752500Y-64118000D03*
X75256500Y-64118000D03*
X76252500Y-64118000D03*
D18*
X77452500Y-64118000D03*
X78252500Y-64118000D03*
D19*
X72112500Y-62792000D03*
X77892500Y-62792000D03*
D20*
X74002500Y-66411400D03*
D21*
X74502500Y-66411400D03*
D22*
X75002500Y-66411400D03*
D21*
X75502500Y-66411400D03*
X76002500Y-66411400D03*
X76002500Y-65641400D03*
X75502500Y-65641400D03*
D22*
X75002500Y-65641400D03*
D21*
X74502500Y-65641400D03*
X74002500Y-65641400D03*
D11*
X82004500Y-71043000D03*
D23*
X70454500Y-66890000D03*
X67154500Y-66890000D03*
M02*
