%TF.GenerationSoftware,KiCad,Pcbnew,8.0.4*%
%TF.CreationDate,2024-08-21T21:41:38-07:00*%
%TF.ProjectId,udb-s,7564622d-732e-46b6-9963-61645f706362,rev?*%
%TF.SameCoordinates,Original*%
%TF.FileFunction,Copper,L4,Bot*%
%TF.FilePolarity,Positive*%
%FSLAX46Y46*%
G04 Gerber Fmt 4.6, Leading zero omitted, Abs format (unit mm)*
G04 Created by KiCad (PCBNEW 8.0.4) date 2024-08-21 21:41:38*
%MOMM*%
%LPD*%
G01*
G04 APERTURE LIST*
G04 Aperture macros list*
%AMRoundRect*
0 Rectangle with rounded corners*
0 $1 Rounding radius*
0 $2 $3 $4 $5 $6 $7 $8 $9 X,Y pos of 4 corners*
0 Add a 4 corners polygon primitive as box body*
4,1,4,$2,$3,$4,$5,$6,$7,$8,$9,$2,$3,0*
0 Add four circle primitives for the rounded corners*
1,1,$1+$1,$2,$3*
1,1,$1+$1,$4,$5*
1,1,$1+$1,$6,$7*
1,1,$1+$1,$8,$9*
0 Add four rect primitives between the rounded corners*
20,1,$1+$1,$2,$3,$4,$5,0*
20,1,$1+$1,$4,$5,$6,$7,0*
20,1,$1+$1,$6,$7,$8,$9,0*
20,1,$1+$1,$8,$9,$2,$3,0*%
G04 Aperture macros list end*
%TA.AperFunction,ComponentPad*%
%ADD10C,2.600000*%
%TD*%
%TA.AperFunction,ConnectorPad*%
%ADD11C,3.800000*%
%TD*%
%TA.AperFunction,ComponentPad*%
%ADD12C,0.600000*%
%TD*%
%TA.AperFunction,SMDPad,CuDef*%
%ADD13RoundRect,0.100000X-0.625000X-0.900000X0.625000X-0.900000X0.625000X0.900000X-0.625000X0.900000X0*%
%TD*%
%TA.AperFunction,ComponentPad*%
%ADD14O,1.100000X2.200000*%
%TD*%
%TA.AperFunction,ComponentPad*%
%ADD15O,1.300000X1.700000*%
%TD*%
%TA.AperFunction,ViaPad*%
%ADD16C,0.600000*%
%TD*%
%TA.AperFunction,ViaPad*%
%ADD17C,1.000000*%
%TD*%
%TA.AperFunction,Conductor*%
%ADD18C,0.500000*%
%TD*%
%TA.AperFunction,Conductor*%
%ADD19C,0.700000*%
%TD*%
G04 APERTURE END LIST*
D10*
%TO.P,H1,1,1*%
%TO.N,GNDPWR*%
X148011249Y-95000000D03*
D11*
X148011249Y-95000000D03*
%TD*%
D12*
%TO.P,J2,MP,MountPin*%
%TO.N,GND*%
X119000000Y-97300000D03*
D13*
X119425000Y-98000000D03*
D12*
X119800000Y-97300000D03*
X119800000Y-98000000D03*
X119800000Y-98700000D03*
X124200000Y-97300000D03*
X124200000Y-98000000D03*
X124200000Y-98700000D03*
D13*
X124575000Y-98000000D03*
D12*
X124950000Y-97300000D03*
%TD*%
D10*
%TO.P,H2,1*%
%TO.N,N/C*%
X115000000Y-95000000D03*
%TD*%
D14*
%TO.P,J1,S1,SHIELD*%
%TO.N,GNDPWR*%
X143420000Y-95980000D03*
D15*
X143420000Y-91800000D03*
D14*
X134780000Y-95980000D03*
D15*
X134780000Y-91800000D03*
%TD*%
D16*
%TO.N,GND*%
X129803750Y-93122500D03*
D17*
X133400000Y-95300000D03*
X144829639Y-97098274D03*
X130203750Y-95622500D03*
D16*
X131425000Y-91343750D03*
D17*
X144820324Y-92798274D03*
%TO.N,VBUS*%
X132925000Y-98501000D03*
X145171639Y-98476774D03*
D16*
%TO.N,D+*%
X129158749Y-94677499D03*
X139649999Y-98574999D03*
X129173750Y-93722500D03*
X140758749Y-94677499D03*
X137573750Y-93122500D03*
%TO.N,D-*%
X129395000Y-92322500D03*
X138550000Y-98574999D03*
X128958749Y-91477499D03*
X137573750Y-92322500D03*
X140758749Y-93577499D03*
%TO.N,Net-(J1-CC2)*%
X131600000Y-95900000D03*
X137674999Y-98574999D03*
%TO.N,Net-(J1-CC1)*%
X140525000Y-98574999D03*
X132400000Y-95900000D03*
D17*
%TO.N,5V*%
X125700000Y-96400000D03*
D16*
X120200000Y-96000000D03*
%TD*%
D18*
%TO.N,VBUS*%
X145171639Y-98476774D02*
X144923413Y-98725000D01*
X140915425Y-97598274D02*
X137243853Y-97598274D01*
X144923413Y-98725000D02*
X142870579Y-98725000D01*
X135263699Y-98750000D02*
X133467750Y-98750000D01*
X142163472Y-98432107D02*
X141622532Y-97891167D01*
X133467750Y-98750000D02*
X133218750Y-98501000D01*
X136536746Y-97891167D02*
X135970806Y-98457107D01*
X141622532Y-97891167D02*
G75*
G03*
X140915425Y-97598264I-707132J-707133D01*
G01*
X137243853Y-97598274D02*
G75*
G03*
X136536764Y-97891185I47J-1000026D01*
G01*
X142163472Y-98432107D02*
G75*
G03*
X142870579Y-98725015I707128J707107D01*
G01*
X135970806Y-98457107D02*
G75*
G02*
X135263699Y-98750000I-707106J707107D01*
G01*
%TO.N,5V*%
X125700000Y-96400000D02*
X120600000Y-96400000D01*
X120600000Y-96400000D02*
X120200000Y-96000000D01*
D19*
%TO.N,GNDPWR*%
X146950000Y-91350000D02*
X148000000Y-92400000D01*
X143870000Y-91350000D02*
X146950000Y-91350000D01*
X148000000Y-92400000D02*
X148000000Y-95000000D01*
X143420000Y-91800000D02*
X143870000Y-91350000D01*
%TD*%
%TA.AperFunction,Conductor*%
%TO.N,GND*%
G36*
X128560647Y-91028995D02*
G01*
X128589643Y-91098999D01*
X128572958Y-91154001D01*
X128487291Y-91282210D01*
X128487289Y-91282213D01*
X128487289Y-91282214D01*
X128448444Y-91477499D01*
X128487289Y-91672784D01*
X128597909Y-91838339D01*
X128763460Y-91948956D01*
X128763462Y-91948958D01*
X128763464Y-91948959D01*
X128864577Y-91969071D01*
X128927578Y-92011168D01*
X128942360Y-92085483D01*
X128927580Y-92121166D01*
X128923543Y-92127207D01*
X128923540Y-92127214D01*
X128923540Y-92127215D01*
X128884695Y-92322500D01*
X128923540Y-92517785D01*
X129034160Y-92683340D01*
X129199715Y-92793960D01*
X129395000Y-92832805D01*
X129590285Y-92793960D01*
X129755840Y-92683340D01*
X129866460Y-92517785D01*
X129905305Y-92322500D01*
X129866460Y-92127215D01*
X129755840Y-91961660D01*
X129590285Y-91851040D01*
X129489170Y-91830926D01*
X129426170Y-91788830D01*
X129411388Y-91714514D01*
X129426171Y-91678827D01*
X129430209Y-91672784D01*
X129469054Y-91477499D01*
X129430209Y-91282214D01*
X129344539Y-91154000D01*
X129329757Y-91079685D01*
X129371853Y-91016684D01*
X129426855Y-90999999D01*
X133972865Y-90999999D01*
X134042869Y-91028995D01*
X134071865Y-91098999D01*
X134058601Y-91148499D01*
X133987461Y-91271714D01*
X133955056Y-91392650D01*
X133929500Y-91488030D01*
X133929500Y-92111970D01*
X133933583Y-92127207D01*
X133987461Y-92328285D01*
X134099427Y-92522214D01*
X134099429Y-92522216D01*
X134099431Y-92522219D01*
X134257781Y-92680569D01*
X134257783Y-92680570D01*
X134257785Y-92680572D01*
X134451715Y-92792538D01*
X134451713Y-92792538D01*
X134451717Y-92792539D01*
X134451719Y-92792540D01*
X134668030Y-92850500D01*
X134668032Y-92850500D01*
X134891968Y-92850500D01*
X134891970Y-92850500D01*
X135108281Y-92792540D01*
X135108283Y-92792538D01*
X135108285Y-92792538D01*
X135302214Y-92680572D01*
X135302214Y-92680571D01*
X135302219Y-92680569D01*
X135460569Y-92522219D01*
X135572540Y-92328281D01*
X135574089Y-92322500D01*
X137063445Y-92322500D01*
X137102290Y-92517785D01*
X137102291Y-92517787D01*
X137202325Y-92667499D01*
X137217107Y-92741814D01*
X137202325Y-92777501D01*
X137102291Y-92927212D01*
X137102290Y-92927214D01*
X137102290Y-92927215D01*
X137063445Y-93122500D01*
X137102290Y-93317785D01*
X137212910Y-93483340D01*
X137378465Y-93593960D01*
X137573750Y-93632805D01*
X137769035Y-93593960D01*
X137793671Y-93577499D01*
X140248444Y-93577499D01*
X140287289Y-93772784D01*
X140397909Y-93938339D01*
X140442615Y-93968210D01*
X140557813Y-94045184D01*
X140599909Y-94108185D01*
X140585126Y-94182501D01*
X140557813Y-94209814D01*
X140397911Y-94316657D01*
X140397907Y-94316661D01*
X140287291Y-94482210D01*
X140287289Y-94482213D01*
X140287289Y-94482214D01*
X140248444Y-94677499D01*
X140287289Y-94872784D01*
X140397909Y-95038339D01*
X140563464Y-95148959D01*
X140758749Y-95187804D01*
X140954034Y-95148959D01*
X141119589Y-95038339D01*
X141230209Y-94872784D01*
X141269054Y-94677499D01*
X141230209Y-94482214D01*
X141119589Y-94316659D01*
X141119585Y-94316656D01*
X141119584Y-94316655D01*
X140959685Y-94209814D01*
X140917588Y-94146813D01*
X140932371Y-94072498D01*
X140959685Y-94045184D01*
X141074448Y-93968500D01*
X141119589Y-93938339D01*
X141230209Y-93772784D01*
X141269054Y-93577499D01*
X141230209Y-93382214D01*
X141119589Y-93216659D01*
X140954034Y-93106039D01*
X140758749Y-93067194D01*
X140563463Y-93106039D01*
X140563460Y-93106041D01*
X140397911Y-93216657D01*
X140397907Y-93216661D01*
X140287291Y-93382210D01*
X140287289Y-93382213D01*
X140258317Y-93527864D01*
X140248444Y-93577499D01*
X137793671Y-93577499D01*
X137934590Y-93483340D01*
X138045210Y-93317785D01*
X138084055Y-93122500D01*
X138045210Y-92927215D01*
X137945174Y-92777501D01*
X137930392Y-92703186D01*
X137945175Y-92667498D01*
X138045210Y-92517785D01*
X138084055Y-92322500D01*
X138045210Y-92127215D01*
X137934590Y-91961660D01*
X137769035Y-91851040D01*
X137573750Y-91812195D01*
X137378464Y-91851040D01*
X137378461Y-91851042D01*
X137212912Y-91961658D01*
X137212908Y-91961662D01*
X137102292Y-92127211D01*
X137102290Y-92127214D01*
X137063445Y-92322500D01*
X135574089Y-92322500D01*
X135630500Y-92111970D01*
X135630500Y-91488030D01*
X135572540Y-91271719D01*
X135572538Y-91271716D01*
X135572538Y-91271714D01*
X135501399Y-91148499D01*
X135491508Y-91073376D01*
X135537635Y-91013263D01*
X135587135Y-90999999D01*
X142612865Y-90999999D01*
X142682869Y-91028995D01*
X142711865Y-91098999D01*
X142698601Y-91148499D01*
X142627461Y-91271714D01*
X142595056Y-91392650D01*
X142569500Y-91488030D01*
X142569500Y-92111970D01*
X142573583Y-92127207D01*
X142627461Y-92328285D01*
X142739427Y-92522214D01*
X142739429Y-92522216D01*
X142739431Y-92522219D01*
X142897781Y-92680569D01*
X142897783Y-92680570D01*
X142897785Y-92680572D01*
X143091715Y-92792538D01*
X143091713Y-92792538D01*
X143091717Y-92792539D01*
X143091719Y-92792540D01*
X143308030Y-92850500D01*
X143308032Y-92850500D01*
X143531968Y-92850500D01*
X143531970Y-92850500D01*
X143748281Y-92792540D01*
X143748283Y-92792538D01*
X143748285Y-92792538D01*
X143942214Y-92680572D01*
X143942214Y-92680571D01*
X143942219Y-92680569D01*
X144100569Y-92522219D01*
X144212540Y-92328281D01*
X144270500Y-92111970D01*
X144270500Y-91999500D01*
X144299496Y-91929496D01*
X144369500Y-91900500D01*
X146680968Y-91900500D01*
X146750972Y-91929496D01*
X147420504Y-92599028D01*
X147449500Y-92669032D01*
X147449500Y-92901965D01*
X147420504Y-92971969D01*
X147379240Y-92996701D01*
X147269941Y-93029857D01*
X147203529Y-93050003D01*
X147203527Y-93050004D01*
X146838638Y-93245040D01*
X146838628Y-93245047D01*
X146518789Y-93507531D01*
X146518780Y-93507540D01*
X146256296Y-93827379D01*
X146256289Y-93827389D01*
X146061253Y-94192278D01*
X146061251Y-94192283D01*
X145941141Y-94588229D01*
X145941140Y-94588234D01*
X145900586Y-94999996D01*
X145900586Y-95000003D01*
X145941140Y-95411765D01*
X145941141Y-95411770D01*
X146061251Y-95807716D01*
X146061253Y-95807721D01*
X146256289Y-96172610D01*
X146256295Y-96172619D01*
X146256297Y-96172622D01*
X146328696Y-96260840D01*
X146518780Y-96492459D01*
X146518789Y-96492468D01*
X146667956Y-96614886D01*
X146838627Y-96754952D01*
X146838631Y-96754954D01*
X146838638Y-96754959D01*
X147203527Y-96949995D01*
X147203533Y-96949998D01*
X147479369Y-97033672D01*
X147599478Y-97070107D01*
X147599483Y-97070108D01*
X148011246Y-97110663D01*
X148011249Y-97110663D01*
X148011252Y-97110663D01*
X148423014Y-97070108D01*
X148423019Y-97070107D01*
X148470133Y-97055815D01*
X148818965Y-96949998D01*
X149005113Y-96850500D01*
X149183859Y-96754959D01*
X149183862Y-96754956D01*
X149183871Y-96754952D01*
X149503713Y-96492464D01*
X149766201Y-96172622D01*
X149766205Y-96172613D01*
X149766208Y-96172610D01*
X149930196Y-95865809D01*
X149961247Y-95807716D01*
X150081356Y-95411770D01*
X150081357Y-95411765D01*
X150121912Y-95000003D01*
X150121912Y-94999996D01*
X150081357Y-94588234D01*
X150081356Y-94588229D01*
X150044921Y-94468120D01*
X149961247Y-94192284D01*
X149954497Y-94179655D01*
X149766208Y-93827389D01*
X149766203Y-93827382D01*
X149766201Y-93827378D01*
X149606518Y-93632804D01*
X149503717Y-93507540D01*
X149503708Y-93507531D01*
X149272501Y-93317785D01*
X149183871Y-93245048D01*
X149183868Y-93245046D01*
X149183859Y-93245040D01*
X148818973Y-93050006D01*
X148818970Y-93050005D01*
X148818965Y-93050002D01*
X148773234Y-93036129D01*
X148620761Y-92989876D01*
X148562189Y-92941807D01*
X148550500Y-92895139D01*
X148550500Y-92290500D01*
X148541920Y-92269787D01*
X148466691Y-92088167D01*
X148466691Y-92088166D01*
X147616338Y-91237814D01*
X147587343Y-91167811D01*
X147616339Y-91097807D01*
X147686343Y-91068811D01*
X147706482Y-91070881D01*
X148072558Y-91146953D01*
X148085558Y-91150595D01*
X148587225Y-91328888D01*
X148599614Y-91334269D01*
X149072329Y-91579209D01*
X149083866Y-91586225D01*
X149518816Y-91893247D01*
X149529296Y-91901772D01*
X149607180Y-91974511D01*
X149918397Y-92265167D01*
X149927619Y-92275042D01*
X150017890Y-92385999D01*
X150263606Y-92688025D01*
X150271392Y-92699054D01*
X150352727Y-92832804D01*
X150548023Y-93153956D01*
X150554239Y-93165953D01*
X150766345Y-93654270D01*
X150770870Y-93667002D01*
X150914509Y-94179655D01*
X150917258Y-94192884D01*
X150989753Y-94720321D01*
X150990675Y-94733802D01*
X150990675Y-95266197D01*
X150989753Y-95279678D01*
X150917258Y-95807115D01*
X150914509Y-95820344D01*
X150770870Y-96332997D01*
X150766345Y-96345729D01*
X150554239Y-96834046D01*
X150548023Y-96846043D01*
X150271396Y-97300939D01*
X150263603Y-97311978D01*
X149927619Y-97724957D01*
X149918397Y-97734832D01*
X149529298Y-98098225D01*
X149518816Y-98106752D01*
X149083870Y-98413771D01*
X149072325Y-98420792D01*
X148599616Y-98665729D01*
X148587223Y-98671112D01*
X148085564Y-98849402D01*
X148072553Y-98853047D01*
X147551298Y-98961366D01*
X147537912Y-98963206D01*
X147003377Y-98999769D01*
X146996621Y-99000000D01*
X145852785Y-99000000D01*
X145782781Y-98971004D01*
X145753785Y-98901000D01*
X145764576Y-98856055D01*
X145846156Y-98695945D01*
X145846156Y-98695944D01*
X145846159Y-98695939D01*
X145880871Y-98476774D01*
X145846159Y-98257609D01*
X145846156Y-98257604D01*
X145846156Y-98257602D01*
X145745421Y-98059900D01*
X145745420Y-98059898D01*
X145588515Y-97902993D01*
X145588512Y-97902991D01*
X145390810Y-97802256D01*
X145390805Y-97802254D01*
X145390804Y-97802254D01*
X145171639Y-97767542D01*
X144952474Y-97802254D01*
X144952467Y-97802256D01*
X144754765Y-97902991D01*
X144597857Y-98059899D01*
X144516054Y-98220446D01*
X144458437Y-98269655D01*
X144427845Y-98274500D01*
X142877079Y-98274500D01*
X142864155Y-98273653D01*
X142741290Y-98257475D01*
X142716327Y-98250785D01*
X142607884Y-98205864D01*
X142585504Y-98192943D01*
X142487097Y-98117430D01*
X142477364Y-98108895D01*
X142452593Y-98084124D01*
X142452593Y-98084123D01*
X142413028Y-98044557D01*
X142413021Y-98044551D01*
X141871002Y-97502534D01*
X141870915Y-97502462D01*
X141840059Y-97471606D01*
X141840050Y-97471600D01*
X141761598Y-97419179D01*
X141602493Y-97312867D01*
X141338524Y-97203524D01*
X141338523Y-97203523D01*
X141338519Y-97203522D01*
X141338517Y-97203521D01*
X141058303Y-97147779D01*
X141058289Y-97147777D01*
X141013026Y-97147776D01*
X141012998Y-97147774D01*
X141005035Y-97147774D01*
X140915436Y-97147774D01*
X140825826Y-97147772D01*
X140825825Y-97147772D01*
X140816392Y-97147772D01*
X140816372Y-97147774D01*
X137342906Y-97147774D01*
X137342863Y-97147770D01*
X137333442Y-97147770D01*
X137301449Y-97147771D01*
X137284864Y-97147772D01*
X137284803Y-97147747D01*
X137100975Y-97147754D01*
X137100968Y-97147755D01*
X136820742Y-97203506D01*
X136556771Y-97312857D01*
X136319207Y-97471600D01*
X136319206Y-97471600D01*
X136243444Y-97547365D01*
X136243444Y-97547366D01*
X135715619Y-98075190D01*
X135715618Y-98075191D01*
X135681915Y-98108895D01*
X135656846Y-98133964D01*
X135647110Y-98142501D01*
X135630834Y-98154990D01*
X135548788Y-98217946D01*
X135526407Y-98230867D01*
X135417962Y-98275787D01*
X135392999Y-98282476D01*
X135367780Y-98285796D01*
X135270121Y-98298653D01*
X135257205Y-98299500D01*
X133695361Y-98299500D01*
X133625357Y-98270504D01*
X133571994Y-98217141D01*
X133553789Y-98192082D01*
X133498782Y-98084126D01*
X133498781Y-98084124D01*
X133341876Y-97927219D01*
X133341873Y-97927217D01*
X133144171Y-97826482D01*
X133144166Y-97826480D01*
X133144165Y-97826480D01*
X132925000Y-97791768D01*
X132705835Y-97826480D01*
X132705828Y-97826482D01*
X132508126Y-97927217D01*
X132351217Y-98084126D01*
X132250482Y-98281828D01*
X132250480Y-98281835D01*
X132215768Y-98500999D01*
X132215768Y-98501000D01*
X132250480Y-98720164D01*
X132250480Y-98720166D01*
X132276017Y-98770284D01*
X132318187Y-98853048D01*
X132319720Y-98856055D01*
X132325665Y-98931592D01*
X132276455Y-98989210D01*
X132231510Y-99000000D01*
X116003378Y-99000000D01*
X115996622Y-98999769D01*
X115462087Y-98963207D01*
X115448703Y-98961367D01*
X115251145Y-98920314D01*
X114927446Y-98853048D01*
X114914435Y-98849403D01*
X114412779Y-98671114D01*
X114400386Y-98665731D01*
X113927672Y-98420790D01*
X113916127Y-98413769D01*
X113481183Y-98106753D01*
X113470701Y-98098226D01*
X113455601Y-98084124D01*
X113153792Y-97802254D01*
X113081601Y-97734832D01*
X113072379Y-97724957D01*
X112896881Y-97509241D01*
X112736386Y-97311966D01*
X112728603Y-97300939D01*
X112451974Y-96846043D01*
X112445761Y-96834053D01*
X112444179Y-96830412D01*
X112244828Y-96371457D01*
X112233653Y-96345730D01*
X112229128Y-96332998D01*
X112192489Y-96202232D01*
X112085486Y-95820332D01*
X112082742Y-95807124D01*
X112010246Y-95279677D01*
X112009324Y-95266197D01*
X112009324Y-94999995D01*
X113490005Y-94999995D01*
X113490005Y-95000004D01*
X113527862Y-95335999D01*
X113527865Y-95336011D01*
X113639542Y-95655162D01*
X113639542Y-95655163D01*
X113819435Y-95941462D01*
X113819438Y-95941466D01*
X114058534Y-96180562D01*
X114058536Y-96180563D01*
X114058537Y-96180564D01*
X114321396Y-96345729D01*
X114344838Y-96360458D01*
X114472640Y-96405178D01*
X114663988Y-96472134D01*
X114663992Y-96472135D01*
X114663995Y-96472136D01*
X114663996Y-96472136D01*
X114664000Y-96472137D01*
X114999996Y-96509995D01*
X115000000Y-96509995D01*
X115000004Y-96509995D01*
X115335999Y-96472137D01*
X115336001Y-96472136D01*
X115336005Y-96472136D01*
X115655162Y-96360458D01*
X115941466Y-96180562D01*
X116122028Y-96000000D01*
X119689695Y-96000000D01*
X119728540Y-96195285D01*
X119839160Y-96360840D01*
X119855050Y-96371457D01*
X120004714Y-96471460D01*
X120012260Y-96472961D01*
X120062952Y-96500055D01*
X120218083Y-96655186D01*
X120218084Y-96655188D01*
X120344812Y-96781916D01*
X120344813Y-96781916D01*
X120344814Y-96781917D01*
X120461891Y-96830412D01*
X120461892Y-96830412D01*
X120510388Y-96850500D01*
X120510389Y-96850500D01*
X120510390Y-96850500D01*
X125118835Y-96850500D01*
X125188838Y-96879496D01*
X125259338Y-96949995D01*
X125283124Y-96973781D01*
X125283126Y-96973782D01*
X125480828Y-97074517D01*
X125480830Y-97074517D01*
X125480835Y-97074520D01*
X125700000Y-97109232D01*
X125919165Y-97074520D01*
X126116876Y-96973781D01*
X126273781Y-96816876D01*
X126374520Y-96619165D01*
X126409232Y-96400000D01*
X126374520Y-96180835D01*
X126374517Y-96180830D01*
X126374517Y-96180828D01*
X126273782Y-95983126D01*
X126273781Y-95983124D01*
X126190657Y-95900000D01*
X131089695Y-95900000D01*
X131128540Y-96095285D01*
X131239160Y-96260840D01*
X131404715Y-96371460D01*
X131600000Y-96410305D01*
X131795285Y-96371460D01*
X131944998Y-96271424D01*
X132019314Y-96256642D01*
X132055000Y-96271424D01*
X132204715Y-96371460D01*
X132400000Y-96410305D01*
X132595285Y-96371460D01*
X132760840Y-96260840D01*
X132871460Y-96095285D01*
X132910305Y-95900000D01*
X132871460Y-95704715D01*
X132760840Y-95539160D01*
X132595285Y-95428540D01*
X132400000Y-95389695D01*
X132204714Y-95428540D01*
X132204712Y-95428541D01*
X132055001Y-95528575D01*
X131980686Y-95543357D01*
X131944999Y-95528575D01*
X131795287Y-95428541D01*
X131795285Y-95428540D01*
X131600000Y-95389695D01*
X131404714Y-95428540D01*
X131404711Y-95428542D01*
X131239162Y-95539158D01*
X131239158Y-95539162D01*
X131128542Y-95704711D01*
X131128540Y-95704714D01*
X131104371Y-95826219D01*
X131089695Y-95900000D01*
X126190657Y-95900000D01*
X126116876Y-95826219D01*
X126116873Y-95826217D01*
X125919171Y-95725482D01*
X125919166Y-95725480D01*
X125919165Y-95725480D01*
X125700000Y-95690768D01*
X125480835Y-95725480D01*
X125480828Y-95725482D01*
X125283126Y-95826217D01*
X125283122Y-95826220D01*
X125188838Y-95920504D01*
X125118835Y-95949500D01*
X120827611Y-95949500D01*
X120757607Y-95920504D01*
X120700055Y-95862952D01*
X120672961Y-95812260D01*
X120671460Y-95804715D01*
X120671460Y-95804714D01*
X120560841Y-95639162D01*
X120560840Y-95639160D01*
X120395285Y-95528540D01*
X120200000Y-95489695D01*
X120004714Y-95528540D01*
X120004711Y-95528542D01*
X119839162Y-95639158D01*
X119839158Y-95639162D01*
X119728542Y-95804711D01*
X119728540Y-95804714D01*
X119710620Y-95894805D01*
X119689695Y-96000000D01*
X116122028Y-96000000D01*
X116180562Y-95941466D01*
X116360458Y-95655162D01*
X116472136Y-95336005D01*
X116472678Y-95331195D01*
X134029500Y-95331195D01*
X134029500Y-96628805D01*
X134063301Y-96754952D01*
X134080646Y-96819686D01*
X134179447Y-96990813D01*
X134179449Y-96990815D01*
X134179451Y-96990818D01*
X134319182Y-97130549D01*
X134319184Y-97130550D01*
X134319186Y-97130552D01*
X134490314Y-97229353D01*
X134490312Y-97229353D01*
X134490316Y-97229354D01*
X134490318Y-97229355D01*
X134681195Y-97280500D01*
X134681197Y-97280500D01*
X134878803Y-97280500D01*
X134878805Y-97280500D01*
X135069682Y-97229355D01*
X135069684Y-97229353D01*
X135069686Y-97229353D01*
X135240813Y-97130552D01*
X135240813Y-97130551D01*
X135240818Y-97130549D01*
X135380549Y-96990818D01*
X135390385Y-96973782D01*
X135479353Y-96819686D01*
X135479353Y-96819684D01*
X135479355Y-96819682D01*
X135530500Y-96628805D01*
X135530500Y-95964809D01*
X135559496Y-95894805D01*
X135629500Y-95865809D01*
X135699502Y-95894804D01*
X135795233Y-95990535D01*
X135949267Y-96079466D01*
X136121069Y-96125500D01*
X136121071Y-96125500D01*
X136298929Y-96125500D01*
X136298931Y-96125500D01*
X136470733Y-96079466D01*
X136624767Y-95990535D01*
X136750535Y-95864767D01*
X136839466Y-95710733D01*
X136885500Y-95538931D01*
X136885500Y-95361069D01*
X141314500Y-95361069D01*
X141314500Y-95538931D01*
X141360534Y-95710733D01*
X141449465Y-95864767D01*
X141575233Y-95990535D01*
X141729267Y-96079466D01*
X141901069Y-96125500D01*
X141901071Y-96125500D01*
X142078929Y-96125500D01*
X142078931Y-96125500D01*
X142250733Y-96079466D01*
X142404767Y-95990535D01*
X142500497Y-95894804D01*
X142570500Y-95865809D01*
X142640504Y-95894805D01*
X142669500Y-95964809D01*
X142669500Y-96628805D01*
X142703301Y-96754952D01*
X142720646Y-96819686D01*
X142819447Y-96990813D01*
X142819449Y-96990815D01*
X142819451Y-96990818D01*
X142959182Y-97130549D01*
X142959184Y-97130550D01*
X142959186Y-97130552D01*
X143130314Y-97229353D01*
X143130312Y-97229353D01*
X143130316Y-97229354D01*
X143130318Y-97229355D01*
X143321195Y-97280500D01*
X143321197Y-97280500D01*
X143518803Y-97280500D01*
X143518805Y-97280500D01*
X143709682Y-97229355D01*
X143709684Y-97229353D01*
X143709686Y-97229353D01*
X143880813Y-97130552D01*
X143880813Y-97130551D01*
X143880818Y-97130549D01*
X144020549Y-96990818D01*
X144030385Y-96973782D01*
X144119353Y-96819686D01*
X144119353Y-96819684D01*
X144119355Y-96819682D01*
X144170500Y-96628805D01*
X144170500Y-95331195D01*
X144119355Y-95140318D01*
X144119353Y-95140315D01*
X144119353Y-95140313D01*
X144020552Y-94969186D01*
X144020550Y-94969184D01*
X144020549Y-94969182D01*
X143880818Y-94829451D01*
X143880815Y-94829449D01*
X143880813Y-94829447D01*
X143709685Y-94730646D01*
X143709687Y-94730646D01*
X143586191Y-94697556D01*
X143518805Y-94679500D01*
X143321195Y-94679500D01*
X143253809Y-94697556D01*
X143130313Y-94730646D01*
X142959186Y-94829447D01*
X142819449Y-94969184D01*
X142741661Y-95103916D01*
X142681547Y-95150042D01*
X142606424Y-95140151D01*
X142570189Y-95103915D01*
X142532328Y-95038339D01*
X142530535Y-95035233D01*
X142404767Y-94909465D01*
X142250733Y-94820534D01*
X142078931Y-94774500D01*
X141901069Y-94774500D01*
X141729267Y-94820534D01*
X141575233Y-94909465D01*
X141449465Y-95035233D01*
X141360534Y-95189267D01*
X141314500Y-95361069D01*
X136885500Y-95361069D01*
X136839466Y-95189267D01*
X136750535Y-95035233D01*
X136624767Y-94909465D01*
X136470733Y-94820534D01*
X136298931Y-94774500D01*
X136121069Y-94774500D01*
X135949267Y-94820534D01*
X135795233Y-94909465D01*
X135669464Y-95035234D01*
X135629810Y-95103916D01*
X135569696Y-95150042D01*
X135494573Y-95140151D01*
X135458338Y-95103915D01*
X135380552Y-94969186D01*
X135380550Y-94969184D01*
X135380549Y-94969182D01*
X135240818Y-94829451D01*
X135240815Y-94829449D01*
X135240813Y-94829447D01*
X135069685Y-94730646D01*
X135069687Y-94730646D01*
X134946191Y-94697556D01*
X134878805Y-94679500D01*
X134681195Y-94679500D01*
X134613809Y-94697556D01*
X134490313Y-94730646D01*
X134319186Y-94829447D01*
X134179447Y-94969186D01*
X134080646Y-95140313D01*
X134067921Y-95187804D01*
X134029500Y-95331195D01*
X116472678Y-95331195D01*
X116509995Y-95000004D01*
X116509995Y-94999995D01*
X116473658Y-94677499D01*
X128648444Y-94677499D01*
X128687289Y-94872784D01*
X128797909Y-95038339D01*
X128963464Y-95148959D01*
X129158749Y-95187804D01*
X129354034Y-95148959D01*
X129519589Y-95038339D01*
X129630209Y-94872784D01*
X129669054Y-94677499D01*
X129630209Y-94482214D01*
X129519589Y-94316659D01*
X129519585Y-94316656D01*
X129519584Y-94316655D01*
X129475690Y-94287326D01*
X129433593Y-94224325D01*
X129448376Y-94150010D01*
X129475688Y-94122696D01*
X129534590Y-94083340D01*
X129645210Y-93917785D01*
X129684055Y-93722500D01*
X129645210Y-93527215D01*
X129534590Y-93361660D01*
X129369035Y-93251040D01*
X129173750Y-93212195D01*
X128978464Y-93251040D01*
X128978461Y-93251042D01*
X128812912Y-93361658D01*
X128812908Y-93361662D01*
X128702292Y-93527211D01*
X128702290Y-93527214D01*
X128674484Y-93667002D01*
X128663445Y-93722500D01*
X128702290Y-93917785D01*
X128812910Y-94083340D01*
X128812913Y-94083342D01*
X128856809Y-94112673D01*
X128898905Y-94175675D01*
X128884122Y-94249990D01*
X128856809Y-94277303D01*
X128797911Y-94316657D01*
X128797907Y-94316661D01*
X128687291Y-94482210D01*
X128687289Y-94482213D01*
X128687289Y-94482214D01*
X128648444Y-94677499D01*
X116473658Y-94677499D01*
X116472137Y-94664000D01*
X116472134Y-94663988D01*
X116408528Y-94482214D01*
X116360458Y-94344838D01*
X116342753Y-94316661D01*
X116180564Y-94058537D01*
X116180563Y-94058536D01*
X116180562Y-94058534D01*
X115941466Y-93819438D01*
X115941463Y-93819436D01*
X115941462Y-93819435D01*
X115655163Y-93639542D01*
X115336011Y-93527865D01*
X115335999Y-93527862D01*
X115000004Y-93490005D01*
X114999996Y-93490005D01*
X114664000Y-93527862D01*
X114663988Y-93527865D01*
X114344837Y-93639542D01*
X114344836Y-93639542D01*
X114058537Y-93819435D01*
X113819435Y-94058537D01*
X113639542Y-94344836D01*
X113639542Y-94344837D01*
X113527865Y-94663988D01*
X113527862Y-94664000D01*
X113490005Y-94999995D01*
X112009324Y-94999995D01*
X112009324Y-94733802D01*
X112010246Y-94720322D01*
X112028401Y-94588234D01*
X112082742Y-94192872D01*
X112085485Y-94179670D01*
X112229128Y-93666998D01*
X112233653Y-93654269D01*
X112259849Y-93593960D01*
X112445766Y-93165935D01*
X112451972Y-93153959D01*
X112728610Y-92699049D01*
X112736381Y-92688040D01*
X113072384Y-92275035D01*
X113081595Y-92265172D01*
X113470710Y-91901765D01*
X113481173Y-91893253D01*
X113916131Y-91586227D01*
X113927672Y-91579209D01*
X114400386Y-91334268D01*
X114412779Y-91328885D01*
X114914444Y-91150593D01*
X114927437Y-91146953D01*
X115448717Y-91038629D01*
X115462072Y-91036794D01*
X115996622Y-91000230D01*
X116003378Y-90999999D01*
X128490643Y-90999999D01*
X128560647Y-91028995D01*
G37*
%TD.AperFunction*%
%TD*%
M02*
