%TF.GenerationSoftware,KiCad,Pcbnew,8.0.4*%
%TF.CreationDate,2024-08-21T21:41:38-07:00*%
%TF.ProjectId,udb-s,7564622d-732e-46b6-9963-61645f706362,rev?*%
%TF.SameCoordinates,Original*%
%TF.FileFunction,Copper,L2,Inr*%
%TF.FilePolarity,Positive*%
%FSLAX46Y46*%
G04 Gerber Fmt 4.6, Leading zero omitted, Abs format (unit mm)*
G04 Created by KiCad (PCBNEW 8.0.4) date 2024-08-21 21:41:38*
%MOMM*%
%LPD*%
G01*
G04 APERTURE LIST*
%TA.AperFunction,ComponentPad*%
%ADD10C,2.600000*%
%TD*%
%TA.AperFunction,ComponentPad*%
%ADD11C,0.600000*%
%TD*%
%TA.AperFunction,ComponentPad*%
%ADD12O,1.100000X2.200000*%
%TD*%
%TA.AperFunction,ComponentPad*%
%ADD13O,1.300000X1.700000*%
%TD*%
%TA.AperFunction,ViaPad*%
%ADD14C,0.600000*%
%TD*%
%TA.AperFunction,ViaPad*%
%ADD15C,1.000000*%
%TD*%
%TA.AperFunction,Conductor*%
%ADD16C,0.160000*%
%TD*%
%TA.AperFunction,Conductor*%
%ADD17C,0.200000*%
%TD*%
G04 APERTURE END LIST*
D10*
%TO.N,GNDPWR*%
%TO.C,H1*%
X148011249Y-95000000D03*
%TD*%
D11*
%TO.N,GND*%
%TO.C,J2*%
X119000000Y-97300000D03*
X119800000Y-97300000D03*
X119800000Y-98000000D03*
X119800000Y-98700000D03*
X124200000Y-97300000D03*
X124200000Y-98000000D03*
X124200000Y-98700000D03*
X124950000Y-97300000D03*
%TD*%
D10*
%TO.N,N/C*%
%TO.C,H2*%
X115000000Y-95000000D03*
%TD*%
D12*
%TO.N,GNDPWR*%
%TO.C,J1*%
X143420000Y-95980000D03*
D13*
X143420000Y-91800000D03*
D12*
X134780000Y-95980000D03*
D13*
X134780000Y-91800000D03*
%TD*%
D14*
%TO.N,GND*%
X129803750Y-93122500D03*
D15*
X133400000Y-95300000D03*
X144829639Y-97098274D03*
X130203750Y-95622500D03*
D14*
X131425000Y-91343750D03*
D15*
X144820324Y-92798274D03*
%TO.N,VBUS*%
X132925000Y-98501000D03*
X145171639Y-98476774D03*
D14*
%TO.N,D+*%
X129158749Y-94677499D03*
X139649999Y-98574999D03*
X129173750Y-93722500D03*
X140758749Y-94677499D03*
X137573750Y-93122500D03*
%TO.N,D-*%
X129395000Y-92322500D03*
X138550000Y-98574999D03*
X128958749Y-91477499D03*
X137573750Y-92322500D03*
X140758749Y-93577499D03*
%TO.N,Net-(J1-CC2)*%
X131600000Y-95900000D03*
X137674999Y-98574999D03*
%TO.N,Net-(J1-CC1)*%
X140525000Y-98574999D03*
X132400000Y-95900000D03*
D15*
%TO.N,5V*%
X125700000Y-96400000D03*
D14*
X120200000Y-96000000D03*
%TD*%
D16*
%TO.N,D+*%
X132684213Y-93708749D02*
X135066669Y-93708749D01*
X137099999Y-94307499D02*
X140181642Y-94307499D01*
X131594142Y-94384606D02*
X131977106Y-94001642D01*
X136493847Y-94307499D02*
X137099999Y-94307499D01*
X135773776Y-94001642D02*
X135786740Y-94014606D01*
X140535195Y-94453945D02*
X140758749Y-94677499D01*
X129158749Y-94677499D02*
X130887035Y-94677499D01*
X140181642Y-94307499D02*
G75*
G02*
X140535174Y-94453966I-42J-500001D01*
G01*
X135066669Y-93708749D02*
G75*
G02*
X135773781Y-94001637I31J-999951D01*
G01*
X130887035Y-94677499D02*
G75*
G03*
X131594124Y-94384588I-35J999999D01*
G01*
X131977106Y-94001642D02*
G75*
G02*
X132684213Y-93708744I707094J-707058D01*
G01*
X135786740Y-94014606D02*
G75*
G03*
X136493847Y-94307466I707060J707106D01*
G01*
%TO.N,D-*%
X132644213Y-93348749D02*
X135215785Y-93348749D01*
X140535195Y-93801053D02*
X140758749Y-93577499D01*
X135922892Y-93641642D02*
X135935856Y-93654606D01*
X136642963Y-93947499D02*
X140181642Y-93947499D01*
X128958749Y-91477499D02*
X129944535Y-91477499D01*
X130651642Y-91770392D02*
X131937106Y-93055856D01*
X131937106Y-93055856D02*
G75*
G03*
X132644213Y-93348755I707094J707056D01*
G01*
X140181642Y-93947499D02*
G75*
G03*
X140535174Y-93801032I-42J499999D01*
G01*
X135935856Y-93654606D02*
G75*
G03*
X136642963Y-93947526I707144J707106D01*
G01*
X129944535Y-91477499D02*
G75*
G02*
X130651624Y-91770410I-35J-1000001D01*
G01*
X135215785Y-93348749D02*
G75*
G02*
X135922889Y-93641645I15J-999951D01*
G01*
D17*
%TO.N,Net-(J1-CC2)*%
X134028552Y-98428552D02*
X133280821Y-97680821D01*
X137674999Y-98574999D02*
X134382106Y-98574999D01*
X132927268Y-97534375D02*
X132100000Y-97534375D01*
X131600000Y-97034375D02*
X131600000Y-95900000D01*
X132927268Y-97534375D02*
G75*
G02*
X133280842Y-97680800I32J-500025D01*
G01*
X134028552Y-98428552D02*
G75*
G03*
X134382106Y-98574995I353548J353552D01*
G01*
X132100000Y-97534375D02*
G75*
G02*
X131600025Y-97034375I0J499975D01*
G01*
%TO.N,Net-(J1-CC1)*%
X137240198Y-98028552D02*
X137424030Y-97844720D01*
X134547792Y-98174999D02*
X136886644Y-98174999D01*
X132400000Y-95900000D02*
X132400000Y-96634375D01*
X133446508Y-97280822D02*
X134194239Y-98028553D01*
X132900000Y-97134375D02*
X133092954Y-97134375D01*
X139794722Y-97844721D02*
X140525000Y-98574999D01*
X137777583Y-97698274D02*
X139441168Y-97698274D01*
X137424030Y-97844720D02*
G75*
G02*
X137777583Y-97698269I353570J-353580D01*
G01*
X132900000Y-97134375D02*
G75*
G02*
X132400025Y-96634375I0J499975D01*
G01*
X134194239Y-98028553D02*
G75*
G03*
X134547792Y-98175005I353561J353553D01*
G01*
X133092954Y-97134375D02*
G75*
G02*
X133446536Y-97280794I46J-500025D01*
G01*
X136886644Y-98174999D02*
G75*
G03*
X137240176Y-98028530I-44J499999D01*
G01*
X139794722Y-97844721D02*
G75*
G03*
X139441168Y-97698304I-353522J-353579D01*
G01*
%TD*%
%TA.AperFunction,Conductor*%
%TO.N,GND*%
G36*
X128560647Y-91028995D02*
G01*
X128589643Y-91098999D01*
X128572958Y-91154001D01*
X128487291Y-91282210D01*
X128487289Y-91282213D01*
X128487289Y-91282214D01*
X128448444Y-91477499D01*
X128487289Y-91672784D01*
X128597909Y-91838339D01*
X128763460Y-91948956D01*
X128763462Y-91948958D01*
X128763464Y-91948959D01*
X128864577Y-91969071D01*
X128927578Y-92011168D01*
X128942360Y-92085483D01*
X128927580Y-92121166D01*
X128923543Y-92127207D01*
X128923540Y-92127214D01*
X128923540Y-92127215D01*
X128884695Y-92322500D01*
X128923540Y-92517785D01*
X129034160Y-92683340D01*
X129199715Y-92793960D01*
X129395000Y-92832805D01*
X129590285Y-92793960D01*
X129755840Y-92683340D01*
X129866460Y-92517785D01*
X129905305Y-92322500D01*
X129866460Y-92127215D01*
X129755840Y-91961660D01*
X129722397Y-91939314D01*
X129680301Y-91876313D01*
X129695084Y-91801997D01*
X129758085Y-91759901D01*
X129777399Y-91757999D01*
X129938032Y-91757999D01*
X129950957Y-91758846D01*
X130117824Y-91780819D01*
X130142781Y-91787508D01*
X130292230Y-91849417D01*
X130314604Y-91862335D01*
X130444042Y-91961662D01*
X130448280Y-91964914D01*
X130458016Y-91973453D01*
X130506699Y-92022140D01*
X130506721Y-92022157D01*
X131778216Y-93293653D01*
X131778217Y-93293653D01*
X131785319Y-93300755D01*
X131785343Y-93300775D01*
X131802353Y-93317785D01*
X131827939Y-93343372D01*
X132002173Y-93459795D01*
X132044267Y-93522797D01*
X132029484Y-93597112D01*
X132002172Y-93624424D01*
X131867936Y-93714120D01*
X131795725Y-93786334D01*
X131795724Y-93786335D01*
X131445362Y-94136696D01*
X131445344Y-94136712D01*
X131400387Y-94181673D01*
X131390651Y-94190212D01*
X131257119Y-94292681D01*
X131234738Y-94305604D01*
X131085292Y-94367512D01*
X131060329Y-94374202D01*
X130937149Y-94390423D01*
X130893645Y-94396152D01*
X130880722Y-94396999D01*
X129626187Y-94396999D01*
X129556183Y-94368003D01*
X129543871Y-94352999D01*
X129519591Y-94316660D01*
X129519588Y-94316658D01*
X129475690Y-94287326D01*
X129433593Y-94224325D01*
X129448376Y-94150010D01*
X129475688Y-94122696D01*
X129534590Y-94083340D01*
X129645210Y-93917785D01*
X129684055Y-93722500D01*
X129645210Y-93527215D01*
X129534590Y-93361660D01*
X129369035Y-93251040D01*
X129173750Y-93212195D01*
X128978464Y-93251040D01*
X128978461Y-93251042D01*
X128812912Y-93361658D01*
X128812908Y-93361662D01*
X128702292Y-93527211D01*
X128702290Y-93527214D01*
X128674484Y-93667002D01*
X128663445Y-93722500D01*
X128702290Y-93917785D01*
X128812910Y-94083340D01*
X128812913Y-94083342D01*
X128856809Y-94112673D01*
X128898905Y-94175675D01*
X128884122Y-94249990D01*
X128856809Y-94277303D01*
X128797911Y-94316657D01*
X128797907Y-94316661D01*
X128687291Y-94482210D01*
X128687289Y-94482213D01*
X128660479Y-94616995D01*
X128648444Y-94677499D01*
X128687289Y-94872784D01*
X128797909Y-95038339D01*
X128963464Y-95148959D01*
X129158749Y-95187804D01*
X129354034Y-95148959D01*
X129519589Y-95038339D01*
X129519590Y-95038337D01*
X129519591Y-95038337D01*
X129543871Y-95001999D01*
X129606872Y-94959902D01*
X129626187Y-94957999D01*
X130811482Y-94957999D01*
X130811516Y-94958002D01*
X130823021Y-94958001D01*
X130823022Y-94958002D01*
X130841690Y-94958001D01*
X130846010Y-94958001D01*
X130846067Y-94958024D01*
X130887045Y-94958023D01*
X130887045Y-94958024D01*
X131013164Y-94958020D01*
X131260554Y-94908803D01*
X131434069Y-94836923D01*
X131493585Y-94812270D01*
X131493586Y-94812269D01*
X131493589Y-94812268D01*
X131703313Y-94672126D01*
X131711451Y-94663988D01*
X131792491Y-94582944D01*
X131822760Y-94552674D01*
X132119812Y-94255622D01*
X132119827Y-94255611D01*
X132130183Y-94245253D01*
X132130185Y-94245253D01*
X132170869Y-94204565D01*
X132180585Y-94196043D01*
X132314129Y-94093567D01*
X132336499Y-94080651D01*
X132485955Y-94018744D01*
X132510908Y-94012058D01*
X132677737Y-93990095D01*
X132690657Y-93989249D01*
X132748232Y-93989250D01*
X132748234Y-93989249D01*
X134991122Y-93989249D01*
X134991138Y-93989250D01*
X135002652Y-93989249D01*
X135002655Y-93989251D01*
X135060193Y-93989249D01*
X135073112Y-93990095D01*
X135239975Y-94012060D01*
X135264931Y-94018746D01*
X135414386Y-94080650D01*
X135436763Y-94093570D01*
X135532711Y-94167194D01*
X135570045Y-94195842D01*
X135579779Y-94204378D01*
X135588380Y-94212978D01*
X135588380Y-94212979D01*
X135677563Y-94302157D01*
X135887299Y-94442287D01*
X136120341Y-94538805D01*
X136120343Y-94538806D01*
X136319451Y-94578402D01*
X136339483Y-94591785D01*
X136362861Y-94587925D01*
X136362901Y-94587528D01*
X136364383Y-94587673D01*
X136365307Y-94587521D01*
X136367740Y-94588005D01*
X136493860Y-94587999D01*
X137044204Y-94587999D01*
X140149444Y-94587999D01*
X140219448Y-94616995D01*
X140241004Y-94669037D01*
X140246542Y-94667936D01*
X140248444Y-94677498D01*
X140248444Y-94677499D01*
X140287289Y-94872784D01*
X140397909Y-95038339D01*
X140563464Y-95148959D01*
X140758749Y-95187804D01*
X140954034Y-95148959D01*
X141119589Y-95038339D01*
X141230209Y-94872784D01*
X141269054Y-94677499D01*
X141230209Y-94482214D01*
X141119589Y-94316659D01*
X141119585Y-94316656D01*
X141119584Y-94316655D01*
X140959685Y-94209814D01*
X140917588Y-94146813D01*
X140932371Y-94072498D01*
X140959685Y-94045184D01*
X141074448Y-93968500D01*
X141119589Y-93938339D01*
X141230209Y-93772784D01*
X141269054Y-93577499D01*
X141230209Y-93382214D01*
X141119589Y-93216659D01*
X140954034Y-93106039D01*
X140758749Y-93067194D01*
X140563463Y-93106039D01*
X140563460Y-93106041D01*
X140397911Y-93216657D01*
X140397907Y-93216661D01*
X140287291Y-93382210D01*
X140287289Y-93382213D01*
X140282889Y-93404333D01*
X140248826Y-93575582D01*
X140246542Y-93587062D01*
X140241004Y-93585960D01*
X140219448Y-93638003D01*
X140149444Y-93666999D01*
X137986084Y-93666999D01*
X137916080Y-93638003D01*
X137887084Y-93567999D01*
X137916080Y-93497995D01*
X137931082Y-93485684D01*
X137931259Y-93485565D01*
X137934590Y-93483340D01*
X138045210Y-93317785D01*
X138084055Y-93122500D01*
X138045210Y-92927215D01*
X137945174Y-92777501D01*
X137930392Y-92703186D01*
X137945175Y-92667498D01*
X138045210Y-92517785D01*
X138084055Y-92322500D01*
X138045210Y-92127215D01*
X137934590Y-91961660D01*
X137769035Y-91851040D01*
X137573750Y-91812195D01*
X137378464Y-91851040D01*
X137378461Y-91851042D01*
X137212912Y-91961658D01*
X137212908Y-91961662D01*
X137102292Y-92127211D01*
X137102290Y-92127214D01*
X137063445Y-92322500D01*
X137102290Y-92517785D01*
X137102291Y-92517787D01*
X137202325Y-92667499D01*
X137217107Y-92741814D01*
X137202325Y-92777501D01*
X137102291Y-92927212D01*
X137102290Y-92927214D01*
X137074236Y-93068249D01*
X137063445Y-93122500D01*
X137102290Y-93317785D01*
X137212910Y-93483340D01*
X137212913Y-93483342D01*
X137216418Y-93485684D01*
X137218759Y-93489188D01*
X137219805Y-93490234D01*
X137219597Y-93490441D01*
X137258514Y-93548686D01*
X137243731Y-93623001D01*
X137180729Y-93665097D01*
X137161416Y-93666999D01*
X136649467Y-93666999D01*
X136636541Y-93666152D01*
X136469676Y-93644177D01*
X136444714Y-93637487D01*
X136295274Y-93575582D01*
X136272892Y-93562659D01*
X136139205Y-93460070D01*
X136129470Y-93451532D01*
X136082273Y-93404333D01*
X136082253Y-93404316D01*
X136076144Y-93398208D01*
X136076128Y-93398194D01*
X136032061Y-93354126D01*
X136032060Y-93354125D01*
X136032059Y-93354124D01*
X135822332Y-93213984D01*
X135822331Y-93213983D01*
X135822329Y-93213982D01*
X135589291Y-93117454D01*
X135341901Y-93068247D01*
X135215781Y-93068249D01*
X132719762Y-93068249D01*
X132719754Y-93068248D01*
X132650696Y-93068248D01*
X132637775Y-93067401D01*
X132470916Y-93045435D01*
X132445951Y-93038746D01*
X132296509Y-92976844D01*
X132274126Y-92963921D01*
X132140570Y-92861435D01*
X132130834Y-92852896D01*
X132083087Y-92805147D01*
X132083071Y-92805134D01*
X130871611Y-91593675D01*
X130849990Y-91572053D01*
X130849989Y-91572053D01*
X130836069Y-91558132D01*
X130836066Y-91558130D01*
X130810532Y-91532596D01*
X130810530Y-91532595D01*
X130803664Y-91525729D01*
X130803490Y-91525587D01*
X130760797Y-91482891D01*
X130760796Y-91482890D01*
X130760795Y-91482889D01*
X130551073Y-91342749D01*
X130318046Y-91246219D01*
X130318043Y-91246218D01*
X130066102Y-91196096D01*
X130003102Y-91153998D01*
X129988322Y-91079682D01*
X130030420Y-91016682D01*
X130085419Y-90999999D01*
X133972865Y-90999999D01*
X134042869Y-91028995D01*
X134071865Y-91098999D01*
X134058601Y-91148499D01*
X133987461Y-91271714D01*
X133968428Y-91342749D01*
X133929500Y-91488030D01*
X133929500Y-92111970D01*
X133933583Y-92127207D01*
X133987461Y-92328285D01*
X134099427Y-92522214D01*
X134099429Y-92522216D01*
X134099431Y-92522219D01*
X134257781Y-92680569D01*
X134257783Y-92680570D01*
X134257785Y-92680572D01*
X134451715Y-92792538D01*
X134451713Y-92792538D01*
X134451717Y-92792539D01*
X134451719Y-92792540D01*
X134668030Y-92850500D01*
X134668032Y-92850500D01*
X134891968Y-92850500D01*
X134891970Y-92850500D01*
X135108281Y-92792540D01*
X135108283Y-92792538D01*
X135108285Y-92792538D01*
X135302214Y-92680572D01*
X135302214Y-92680571D01*
X135302219Y-92680569D01*
X135460569Y-92522219D01*
X135572540Y-92328281D01*
X135630500Y-92111970D01*
X135630500Y-91488030D01*
X135572540Y-91271719D01*
X135572538Y-91271716D01*
X135572538Y-91271714D01*
X135501399Y-91148499D01*
X135491508Y-91073376D01*
X135537635Y-91013263D01*
X135587135Y-90999999D01*
X142612865Y-90999999D01*
X142682869Y-91028995D01*
X142711865Y-91098999D01*
X142698601Y-91148499D01*
X142627461Y-91271714D01*
X142608428Y-91342749D01*
X142569500Y-91488030D01*
X142569500Y-92111970D01*
X142573583Y-92127207D01*
X142627461Y-92328285D01*
X142739427Y-92522214D01*
X142739429Y-92522216D01*
X142739431Y-92522219D01*
X142897781Y-92680569D01*
X142897783Y-92680570D01*
X142897785Y-92680572D01*
X143091715Y-92792538D01*
X143091713Y-92792538D01*
X143091717Y-92792539D01*
X143091719Y-92792540D01*
X143308030Y-92850500D01*
X143308032Y-92850500D01*
X143531968Y-92850500D01*
X143531970Y-92850500D01*
X143748281Y-92792540D01*
X143748283Y-92792538D01*
X143748285Y-92792538D01*
X143942214Y-92680572D01*
X143942214Y-92680571D01*
X143942219Y-92680569D01*
X144100569Y-92522219D01*
X144212540Y-92328281D01*
X144270500Y-92111970D01*
X144270500Y-91488030D01*
X144212540Y-91271719D01*
X144212538Y-91271716D01*
X144212538Y-91271714D01*
X144141399Y-91148499D01*
X144131508Y-91073376D01*
X144177635Y-91013263D01*
X144227135Y-90999999D01*
X146892143Y-90999999D01*
X146892147Y-91000000D01*
X146911837Y-91000000D01*
X146996621Y-91000000D01*
X147003377Y-91000231D01*
X147537925Y-91036794D01*
X147551284Y-91038631D01*
X148072558Y-91146953D01*
X148085558Y-91150595D01*
X148587225Y-91328888D01*
X148599614Y-91334269D01*
X149072329Y-91579209D01*
X149083866Y-91586225D01*
X149518816Y-91893247D01*
X149529296Y-91901772D01*
X149658198Y-92022158D01*
X149918397Y-92265167D01*
X149927619Y-92275042D01*
X150017890Y-92385999D01*
X150263606Y-92688025D01*
X150271392Y-92699054D01*
X150367756Y-92857518D01*
X150548023Y-93153956D01*
X150554239Y-93165953D01*
X150766345Y-93654270D01*
X150770870Y-93667002D01*
X150914509Y-94179655D01*
X150917257Y-94192883D01*
X150983128Y-94672125D01*
X150989753Y-94720321D01*
X150990675Y-94733802D01*
X150990675Y-95266197D01*
X150989753Y-95279678D01*
X150917258Y-95807115D01*
X150914509Y-95820344D01*
X150770870Y-96332997D01*
X150766345Y-96345729D01*
X150554239Y-96834046D01*
X150548023Y-96846043D01*
X150271396Y-97300939D01*
X150263603Y-97311978D01*
X149927619Y-97724957D01*
X149918397Y-97734832D01*
X149529298Y-98098225D01*
X149518816Y-98106752D01*
X149083870Y-98413771D01*
X149072325Y-98420792D01*
X148599616Y-98665729D01*
X148587223Y-98671112D01*
X148085564Y-98849402D01*
X148072553Y-98853047D01*
X147551298Y-98961366D01*
X147537912Y-98963206D01*
X147003377Y-98999769D01*
X146996621Y-99000000D01*
X145852785Y-99000000D01*
X145782781Y-98971004D01*
X145753785Y-98901000D01*
X145764576Y-98856055D01*
X145846156Y-98695945D01*
X145846156Y-98695944D01*
X145846159Y-98695939D01*
X145880871Y-98476774D01*
X145846159Y-98257609D01*
X145846156Y-98257604D01*
X145846156Y-98257602D01*
X145745421Y-98059900D01*
X145745420Y-98059898D01*
X145588515Y-97902993D01*
X145588512Y-97902991D01*
X145390810Y-97802256D01*
X145390805Y-97802254D01*
X145390804Y-97802254D01*
X145171639Y-97767542D01*
X144952474Y-97802254D01*
X144952467Y-97802256D01*
X144754765Y-97902991D01*
X144597856Y-98059900D01*
X144497121Y-98257602D01*
X144497119Y-98257609D01*
X144462407Y-98476773D01*
X144462407Y-98476774D01*
X144497119Y-98695938D01*
X144497121Y-98695945D01*
X144578702Y-98856055D01*
X144584648Y-98931592D01*
X144535438Y-98989209D01*
X144490493Y-99000000D01*
X141028185Y-99000000D01*
X140958181Y-98971004D01*
X140929185Y-98901000D01*
X140945869Y-98845999D01*
X140946004Y-98845796D01*
X140996460Y-98770284D01*
X141035305Y-98574999D01*
X140996460Y-98379714D01*
X140885840Y-98214159D01*
X140720285Y-98103539D01*
X140525000Y-98064694D01*
X140524999Y-98064694D01*
X140505722Y-98068528D01*
X140431407Y-98053744D01*
X140416406Y-98041434D01*
X140063854Y-97688882D01*
X140063817Y-97688835D01*
X140036690Y-97661713D01*
X140036660Y-97661641D01*
X139932687Y-97557683D01*
X139932687Y-97557682D01*
X139750137Y-97452305D01*
X139632568Y-97420812D01*
X139546538Y-97397767D01*
X139546536Y-97397767D01*
X139441148Y-97397774D01*
X137857693Y-97397774D01*
X137857677Y-97397772D01*
X137818582Y-97397772D01*
X137818574Y-97397769D01*
X137672186Y-97397771D01*
X137672185Y-97397772D01*
X137468600Y-97452327D01*
X137468595Y-97452329D01*
X137286069Y-97557711D01*
X137286067Y-97557713D01*
X137253812Y-97589967D01*
X137253811Y-97589968D01*
X137253809Y-97589969D01*
X137253808Y-97589970D01*
X137232678Y-97611100D01*
X137211547Y-97632231D01*
X137163045Y-97680732D01*
X137082649Y-97761127D01*
X137082620Y-97761151D01*
X137032288Y-97811489D01*
X137022555Y-97820026D01*
X136996718Y-97839855D01*
X136974337Y-97852779D01*
X136950298Y-97862738D01*
X136925337Y-97869429D01*
X136893289Y-97873651D01*
X136880360Y-97874499D01*
X134554289Y-97874499D01*
X134541365Y-97873652D01*
X134529517Y-97872092D01*
X134509082Y-97869401D01*
X134484121Y-97862712D01*
X134460090Y-97852758D01*
X134437706Y-97839834D01*
X134411836Y-97819982D01*
X134402102Y-97811445D01*
X134352586Y-97761928D01*
X134352586Y-97761929D01*
X133715638Y-97124981D01*
X133715600Y-97124933D01*
X133707476Y-97116810D01*
X133707476Y-97116809D01*
X133687999Y-97097336D01*
X133687959Y-97097239D01*
X133584470Y-96993771D01*
X133584466Y-96993768D01*
X133401924Y-96888401D01*
X133401920Y-96888400D01*
X133198316Y-96833864D01*
X133198315Y-96833864D01*
X133092936Y-96833874D01*
X133092926Y-96833875D01*
X132913032Y-96833875D01*
X132887408Y-96830501D01*
X132847032Y-96819682D01*
X132825882Y-96814014D01*
X132781504Y-96788392D01*
X132746001Y-96752888D01*
X132720382Y-96708508D01*
X132703873Y-96646888D01*
X132700500Y-96621265D01*
X132700504Y-96565803D01*
X132700503Y-96565801D01*
X132700504Y-96555442D01*
X132700500Y-96555394D01*
X132700500Y-96354074D01*
X132729496Y-96284070D01*
X132744500Y-96271758D01*
X132750625Y-96267664D01*
X132760840Y-96260840D01*
X132871460Y-96095285D01*
X132910305Y-95900000D01*
X132871460Y-95704715D01*
X132760840Y-95539160D01*
X132595285Y-95428540D01*
X132400000Y-95389695D01*
X132204714Y-95428540D01*
X132204712Y-95428541D01*
X132055001Y-95528575D01*
X131980686Y-95543357D01*
X131944999Y-95528575D01*
X131795287Y-95428541D01*
X131795285Y-95428540D01*
X131600000Y-95389695D01*
X131404714Y-95428540D01*
X131404711Y-95428542D01*
X131239162Y-95539158D01*
X131239158Y-95539162D01*
X131128542Y-95704711D01*
X131128540Y-95704714D01*
X131104371Y-95826219D01*
X131089695Y-95900000D01*
X131128540Y-96095285D01*
X131239160Y-96260840D01*
X131239163Y-96260842D01*
X131239164Y-96260843D01*
X131255500Y-96271758D01*
X131297597Y-96334758D01*
X131299500Y-96354074D01*
X131299500Y-97103808D01*
X131299521Y-97104027D01*
X131299520Y-97130549D01*
X131299520Y-97139748D01*
X131354065Y-97343344D01*
X131385488Y-97397774D01*
X131416968Y-97452305D01*
X131459446Y-97525884D01*
X131608484Y-97674929D01*
X131791019Y-97780320D01*
X131994612Y-97834874D01*
X132028696Y-97834874D01*
X132028704Y-97834875D01*
X132040227Y-97834875D01*
X132100000Y-97834875D01*
X132168587Y-97834875D01*
X132361461Y-97834875D01*
X132431465Y-97863871D01*
X132460461Y-97933875D01*
X132431465Y-98003877D01*
X132381599Y-98053744D01*
X132351217Y-98084126D01*
X132250482Y-98281828D01*
X132250480Y-98281835D01*
X132215768Y-98500999D01*
X132215768Y-98501000D01*
X132250480Y-98720164D01*
X132250480Y-98720166D01*
X132276017Y-98770284D01*
X132318187Y-98853048D01*
X132319720Y-98856055D01*
X132325665Y-98931592D01*
X132276455Y-98989210D01*
X132231510Y-99000000D01*
X116003378Y-99000000D01*
X115996622Y-98999769D01*
X115462087Y-98963207D01*
X115448703Y-98961367D01*
X115294209Y-98929263D01*
X114927446Y-98853048D01*
X114914435Y-98849403D01*
X114412779Y-98671114D01*
X114400386Y-98665731D01*
X113927672Y-98420790D01*
X113916127Y-98413769D01*
X113481183Y-98106753D01*
X113470701Y-98098226D01*
X113455601Y-98084124D01*
X113207869Y-97852758D01*
X113081601Y-97734832D01*
X113072379Y-97724957D01*
X112962557Y-97589968D01*
X112736386Y-97311966D01*
X112728603Y-97300939D01*
X112451974Y-96846043D01*
X112445761Y-96834053D01*
X112445679Y-96833865D01*
X112257225Y-96399999D01*
X112233653Y-96345730D01*
X112229128Y-96332998D01*
X112192489Y-96202232D01*
X112085486Y-95820332D01*
X112082742Y-95807124D01*
X112010246Y-95279677D01*
X112009324Y-95266197D01*
X112009324Y-94999995D01*
X113490005Y-94999995D01*
X113490005Y-95000004D01*
X113527862Y-95335999D01*
X113527865Y-95336011D01*
X113639542Y-95655162D01*
X113639542Y-95655163D01*
X113819435Y-95941462D01*
X113819438Y-95941466D01*
X114058534Y-96180562D01*
X114058536Y-96180563D01*
X114058537Y-96180564D01*
X114334677Y-96354074D01*
X114344838Y-96360458D01*
X114472640Y-96405178D01*
X114663988Y-96472134D01*
X114663992Y-96472135D01*
X114663995Y-96472136D01*
X114663996Y-96472136D01*
X114664000Y-96472137D01*
X114999996Y-96509995D01*
X115000000Y-96509995D01*
X115000004Y-96509995D01*
X115335999Y-96472137D01*
X115336001Y-96472136D01*
X115336005Y-96472136D01*
X115337946Y-96471457D01*
X115364891Y-96462028D01*
X115655162Y-96360458D01*
X115941466Y-96180562D01*
X116122028Y-96000000D01*
X119689695Y-96000000D01*
X119728540Y-96195285D01*
X119839160Y-96360840D01*
X120004715Y-96471460D01*
X120200000Y-96510305D01*
X120395285Y-96471460D01*
X120502233Y-96400000D01*
X124990768Y-96400000D01*
X125008238Y-96510305D01*
X125025480Y-96619164D01*
X125025482Y-96619171D01*
X125124761Y-96814015D01*
X125126219Y-96816876D01*
X125283124Y-96973781D01*
X125283126Y-96973782D01*
X125480828Y-97074517D01*
X125480830Y-97074517D01*
X125480835Y-97074520D01*
X125700000Y-97109232D01*
X125919165Y-97074520D01*
X126116876Y-96973781D01*
X126273781Y-96816876D01*
X126374520Y-96619165D01*
X126409232Y-96400000D01*
X126374520Y-96180835D01*
X126374517Y-96180830D01*
X126374517Y-96180828D01*
X126273782Y-95983126D01*
X126273781Y-95983124D01*
X126116876Y-95826219D01*
X126116873Y-95826217D01*
X125919171Y-95725482D01*
X125919166Y-95725480D01*
X125919165Y-95725480D01*
X125700000Y-95690768D01*
X125480835Y-95725480D01*
X125480828Y-95725482D01*
X125283126Y-95826217D01*
X125126217Y-95983126D01*
X125025482Y-96180828D01*
X125025480Y-96180835D01*
X124999364Y-96345729D01*
X124990768Y-96400000D01*
X120502233Y-96400000D01*
X120560840Y-96360840D01*
X120671460Y-96195285D01*
X120710305Y-96000000D01*
X120671460Y-95804715D01*
X120560840Y-95639160D01*
X120395285Y-95528540D01*
X120200000Y-95489695D01*
X120004714Y-95528540D01*
X120004711Y-95528542D01*
X119839162Y-95639158D01*
X119839158Y-95639162D01*
X119728542Y-95804711D01*
X119728540Y-95804714D01*
X119710620Y-95894805D01*
X119689695Y-96000000D01*
X116122028Y-96000000D01*
X116180562Y-95941466D01*
X116360458Y-95655162D01*
X116472136Y-95336005D01*
X116472678Y-95331195D01*
X134029500Y-95331195D01*
X134029500Y-96628805D01*
X134047023Y-96694201D01*
X134080646Y-96819686D01*
X134179447Y-96990813D01*
X134179449Y-96990815D01*
X134179451Y-96990818D01*
X134319182Y-97130549D01*
X134319184Y-97130550D01*
X134319186Y-97130552D01*
X134490314Y-97229353D01*
X134490312Y-97229353D01*
X134490316Y-97229354D01*
X134490318Y-97229355D01*
X134681195Y-97280500D01*
X134681197Y-97280500D01*
X134878803Y-97280500D01*
X134878805Y-97280500D01*
X135069682Y-97229355D01*
X135069684Y-97229353D01*
X135069686Y-97229353D01*
X135240813Y-97130552D01*
X135240813Y-97130551D01*
X135240818Y-97130549D01*
X135380549Y-96990818D01*
X135390385Y-96973782D01*
X135479353Y-96819686D01*
X135479353Y-96819684D01*
X135479355Y-96819682D01*
X135530500Y-96628805D01*
X135530500Y-95964809D01*
X135559496Y-95894805D01*
X135629500Y-95865809D01*
X135699502Y-95894804D01*
X135795233Y-95990535D01*
X135949267Y-96079466D01*
X136121069Y-96125500D01*
X136121071Y-96125500D01*
X136298929Y-96125500D01*
X136298931Y-96125500D01*
X136470733Y-96079466D01*
X136624767Y-95990535D01*
X136750535Y-95864767D01*
X136839466Y-95710733D01*
X136885500Y-95538931D01*
X136885500Y-95361069D01*
X141314500Y-95361069D01*
X141314500Y-95538931D01*
X141360534Y-95710733D01*
X141449465Y-95864767D01*
X141575233Y-95990535D01*
X141729267Y-96079466D01*
X141901069Y-96125500D01*
X141901071Y-96125500D01*
X142078929Y-96125500D01*
X142078931Y-96125500D01*
X142250733Y-96079466D01*
X142404767Y-95990535D01*
X142500497Y-95894804D01*
X142570500Y-95865809D01*
X142640504Y-95894805D01*
X142669500Y-95964809D01*
X142669500Y-96628805D01*
X142687023Y-96694201D01*
X142720646Y-96819686D01*
X142819447Y-96990813D01*
X142819449Y-96990815D01*
X142819451Y-96990818D01*
X142959182Y-97130549D01*
X142959184Y-97130550D01*
X142959186Y-97130552D01*
X143130314Y-97229353D01*
X143130312Y-97229353D01*
X143130316Y-97229354D01*
X143130318Y-97229355D01*
X143321195Y-97280500D01*
X143321197Y-97280500D01*
X143518803Y-97280500D01*
X143518805Y-97280500D01*
X143709682Y-97229355D01*
X143709684Y-97229353D01*
X143709686Y-97229353D01*
X143880813Y-97130552D01*
X143880813Y-97130551D01*
X143880818Y-97130549D01*
X144020549Y-96990818D01*
X144030385Y-96973782D01*
X144119353Y-96819686D01*
X144119353Y-96819684D01*
X144119355Y-96819682D01*
X144170500Y-96628805D01*
X144170500Y-95331195D01*
X144119355Y-95140318D01*
X144119353Y-95140315D01*
X144119353Y-95140313D01*
X144038340Y-94999995D01*
X146501254Y-94999995D01*
X146501254Y-95000004D01*
X146539111Y-95335999D01*
X146539114Y-95336011D01*
X146650791Y-95655162D01*
X146650791Y-95655163D01*
X146830684Y-95941462D01*
X146830687Y-95941466D01*
X147069783Y-96180562D01*
X147069785Y-96180563D01*
X147069786Y-96180564D01*
X147345926Y-96354074D01*
X147356087Y-96360458D01*
X147483889Y-96405178D01*
X147675237Y-96472134D01*
X147675241Y-96472135D01*
X147675244Y-96472136D01*
X147675245Y-96472136D01*
X147675249Y-96472137D01*
X148011245Y-96509995D01*
X148011249Y-96509995D01*
X148011253Y-96509995D01*
X148347248Y-96472137D01*
X148347250Y-96472136D01*
X148347254Y-96472136D01*
X148349195Y-96471457D01*
X148376140Y-96462028D01*
X148666411Y-96360458D01*
X148952715Y-96180562D01*
X149191811Y-95941466D01*
X149371707Y-95655162D01*
X149483385Y-95336005D01*
X149483927Y-95331195D01*
X149521244Y-95000004D01*
X149521244Y-94999995D01*
X149483386Y-94664000D01*
X149483383Y-94663988D01*
X149419777Y-94482214D01*
X149371707Y-94344838D01*
X149354002Y-94316661D01*
X149191813Y-94058537D01*
X149191812Y-94058536D01*
X149191811Y-94058534D01*
X148952715Y-93819438D01*
X148952712Y-93819436D01*
X148952711Y-93819435D01*
X148666412Y-93639542D01*
X148347260Y-93527865D01*
X148347248Y-93527862D01*
X148011253Y-93490005D01*
X148011245Y-93490005D01*
X147675249Y-93527862D01*
X147675237Y-93527865D01*
X147356086Y-93639542D01*
X147356085Y-93639542D01*
X147069786Y-93819435D01*
X146830684Y-94058537D01*
X146650791Y-94344836D01*
X146650791Y-94344837D01*
X146539114Y-94663988D01*
X146539111Y-94664000D01*
X146501254Y-94999995D01*
X144038340Y-94999995D01*
X144020552Y-94969186D01*
X144020550Y-94969184D01*
X144020549Y-94969182D01*
X143880818Y-94829451D01*
X143880815Y-94829449D01*
X143880813Y-94829447D01*
X143709685Y-94730646D01*
X143709687Y-94730646D01*
X143586191Y-94697556D01*
X143518805Y-94679500D01*
X143321195Y-94679500D01*
X143253809Y-94697556D01*
X143130313Y-94730646D01*
X142959186Y-94829447D01*
X142819449Y-94969184D01*
X142741661Y-95103916D01*
X142681547Y-95150042D01*
X142606424Y-95140151D01*
X142570189Y-95103915D01*
X142532327Y-95038337D01*
X142530535Y-95035233D01*
X142404767Y-94909465D01*
X142250733Y-94820534D01*
X142078931Y-94774500D01*
X141901069Y-94774500D01*
X141729267Y-94820534D01*
X141575233Y-94909465D01*
X141449465Y-95035233D01*
X141360534Y-95189267D01*
X141314500Y-95361069D01*
X136885500Y-95361069D01*
X136839466Y-95189267D01*
X136750535Y-95035233D01*
X136624767Y-94909465D01*
X136470733Y-94820534D01*
X136320375Y-94780246D01*
X136309275Y-94771728D01*
X136300140Y-94774500D01*
X136298931Y-94774500D01*
X136121069Y-94774500D01*
X135980109Y-94812270D01*
X135949267Y-94820534D01*
X135795233Y-94909465D01*
X135669464Y-95035234D01*
X135629810Y-95103916D01*
X135569696Y-95150042D01*
X135494573Y-95140151D01*
X135458338Y-95103915D01*
X135380552Y-94969186D01*
X135380550Y-94969184D01*
X135380549Y-94969182D01*
X135240818Y-94829451D01*
X135240815Y-94829449D01*
X135240813Y-94829447D01*
X135069685Y-94730646D01*
X135069687Y-94730646D01*
X134946191Y-94697556D01*
X134878805Y-94679500D01*
X134681195Y-94679500D01*
X134613809Y-94697556D01*
X134490313Y-94730646D01*
X134319186Y-94829447D01*
X134179447Y-94969186D01*
X134080646Y-95140313D01*
X134067921Y-95187804D01*
X134029500Y-95331195D01*
X116472678Y-95331195D01*
X116509995Y-95000004D01*
X116509995Y-94999995D01*
X116472137Y-94664000D01*
X116472134Y-94663988D01*
X116408528Y-94482214D01*
X116360458Y-94344838D01*
X116342753Y-94316661D01*
X116180564Y-94058537D01*
X116180563Y-94058536D01*
X116180562Y-94058534D01*
X115941466Y-93819438D01*
X115941463Y-93819436D01*
X115941462Y-93819435D01*
X115655163Y-93639542D01*
X115336011Y-93527865D01*
X115335999Y-93527862D01*
X115000004Y-93490005D01*
X114999996Y-93490005D01*
X114664000Y-93527862D01*
X114663988Y-93527865D01*
X114344837Y-93639542D01*
X114344836Y-93639542D01*
X114058537Y-93819435D01*
X113819435Y-94058537D01*
X113639542Y-94344836D01*
X113639542Y-94344837D01*
X113527865Y-94663988D01*
X113527862Y-94664000D01*
X113490005Y-94999995D01*
X112009324Y-94999995D01*
X112009324Y-94733802D01*
X112010246Y-94720322D01*
X112016870Y-94672126D01*
X112082742Y-94192872D01*
X112085485Y-94179670D01*
X112229128Y-93666998D01*
X112233653Y-93654269D01*
X112238037Y-93644177D01*
X112445766Y-93165935D01*
X112451972Y-93153959D01*
X112728610Y-92699049D01*
X112736381Y-92688040D01*
X113072384Y-92275035D01*
X113081595Y-92265172D01*
X113470710Y-91901765D01*
X113481173Y-91893253D01*
X113916131Y-91586227D01*
X113927672Y-91579209D01*
X114400386Y-91334268D01*
X114412779Y-91328885D01*
X114914444Y-91150593D01*
X114927437Y-91146953D01*
X115448717Y-91038629D01*
X115462072Y-91036794D01*
X115996622Y-91000230D01*
X116003378Y-90999999D01*
X128490643Y-90999999D01*
X128560647Y-91028995D01*
G37*
%TD.AperFunction*%
%TD*%
M02*
