%TF.GenerationSoftware,KiCad,Pcbnew,8.0.4*%
%TF.CreationDate,2024-08-21T21:41:38-07:00*%
%TF.ProjectId,udb-s,7564622d-732e-46b6-9963-61645f706362,rev?*%
%TF.SameCoordinates,Original*%
%TF.FileFunction,Legend,Bot*%
%TF.FilePolarity,Positive*%
%FSLAX46Y46*%
G04 Gerber Fmt 4.6, Leading zero omitted, Abs format (unit mm)*
G04 Created by KiCad (PCBNEW 8.0.4) date 2024-08-21 21:41:38*
%MOMM*%
%LPD*%
G01*
G04 APERTURE LIST*
%ADD10C,0.200000*%
%ADD11C,0.000000*%
G04 APERTURE END LIST*
D10*
X118000000Y-95000000D02*
G75*
G02*
X112000000Y-95000000I-3000000J0D01*
G01*
X112000000Y-95000000D02*
G75*
G02*
X118000000Y-95000000I3000000J0D01*
G01*
D11*
%TO.C,G\u002A\u002A\u002A*%
G36*
X120014020Y-93010197D02*
G01*
X120023337Y-93010256D01*
X120040164Y-93010496D01*
X120052728Y-93010906D01*
X120061422Y-93011509D01*
X120066642Y-93012327D01*
X120068783Y-93013385D01*
X120070984Y-93014850D01*
X120076900Y-93016750D01*
X120084849Y-93018245D01*
X120088375Y-93018751D01*
X120099573Y-93020964D01*
X120110739Y-93024348D01*
X120123996Y-93029513D01*
X120124748Y-93029822D01*
X120130725Y-93031955D01*
X120134627Y-93032829D01*
X120136755Y-93033265D01*
X120143381Y-93035784D01*
X120153523Y-93040370D01*
X120166751Y-93046825D01*
X120182631Y-93054949D01*
X120184817Y-93056034D01*
X120190884Y-93058959D01*
X120199451Y-93063043D01*
X120209416Y-93067758D01*
X120215814Y-93070842D01*
X120226449Y-93076239D01*
X120235606Y-93081202D01*
X120241817Y-93084951D01*
X120244602Y-93086787D01*
X120253453Y-93092246D01*
X120262250Y-93097268D01*
X120268691Y-93100789D01*
X120276751Y-93105448D01*
X120282370Y-93109178D01*
X120286743Y-93112733D01*
X120290488Y-93115791D01*
X120296372Y-93119997D01*
X120296997Y-93120410D01*
X120302984Y-93124680D01*
X120309484Y-93129681D01*
X120310827Y-93130756D01*
X120316084Y-93134897D01*
X120319438Y-93137434D01*
X120321433Y-93139042D01*
X120326494Y-93143334D01*
X120333639Y-93149500D01*
X120342016Y-93156807D01*
X120348145Y-93162147D01*
X120357642Y-93170310D01*
X120366122Y-93177478D01*
X120372283Y-93182541D01*
X120381592Y-93190007D01*
X120391136Y-93197826D01*
X120398137Y-93203838D01*
X120403340Y-93208688D01*
X120407491Y-93213021D01*
X120408193Y-93213791D01*
X120413729Y-93219518D01*
X120418453Y-93223917D01*
X120429588Y-93233517D01*
X120441722Y-93244671D01*
X120455138Y-93257721D01*
X120470772Y-93273556D01*
X120470823Y-93273608D01*
X120482612Y-93285685D01*
X120495913Y-93299255D01*
X120509099Y-93312662D01*
X120520543Y-93324247D01*
X120521233Y-93324944D01*
X120531671Y-93335708D01*
X120542250Y-93346962D01*
X120551772Y-93357412D01*
X120559036Y-93365765D01*
X120561843Y-93369116D01*
X120568410Y-93376850D01*
X120573801Y-93383066D01*
X120577063Y-93386655D01*
X120580787Y-93390703D01*
X120585554Y-93396340D01*
X120587096Y-93398208D01*
X120592000Y-93403948D01*
X120598635Y-93411571D01*
X120606017Y-93419941D01*
X120607893Y-93422077D01*
X120617394Y-93433385D01*
X120627310Y-93445819D01*
X120635776Y-93457052D01*
X120637991Y-93460077D01*
X120646308Y-93470903D01*
X120655006Y-93481592D01*
X120662529Y-93490214D01*
X120671710Y-93500530D01*
X120684041Y-93515454D01*
X120697840Y-93533276D01*
X120713610Y-93554630D01*
X120717285Y-93559590D01*
X120726310Y-93571253D01*
X120736241Y-93583570D01*
X120745512Y-93594583D01*
X120747565Y-93596963D01*
X120756971Y-93608076D01*
X120768316Y-93621728D01*
X120780776Y-93636912D01*
X120793525Y-93652617D01*
X120805740Y-93667834D01*
X120816595Y-93681553D01*
X120816807Y-93681824D01*
X120823645Y-93690201D01*
X120831264Y-93699034D01*
X120838710Y-93707265D01*
X120845027Y-93713839D01*
X120849262Y-93717698D01*
X120852168Y-93720478D01*
X120856025Y-93726185D01*
X120859727Y-93733588D01*
X120865597Y-93742543D01*
X120873772Y-93752117D01*
X120874937Y-93753400D01*
X120881213Y-93760763D01*
X120888628Y-93769972D01*
X120895814Y-93779341D01*
X120897264Y-93781276D01*
X120904769Y-93791006D01*
X120912309Y-93800400D01*
X120918449Y-93807662D01*
X120922325Y-93812047D01*
X120929681Y-93820422D01*
X120935968Y-93827638D01*
X120938761Y-93830587D01*
X120944151Y-93834987D01*
X120948225Y-93836718D01*
X120950614Y-93837092D01*
X120952622Y-93839030D01*
X120952679Y-93839312D01*
X120955384Y-93841269D01*
X120960891Y-93842893D01*
X120964392Y-93843233D01*
X120971739Y-93842658D01*
X120978914Y-93840894D01*
X120984360Y-93838387D01*
X120986521Y-93835581D01*
X120986401Y-93834936D01*
X120984721Y-93830567D01*
X120981472Y-93823488D01*
X120977185Y-93814880D01*
X120971352Y-93803487D01*
X120964683Y-93790345D01*
X120958780Y-93778606D01*
X120955450Y-93771944D01*
X120949491Y-93760045D01*
X120942916Y-93746930D01*
X120936638Y-93734425D01*
X120931576Y-93724161D01*
X120927413Y-93715357D01*
X120924599Y-93708991D01*
X120923566Y-93705999D01*
X120923483Y-93705567D01*
X120921686Y-93701679D01*
X120918023Y-93695182D01*
X120913129Y-93687224D01*
X120910756Y-93683444D01*
X120901877Y-93668113D01*
X120895039Y-93654270D01*
X120890795Y-93643010D01*
X120890742Y-93642831D01*
X120888591Y-93637566D01*
X120884804Y-93629826D01*
X120880164Y-93621218D01*
X120875145Y-93612122D01*
X120869068Y-93600454D01*
X120862456Y-93586980D01*
X120854641Y-93570369D01*
X120854407Y-93569869D01*
X120850497Y-93562278D01*
X120846580Y-93555683D01*
X120846113Y-93554978D01*
X120841771Y-93548338D01*
X120837146Y-93541155D01*
X120836185Y-93539665D01*
X120832192Y-93533777D01*
X120829276Y-93529914D01*
X120828093Y-93528420D01*
X120826711Y-93525723D01*
X120826711Y-93525720D01*
X120825459Y-93523196D01*
X120822199Y-93517826D01*
X120817631Y-93510766D01*
X120812939Y-93503685D01*
X120808966Y-93497677D01*
X120806794Y-93494375D01*
X120806521Y-93493930D01*
X120804212Y-93489462D01*
X120801329Y-93483200D01*
X120800482Y-93481340D01*
X120796323Y-93473158D01*
X120791701Y-93465040D01*
X120789766Y-93461836D01*
X120783767Y-93451088D01*
X120779682Y-93442037D01*
X120778474Y-93439497D01*
X120775252Y-93433550D01*
X120771061Y-93426299D01*
X120762629Y-93411782D01*
X120753582Y-93394912D01*
X120746797Y-93380268D01*
X120741863Y-93366941D01*
X120738367Y-93354017D01*
X120736855Y-93347960D01*
X120734100Y-93338928D01*
X120731470Y-93332225D01*
X120730835Y-93330925D01*
X120723842Y-93316331D01*
X120719020Y-93305638D01*
X120716229Y-93298521D01*
X120715329Y-93294655D01*
X120714789Y-93292073D01*
X120712040Y-93287261D01*
X120709110Y-93282911D01*
X120705765Y-93273559D01*
X120703839Y-93260618D01*
X120703222Y-93243539D01*
X120703225Y-93239675D01*
X120703374Y-93229994D01*
X120704009Y-93223298D01*
X120705483Y-93218173D01*
X120708151Y-93213204D01*
X120712365Y-93206974D01*
X120714101Y-93204560D01*
X120724480Y-93193203D01*
X120736376Y-93185569D01*
X120750682Y-93181223D01*
X120768290Y-93179730D01*
X120777483Y-93179709D01*
X120785073Y-93180177D01*
X120791034Y-93181589D01*
X120797091Y-93184378D01*
X120804967Y-93188979D01*
X120809732Y-93191950D01*
X120825348Y-93203591D01*
X120838153Y-93216943D01*
X120849714Y-93233566D01*
X120854896Y-93241444D01*
X120864411Y-93254375D01*
X120876231Y-93269155D01*
X120877153Y-93270272D01*
X120883464Y-93278073D01*
X120888800Y-93284909D01*
X120892088Y-93289411D01*
X120895763Y-93294708D01*
X120900469Y-93301095D01*
X120901199Y-93302057D01*
X120906839Y-93309793D01*
X120914668Y-93320901D01*
X120924284Y-93334803D01*
X120935283Y-93350924D01*
X120936414Y-93352589D01*
X120942383Y-93361308D01*
X120947729Y-93369018D01*
X120951411Y-93374214D01*
X120951977Y-93374996D01*
X120956099Y-93380803D01*
X120961705Y-93388810D01*
X120967753Y-93397529D01*
X120969666Y-93400301D01*
X120976843Y-93410690D01*
X120982181Y-93418381D01*
X120986425Y-93424427D01*
X120990320Y-93429884D01*
X120994611Y-93435806D01*
X121000042Y-93443248D01*
X121001614Y-93445414D01*
X121007925Y-93454375D01*
X121013410Y-93462545D01*
X121017028Y-93468383D01*
X121017596Y-93469390D01*
X121021268Y-93475811D01*
X121024052Y-93480538D01*
X121026129Y-93483673D01*
X121030460Y-93489962D01*
X121036273Y-93498286D01*
X121042868Y-93507654D01*
X121049548Y-93517075D01*
X121055616Y-93525559D01*
X121060372Y-93532114D01*
X121062085Y-93534459D01*
X121066797Y-93540965D01*
X121072933Y-93549479D01*
X121079608Y-93558771D01*
X121083060Y-93563552D01*
X121090329Y-93573452D01*
X121097015Y-93582358D01*
X121102014Y-93588789D01*
X121105431Y-93593067D01*
X121114631Y-93605176D01*
X121121151Y-93614919D01*
X121125555Y-93623118D01*
X121125800Y-93623644D01*
X121129194Y-93629980D01*
X121132319Y-93634475D01*
X121132859Y-93635088D01*
X121136604Y-93639825D01*
X121141002Y-93645892D01*
X121141070Y-93645988D01*
X121145361Y-93652106D01*
X121151201Y-93660363D01*
X121157347Y-93669001D01*
X121158351Y-93670418D01*
X121163311Y-93677721D01*
X121166802Y-93683376D01*
X121168122Y-93686259D01*
X121168857Y-93688122D01*
X121172075Y-93691703D01*
X121172454Y-93692031D01*
X121176648Y-93696570D01*
X121181155Y-93702541D01*
X121182457Y-93704417D01*
X121187181Y-93710978D01*
X121193429Y-93719452D01*
X121200205Y-93728484D01*
X121203731Y-93733186D01*
X121209078Y-93740519D01*
X121212758Y-93745844D01*
X121214128Y-93748247D01*
X121214135Y-93748323D01*
X121215681Y-93751266D01*
X121219392Y-93756849D01*
X121224468Y-93763993D01*
X121230114Y-93771618D01*
X121235530Y-93778646D01*
X121239920Y-93783998D01*
X121242485Y-93786595D01*
X121243804Y-93787658D01*
X121245606Y-93791118D01*
X121245958Y-93792329D01*
X121248591Y-93796769D01*
X121252954Y-93802499D01*
X121255164Y-93805151D01*
X121259623Y-93810549D01*
X121262311Y-93813867D01*
X121263597Y-93815625D01*
X121267522Y-93821294D01*
X121273071Y-93829499D01*
X121279601Y-93839278D01*
X121286469Y-93849672D01*
X121293030Y-93859721D01*
X121295431Y-93863366D01*
X121303456Y-93875088D01*
X121313251Y-93888908D01*
X121323932Y-93903586D01*
X121334612Y-93917884D01*
X121334998Y-93918398D01*
X121339317Y-93924807D01*
X121342345Y-93930345D01*
X121342465Y-93930610D01*
X121345130Y-93935173D01*
X121349925Y-93942444D01*
X121356158Y-93951461D01*
X121363138Y-93961266D01*
X121370174Y-93970898D01*
X121376575Y-93979396D01*
X121381648Y-93985802D01*
X121384702Y-93989154D01*
X121386802Y-93991279D01*
X121388466Y-93994508D01*
X121388522Y-93994872D01*
X121390528Y-93998406D01*
X121394519Y-94003267D01*
X121395352Y-94004186D01*
X121399064Y-94008885D01*
X121400572Y-94011893D01*
X121400890Y-94013101D01*
X121403985Y-94018210D01*
X121410181Y-94026317D01*
X121419242Y-94037134D01*
X121430932Y-94050374D01*
X121445014Y-94065752D01*
X121455512Y-94075851D01*
X121464463Y-94081765D01*
X121471743Y-94083298D01*
X121477451Y-94080496D01*
X121478621Y-94079017D01*
X121481260Y-94071883D01*
X121482340Y-94061983D01*
X121481791Y-94050718D01*
X121479540Y-94039486D01*
X121478073Y-94033907D01*
X121476319Y-94025253D01*
X121475634Y-94018829D01*
X121474678Y-94012118D01*
X121472017Y-94004674D01*
X121469457Y-93998734D01*
X121468350Y-93994106D01*
X121467984Y-93991537D01*
X121466251Y-93985043D01*
X121463694Y-93977363D01*
X121460986Y-93970455D01*
X121458799Y-93966280D01*
X121457104Y-93962573D01*
X121455561Y-93956575D01*
X121454542Y-93952195D01*
X121452160Y-93943964D01*
X121449204Y-93935012D01*
X121446993Y-93928202D01*
X121444946Y-93920451D01*
X121444157Y-93915333D01*
X121443540Y-93911714D01*
X121440816Y-93907180D01*
X121438143Y-93903330D01*
X121436037Y-93897212D01*
X121435588Y-93895335D01*
X121433082Y-93887814D01*
X121429692Y-93879862D01*
X121428281Y-93876821D01*
X121425777Y-93870622D01*
X121424786Y-93866857D01*
X121423563Y-93863286D01*
X121420385Y-93858231D01*
X121420202Y-93857988D01*
X121416215Y-93851470D01*
X121412722Y-93843982D01*
X121412392Y-93843140D01*
X121409422Y-93836541D01*
X121406728Y-93831875D01*
X121406153Y-93831010D01*
X121403514Y-93825595D01*
X121400899Y-93818558D01*
X121400247Y-93816536D01*
X121398841Y-93812393D01*
X121397233Y-93808144D01*
X121395110Y-93803079D01*
X121392157Y-93796487D01*
X121388059Y-93787658D01*
X121382501Y-93775881D01*
X121375169Y-93760445D01*
X121367295Y-93743975D01*
X121359025Y-93726951D01*
X121352421Y-93713744D01*
X121347312Y-93704019D01*
X121343525Y-93697438D01*
X121340888Y-93693668D01*
X121339022Y-93691167D01*
X121337617Y-93688066D01*
X121337607Y-93687973D01*
X121336452Y-93684845D01*
X121333712Y-93678499D01*
X121329869Y-93669970D01*
X121325406Y-93660297D01*
X121320807Y-93650516D01*
X121316553Y-93641665D01*
X121313128Y-93634782D01*
X121311014Y-93630903D01*
X121310314Y-93629717D01*
X121307468Y-93624299D01*
X121303489Y-93616262D01*
X121298842Y-93606604D01*
X121293996Y-93596317D01*
X121289415Y-93586399D01*
X121285565Y-93577844D01*
X121282913Y-93571647D01*
X121281926Y-93568803D01*
X121281912Y-93568682D01*
X121280737Y-93565490D01*
X121278047Y-93559290D01*
X121274368Y-93551295D01*
X121270186Y-93542314D01*
X121266353Y-93533890D01*
X121263768Y-93527995D01*
X121263681Y-93527789D01*
X121259932Y-93519435D01*
X121254960Y-93509072D01*
X121249567Y-93498307D01*
X121244559Y-93488744D01*
X121240738Y-93481990D01*
X121240452Y-93481516D01*
X121237436Y-93475464D01*
X121236097Y-93470785D01*
X121235474Y-93468298D01*
X121232288Y-93463830D01*
X121230367Y-93461718D01*
X121228656Y-93457419D01*
X121228442Y-93456415D01*
X121226584Y-93451441D01*
X121223129Y-93443370D01*
X121218448Y-93433059D01*
X121212917Y-93421365D01*
X121197179Y-93388708D01*
X121197179Y-93364979D01*
X121197323Y-93355992D01*
X121198426Y-93343689D01*
X121201024Y-93333647D01*
X121205600Y-93324275D01*
X121212634Y-93313987D01*
X121218082Y-93307384D01*
X121225036Y-93301530D01*
X121233165Y-93298033D01*
X121243660Y-93296424D01*
X121257712Y-93296234D01*
X121263066Y-93296406D01*
X121273126Y-93297017D01*
X121281079Y-93297874D01*
X121285558Y-93298850D01*
X121285635Y-93298883D01*
X121302015Y-93307198D01*
X121314677Y-93316664D01*
X121324742Y-93328322D01*
X121333327Y-93343211D01*
X121336448Y-93349720D01*
X121341913Y-93361614D01*
X121346854Y-93372951D01*
X121350875Y-93382779D01*
X121353577Y-93390149D01*
X121354567Y-93394110D01*
X121354741Y-93395195D01*
X121356379Y-93400082D01*
X121359181Y-93406663D01*
X121361391Y-93411429D01*
X121365736Y-93420803D01*
X121370077Y-93430172D01*
X121372898Y-93436573D01*
X121375396Y-93443027D01*
X121376359Y-93446655D01*
X121376739Y-93448353D01*
X121378927Y-93453642D01*
X121382412Y-93460423D01*
X121384492Y-93464355D01*
X121387346Y-93470685D01*
X121388466Y-93474639D01*
X121388856Y-93476707D01*
X121391492Y-93481240D01*
X121393673Y-93484574D01*
X121397406Y-93491316D01*
X121402159Y-93500477D01*
X121407409Y-93511075D01*
X121412568Y-93521655D01*
X121417142Y-93530912D01*
X121420610Y-93537797D01*
X121422476Y-93541313D01*
X121422808Y-93541880D01*
X121425547Y-93546921D01*
X121428881Y-93553420D01*
X121429938Y-93555463D01*
X121434551Y-93563573D01*
X121439574Y-93571580D01*
X121441767Y-93575017D01*
X121447115Y-93584221D01*
X121451897Y-93593372D01*
X121453935Y-93597445D01*
X121459072Y-93606989D01*
X121463893Y-93615164D01*
X121465207Y-93617326D01*
X121469624Y-93625232D01*
X121474864Y-93635245D01*
X121480057Y-93645717D01*
X121480944Y-93647527D01*
X121486180Y-93657327D01*
X121492440Y-93667983D01*
X121499059Y-93678473D01*
X121505372Y-93687772D01*
X121510717Y-93694856D01*
X121514428Y-93698701D01*
X121515845Y-93700605D01*
X121517845Y-93705360D01*
X121519362Y-93708795D01*
X121521521Y-93710808D01*
X121522812Y-93711475D01*
X121524961Y-93715045D01*
X121525065Y-93715332D01*
X121527554Y-93720417D01*
X121531271Y-93726546D01*
X121531628Y-93727086D01*
X121535327Y-93733006D01*
X121537746Y-93737443D01*
X121537895Y-93737760D01*
X121540564Y-93742420D01*
X121544432Y-93748288D01*
X121549507Y-93755761D01*
X121554825Y-93764593D01*
X121560179Y-93774974D01*
X121561232Y-93777033D01*
X121565489Y-93784214D01*
X121569436Y-93789502D01*
X121572728Y-93793456D01*
X121575664Y-93797976D01*
X121575794Y-93798243D01*
X121578436Y-93802926D01*
X121582174Y-93808873D01*
X121582508Y-93809382D01*
X121586204Y-93815318D01*
X121588666Y-93819769D01*
X121589228Y-93820783D01*
X121592331Y-93825539D01*
X121597254Y-93832594D01*
X121603221Y-93840827D01*
X121605930Y-93844533D01*
X121611128Y-93851855D01*
X121614727Y-93857229D01*
X121616073Y-93859693D01*
X121617303Y-93861992D01*
X121620672Y-93866070D01*
X121620769Y-93866178D01*
X121623586Y-93869965D01*
X121628413Y-93877111D01*
X121634770Y-93886883D01*
X121642182Y-93898547D01*
X121650169Y-93911369D01*
X121651130Y-93912927D01*
X121658799Y-93925287D01*
X121665589Y-93936118D01*
X121671086Y-93944772D01*
X121674880Y-93950597D01*
X121676555Y-93952943D01*
X121676879Y-93953266D01*
X121679621Y-93956558D01*
X121684245Y-93962435D01*
X121689956Y-93969893D01*
X121691644Y-93972107D01*
X121697197Y-93979144D01*
X121701510Y-93984249D01*
X121703765Y-93986438D01*
X121704054Y-93986588D01*
X121705663Y-93989569D01*
X121706136Y-93990958D01*
X121709032Y-93995867D01*
X121714031Y-94003177D01*
X121720514Y-94012030D01*
X121727864Y-94021567D01*
X121735461Y-94030930D01*
X121735862Y-94031400D01*
X121743061Y-94038451D01*
X121752503Y-94046010D01*
X121762253Y-94052520D01*
X121773073Y-94059860D01*
X121785487Y-94069986D01*
X121797069Y-94081040D01*
X121814624Y-94099370D01*
X121814624Y-94117005D01*
X121814271Y-94125170D01*
X121811327Y-94138733D01*
X121804982Y-94149850D01*
X121794739Y-94159585D01*
X121793275Y-94160664D01*
X121779950Y-94168208D01*
X121764632Y-94173708D01*
X121748723Y-94176870D01*
X121733627Y-94177402D01*
X121720749Y-94175012D01*
X121716100Y-94173225D01*
X121700543Y-94165347D01*
X121684826Y-94154891D01*
X121670767Y-94143019D01*
X121664669Y-94136782D01*
X121656954Y-94128074D01*
X121649690Y-94119117D01*
X121643601Y-94110850D01*
X121639406Y-94104212D01*
X121637829Y-94100144D01*
X121637322Y-94098164D01*
X121634539Y-94093485D01*
X121630263Y-94088222D01*
X121625562Y-94083511D01*
X121621504Y-94080491D01*
X121619161Y-94080297D01*
X121616175Y-94082498D01*
X121610625Y-94084580D01*
X121606710Y-94085984D01*
X121604457Y-94089060D01*
X121603908Y-94095244D01*
X121603891Y-94096139D01*
X121603039Y-94105058D01*
X121601314Y-94113963D01*
X121600651Y-94116598D01*
X121598509Y-94126051D01*
X121596610Y-94135561D01*
X121595918Y-94138929D01*
X121593448Y-94148021D01*
X121590702Y-94155354D01*
X121585796Y-94162936D01*
X121577841Y-94172012D01*
X121568218Y-94181148D01*
X121558207Y-94189134D01*
X121549085Y-94194760D01*
X121542990Y-94197707D01*
X121532271Y-94202528D01*
X121523394Y-94205768D01*
X121514740Y-94207969D01*
X121504690Y-94209677D01*
X121499480Y-94210298D01*
X121481513Y-94210843D01*
X121462602Y-94209402D01*
X121444611Y-94206182D01*
X121429401Y-94201387D01*
X121426510Y-94199947D01*
X121419011Y-94195387D01*
X121409353Y-94188888D01*
X121398549Y-94181178D01*
X121387608Y-94172986D01*
X121377542Y-94165043D01*
X121369361Y-94158076D01*
X121367956Y-94156755D01*
X121361257Y-94149706D01*
X121352329Y-94139483D01*
X121341660Y-94126666D01*
X121329733Y-94111834D01*
X121317036Y-94095569D01*
X121312160Y-94089308D01*
X121307548Y-94083542D01*
X121304814Y-94080313D01*
X121300642Y-94075428D01*
X121293699Y-94066131D01*
X121285888Y-94054720D01*
X121278036Y-94042412D01*
X121270969Y-94030426D01*
X121265971Y-94021675D01*
X121258563Y-94009621D01*
X121251683Y-93999852D01*
X121244425Y-93991021D01*
X121242118Y-93988034D01*
X121237742Y-93981644D01*
X121232946Y-93974072D01*
X121231356Y-93971546D01*
X121225426Y-93962816D01*
X121218101Y-93952691D01*
X121210607Y-93942883D01*
X121208444Y-93940101D01*
X121199893Y-93928549D01*
X121190179Y-93914785D01*
X121180327Y-93900306D01*
X121171360Y-93886609D01*
X121164304Y-93875192D01*
X121162013Y-93871633D01*
X121155922Y-93863240D01*
X121147492Y-93852457D01*
X121144268Y-93849486D01*
X121142344Y-93850641D01*
X121140188Y-93852564D01*
X121135172Y-93853668D01*
X121133486Y-93853821D01*
X121128499Y-93857112D01*
X121125524Y-93864726D01*
X121124538Y-93876714D01*
X121124581Y-93878664D01*
X121125499Y-93886418D01*
X121127294Y-93893145D01*
X121129542Y-93897579D01*
X121131818Y-93898453D01*
X121132735Y-93899425D01*
X121133957Y-93904037D01*
X121135000Y-93911281D01*
X121135803Y-93916788D01*
X121138043Y-93926270D01*
X121140786Y-93933613D01*
X121143115Y-93940715D01*
X121144720Y-93951615D01*
X121145325Y-93964230D01*
X121144921Y-93976976D01*
X121143501Y-93988269D01*
X121141060Y-93996527D01*
X121140645Y-93997411D01*
X121137571Y-94004566D01*
X121135476Y-94010409D01*
X121133753Y-94014078D01*
X121128038Y-94021385D01*
X121119528Y-94029738D01*
X121109163Y-94038420D01*
X121097882Y-94046712D01*
X121086623Y-94053897D01*
X121076326Y-94059256D01*
X121067928Y-94062072D01*
X121061269Y-94062782D01*
X121048502Y-94062622D01*
X121034332Y-94061146D01*
X121020657Y-94058579D01*
X121009376Y-94055146D01*
X120998325Y-94050253D01*
X120977560Y-94039045D01*
X120956462Y-94025412D01*
X120936546Y-94010366D01*
X120919328Y-93994922D01*
X120917002Y-93992530D01*
X120913030Y-93987980D01*
X120911459Y-93985424D01*
X120911458Y-93985388D01*
X120909821Y-93982645D01*
X120906011Y-93978453D01*
X120903329Y-93975771D01*
X120899674Y-93971784D01*
X120895549Y-93966767D01*
X120890168Y-93959754D01*
X120882746Y-93949776D01*
X120877211Y-93942578D01*
X120870413Y-93934325D01*
X120864784Y-93928083D01*
X120863169Y-93926401D01*
X120857025Y-93919460D01*
X120852136Y-93913208D01*
X120851284Y-93912033D01*
X120846681Y-93906183D01*
X120840279Y-93898477D01*
X120833189Y-93890263D01*
X120831043Y-93887793D01*
X120824260Y-93879554D01*
X120818682Y-93872167D01*
X120815348Y-93866985D01*
X120812020Y-93861666D01*
X120806552Y-93854203D01*
X120800237Y-93846403D01*
X120800232Y-93846397D01*
X120793301Y-93838033D01*
X120786158Y-93829004D01*
X120779460Y-93820190D01*
X120773864Y-93812475D01*
X120770025Y-93806741D01*
X120768599Y-93803869D01*
X120767939Y-93802296D01*
X120764534Y-93797799D01*
X120758042Y-93790460D01*
X120748251Y-93780031D01*
X120747169Y-93778888D01*
X120737824Y-93768460D01*
X120727660Y-93756338D01*
X120718079Y-93744239D01*
X120710486Y-93733880D01*
X120709402Y-93732365D01*
X120704138Y-93725664D01*
X120697129Y-93717346D01*
X120689588Y-93708861D01*
X120687904Y-93707012D01*
X120679567Y-93697637D01*
X120671458Y-93688218D01*
X120665121Y-93680541D01*
X120660425Y-93674833D01*
X120654500Y-93668114D01*
X120650039Y-93663591D01*
X120646692Y-93660018D01*
X120641401Y-93653254D01*
X120636003Y-93645431D01*
X120629462Y-93635327D01*
X120623067Y-93625692D01*
X120617741Y-93618135D01*
X120612656Y-93611537D01*
X120606982Y-93604779D01*
X120599888Y-93596744D01*
X120588177Y-93583624D01*
X120578956Y-93573278D01*
X120571841Y-93565266D01*
X120566263Y-93558946D01*
X120561658Y-93553675D01*
X120557458Y-93548813D01*
X120553098Y-93543717D01*
X120548931Y-93538651D01*
X120541595Y-93529285D01*
X120533419Y-93518473D01*
X120525522Y-93507677D01*
X120520934Y-93501486D01*
X120510537Y-93488372D01*
X120499316Y-93475123D01*
X120489010Y-93463830D01*
X120482426Y-93456988D01*
X120470861Y-93444948D01*
X120458856Y-93432427D01*
X120448155Y-93421244D01*
X120447977Y-93421057D01*
X120439386Y-93412317D01*
X120431461Y-93404686D01*
X120425076Y-93398981D01*
X120421106Y-93396016D01*
X120417003Y-93393067D01*
X120415081Y-93389997D01*
X120414037Y-93388061D01*
X120410119Y-93383268D01*
X120403970Y-93376610D01*
X120396316Y-93368901D01*
X120391554Y-93364232D01*
X120380359Y-93353129D01*
X120368609Y-93341344D01*
X120358180Y-93330751D01*
X120353192Y-93325763D01*
X120341294Y-93314474D01*
X120328562Y-93303016D01*
X120317017Y-93293230D01*
X120310734Y-93288046D01*
X120299288Y-93278259D01*
X120288248Y-93268453D01*
X120279319Y-93260128D01*
X120274135Y-93255299D01*
X120263973Y-93246701D01*
X120251448Y-93237067D01*
X120236098Y-93226058D01*
X120217462Y-93213337D01*
X120195075Y-93198566D01*
X120189285Y-93194825D01*
X120181565Y-93189953D01*
X120176039Y-93186613D01*
X120173631Y-93185374D01*
X120172789Y-93185008D01*
X120168979Y-93182456D01*
X120163465Y-93178272D01*
X120161073Y-93176494D01*
X120153721Y-93172038D01*
X120147378Y-93169424D01*
X120142054Y-93167716D01*
X120139047Y-93165974D01*
X120138386Y-93165355D01*
X120133986Y-93162634D01*
X120126552Y-93158712D01*
X120117125Y-93154070D01*
X120106743Y-93149191D01*
X120096447Y-93144558D01*
X120087275Y-93140651D01*
X120080267Y-93137953D01*
X120076462Y-93136947D01*
X120076138Y-93136940D01*
X120070084Y-93135673D01*
X120063259Y-93132875D01*
X120057819Y-93131178D01*
X120048252Y-93129754D01*
X120035965Y-93128787D01*
X120022035Y-93128280D01*
X120007538Y-93128236D01*
X119993553Y-93128654D01*
X119981156Y-93129538D01*
X119971424Y-93130889D01*
X119965435Y-93132709D01*
X119964699Y-93133102D01*
X119958430Y-93135830D01*
X119953694Y-93136947D01*
X119953402Y-93136950D01*
X119950734Y-93137304D01*
X119946989Y-93138473D01*
X119941350Y-93140788D01*
X119933001Y-93144583D01*
X119921125Y-93150189D01*
X119915658Y-93152815D01*
X119908972Y-93156247D01*
X119903364Y-93159668D01*
X119897944Y-93163773D01*
X119891822Y-93169260D01*
X119884107Y-93176827D01*
X119873909Y-93187171D01*
X119871800Y-93189322D01*
X119858383Y-93203038D01*
X119847987Y-93213751D01*
X119840261Y-93221838D01*
X119834856Y-93227675D01*
X119831422Y-93231638D01*
X119829610Y-93234103D01*
X119829070Y-93235447D01*
X119828287Y-93237445D01*
X119825395Y-93242470D01*
X119821228Y-93248922D01*
X119816701Y-93255399D01*
X119812728Y-93260499D01*
X119808983Y-93265208D01*
X119803577Y-93272775D01*
X119798670Y-93280318D01*
X119795529Y-93285960D01*
X119793683Y-93289175D01*
X119789414Y-93294126D01*
X119787232Y-93296483D01*
X119785529Y-93300499D01*
X119785448Y-93301110D01*
X119783406Y-93305413D01*
X119779476Y-93310843D01*
X119778388Y-93312166D01*
X119774850Y-93317008D01*
X119773423Y-93319905D01*
X119772694Y-93321770D01*
X119769720Y-93325609D01*
X119769434Y-93325912D01*
X119765461Y-93330823D01*
X119760800Y-93337460D01*
X119756349Y-93344422D01*
X119753008Y-93350311D01*
X119751674Y-93353725D01*
X119750491Y-93356332D01*
X119746854Y-93360303D01*
X119743471Y-93364350D01*
X119740450Y-93370877D01*
X119738434Y-93375935D01*
X119734331Y-93381854D01*
X119731470Y-93385743D01*
X119729838Y-93390814D01*
X119728790Y-93394587D01*
X119725213Y-93399467D01*
X119722017Y-93403405D01*
X119719010Y-93409942D01*
X119716742Y-93415690D01*
X119712739Y-93422197D01*
X119709477Y-93427514D01*
X119708046Y-93432303D01*
X119707000Y-93435871D01*
X119703443Y-93440610D01*
X119703321Y-93440722D01*
X119699681Y-93446103D01*
X119697280Y-93453091D01*
X119697016Y-93454374D01*
X119695343Y-93459361D01*
X119692216Y-93464612D01*
X119686938Y-93471142D01*
X119678814Y-93479962D01*
X119675781Y-93482576D01*
X119668938Y-93487220D01*
X119660949Y-93491722D01*
X119658930Y-93492728D01*
X119651084Y-93496023D01*
X119644654Y-93497135D01*
X119637493Y-93496501D01*
X119635781Y-93496209D01*
X119629329Y-93494712D01*
X119624564Y-93492397D01*
X119621214Y-93488593D01*
X119619005Y-93482630D01*
X119617661Y-93473836D01*
X119616910Y-93461540D01*
X119616476Y-93445073D01*
X119616416Y-93441920D01*
X119616216Y-93427773D01*
X119616269Y-93417466D01*
X119616643Y-93410157D01*
X119617410Y-93405003D01*
X119618639Y-93401162D01*
X119620400Y-93397793D01*
X119620728Y-93397231D01*
X119624279Y-93389071D01*
X119626541Y-93380432D01*
X119626866Y-93378648D01*
X119628901Y-93372424D01*
X119631484Y-93368929D01*
X119632365Y-93368169D01*
X119634876Y-93363498D01*
X119636713Y-93356683D01*
X119637095Y-93354745D01*
X119639595Y-93346836D01*
X119642812Y-93340832D01*
X119646092Y-93335337D01*
X119648784Y-93327956D01*
X119650859Y-93322451D01*
X119653646Y-93319393D01*
X119656270Y-93316702D01*
X119658398Y-93311333D01*
X119660492Y-93305906D01*
X119664599Y-93300264D01*
X119667617Y-93296574D01*
X119669304Y-93291913D01*
X119670407Y-93288292D01*
X119674010Y-93283563D01*
X119677395Y-93279216D01*
X119680201Y-93272543D01*
X119682273Y-93267176D01*
X119686391Y-93261522D01*
X119689450Y-93258053D01*
X119691097Y-93254361D01*
X119691104Y-93254198D01*
X119692794Y-93250380D01*
X119696545Y-93245424D01*
X119705200Y-93235270D01*
X119710964Y-93226976D01*
X119712889Y-93221591D01*
X119712900Y-93221343D01*
X119714791Y-93216975D01*
X119718942Y-93212009D01*
X119719463Y-93211511D01*
X119723387Y-93207158D01*
X119724996Y-93204234D01*
X119726070Y-93202009D01*
X119729488Y-93197030D01*
X119734407Y-93190511D01*
X119739957Y-93183543D01*
X119745266Y-93177216D01*
X119749463Y-93172620D01*
X119751676Y-93170846D01*
X119753467Y-93169280D01*
X119755989Y-93164888D01*
X119756936Y-93162867D01*
X119758298Y-93160387D01*
X119760220Y-93157633D01*
X119763172Y-93154073D01*
X119767624Y-93149174D01*
X119774048Y-93142405D01*
X119782912Y-93133234D01*
X119794689Y-93121129D01*
X119801991Y-93113719D01*
X119825186Y-93091546D01*
X119847450Y-93072570D01*
X119869806Y-93055958D01*
X119893280Y-93040877D01*
X119894665Y-93040060D01*
X119902731Y-93035632D01*
X119912200Y-93030814D01*
X119921937Y-93026138D01*
X119930806Y-93022139D01*
X119937672Y-93019349D01*
X119941398Y-93018301D01*
X119941787Y-93018285D01*
X119946971Y-93016953D01*
X119953328Y-93014128D01*
X119955895Y-93012947D01*
X119959723Y-93011846D01*
X119964986Y-93011061D01*
X119972366Y-93010548D01*
X119982544Y-93010262D01*
X119996202Y-93010160D01*
X120014020Y-93010197D01*
G37*
G36*
X124734054Y-91757918D02*
G01*
X124734191Y-91757944D01*
X124742922Y-91761559D01*
X124751821Y-91768272D01*
X124759358Y-91776682D01*
X124764004Y-91785386D01*
X124764381Y-91786521D01*
X124767125Y-91793267D01*
X124769793Y-91797938D01*
X124770085Y-91798320D01*
X124773000Y-91803378D01*
X124775939Y-91810045D01*
X124776259Y-91810868D01*
X124779247Y-91817478D01*
X124782023Y-91822152D01*
X124783567Y-91824318D01*
X124786389Y-91829416D01*
X124787652Y-91831975D01*
X124790950Y-91837917D01*
X124795214Y-91845155D01*
X124798020Y-91849891D01*
X124803243Y-91859106D01*
X124807424Y-91866947D01*
X124809118Y-91870163D01*
X124814185Y-91879005D01*
X124819510Y-91887528D01*
X124822246Y-91891735D01*
X124826158Y-91898004D01*
X124828417Y-91901969D01*
X124828472Y-91902081D01*
X124830745Y-91905955D01*
X124834852Y-91912416D01*
X124839945Y-91920129D01*
X124844988Y-91927992D01*
X124851659Y-91939199D01*
X124857159Y-91949273D01*
X124858024Y-91950953D01*
X124864715Y-91963118D01*
X124872582Y-91976374D01*
X124880520Y-91988909D01*
X124887426Y-91998911D01*
X124888325Y-92000209D01*
X124892039Y-92006305D01*
X124896820Y-92014820D01*
X124901861Y-92024335D01*
X124902453Y-92025485D01*
X124908866Y-92037713D01*
X124916070Y-92051145D01*
X124922614Y-92063077D01*
X124924485Y-92066455D01*
X124929780Y-92076226D01*
X124934324Y-92084901D01*
X124937296Y-92090922D01*
X124937789Y-92091989D01*
X124940899Y-92098465D01*
X124943281Y-92103029D01*
X124943965Y-92104232D01*
X124946922Y-92109593D01*
X124950577Y-92116346D01*
X124952097Y-92119109D01*
X124955352Y-92124532D01*
X124957394Y-92127242D01*
X124958962Y-92129240D01*
X124962579Y-92135057D01*
X124967672Y-92143894D01*
X124973842Y-92155031D01*
X124980693Y-92167747D01*
X124987825Y-92181324D01*
X124994842Y-92195040D01*
X125000640Y-92206422D01*
X125006669Y-92218026D01*
X125011966Y-92228001D01*
X125015821Y-92234993D01*
X125018739Y-92240175D01*
X125022248Y-92246705D01*
X125024196Y-92250731D01*
X125025449Y-92253760D01*
X125029007Y-92261613D01*
X125033299Y-92270473D01*
X125037642Y-92278984D01*
X125041354Y-92285793D01*
X125043752Y-92289545D01*
X125044873Y-92291240D01*
X125048135Y-92297020D01*
X125052957Y-92306048D01*
X125059002Y-92317650D01*
X125065932Y-92331156D01*
X125073409Y-92345891D01*
X125081097Y-92361185D01*
X125088658Y-92376363D01*
X125095754Y-92390755D01*
X125102048Y-92403687D01*
X125107202Y-92414487D01*
X125110879Y-92422482D01*
X125112741Y-92427001D01*
X125114629Y-92431942D01*
X125118929Y-92441318D01*
X125125355Y-92454015D01*
X125134043Y-92470302D01*
X125145130Y-92490445D01*
X125146360Y-92492676D01*
X125151417Y-92502256D01*
X125155685Y-92510940D01*
X125158345Y-92517080D01*
X125159793Y-92520920D01*
X125163774Y-92530717D01*
X125167782Y-92539756D01*
X125170989Y-92546137D01*
X125171755Y-92547521D01*
X125175155Y-92554231D01*
X125178758Y-92561907D01*
X125181324Y-92567929D01*
X125182118Y-92569815D01*
X125184921Y-92575193D01*
X125185382Y-92575997D01*
X125187933Y-92580923D01*
X125191696Y-92588542D01*
X125196033Y-92597571D01*
X125197622Y-92600877D01*
X125201725Y-92608999D01*
X125205008Y-92614914D01*
X125206872Y-92617525D01*
X125208631Y-92620089D01*
X125210482Y-92625335D01*
X125211808Y-92629592D01*
X125215600Y-92639309D01*
X125221325Y-92652424D01*
X125228761Y-92668415D01*
X125233004Y-92677385D01*
X125239076Y-92690373D01*
X125245391Y-92704005D01*
X125251368Y-92717026D01*
X125256429Y-92728180D01*
X125259997Y-92736213D01*
X125261983Y-92740668D01*
X125266310Y-92750049D01*
X125271565Y-92761190D01*
X125277018Y-92772533D01*
X125280247Y-92779381D01*
X125285796Y-92791988D01*
X125290684Y-92804053D01*
X125294127Y-92813696D01*
X125297312Y-92822989D01*
X125301459Y-92833658D01*
X125305265Y-92842148D01*
X125307379Y-92846578D01*
X125310025Y-92853038D01*
X125311058Y-92856985D01*
X125311614Y-92859212D01*
X125314690Y-92863334D01*
X125316595Y-92865486D01*
X125318398Y-92870289D01*
X125318892Y-92872755D01*
X125321087Y-92878891D01*
X125324429Y-92886337D01*
X125326780Y-92891354D01*
X125329385Y-92897713D01*
X125330407Y-92901417D01*
X125331141Y-92904383D01*
X125333449Y-92910598D01*
X125336781Y-92918366D01*
X125339758Y-92924939D01*
X125343566Y-92933406D01*
X125346324Y-92939607D01*
X125348935Y-92945467D01*
X125352746Y-92953922D01*
X125356921Y-92963114D01*
X125357420Y-92964211D01*
X125360919Y-92972114D01*
X125363391Y-92978055D01*
X125364328Y-92980819D01*
X125365144Y-92983247D01*
X125367679Y-92989197D01*
X125371483Y-92997622D01*
X125376092Y-93007539D01*
X125381047Y-93017969D01*
X125385884Y-93027929D01*
X125390141Y-93036438D01*
X125393358Y-93042514D01*
X125393595Y-93042941D01*
X125397183Y-93050074D01*
X125400998Y-93058617D01*
X125404453Y-93067129D01*
X125406961Y-93074169D01*
X125407935Y-93078295D01*
X125408404Y-93080835D01*
X125410575Y-93087076D01*
X125413912Y-93094573D01*
X125416165Y-93099512D01*
X125418861Y-93106744D01*
X125419944Y-93111665D01*
X125420689Y-93115552D01*
X125423574Y-93121351D01*
X125425770Y-93124966D01*
X125427282Y-93129683D01*
X125427812Y-93132049D01*
X125430041Y-93138043D01*
X125433390Y-93145422D01*
X125435777Y-93150457D01*
X125438357Y-93156489D01*
X125439368Y-93159744D01*
X125440003Y-93162291D01*
X125442082Y-93168345D01*
X125445114Y-93176462D01*
X125448592Y-93185343D01*
X125452003Y-93193691D01*
X125454840Y-93200207D01*
X125456592Y-93203593D01*
X125457523Y-93205279D01*
X125459843Y-93210785D01*
X125462489Y-93218122D01*
X125464059Y-93222431D01*
X125467198Y-93229531D01*
X125469910Y-93233992D01*
X125471816Y-93236632D01*
X125473289Y-93240576D01*
X125473409Y-93241435D01*
X125475026Y-93246153D01*
X125477928Y-93252492D01*
X125478671Y-93253964D01*
X125484344Y-93265579D01*
X125489478Y-93276703D01*
X125493659Y-93286380D01*
X125496473Y-93293654D01*
X125497503Y-93297569D01*
X125498055Y-93299844D01*
X125501135Y-93304020D01*
X125503257Y-93306829D01*
X125504767Y-93312551D01*
X125505289Y-93315912D01*
X125507479Y-93322978D01*
X125510796Y-93331020D01*
X125513278Y-93336775D01*
X125515852Y-93344031D01*
X125516865Y-93348815D01*
X125517863Y-93354005D01*
X125520436Y-93360431D01*
X125522591Y-93365568D01*
X125525409Y-93374014D01*
X125528037Y-93383424D01*
X125530304Y-93391936D01*
X125532479Y-93399172D01*
X125534019Y-93403286D01*
X125534156Y-93403552D01*
X125536175Y-93407923D01*
X125539351Y-93415172D01*
X125543060Y-93423877D01*
X125543233Y-93424289D01*
X125547199Y-93433687D01*
X125550823Y-93442221D01*
X125553341Y-93448091D01*
X125557680Y-93458611D01*
X125561521Y-93469887D01*
X125562843Y-93477290D01*
X125563566Y-93481180D01*
X125566434Y-93486975D01*
X125568683Y-93491386D01*
X125570066Y-93498220D01*
X125570096Y-93499379D01*
X125570590Y-93503616D01*
X125571975Y-93508658D01*
X125574637Y-93515701D01*
X125578958Y-93525940D01*
X125579006Y-93526052D01*
X125581299Y-93532858D01*
X125582250Y-93538570D01*
X125582254Y-93538833D01*
X125583306Y-93544655D01*
X125585649Y-93551522D01*
X125586406Y-93553370D01*
X125589384Y-93561646D01*
X125592085Y-93570369D01*
X125592929Y-93573211D01*
X125595656Y-93580889D01*
X125598225Y-93586405D01*
X125600572Y-93591563D01*
X125603494Y-93600455D01*
X125606171Y-93610697D01*
X125608127Y-93620438D01*
X125608885Y-93627822D01*
X125609386Y-93633221D01*
X125610701Y-93636754D01*
X125611810Y-93638781D01*
X125612825Y-93643816D01*
X125612950Y-93645714D01*
X125613431Y-93652323D01*
X125614142Y-93661669D01*
X125614978Y-93672376D01*
X125615367Y-93677984D01*
X125615796Y-93688275D01*
X125615779Y-93696560D01*
X125615300Y-93701432D01*
X125612104Y-93707897D01*
X125605602Y-93715949D01*
X125597110Y-93724006D01*
X125587837Y-93730931D01*
X125578990Y-93735589D01*
X125576181Y-93736624D01*
X125557676Y-93741576D01*
X125540209Y-93743108D01*
X125524438Y-93741285D01*
X125511021Y-93736172D01*
X125500616Y-93727836D01*
X125500340Y-93727515D01*
X125496713Y-93722480D01*
X125495168Y-93718743D01*
X125494589Y-93716335D01*
X125492404Y-93710450D01*
X125489166Y-93703004D01*
X125489149Y-93702967D01*
X125484343Y-93691430D01*
X125480965Y-93680132D01*
X125478611Y-93667381D01*
X125476878Y-93651485D01*
X125476691Y-93649437D01*
X125475539Y-93639889D01*
X125474179Y-93632143D01*
X125472865Y-93627715D01*
X125472144Y-93626074D01*
X125470190Y-93619762D01*
X125468447Y-93611976D01*
X125466106Y-93600257D01*
X125463355Y-93588885D01*
X125460786Y-93580714D01*
X125458622Y-93576544D01*
X125457982Y-93575453D01*
X125456806Y-93570324D01*
X125456340Y-93563160D01*
X125456234Y-93560283D01*
X125455033Y-93552593D01*
X125452921Y-93547195D01*
X125451058Y-93543711D01*
X125448144Y-93536460D01*
X125445364Y-93527890D01*
X125443299Y-93521146D01*
X125440960Y-93514537D01*
X125439312Y-93511046D01*
X125438789Y-93510222D01*
X125437838Y-93507976D01*
X125436556Y-93504007D01*
X125434775Y-93497719D01*
X125432331Y-93488517D01*
X125429056Y-93475805D01*
X125424784Y-93458987D01*
X125424032Y-93456110D01*
X125421853Y-93448561D01*
X125420038Y-93443248D01*
X125415043Y-93430375D01*
X125411525Y-93419320D01*
X125410334Y-93412206D01*
X125409794Y-93408432D01*
X125407506Y-93403858D01*
X125404698Y-93399475D01*
X125401643Y-93392142D01*
X125399251Y-93384133D01*
X125398264Y-93377563D01*
X125397630Y-93374199D01*
X125394595Y-93369397D01*
X125392340Y-93366209D01*
X125390963Y-93360335D01*
X125390235Y-93355309D01*
X125388129Y-93346799D01*
X125385041Y-93336259D01*
X125381366Y-93324967D01*
X125377501Y-93314199D01*
X125373844Y-93305231D01*
X125373073Y-93303459D01*
X125369921Y-93295283D01*
X125367757Y-93288281D01*
X125367598Y-93287658D01*
X125365036Y-93280243D01*
X125361535Y-93272579D01*
X125360747Y-93271051D01*
X125358123Y-93265211D01*
X125357064Y-93261530D01*
X125356516Y-93259311D01*
X125354317Y-93253652D01*
X125351011Y-93246373D01*
X125348496Y-93240930D01*
X125345945Y-93234729D01*
X125344957Y-93231306D01*
X125344142Y-93228391D01*
X125341554Y-93223425D01*
X125339840Y-93219827D01*
X125337300Y-93212306D01*
X125335076Y-93203534D01*
X125333466Y-93196910D01*
X125331025Y-93189148D01*
X125328795Y-93184230D01*
X125326780Y-93179764D01*
X125325587Y-93172888D01*
X125324990Y-93168592D01*
X125322264Y-93159307D01*
X125317482Y-93146585D01*
X125310807Y-93130893D01*
X125310308Y-93129727D01*
X125307755Y-93123226D01*
X125304169Y-93113624D01*
X125299966Y-93102062D01*
X125295563Y-93089682D01*
X125291376Y-93077624D01*
X125288868Y-93070655D01*
X125286235Y-93064120D01*
X125284483Y-93060674D01*
X125284306Y-93060427D01*
X125282485Y-93056161D01*
X125280754Y-93049814D01*
X125280699Y-93049563D01*
X125278501Y-93042291D01*
X125275789Y-93036496D01*
X125274634Y-93034319D01*
X125272026Y-93027580D01*
X125269677Y-93019511D01*
X125268566Y-93015408D01*
X125265951Y-93007771D01*
X125263466Y-93002628D01*
X125261533Y-92998969D01*
X125260210Y-92993666D01*
X125259595Y-92991182D01*
X125257087Y-92984934D01*
X125253096Y-92976337D01*
X125248103Y-92966475D01*
X125244351Y-92959094D01*
X125240035Y-92949845D01*
X125237088Y-92942567D01*
X125235996Y-92938392D01*
X125235144Y-92933291D01*
X125232710Y-92926774D01*
X125229979Y-92919885D01*
X125227844Y-92911944D01*
X125226748Y-92907743D01*
X125223687Y-92898988D01*
X125219633Y-92889041D01*
X125215360Y-92879764D01*
X125211642Y-92873019D01*
X125211343Y-92872544D01*
X125208628Y-92867493D01*
X125205529Y-92860913D01*
X125203924Y-92857334D01*
X125200016Y-92848843D01*
X125195892Y-92840090D01*
X125193534Y-92834886D01*
X125190950Y-92828306D01*
X125189914Y-92824351D01*
X125189118Y-92821286D01*
X125186282Y-92816260D01*
X125184144Y-92812540D01*
X125182727Y-92807147D01*
X125182458Y-92804481D01*
X125180594Y-92798530D01*
X125179581Y-92796473D01*
X125176658Y-92790333D01*
X125173187Y-92782879D01*
X125171136Y-92778665D01*
X125167884Y-92772888D01*
X125165635Y-92770024D01*
X125164471Y-92768687D01*
X125163356Y-92764235D01*
X125163356Y-92764208D01*
X125162204Y-92759804D01*
X125159250Y-92752609D01*
X125155167Y-92743978D01*
X125150626Y-92735262D01*
X125146301Y-92727816D01*
X125142863Y-92722994D01*
X125140661Y-92719893D01*
X125139127Y-92715441D01*
X125138224Y-92711389D01*
X125135781Y-92705614D01*
X125134303Y-92702456D01*
X125131233Y-92694811D01*
X125128211Y-92686243D01*
X125126370Y-92680851D01*
X125123896Y-92674357D01*
X125122206Y-92670836D01*
X125120509Y-92667116D01*
X125118760Y-92661151D01*
X125118406Y-92659891D01*
X125115883Y-92653346D01*
X125111651Y-92643868D01*
X125106203Y-92632451D01*
X125100034Y-92620090D01*
X125093636Y-92607781D01*
X125087503Y-92596519D01*
X125082130Y-92587300D01*
X125078377Y-92580608D01*
X125075141Y-92573457D01*
X125073860Y-92568642D01*
X125073673Y-92567163D01*
X125071507Y-92561114D01*
X125067712Y-92554381D01*
X125066227Y-92552062D01*
X125062961Y-92545772D01*
X125061659Y-92541252D01*
X125061127Y-92538624D01*
X125058027Y-92534030D01*
X125056144Y-92531839D01*
X125054395Y-92526710D01*
X125054306Y-92525950D01*
X125052669Y-92520945D01*
X125049391Y-92513392D01*
X125045033Y-92504608D01*
X125040250Y-92495501D01*
X125033407Y-92482373D01*
X125028260Y-92472313D01*
X125024425Y-92464559D01*
X125021521Y-92458347D01*
X125019166Y-92452914D01*
X125017069Y-92448071D01*
X125012786Y-92438859D01*
X125006875Y-92426776D01*
X124999001Y-92411127D01*
X124995494Y-92403868D01*
X124991225Y-92394530D01*
X124987211Y-92385363D01*
X124984388Y-92378458D01*
X124981929Y-92373816D01*
X124979393Y-92371799D01*
X124977979Y-92370955D01*
X124976912Y-92367099D01*
X124976518Y-92364316D01*
X124974444Y-92360875D01*
X124972992Y-92359318D01*
X124969716Y-92354317D01*
X124965929Y-92347414D01*
X124963295Y-92342574D01*
X124959942Y-92337462D01*
X124957782Y-92335479D01*
X124956326Y-92334575D01*
X124954426Y-92330665D01*
X124952131Y-92326972D01*
X124947074Y-92323535D01*
X124942623Y-92321050D01*
X124938516Y-92316848D01*
X124935848Y-92314178D01*
X124932966Y-92315632D01*
X124930327Y-92321368D01*
X124928142Y-92331096D01*
X124927123Y-92340927D01*
X124928649Y-92359372D01*
X124934887Y-92376885D01*
X124936928Y-92381162D01*
X124939570Y-92387594D01*
X124940613Y-92391522D01*
X124941101Y-92393781D01*
X124943273Y-92399613D01*
X124946591Y-92406909D01*
X124948717Y-92411707D01*
X124951500Y-92419991D01*
X124952622Y-92426422D01*
X124953607Y-92432646D01*
X124956253Y-92438529D01*
X124956572Y-92438987D01*
X124958893Y-92444919D01*
X124959885Y-92452274D01*
X124959898Y-92453046D01*
X124961167Y-92464803D01*
X124964230Y-92479069D01*
X124968733Y-92494158D01*
X124969416Y-92496249D01*
X124971309Y-92503270D01*
X124972069Y-92508214D01*
X124972247Y-92509773D01*
X124973912Y-92515661D01*
X124976759Y-92522798D01*
X124977944Y-92525556D01*
X124981530Y-92535371D01*
X124984372Y-92545063D01*
X124985476Y-92549285D01*
X124987510Y-92555828D01*
X124989094Y-92559454D01*
X124989652Y-92560527D01*
X124991226Y-92565655D01*
X124992689Y-92572771D01*
X124993598Y-92577044D01*
X124996533Y-92586822D01*
X125000227Y-92596225D01*
X125001395Y-92598910D01*
X125004917Y-92610865D01*
X125005968Y-92624533D01*
X125006271Y-92632331D01*
X125007145Y-92638758D01*
X125008389Y-92641780D01*
X125008454Y-92641823D01*
X125010125Y-92645188D01*
X125010826Y-92651003D01*
X125011777Y-92657993D01*
X125014458Y-92665665D01*
X125014568Y-92665881D01*
X125017048Y-92673351D01*
X125018075Y-92681546D01*
X125018086Y-92682285D01*
X125019216Y-92689610D01*
X125021630Y-92695192D01*
X125022151Y-92695984D01*
X125024339Y-92702071D01*
X125025271Y-92709578D01*
X125025300Y-92710551D01*
X125026793Y-92719117D01*
X125029822Y-92726586D01*
X125030348Y-92727477D01*
X125034190Y-92735228D01*
X125037444Y-92743535D01*
X125038006Y-92745182D01*
X125040953Y-92752556D01*
X125043767Y-92758035D01*
X125045076Y-92761771D01*
X125046605Y-92769437D01*
X125048047Y-92779701D01*
X125049210Y-92791392D01*
X125050227Y-92802219D01*
X125051467Y-92812130D01*
X125052717Y-92819362D01*
X125053821Y-92822840D01*
X125054402Y-92823804D01*
X125056239Y-92829064D01*
X125057742Y-92836199D01*
X125058129Y-92838513D01*
X125059745Y-92845782D01*
X125061422Y-92850728D01*
X125063336Y-92854613D01*
X125065815Y-92860240D01*
X125068017Y-92866320D01*
X125070123Y-92873573D01*
X125072318Y-92882718D01*
X125074784Y-92894476D01*
X125077705Y-92909567D01*
X125081263Y-92928710D01*
X125082276Y-92933796D01*
X125084352Y-92942663D01*
X125086280Y-92949292D01*
X125088251Y-92955894D01*
X125089961Y-92963820D01*
X125091101Y-92969718D01*
X125092515Y-92974716D01*
X125094861Y-92981001D01*
X125098150Y-92991619D01*
X125101023Y-93003685D01*
X125103646Y-93018046D01*
X125106187Y-93035550D01*
X125108815Y-93057042D01*
X125109388Y-93061919D01*
X125111954Y-93080997D01*
X125114532Y-93095714D01*
X125117089Y-93105911D01*
X125119593Y-93111427D01*
X125120324Y-93112866D01*
X125121908Y-93118342D01*
X125123294Y-93125761D01*
X125123859Y-93129236D01*
X125125646Y-93137633D01*
X125127533Y-93143921D01*
X125129561Y-93149064D01*
X125131900Y-93155107D01*
X125133071Y-93159656D01*
X125134750Y-93168479D01*
X125136795Y-93180803D01*
X125139104Y-93195963D01*
X125141576Y-93213291D01*
X125144110Y-93232120D01*
X125146603Y-93251781D01*
X125147451Y-93258027D01*
X125149231Y-93268509D01*
X125151113Y-93276985D01*
X125152809Y-93282048D01*
X125154998Y-93287136D01*
X125156077Y-93291742D01*
X125156396Y-93294385D01*
X125158221Y-93301564D01*
X125161233Y-93310672D01*
X125164939Y-93320125D01*
X125166300Y-93324704D01*
X125167669Y-93333414D01*
X125168199Y-93342915D01*
X125168453Y-93349504D01*
X125169709Y-93360788D01*
X125171664Y-93370395D01*
X125173115Y-93376510D01*
X125175255Y-93388634D01*
X125177223Y-93403056D01*
X125178843Y-93418255D01*
X125179937Y-93432712D01*
X125180329Y-93444906D01*
X125180508Y-93450436D01*
X125181471Y-93459172D01*
X125182991Y-93465488D01*
X125184416Y-93470209D01*
X125186255Y-93478636D01*
X125187791Y-93488043D01*
X125190261Y-93505012D01*
X125192764Y-93518925D01*
X125195072Y-93528110D01*
X125197172Y-93532514D01*
X125197697Y-93533262D01*
X125199110Y-93538145D01*
X125199676Y-93545050D01*
X125200078Y-93550193D01*
X125201854Y-93559716D01*
X125204566Y-93569294D01*
X125205400Y-93571930D01*
X125207954Y-93582174D01*
X125210304Y-93594430D01*
X125212029Y-93606592D01*
X125212735Y-93612317D01*
X125214235Y-93621888D01*
X125215786Y-93629108D01*
X125217147Y-93632741D01*
X125217946Y-93635319D01*
X125218979Y-93642112D01*
X125220038Y-93652178D01*
X125221036Y-93664674D01*
X125221884Y-93678755D01*
X125222028Y-93681529D01*
X125223432Y-93705472D01*
X125224949Y-93725290D01*
X125226644Y-93741634D01*
X125228585Y-93755153D01*
X125230837Y-93766499D01*
X125231807Y-93771782D01*
X125232972Y-93782077D01*
X125233470Y-93792385D01*
X125233790Y-93799439D01*
X125234709Y-93805835D01*
X125235996Y-93808873D01*
X125237687Y-93811998D01*
X125238418Y-93817649D01*
X125239160Y-93823789D01*
X125241374Y-93830219D01*
X125242406Y-93833334D01*
X125243766Y-93840730D01*
X125244982Y-93850750D01*
X125245878Y-93862142D01*
X125246369Y-93868741D01*
X125247982Y-93882983D01*
X125250169Y-93896746D01*
X125252607Y-93907849D01*
X125254736Y-93916577D01*
X125256239Y-93925416D01*
X125257161Y-93935361D01*
X125257618Y-93947654D01*
X125257724Y-93963540D01*
X125257782Y-93972263D01*
X125258276Y-93992233D01*
X125259253Y-94016304D01*
X125260688Y-94044006D01*
X125262556Y-94074874D01*
X125264830Y-94108437D01*
X125267487Y-94144230D01*
X125268090Y-94154142D01*
X125268679Y-94169121D01*
X125269139Y-94186983D01*
X125269470Y-94206956D01*
X125269672Y-94228268D01*
X125269745Y-94250146D01*
X125269690Y-94271817D01*
X125269505Y-94292510D01*
X125269192Y-94311452D01*
X125268750Y-94327870D01*
X125268179Y-94340992D01*
X125267480Y-94350045D01*
X125266739Y-94357919D01*
X125265838Y-94371367D01*
X125265155Y-94386148D01*
X125264799Y-94400243D01*
X125264786Y-94401237D01*
X125264466Y-94412273D01*
X125263898Y-94421087D01*
X125263160Y-94426804D01*
X125262327Y-94428551D01*
X125261775Y-94428238D01*
X125260087Y-94427991D01*
X125259927Y-94429559D01*
X125259404Y-94435101D01*
X125258616Y-94443647D01*
X125257656Y-94454163D01*
X125257490Y-94455982D01*
X125255452Y-94475656D01*
X125253360Y-94490924D01*
X125251150Y-94502189D01*
X125248756Y-94509854D01*
X125247628Y-94512983D01*
X125245394Y-94520573D01*
X125243250Y-94529225D01*
X125242005Y-94534365D01*
X125239487Y-94543202D01*
X125237150Y-94549807D01*
X125236840Y-94550559D01*
X125234398Y-94558338D01*
X125232657Y-94566770D01*
X125232305Y-94568808D01*
X125229832Y-94577885D01*
X125226377Y-94586629D01*
X125225085Y-94589479D01*
X125222497Y-94596593D01*
X125221468Y-94601758D01*
X125221375Y-94602901D01*
X125219712Y-94608856D01*
X125216626Y-94615762D01*
X125215693Y-94617598D01*
X125212905Y-94624569D01*
X125211783Y-94629954D01*
X125210427Y-94635262D01*
X125206989Y-94641207D01*
X125203118Y-94646835D01*
X125199793Y-94653035D01*
X125198291Y-94656212D01*
X125194601Y-94663132D01*
X125190142Y-94670874D01*
X125187207Y-94675855D01*
X125182587Y-94683983D01*
X125179222Y-94690245D01*
X125178175Y-94692290D01*
X125163119Y-94716971D01*
X125145129Y-94739064D01*
X125125046Y-94757525D01*
X125122289Y-94759462D01*
X125115239Y-94763777D01*
X125106443Y-94768724D01*
X125097369Y-94773514D01*
X125089487Y-94777355D01*
X125084266Y-94779458D01*
X125075003Y-94780486D01*
X125062118Y-94778225D01*
X125048111Y-94772398D01*
X125033813Y-94763271D01*
X125025484Y-94756580D01*
X125018590Y-94749260D01*
X125015827Y-94742517D01*
X125017162Y-94735525D01*
X125022564Y-94727458D01*
X125031997Y-94717487D01*
X125038633Y-94710955D01*
X125049046Y-94700466D01*
X125056204Y-94692849D01*
X125060333Y-94687856D01*
X125061659Y-94685243D01*
X125061748Y-94684805D01*
X125063661Y-94681199D01*
X125067285Y-94675946D01*
X125068044Y-94674922D01*
X125072065Y-94669100D01*
X125074576Y-94664821D01*
X125074686Y-94664586D01*
X125077243Y-94659900D01*
X125080880Y-94653925D01*
X125081033Y-94653682D01*
X125084260Y-94646828D01*
X125085696Y-94640465D01*
X125086530Y-94635758D01*
X125089428Y-94629569D01*
X125091632Y-94626020D01*
X125093060Y-94621794D01*
X125093272Y-94620699D01*
X125095343Y-94615848D01*
X125098888Y-94609608D01*
X125099763Y-94608139D01*
X125103823Y-94599211D01*
X125106363Y-94590298D01*
X125106847Y-94587786D01*
X125108556Y-94581783D01*
X125110297Y-94578733D01*
X125111700Y-94576506D01*
X125112507Y-94571423D01*
X125112967Y-94567069D01*
X125114844Y-94561275D01*
X125118089Y-94554956D01*
X125122675Y-94544100D01*
X125125849Y-94534058D01*
X125127036Y-94526477D01*
X125127074Y-94524662D01*
X125128033Y-94514555D01*
X125130024Y-94502192D01*
X125132699Y-94489493D01*
X125135714Y-94478377D01*
X125136498Y-94475691D01*
X125138399Y-94466876D01*
X125139154Y-94459452D01*
X125139955Y-94452380D01*
X125142008Y-94446135D01*
X125143487Y-94441243D01*
X125144950Y-94432116D01*
X125146288Y-94419623D01*
X125147461Y-94404515D01*
X125148424Y-94387548D01*
X125149136Y-94369474D01*
X125149554Y-94351047D01*
X125149636Y-94333020D01*
X125149339Y-94316146D01*
X125149305Y-94314855D01*
X125149218Y-94306172D01*
X125149242Y-94293652D01*
X125149369Y-94278120D01*
X125149590Y-94260403D01*
X125149896Y-94241325D01*
X125150281Y-94221713D01*
X125150457Y-94213335D01*
X125150831Y-94193190D01*
X125151020Y-94176784D01*
X125150998Y-94163307D01*
X125150740Y-94151950D01*
X125150220Y-94141904D01*
X125149415Y-94132360D01*
X125148298Y-94122509D01*
X125146844Y-94111542D01*
X125144719Y-94093326D01*
X125142820Y-94071057D01*
X125141335Y-94046784D01*
X125140368Y-94021952D01*
X125140199Y-94015994D01*
X125139689Y-94000318D01*
X125139142Y-93986185D01*
X125138592Y-93974420D01*
X125138079Y-93965847D01*
X125137638Y-93961292D01*
X125137281Y-93959827D01*
X125132811Y-93952947D01*
X125124229Y-93946619D01*
X125112136Y-93941206D01*
X125097138Y-93937067D01*
X125079891Y-93933156D01*
X125064745Y-93928637D01*
X125052784Y-93923292D01*
X125043147Y-93916500D01*
X125034971Y-93907643D01*
X125027395Y-93896100D01*
X125019558Y-93881252D01*
X125015976Y-93874015D01*
X125010441Y-93862886D01*
X125005532Y-93853067D01*
X125002003Y-93846076D01*
X125000014Y-93841935D01*
X124997333Y-93835310D01*
X124996282Y-93831073D01*
X124996132Y-93830117D01*
X124994354Y-93825090D01*
X124990998Y-93817498D01*
X124986597Y-93808577D01*
X124984846Y-93805143D01*
X124980790Y-93796744D01*
X124977969Y-93790244D01*
X124976912Y-93786827D01*
X124976476Y-93784855D01*
X124973751Y-93780595D01*
X124971247Y-93777330D01*
X124966946Y-93770287D01*
X124961848Y-93760972D01*
X124956485Y-93750464D01*
X124951388Y-93739845D01*
X124947090Y-93730194D01*
X124944121Y-93722592D01*
X124943013Y-93718120D01*
X124942695Y-93716157D01*
X124940528Y-93710222D01*
X124936988Y-93703185D01*
X124935106Y-93699636D01*
X124932124Y-93692589D01*
X124930935Y-93687496D01*
X124930306Y-93684131D01*
X124927274Y-93679330D01*
X124925336Y-93677255D01*
X124923642Y-93673307D01*
X124923634Y-93673131D01*
X124922059Y-93669115D01*
X124918574Y-93663855D01*
X124918205Y-93663380D01*
X124911146Y-93652631D01*
X124904478Y-93639761D01*
X124899496Y-93627259D01*
X124898793Y-93625147D01*
X124896424Y-93618872D01*
X124894601Y-93615164D01*
X124893999Y-93614228D01*
X124891294Y-93609561D01*
X124887215Y-93602238D01*
X124882388Y-93593372D01*
X124880555Y-93589972D01*
X124875409Y-93580436D01*
X124870956Y-93572196D01*
X124867998Y-93566737D01*
X124865412Y-93562225D01*
X124860704Y-93554437D01*
X124855501Y-93546156D01*
X124853685Y-93543277D01*
X124847681Y-93533244D01*
X124841274Y-93521933D01*
X124835043Y-93510429D01*
X124829569Y-93499818D01*
X124825431Y-93491188D01*
X124823207Y-93485622D01*
X124822902Y-93484730D01*
X124820284Y-93479063D01*
X124815995Y-93471107D01*
X124810795Y-93462290D01*
X124809087Y-93459490D01*
X124804521Y-93451709D01*
X124801331Y-93445818D01*
X124800122Y-93442919D01*
X124799567Y-93440929D01*
X124797165Y-93435377D01*
X124793474Y-93427838D01*
X124789164Y-93419618D01*
X124784905Y-93412023D01*
X124781366Y-93406357D01*
X124781312Y-93406280D01*
X124777587Y-93400524D01*
X124775096Y-93396032D01*
X124774971Y-93395763D01*
X124772391Y-93391081D01*
X124768686Y-93385136D01*
X124768110Y-93384253D01*
X124761246Y-93372784D01*
X124753783Y-93358914D01*
X124746767Y-93344578D01*
X124744605Y-93340247D01*
X124741448Y-93335088D01*
X124739321Y-93333077D01*
X124738461Y-93332796D01*
X124737198Y-93329821D01*
X124737182Y-93329556D01*
X124735444Y-93325400D01*
X124731707Y-93320176D01*
X124731519Y-93319951D01*
X124727978Y-93314240D01*
X124723986Y-93305735D01*
X124720372Y-93296191D01*
X124714326Y-93280263D01*
X124702660Y-93256593D01*
X124688986Y-93235405D01*
X124676989Y-93217910D01*
X124661944Y-93190217D01*
X124656804Y-93179109D01*
X124652299Y-93169782D01*
X124648316Y-93162202D01*
X124644107Y-93154956D01*
X124638928Y-93146632D01*
X124632444Y-93136221D01*
X124626334Y-93125767D01*
X124621680Y-93116780D01*
X124617732Y-93107891D01*
X124617323Y-93106904D01*
X124614606Y-93100384D01*
X124612662Y-93095784D01*
X124610595Y-93091422D01*
X124604253Y-93081488D01*
X124594894Y-93070668D01*
X124592639Y-93068155D01*
X124586245Y-93060136D01*
X124579065Y-93050228D01*
X124572269Y-93040013D01*
X124568651Y-93034308D01*
X124563424Y-93026151D01*
X124559460Y-93020075D01*
X124557416Y-93017090D01*
X124555558Y-93014562D01*
X124551405Y-93008681D01*
X124545967Y-93000865D01*
X124540041Y-92992268D01*
X124534421Y-92984046D01*
X124529905Y-92977354D01*
X124527286Y-92973347D01*
X124526734Y-92972458D01*
X124523641Y-92967538D01*
X124518701Y-92959718D01*
X124512468Y-92949874D01*
X124505494Y-92938879D01*
X124502893Y-92934778D01*
X124496193Y-92924183D01*
X124490480Y-92915107D01*
X124486292Y-92908404D01*
X124484166Y-92904930D01*
X124483860Y-92904415D01*
X124480558Y-92899316D01*
X124476297Y-92893177D01*
X124475411Y-92891908D01*
X124472163Y-92886489D01*
X124470849Y-92882936D01*
X124470743Y-92882157D01*
X124468474Y-92880283D01*
X124466523Y-92878765D01*
X124464579Y-92874230D01*
X124463167Y-92870222D01*
X124461451Y-92868177D01*
X124460899Y-92867888D01*
X124458365Y-92864692D01*
X124455095Y-92859097D01*
X124454700Y-92858365D01*
X124450515Y-92851604D01*
X124444577Y-92843016D01*
X124438038Y-92834278D01*
X124433539Y-92828354D01*
X124425787Y-92817703D01*
X124417408Y-92805796D01*
X124409567Y-92794274D01*
X124404792Y-92787320D01*
X124392480Y-92770626D01*
X124377336Y-92751386D01*
X124359805Y-92730146D01*
X124340332Y-92707453D01*
X124319365Y-92683852D01*
X124313439Y-92678627D01*
X124306305Y-92676011D01*
X124299956Y-92677938D01*
X124299050Y-92678771D01*
X124296260Y-92684621D01*
X124294855Y-92693499D01*
X124294856Y-92704106D01*
X124296285Y-92715145D01*
X124299164Y-92725317D01*
X124300951Y-92730352D01*
X124304206Y-92741606D01*
X124306412Y-92751952D01*
X124308603Y-92765058D01*
X124311072Y-92777096D01*
X124313373Y-92784942D01*
X124315593Y-92788951D01*
X124316696Y-92790377D01*
X124318303Y-92795364D01*
X124318663Y-92797591D01*
X124320478Y-92803995D01*
X124323447Y-92812911D01*
X124327148Y-92823142D01*
X124331156Y-92833488D01*
X124335050Y-92842752D01*
X124335854Y-92844620D01*
X124339472Y-92854012D01*
X124342565Y-92863334D01*
X124343583Y-92866590D01*
X124345933Y-92872955D01*
X124347781Y-92876530D01*
X124348681Y-92878005D01*
X124349781Y-92882911D01*
X124350382Y-92887028D01*
X124352162Y-92894424D01*
X124354643Y-92903153D01*
X124357340Y-92911516D01*
X124359767Y-92917814D01*
X124361827Y-92922995D01*
X124364164Y-92929921D01*
X124365373Y-92933660D01*
X124368181Y-92941728D01*
X124371392Y-92950468D01*
X124373438Y-92956284D01*
X124375616Y-92963740D01*
X124376493Y-92968629D01*
X124377242Y-92972461D01*
X124380125Y-92978206D01*
X124380368Y-92978548D01*
X124382715Y-92984425D01*
X124383680Y-92991725D01*
X124383694Y-92992860D01*
X124384262Y-92998900D01*
X124385406Y-93002269D01*
X124387219Y-93004986D01*
X124390123Y-93011702D01*
X124392901Y-93020168D01*
X124394993Y-93028608D01*
X124395836Y-93035250D01*
X124395836Y-93035279D01*
X124396690Y-93041875D01*
X124398861Y-93050996D01*
X124401881Y-93060674D01*
X124402213Y-93061620D01*
X124405079Y-93070223D01*
X124407109Y-93077119D01*
X124407883Y-93080890D01*
X124407887Y-93081055D01*
X124408885Y-93085611D01*
X124411102Y-93091786D01*
X124412265Y-93094631D01*
X124416348Y-93105365D01*
X124421242Y-93119073D01*
X124426503Y-93134526D01*
X124427535Y-93137577D01*
X124430179Y-93145027D01*
X124432206Y-93150264D01*
X124432790Y-93151755D01*
X124434962Y-93158680D01*
X124437349Y-93167727D01*
X124439551Y-93177205D01*
X124441165Y-93185423D01*
X124441792Y-93190693D01*
X124442046Y-93193246D01*
X124443453Y-93200031D01*
X124445684Y-93208052D01*
X124446127Y-93209470D01*
X124449697Y-93221119D01*
X124452147Y-93229903D01*
X124453836Y-93237393D01*
X124455125Y-93245162D01*
X124456372Y-93254783D01*
X124457292Y-93261937D01*
X124459698Y-93276912D01*
X124462329Y-93287913D01*
X124465321Y-93295563D01*
X124466223Y-93297401D01*
X124469677Y-93306369D01*
X124472260Y-93315898D01*
X124473285Y-93323563D01*
X124474289Y-93329506D01*
X124476917Y-93336380D01*
X124476921Y-93336387D01*
X124479473Y-93342245D01*
X124480534Y-93346596D01*
X124480578Y-93347123D01*
X124481611Y-93351758D01*
X124483739Y-93359306D01*
X124486588Y-93368420D01*
X124487090Y-93369985D01*
X124489908Y-93379830D01*
X124491898Y-93388588D01*
X124492656Y-93394525D01*
X124493612Y-93401424D01*
X124496288Y-93409021D01*
X124498835Y-93414958D01*
X124499905Y-93419570D01*
X124499947Y-93420429D01*
X124500769Y-93425799D01*
X124502377Y-93433471D01*
X124504421Y-93442035D01*
X124506552Y-93450083D01*
X124508420Y-93456203D01*
X124509675Y-93458987D01*
X124510670Y-93461113D01*
X124512252Y-93466858D01*
X124513895Y-93474726D01*
X124515092Y-93480971D01*
X124517184Y-93490969D01*
X124519048Y-93498939D01*
X124520295Y-93503834D01*
X124522687Y-93513377D01*
X124525103Y-93523153D01*
X124526596Y-93529058D01*
X124529706Y-93540671D01*
X124532658Y-93550998D01*
X124534126Y-93556128D01*
X124536647Y-93565960D01*
X124538398Y-93574090D01*
X124538755Y-93575949D01*
X124540449Y-93582731D01*
X124542136Y-93587087D01*
X124544076Y-93591527D01*
X124546023Y-93597895D01*
X124546979Y-93601550D01*
X124549284Y-93609850D01*
X124551881Y-93618796D01*
X124553416Y-93624038D01*
X124556031Y-93633299D01*
X124557977Y-93640588D01*
X124559281Y-93645286D01*
X124562011Y-93654099D01*
X124565117Y-93663362D01*
X124567095Y-93669891D01*
X124569276Y-93680027D01*
X124570124Y-93688420D01*
X124570180Y-93690486D01*
X124571341Y-93699370D01*
X124573531Y-93706810D01*
X124574839Y-93710476D01*
X124576859Y-93718980D01*
X124578185Y-93728224D01*
X124579176Y-93735184D01*
X124581547Y-93746544D01*
X124584771Y-93759325D01*
X124588423Y-93771978D01*
X124592080Y-93782956D01*
X124595317Y-93790712D01*
X124595450Y-93790982D01*
X124597431Y-93796634D01*
X124599635Y-93805196D01*
X124601611Y-93814926D01*
X124601730Y-93815597D01*
X124603764Y-93825405D01*
X124606025Y-93834013D01*
X124608045Y-93839625D01*
X124610167Y-93845527D01*
X124611287Y-93852770D01*
X124611454Y-93856035D01*
X124612582Y-93862615D01*
X124615000Y-93871561D01*
X124618968Y-93883934D01*
X124619099Y-93884327D01*
X124623546Y-93899021D01*
X124628513Y-93917833D01*
X124629047Y-93919827D01*
X124631214Y-93926140D01*
X124633218Y-93929819D01*
X124633786Y-93930725D01*
X124635012Y-93935680D01*
X124635501Y-93942690D01*
X124635562Y-93944962D01*
X124636558Y-93952788D01*
X124638389Y-93958550D01*
X124639095Y-93960054D01*
X124641268Y-93966769D01*
X124642947Y-93974735D01*
X124643616Y-93978956D01*
X124645884Y-93991582D01*
X124648209Y-94002363D01*
X124650365Y-94010313D01*
X124652122Y-94014447D01*
X124652873Y-94015933D01*
X124654443Y-94021496D01*
X124655751Y-94028971D01*
X124656357Y-94032923D01*
X124657846Y-94039660D01*
X124659342Y-94043500D01*
X124659903Y-94044363D01*
X124662300Y-94050543D01*
X124664671Y-94060106D01*
X124666761Y-94071885D01*
X124668317Y-94084714D01*
X124669371Y-94093573D01*
X124670684Y-94101034D01*
X124671952Y-94105295D01*
X124673929Y-94110075D01*
X124676506Y-94118316D01*
X124678956Y-94127705D01*
X124680787Y-94136336D01*
X124681507Y-94142302D01*
X124682068Y-94146389D01*
X124684217Y-94150815D01*
X124685326Y-94152379D01*
X124687932Y-94159308D01*
X124690640Y-94170784D01*
X124693398Y-94186604D01*
X124693962Y-94190199D01*
X124696524Y-94205211D01*
X124699165Y-94218854D01*
X124701651Y-94229982D01*
X124703749Y-94237452D01*
X124703954Y-94238082D01*
X124705450Y-94244577D01*
X124706984Y-94253841D01*
X124708254Y-94264087D01*
X124708733Y-94268657D01*
X124710125Y-94281352D01*
X124711745Y-94295527D01*
X124713330Y-94308882D01*
X124713365Y-94309165D01*
X124715001Y-94327102D01*
X124715860Y-94346544D01*
X124715991Y-94366701D01*
X124715442Y-94386781D01*
X124714262Y-94405992D01*
X124712499Y-94423543D01*
X124710201Y-94438641D01*
X124707416Y-94450496D01*
X124704194Y-94458315D01*
X124702123Y-94462643D01*
X124700877Y-94468122D01*
X124700591Y-94470628D01*
X124698715Y-94474866D01*
X124696613Y-94477919D01*
X124693007Y-94483991D01*
X124688729Y-94491694D01*
X124687719Y-94493565D01*
X124677105Y-94512397D01*
X124667451Y-94527628D01*
X124658052Y-94540108D01*
X124648206Y-94550689D01*
X124637211Y-94560218D01*
X124624363Y-94569547D01*
X124603511Y-94583706D01*
X124575316Y-94583706D01*
X124565595Y-94583640D01*
X124555276Y-94583247D01*
X124547665Y-94582350D01*
X124541520Y-94580785D01*
X124535600Y-94578385D01*
X124530204Y-94575653D01*
X124518736Y-94567281D01*
X124511873Y-94557478D01*
X124509590Y-94546214D01*
X124510067Y-94539010D01*
X124512240Y-94533900D01*
X124517108Y-94529199D01*
X124518334Y-94528213D01*
X124523770Y-94523788D01*
X124527398Y-94520750D01*
X124530710Y-94518382D01*
X124536225Y-94515161D01*
X124539642Y-94513254D01*
X124545806Y-94508897D01*
X124551757Y-94503081D01*
X124558366Y-94494890D01*
X124566507Y-94483411D01*
X124574093Y-94471407D01*
X124580427Y-94458853D01*
X124585279Y-94445550D01*
X124588843Y-94430683D01*
X124591312Y-94413441D01*
X124592878Y-94393010D01*
X124593734Y-94368577D01*
X124593846Y-94362677D01*
X124593965Y-94345264D01*
X124593657Y-94332210D01*
X124592907Y-94323152D01*
X124591702Y-94317729D01*
X124590671Y-94314780D01*
X124589624Y-94310830D01*
X124588596Y-94305544D01*
X124587483Y-94298227D01*
X124586179Y-94288182D01*
X124584580Y-94274712D01*
X124582582Y-94257123D01*
X124582052Y-94252816D01*
X124580572Y-94243502D01*
X124578989Y-94236486D01*
X124577567Y-94233030D01*
X124576536Y-94230920D01*
X124575362Y-94224905D01*
X124574861Y-94216992D01*
X124574713Y-94212367D01*
X124573794Y-94201769D01*
X124572338Y-94192657D01*
X124571136Y-94186707D01*
X124569324Y-94176396D01*
X124567738Y-94166022D01*
X124565310Y-94149626D01*
X124562252Y-94132385D01*
X124559330Y-94119921D01*
X124556551Y-94112267D01*
X124554290Y-94106491D01*
X124553175Y-94100332D01*
X124552344Y-94093825D01*
X124549513Y-94083441D01*
X124544563Y-94069168D01*
X124544331Y-94068527D01*
X124541759Y-94059899D01*
X124539807Y-94051008D01*
X124539519Y-94049289D01*
X124537932Y-94039840D01*
X124536346Y-94030426D01*
X124535904Y-94028018D01*
X124533905Y-94019500D01*
X124531734Y-94012714D01*
X124529924Y-94006603D01*
X124528961Y-93999092D01*
X124528393Y-93994936D01*
X124526194Y-93987129D01*
X124522908Y-93978600D01*
X124520296Y-93972152D01*
X124517814Y-93964542D01*
X124516854Y-93959412D01*
X124516294Y-93955650D01*
X124513877Y-93950934D01*
X124512357Y-93947956D01*
X124510594Y-93941317D01*
X124509288Y-93932895D01*
X124507865Y-93920779D01*
X124504891Y-93901719D01*
X124501124Y-93884992D01*
X124496234Y-93868987D01*
X124495289Y-93866267D01*
X124492113Y-93857556D01*
X124489470Y-93850917D01*
X124487855Y-93847614D01*
X124487121Y-93846083D01*
X124485601Y-93840562D01*
X124484236Y-93833086D01*
X124483553Y-93828851D01*
X124482166Y-93822222D01*
X124480949Y-93818558D01*
X124479878Y-93816137D01*
X124477807Y-93809665D01*
X124475479Y-93801100D01*
X124473290Y-93792019D01*
X124471635Y-93783996D01*
X124470911Y-93778606D01*
X124470083Y-93774085D01*
X124467140Y-93767852D01*
X124464846Y-93763197D01*
X124463585Y-93756318D01*
X124463079Y-93750868D01*
X124461488Y-93745279D01*
X124461304Y-93744907D01*
X124455297Y-93729037D01*
X124451425Y-93710808D01*
X124450841Y-93707041D01*
X124448752Y-93696865D01*
X124446168Y-93687274D01*
X124443497Y-93679671D01*
X124441146Y-93675455D01*
X124439984Y-93672723D01*
X124439371Y-93667283D01*
X124438602Y-93662304D01*
X124435816Y-93656185D01*
X124433411Y-93651120D01*
X124432184Y-93644137D01*
X124431639Y-93639559D01*
X124429710Y-93631296D01*
X124426882Y-93622344D01*
X124424838Y-93616045D01*
X124421802Y-93604308D01*
X124419844Y-93593655D01*
X124418819Y-93587298D01*
X124417234Y-93580956D01*
X124415696Y-93577916D01*
X124415447Y-93577715D01*
X124413534Y-93574021D01*
X124412040Y-93567948D01*
X124411911Y-93567134D01*
X124409906Y-93556288D01*
X124407469Y-93545503D01*
X124404986Y-93536354D01*
X124402844Y-93530417D01*
X124402003Y-93528298D01*
X124400071Y-93521563D01*
X124398339Y-93513467D01*
X124398205Y-93512729D01*
X124396146Y-93502654D01*
X124393455Y-93491136D01*
X124390461Y-93479412D01*
X124387492Y-93468716D01*
X124384874Y-93460285D01*
X124382936Y-93455355D01*
X124382144Y-93453657D01*
X124380510Y-93448552D01*
X124378777Y-93440740D01*
X124376800Y-93429521D01*
X124374432Y-93414192D01*
X124373729Y-93410075D01*
X124372048Y-93402897D01*
X124370385Y-93398464D01*
X124369761Y-93397184D01*
X124368009Y-93391406D01*
X124366574Y-93383936D01*
X124366000Y-93380440D01*
X124363828Y-93369912D01*
X124360680Y-93356615D01*
X124356851Y-93341617D01*
X124352632Y-93325991D01*
X124348318Y-93310805D01*
X124344200Y-93297131D01*
X124340573Y-93286038D01*
X124337728Y-93278596D01*
X124337459Y-93277928D01*
X124335806Y-93272472D01*
X124333712Y-93264117D01*
X124331565Y-93254383D01*
X124328065Y-93238500D01*
X124324179Y-93223145D01*
X124320475Y-93210786D01*
X124317202Y-93202323D01*
X124316435Y-93200596D01*
X124313769Y-93193474D01*
X124311213Y-93185374D01*
X124310420Y-93182723D01*
X124307534Y-93174471D01*
X124304738Y-93168051D01*
X124303563Y-93164993D01*
X124301976Y-93157191D01*
X124301354Y-93148379D01*
X124301178Y-93143922D01*
X124299813Y-93133482D01*
X124297540Y-93124539D01*
X124295867Y-93119512D01*
X124292933Y-93109475D01*
X124290370Y-93099416D01*
X124288914Y-93093588D01*
X124285580Y-93081938D01*
X124282157Y-93071570D01*
X124280249Y-93065839D01*
X124278091Y-93057659D01*
X124277219Y-93051793D01*
X124276772Y-93048605D01*
X124274543Y-93041287D01*
X124271087Y-93033281D01*
X124268714Y-93028296D01*
X124266058Y-93021827D01*
X124265019Y-93017949D01*
X124264033Y-93013803D01*
X124261537Y-93008023D01*
X124260771Y-93006380D01*
X124258250Y-92998849D01*
X124256430Y-92990438D01*
X124255873Y-92987217D01*
X124254370Y-92981238D01*
X124252914Y-92978340D01*
X124252759Y-92978202D01*
X124251195Y-92974858D01*
X124249047Y-92968238D01*
X124246734Y-92959604D01*
X124244033Y-92949795D01*
X124240347Y-92938461D01*
X124236783Y-92929247D01*
X124234509Y-92923734D01*
X124232078Y-92916668D01*
X124231135Y-92912155D01*
X124230412Y-92908602D01*
X124227580Y-92903144D01*
X124225453Y-92899369D01*
X124223948Y-92893450D01*
X124223725Y-92891638D01*
X124221895Y-92885357D01*
X124218839Y-92878042D01*
X124217665Y-92875407D01*
X124214216Y-92865463D01*
X124211913Y-92855649D01*
X124211142Y-92851580D01*
X124209233Y-92844801D01*
X124207260Y-92840912D01*
X124205487Y-92837640D01*
X124204500Y-92831776D01*
X124204150Y-92828746D01*
X124202363Y-92820935D01*
X124199317Y-92810161D01*
X124195302Y-92797371D01*
X124190605Y-92783511D01*
X124185516Y-92769527D01*
X124183858Y-92764845D01*
X124180951Y-92755223D01*
X124179081Y-92747142D01*
X124178693Y-92745074D01*
X124177102Y-92739200D01*
X124175512Y-92736255D01*
X124174884Y-92735443D01*
X124173316Y-92730935D01*
X124171942Y-92724131D01*
X124170400Y-92716691D01*
X124167660Y-92706526D01*
X124164398Y-92696302D01*
X124164227Y-92695808D01*
X124161332Y-92686703D01*
X124159276Y-92678810D01*
X124158494Y-92673787D01*
X124158107Y-92669957D01*
X124156570Y-92665873D01*
X124155179Y-92663198D01*
X124152769Y-92657034D01*
X124150074Y-92649044D01*
X124147785Y-92642133D01*
X124145345Y-92635551D01*
X124143713Y-92632076D01*
X124142652Y-92630258D01*
X124140016Y-92624011D01*
X124137301Y-92616045D01*
X124135165Y-92608381D01*
X124134265Y-92603038D01*
X124134255Y-92602810D01*
X124133279Y-92597921D01*
X124131030Y-92590212D01*
X124127962Y-92581246D01*
X124124731Y-92572221D01*
X124120900Y-92560646D01*
X124117184Y-92548146D01*
X124112995Y-92532819D01*
X124111130Y-92526013D01*
X124108382Y-92516278D01*
X124105471Y-92506184D01*
X124105384Y-92505885D01*
X124102921Y-92496709D01*
X124101152Y-92488780D01*
X124100452Y-92483787D01*
X124099878Y-92480393D01*
X124097960Y-92478339D01*
X124096710Y-92477072D01*
X124095777Y-92472460D01*
X124095648Y-92466063D01*
X124096334Y-92459576D01*
X124097842Y-92454698D01*
X124098899Y-92451808D01*
X124100439Y-92444912D01*
X124101659Y-92436485D01*
X124101867Y-92434642D01*
X124103085Y-92427554D01*
X124105303Y-92421928D01*
X124109352Y-92416158D01*
X124116062Y-92408639D01*
X124128952Y-92394802D01*
X124160765Y-92395335D01*
X124168822Y-92395509D01*
X124181224Y-92396054D01*
X124190367Y-92396983D01*
X124197293Y-92398421D01*
X124203043Y-92400497D01*
X124210279Y-92404808D01*
X124219343Y-92411863D01*
X124228781Y-92420411D01*
X124237286Y-92429269D01*
X124243551Y-92437248D01*
X124243595Y-92437314D01*
X124246565Y-92441011D01*
X124252277Y-92447516D01*
X124260131Y-92456168D01*
X124269528Y-92466310D01*
X124279871Y-92477280D01*
X124289975Y-92487980D01*
X124300422Y-92499193D01*
X124309722Y-92509326D01*
X124317139Y-92517576D01*
X124321935Y-92523139D01*
X124325986Y-92528043D01*
X124333990Y-92537605D01*
X124341306Y-92546214D01*
X124345642Y-92551383D01*
X124351053Y-92558178D01*
X124354624Y-92563087D01*
X124356384Y-92565699D01*
X124360966Y-92571807D01*
X124367154Y-92579232D01*
X124375408Y-92588497D01*
X124386187Y-92600124D01*
X124399949Y-92614635D01*
X124405859Y-92620925D01*
X124414540Y-92630572D01*
X124421651Y-92638979D01*
X124426580Y-92645413D01*
X124428715Y-92649139D01*
X124430190Y-92653050D01*
X124432206Y-92655097D01*
X124433800Y-92656230D01*
X124435870Y-92660353D01*
X124435923Y-92660515D01*
X124438593Y-92666321D01*
X124443074Y-92674106D01*
X124448357Y-92682300D01*
X124453430Y-92689332D01*
X124457286Y-92693635D01*
X124459453Y-92696008D01*
X124461163Y-92700189D01*
X124461353Y-92701580D01*
X124463228Y-92703525D01*
X124463923Y-92703882D01*
X124467238Y-92707099D01*
X124472312Y-92712942D01*
X124478362Y-92720530D01*
X124484790Y-92728910D01*
X124495628Y-92743103D01*
X124505155Y-92755665D01*
X124512819Y-92765866D01*
X124518065Y-92772974D01*
X124520899Y-92777079D01*
X124525324Y-92783872D01*
X124530047Y-92791404D01*
X124534333Y-92798476D01*
X124537446Y-92803889D01*
X124538647Y-92806446D01*
X124538699Y-92806691D01*
X124540628Y-92810118D01*
X124545053Y-92816718D01*
X124551591Y-92825932D01*
X124559855Y-92837201D01*
X124560249Y-92837732D01*
X124565239Y-92844694D01*
X124568779Y-92850050D01*
X124570124Y-92852679D01*
X124570127Y-92852715D01*
X124571694Y-92855370D01*
X124575611Y-92860537D01*
X124581057Y-92867134D01*
X124586258Y-92873714D01*
X124593558Y-92884235D01*
X124599386Y-92894030D01*
X124599875Y-92894949D01*
X124605339Y-92904252D01*
X124612282Y-92914946D01*
X124619325Y-92924898D01*
X124623631Y-92930664D01*
X124629094Y-92938096D01*
X124633539Y-92944430D01*
X124637645Y-92950729D01*
X124642097Y-92958052D01*
X124647577Y-92967464D01*
X124654767Y-92980024D01*
X124655568Y-92981424D01*
X124661648Y-92991862D01*
X124667043Y-93000813D01*
X124671191Y-93007365D01*
X124673532Y-93010604D01*
X124675125Y-93012599D01*
X124676664Y-93016429D01*
X124676801Y-93017166D01*
X124678898Y-93021391D01*
X124682717Y-93026990D01*
X124684086Y-93028822D01*
X124687432Y-93033711D01*
X124688771Y-93036367D01*
X124689616Y-93038013D01*
X124692794Y-93042924D01*
X124697781Y-93050185D01*
X124703990Y-93058927D01*
X124707172Y-93063395D01*
X124714808Y-93074472D01*
X124722595Y-93086179D01*
X124730050Y-93097747D01*
X124736690Y-93108407D01*
X124742031Y-93117387D01*
X124745589Y-93123920D01*
X124746883Y-93127236D01*
X124746938Y-93127822D01*
X124748775Y-93129683D01*
X124748978Y-93129748D01*
X124751178Y-93132413D01*
X124754673Y-93138197D01*
X124758803Y-93146027D01*
X124759273Y-93146969D01*
X124763468Y-93155327D01*
X124766939Y-93162138D01*
X124768975Y-93166003D01*
X124769615Y-93167169D01*
X124772465Y-93172537D01*
X124775986Y-93179321D01*
X124777562Y-93182322D01*
X124782495Y-93191286D01*
X124787530Y-93199987D01*
X124787661Y-93200206D01*
X124792276Y-93208052D01*
X124798006Y-93217957D01*
X124803642Y-93227833D01*
X124804865Y-93229983D01*
X124809339Y-93237687D01*
X124812785Y-93243363D01*
X124814538Y-93245910D01*
X124814883Y-93246259D01*
X124815911Y-93247671D01*
X124817641Y-93250547D01*
X124820471Y-93255587D01*
X124824797Y-93263493D01*
X124831017Y-93274964D01*
X124833086Y-93278680D01*
X124837045Y-93285279D01*
X124839957Y-93289492D01*
X124841649Y-93291730D01*
X124844612Y-93296756D01*
X124845913Y-93299307D01*
X124849250Y-93305251D01*
X124853523Y-93312495D01*
X124856573Y-93317682D01*
X124860585Y-93324921D01*
X124863082Y-93329959D01*
X124865243Y-93334195D01*
X124869053Y-93340755D01*
X124873444Y-93347848D01*
X124877432Y-93353889D01*
X124880035Y-93357292D01*
X124880346Y-93357644D01*
X124881708Y-93359681D01*
X124884058Y-93363726D01*
X124887713Y-93370350D01*
X124892988Y-93380121D01*
X124900199Y-93393610D01*
X124901152Y-93395390D01*
X124906531Y-93405215D01*
X124911663Y-93414273D01*
X124915551Y-93420802D01*
X124917028Y-93423231D01*
X124920027Y-93428777D01*
X124921221Y-93432007D01*
X124921807Y-93433675D01*
X124924853Y-93437195D01*
X124926774Y-93439305D01*
X124928485Y-93443589D01*
X124929643Y-93446620D01*
X124933007Y-93452835D01*
X124938046Y-93461242D01*
X124944223Y-93470914D01*
X124950223Y-93480178D01*
X124955283Y-93488256D01*
X124958705Y-93494029D01*
X124959962Y-93496637D01*
X124960581Y-93498153D01*
X124963316Y-93503128D01*
X124967732Y-93510566D01*
X124973280Y-93519521D01*
X124977292Y-93525958D01*
X124982096Y-93533910D01*
X124985380Y-93539665D01*
X124986597Y-93542283D01*
X124987167Y-93543993D01*
X124989946Y-93547903D01*
X124995570Y-93554434D01*
X124996614Y-93555761D01*
X125000095Y-93561044D01*
X125004045Y-93567818D01*
X125005840Y-93571066D01*
X125011035Y-93580337D01*
X125016126Y-93589285D01*
X125018198Y-93592925D01*
X125023344Y-93602188D01*
X125027716Y-93610322D01*
X125028534Y-93611877D01*
X125033435Y-93620978D01*
X125038270Y-93629692D01*
X125039190Y-93631325D01*
X125043423Y-93638969D01*
X125048731Y-93648676D01*
X125054181Y-93658749D01*
X125058033Y-93665837D01*
X125065205Y-93678429D01*
X125070940Y-93687375D01*
X125075630Y-93693196D01*
X125079670Y-93696414D01*
X125083451Y-93697551D01*
X125083786Y-93697574D01*
X125090753Y-93697054D01*
X125095104Y-93693946D01*
X125097345Y-93687541D01*
X125097979Y-93677130D01*
X125097918Y-93673186D01*
X125097209Y-93661772D01*
X125095864Y-93650134D01*
X125094084Y-93639538D01*
X125092068Y-93631251D01*
X125090014Y-93626537D01*
X125089467Y-93625759D01*
X125088201Y-93622991D01*
X125086887Y-93618379D01*
X125085361Y-93611186D01*
X125083460Y-93600674D01*
X125081020Y-93586108D01*
X125079594Y-93577242D01*
X125076936Y-93558941D01*
X125075188Y-93543413D01*
X125074212Y-93529290D01*
X125073872Y-93515206D01*
X125073824Y-93511790D01*
X125073229Y-93500576D01*
X125072096Y-93491110D01*
X125070592Y-93484939D01*
X125068463Y-93478842D01*
X125065207Y-93466322D01*
X125062382Y-93451694D01*
X125060341Y-93436628D01*
X125059520Y-93430634D01*
X125058102Y-93424345D01*
X125056647Y-93421351D01*
X125055604Y-93419019D01*
X125054705Y-93413048D01*
X125054337Y-93404969D01*
X125054315Y-93403642D01*
X125053495Y-93393352D01*
X125051735Y-93381149D01*
X125049365Y-93369397D01*
X125049005Y-93367873D01*
X125046336Y-93355718D01*
X125043902Y-93343329D01*
X125042190Y-93333167D01*
X125040840Y-93325530D01*
X125038667Y-93316536D01*
X125036459Y-93310165D01*
X125035362Y-93307054D01*
X125033489Y-93299179D01*
X125031639Y-93288818D01*
X125030087Y-93277385D01*
X125029114Y-93269518D01*
X125027654Y-93259565D01*
X125026269Y-93252022D01*
X125025164Y-93248093D01*
X125024028Y-93244865D01*
X125022345Y-93237922D01*
X125020754Y-93229394D01*
X125019470Y-93222705D01*
X125017112Y-93213465D01*
X125014693Y-93206628D01*
X125012840Y-93201540D01*
X125010496Y-93192615D01*
X125008659Y-93182953D01*
X125007472Y-93175710D01*
X125005093Y-93163014D01*
X125002630Y-93151475D01*
X125000949Y-93143351D01*
X124998810Y-93130584D01*
X124997315Y-93118787D01*
X124996113Y-93109714D01*
X124994395Y-93101271D01*
X124992591Y-93095784D01*
X124992155Y-93094881D01*
X124989442Y-93087949D01*
X124987039Y-93080045D01*
X124985676Y-93074698D01*
X124983238Y-93065113D01*
X124980738Y-93055263D01*
X124979109Y-93048000D01*
X124977524Y-93038573D01*
X124976912Y-93031425D01*
X124976594Y-93026661D01*
X124975555Y-93018046D01*
X124973948Y-93006903D01*
X124971931Y-92994146D01*
X124969664Y-92980691D01*
X124967307Y-92967452D01*
X124965017Y-92955345D01*
X124962953Y-92945284D01*
X124961276Y-92938185D01*
X124960144Y-92934962D01*
X124959227Y-92933197D01*
X124957264Y-92926911D01*
X124955011Y-92917363D01*
X124952688Y-92905528D01*
X124950514Y-92892379D01*
X124950019Y-92889429D01*
X124948440Y-92882505D01*
X124946863Y-92878215D01*
X124945896Y-92875762D01*
X124944329Y-92869386D01*
X124942931Y-92861276D01*
X124941815Y-92854372D01*
X124939570Y-92842794D01*
X124937093Y-92831856D01*
X124935156Y-92823970D01*
X124932827Y-92814249D01*
X124931119Y-92806843D01*
X124930764Y-92805358D01*
X124928619Y-92798879D01*
X124926353Y-92794857D01*
X124926031Y-92794472D01*
X124924334Y-92789850D01*
X124923642Y-92783216D01*
X124923565Y-92781532D01*
X124922477Y-92773942D01*
X124920369Y-92763997D01*
X124917588Y-92753397D01*
X124916492Y-92749516D01*
X124913958Y-92739676D01*
X124912196Y-92731544D01*
X124911535Y-92726580D01*
X124911300Y-92724105D01*
X124909665Y-92717035D01*
X124906986Y-92709062D01*
X124905590Y-92705116D01*
X124902669Y-92694472D01*
X124900731Y-92684154D01*
X124900375Y-92681790D01*
X124898374Y-92672185D01*
X124895403Y-92660666D01*
X124891963Y-92649231D01*
X124890368Y-92644246D01*
X124887562Y-92634887D01*
X124885624Y-92627586D01*
X124884900Y-92623605D01*
X124884703Y-92621571D01*
X124883122Y-92617806D01*
X124882264Y-92616240D01*
X124880473Y-92610888D01*
X124878619Y-92603480D01*
X124875961Y-92591353D01*
X124871789Y-92572918D01*
X124868355Y-92558694D01*
X124865568Y-92548324D01*
X124863335Y-92541454D01*
X124861565Y-92537728D01*
X124859468Y-92533157D01*
X124858265Y-92526262D01*
X124857779Y-92520124D01*
X124855854Y-92509561D01*
X124852930Y-92498313D01*
X124849511Y-92488547D01*
X124847145Y-92480794D01*
X124846159Y-92473297D01*
X124846018Y-92471284D01*
X124844286Y-92463739D01*
X124841212Y-92455824D01*
X124840324Y-92453874D01*
X124836927Y-92444194D01*
X124834824Y-92434754D01*
X124834365Y-92431764D01*
X124832855Y-92425075D01*
X124831258Y-92421143D01*
X124830114Y-92419023D01*
X124827798Y-92413108D01*
X124825312Y-92405404D01*
X124823792Y-92400439D01*
X124820860Y-92391700D01*
X124818340Y-92385117D01*
X124818259Y-92384926D01*
X124816368Y-92378717D01*
X124814425Y-92369668D01*
X124812838Y-92359667D01*
X124811011Y-92349254D01*
X124808285Y-92338478D01*
X124805320Y-92330138D01*
X124803553Y-92326039D01*
X124801111Y-92319370D01*
X124800153Y-92315173D01*
X124799967Y-92313544D01*
X124798132Y-92310302D01*
X124797609Y-92309563D01*
X124795957Y-92305002D01*
X124793888Y-92297351D01*
X124791731Y-92287762D01*
X124790806Y-92283410D01*
X124788657Y-92274244D01*
X124786763Y-92267365D01*
X124785449Y-92264009D01*
X124784852Y-92262981D01*
X124782656Y-92257838D01*
X124779674Y-92249849D01*
X124776333Y-92240262D01*
X124773061Y-92230328D01*
X124770288Y-92221294D01*
X124768441Y-92214411D01*
X124767640Y-92211330D01*
X124765174Y-92203071D01*
X124761846Y-92192712D01*
X124758180Y-92181826D01*
X124754699Y-92171988D01*
X124751927Y-92164773D01*
X124750748Y-92161577D01*
X124748423Y-92154487D01*
X124745877Y-92146090D01*
X124743887Y-92139918D01*
X124741402Y-92133761D01*
X124739521Y-92130814D01*
X124738140Y-92128907D01*
X124737198Y-92124037D01*
X124737109Y-92122858D01*
X124735451Y-92116679D01*
X124732355Y-92109660D01*
X124731377Y-92107743D01*
X124728620Y-92101057D01*
X124727512Y-92096149D01*
X124726998Y-92092675D01*
X124725210Y-92085690D01*
X124722583Y-92077375D01*
X124720570Y-92071358D01*
X124716982Y-92059999D01*
X124714018Y-92049898D01*
X124712401Y-92044429D01*
X124710100Y-92037793D01*
X124708381Y-92034159D01*
X124707425Y-92031895D01*
X124706012Y-92025795D01*
X124704833Y-92017804D01*
X124703976Y-92012366D01*
X124701573Y-92003088D01*
X124698625Y-91996012D01*
X124697279Y-91993401D01*
X124694008Y-91984929D01*
X124691607Y-91975908D01*
X124690625Y-91971138D01*
X124688743Y-91963559D01*
X124686213Y-91955431D01*
X124682617Y-91945452D01*
X124677534Y-91932323D01*
X124674934Y-91925134D01*
X124672679Y-91917450D01*
X124671814Y-91912396D01*
X124671779Y-91911518D01*
X124670628Y-91905189D01*
X124668359Y-91897868D01*
X124666811Y-91893525D01*
X124663836Y-91884331D01*
X124661027Y-91874816D01*
X124659062Y-91868578D01*
X124656735Y-91863030D01*
X124654992Y-91860893D01*
X124654624Y-91860792D01*
X124652384Y-91857956D01*
X124650035Y-91852437D01*
X124649705Y-91851492D01*
X124646777Y-91845498D01*
X124643665Y-91841978D01*
X124642984Y-91841443D01*
X124641129Y-91837600D01*
X124639759Y-91830099D01*
X124638750Y-91818351D01*
X124638272Y-91809574D01*
X124638239Y-91801664D01*
X124639072Y-91795750D01*
X124641025Y-91790255D01*
X124644352Y-91783604D01*
X124648897Y-91775940D01*
X124654120Y-91769891D01*
X124660624Y-91765577D01*
X124669300Y-91762579D01*
X124681038Y-91760476D01*
X124696728Y-91758845D01*
X124707811Y-91758053D01*
X124719182Y-91757563D01*
X124728369Y-91757507D01*
X124734054Y-91757918D01*
G37*
G36*
X123664578Y-93577130D02*
G01*
X123668622Y-93583885D01*
X123672531Y-93590882D01*
X123675479Y-93596681D01*
X123676645Y-93599839D01*
X123676780Y-93600597D01*
X123678875Y-93604900D01*
X123682698Y-93610537D01*
X123684051Y-93612353D01*
X123687408Y-93617331D01*
X123688752Y-93620131D01*
X123689124Y-93621097D01*
X123691762Y-93625071D01*
X123696100Y-93630583D01*
X123700196Y-93635505D01*
X123703734Y-93639926D01*
X123706760Y-93644111D01*
X123710310Y-93649500D01*
X123715416Y-93657538D01*
X123721696Y-93667106D01*
X123729553Y-93677697D01*
X123737784Y-93687009D01*
X123740534Y-93690213D01*
X123742021Y-93692809D01*
X123743035Y-93694796D01*
X123746053Y-93699370D01*
X123750030Y-93704967D01*
X123753897Y-93710086D01*
X123756585Y-93713229D01*
X123758323Y-93716003D01*
X123760815Y-93721166D01*
X123763869Y-93726196D01*
X123767425Y-93729295D01*
X123769128Y-93730311D01*
X123771078Y-93733811D01*
X123771096Y-93734160D01*
X123773560Y-93737665D01*
X123779080Y-93740076D01*
X123786075Y-93741138D01*
X123792963Y-93740595D01*
X123798165Y-93738192D01*
X123801290Y-93736344D01*
X123805205Y-93736373D01*
X123807065Y-93736762D01*
X123806752Y-93733584D01*
X123806576Y-93733000D01*
X123805050Y-93727768D01*
X123802728Y-93719672D01*
X123800039Y-93710202D01*
X123799267Y-93707548D01*
X123796570Y-93699337D01*
X123794198Y-93693597D01*
X123792592Y-93691437D01*
X123791201Y-93690017D01*
X123790448Y-93685541D01*
X123789852Y-93680167D01*
X123787941Y-93673049D01*
X123786881Y-93669727D01*
X123784947Y-93661803D01*
X123783262Y-93652916D01*
X123781210Y-93641052D01*
X123778371Y-93627339D01*
X123775609Y-93616894D01*
X123773110Y-93610494D01*
X123772554Y-93609447D01*
X123769595Y-93602790D01*
X123766135Y-93593788D01*
X123762637Y-93583808D01*
X123759564Y-93574216D01*
X123757380Y-93566379D01*
X123756549Y-93561665D01*
X123756048Y-93557990D01*
X123754128Y-93554630D01*
X123752748Y-93552873D01*
X123751707Y-93548098D01*
X123751489Y-93546582D01*
X123749643Y-93540696D01*
X123746322Y-93532362D01*
X123742021Y-93522865D01*
X123739962Y-93518462D01*
X123736053Y-93509404D01*
X123733347Y-93502135D01*
X123732336Y-93497920D01*
X123731963Y-93495093D01*
X123730057Y-93491763D01*
X123728834Y-93490451D01*
X123725769Y-93485661D01*
X123722188Y-93478908D01*
X123719970Y-93474579D01*
X123716790Y-93469125D01*
X123714781Y-93466655D01*
X123713985Y-93465927D01*
X123712965Y-93462178D01*
X123712961Y-93461998D01*
X123711923Y-93457169D01*
X123709598Y-93450878D01*
X123708895Y-93449259D01*
X123705613Y-93441305D01*
X123702335Y-93432911D01*
X123701589Y-93431025D01*
X123697234Y-93421661D01*
X123692384Y-93412983D01*
X123690642Y-93410079D01*
X123687553Y-93403979D01*
X123686330Y-93400008D01*
X123685776Y-93397758D01*
X123682698Y-93393610D01*
X123680769Y-93391516D01*
X123679066Y-93387389D01*
X123678641Y-93385412D01*
X123676448Y-93379827D01*
X123673013Y-93372796D01*
X123670851Y-93368443D01*
X123668054Y-93361612D01*
X123666959Y-93357072D01*
X123666657Y-93354684D01*
X123664789Y-93351392D01*
X123663847Y-93350462D01*
X123660852Y-93346102D01*
X123657260Y-93339747D01*
X123655485Y-93336448D01*
X123652206Y-93330946D01*
X123650112Y-93328234D01*
X123649657Y-93327832D01*
X123646873Y-93323977D01*
X123643193Y-93317736D01*
X123639486Y-93310730D01*
X123636621Y-93304580D01*
X123635467Y-93300908D01*
X123634623Y-93297381D01*
X123632217Y-93291913D01*
X123631235Y-93290066D01*
X123627862Y-93283686D01*
X123623276Y-93274981D01*
X123618176Y-93265279D01*
X123616098Y-93261359D01*
X123610352Y-93250826D01*
X123604916Y-93241240D01*
X123600736Y-93234284D01*
X123598674Y-93230941D01*
X123594376Y-93223333D01*
X123591473Y-93217334D01*
X123588892Y-93211058D01*
X123585707Y-93203534D01*
X123585414Y-93202856D01*
X123582146Y-93195287D01*
X123578695Y-93187293D01*
X123577884Y-93185486D01*
X123574949Y-93179910D01*
X123572730Y-93177025D01*
X123570871Y-93174379D01*
X123568971Y-93169077D01*
X123567367Y-93164229D01*
X123565541Y-93161185D01*
X123564630Y-93160115D01*
X123561898Y-93155597D01*
X123558525Y-93149054D01*
X123555903Y-93143819D01*
X123550795Y-93134166D01*
X123545600Y-93124840D01*
X123544068Y-93122158D01*
X123538165Y-93111448D01*
X123532734Y-93101067D01*
X123528258Y-93091984D01*
X123525219Y-93085168D01*
X123524099Y-93081588D01*
X123524084Y-93081324D01*
X123522573Y-93076745D01*
X123518730Y-93068512D01*
X123512749Y-93057042D01*
X123511204Y-93054069D01*
X123507482Y-93046592D01*
X123502859Y-93037088D01*
X123498037Y-93027020D01*
X123493721Y-93017849D01*
X123490612Y-93011036D01*
X123489337Y-93008382D01*
X123485628Y-93001471D01*
X123481202Y-92993854D01*
X123479377Y-92990838D01*
X123471686Y-92978057D01*
X123466143Y-92968653D01*
X123462412Y-92962008D01*
X123460159Y-92957506D01*
X123459048Y-92954530D01*
X123458746Y-92952462D01*
X123458441Y-92950331D01*
X123456302Y-92946871D01*
X123455571Y-92946273D01*
X123453675Y-92941406D01*
X123453668Y-92933806D01*
X123455258Y-92924743D01*
X123458156Y-92915484D01*
X123462070Y-92907296D01*
X123466711Y-92901448D01*
X123468650Y-92899893D01*
X123477695Y-92894193D01*
X123489183Y-92888473D01*
X123501352Y-92883551D01*
X123512443Y-92880242D01*
X123520612Y-92878721D01*
X123537532Y-92878054D01*
X123552669Y-92881405D01*
X123566842Y-92888904D01*
X123577073Y-92897373D01*
X123588485Y-92909666D01*
X123598743Y-92923480D01*
X123606506Y-92937185D01*
X123608838Y-92942238D01*
X123614884Y-92955521D01*
X123619462Y-92965882D01*
X123622362Y-92972838D01*
X123623375Y-92975910D01*
X123623375Y-92975920D01*
X123624442Y-92979237D01*
X123627532Y-92986644D01*
X123632535Y-92997884D01*
X123639338Y-93012703D01*
X123641705Y-93018089D01*
X123644199Y-93024662D01*
X123645167Y-93028562D01*
X123645273Y-93029737D01*
X123647188Y-93034160D01*
X123648215Y-93035832D01*
X123650674Y-93041269D01*
X123653444Y-93048567D01*
X123655714Y-93054891D01*
X123658514Y-93062078D01*
X123662010Y-93070311D01*
X123666889Y-93081256D01*
X123668284Y-93084171D01*
X123671586Y-93090734D01*
X123675572Y-93098446D01*
X123679299Y-93105469D01*
X123680029Y-93106826D01*
X123684264Y-93114992D01*
X123688550Y-93123643D01*
X123692318Y-93131582D01*
X123694996Y-93137614D01*
X123696016Y-93140543D01*
X123696221Y-93141597D01*
X123698198Y-93146824D01*
X123702015Y-93155400D01*
X123707350Y-93166684D01*
X123713884Y-93180035D01*
X123721297Y-93194811D01*
X123729269Y-93210372D01*
X123737479Y-93226077D01*
X123745608Y-93241284D01*
X123753335Y-93255352D01*
X123755526Y-93259563D01*
X123760127Y-93269809D01*
X123763871Y-93279807D01*
X123767496Y-93289301D01*
X123774315Y-93304013D01*
X123783779Y-93322302D01*
X123795793Y-93343973D01*
X123797415Y-93346881D01*
X123802039Y-93355604D01*
X123806966Y-93365375D01*
X123811687Y-93375127D01*
X123815690Y-93383792D01*
X123818466Y-93390303D01*
X123819505Y-93393591D01*
X123819505Y-93393618D01*
X123820543Y-93397089D01*
X123822988Y-93402494D01*
X123823327Y-93403166D01*
X123826804Y-93410461D01*
X123830317Y-93418326D01*
X123831106Y-93420090D01*
X123834126Y-93425753D01*
X123836519Y-93428760D01*
X123837574Y-93429824D01*
X123838875Y-93434082D01*
X123838938Y-93434740D01*
X123840819Y-93439587D01*
X123844502Y-93445441D01*
X123845261Y-93446465D01*
X123849280Y-93452287D01*
X123851787Y-93456566D01*
X123851873Y-93456753D01*
X123854357Y-93461443D01*
X123857869Y-93467462D01*
X123859026Y-93469388D01*
X123863964Y-93477896D01*
X123869981Y-93488557D01*
X123876165Y-93499745D01*
X123881605Y-93509833D01*
X123882477Y-93511455D01*
X123885546Y-93516770D01*
X123887479Y-93519519D01*
X123887666Y-93519735D01*
X123889644Y-93523111D01*
X123892942Y-93529480D01*
X123896952Y-93537681D01*
X123897237Y-93538278D01*
X123901926Y-93547607D01*
X123906531Y-93556050D01*
X123910093Y-93561844D01*
X123912603Y-93565490D01*
X123916676Y-93571870D01*
X123920817Y-93579177D01*
X123926034Y-93589135D01*
X123927858Y-93592456D01*
X123931220Y-93597457D01*
X123933524Y-93599425D01*
X123934334Y-93599636D01*
X123935778Y-93602452D01*
X123935878Y-93603125D01*
X123937305Y-93606517D01*
X123940610Y-93612307D01*
X123946032Y-93620877D01*
X123953809Y-93632609D01*
X123964180Y-93647887D01*
X123964925Y-93648984D01*
X123969763Y-93656541D01*
X123973178Y-93662620D01*
X123974471Y-93665992D01*
X123975034Y-93668089D01*
X123978103Y-93672066D01*
X123980036Y-93674153D01*
X123981735Y-93678214D01*
X123981852Y-93679367D01*
X123983551Y-93682155D01*
X123984056Y-93682542D01*
X123986993Y-93686057D01*
X123991500Y-93692292D01*
X123996841Y-93700203D01*
X124002280Y-93708744D01*
X124003804Y-93711207D01*
X124009192Y-93719568D01*
X124013005Y-93724615D01*
X124015876Y-93727096D01*
X124018440Y-93727757D01*
X124021547Y-93728646D01*
X124025788Y-93732275D01*
X124025799Y-93732290D01*
X124030347Y-93735980D01*
X124036823Y-93738521D01*
X124039232Y-93738992D01*
X124043833Y-93738857D01*
X124046301Y-93735843D01*
X124047759Y-93728968D01*
X124048377Y-93726009D01*
X124050060Y-93721570D01*
X124050755Y-93717558D01*
X124049591Y-93710419D01*
X124046750Y-93702005D01*
X124042644Y-93693858D01*
X124039412Y-93686773D01*
X124037447Y-93674487D01*
X124037445Y-93674001D01*
X124036804Y-93666060D01*
X124034845Y-93656681D01*
X124031317Y-93644885D01*
X124025969Y-93629692D01*
X124025230Y-93627719D01*
X124022453Y-93620743D01*
X124020274Y-93615875D01*
X124019894Y-93615041D01*
X124018104Y-93609281D01*
X124016581Y-93601953D01*
X124016155Y-93599657D01*
X124014560Y-93594301D01*
X124012903Y-93592161D01*
X124012443Y-93591929D01*
X124011264Y-93588594D01*
X124010792Y-93582558D01*
X124010496Y-93577929D01*
X124007337Y-93565303D01*
X124000598Y-93550085D01*
X123999377Y-93547156D01*
X123997075Y-93540238D01*
X123994717Y-93531925D01*
X123993070Y-93526234D01*
X123990234Y-93518281D01*
X123987666Y-93512947D01*
X123985424Y-93508655D01*
X123984157Y-93503855D01*
X123983632Y-93501253D01*
X123981433Y-93495100D01*
X123978103Y-93487578D01*
X123975615Y-93482145D01*
X123973046Y-93475692D01*
X123972050Y-93471928D01*
X123971907Y-93471089D01*
X123970225Y-93466324D01*
X123967049Y-93458887D01*
X123962885Y-93449984D01*
X123962842Y-93449895D01*
X123955459Y-93434045D01*
X123949957Y-93420425D01*
X123945657Y-93407165D01*
X123941875Y-93392400D01*
X123941853Y-93392305D01*
X123939601Y-93383139D01*
X123937473Y-93375347D01*
X123935928Y-93370607D01*
X123935877Y-93370484D01*
X123934103Y-93365648D01*
X123931460Y-93357885D01*
X123928499Y-93348815D01*
X123925210Y-93339578D01*
X123920645Y-93328622D01*
X123916275Y-93319759D01*
X123910998Y-93310169D01*
X123902943Y-93294434D01*
X123897318Y-93281745D01*
X123894328Y-93272543D01*
X123894002Y-93271112D01*
X123891219Y-93260958D01*
X123887416Y-93249276D01*
X123883063Y-93237303D01*
X123878629Y-93226276D01*
X123874582Y-93217432D01*
X123871390Y-93212009D01*
X123869097Y-93207612D01*
X123867214Y-93201113D01*
X123867052Y-93200223D01*
X123864067Y-93186465D01*
X123860533Y-93173934D01*
X123856951Y-93164426D01*
X123856686Y-93163851D01*
X123854359Y-93157993D01*
X123853404Y-93154103D01*
X123853091Y-93152086D01*
X123851275Y-93147205D01*
X123849536Y-93143259D01*
X123846736Y-93135535D01*
X123844065Y-93126984D01*
X123842066Y-93119384D01*
X123841285Y-93114516D01*
X123840982Y-93111824D01*
X123838993Y-93106042D01*
X123838754Y-93105596D01*
X123836153Y-93100171D01*
X123833199Y-93093362D01*
X123832792Y-93092376D01*
X123830107Y-93085856D01*
X123828212Y-93081256D01*
X123828108Y-93081012D01*
X123825663Y-93076327D01*
X123822076Y-93070360D01*
X123819019Y-93062989D01*
X123817384Y-93052012D01*
X123817886Y-93040375D01*
X123820600Y-93030098D01*
X123826019Y-93020398D01*
X123834771Y-93010705D01*
X123847330Y-93001122D01*
X123855391Y-92996328D01*
X123862933Y-92993738D01*
X123871598Y-92993049D01*
X123877714Y-92993301D01*
X123892105Y-92995142D01*
X123907708Y-92998430D01*
X123922412Y-93002763D01*
X123925488Y-93003982D01*
X123937801Y-93011899D01*
X123949544Y-93024348D01*
X123960523Y-93041090D01*
X123970542Y-93061885D01*
X123972411Y-93066364D01*
X123976812Y-93076788D01*
X123980337Y-93084856D01*
X123983689Y-93092148D01*
X123987568Y-93100245D01*
X123990196Y-93106063D01*
X123992825Y-93113052D01*
X123993842Y-93117503D01*
X123994228Y-93119884D01*
X123997013Y-93124457D01*
X123998354Y-93126189D01*
X124001035Y-93131853D01*
X124003527Y-93139368D01*
X124004918Y-93143888D01*
X124007617Y-93150540D01*
X124010042Y-93154279D01*
X124011501Y-93155886D01*
X124013213Y-93160423D01*
X124013231Y-93160644D01*
X124014478Y-93164564D01*
X124017401Y-93171763D01*
X124021599Y-93181294D01*
X124026670Y-93192210D01*
X124026991Y-93192884D01*
X124032382Y-93204248D01*
X124037259Y-93214590D01*
X124041098Y-93222796D01*
X124043375Y-93227748D01*
X124045192Y-93231752D01*
X124048886Y-93239749D01*
X124052920Y-93248364D01*
X124055720Y-93254581D01*
X124058245Y-93260913D01*
X124059219Y-93264412D01*
X124059791Y-93266334D01*
X124062851Y-93270121D01*
X124064772Y-93272233D01*
X124066483Y-93276533D01*
X124067086Y-93278635D01*
X124069520Y-93284625D01*
X124073492Y-93293558D01*
X124078651Y-93304647D01*
X124084643Y-93317102D01*
X124089351Y-93326811D01*
X124094712Y-93338069D01*
X124098974Y-93347255D01*
X124101787Y-93353613D01*
X124102803Y-93356387D01*
X124103236Y-93357866D01*
X124105404Y-93363063D01*
X124108981Y-93370883D01*
X124113503Y-93380293D01*
X124115010Y-93383363D01*
X124121597Y-93396828D01*
X124128656Y-93411306D01*
X124134897Y-93424154D01*
X124137682Y-93429796D01*
X124142860Y-93439803D01*
X124147494Y-93448195D01*
X124150831Y-93453584D01*
X124151547Y-93454615D01*
X124154765Y-93460030D01*
X124156073Y-93463646D01*
X124156343Y-93464870D01*
X124158506Y-93469662D01*
X124162126Y-93475936D01*
X124164007Y-93478972D01*
X124166999Y-93484126D01*
X124168180Y-93486677D01*
X124168466Y-93487441D01*
X124170703Y-93491306D01*
X124174433Y-93497016D01*
X124175784Y-93499072D01*
X124181038Y-93508004D01*
X124185585Y-93516923D01*
X124187166Y-93520208D01*
X124190855Y-93526847D01*
X124193860Y-93531019D01*
X124195657Y-93533298D01*
X124197236Y-93537510D01*
X124197321Y-93538132D01*
X124199057Y-93542865D01*
X124202714Y-93550775D01*
X124207872Y-93561074D01*
X124214113Y-93572972D01*
X124221015Y-93585680D01*
X124228160Y-93598408D01*
X124235129Y-93610367D01*
X124241500Y-93620769D01*
X124244864Y-93626079D01*
X124250501Y-93635016D01*
X124254477Y-93641429D01*
X124257435Y-93646384D01*
X124260017Y-93650944D01*
X124262868Y-93656175D01*
X124264194Y-93658557D01*
X124268027Y-93664770D01*
X124270977Y-93668670D01*
X124273096Y-93671645D01*
X124276641Y-93677916D01*
X124280550Y-93685771D01*
X124283778Y-93692568D01*
X124287809Y-93700801D01*
X124290818Y-93706663D01*
X124294003Y-93712585D01*
X124297309Y-93718804D01*
X124297579Y-93719308D01*
X124301155Y-93725226D01*
X124305591Y-93731797D01*
X124306543Y-93733154D01*
X124309746Y-93738255D01*
X124311039Y-93741258D01*
X124311662Y-93743030D01*
X124314425Y-93746937D01*
X124314448Y-93746963D01*
X124316873Y-93750587D01*
X124320924Y-93757526D01*
X124326043Y-93766791D01*
X124331669Y-93777395D01*
X124337465Y-93788018D01*
X124348541Y-93805950D01*
X124359992Y-93821797D01*
X124371189Y-93834720D01*
X124381503Y-93843880D01*
X124382806Y-93844778D01*
X124390431Y-93849238D01*
X124400354Y-93854242D01*
X124410772Y-93858868D01*
X124423431Y-93864709D01*
X124433413Y-93871079D01*
X124442228Y-93879016D01*
X124448104Y-93885623D01*
X124452299Y-93891390D01*
X124453899Y-93895063D01*
X124454437Y-93897605D01*
X124457531Y-93902095D01*
X124459452Y-93904208D01*
X124461163Y-93908520D01*
X124461577Y-93910256D01*
X124464795Y-93913326D01*
X124465100Y-93913463D01*
X124467593Y-93917038D01*
X124468374Y-93922933D01*
X124467441Y-93929121D01*
X124464795Y-93933572D01*
X124462844Y-93935618D01*
X124461142Y-93939317D01*
X124460418Y-93941320D01*
X124456725Y-93946357D01*
X124450757Y-93952851D01*
X124443480Y-93959885D01*
X124435860Y-93966543D01*
X124428861Y-93971910D01*
X124423450Y-93975070D01*
X124422835Y-93975320D01*
X124410442Y-93979934D01*
X124399794Y-93982708D01*
X124388709Y-93984063D01*
X124374999Y-93984421D01*
X124372263Y-93984394D01*
X124350164Y-93981940D01*
X124329930Y-93975385D01*
X124311251Y-93964553D01*
X124293816Y-93949268D01*
X124277314Y-93929356D01*
X124274509Y-93925406D01*
X124271176Y-93920432D01*
X124269876Y-93918061D01*
X124269357Y-93917005D01*
X124266669Y-93912631D01*
X124262209Y-93905743D01*
X124256559Y-93897252D01*
X124252919Y-93891788D01*
X124247920Y-93884057D01*
X124244476Y-93878432D01*
X124243176Y-93875859D01*
X124242913Y-93875133D01*
X124240473Y-93871388D01*
X124236321Y-93866062D01*
X124229530Y-93857875D01*
X124221774Y-93865457D01*
X124219558Y-93867535D01*
X124214698Y-93871475D01*
X124211680Y-93873038D01*
X124211026Y-93873463D01*
X124209820Y-93877224D01*
X124209343Y-93883608D01*
X124208976Y-93889269D01*
X124207331Y-93895144D01*
X124203828Y-93901343D01*
X124197898Y-93908849D01*
X124188968Y-93918646D01*
X124183427Y-93924152D01*
X124173604Y-93932872D01*
X124162949Y-93941440D01*
X124152862Y-93948747D01*
X124144742Y-93953683D01*
X124140218Y-93955827D01*
X124128997Y-93959715D01*
X124116760Y-93961699D01*
X124102312Y-93961914D01*
X124084456Y-93960497D01*
X124074459Y-93959294D01*
X124063294Y-93957697D01*
X124054291Y-93956134D01*
X124048779Y-93954816D01*
X124039649Y-93950625D01*
X124027198Y-93942624D01*
X124013568Y-93931968D01*
X123999572Y-93919396D01*
X123986025Y-93905645D01*
X123973740Y-93891453D01*
X123963532Y-93877557D01*
X123954971Y-93865607D01*
X123946825Y-93856949D01*
X123939334Y-93852368D01*
X123932044Y-93851594D01*
X123924504Y-93854359D01*
X123924008Y-93854659D01*
X123919319Y-93858143D01*
X123912622Y-93863740D01*
X123905195Y-93870389D01*
X123898977Y-93875872D01*
X123887754Y-93884203D01*
X123875768Y-93890826D01*
X123862207Y-93896027D01*
X123846254Y-93900091D01*
X123827095Y-93903305D01*
X123803917Y-93905955D01*
X123802192Y-93906154D01*
X123795852Y-93907445D01*
X123792175Y-93909085D01*
X123791744Y-93909611D01*
X123791156Y-93914265D01*
X123793606Y-93920520D01*
X123798596Y-93926991D01*
X123800311Y-93928952D01*
X123804899Y-93935087D01*
X123810651Y-93943491D01*
X123816717Y-93952943D01*
X123818705Y-93956100D01*
X123826631Y-93968067D01*
X123835187Y-93980260D01*
X123842838Y-93990474D01*
X123849049Y-93998404D01*
X123864680Y-94018728D01*
X123880024Y-94039169D01*
X123894522Y-94058956D01*
X123907614Y-94077320D01*
X123918741Y-94093491D01*
X123927342Y-94106699D01*
X123934216Y-94117566D01*
X123941584Y-94128922D01*
X123948192Y-94138828D01*
X123953157Y-94145943D01*
X123957532Y-94152239D01*
X123961025Y-94157935D01*
X123962364Y-94161076D01*
X123962439Y-94161737D01*
X123964503Y-94163601D01*
X123965880Y-94164266D01*
X123968107Y-94167838D01*
X123968210Y-94168122D01*
X123970696Y-94173208D01*
X123974407Y-94179340D01*
X123974603Y-94179635D01*
X123978619Y-94186053D01*
X123981631Y-94191446D01*
X123983157Y-94194338D01*
X123986812Y-94200847D01*
X123991215Y-94208396D01*
X123993898Y-94212978D01*
X123999306Y-94222505D01*
X124003820Y-94230793D01*
X124005688Y-94234168D01*
X124008913Y-94239132D01*
X124010938Y-94241084D01*
X124012090Y-94241755D01*
X124014109Y-94245322D01*
X124014241Y-94245684D01*
X124016503Y-94250486D01*
X124020108Y-94257103D01*
X124024162Y-94264007D01*
X124027772Y-94269669D01*
X124030043Y-94272562D01*
X124030141Y-94272640D01*
X124033192Y-94276250D01*
X124037535Y-94282644D01*
X124042281Y-94290373D01*
X124046537Y-94297987D01*
X124049412Y-94304039D01*
X124049758Y-94304900D01*
X124052788Y-94311489D01*
X124055527Y-94316146D01*
X124056065Y-94316882D01*
X124059629Y-94322714D01*
X124063665Y-94330429D01*
X124067453Y-94338507D01*
X124070272Y-94345425D01*
X124071402Y-94349663D01*
X124072179Y-94353057D01*
X124075034Y-94358377D01*
X124077213Y-94361975D01*
X124078589Y-94366478D01*
X124078643Y-94367035D01*
X124080422Y-94371609D01*
X124083936Y-94377387D01*
X124084321Y-94377932D01*
X124088628Y-94384465D01*
X124093252Y-94392427D01*
X124098745Y-94402817D01*
X124105659Y-94416632D01*
X124109324Y-94424029D01*
X124112859Y-94431069D01*
X124115072Y-94435365D01*
X124116223Y-94438011D01*
X124117331Y-94443152D01*
X124118126Y-94447017D01*
X124120485Y-94453868D01*
X124123737Y-94461683D01*
X124127198Y-94468691D01*
X124127847Y-94469897D01*
X124130982Y-94476053D01*
X124135327Y-94484856D01*
X124140246Y-94494991D01*
X124145104Y-94505141D01*
X124149265Y-94513992D01*
X124152093Y-94520227D01*
X124152748Y-94521810D01*
X124155115Y-94529095D01*
X124156073Y-94534825D01*
X124156352Y-94536880D01*
X124158172Y-94543320D01*
X124161198Y-94551858D01*
X124164853Y-94561012D01*
X124168562Y-94569298D01*
X124171750Y-94575231D01*
X124172817Y-94577435D01*
X124175301Y-94583716D01*
X124178531Y-94592647D01*
X124182080Y-94603077D01*
X124184435Y-94610106D01*
X124188059Y-94620577D01*
X124191175Y-94629184D01*
X124193295Y-94634554D01*
X124193324Y-94634620D01*
X124196485Y-94642220D01*
X124199578Y-94650293D01*
X124202727Y-94658515D01*
X124205994Y-94666398D01*
X124206168Y-94666797D01*
X124208416Y-94672969D01*
X124209343Y-94677415D01*
X124209460Y-94678693D01*
X124211336Y-94683102D01*
X124212502Y-94685220D01*
X124214786Y-94691036D01*
X124217284Y-94698720D01*
X124218816Y-94703867D01*
X124225019Y-94724325D01*
X124230152Y-94740601D01*
X124234176Y-94752570D01*
X124237047Y-94760107D01*
X124238725Y-94763087D01*
X124239851Y-94764515D01*
X124240820Y-94769013D01*
X124241294Y-94771939D01*
X124243345Y-94778582D01*
X124246467Y-94786425D01*
X124248404Y-94791263D01*
X124251714Y-94801707D01*
X124253734Y-94811069D01*
X124254369Y-94815024D01*
X124255926Y-94821758D01*
X124257489Y-94825597D01*
X124257630Y-94825797D01*
X124259261Y-94829813D01*
X124261391Y-94836997D01*
X124263597Y-94845942D01*
X124263789Y-94846790D01*
X124266034Y-94855927D01*
X124268170Y-94863426D01*
X124269759Y-94867734D01*
X124271323Y-94871197D01*
X124274122Y-94879128D01*
X124276786Y-94888275D01*
X124278776Y-94896725D01*
X124279555Y-94902569D01*
X124279852Y-94906195D01*
X124281116Y-94914007D01*
X124283046Y-94923504D01*
X124285281Y-94933071D01*
X124287461Y-94941090D01*
X124289226Y-94945946D01*
X124289238Y-94945970D01*
X124290833Y-94950234D01*
X124293043Y-94957614D01*
X124295395Y-94966528D01*
X124295452Y-94966758D01*
X124297854Y-94975498D01*
X124300198Y-94982512D01*
X124301984Y-94986300D01*
X124302011Y-94986334D01*
X124303779Y-94989744D01*
X124305706Y-94995978D01*
X124307964Y-95005695D01*
X124310726Y-95019549D01*
X124311012Y-95020958D01*
X124313092Y-95028639D01*
X124315436Y-95034524D01*
X124316579Y-95037814D01*
X124317821Y-95045249D01*
X124318303Y-95053978D01*
X124318482Y-95058408D01*
X124320194Y-95070658D01*
X124323209Y-95082100D01*
X124325121Y-95088058D01*
X124327868Y-95098517D01*
X124329552Y-95107440D01*
X124330040Y-95110637D01*
X124331847Y-95118335D01*
X124333959Y-95123668D01*
X124335507Y-95127674D01*
X124337247Y-95135261D01*
X124338537Y-95144249D01*
X124338937Y-95147725D01*
X124340503Y-95158687D01*
X124342626Y-95171422D01*
X124344964Y-95183830D01*
X124345807Y-95188278D01*
X124347858Y-95201730D01*
X124349309Y-95215151D01*
X124349887Y-95226204D01*
X124349889Y-95226439D01*
X124350445Y-95237031D01*
X124351762Y-95247073D01*
X124353561Y-95254421D01*
X124355006Y-95258929D01*
X124357785Y-95270695D01*
X124360313Y-95285097D01*
X124362380Y-95300673D01*
X124363777Y-95315961D01*
X124364295Y-95329499D01*
X124364301Y-95330787D01*
X124364705Y-95341286D01*
X124365612Y-95350777D01*
X124366846Y-95357344D01*
X124367281Y-95359060D01*
X124368579Y-95366887D01*
X124369910Y-95378334D01*
X124371210Y-95392495D01*
X124372414Y-95408466D01*
X124372744Y-95413800D01*
X124373459Y-95425341D01*
X124374280Y-95442215D01*
X124374813Y-95458184D01*
X124374994Y-95472342D01*
X124374969Y-95476596D01*
X124374645Y-95491379D01*
X124374000Y-95507541D01*
X124373098Y-95524195D01*
X124372002Y-95540451D01*
X124370778Y-95555420D01*
X124369488Y-95568215D01*
X124368197Y-95577946D01*
X124366969Y-95583725D01*
X124366498Y-95585333D01*
X124364947Y-95592391D01*
X124363239Y-95602074D01*
X124361669Y-95612781D01*
X124361062Y-95617072D01*
X124359341Y-95626981D01*
X124357527Y-95634899D01*
X124355925Y-95639416D01*
X124354821Y-95641626D01*
X124352236Y-95648336D01*
X124349751Y-95656365D01*
X124347824Y-95662039D01*
X124341696Y-95674521D01*
X124333260Y-95687530D01*
X124323507Y-95699441D01*
X124322958Y-95700005D01*
X124316718Y-95705099D01*
X124307770Y-95711114D01*
X124297631Y-95717141D01*
X124287820Y-95722270D01*
X124279856Y-95725592D01*
X124275329Y-95726466D01*
X124266017Y-95727115D01*
X124254023Y-95727239D01*
X124240551Y-95726890D01*
X124226809Y-95726123D01*
X124214003Y-95724991D01*
X124203340Y-95723549D01*
X124196025Y-95721851D01*
X124189313Y-95719313D01*
X124176794Y-95713944D01*
X124162626Y-95707335D01*
X124148318Y-95700222D01*
X124135379Y-95693339D01*
X124125317Y-95687420D01*
X124119362Y-95683718D01*
X124113919Y-95680576D01*
X124111265Y-95679368D01*
X124109400Y-95678333D01*
X124104495Y-95674824D01*
X124097507Y-95669503D01*
X124089325Y-95663069D01*
X124080835Y-95656221D01*
X124072925Y-95649658D01*
X124066483Y-95644080D01*
X124061034Y-95639212D01*
X124046011Y-95625926D01*
X124031224Y-95613025D01*
X124018332Y-95601959D01*
X124014343Y-95598358D01*
X124006075Y-95590131D01*
X123996969Y-95580366D01*
X123988376Y-95570482D01*
X123982562Y-95563539D01*
X123975772Y-95555535D01*
X123970439Y-95549366D01*
X123967375Y-95545981D01*
X123965668Y-95544206D01*
X123960861Y-95539121D01*
X123953842Y-95531651D01*
X123945252Y-95522476D01*
X123935730Y-95512279D01*
X123929014Y-95505081D01*
X123920057Y-95495488D01*
X123912473Y-95487374D01*
X123906905Y-95481427D01*
X123903995Y-95478335D01*
X123903076Y-95477314D01*
X123899128Y-95472725D01*
X123892833Y-95465286D01*
X123884687Y-95455588D01*
X123875190Y-95444225D01*
X123864840Y-95431789D01*
X123859502Y-95425380D01*
X123849663Y-95413671D01*
X123840992Y-95403483D01*
X123833968Y-95395372D01*
X123829067Y-95389891D01*
X123826767Y-95387594D01*
X123825753Y-95386684D01*
X123821893Y-95382486D01*
X123815924Y-95375588D01*
X123808441Y-95366682D01*
X123800038Y-95356460D01*
X123795469Y-95350846D01*
X123787405Y-95340951D01*
X123780564Y-95332572D01*
X123775556Y-95326455D01*
X123772992Y-95323349D01*
X123771717Y-95321787D01*
X123767565Y-95316488D01*
X123762643Y-95310032D01*
X123760440Y-95307126D01*
X123755276Y-95300463D01*
X123751346Y-95295584D01*
X123747891Y-95291387D01*
X123742544Y-95284780D01*
X123736653Y-95277437D01*
X123731419Y-95270853D01*
X123728043Y-95266527D01*
X123726181Y-95263800D01*
X123722456Y-95258060D01*
X123717844Y-95250789D01*
X123714875Y-95246119D01*
X123694727Y-95216909D01*
X123672840Y-95188973D01*
X123650563Y-95164047D01*
X123650551Y-95164035D01*
X123644591Y-95157379D01*
X123637282Y-95148495D01*
X123629170Y-95138135D01*
X123620803Y-95127049D01*
X123612729Y-95115987D01*
X123605496Y-95105700D01*
X123599652Y-95096938D01*
X123595743Y-95090452D01*
X123594319Y-95086991D01*
X123594164Y-95086428D01*
X123592056Y-95082773D01*
X123588265Y-95077447D01*
X123586924Y-95075643D01*
X123583559Y-95070598D01*
X123582212Y-95067689D01*
X123582212Y-95067668D01*
X123580671Y-95064755D01*
X123577032Y-95060354D01*
X123572839Y-95055402D01*
X123569163Y-95050119D01*
X123568827Y-95049526D01*
X123566001Y-95044512D01*
X123561760Y-95036951D01*
X123556884Y-95028236D01*
X123555479Y-95025758D01*
X123550959Y-95018273D01*
X123547368Y-95013042D01*
X123545382Y-95011075D01*
X123544925Y-95011003D01*
X123543470Y-95008630D01*
X123543194Y-95007746D01*
X123540766Y-95003425D01*
X123536376Y-94996718D01*
X123530680Y-94988654D01*
X123528420Y-94985519D01*
X123522531Y-94977008D01*
X123517847Y-94969757D01*
X123515223Y-94965069D01*
X123514921Y-94964414D01*
X123510748Y-94957210D01*
X123503427Y-94946508D01*
X123492931Y-94932270D01*
X123479235Y-94914459D01*
X123476649Y-94911116D01*
X123468811Y-94900704D01*
X123461365Y-94890460D01*
X123455633Y-94882189D01*
X123450912Y-94875335D01*
X123446980Y-94870108D01*
X123444806Y-94867813D01*
X123441933Y-94865059D01*
X123437666Y-94859312D01*
X123432892Y-94851863D01*
X123428493Y-94844001D01*
X123427671Y-94842426D01*
X123424638Y-94837081D01*
X123422670Y-94834316D01*
X123422336Y-94833961D01*
X123420034Y-94830367D01*
X123416969Y-94824630D01*
X123416502Y-94823700D01*
X123412837Y-94816767D01*
X123409705Y-94811359D01*
X123409537Y-94811096D01*
X123406574Y-94806751D01*
X123401879Y-94800113D01*
X123396207Y-94792222D01*
X123390315Y-94784119D01*
X123384960Y-94776844D01*
X123380896Y-94771438D01*
X123378879Y-94768939D01*
X123376940Y-94766537D01*
X123372851Y-94760522D01*
X123367558Y-94752165D01*
X123361722Y-94742515D01*
X123356002Y-94732619D01*
X123352596Y-94726567D01*
X123349686Y-94721421D01*
X123347135Y-94716982D01*
X123344373Y-94712279D01*
X123340827Y-94706339D01*
X123335928Y-94698191D01*
X123329103Y-94686865D01*
X123324474Y-94679247D01*
X123319231Y-94670783D01*
X123315234Y-94664521D01*
X123313098Y-94661441D01*
X123312223Y-94660272D01*
X123308969Y-94655528D01*
X123304152Y-94648291D01*
X123298446Y-94639591D01*
X123292523Y-94630457D01*
X123287058Y-94621919D01*
X123282724Y-94615006D01*
X123281128Y-94612238D01*
X123277591Y-94605665D01*
X123273604Y-94597912D01*
X123270987Y-94592986D01*
X123261005Y-94577207D01*
X123249675Y-94562765D01*
X123248180Y-94560797D01*
X123244290Y-94554980D01*
X123239128Y-94546793D01*
X123233402Y-94537341D01*
X123230377Y-94532253D01*
X123223897Y-94521376D01*
X123217903Y-94511337D01*
X123213386Y-94503801D01*
X123210706Y-94499293D01*
X123205028Y-94489496D01*
X123200145Y-94480798D01*
X123195226Y-94471830D01*
X123189841Y-94462149D01*
X123185584Y-94454738D01*
X123181781Y-94448429D01*
X123177756Y-94442056D01*
X123171665Y-94432230D01*
X123169187Y-94427884D01*
X123286807Y-94427884D01*
X123287149Y-94429999D01*
X123289722Y-94436819D01*
X123294468Y-94446489D01*
X123300972Y-94458274D01*
X123308819Y-94471438D01*
X123317594Y-94485244D01*
X123326882Y-94498958D01*
X123332179Y-94506824D01*
X123339228Y-94517975D01*
X123345134Y-94528015D01*
X123349293Y-94535208D01*
X123355494Y-94545245D01*
X123361041Y-94553550D01*
X123364033Y-94557906D01*
X123368586Y-94565125D01*
X123371486Y-94570499D01*
X123373887Y-94575454D01*
X123379681Y-94585978D01*
X123387862Y-94599776D01*
X123398189Y-94616436D01*
X123400248Y-94619702D01*
X123407812Y-94631732D01*
X123413318Y-94640576D01*
X123417205Y-94646968D01*
X123419914Y-94651642D01*
X123421883Y-94655330D01*
X123423552Y-94658768D01*
X123423587Y-94658842D01*
X123426450Y-94663859D01*
X123431327Y-94671476D01*
X123437356Y-94680439D01*
X123443680Y-94689493D01*
X123449437Y-94697383D01*
X123453768Y-94702855D01*
X123454911Y-94704350D01*
X123456302Y-94707400D01*
X123456699Y-94708280D01*
X123459333Y-94712566D01*
X123464025Y-94719693D01*
X123470296Y-94728940D01*
X123477668Y-94739585D01*
X123480642Y-94743858D01*
X123488704Y-94755606D01*
X123496116Y-94766630D01*
X123502160Y-94775856D01*
X123506119Y-94782207D01*
X123509127Y-94787315D01*
X123513086Y-94793997D01*
X123515625Y-94798235D01*
X123515947Y-94798768D01*
X123518970Y-94803934D01*
X123522648Y-94810391D01*
X123523324Y-94811552D01*
X123527514Y-94818113D01*
X123533319Y-94826616D01*
X123539696Y-94835526D01*
X123540862Y-94837118D01*
X123547802Y-94846717D01*
X123554440Y-94856076D01*
X123559482Y-94863372D01*
X123562802Y-94868286D01*
X123568728Y-94877032D01*
X123575760Y-94887390D01*
X123582992Y-94898027D01*
X123589224Y-94907266D01*
X123594388Y-94915084D01*
X123597879Y-94920553D01*
X123599161Y-94922853D01*
X123599174Y-94922912D01*
X123600683Y-94925545D01*
X123604355Y-94931304D01*
X123609670Y-94939388D01*
X123616111Y-94948997D01*
X123616613Y-94949741D01*
X123623019Y-94959458D01*
X123628246Y-94967789D01*
X123631769Y-94973870D01*
X123633060Y-94976835D01*
X123633156Y-94977701D01*
X123634960Y-94979597D01*
X123635342Y-94979708D01*
X123638036Y-94982368D01*
X123641494Y-94987466D01*
X123641593Y-94987633D01*
X123646476Y-94994891D01*
X123651702Y-95001364D01*
X123652119Y-95001822D01*
X123655773Y-95006426D01*
X123657274Y-95009451D01*
X123657930Y-95010889D01*
X123661016Y-95015592D01*
X123666056Y-95022557D01*
X123672407Y-95030879D01*
X123678749Y-95039012D01*
X123690547Y-95054207D01*
X123702231Y-95069325D01*
X123712360Y-95082505D01*
X123712513Y-95082708D01*
X123715193Y-95086574D01*
X123718843Y-95092127D01*
X123719179Y-95092648D01*
X123722889Y-95098171D01*
X123725574Y-95101812D01*
X123725963Y-95102282D01*
X123729457Y-95106789D01*
X123734555Y-95113613D01*
X123740354Y-95121517D01*
X123745952Y-95129261D01*
X123750446Y-95135610D01*
X123752933Y-95139325D01*
X123754792Y-95142116D01*
X123758986Y-95147357D01*
X123759542Y-95147987D01*
X123763237Y-95152521D01*
X123768612Y-95159412D01*
X123774710Y-95167436D01*
X123780247Y-95174754D01*
X123791032Y-95188749D01*
X123802902Y-95203898D01*
X123815189Y-95219367D01*
X123827223Y-95234320D01*
X123838334Y-95247923D01*
X123847854Y-95259341D01*
X123855112Y-95267738D01*
X123856485Y-95269343D01*
X123860747Y-95274615D01*
X123865763Y-95281056D01*
X123869585Y-95286003D01*
X123879970Y-95298973D01*
X123889814Y-95310645D01*
X123898002Y-95319683D01*
X123899125Y-95320883D01*
X123904118Y-95326485D01*
X123911154Y-95334609D01*
X123919462Y-95344358D01*
X123928269Y-95354835D01*
X123929296Y-95356065D01*
X123937360Y-95365599D01*
X123945454Y-95374921D01*
X123954136Y-95384644D01*
X123963967Y-95395380D01*
X123975506Y-95407740D01*
X123989314Y-95422336D01*
X124005949Y-95439781D01*
X124008622Y-95442673D01*
X124014623Y-95449498D01*
X124020778Y-95456806D01*
X124024679Y-95461281D01*
X124032230Y-95469410D01*
X124042107Y-95479705D01*
X124053653Y-95491508D01*
X124066211Y-95504163D01*
X124079124Y-95517013D01*
X124091736Y-95529401D01*
X124103391Y-95540671D01*
X124113430Y-95550165D01*
X124121199Y-95557227D01*
X124123436Y-95559171D01*
X124132937Y-95567103D01*
X124142363Y-95574549D01*
X124149965Y-95580120D01*
X124157223Y-95585137D01*
X124163878Y-95589995D01*
X124170457Y-95595209D01*
X124178816Y-95602200D01*
X124183384Y-95605652D01*
X124191565Y-95611024D01*
X124200317Y-95616122D01*
X124207401Y-95619728D01*
X124213909Y-95622583D01*
X124217686Y-95623677D01*
X124219121Y-95623378D01*
X124224077Y-95620235D01*
X124229884Y-95614658D01*
X124235356Y-95607881D01*
X124239309Y-95601141D01*
X124241295Y-95595607D01*
X124244183Y-95583632D01*
X124246789Y-95568073D01*
X124248994Y-95549690D01*
X124250676Y-95529244D01*
X124250755Y-95528037D01*
X124251688Y-95514361D01*
X124252857Y-95498012D01*
X124254119Y-95480935D01*
X124255334Y-95465078D01*
X124255366Y-95464660D01*
X124256378Y-95448277D01*
X124256992Y-95431054D01*
X124257226Y-95413800D01*
X124257094Y-95397328D01*
X124256612Y-95382446D01*
X124255795Y-95369967D01*
X124254660Y-95360701D01*
X124253222Y-95355459D01*
X124252301Y-95352090D01*
X124251181Y-95344255D01*
X124250071Y-95332874D01*
X124249040Y-95318643D01*
X124248153Y-95302261D01*
X124247039Y-95280194D01*
X124245923Y-95262651D01*
X124244772Y-95249318D01*
X124243554Y-95239879D01*
X124242235Y-95234018D01*
X124240783Y-95231418D01*
X124240103Y-95229727D01*
X124238945Y-95224027D01*
X124237657Y-95215360D01*
X124236414Y-95204783D01*
X124234310Y-95186147D01*
X124231845Y-95168443D01*
X124229294Y-95154650D01*
X124226576Y-95144265D01*
X124226049Y-95142406D01*
X124224496Y-95133721D01*
X124223871Y-95124661D01*
X124223787Y-95122059D01*
X124222586Y-95113396D01*
X124220412Y-95106485D01*
X124219514Y-95104267D01*
X124217366Y-95096389D01*
X124215277Y-95085808D01*
X124213486Y-95074006D01*
X124212230Y-95062465D01*
X124211749Y-95052668D01*
X124211747Y-95052435D01*
X124210645Y-95044206D01*
X124208117Y-95036827D01*
X124205653Y-95030335D01*
X124204500Y-95023329D01*
X124204488Y-95022892D01*
X124203548Y-95017008D01*
X124201394Y-95008470D01*
X124198446Y-94998968D01*
X124198195Y-94998222D01*
X124195264Y-94988304D01*
X124193189Y-94979099D01*
X124192406Y-94972514D01*
X124191876Y-94968003D01*
X124190117Y-94959586D01*
X124187479Y-94949022D01*
X124184327Y-94937623D01*
X124181026Y-94926704D01*
X124177941Y-94917575D01*
X124175438Y-94911551D01*
X124175426Y-94911527D01*
X124173844Y-94907263D01*
X124171644Y-94899883D01*
X124169296Y-94890970D01*
X124169238Y-94890735D01*
X124166839Y-94881999D01*
X124164502Y-94874995D01*
X124162725Y-94871219D01*
X124161413Y-94868181D01*
X124159771Y-94861501D01*
X124158411Y-94853059D01*
X124157117Y-94844943D01*
X124154243Y-94831591D01*
X124150562Y-94817476D01*
X124146569Y-94804449D01*
X124142758Y-94794363D01*
X124140176Y-94787623D01*
X124137958Y-94779999D01*
X124137577Y-94778484D01*
X124135066Y-94771058D01*
X124131702Y-94763200D01*
X124130629Y-94760845D01*
X124128049Y-94753737D01*
X124127017Y-94748442D01*
X124126165Y-94744022D01*
X124123276Y-94738041D01*
X124123003Y-94737619D01*
X124120680Y-94732167D01*
X124118171Y-94723783D01*
X124115976Y-94714099D01*
X124115615Y-94712257D01*
X124113640Y-94703305D01*
X124111754Y-94696387D01*
X124110323Y-94692871D01*
X124108943Y-94690121D01*
X124106641Y-94683812D01*
X124104171Y-94675717D01*
X124102208Y-94669116D01*
X124099207Y-94660151D01*
X124096615Y-94653559D01*
X124096401Y-94653085D01*
X124094087Y-94646990D01*
X124093155Y-94642663D01*
X124092703Y-94640422D01*
X124090594Y-94634594D01*
X124087337Y-94627290D01*
X124085413Y-94623197D01*
X124081016Y-94613203D01*
X124077433Y-94604287D01*
X124075949Y-94600464D01*
X124071816Y-94590648D01*
X124067512Y-94581246D01*
X124065131Y-94576184D01*
X124062616Y-94570409D01*
X124061640Y-94567520D01*
X124061144Y-94565989D01*
X124058964Y-94560778D01*
X124055444Y-94552897D01*
X124051023Y-94543345D01*
X124048045Y-94536923D01*
X124043706Y-94527254D01*
X124040367Y-94519424D01*
X124038578Y-94514697D01*
X124038362Y-94514018D01*
X124035740Y-94507435D01*
X124032245Y-94500205D01*
X124031448Y-94498671D01*
X124028807Y-94492820D01*
X124027741Y-94489114D01*
X124027256Y-94487118D01*
X124025062Y-94481632D01*
X124021698Y-94474550D01*
X124019284Y-94469652D01*
X124016666Y-94463877D01*
X124015644Y-94460930D01*
X124015517Y-94460256D01*
X124014465Y-94458029D01*
X124011988Y-94453916D01*
X124007649Y-94447213D01*
X124001016Y-94437214D01*
X123998547Y-94432911D01*
X123995026Y-94425925D01*
X123991204Y-94417808D01*
X123987704Y-94409923D01*
X123985147Y-94403633D01*
X123984157Y-94400299D01*
X123984018Y-94399570D01*
X123981921Y-94395370D01*
X123978103Y-94389782D01*
X123976805Y-94388024D01*
X123973411Y-94382738D01*
X123972050Y-94379436D01*
X123971614Y-94377759D01*
X123968948Y-94373826D01*
X123967645Y-94372294D01*
X123964582Y-94367919D01*
X123960249Y-94360986D01*
X123954446Y-94351153D01*
X123946971Y-94338076D01*
X123937622Y-94321411D01*
X123926200Y-94300814D01*
X123924570Y-94297883D01*
X123921961Y-94293349D01*
X123918969Y-94288434D01*
X123914839Y-94281913D01*
X123908819Y-94272562D01*
X123907976Y-94271243D01*
X123902334Y-94261985D01*
X123895917Y-94250923D01*
X123889956Y-94240171D01*
X123888203Y-94236911D01*
X123882506Y-94226335D01*
X123878405Y-94218774D01*
X123875342Y-94213230D01*
X123872761Y-94208703D01*
X123870104Y-94204196D01*
X123866813Y-94198710D01*
X123863655Y-94193665D01*
X123858800Y-94186554D01*
X123855025Y-94181761D01*
X123851722Y-94177660D01*
X123848334Y-94172076D01*
X123846639Y-94168640D01*
X123843119Y-94162476D01*
X123842944Y-94162201D01*
X123840026Y-94157501D01*
X123835585Y-94150249D01*
X123830511Y-94141895D01*
X123827222Y-94136596D01*
X123820893Y-94126933D01*
X123814498Y-94117706D01*
X123808903Y-94110148D01*
X123804970Y-94105488D01*
X123802744Y-94102826D01*
X123798423Y-94097186D01*
X123793021Y-94089900D01*
X123787432Y-94082190D01*
X123782550Y-94075277D01*
X123779267Y-94070380D01*
X123775255Y-94064395D01*
X123768559Y-94055766D01*
X123759402Y-94045257D01*
X123758331Y-94044016D01*
X123753177Y-94037282D01*
X123746719Y-94028073D01*
X123739851Y-94017725D01*
X123733466Y-94007576D01*
X123728459Y-93998962D01*
X123725440Y-93993902D01*
X123720069Y-93985765D01*
X123714176Y-93977496D01*
X123709302Y-93970876D01*
X123704037Y-93963561D01*
X123700447Y-93958383D01*
X123699617Y-93957201D01*
X123695302Y-93951699D01*
X123689106Y-93944300D01*
X123682073Y-93936264D01*
X123681827Y-93935989D01*
X123674573Y-93927642D01*
X123665515Y-93916895D01*
X123655782Y-93905101D01*
X123646508Y-93893620D01*
X123637441Y-93882560D01*
X123625817Y-93868967D01*
X123614082Y-93855750D01*
X123603756Y-93844650D01*
X123594991Y-93835283D01*
X123583284Y-93822219D01*
X123571522Y-93808606D01*
X123561266Y-93796223D01*
X123559863Y-93794482D01*
X123551476Y-93784257D01*
X123543604Y-93774935D01*
X123537072Y-93767483D01*
X123532710Y-93762867D01*
X123529342Y-93759463D01*
X123523095Y-93752366D01*
X123517524Y-93745180D01*
X123513525Y-93739095D01*
X123511993Y-93735303D01*
X123511647Y-93734003D01*
X123508713Y-93730904D01*
X123507290Y-93729707D01*
X123503382Y-93725058D01*
X123498985Y-93718657D01*
X123496091Y-93714374D01*
X123490255Y-93706981D01*
X123484160Y-93700394D01*
X123478815Y-93695668D01*
X123475232Y-93693858D01*
X123473356Y-93694672D01*
X123469082Y-93698144D01*
X123464273Y-93703007D01*
X123460347Y-93707788D01*
X123458723Y-93711011D01*
X123458737Y-93711250D01*
X123459980Y-93715247D01*
X123462616Y-93720997D01*
X123462645Y-93721055D01*
X123464730Y-93727325D01*
X123466471Y-93736455D01*
X123467494Y-93746490D01*
X123467502Y-93746645D01*
X123468532Y-93756661D01*
X123470262Y-93765724D01*
X123472323Y-93771888D01*
X123473080Y-93773603D01*
X123475342Y-93780773D01*
X123477684Y-93790538D01*
X123479705Y-93801298D01*
X123480525Y-93806164D01*
X123482312Y-93815446D01*
X123483949Y-93822386D01*
X123485165Y-93825758D01*
X123485516Y-93826463D01*
X123486881Y-93831231D01*
X123488678Y-93839299D01*
X123490699Y-93849573D01*
X123492734Y-93860963D01*
X123494577Y-93872377D01*
X123496019Y-93882724D01*
X123496795Y-93887429D01*
X123498702Y-93896330D01*
X123501084Y-93905727D01*
X123502554Y-93911189D01*
X123505218Y-93922228D01*
X123507482Y-93933709D01*
X123509619Y-93947092D01*
X123511901Y-93963839D01*
X123512372Y-93967353D01*
X123514054Y-93978475D01*
X123515812Y-93988398D01*
X123517335Y-93995317D01*
X123518632Y-94000919D01*
X123520434Y-94010656D01*
X123521921Y-94020741D01*
X123523108Y-94030026D01*
X123525516Y-94047310D01*
X123527645Y-94060180D01*
X123529545Y-94068924D01*
X123531267Y-94073831D01*
X123531626Y-94074848D01*
X123532490Y-94080535D01*
X123533174Y-94089836D01*
X123533623Y-94101861D01*
X123533785Y-94115717D01*
X123533850Y-94125028D01*
X123534416Y-94142592D01*
X123535530Y-94156479D01*
X123537154Y-94166119D01*
X123539253Y-94176587D01*
X123541104Y-94192913D01*
X123541258Y-94194271D01*
X123542226Y-94214501D01*
X123542167Y-94236012D01*
X123541093Y-94257536D01*
X123539017Y-94277809D01*
X123535949Y-94295565D01*
X123535818Y-94296153D01*
X123533509Y-94305437D01*
X123530504Y-94316199D01*
X123527130Y-94327414D01*
X123523715Y-94338057D01*
X123520588Y-94347102D01*
X123518077Y-94353525D01*
X123516510Y-94356300D01*
X123515742Y-94357006D01*
X123514414Y-94360911D01*
X123513583Y-94364435D01*
X123510104Y-94371573D01*
X123504586Y-94380401D01*
X123497765Y-94389851D01*
X123490376Y-94398855D01*
X123483153Y-94406344D01*
X123481976Y-94407407D01*
X123471667Y-94415432D01*
X123458677Y-94423924D01*
X123444625Y-94431810D01*
X123443517Y-94432378D01*
X123427831Y-94439724D01*
X123414426Y-94444257D01*
X123401910Y-94446203D01*
X123388890Y-94445787D01*
X123373976Y-94443233D01*
X123373250Y-94443076D01*
X123363353Y-94440983D01*
X123354508Y-94439198D01*
X123348551Y-94438092D01*
X123347028Y-94437749D01*
X123340389Y-94435499D01*
X123331471Y-94431830D01*
X123321763Y-94427340D01*
X123313924Y-94423642D01*
X123305652Y-94420368D01*
X123299565Y-94419041D01*
X123294523Y-94419326D01*
X123290879Y-94420260D01*
X123287580Y-94422790D01*
X123286807Y-94427884D01*
X123169187Y-94427884D01*
X123164844Y-94420267D01*
X123157163Y-94405736D01*
X123157008Y-94405438D01*
X123152310Y-94397367D01*
X123147162Y-94389769D01*
X123146129Y-94388373D01*
X123142848Y-94383540D01*
X123141526Y-94380895D01*
X123141091Y-94379895D01*
X123138517Y-94375544D01*
X123134147Y-94368688D01*
X123128574Y-94360275D01*
X123126796Y-94357592D01*
X123119668Y-94346190D01*
X123112828Y-94334388D01*
X123107545Y-94324353D01*
X123106842Y-94322920D01*
X123100826Y-94311534D01*
X123093418Y-94298602D01*
X123085506Y-94285592D01*
X123077981Y-94273974D01*
X123071733Y-94265217D01*
X123071422Y-94264808D01*
X123067756Y-94259272D01*
X123062947Y-94251210D01*
X123057951Y-94242215D01*
X123057561Y-94241488D01*
X123052333Y-94232168D01*
X123047183Y-94223629D01*
X123043172Y-94217637D01*
X123042099Y-94216158D01*
X123038755Y-94210803D01*
X123037407Y-94207347D01*
X123037324Y-94206635D01*
X123035268Y-94204764D01*
X123033876Y-94204095D01*
X123031598Y-94200526D01*
X123031450Y-94200126D01*
X123026148Y-94189773D01*
X123018660Y-94179854D01*
X123015901Y-94176143D01*
X123011067Y-94168416D01*
X123005011Y-94157949D01*
X122998204Y-94145630D01*
X122991120Y-94132347D01*
X122984230Y-94118987D01*
X122978007Y-94106439D01*
X122972923Y-94095590D01*
X122969449Y-94087328D01*
X122967590Y-94082506D01*
X122964722Y-94075935D01*
X122961645Y-94070329D01*
X122959960Y-94067503D01*
X122956087Y-94060975D01*
X122951613Y-94053407D01*
X122948750Y-94048908D01*
X122942471Y-94040446D01*
X122936480Y-94033799D01*
X122934151Y-94031519D01*
X122930064Y-94026970D01*
X122928446Y-94024278D01*
X122927892Y-94022516D01*
X122925269Y-94018510D01*
X122924151Y-94016931D01*
X122920914Y-94011099D01*
X122917550Y-94003791D01*
X122916096Y-94000466D01*
X122912653Y-93993560D01*
X122909832Y-93989073D01*
X122908112Y-93986447D01*
X122906654Y-93981780D01*
X122906530Y-93981162D01*
X122904627Y-93976796D01*
X122900781Y-93969432D01*
X122895453Y-93959925D01*
X122889099Y-93949127D01*
X122883078Y-93939064D01*
X122876175Y-93927265D01*
X122870906Y-93917764D01*
X122866709Y-93909497D01*
X122863027Y-93901400D01*
X122859300Y-93892409D01*
X122856333Y-93885974D01*
X122851244Y-93876501D01*
X122845678Y-93867314D01*
X122845411Y-93866903D01*
X122840879Y-93859771D01*
X122837660Y-93854409D01*
X122836435Y-93851949D01*
X122836343Y-93851607D01*
X122834484Y-93848338D01*
X122830987Y-93843193D01*
X122828798Y-93839940D01*
X122823957Y-93831933D01*
X122819324Y-93823448D01*
X122816543Y-93818092D01*
X122811014Y-93807716D01*
X122805683Y-93797976D01*
X122802347Y-93791962D01*
X122796280Y-93780921D01*
X122790735Y-93770727D01*
X122787083Y-93764092D01*
X122781862Y-93754939D01*
X122777547Y-93747724D01*
X122774489Y-93742481D01*
X122769670Y-93733445D01*
X122765079Y-93724125D01*
X122761833Y-93717555D01*
X122755792Y-93706368D01*
X122749949Y-93696538D01*
X122745995Y-93690178D01*
X122741836Y-93683104D01*
X122739340Y-93678378D01*
X122738117Y-93675949D01*
X122734473Y-93669611D01*
X122729945Y-93662381D01*
X122729922Y-93662346D01*
X122725139Y-93654534D01*
X122719445Y-93644546D01*
X122714068Y-93634535D01*
X122708750Y-93624454D01*
X122703035Y-93613953D01*
X122698251Y-93605479D01*
X122695375Y-93600414D01*
X122691320Y-93592821D01*
X122688687Y-93587319D01*
X122687936Y-93585545D01*
X122681197Y-93571731D01*
X122672174Y-93555833D01*
X122661640Y-93539228D01*
X122659169Y-93535406D01*
X122652211Y-93523724D01*
X122645044Y-93510648D01*
X122638881Y-93498355D01*
X122636093Y-93492556D01*
X122630289Y-93481096D01*
X122624652Y-93470645D01*
X122620089Y-93462909D01*
X122614605Y-93454331D01*
X122608068Y-93443939D01*
X122603164Y-93435806D01*
X122599274Y-93428856D01*
X122595778Y-93422010D01*
X122592055Y-93414192D01*
X122591977Y-93414025D01*
X122588647Y-93406891D01*
X122586051Y-93401460D01*
X122583647Y-93396757D01*
X122580894Y-93391810D01*
X122577251Y-93385645D01*
X122572176Y-93377287D01*
X122565128Y-93365765D01*
X122564650Y-93364984D01*
X122557754Y-93353687D01*
X122552877Y-93345604D01*
X122549528Y-93339878D01*
X122547218Y-93335647D01*
X122545459Y-93332052D01*
X122543760Y-93328234D01*
X122543631Y-93327940D01*
X122539032Y-93318811D01*
X122531646Y-93305929D01*
X122521552Y-93289433D01*
X122518318Y-93284260D01*
X122513145Y-93275910D01*
X122509438Y-93269706D01*
X122506447Y-93264325D01*
X122503425Y-93258447D01*
X122499623Y-93250750D01*
X122495190Y-93242145D01*
X122490460Y-93233695D01*
X122486717Y-93227748D01*
X122486509Y-93227451D01*
X122482753Y-93221399D01*
X122477990Y-93212843D01*
X122473198Y-93203534D01*
X122472290Y-93201697D01*
X122468275Y-93193810D01*
X122465132Y-93187985D01*
X122463474Y-93185374D01*
X122461905Y-93183354D01*
X122458624Y-93178345D01*
X122454616Y-93171838D01*
X122450719Y-93165226D01*
X122447767Y-93159903D01*
X122446597Y-93157260D01*
X122446593Y-93157192D01*
X122445217Y-93154264D01*
X122442124Y-93149427D01*
X122440463Y-93146957D01*
X122437933Y-93142899D01*
X122434637Y-93137273D01*
X122430189Y-93129406D01*
X122424206Y-93118625D01*
X122416302Y-93104259D01*
X122414942Y-93101790D01*
X122408786Y-93090769D01*
X122401681Y-93078242D01*
X122394044Y-93064923D01*
X122386292Y-93051527D01*
X122378842Y-93038770D01*
X122378193Y-93037671D01*
X122608349Y-93037671D01*
X122608674Y-93038818D01*
X122610799Y-93043938D01*
X122614122Y-93050838D01*
X122617846Y-93057968D01*
X122621174Y-93063781D01*
X122623310Y-93066728D01*
X122624524Y-93068263D01*
X122627925Y-93073228D01*
X122632834Y-93080699D01*
X122638660Y-93089767D01*
X122644813Y-93099517D01*
X122650703Y-93109039D01*
X122653286Y-93113177D01*
X122657642Y-93120053D01*
X122662703Y-93127975D01*
X122662852Y-93128208D01*
X122667357Y-93135498D01*
X122670562Y-93141167D01*
X122671783Y-93144007D01*
X122671825Y-93144244D01*
X122673465Y-93147644D01*
X122677012Y-93153739D01*
X122681811Y-93161390D01*
X122683248Y-93163649D01*
X122689557Y-93174073D01*
X122696447Y-93186074D01*
X122702664Y-93197481D01*
X122704603Y-93201151D01*
X122710453Y-93212085D01*
X122716048Y-93222365D01*
X122720399Y-93230169D01*
X122723267Y-93235241D01*
X122727197Y-93242336D01*
X122729743Y-93247118D01*
X122731308Y-93250030D01*
X122735019Y-93256533D01*
X122739480Y-93264068D01*
X122742609Y-93269336D01*
X122746316Y-93275813D01*
X122748424Y-93279807D01*
X122749012Y-93281000D01*
X122751758Y-93286158D01*
X122755967Y-93293820D01*
X122760996Y-93302810D01*
X122762111Y-93304790D01*
X122768502Y-93316261D01*
X122774984Y-93328060D01*
X122780311Y-93337919D01*
X122782109Y-93341293D01*
X122787751Y-93351881D01*
X122794175Y-93363936D01*
X122800312Y-93375450D01*
X122802426Y-93379431D01*
X122809013Y-93391977D01*
X122815608Y-93404709D01*
X122821057Y-93415403D01*
X122822559Y-93418372D01*
X122826699Y-93426354D01*
X122829874Y-93432186D01*
X122831495Y-93434773D01*
X122831807Y-93435138D01*
X122834033Y-93438734D01*
X122837096Y-93444459D01*
X122838434Y-93447088D01*
X122843556Y-93456964D01*
X122849124Y-93467483D01*
X122854603Y-93477657D01*
X122859458Y-93486498D01*
X122863153Y-93493018D01*
X122865152Y-93496228D01*
X122865812Y-93497194D01*
X122868646Y-93501967D01*
X122872804Y-93509386D01*
X122877641Y-93518310D01*
X122878915Y-93520683D01*
X122884833Y-93531458D01*
X122890731Y-93541861D01*
X122895501Y-93549929D01*
X122898788Y-93555290D01*
X122903042Y-93562251D01*
X122905854Y-93566879D01*
X122906879Y-93568646D01*
X122910425Y-93575212D01*
X122915000Y-93584082D01*
X122920140Y-93594311D01*
X122925383Y-93604953D01*
X122930267Y-93615065D01*
X122934328Y-93623701D01*
X122937104Y-93629918D01*
X122938132Y-93632771D01*
X122938178Y-93633368D01*
X122939948Y-93636149D01*
X122940958Y-93636946D01*
X122944336Y-93641007D01*
X122948646Y-93647101D01*
X122952922Y-93653756D01*
X122956196Y-93659501D01*
X122957503Y-93662866D01*
X122958050Y-93665047D01*
X122960736Y-93669454D01*
X122961036Y-93669827D01*
X122964156Y-93675010D01*
X122967188Y-93681751D01*
X122967510Y-93682582D01*
X122970454Y-93689188D01*
X122973139Y-93693858D01*
X122973603Y-93694537D01*
X122976296Y-93699816D01*
X122979002Y-93706712D01*
X122981412Y-93712382D01*
X122985961Y-93721025D01*
X122991268Y-93729715D01*
X122995864Y-93737001D01*
X122999919Y-93744151D01*
X123002119Y-93748944D01*
X123003647Y-93752381D01*
X123005811Y-93754392D01*
X123007117Y-93755063D01*
X123009318Y-93758629D01*
X123011021Y-93762592D01*
X123013885Y-93767689D01*
X123018444Y-93774720D01*
X123025297Y-93784659D01*
X123029047Y-93790143D01*
X123033831Y-93797497D01*
X123037008Y-93802819D01*
X123039088Y-93806696D01*
X123045907Y-93819312D01*
X123052975Y-93832272D01*
X123059451Y-93844036D01*
X123064493Y-93853065D01*
X123066495Y-93856644D01*
X123071861Y-93866485D01*
X123076597Y-93875460D01*
X123078631Y-93879344D01*
X123081687Y-93884875D01*
X123083411Y-93887568D01*
X123083512Y-93887679D01*
X123085537Y-93890770D01*
X123088514Y-93896043D01*
X123091073Y-93900814D01*
X123096198Y-93910298D01*
X123099603Y-93916446D01*
X123101670Y-93919940D01*
X123102784Y-93921464D01*
X123103110Y-93921865D01*
X123105400Y-93925471D01*
X123108638Y-93931151D01*
X123111413Y-93936009D01*
X123116428Y-93944365D01*
X123121779Y-93952943D01*
X123125791Y-93959429D01*
X123132291Y-93970488D01*
X123138012Y-93980789D01*
X123139744Y-93984027D01*
X123146516Y-93996442D01*
X123153116Y-94008194D01*
X123159021Y-94018379D01*
X123163710Y-94026091D01*
X123166659Y-94030426D01*
X123167297Y-94031270D01*
X123170603Y-94036480D01*
X123174279Y-94043138D01*
X123175484Y-94045395D01*
X123178500Y-94050274D01*
X123180389Y-94052219D01*
X123181250Y-94052923D01*
X123183878Y-94056845D01*
X123187245Y-94063060D01*
X123189197Y-94066786D01*
X123192601Y-94072462D01*
X123194938Y-94075309D01*
X123196174Y-94076829D01*
X123197217Y-94081418D01*
X123197551Y-94084091D01*
X123199087Y-94086117D01*
X123199702Y-94086403D01*
X123202384Y-94089598D01*
X123205722Y-94095198D01*
X123206817Y-94097194D01*
X123210545Y-94102954D01*
X123213537Y-94106214D01*
X123214811Y-94107230D01*
X123216588Y-94110409D01*
X123216653Y-94110775D01*
X123218343Y-94114552D01*
X123221854Y-94121002D01*
X123226562Y-94128964D01*
X123227043Y-94129753D01*
X123232317Y-94138898D01*
X123236829Y-94147512D01*
X123239648Y-94153825D01*
X123241498Y-94158452D01*
X123245737Y-94167558D01*
X123250665Y-94176988D01*
X123255430Y-94185143D01*
X123259181Y-94190426D01*
X123261156Y-94192964D01*
X123262593Y-94196003D01*
X123263044Y-94197041D01*
X123265799Y-94201359D01*
X123270505Y-94208046D01*
X123276516Y-94216167D01*
X123281815Y-94223196D01*
X123288927Y-94232801D01*
X123294074Y-94240118D01*
X123297896Y-94246116D01*
X123301030Y-94251765D01*
X123304116Y-94258034D01*
X123305958Y-94261802D01*
X123308943Y-94267409D01*
X123310759Y-94270140D01*
X123311104Y-94270499D01*
X123313541Y-94274036D01*
X123316861Y-94279654D01*
X123317184Y-94280226D01*
X123321833Y-94287600D01*
X123326547Y-94293959D01*
X123329708Y-94297696D01*
X123341947Y-94311793D01*
X123352290Y-94323086D01*
X123360401Y-94331218D01*
X123365945Y-94335831D01*
X123372525Y-94338991D01*
X123378967Y-94340344D01*
X123381238Y-94340137D01*
X123388246Y-94337044D01*
X123393621Y-94331391D01*
X123395768Y-94324669D01*
X123396303Y-94320700D01*
X123398189Y-94317357D01*
X123399873Y-94314278D01*
X123400610Y-94308654D01*
X123401537Y-94302538D01*
X123404415Y-94295640D01*
X123404882Y-94294849D01*
X123406268Y-94291054D01*
X123407320Y-94285143D01*
X123408106Y-94276436D01*
X123408693Y-94264250D01*
X123409150Y-94247904D01*
X123409402Y-94237611D01*
X123409824Y-94223559D01*
X123410284Y-94211184D01*
X123410739Y-94201540D01*
X123411151Y-94195684D01*
X123411367Y-94192913D01*
X123411234Y-94187531D01*
X123410266Y-94185393D01*
X123409802Y-94184304D01*
X123409169Y-94179168D01*
X123408631Y-94170544D01*
X123408235Y-94159235D01*
X123408027Y-94146046D01*
X123407681Y-94128715D01*
X123406025Y-94099589D01*
X123402895Y-94069310D01*
X123398139Y-94036201D01*
X123397148Y-94028570D01*
X123396108Y-94016259D01*
X123395662Y-94004723D01*
X123395369Y-93996079D01*
X123394519Y-93986003D01*
X123393326Y-93978367D01*
X123389598Y-93961899D01*
X123385963Y-93944922D01*
X123383257Y-93930947D01*
X123381293Y-93919044D01*
X123381010Y-93917160D01*
X123379309Y-93906375D01*
X123377215Y-93893706D01*
X123375117Y-93881513D01*
X123374474Y-93877839D01*
X123372588Y-93866774D01*
X123370976Y-93856912D01*
X123369931Y-93850036D01*
X123369653Y-93848262D01*
X123368060Y-93841591D01*
X123366215Y-93837411D01*
X123364883Y-93834351D01*
X123363173Y-93827690D01*
X123361682Y-93819251D01*
X123360650Y-93812026D01*
X123357193Y-93788596D01*
X123354180Y-93769565D01*
X123351551Y-93754610D01*
X123349246Y-93743405D01*
X123347204Y-93735624D01*
X123345366Y-93730943D01*
X123345316Y-93730850D01*
X123343324Y-93724639D01*
X123342498Y-93717178D01*
X123341762Y-93709312D01*
X123339934Y-93701957D01*
X123337410Y-93693579D01*
X123334794Y-93681633D01*
X123332550Y-93668347D01*
X123330982Y-93655529D01*
X123330392Y-93644983D01*
X123330197Y-93639454D01*
X123329192Y-93630718D01*
X123327619Y-93624402D01*
X123326172Y-93620262D01*
X123324409Y-93613358D01*
X123322561Y-93603834D01*
X123320489Y-93590960D01*
X123318055Y-93574001D01*
X123314854Y-93558498D01*
X123306858Y-93538509D01*
X123294443Y-93519978D01*
X123287695Y-93511998D01*
X123266269Y-93489628D01*
X123243137Y-93469283D01*
X123238769Y-93465746D01*
X123230902Y-93459161D01*
X123224743Y-93453726D01*
X123221345Y-93450356D01*
X123219805Y-93448786D01*
X123214603Y-93444298D01*
X123207125Y-93438338D01*
X123198427Y-93431764D01*
X123194863Y-93429086D01*
X123183260Y-93419868D01*
X123171086Y-93409620D01*
X123160456Y-93400107D01*
X123147808Y-93388459D01*
X123396725Y-93388459D01*
X123397584Y-93390431D01*
X123397759Y-93390514D01*
X123399382Y-93393600D01*
X123400344Y-93400847D01*
X123400690Y-93412578D01*
X123401094Y-93428188D01*
X123403314Y-93450645D01*
X123407595Y-93469513D01*
X123414079Y-93485350D01*
X123422911Y-93498712D01*
X123423699Y-93499693D01*
X123427752Y-93504911D01*
X123433417Y-93512347D01*
X123439727Y-93520731D01*
X123447786Y-93530819D01*
X123459043Y-93543558D01*
X123471175Y-93556194D01*
X123482947Y-93567450D01*
X123493128Y-93576049D01*
X123494112Y-93576782D01*
X123502520Y-93581179D01*
X123512221Y-93582312D01*
X123517016Y-93582037D01*
X123525593Y-93580380D01*
X123531552Y-93577603D01*
X123533785Y-93574125D01*
X123533260Y-93572248D01*
X123530548Y-93566724D01*
X123526138Y-93559059D01*
X123520724Y-93550357D01*
X123515000Y-93541720D01*
X123509661Y-93534251D01*
X123505402Y-93529052D01*
X123502600Y-93525889D01*
X123492815Y-93511821D01*
X123482968Y-93493019D01*
X123481628Y-93490278D01*
X123476912Y-93481808D01*
X123472309Y-93474859D01*
X123471412Y-93473660D01*
X123466578Y-93466713D01*
X123461148Y-93458318D01*
X123455778Y-93449570D01*
X123451127Y-93441562D01*
X123447854Y-93435390D01*
X123446616Y-93432148D01*
X123446535Y-93431596D01*
X123444686Y-93427484D01*
X123441162Y-93421900D01*
X123439315Y-93419266D01*
X123434594Y-93412169D01*
X123430127Y-93404679D01*
X123424716Y-93394821D01*
X123423307Y-93392254D01*
X123417511Y-93383229D01*
X123412367Y-93378213D01*
X123407356Y-93376661D01*
X123404918Y-93377093D01*
X123404140Y-93378917D01*
X123403572Y-93381606D01*
X123400046Y-93385221D01*
X123396725Y-93388459D01*
X123147808Y-93388459D01*
X123146710Y-93387448D01*
X123134029Y-93376298D01*
X123121966Y-93366358D01*
X123109125Y-93356441D01*
X123104450Y-93352916D01*
X123099673Y-93349283D01*
X123094774Y-93345505D01*
X123089143Y-93341103D01*
X123082169Y-93335596D01*
X123073243Y-93328506D01*
X123061754Y-93319351D01*
X123047092Y-93307652D01*
X123021019Y-93286908D01*
X122994888Y-93266296D01*
X122971840Y-93248345D01*
X122951545Y-93232813D01*
X122933673Y-93219456D01*
X122917894Y-93208032D01*
X122903880Y-93198300D01*
X122891299Y-93190017D01*
X122879824Y-93182941D01*
X122869123Y-93176829D01*
X122860107Y-93171594D01*
X122845885Y-93162526D01*
X122831143Y-93152381D01*
X122817482Y-93142271D01*
X122806503Y-93133309D01*
X122803645Y-93131084D01*
X122797429Y-93126745D01*
X122789314Y-93121363D01*
X122780288Y-93115561D01*
X122771336Y-93109962D01*
X122763446Y-93105192D01*
X122757604Y-93101872D01*
X122754796Y-93100627D01*
X122754060Y-93100552D01*
X122751284Y-93098507D01*
X122750804Y-93097784D01*
X122746788Y-93094325D01*
X122739351Y-93089099D01*
X122729124Y-93082483D01*
X122716740Y-93074855D01*
X122702829Y-93066592D01*
X122688025Y-93058072D01*
X122672959Y-93049673D01*
X122658262Y-93041771D01*
X122644567Y-93034744D01*
X122636286Y-93030688D01*
X122629965Y-93027972D01*
X122625701Y-93026985D01*
X122622298Y-93027470D01*
X122618563Y-93029171D01*
X122618102Y-93029409D01*
X122612709Y-93032076D01*
X122609475Y-93033483D01*
X122608713Y-93034151D01*
X122608349Y-93037671D01*
X122378193Y-93037671D01*
X122372111Y-93027366D01*
X122366516Y-93018030D01*
X122362474Y-93011478D01*
X122360403Y-93008424D01*
X122358448Y-93005871D01*
X122357007Y-93002676D01*
X122356997Y-93002573D01*
X122355535Y-92999454D01*
X122352079Y-92993621D01*
X122347322Y-92986247D01*
X122346876Y-92985578D01*
X122342204Y-92978291D01*
X122338893Y-92972646D01*
X122337636Y-92969817D01*
X122337630Y-92969751D01*
X122336277Y-92966792D01*
X122332903Y-92960634D01*
X122327993Y-92952136D01*
X122322032Y-92942159D01*
X122321890Y-92941924D01*
X122315758Y-92931627D01*
X122310518Y-92922497D01*
X122306721Y-92915518D01*
X122304920Y-92911672D01*
X122303622Y-92908914D01*
X122301153Y-92906918D01*
X122300323Y-92906707D01*
X122298868Y-92903892D01*
X122298605Y-92902810D01*
X122295696Y-92898261D01*
X122290379Y-92892119D01*
X122283662Y-92885415D01*
X122276553Y-92879178D01*
X122270060Y-92874441D01*
X122265181Y-92871710D01*
X122256218Y-92867383D01*
X122246835Y-92863433D01*
X122239763Y-92860705D01*
X122232247Y-92857790D01*
X122227465Y-92855917D01*
X122226253Y-92855460D01*
X122220426Y-92853429D01*
X122211894Y-92850572D01*
X122202040Y-92847357D01*
X122198239Y-92846128D01*
X122188725Y-92843024D01*
X122181056Y-92840481D01*
X122176616Y-92838958D01*
X122176229Y-92838828D01*
X122171574Y-92837559D01*
X122163355Y-92835516D01*
X122152554Y-92832929D01*
X122140158Y-92830025D01*
X122127149Y-92827033D01*
X122114512Y-92824183D01*
X122103231Y-92821703D01*
X122094290Y-92819822D01*
X122089285Y-92818751D01*
X122080126Y-92816699D01*
X122068819Y-92814104D01*
X122056759Y-92811282D01*
X122040539Y-92807533D01*
X122026130Y-92804457D01*
X122015120Y-92802488D01*
X122006838Y-92801529D01*
X122000615Y-92801479D01*
X121995778Y-92802238D01*
X121993716Y-92802851D01*
X121988159Y-92806130D01*
X121986047Y-92811365D01*
X121987302Y-92819113D01*
X121991845Y-92829930D01*
X121994768Y-92835884D01*
X122000854Y-92848331D01*
X122005186Y-92857316D01*
X122008054Y-92863469D01*
X122009746Y-92867421D01*
X122010550Y-92869800D01*
X122010753Y-92871236D01*
X122011308Y-92873346D01*
X122013995Y-92877671D01*
X122015749Y-92880567D01*
X122018648Y-92887222D01*
X122021483Y-92895412D01*
X122023583Y-92901691D01*
X122026093Y-92907798D01*
X122027927Y-92910689D01*
X122029127Y-92912204D01*
X122030124Y-92916779D01*
X122030412Y-92919615D01*
X122032390Y-92925717D01*
X122037446Y-92935951D01*
X122040959Y-92944958D01*
X122042231Y-92951114D01*
X122042252Y-92951948D01*
X122042679Y-92954846D01*
X122043898Y-92958838D01*
X122046224Y-92964748D01*
X122049972Y-92973399D01*
X122055458Y-92985612D01*
X122055985Y-92986790D01*
X122060060Y-92996469D01*
X122064578Y-93007964D01*
X122068952Y-93019707D01*
X122072596Y-93030132D01*
X122074924Y-93037671D01*
X122075664Y-93040027D01*
X122078537Y-93047438D01*
X122082671Y-93057006D01*
X122087423Y-93067274D01*
X122092153Y-93076787D01*
X122094422Y-93082181D01*
X122095501Y-93087110D01*
X122095787Y-93089604D01*
X122097654Y-93095211D01*
X122097908Y-93095714D01*
X122100497Y-93101131D01*
X122103579Y-93107891D01*
X122105607Y-93112435D01*
X122109482Y-93121100D01*
X122113533Y-93130138D01*
X122116307Y-93136715D01*
X122118767Y-93143538D01*
X122119714Y-93147611D01*
X122119724Y-93147910D01*
X122120784Y-93152851D01*
X122123066Y-93159262D01*
X122123772Y-93161031D01*
X122126564Y-93169334D01*
X122128949Y-93178110D01*
X122129540Y-93180536D01*
X122131988Y-93189204D01*
X122134424Y-93196270D01*
X122135248Y-93198321D01*
X122139015Y-93208125D01*
X122142660Y-93218183D01*
X122145772Y-93227303D01*
X122147942Y-93234295D01*
X122148760Y-93237967D01*
X122149371Y-93240578D01*
X122151573Y-93246586D01*
X122154824Y-93254156D01*
X122157420Y-93260202D01*
X122159914Y-93267041D01*
X122160877Y-93271210D01*
X122161207Y-93273750D01*
X122163222Y-93279234D01*
X122164610Y-93282117D01*
X122167398Y-93289419D01*
X122170113Y-93297908D01*
X122172169Y-93305693D01*
X122172984Y-93310885D01*
X122173275Y-93313197D01*
X122175414Y-93317588D01*
X122175904Y-93318228D01*
X122178050Y-93323033D01*
X122180477Y-93330552D01*
X122182750Y-93339176D01*
X122184433Y-93347299D01*
X122185091Y-93353313D01*
X122185778Y-93357447D01*
X122188646Y-93363486D01*
X122190802Y-93367183D01*
X122192278Y-93372456D01*
X122192585Y-93375064D01*
X122194481Y-93380931D01*
X122195708Y-93383410D01*
X122200241Y-93393637D01*
X122203324Y-93402400D01*
X122204462Y-93408341D01*
X122205333Y-93413339D01*
X122207787Y-93419760D01*
X122209945Y-93425104D01*
X122212667Y-93433541D01*
X122215254Y-93443000D01*
X122215279Y-93443101D01*
X122217642Y-93452006D01*
X122219866Y-93459361D01*
X122221472Y-93463582D01*
X122221581Y-93463791D01*
X122223327Y-93468216D01*
X122225752Y-93476067D01*
X122228981Y-93487778D01*
X122233141Y-93503782D01*
X122233663Y-93505929D01*
X122235639Y-93515397D01*
X122237249Y-93524891D01*
X122237883Y-93528384D01*
X122239914Y-93535155D01*
X122242256Y-93539110D01*
X122244654Y-93543230D01*
X122245780Y-93549479D01*
X122246280Y-93555598D01*
X122247728Y-93564752D01*
X122249748Y-93574229D01*
X122251967Y-93582319D01*
X122254014Y-93587308D01*
X122255035Y-93589400D01*
X122256434Y-93594061D01*
X122257991Y-93601469D01*
X122259846Y-93612309D01*
X122262136Y-93627271D01*
X122262843Y-93631386D01*
X122264551Y-93638569D01*
X122266257Y-93643010D01*
X122266527Y-93643534D01*
X122267861Y-93648441D01*
X122269191Y-93656416D01*
X122270264Y-93666013D01*
X122271555Y-93677586D01*
X122273589Y-93691410D01*
X122275833Y-93703544D01*
X122278005Y-93714149D01*
X122280085Y-93725133D01*
X122281560Y-93733811D01*
X122282255Y-93737738D01*
X122284213Y-93745676D01*
X122286303Y-93751206D01*
X122288171Y-93756242D01*
X122289209Y-93763437D01*
X122289285Y-93764797D01*
X122290364Y-93771456D01*
X122292454Y-93780657D01*
X122295212Y-93790837D01*
X122296956Y-93797303D01*
X122300150Y-93813593D01*
X122301409Y-93828243D01*
X122301743Y-93837077D01*
X122302670Y-93848248D01*
X122303945Y-93857300D01*
X122304910Y-93863148D01*
X122306407Y-93875505D01*
X122307816Y-93890757D01*
X122309086Y-93907941D01*
X122310169Y-93926092D01*
X122311017Y-93944246D01*
X122311579Y-93961438D01*
X122311807Y-93976704D01*
X122311653Y-93989081D01*
X122311067Y-93997603D01*
X122310746Y-93999920D01*
X122306230Y-94019477D01*
X122298858Y-94035311D01*
X122288450Y-94047716D01*
X122274828Y-94056986D01*
X122274236Y-94057284D01*
X122263314Y-94061048D01*
X122251717Y-94061413D01*
X122238003Y-94058436D01*
X122232606Y-94056654D01*
X122216956Y-94049222D01*
X122205655Y-94039690D01*
X122198671Y-94028005D01*
X122195967Y-94014117D01*
X122197509Y-93997972D01*
X122198722Y-93990367D01*
X122199960Y-93977315D01*
X122200854Y-93961474D01*
X122201395Y-93943931D01*
X122201574Y-93925775D01*
X122201383Y-93908093D01*
X122200814Y-93891974D01*
X122199859Y-93878504D01*
X122198508Y-93868772D01*
X122196776Y-93858479D01*
X122195331Y-93845452D01*
X122194776Y-93834038D01*
X122194462Y-93825563D01*
X122193602Y-93819584D01*
X122192355Y-93817347D01*
X122191548Y-93816697D01*
X122190347Y-93812552D01*
X122189827Y-93805846D01*
X122189735Y-93803335D01*
X122188472Y-93793444D01*
X122186232Y-93784659D01*
X122184867Y-93779689D01*
X122183322Y-93770017D01*
X122182706Y-93760042D01*
X122182579Y-93754899D01*
X122181585Y-93747242D01*
X122179643Y-93744106D01*
X122179323Y-93743929D01*
X122177604Y-93740069D01*
X122176170Y-93731386D01*
X122175021Y-93717875D01*
X122173238Y-93696764D01*
X122170118Y-93675219D01*
X122165872Y-93657554D01*
X122165786Y-93657267D01*
X122164026Y-93649511D01*
X122163299Y-93642617D01*
X122162410Y-93636460D01*
X122159909Y-93629283D01*
X122153565Y-93612279D01*
X122151177Y-93593200D01*
X122151037Y-93589710D01*
X122149747Y-93581020D01*
X122147545Y-93574330D01*
X122145005Y-93568336D01*
X122143928Y-93563515D01*
X122143853Y-93562479D01*
X122142702Y-93556913D01*
X122140602Y-93549869D01*
X122140187Y-93548640D01*
X122137301Y-93539754D01*
X122134818Y-93531628D01*
X122134714Y-93531270D01*
X122132724Y-93524448D01*
X122129972Y-93515048D01*
X122127021Y-93504993D01*
X122126872Y-93504487D01*
X122123869Y-93494162D01*
X122121066Y-93484363D01*
X122119052Y-93477147D01*
X122118487Y-93475160D01*
X122116302Y-93468713D01*
X122114439Y-93464796D01*
X122113792Y-93463522D01*
X122112232Y-93458127D01*
X122110905Y-93450807D01*
X122110323Y-93447247D01*
X122108807Y-93441173D01*
X122107269Y-93438196D01*
X122105851Y-93435483D01*
X122105186Y-93430083D01*
X122105171Y-93429429D01*
X122104007Y-93422240D01*
X122101554Y-93414565D01*
X122101084Y-93413355D01*
X122098811Y-93404554D01*
X122097845Y-93395504D01*
X122097758Y-93393341D01*
X122096491Y-93385803D01*
X122094213Y-93380435D01*
X122092086Y-93376662D01*
X122090582Y-93370750D01*
X122090111Y-93367969D01*
X122087917Y-93361344D01*
X122084551Y-93353658D01*
X122082247Y-93348671D01*
X122079610Y-93341904D01*
X122078573Y-93337635D01*
X122077858Y-93333543D01*
X122075803Y-93325913D01*
X122072800Y-93316076D01*
X122069241Y-93305228D01*
X122065521Y-93294568D01*
X122062033Y-93285292D01*
X122059170Y-93278596D01*
X122058274Y-93276668D01*
X122055054Y-93268565D01*
X122053015Y-93261647D01*
X122051486Y-93255555D01*
X122049421Y-93249540D01*
X122049314Y-93249291D01*
X122047171Y-93243412D01*
X122044984Y-93236222D01*
X122043865Y-93232342D01*
X122040842Y-93222928D01*
X122037315Y-93212905D01*
X122033773Y-93203580D01*
X122030702Y-93196261D01*
X122028591Y-93192256D01*
X122027189Y-93189359D01*
X122025067Y-93182768D01*
X122023041Y-93174478D01*
X122021485Y-93167945D01*
X122018951Y-93159439D01*
X122016581Y-93153523D01*
X122014311Y-93147875D01*
X122013175Y-93141773D01*
X122012834Y-93139321D01*
X122010738Y-93132726D01*
X122007364Y-93125197D01*
X122000905Y-93112268D01*
X121995812Y-93101174D01*
X121992539Y-93092910D01*
X121991383Y-93088161D01*
X121991237Y-93087035D01*
X121989537Y-93081827D01*
X121986540Y-93075202D01*
X121985337Y-93072748D01*
X121982735Y-93066575D01*
X121981697Y-93062668D01*
X121981339Y-93060176D01*
X121979611Y-93053621D01*
X121976909Y-93045165D01*
X121973747Y-93036378D01*
X121970638Y-93028831D01*
X121970439Y-93028389D01*
X121968123Y-93022239D01*
X121967169Y-93017814D01*
X121967050Y-93016535D01*
X121965148Y-93012126D01*
X121964105Y-93010442D01*
X121961602Y-93005006D01*
X121958763Y-92997719D01*
X121957046Y-92993286D01*
X121953804Y-92986221D01*
X121951099Y-92981790D01*
X121949229Y-92979231D01*
X121947788Y-92975736D01*
X121947290Y-92973881D01*
X121945091Y-92968584D01*
X121941735Y-92961594D01*
X121939487Y-92956803D01*
X121936757Y-92949609D01*
X121935691Y-92944683D01*
X121935260Y-92941901D01*
X121933143Y-92935254D01*
X121929856Y-92927538D01*
X121922591Y-92912007D01*
X121915927Y-92896500D01*
X121911514Y-92884389D01*
X121908968Y-92877671D01*
X121904949Y-92868547D01*
X121900379Y-92859135D01*
X121900310Y-92859000D01*
X121895995Y-92849871D01*
X121892534Y-92841305D01*
X121890671Y-92835139D01*
X121890638Y-92834966D01*
X121888590Y-92828622D01*
X121885800Y-92824382D01*
X121884129Y-92822551D01*
X121882422Y-92818210D01*
X121881350Y-92813808D01*
X121877960Y-92807131D01*
X121873342Y-92800905D01*
X121871845Y-92798832D01*
X121870315Y-92794238D01*
X121869944Y-92792416D01*
X121867758Y-92786909D01*
X121864262Y-92780022D01*
X121862200Y-92776107D01*
X121859333Y-92769639D01*
X121858208Y-92765485D01*
X121857676Y-92763175D01*
X121855143Y-92756670D01*
X121850805Y-92747035D01*
X121844974Y-92734928D01*
X121837963Y-92721012D01*
X121830082Y-92705946D01*
X121830074Y-92705930D01*
X121824667Y-92695516D01*
X121818549Y-92683344D01*
X121813043Y-92672047D01*
X121812120Y-92670116D01*
X121807588Y-92660725D01*
X121803567Y-92652535D01*
X121800837Y-92647135D01*
X121797741Y-92641243D01*
X121794456Y-92634994D01*
X121794356Y-92634807D01*
X121790880Y-92628922D01*
X121786567Y-92622375D01*
X121786144Y-92621765D01*
X121782350Y-92615905D01*
X121779924Y-92611513D01*
X121779066Y-92609674D01*
X121776167Y-92604249D01*
X121774332Y-92600791D01*
X121771058Y-92594156D01*
X121767228Y-92586089D01*
X121766379Y-92584295D01*
X121761482Y-92574472D01*
X121755501Y-92563065D01*
X121749543Y-92552190D01*
X121748044Y-92549520D01*
X121742108Y-92538805D01*
X121736484Y-92528465D01*
X121732216Y-92520415D01*
X121729605Y-92515546D01*
X121724737Y-92507132D01*
X121720575Y-92500670D01*
X121719787Y-92499545D01*
X121716629Y-92494573D01*
X121715348Y-92491726D01*
X121715194Y-92491164D01*
X121713085Y-92487511D01*
X121709295Y-92482186D01*
X121708093Y-92480536D01*
X121704633Y-92474722D01*
X121703241Y-92470537D01*
X121702696Y-92468135D01*
X121699609Y-92463811D01*
X121697689Y-92461697D01*
X121695977Y-92457383D01*
X121695573Y-92455930D01*
X121693059Y-92450842D01*
X121688855Y-92443557D01*
X121683673Y-92435209D01*
X121678228Y-92426931D01*
X121673230Y-92419857D01*
X121669395Y-92415119D01*
X121667017Y-92413122D01*
X121660531Y-92410110D01*
X121653754Y-92409095D01*
X121648764Y-92410539D01*
X121648340Y-92411032D01*
X121646998Y-92415751D01*
X121646419Y-92423760D01*
X121646531Y-92433856D01*
X121647260Y-92444837D01*
X121648534Y-92455502D01*
X121650281Y-92464648D01*
X121652427Y-92471075D01*
X121652632Y-92471492D01*
X121656039Y-92479819D01*
X121658474Y-92488024D01*
X121658594Y-92488556D01*
X121661222Y-92496830D01*
X121664823Y-92504938D01*
X121665549Y-92506342D01*
X121668250Y-92512652D01*
X121669343Y-92517138D01*
X121669394Y-92517815D01*
X121670839Y-92522916D01*
X121673653Y-92529355D01*
X121675082Y-92532302D01*
X121678847Y-92540906D01*
X121682357Y-92549843D01*
X121683840Y-92553828D01*
X121687258Y-92562583D01*
X121690152Y-92569505D01*
X121690226Y-92569671D01*
X121692580Y-92576434D01*
X121693556Y-92582075D01*
X121693988Y-92585115D01*
X121696042Y-92588550D01*
X121697715Y-92590444D01*
X121701052Y-92596138D01*
X121705046Y-92604268D01*
X121709134Y-92613594D01*
X121712751Y-92622879D01*
X121715333Y-92630884D01*
X121716091Y-92633600D01*
X121718577Y-92641682D01*
X121720781Y-92647833D01*
X121720808Y-92647898D01*
X121723145Y-92654649D01*
X121725254Y-92662362D01*
X121725542Y-92663552D01*
X121728111Y-92672452D01*
X121731753Y-92683448D01*
X121735865Y-92694852D01*
X121739842Y-92704978D01*
X121743081Y-92712139D01*
X121743184Y-92712337D01*
X121745743Y-92718186D01*
X121746811Y-92722401D01*
X121747241Y-92724351D01*
X121749442Y-92729899D01*
X121752879Y-92736910D01*
X121755050Y-92741262D01*
X121757841Y-92747994D01*
X121758933Y-92752395D01*
X121759210Y-92754545D01*
X121761169Y-92757891D01*
X121762371Y-92759459D01*
X121764803Y-92764668D01*
X121767409Y-92771956D01*
X121768924Y-92776594D01*
X121771986Y-92785288D01*
X121774588Y-92791904D01*
X121778054Y-92800621D01*
X121781814Y-92813298D01*
X121783223Y-92823553D01*
X121784158Y-92829392D01*
X121786855Y-92835346D01*
X121788951Y-92839171D01*
X121790410Y-92845494D01*
X121790847Y-92849052D01*
X121792552Y-92852265D01*
X121794352Y-92854930D01*
X121796021Y-92860278D01*
X121796550Y-92862741D01*
X121798975Y-92872040D01*
X121802310Y-92883095D01*
X121806183Y-92894840D01*
X121810216Y-92906204D01*
X121814037Y-92916120D01*
X121817270Y-92923518D01*
X121819540Y-92927331D01*
X121820845Y-92929495D01*
X121821888Y-92934736D01*
X121821921Y-92935428D01*
X121822976Y-92940928D01*
X121825107Y-92948492D01*
X121827757Y-92956429D01*
X121830369Y-92963047D01*
X121832388Y-92966652D01*
X121832996Y-92967520D01*
X121833995Y-92971727D01*
X121833999Y-92971921D01*
X121835057Y-92976613D01*
X121837406Y-92982825D01*
X121837881Y-92983893D01*
X121839474Y-92987718D01*
X121840807Y-92991677D01*
X121842189Y-92996923D01*
X121843934Y-93004606D01*
X121846353Y-93015879D01*
X121847536Y-93020954D01*
X121850060Y-93029971D01*
X121852485Y-93036827D01*
X121852647Y-93037205D01*
X121854870Y-93043396D01*
X121855787Y-93047869D01*
X121856591Y-93051616D01*
X121858770Y-93058417D01*
X121861840Y-93066728D01*
X121864644Y-93074891D01*
X121866992Y-93084076D01*
X121867894Y-93090997D01*
X121867907Y-93092160D01*
X121868424Y-93098132D01*
X121869460Y-93101386D01*
X121869885Y-93101951D01*
X121871961Y-93106346D01*
X121874563Y-93113268D01*
X121877131Y-93121048D01*
X121879104Y-93128019D01*
X121879921Y-93132513D01*
X121880929Y-93137241D01*
X121883392Y-93143409D01*
X121885000Y-93146893D01*
X121889262Y-93157742D01*
X121893543Y-93170427D01*
X121897176Y-93182893D01*
X121899496Y-93193082D01*
X121900118Y-93196337D01*
X121901982Y-93203827D01*
X121903834Y-93208878D01*
X121905385Y-93212673D01*
X121907749Y-93219951D01*
X121910187Y-93228647D01*
X121912285Y-93236230D01*
X121914614Y-93243597D01*
X121916351Y-93247961D01*
X121917403Y-93250382D01*
X121919827Y-93258467D01*
X121922731Y-93270815D01*
X121926028Y-93287071D01*
X121927246Y-93293139D01*
X121929789Y-93304386D01*
X121932343Y-93314139D01*
X121934612Y-93321309D01*
X121936298Y-93324805D01*
X121937324Y-93326712D01*
X121938128Y-93331664D01*
X121939154Y-93337110D01*
X121941760Y-93343644D01*
X121944206Y-93350227D01*
X121945377Y-93357726D01*
X121946079Y-93363695D01*
X121948244Y-93370161D01*
X121948839Y-93371364D01*
X121951364Y-93378953D01*
X121953878Y-93390693D01*
X121956457Y-93406928D01*
X121956561Y-93407627D01*
X121958471Y-93416680D01*
X121961020Y-93425088D01*
X121963450Y-93431757D01*
X121967365Y-93443293D01*
X121971005Y-93454861D01*
X121974027Y-93465313D01*
X121976091Y-93473504D01*
X121976854Y-93478285D01*
X121976855Y-93478329D01*
X121977843Y-93484371D01*
X121980190Y-93491309D01*
X121981973Y-93496178D01*
X121984786Y-93505434D01*
X121987991Y-93517158D01*
X121991262Y-93530099D01*
X121994274Y-93543006D01*
X121996699Y-93554630D01*
X121997628Y-93558912D01*
X121999532Y-93565463D01*
X122001254Y-93569037D01*
X122002684Y-93571919D01*
X122003526Y-93577512D01*
X122003585Y-93578734D01*
X122004791Y-93585655D01*
X122007052Y-93593372D01*
X122007505Y-93594703D01*
X122009699Y-93603594D01*
X122010647Y-93611842D01*
X122010657Y-93612304D01*
X122011853Y-93620897D01*
X122014385Y-93629319D01*
X122014689Y-93630070D01*
X122017050Y-93638014D01*
X122018017Y-93645210D01*
X122018629Y-93650601D01*
X122020171Y-93653741D01*
X122020279Y-93653816D01*
X122022092Y-93657151D01*
X122023500Y-93662964D01*
X122024960Y-93670121D01*
X122027282Y-93678119D01*
X122027464Y-93678642D01*
X122029331Y-93685024D01*
X122031639Y-93694136D01*
X122033931Y-93704186D01*
X122034437Y-93706477D01*
X122036608Y-93715109D01*
X122038623Y-93721465D01*
X122040101Y-93724305D01*
X122040328Y-93724494D01*
X122041679Y-93728084D01*
X122042231Y-93734113D01*
X122042232Y-93734361D01*
X122043019Y-93741664D01*
X122044830Y-93747459D01*
X122046109Y-93750262D01*
X122048943Y-93758633D01*
X122051600Y-93768747D01*
X122053568Y-93778538D01*
X122054338Y-93785939D01*
X122054360Y-93786804D01*
X122055476Y-93794250D01*
X122057760Y-93802165D01*
X122058338Y-93803807D01*
X122060813Y-93812919D01*
X122062479Y-93822190D01*
X122062791Y-93824373D01*
X122064860Y-93833319D01*
X122067628Y-93840794D01*
X122067640Y-93840818D01*
X122070043Y-93847134D01*
X122072640Y-93856256D01*
X122074870Y-93866218D01*
X122076867Y-93876260D01*
X122078979Y-93886224D01*
X122080685Y-93893620D01*
X122082129Y-93899795D01*
X122084399Y-93911007D01*
X122086352Y-93922328D01*
X122087721Y-93932151D01*
X122088237Y-93938870D01*
X122088256Y-93939549D01*
X122089430Y-93946324D01*
X122091869Y-93953780D01*
X122092170Y-93954527D01*
X122094532Y-93962482D01*
X122095501Y-93969701D01*
X122096021Y-93975793D01*
X122097623Y-93982491D01*
X122099721Y-93988794D01*
X122102768Y-94000092D01*
X122105580Y-94012636D01*
X122107664Y-94024373D01*
X122108260Y-94028038D01*
X122110088Y-94036873D01*
X122112004Y-94043744D01*
X122112611Y-94045533D01*
X122114998Y-94053392D01*
X122117293Y-94061904D01*
X122117929Y-94064380D01*
X122120352Y-94073024D01*
X122122595Y-94080064D01*
X122123943Y-94084926D01*
X122125689Y-94093554D01*
X122127130Y-94103067D01*
X122128180Y-94110366D01*
X122130424Y-94123035D01*
X122132889Y-94134545D01*
X122134924Y-94143811D01*
X122137329Y-94156500D01*
X122139233Y-94168354D01*
X122139418Y-94169641D01*
X122140936Y-94178545D01*
X122142508Y-94185444D01*
X122143820Y-94188936D01*
X122144355Y-94189983D01*
X122145957Y-94195158D01*
X122147918Y-94203312D01*
X122149929Y-94213216D01*
X122150837Y-94217838D01*
X122152989Y-94227273D01*
X122155044Y-94234487D01*
X122156656Y-94238201D01*
X122157746Y-94241362D01*
X122158960Y-94248442D01*
X122160064Y-94258254D01*
X122160909Y-94269701D01*
X122161645Y-94280102D01*
X122162745Y-94290858D01*
X122163976Y-94299250D01*
X122165184Y-94304039D01*
X122165451Y-94304677D01*
X122167587Y-94312718D01*
X122169424Y-94325011D01*
X122170922Y-94341035D01*
X122172041Y-94360268D01*
X122172742Y-94382187D01*
X122172984Y-94406270D01*
X122173029Y-94417726D01*
X122173307Y-94434257D01*
X122173830Y-94446673D01*
X122174586Y-94454732D01*
X122175562Y-94458194D01*
X122176690Y-94461774D01*
X122177271Y-94469407D01*
X122177327Y-94480258D01*
X122176918Y-94493523D01*
X122176104Y-94508402D01*
X122174943Y-94524092D01*
X122173496Y-94539792D01*
X122171821Y-94554700D01*
X122169979Y-94568015D01*
X122168028Y-94578934D01*
X122166029Y-94586656D01*
X122163579Y-94594243D01*
X122161626Y-94601218D01*
X122160877Y-94605223D01*
X122160395Y-94607551D01*
X122158198Y-94613467D01*
X122154824Y-94620784D01*
X122152415Y-94625790D01*
X122149791Y-94631937D01*
X122148771Y-94635373D01*
X122147986Y-94638686D01*
X122144628Y-94645791D01*
X122139193Y-94654991D01*
X122132302Y-94665368D01*
X122124573Y-94675999D01*
X122116627Y-94685964D01*
X122109082Y-94694343D01*
X122092032Y-94709819D01*
X122074430Y-94721463D01*
X122055693Y-94729277D01*
X122034840Y-94733667D01*
X122010889Y-94735040D01*
X122006546Y-94734970D01*
X121986342Y-94732595D01*
X121966714Y-94726626D01*
X121946873Y-94716760D01*
X121926027Y-94702698D01*
X121921615Y-94699387D01*
X121914302Y-94693946D01*
X121909009Y-94690070D01*
X121906656Y-94688436D01*
X121906373Y-94688232D01*
X121903479Y-94685283D01*
X121898281Y-94679476D01*
X121891406Y-94671519D01*
X121883478Y-94662123D01*
X121879508Y-94656939D01*
X121876787Y-94652609D01*
X121875449Y-94650097D01*
X121872073Y-94644198D01*
X121867784Y-94636975D01*
X121864657Y-94631695D01*
X121861004Y-94625226D01*
X121858978Y-94621237D01*
X121857529Y-94618551D01*
X121853863Y-94612470D01*
X121848651Y-94604160D01*
X121842498Y-94594602D01*
X121837028Y-94586087D01*
X121830559Y-94575279D01*
X121825996Y-94566078D01*
X121822774Y-94557079D01*
X121820325Y-94546878D01*
X121818082Y-94534068D01*
X121816426Y-94523081D01*
X121815172Y-94511931D01*
X121814908Y-94502956D01*
X121815607Y-94494713D01*
X121817246Y-94485760D01*
X121818085Y-94482047D01*
X121819899Y-94476524D01*
X121822284Y-94474083D01*
X121826102Y-94473534D01*
X121827678Y-94473653D01*
X121832457Y-94475154D01*
X121838436Y-94478579D01*
X121845893Y-94484176D01*
X121855107Y-94492198D01*
X121866357Y-94502895D01*
X121879922Y-94516517D01*
X121896080Y-94533314D01*
X121915110Y-94553539D01*
X121919787Y-94558616D01*
X121926903Y-94566607D01*
X121932511Y-94573232D01*
X121935691Y-94577425D01*
X121940233Y-94584322D01*
X121949646Y-94597322D01*
X121959637Y-94609739D01*
X121969568Y-94620876D01*
X121978798Y-94630033D01*
X121986689Y-94636512D01*
X121992602Y-94639615D01*
X121997390Y-94640220D01*
X122004656Y-94639624D01*
X122008572Y-94638018D01*
X122014902Y-94633958D01*
X122021107Y-94628810D01*
X122025827Y-94623737D01*
X122027703Y-94619903D01*
X122028127Y-94617913D01*
X122030320Y-94612306D01*
X122033756Y-94605265D01*
X122035946Y-94600895D01*
X122038755Y-94594260D01*
X122039887Y-94590004D01*
X122040667Y-94586682D01*
X122043519Y-94581427D01*
X122043832Y-94580978D01*
X122046131Y-94575053D01*
X122047074Y-94567706D01*
X122047106Y-94566237D01*
X122047921Y-94560581D01*
X122049495Y-94557878D01*
X122050925Y-94556061D01*
X122052662Y-94549714D01*
X122054174Y-94539280D01*
X122055431Y-94525188D01*
X122056405Y-94507869D01*
X122057067Y-94487752D01*
X122057387Y-94465267D01*
X122057337Y-94440846D01*
X122057183Y-94427820D01*
X122056664Y-94400739D01*
X122055917Y-94376686D01*
X122054960Y-94355963D01*
X122053813Y-94338873D01*
X122052495Y-94325717D01*
X122051023Y-94316799D01*
X122049416Y-94312419D01*
X122049017Y-94311755D01*
X122047604Y-94306762D01*
X122046369Y-94298711D01*
X122045542Y-94288995D01*
X122045239Y-94283846D01*
X122044463Y-94274033D01*
X122043343Y-94264310D01*
X122041706Y-94253472D01*
X122039378Y-94240315D01*
X122036188Y-94223631D01*
X122036085Y-94223101D01*
X122034298Y-94212399D01*
X122033029Y-94202103D01*
X122032546Y-94194373D01*
X122032489Y-94191574D01*
X122031901Y-94185369D01*
X122030882Y-94182115D01*
X122029104Y-94178749D01*
X122026850Y-94171617D01*
X122024585Y-94162215D01*
X122022595Y-94151882D01*
X122021164Y-94141957D01*
X122020578Y-94133780D01*
X122020303Y-94127763D01*
X122019283Y-94119867D01*
X122017797Y-94114763D01*
X122017780Y-94114729D01*
X122016167Y-94109850D01*
X122014477Y-94101879D01*
X122013072Y-94092524D01*
X122011693Y-94081629D01*
X122009475Y-94066299D01*
X122007344Y-94054141D01*
X122005400Y-94045707D01*
X122003744Y-94041549D01*
X122003330Y-94040899D01*
X122001640Y-94036052D01*
X122000294Y-94029216D01*
X121999318Y-94023364D01*
X121997372Y-94013729D01*
X121995082Y-94003791D01*
X121993286Y-93996095D01*
X121990982Y-93985071D01*
X121989344Y-93975885D01*
X121988612Y-93971697D01*
X121986898Y-93964541D01*
X121985212Y-93960146D01*
X121984074Y-93957695D01*
X121981943Y-93951292D01*
X121979823Y-93943258D01*
X121979583Y-93942228D01*
X121977000Y-93931277D01*
X121975211Y-93924111D01*
X121973962Y-93919861D01*
X121972999Y-93917655D01*
X121972070Y-93916623D01*
X121971917Y-93916448D01*
X121970749Y-93912937D01*
X121969325Y-93906113D01*
X121967918Y-93897252D01*
X121965996Y-93885756D01*
X121963215Y-93872215D01*
X121960235Y-93859939D01*
X121959879Y-93858598D01*
X121957439Y-93847903D01*
X121955715Y-93837775D01*
X121955062Y-93830245D01*
X121955008Y-93827838D01*
X121954227Y-93820496D01*
X121952816Y-93815498D01*
X121952679Y-93815240D01*
X121949289Y-93806915D01*
X121946154Y-93796231D01*
X121943851Y-93785446D01*
X121942956Y-93776819D01*
X121942923Y-93775353D01*
X121941988Y-93768783D01*
X121940168Y-93764680D01*
X121939323Y-93763488D01*
X121937146Y-93758129D01*
X121935326Y-93750878D01*
X121933051Y-93738830D01*
X121930826Y-93727718D01*
X121928817Y-93718895D01*
X121926682Y-93711009D01*
X121924082Y-93702710D01*
X121920677Y-93692648D01*
X121919699Y-93689329D01*
X121917829Y-93681096D01*
X121916260Y-93672066D01*
X121915055Y-93664284D01*
X121912793Y-93651964D01*
X121910436Y-93641444D01*
X121908220Y-93633727D01*
X121906377Y-93629813D01*
X121905637Y-93628289D01*
X121904608Y-93622786D01*
X121904197Y-93615285D01*
X121903478Y-93607307D01*
X121901399Y-93596597D01*
X121898441Y-93586108D01*
X121895516Y-93576560D01*
X121892705Y-93565515D01*
X121890967Y-93556449D01*
X121890164Y-93551560D01*
X121888668Y-93545423D01*
X121887248Y-93542514D01*
X121886801Y-93542049D01*
X121885115Y-93538017D01*
X121883632Y-93531628D01*
X121883251Y-93529619D01*
X121881562Y-93523668D01*
X121879790Y-93520601D01*
X121879725Y-93520558D01*
X121878184Y-93517279D01*
X121877502Y-93511508D01*
X121876468Y-93504896D01*
X121873870Y-93499082D01*
X121871473Y-93493966D01*
X121870314Y-93486975D01*
X121870059Y-93483887D01*
X121868401Y-93475947D01*
X121865710Y-93467458D01*
X121864430Y-93463826D01*
X121861383Y-93453168D01*
X121859343Y-93443245D01*
X121858696Y-93439423D01*
X121856763Y-93431135D01*
X121854666Y-93425088D01*
X121853260Y-93421579D01*
X121850818Y-93413868D01*
X121848533Y-93405081D01*
X121846872Y-93398948D01*
X121844353Y-93392152D01*
X121842075Y-93388441D01*
X121841412Y-93387680D01*
X121839555Y-93382706D01*
X121838780Y-93375759D01*
X121838777Y-93375500D01*
X121838050Y-93367952D01*
X121836301Y-93357957D01*
X121833894Y-93347605D01*
X121831243Y-93336912D01*
X121828620Y-93325013D01*
X121826753Y-93315100D01*
X121825515Y-93308615D01*
X121823827Y-93302333D01*
X121822353Y-93299362D01*
X121821835Y-93298823D01*
X121819767Y-93294681D01*
X121817669Y-93288281D01*
X121816305Y-93283568D01*
X121813307Y-93274213D01*
X121810007Y-93264734D01*
X121807918Y-93258410D01*
X121805771Y-93250052D01*
X121804938Y-93244031D01*
X121804438Y-93238844D01*
X121803014Y-93234891D01*
X121801661Y-93232239D01*
X121799340Y-93226070D01*
X121796773Y-93218062D01*
X121794655Y-93211368D01*
X121791591Y-93202777D01*
X121789012Y-93196679D01*
X121786669Y-93190454D01*
X121785568Y-93184002D01*
X121784858Y-93176795D01*
X121782861Y-93166754D01*
X121780081Y-93156384D01*
X121777028Y-93147843D01*
X121774537Y-93141246D01*
X121772655Y-93134526D01*
X121771807Y-93131104D01*
X121769545Y-93123611D01*
X121766674Y-93115155D01*
X121765088Y-93110600D01*
X121761726Y-93100489D01*
X121757879Y-93088520D01*
X121754103Y-93076413D01*
X121751485Y-93067897D01*
X121748504Y-93058289D01*
X121746231Y-93051068D01*
X121745019Y-93047357D01*
X121741651Y-93037890D01*
X121736139Y-93022113D01*
X121732122Y-93010115D01*
X121729443Y-93001402D01*
X121727947Y-92995478D01*
X121727477Y-92991848D01*
X121727473Y-92991638D01*
X121726617Y-92986247D01*
X121724560Y-92978089D01*
X121721722Y-92968845D01*
X121718364Y-92958649D01*
X121714136Y-92945519D01*
X121710369Y-92933553D01*
X121709995Y-92932347D01*
X121707056Y-92923322D01*
X121703899Y-92914592D01*
X121700060Y-92904989D01*
X121695074Y-92893345D01*
X121688476Y-92878494D01*
X121687175Y-92875467D01*
X121684809Y-92869082D01*
X121683871Y-92865110D01*
X121683192Y-92862225D01*
X121680596Y-92857214D01*
X121679973Y-92856174D01*
X121677528Y-92849931D01*
X121675749Y-92842295D01*
X121674364Y-92836112D01*
X121671436Y-92826533D01*
X121667827Y-92816871D01*
X121664540Y-92808950D01*
X121660997Y-92800400D01*
X121658486Y-92794325D01*
X121657474Y-92791676D01*
X121654826Y-92783668D01*
X121652331Y-92774954D01*
X121651146Y-92770820D01*
X121648443Y-92763201D01*
X121645938Y-92758072D01*
X121644066Y-92754333D01*
X121642708Y-92748082D01*
X121642105Y-92744460D01*
X121639908Y-92737361D01*
X121636654Y-92729181D01*
X121633917Y-92722714D01*
X121631522Y-92716379D01*
X121630601Y-92712952D01*
X121630471Y-92712255D01*
X121628832Y-92707794D01*
X121625705Y-92700594D01*
X121621595Y-92691834D01*
X121621062Y-92690724D01*
X121616145Y-92679626D01*
X121611669Y-92668191D01*
X121608545Y-92658730D01*
X121606659Y-92652172D01*
X121599259Y-92630332D01*
X121590505Y-92610432D01*
X121588252Y-92605573D01*
X121585621Y-92598830D01*
X121584595Y-92594572D01*
X121584392Y-92592714D01*
X121582437Y-92588389D01*
X121581694Y-92587363D01*
X121579021Y-92582271D01*
X121575564Y-92574606D01*
X121571890Y-92565760D01*
X121568564Y-92557125D01*
X121566154Y-92550095D01*
X121565224Y-92546061D01*
X121565047Y-92544304D01*
X121563212Y-92539962D01*
X121561667Y-92536788D01*
X121559383Y-92530271D01*
X121556915Y-92521923D01*
X121554517Y-92514516D01*
X121550269Y-92503419D01*
X121544998Y-92490937D01*
X121539335Y-92478624D01*
X121534009Y-92467382D01*
X121528997Y-92456429D01*
X121525006Y-92447318D01*
X121522598Y-92441302D01*
X121521787Y-92439076D01*
X121519198Y-92432734D01*
X121517215Y-92428910D01*
X121517067Y-92428691D01*
X121515076Y-92424785D01*
X121511999Y-92417884D01*
X121508436Y-92409330D01*
X121503393Y-92396963D01*
X121498318Y-92384932D01*
X121493192Y-92373350D01*
X121487307Y-92360625D01*
X121479956Y-92345164D01*
X121475700Y-92336250D01*
X121470558Y-92325404D01*
X121466247Y-92316222D01*
X121463401Y-92310055D01*
X121461878Y-92306723D01*
X121458037Y-92298453D01*
X121453213Y-92288173D01*
X121448101Y-92277366D01*
X121444877Y-92270552D01*
X121440331Y-92260846D01*
X121436718Y-92253017D01*
X121434617Y-92248310D01*
X121432494Y-92243650D01*
X121429843Y-92238625D01*
X121428316Y-92235803D01*
X121425188Y-92229463D01*
X121421541Y-92221675D01*
X121414764Y-92206688D01*
X121409336Y-92194273D01*
X121405687Y-92185320D01*
X121403632Y-92179373D01*
X121402985Y-92175974D01*
X121402966Y-92175601D01*
X121401505Y-92170666D01*
X121398423Y-92164572D01*
X121394741Y-92156973D01*
X121392141Y-92148833D01*
X121392121Y-92148737D01*
X121390027Y-92141518D01*
X121387434Y-92135717D01*
X121385359Y-92131186D01*
X121382602Y-92123526D01*
X121379832Y-92114530D01*
X121379663Y-92113938D01*
X121377139Y-92105980D01*
X121374881Y-92100333D01*
X121373362Y-92098186D01*
X121372264Y-92097192D01*
X121371516Y-92093151D01*
X121370813Y-92089004D01*
X121368672Y-92081677D01*
X121365596Y-92073175D01*
X121364345Y-92069960D01*
X121360429Y-92059482D01*
X121356017Y-92047245D01*
X121351846Y-92035279D01*
X121349778Y-92029320D01*
X121346133Y-92019274D01*
X121342980Y-92011125D01*
X121340831Y-92006223D01*
X121338702Y-92001343D01*
X121337632Y-91996978D01*
X121337440Y-91995722D01*
X121335711Y-91990530D01*
X121332774Y-91983811D01*
X121331778Y-91981604D01*
X121328174Y-91967059D01*
X121328973Y-91951711D01*
X121334146Y-91936543D01*
X121337077Y-91931347D01*
X121341436Y-91925474D01*
X121345042Y-91922587D01*
X121347738Y-91921393D01*
X121349724Y-91919262D01*
X121350119Y-91918763D01*
X121353875Y-91916721D01*
X121360751Y-91913841D01*
X121369700Y-91910579D01*
X121373235Y-91909347D01*
X121382226Y-91906022D01*
X121389158Y-91903184D01*
X121392759Y-91901342D01*
X121393142Y-91901111D01*
X121397672Y-91899969D01*
X121405350Y-91899104D01*
X121414751Y-91898687D01*
X121421884Y-91898630D01*
X121429134Y-91898983D01*
X121434309Y-91900282D01*
X121439038Y-91903012D01*
X121444951Y-91907658D01*
X121446670Y-91909098D01*
X121457596Y-91920129D01*
X121467894Y-91934145D01*
X121478241Y-91952047D01*
X121481635Y-91958167D01*
X121486868Y-91966721D01*
X121491366Y-91973153D01*
X121492813Y-91974983D01*
X121495695Y-91978658D01*
X121498570Y-91982403D01*
X121502012Y-91986986D01*
X121506595Y-91993175D01*
X121512891Y-92001737D01*
X121521476Y-92013439D01*
X121527612Y-92021833D01*
X121534390Y-92031165D01*
X121539910Y-92038827D01*
X121543364Y-92043706D01*
X121543440Y-92043815D01*
X121546861Y-92048707D01*
X121552325Y-92056463D01*
X121559095Y-92066040D01*
X121566435Y-92076394D01*
X121566605Y-92076633D01*
X121574003Y-92087071D01*
X121580872Y-92096794D01*
X121586454Y-92104725D01*
X121589988Y-92109787D01*
X121590547Y-92110595D01*
X121596025Y-92118370D01*
X121601545Y-92126036D01*
X121604471Y-92130045D01*
X121614847Y-92144412D01*
X121622255Y-92154956D01*
X121626699Y-92161683D01*
X121628180Y-92164594D01*
X121628187Y-92164695D01*
X121629607Y-92167797D01*
X121632740Y-92172741D01*
X121633205Y-92173415D01*
X121637037Y-92179198D01*
X121642256Y-92187291D01*
X121647874Y-92196162D01*
X121654516Y-92206511D01*
X121662067Y-92217896D01*
X121668757Y-92227640D01*
X121669041Y-92228043D01*
X121674460Y-92235925D01*
X121678933Y-92242756D01*
X121681518Y-92247099D01*
X121684029Y-92251618D01*
X121690033Y-92261256D01*
X121698542Y-92274072D01*
X121709295Y-92289667D01*
X121711074Y-92292214D01*
X121717095Y-92300896D01*
X121722247Y-92308409D01*
X121725571Y-92313357D01*
X121730266Y-92320847D01*
X121736635Y-92331448D01*
X121743802Y-92343681D01*
X121750992Y-92356224D01*
X121757429Y-92367752D01*
X121762717Y-92377376D01*
X121770294Y-92391069D01*
X121776171Y-92401529D01*
X121780720Y-92409415D01*
X121784310Y-92415383D01*
X121785274Y-92416953D01*
X121788956Y-92423151D01*
X121791352Y-92427490D01*
X121792175Y-92429093D01*
X121796278Y-92436508D01*
X121802545Y-92447327D01*
X121810668Y-92461022D01*
X121820340Y-92477066D01*
X121825242Y-92485302D01*
X121830348Y-92494276D01*
X121834044Y-92501235D01*
X121835756Y-92505133D01*
X121836754Y-92507814D01*
X121838619Y-92509816D01*
X121838923Y-92509983D01*
X121841097Y-92513054D01*
X121844511Y-92519199D01*
X121848570Y-92527371D01*
X121849483Y-92529280D01*
X121853759Y-92537767D01*
X121857471Y-92544464D01*
X121859902Y-92548061D01*
X121860516Y-92548815D01*
X121863251Y-92553916D01*
X121865799Y-92560802D01*
X121866416Y-92562706D01*
X121869183Y-92569156D01*
X121871917Y-92573097D01*
X121873442Y-92574785D01*
X121875158Y-92579353D01*
X121876451Y-92583754D01*
X121879571Y-92589347D01*
X121881914Y-92592880D01*
X121888034Y-92603085D01*
X121893661Y-92613693D01*
X121898047Y-92623237D01*
X121900445Y-92630251D01*
X121900536Y-92630654D01*
X121902363Y-92636338D01*
X121904335Y-92639434D01*
X121904870Y-92639901D01*
X121907542Y-92643760D01*
X121910682Y-92649752D01*
X121911600Y-92651688D01*
X121914410Y-92657153D01*
X121916194Y-92659940D01*
X121916481Y-92660317D01*
X121918506Y-92664063D01*
X121921757Y-92670771D01*
X121925680Y-92679311D01*
X121926922Y-92682077D01*
X121932532Y-92694440D01*
X121936703Y-92703240D01*
X121939855Y-92709216D01*
X121942405Y-92713106D01*
X121944772Y-92715648D01*
X121947374Y-92717580D01*
X121949684Y-92718859D01*
X121954825Y-92720725D01*
X121962263Y-92722445D01*
X121972633Y-92724132D01*
X121986567Y-92725902D01*
X122004700Y-92727867D01*
X122011443Y-92728563D01*
X122029739Y-92730507D01*
X122044034Y-92732136D01*
X122054952Y-92733535D01*
X122063118Y-92734787D01*
X122069157Y-92735978D01*
X122073693Y-92737191D01*
X122082060Y-92739062D01*
X122090361Y-92739845D01*
X122090459Y-92739845D01*
X122098797Y-92740506D01*
X122107327Y-92742066D01*
X122112072Y-92743227D01*
X122120910Y-92745323D01*
X122131979Y-92747907D01*
X122143928Y-92750661D01*
X122154188Y-92753047D01*
X122165121Y-92755677D01*
X122173888Y-92757878D01*
X122179209Y-92759336D01*
X122191457Y-92761608D01*
X122203371Y-92760485D01*
X122212936Y-92755740D01*
X122213903Y-92754954D01*
X122217907Y-92751161D01*
X122218644Y-92748176D01*
X122216686Y-92744251D01*
X122213160Y-92738267D01*
X122209319Y-92731240D01*
X122209226Y-92731062D01*
X122204957Y-92723696D01*
X122200122Y-92716338D01*
X122199379Y-92715260D01*
X122196106Y-92709478D01*
X122194776Y-92705263D01*
X122194227Y-92702928D01*
X122191144Y-92698682D01*
X122189272Y-92696469D01*
X122187512Y-92691088D01*
X122187219Y-92688302D01*
X122185241Y-92682305D01*
X122184826Y-92681523D01*
X122181373Y-92674414D01*
X122176925Y-92664604D01*
X122172160Y-92653649D01*
X122167757Y-92643101D01*
X122164392Y-92634516D01*
X122163754Y-92632806D01*
X122160963Y-92625836D01*
X122157677Y-92618628D01*
X122153263Y-92609856D01*
X122147091Y-92598196D01*
X122146479Y-92597029D01*
X122143630Y-92591431D01*
X122139560Y-92583306D01*
X122134936Y-92573982D01*
X122134139Y-92572369D01*
X122128425Y-92560947D01*
X122122508Y-92549301D01*
X122117549Y-92539721D01*
X122114884Y-92534432D01*
X122111595Y-92526110D01*
X122109956Y-92517714D01*
X122109377Y-92506871D01*
X122109034Y-92488911D01*
X122119113Y-92479804D01*
X122123139Y-92475945D01*
X122128074Y-92470468D01*
X122130567Y-92466649D01*
X122132528Y-92463315D01*
X122138658Y-92457541D01*
X122147468Y-92451720D01*
X122157749Y-92446613D01*
X122168292Y-92442978D01*
X122173919Y-92441716D01*
X122188266Y-92440749D01*
X122201602Y-92443767D01*
X122215358Y-92451016D01*
X122222398Y-92455953D01*
X122238082Y-92470057D01*
X122251607Y-92487343D01*
X122263638Y-92508606D01*
X122263760Y-92508855D01*
X122268265Y-92517395D01*
X122273613Y-92526641D01*
X122279029Y-92535344D01*
X122283738Y-92542259D01*
X122286964Y-92546137D01*
X122287768Y-92547078D01*
X122289976Y-92550979D01*
X122290111Y-92551277D01*
X122292873Y-92556468D01*
X122296275Y-92561984D01*
X122298894Y-92565507D01*
X122299851Y-92566599D01*
X122303208Y-92571166D01*
X122307386Y-92577399D01*
X122311485Y-92583889D01*
X122314604Y-92589229D01*
X122315844Y-92592011D01*
X122315852Y-92592211D01*
X122317703Y-92594967D01*
X122319254Y-92596406D01*
X122323335Y-92600991D01*
X122329147Y-92607914D01*
X122335992Y-92616356D01*
X122341149Y-92622994D01*
X122351196Y-92636858D01*
X122362406Y-92653481D01*
X122375124Y-92673382D01*
X122389695Y-92697079D01*
X122392530Y-92701537D01*
X122397869Y-92709464D01*
X122403618Y-92717621D01*
X122407949Y-92723789D01*
X122411382Y-92729072D01*
X122412698Y-92731661D01*
X122413074Y-92732581D01*
X122415714Y-92736472D01*
X122420046Y-92741947D01*
X122422626Y-92745037D01*
X122427718Y-92751205D01*
X122430563Y-92754840D01*
X122431799Y-92756794D01*
X122432069Y-92757919D01*
X122432843Y-92759405D01*
X122435932Y-92764362D01*
X122440963Y-92772110D01*
X122447491Y-92781963D01*
X122455072Y-92793240D01*
X122460929Y-92801965D01*
X122467759Y-92812340D01*
X122473192Y-92820830D01*
X122476779Y-92826731D01*
X122478075Y-92829342D01*
X122478080Y-92829505D01*
X122479891Y-92832260D01*
X122480959Y-92833204D01*
X122484230Y-92837309D01*
X122488412Y-92843376D01*
X122490484Y-92846284D01*
X122497662Y-92854423D01*
X122505362Y-92861226D01*
X122510264Y-92864447D01*
X122518468Y-92869161D01*
X122528142Y-92874278D01*
X122538151Y-92879238D01*
X122547358Y-92883481D01*
X122554628Y-92886449D01*
X122558826Y-92887580D01*
X122560895Y-92888197D01*
X122566650Y-92890646D01*
X122574898Y-92894524D01*
X122584614Y-92899364D01*
X122603958Y-92909234D01*
X122630941Y-92922945D01*
X122653749Y-92934456D01*
X122672447Y-92943801D01*
X122687104Y-92951012D01*
X122697787Y-92956122D01*
X122704562Y-92959166D01*
X122707498Y-92960176D01*
X122708612Y-92960351D01*
X122710525Y-92962609D01*
X122710648Y-92963335D01*
X122713202Y-92965031D01*
X122714384Y-92965346D01*
X122719282Y-92967538D01*
X122726714Y-92971361D01*
X122735600Y-92976271D01*
X122739602Y-92978546D01*
X122749041Y-92983859D01*
X122757100Y-92988329D01*
X122762369Y-92991172D01*
X122762634Y-92991311D01*
X122768344Y-92994652D01*
X122776273Y-92999677D01*
X122784790Y-93005355D01*
X122786403Y-93006456D01*
X122793576Y-93011244D01*
X122798871Y-93014609D01*
X122801238Y-93015879D01*
X122803482Y-93017073D01*
X122808984Y-93020425D01*
X122816925Y-93025411D01*
X122826494Y-93031509D01*
X122836882Y-93038195D01*
X122847278Y-93044945D01*
X122856874Y-93051235D01*
X122864858Y-93056542D01*
X122870422Y-93060343D01*
X122872755Y-93062113D01*
X122873784Y-93062938D01*
X122878327Y-93066069D01*
X122885801Y-93071007D01*
X122895484Y-93077279D01*
X122906654Y-93084409D01*
X122932541Y-93101106D01*
X122960760Y-93119906D01*
X122988372Y-93138890D01*
X123014470Y-93157422D01*
X123038148Y-93174869D01*
X123058499Y-93190597D01*
X123061871Y-93193277D01*
X123073064Y-93202098D01*
X123086227Y-93212394D01*
X123099989Y-93223094D01*
X123112980Y-93233128D01*
X123120173Y-93238681D01*
X123131088Y-93247181D01*
X123140658Y-93254720D01*
X123148047Y-93260639D01*
X123152422Y-93264279D01*
X123154173Y-93265786D01*
X123160571Y-93271073D01*
X123168910Y-93277776D01*
X123177846Y-93284810D01*
X123179574Y-93286166D01*
X123190720Y-93295273D01*
X123202613Y-93305466D01*
X123212956Y-93314782D01*
X123214599Y-93316302D01*
X123227732Y-93327295D01*
X123239652Y-93335238D01*
X123249928Y-93339929D01*
X123258134Y-93341167D01*
X123263840Y-93338748D01*
X123266043Y-93335682D01*
X123267143Y-93330448D01*
X123266732Y-93322113D01*
X123265587Y-93315437D01*
X123263277Y-93305851D01*
X123260210Y-93294876D01*
X123256763Y-93283733D01*
X123253316Y-93273641D01*
X123250246Y-93265818D01*
X123247931Y-93261485D01*
X123247283Y-93260399D01*
X123245066Y-93254598D01*
X123241993Y-93244563D01*
X123238168Y-93230652D01*
X123233696Y-93213220D01*
X123232486Y-93208674D01*
X123229078Y-93197866D01*
X123225409Y-93188334D01*
X123222116Y-93181808D01*
X123220320Y-93178148D01*
X123218987Y-93172123D01*
X123218533Y-93169362D01*
X123216363Y-93162774D01*
X123213009Y-93155107D01*
X123210777Y-93150187D01*
X123208067Y-93142782D01*
X123206978Y-93137615D01*
X123206946Y-93137135D01*
X123205779Y-93131997D01*
X123203291Y-93123985D01*
X123199971Y-93114458D01*
X123196311Y-93104774D01*
X123192800Y-93096291D01*
X123189928Y-93090369D01*
X123188724Y-93087584D01*
X123187531Y-93081240D01*
X123187237Y-93079430D01*
X123185282Y-93073366D01*
X123181899Y-93064868D01*
X123177561Y-93055178D01*
X123176655Y-93053256D01*
X123167558Y-93034038D01*
X123160266Y-93018784D01*
X123154580Y-93007095D01*
X123150299Y-92998571D01*
X123147222Y-92992813D01*
X123145150Y-92989420D01*
X123143881Y-92987993D01*
X123142265Y-92985082D01*
X123141526Y-92979559D01*
X123140861Y-92974364D01*
X123139098Y-92971080D01*
X123138189Y-92970214D01*
X123135211Y-92965831D01*
X123131791Y-92959436D01*
X123130424Y-92956624D01*
X123127092Y-92949999D01*
X123124754Y-92945660D01*
X123124211Y-92944688D01*
X123121465Y-92939201D01*
X123117656Y-92931140D01*
X123113435Y-92921924D01*
X123109458Y-92912973D01*
X123106376Y-92905708D01*
X123105785Y-92904302D01*
X123102806Y-92897750D01*
X123098591Y-92888936D01*
X123093617Y-92878806D01*
X123088361Y-92868307D01*
X123083299Y-92858384D01*
X123078908Y-92849985D01*
X123075666Y-92844055D01*
X123074050Y-92841542D01*
X123073627Y-92841028D01*
X123071341Y-92837057D01*
X123067832Y-92830183D01*
X123063670Y-92821504D01*
X123062786Y-92819639D01*
X123057527Y-92809496D01*
X123052058Y-92800188D01*
X123047429Y-92793527D01*
X123043839Y-92788726D01*
X123037948Y-92779775D01*
X123032636Y-92770631D01*
X123031930Y-92769298D01*
X123028431Y-92761923D01*
X123026425Y-92755259D01*
X123025515Y-92747459D01*
X123025301Y-92736674D01*
X123025327Y-92731355D01*
X123025700Y-92722703D01*
X123026827Y-92716509D01*
X123029096Y-92711147D01*
X123032897Y-92704993D01*
X123035554Y-92701227D01*
X123045671Y-92689870D01*
X123057350Y-92680252D01*
X123069604Y-92672991D01*
X123081446Y-92668706D01*
X123091888Y-92668016D01*
X123092548Y-92668110D01*
X123109383Y-92671876D01*
X123126118Y-92677890D01*
X123140397Y-92685313D01*
X123146563Y-92689655D01*
X123153797Y-92696146D01*
X123160776Y-92704336D01*
X123168019Y-92714923D01*
X123176041Y-92728605D01*
X123185358Y-92746080D01*
X123186207Y-92747718D01*
X123192133Y-92758961D01*
X123197591Y-92769015D01*
X123202007Y-92776836D01*
X123204806Y-92781382D01*
X123204980Y-92781630D01*
X123208053Y-92786571D01*
X123209323Y-92789666D01*
X123209933Y-92791427D01*
X123212669Y-92795345D01*
X123212743Y-92795432D01*
X123215548Y-92799581D01*
X123219597Y-92806560D01*
X123224040Y-92814907D01*
X123225762Y-92818187D01*
X123231580Y-92828561D01*
X123238509Y-92840227D01*
X123245400Y-92851227D01*
X123251719Y-92861493D01*
X123259272Y-92874566D01*
X123267038Y-92888655D01*
X123274068Y-92902076D01*
X123276238Y-92906359D01*
X123282239Y-92918187D01*
X123286600Y-92926745D01*
X123289742Y-92932840D01*
X123292084Y-92937283D01*
X123294047Y-92940883D01*
X123296050Y-92944449D01*
X123296722Y-92945666D01*
X123299714Y-92951274D01*
X123303960Y-92959376D01*
X123308771Y-92968663D01*
X123310726Y-92972417D01*
X123315428Y-92981119D01*
X123319348Y-92987944D01*
X123321794Y-92991666D01*
X123325010Y-92996342D01*
X123328515Y-93002562D01*
X123331051Y-93007485D01*
X123337765Y-93020067D01*
X123345752Y-93034608D01*
X123354187Y-93049629D01*
X123362242Y-93063654D01*
X123369093Y-93075202D01*
X123373552Y-93083011D01*
X123379363Y-93093895D01*
X123385706Y-93106303D01*
X123391825Y-93118787D01*
X123392702Y-93120619D01*
X123398035Y-93131705D01*
X123402730Y-93141367D01*
X123406306Y-93148624D01*
X123408283Y-93152490D01*
X123408738Y-93153322D01*
X123411542Y-93158547D01*
X123415673Y-93166323D01*
X123420414Y-93175299D01*
X123427975Y-93189505D01*
X123436316Y-93204824D01*
X123443658Y-93217923D01*
X123449415Y-93227748D01*
X123452013Y-93232116D01*
X123454751Y-93237440D01*
X123457471Y-93244092D01*
X123457992Y-93245253D01*
X123460836Y-93250664D01*
X123465469Y-93258948D01*
X123471370Y-93269205D01*
X123478017Y-93280534D01*
X123484889Y-93292036D01*
X123491465Y-93302810D01*
X123493844Y-93306786D01*
X123499009Y-93315950D01*
X123503846Y-93325082D01*
X123504805Y-93326893D01*
X123510597Y-93336353D01*
X123518631Y-93347972D01*
X123528087Y-93360601D01*
X123538145Y-93373092D01*
X123538302Y-93373283D01*
X123541120Y-93377188D01*
X123544819Y-93382777D01*
X123545278Y-93383491D01*
X123548734Y-93388490D01*
X123551012Y-93391189D01*
X123551806Y-93392225D01*
X123554582Y-93396834D01*
X123558664Y-93404164D01*
X123563485Y-93413211D01*
X123567520Y-93420605D01*
X123574863Y-93433192D01*
X123583067Y-93446525D01*
X123590997Y-93458723D01*
X123591004Y-93458734D01*
X123597653Y-93468651D01*
X123603462Y-93477398D01*
X123607805Y-93484030D01*
X123610058Y-93487599D01*
X123611651Y-93490343D01*
X123618556Y-93502150D01*
X123623407Y-93510254D01*
X123626469Y-93515092D01*
X123628008Y-93517099D01*
X123628109Y-93517202D01*
X123630072Y-93520219D01*
X123633502Y-93526227D01*
X123637724Y-93534049D01*
X123638224Y-93534994D01*
X123642416Y-93542672D01*
X123645767Y-93548399D01*
X123647592Y-93550998D01*
X123647984Y-93551393D01*
X123650487Y-93554997D01*
X123653824Y-93560684D01*
X123654760Y-93562362D01*
X123657892Y-93567641D01*
X123659817Y-93570369D01*
X123661220Y-93572060D01*
X123662588Y-93574125D01*
X123664578Y-93577130D01*
G37*
%TD*%
M02*
