%TF.GenerationSoftware,KiCad,Pcbnew,8.0.4*%
%TF.CreationDate,2024-08-21T21:41:38-07:00*%
%TF.ProjectId,udb-s,7564622d-732e-46b6-9963-61645f706362,rev?*%
%TF.SameCoordinates,Original*%
%TF.FileFunction,Soldermask,Top*%
%TF.FilePolarity,Negative*%
%FSLAX46Y46*%
G04 Gerber Fmt 4.6, Leading zero omitted, Abs format (unit mm)*
G04 Created by KiCad (PCBNEW 8.0.4) date 2024-08-21 21:41:38*
%MOMM*%
%LPD*%
G01*
G04 APERTURE LIST*
G04 Aperture macros list*
%AMRoundRect*
0 Rectangle with rounded corners*
0 $1 Rounding radius*
0 $2 $3 $4 $5 $6 $7 $8 $9 X,Y pos of 4 corners*
0 Add a 4 corners polygon primitive as box body*
4,1,4,$2,$3,$4,$5,$6,$7,$8,$9,$2,$3,0*
0 Add four circle primitives for the rounded corners*
1,1,$1+$1,$2,$3*
1,1,$1+$1,$4,$5*
1,1,$1+$1,$6,$7*
1,1,$1+$1,$8,$9*
0 Add four rect primitives between the rounded corners*
20,1,$1+$1,$2,$3,$4,$5,0*
20,1,$1+$1,$4,$5,$6,$7,0*
20,1,$1+$1,$6,$7,$8,$9,0*
20,1,$1+$1,$8,$9,$2,$3,0*%
G04 Aperture macros list end*
%ADD10RoundRect,0.218750X-0.381250X0.218750X-0.381250X-0.218750X0.381250X-0.218750X0.381250X0.218750X0*%
%ADD11RoundRect,0.135000X-0.185000X0.135000X-0.185000X-0.135000X0.185000X-0.135000X0.185000X0.135000X0*%
%ADD12C,2.600000*%
%ADD13C,3.800000*%
%ADD14RoundRect,0.250000X0.625000X-0.375000X0.625000X0.375000X-0.625000X0.375000X-0.625000X-0.375000X0*%
%ADD15RoundRect,0.125000X-0.150000X0.000010X-0.150000X-0.000010X0.150000X-0.000010X0.150000X0.000010X0*%
%ADD16R,0.550000X0.250000*%
%ADD17R,0.550000X0.300000*%
%ADD18RoundRect,0.100000X-0.250000X-0.400000X0.250000X-0.400000X0.250000X0.400000X-0.250000X0.400000X0*%
%ADD19RoundRect,0.125000X-0.250000X-0.475000X0.250000X-0.475000X0.250000X0.475000X-0.250000X0.475000X0*%
%ADD20C,0.650000*%
%ADD21RoundRect,0.060000X0.240000X0.665000X-0.240000X0.665000X-0.240000X-0.665000X0.240000X-0.665000X0*%
%ADD22RoundRect,0.060000X0.090000X0.665000X-0.090000X0.665000X-0.090000X-0.665000X0.090000X-0.665000X0*%
%ADD23O,1.100000X2.200000*%
%ADD24O,1.300000X1.700000*%
%ADD25R,0.700000X0.600000*%
%ADD26RoundRect,0.135000X0.185000X-0.135000X0.185000X0.135000X-0.185000X0.135000X-0.185000X-0.135000X0*%
G04 APERTURE END LIST*
D10*
%TO.C,FB1*%
X132718750Y-91460000D03*
X132718750Y-93585000D03*
%TD*%
D11*
%TO.C,R2*%
X130818750Y-96812500D03*
X130818750Y-97832500D03*
%TD*%
D12*
%TO.C,H1*%
X148011249Y-95000000D03*
D13*
X148011249Y-95000000D03*
%TD*%
D14*
%TO.C,F1*%
X127118750Y-98222500D03*
X127118750Y-95422500D03*
%TD*%
D15*
%TO.C,U1*%
X127033750Y-91822500D03*
D16*
X127033750Y-92322500D03*
D17*
X127033750Y-92822500D03*
D16*
X127033750Y-93322500D03*
X127033750Y-93822500D03*
X127803750Y-93822500D03*
X127803750Y-93322500D03*
D17*
X127803750Y-92822500D03*
D16*
X127803750Y-92322500D03*
X127803750Y-91822500D03*
%TD*%
D18*
%TO.C,J2*%
X119050000Y-98500000D03*
D19*
X120200000Y-94500000D03*
X121400000Y-94500000D03*
X122600000Y-94500000D03*
X123800000Y-94500000D03*
D18*
X124950000Y-98500000D03*
%TD*%
D12*
%TO.C,H2*%
X115000000Y-95000000D03*
D13*
X115000000Y-95000000D03*
%TD*%
D20*
%TO.C,J1*%
X141990000Y-95450000D03*
X136210000Y-95450000D03*
D21*
X142325000Y-96895000D03*
X141550000Y-96895000D03*
D22*
X140350000Y-96895000D03*
X139350000Y-96895000D03*
X138850000Y-96895000D03*
X137850000Y-96895000D03*
D21*
X135875000Y-96895000D03*
X136650000Y-96895000D03*
D22*
X137350000Y-96895000D03*
X138350000Y-96895000D03*
X139850000Y-96895000D03*
X140850000Y-96895000D03*
D23*
X143420000Y-95980000D03*
D24*
X143420000Y-91800000D03*
D23*
X134780000Y-95980000D03*
D24*
X134780000Y-91800000D03*
%TD*%
D25*
%TO.C,D1*%
X129318750Y-98422500D03*
X129318750Y-97022500D03*
%TD*%
D26*
%TO.C,R1*%
X132018750Y-97832500D03*
X132018750Y-96812500D03*
%TD*%
M02*
