%TF.GenerationSoftware,KiCad,Pcbnew,8.0.4*%
%TF.CreationDate,2024-08-21T21:41:38-07:00*%
%TF.ProjectId,udb-s,7564622d-732e-46b6-9963-61645f706362,rev?*%
%TF.SameCoordinates,Original*%
%TF.FileFunction,Copper,L3,Inr*%
%TF.FilePolarity,Positive*%
%FSLAX46Y46*%
G04 Gerber Fmt 4.6, Leading zero omitted, Abs format (unit mm)*
G04 Created by KiCad (PCBNEW 8.0.4) date 2024-08-21 21:41:38*
%MOMM*%
%LPD*%
G01*
G04 APERTURE LIST*
%TA.AperFunction,ComponentPad*%
%ADD10C,2.600000*%
%TD*%
%TA.AperFunction,ComponentPad*%
%ADD11C,0.600000*%
%TD*%
%TA.AperFunction,ComponentPad*%
%ADD12O,1.100000X2.200000*%
%TD*%
%TA.AperFunction,ComponentPad*%
%ADD13O,1.300000X1.700000*%
%TD*%
%TA.AperFunction,ViaPad*%
%ADD14C,0.600000*%
%TD*%
%TA.AperFunction,ViaPad*%
%ADD15C,1.000000*%
%TD*%
%TA.AperFunction,Conductor*%
%ADD16C,0.160000*%
%TD*%
G04 APERTURE END LIST*
D10*
%TO.N,GNDPWR*%
%TO.C,H1*%
X148011249Y-95000000D03*
%TD*%
D11*
%TO.N,GND*%
%TO.C,J2*%
X119000000Y-97300000D03*
X119800000Y-97300000D03*
X119800000Y-98000000D03*
X119800000Y-98700000D03*
X124200000Y-97300000D03*
X124200000Y-98000000D03*
X124200000Y-98700000D03*
X124950000Y-97300000D03*
%TD*%
D10*
%TO.N,N/C*%
%TO.C,H2*%
X115000000Y-95000000D03*
%TD*%
D12*
%TO.N,GNDPWR*%
%TO.C,J1*%
X143420000Y-95980000D03*
D13*
X143420000Y-91800000D03*
D12*
X134780000Y-95980000D03*
D13*
X134780000Y-91800000D03*
%TD*%
D14*
%TO.N,GND*%
X129803750Y-93122500D03*
D15*
X133400000Y-95300000D03*
X144829639Y-97098274D03*
X130203750Y-95622500D03*
D14*
X131425000Y-91343750D03*
D15*
X144820324Y-92798274D03*
%TO.N,VBUS*%
X132925000Y-98501000D03*
X145171639Y-98476774D03*
D14*
%TO.N,D+*%
X129158749Y-94677499D03*
X139649999Y-98574999D03*
X129173750Y-93722500D03*
X140758749Y-94677499D03*
X137573750Y-93122500D03*
%TO.N,D-*%
X129395000Y-92322500D03*
X138550000Y-98574999D03*
X128958749Y-91477499D03*
X137573750Y-92322500D03*
X140758749Y-93577499D03*
%TO.N,Net-(J1-CC2)*%
X131600000Y-95900000D03*
X137674999Y-98574999D03*
%TO.N,Net-(J1-CC1)*%
X140525000Y-98574999D03*
X132400000Y-95900000D03*
D15*
%TO.N,5V*%
X125700000Y-96400000D03*
D14*
X120200000Y-96000000D03*
%TD*%
D16*
%TO.N,D+*%
X133673700Y-94022500D02*
X133673700Y-94103763D01*
X137353750Y-92902500D02*
X137573750Y-93122500D01*
X136789973Y-92902500D02*
X137353750Y-92902500D01*
X139843923Y-96227499D02*
X139579999Y-96227499D01*
X140758749Y-94677499D02*
X140535196Y-94453946D01*
X139279999Y-97777499D02*
X139279999Y-97997892D01*
X139843923Y-97427499D02*
X139579999Y-97427499D01*
X135909312Y-93576054D02*
X136436419Y-93048947D01*
X132473700Y-94022500D02*
X132473700Y-94103763D01*
X139579999Y-95627499D02*
X139843923Y-95627499D01*
X134623700Y-93722500D02*
X135555759Y-93722500D01*
X134273700Y-94103763D02*
X134273700Y-94022500D01*
X140181642Y-94307499D02*
X139779999Y-94307499D01*
X139579999Y-96827499D02*
X139843923Y-96827499D01*
X133073700Y-94103763D02*
X133073700Y-94022500D01*
X139279999Y-94807499D02*
X139279999Y-95327499D01*
X139279999Y-97727499D02*
X139279999Y-97777499D01*
X129173750Y-93722500D02*
X132173700Y-93722500D01*
X139426446Y-98351446D02*
X139649999Y-98574999D01*
X134573700Y-93722500D02*
X134623700Y-93722500D01*
X133673700Y-94103763D02*
G75*
G03*
X133973700Y-94403800I300000J-37D01*
G01*
X133073700Y-94022500D02*
G75*
G02*
X133373700Y-93722500I300000J0D01*
G01*
X132173700Y-93722500D02*
G75*
G02*
X132473700Y-94022500I0J-300000D01*
G01*
X139579999Y-97427499D02*
G75*
G03*
X139279999Y-97727499I1J-300001D01*
G01*
X132473700Y-94103763D02*
G75*
G03*
X132773700Y-94403800I300000J-37D01*
G01*
X133373700Y-93722500D02*
G75*
G02*
X133673700Y-94022500I0J-300000D01*
G01*
X134273700Y-94022500D02*
G75*
G02*
X134573700Y-93722500I300000J0D01*
G01*
X140143923Y-97127499D02*
G75*
G02*
X139843923Y-97427523I-300023J-1D01*
G01*
X139779999Y-94307499D02*
G75*
G03*
X139279999Y-94807499I1J-500001D01*
G01*
X140143923Y-95927499D02*
G75*
G02*
X139843923Y-96227523I-300023J-1D01*
G01*
X139279999Y-97997892D02*
G75*
G03*
X139426442Y-98351450I500001J-8D01*
G01*
X140535196Y-94453946D02*
G75*
G03*
X140181642Y-94307469I-353596J-353554D01*
G01*
X136436419Y-93048947D02*
G75*
G02*
X136789973Y-92902481I353581J-353553D01*
G01*
X139843923Y-95627499D02*
G75*
G02*
X140143901Y-95927499I-23J-300001D01*
G01*
X139279999Y-96527499D02*
G75*
G03*
X139579999Y-96827501I300001J-1D01*
G01*
X139579999Y-96227499D02*
G75*
G03*
X139279999Y-96527499I1J-300001D01*
G01*
X133973700Y-94403763D02*
G75*
G03*
X134273663Y-94103763I0J299963D01*
G01*
X139279999Y-95327499D02*
G75*
G03*
X139579999Y-95627501I300001J-1D01*
G01*
X139843923Y-96827499D02*
G75*
G02*
X140143901Y-97127499I-23J-300001D01*
G01*
X135555759Y-93722500D02*
G75*
G03*
X135909332Y-93576074I41J500000D01*
G01*
X132773700Y-94403763D02*
G75*
G03*
X133073663Y-94103763I0J299963D01*
G01*
%TO.N,D-*%
X137353747Y-92542503D02*
X136640854Y-92542503D01*
X129395000Y-92322500D02*
X129766643Y-92322500D01*
X140535195Y-93801053D02*
X140758749Y-93577499D01*
X138919999Y-97997893D02*
X138919999Y-94783499D01*
X136287301Y-92688949D02*
X135760197Y-93216053D01*
X135113750Y-93362500D02*
X131427964Y-93362500D01*
X137573750Y-92322500D02*
X137353747Y-92542503D01*
X135406643Y-93362500D02*
X135113750Y-93362500D01*
X130720857Y-93069607D02*
X130120196Y-92468946D01*
X139755999Y-93947499D02*
X140181642Y-93947499D01*
X138550000Y-98574999D02*
X138773553Y-98351446D01*
X129766643Y-92322500D02*
G75*
G02*
X130120174Y-92468968I-43J-500000D01*
G01*
X136640854Y-92542503D02*
G75*
G03*
X136287325Y-92688973I46J-499997D01*
G01*
X138919999Y-97997893D02*
G75*
G02*
X138773556Y-98351449I-499999J-7D01*
G01*
X135760197Y-93216053D02*
G75*
G02*
X135406643Y-93362531I-353597J353553D01*
G01*
X131427964Y-93362500D02*
G75*
G02*
X130720875Y-93069589I36J1000000D01*
G01*
X140181642Y-93947499D02*
G75*
G03*
X140535174Y-93801032I-42J499999D01*
G01*
X138919999Y-94783499D02*
G75*
G02*
X139755999Y-93947499I836001J-1D01*
G01*
%TD*%
%TA.AperFunction,Conductor*%
%TO.N,GND*%
G36*
X128560647Y-91028995D02*
G01*
X128589643Y-91098999D01*
X128572958Y-91154001D01*
X128487291Y-91282210D01*
X128487289Y-91282213D01*
X128487289Y-91282214D01*
X128448444Y-91477499D01*
X128487289Y-91672784D01*
X128597909Y-91838339D01*
X128763460Y-91948956D01*
X128763462Y-91948958D01*
X128763464Y-91948959D01*
X128864577Y-91969071D01*
X128927578Y-92011168D01*
X128942360Y-92085483D01*
X128927580Y-92121166D01*
X128923543Y-92127207D01*
X128923540Y-92127214D01*
X128896729Y-92262003D01*
X128884695Y-92322500D01*
X128923540Y-92517785D01*
X129034160Y-92683340D01*
X129199715Y-92793960D01*
X129395000Y-92832805D01*
X129590285Y-92793960D01*
X129755840Y-92683340D01*
X129760455Y-92676431D01*
X129823453Y-92634332D01*
X129897769Y-92649110D01*
X129903017Y-92652870D01*
X129916868Y-92663500D01*
X129926578Y-92672016D01*
X129967108Y-92712551D01*
X129967109Y-92712551D01*
X129975779Y-92721222D01*
X129975810Y-92721246D01*
X130527559Y-93272996D01*
X130556555Y-93343000D01*
X130527559Y-93413004D01*
X130457555Y-93442000D01*
X129641188Y-93442000D01*
X129571184Y-93413004D01*
X129558872Y-93398000D01*
X129534592Y-93361661D01*
X129369038Y-93251042D01*
X129369035Y-93251040D01*
X129173750Y-93212195D01*
X128978464Y-93251040D01*
X128978461Y-93251042D01*
X128812912Y-93361658D01*
X128812908Y-93361662D01*
X128702292Y-93527211D01*
X128702290Y-93527214D01*
X128674484Y-93667002D01*
X128663445Y-93722500D01*
X128702290Y-93917785D01*
X128812910Y-94083340D01*
X128812913Y-94083342D01*
X128856809Y-94112673D01*
X128898905Y-94175675D01*
X128884122Y-94249990D01*
X128856809Y-94277303D01*
X128797911Y-94316657D01*
X128797907Y-94316661D01*
X128687291Y-94482210D01*
X128687289Y-94482213D01*
X128651132Y-94663988D01*
X128648444Y-94677499D01*
X128687289Y-94872784D01*
X128797909Y-95038339D01*
X128963464Y-95148959D01*
X129158749Y-95187804D01*
X129354034Y-95148959D01*
X129519589Y-95038339D01*
X129630209Y-94872784D01*
X129669054Y-94677499D01*
X129630209Y-94482214D01*
X129519589Y-94316659D01*
X129519585Y-94316656D01*
X129519584Y-94316655D01*
X129475690Y-94287326D01*
X129433593Y-94224325D01*
X129448376Y-94150010D01*
X129475688Y-94122696D01*
X129534590Y-94083340D01*
X129534772Y-94083066D01*
X129558872Y-94047000D01*
X129621873Y-94004903D01*
X129641188Y-94003000D01*
X132094200Y-94003000D01*
X132164204Y-94031996D01*
X132193200Y-94102000D01*
X132193200Y-94169099D01*
X132193228Y-94169394D01*
X132193225Y-94195671D01*
X132193226Y-94195675D01*
X132250032Y-94370564D01*
X132250034Y-94370568D01*
X132328120Y-94478059D01*
X132358108Y-94519340D01*
X132506871Y-94627434D01*
X132681756Y-94684262D01*
X132698147Y-94684262D01*
X132698155Y-94684263D01*
X132709678Y-94684263D01*
X132732657Y-94684263D01*
X132732746Y-94684299D01*
X132773700Y-94684299D01*
X132773700Y-94684300D01*
X132865649Y-94684299D01*
X133040546Y-94627467D01*
X133189318Y-94519366D01*
X133293625Y-94375776D01*
X133358228Y-94336182D01*
X133431907Y-94353865D01*
X133453819Y-94375777D01*
X133558108Y-94519340D01*
X133706871Y-94627434D01*
X133881756Y-94684262D01*
X133898147Y-94684262D01*
X133898155Y-94684263D01*
X133909678Y-94684263D01*
X133932657Y-94684263D01*
X133932746Y-94684299D01*
X133973700Y-94684299D01*
X133973700Y-94684300D01*
X134065649Y-94684299D01*
X134240546Y-94627467D01*
X134389318Y-94519366D01*
X134497400Y-94370581D01*
X134554210Y-94195678D01*
X134554200Y-94103728D01*
X134554200Y-94102000D01*
X134583196Y-94031996D01*
X134653200Y-94003000D01*
X135621397Y-94003000D01*
X135621627Y-94002975D01*
X135658485Y-94002978D01*
X135658489Y-94002979D01*
X135658489Y-94002978D01*
X135658490Y-94002979D01*
X135856999Y-93949805D01*
X136034981Y-93847063D01*
X136059269Y-93822776D01*
X136059294Y-93822757D01*
X136068200Y-93813850D01*
X136068202Y-93813850D01*
X136099993Y-93782058D01*
X136107644Y-93774409D01*
X136152917Y-93729142D01*
X136152917Y-93729141D01*
X136162032Y-93720028D01*
X136162061Y-93719989D01*
X136580572Y-93301479D01*
X136580595Y-93301462D01*
X136589500Y-93292555D01*
X136589502Y-93292555D01*
X136630190Y-93251862D01*
X136639905Y-93243342D01*
X136669898Y-93220325D01*
X136692265Y-93207411D01*
X136721140Y-93195448D01*
X136746093Y-93188762D01*
X136764388Y-93186352D01*
X136783407Y-93183848D01*
X136796334Y-93183000D01*
X136994232Y-93183000D01*
X137064236Y-93211996D01*
X137091329Y-93262684D01*
X137102290Y-93317785D01*
X137102290Y-93317786D01*
X137102291Y-93317787D01*
X137211437Y-93481136D01*
X137212910Y-93483340D01*
X137378465Y-93593960D01*
X137573750Y-93632805D01*
X137769035Y-93593960D01*
X137934590Y-93483340D01*
X138045210Y-93317785D01*
X138084055Y-93122500D01*
X138045210Y-92927215D01*
X137945174Y-92777501D01*
X137930392Y-92703186D01*
X137945175Y-92667498D01*
X137945322Y-92667278D01*
X138045210Y-92517785D01*
X138084055Y-92322500D01*
X138045210Y-92127215D01*
X137934590Y-91961660D01*
X137769035Y-91851040D01*
X137573750Y-91812195D01*
X137378464Y-91851040D01*
X137378461Y-91851042D01*
X137212912Y-91961658D01*
X137212908Y-91961662D01*
X137102292Y-92127211D01*
X137102290Y-92127214D01*
X137091330Y-92182317D01*
X137049233Y-92245319D01*
X136994232Y-92262003D01*
X136716401Y-92262003D01*
X136716340Y-92261996D01*
X136681871Y-92261999D01*
X136681791Y-92261966D01*
X136538104Y-92261978D01*
X136538073Y-92261979D01*
X136505858Y-92270614D01*
X136339571Y-92315185D01*
X136161600Y-92417954D01*
X136161598Y-92417956D01*
X136092858Y-92486704D01*
X136092854Y-92486708D01*
X135614232Y-92965329D01*
X135614200Y-92965355D01*
X135566432Y-93013129D01*
X135556698Y-93021667D01*
X135526715Y-93044677D01*
X135504333Y-93057601D01*
X135475476Y-93069556D01*
X135450518Y-93076246D01*
X135423972Y-93079743D01*
X135413281Y-93081152D01*
X135400353Y-93082000D01*
X131434467Y-93082000D01*
X131421542Y-93081153D01*
X131371362Y-93074545D01*
X131254678Y-93059179D01*
X131229715Y-93052489D01*
X131080272Y-92990582D01*
X131057892Y-92977659D01*
X130924212Y-92875077D01*
X130914475Y-92866538D01*
X130898438Y-92850500D01*
X130873936Y-92825996D01*
X130873935Y-92825995D01*
X130866837Y-92818897D01*
X130866821Y-92818884D01*
X130326966Y-92279030D01*
X130326922Y-92278986D01*
X130304635Y-92256696D01*
X130304628Y-92256691D01*
X130272396Y-92224460D01*
X130272191Y-92224291D01*
X130245881Y-92197977D01*
X130245878Y-92197975D01*
X130067916Y-92095212D01*
X129968666Y-92068610D01*
X129869418Y-92042008D01*
X129869415Y-92042007D01*
X129862428Y-92042007D01*
X129792429Y-92013000D01*
X129780127Y-91998008D01*
X129755840Y-91961660D01*
X129590288Y-91851042D01*
X129590286Y-91851041D01*
X129590285Y-91851040D01*
X129489170Y-91830926D01*
X129426170Y-91788830D01*
X129411388Y-91714514D01*
X129426171Y-91678827D01*
X129430209Y-91672784D01*
X129469054Y-91477499D01*
X129430209Y-91282214D01*
X129344539Y-91154000D01*
X129329757Y-91079685D01*
X129371853Y-91016684D01*
X129426855Y-90999999D01*
X133972865Y-90999999D01*
X134042869Y-91028995D01*
X134071865Y-91098999D01*
X134058601Y-91148499D01*
X133987461Y-91271714D01*
X133955056Y-91392650D01*
X133929500Y-91488030D01*
X133929500Y-92111970D01*
X133961427Y-92231123D01*
X133987461Y-92328285D01*
X134099427Y-92522214D01*
X134099429Y-92522216D01*
X134099431Y-92522219D01*
X134257781Y-92680569D01*
X134257783Y-92680570D01*
X134257785Y-92680572D01*
X134451715Y-92792538D01*
X134451713Y-92792538D01*
X134451717Y-92792539D01*
X134451719Y-92792540D01*
X134668030Y-92850500D01*
X134668032Y-92850500D01*
X134891968Y-92850500D01*
X134891970Y-92850500D01*
X135108281Y-92792540D01*
X135108283Y-92792538D01*
X135108285Y-92792538D01*
X135302214Y-92680572D01*
X135302214Y-92680571D01*
X135302219Y-92680569D01*
X135460569Y-92522219D01*
X135463129Y-92517785D01*
X135572538Y-92328285D01*
X135572538Y-92328283D01*
X135572540Y-92328281D01*
X135630500Y-92111970D01*
X135630500Y-91488030D01*
X135572540Y-91271719D01*
X135572538Y-91271716D01*
X135572538Y-91271714D01*
X135501399Y-91148499D01*
X135491508Y-91073376D01*
X135537635Y-91013263D01*
X135587135Y-90999999D01*
X142612865Y-90999999D01*
X142682869Y-91028995D01*
X142711865Y-91098999D01*
X142698601Y-91148499D01*
X142627461Y-91271714D01*
X142595056Y-91392650D01*
X142569500Y-91488030D01*
X142569500Y-92111970D01*
X142601427Y-92231123D01*
X142627461Y-92328285D01*
X142739427Y-92522214D01*
X142739429Y-92522216D01*
X142739431Y-92522219D01*
X142897781Y-92680569D01*
X142897783Y-92680570D01*
X142897785Y-92680572D01*
X143091715Y-92792538D01*
X143091713Y-92792538D01*
X143091717Y-92792539D01*
X143091719Y-92792540D01*
X143308030Y-92850500D01*
X143308032Y-92850500D01*
X143531968Y-92850500D01*
X143531970Y-92850500D01*
X143748281Y-92792540D01*
X143748283Y-92792538D01*
X143748285Y-92792538D01*
X143942214Y-92680572D01*
X143942214Y-92680571D01*
X143942219Y-92680569D01*
X144100569Y-92522219D01*
X144103129Y-92517785D01*
X144212538Y-92328285D01*
X144212538Y-92328283D01*
X144212540Y-92328281D01*
X144270500Y-92111970D01*
X144270500Y-91488030D01*
X144212540Y-91271719D01*
X144212538Y-91271716D01*
X144212538Y-91271714D01*
X144141399Y-91148499D01*
X144131508Y-91073376D01*
X144177635Y-91013263D01*
X144227135Y-90999999D01*
X146892143Y-90999999D01*
X146892147Y-91000000D01*
X146911837Y-91000000D01*
X146996621Y-91000000D01*
X147003377Y-91000231D01*
X147537925Y-91036794D01*
X147551284Y-91038631D01*
X148072558Y-91146953D01*
X148085558Y-91150595D01*
X148587225Y-91328888D01*
X148599614Y-91334269D01*
X149072329Y-91579209D01*
X149083866Y-91586225D01*
X149518816Y-91893247D01*
X149529296Y-91901772D01*
X149607180Y-91974511D01*
X149918397Y-92265167D01*
X149927619Y-92275042D01*
X150017890Y-92385999D01*
X150263606Y-92688025D01*
X150271392Y-92699054D01*
X150376118Y-92871269D01*
X150548023Y-93153956D01*
X150554239Y-93165953D01*
X150766345Y-93654270D01*
X150770870Y-93667002D01*
X150895982Y-94113530D01*
X150908898Y-94159631D01*
X150914509Y-94179655D01*
X150917257Y-94192883D01*
X150973979Y-94605561D01*
X150989753Y-94720321D01*
X150990675Y-94733802D01*
X150990675Y-95266197D01*
X150989753Y-95279678D01*
X150917258Y-95807115D01*
X150914509Y-95820344D01*
X150770870Y-96332997D01*
X150766345Y-96345729D01*
X150554239Y-96834046D01*
X150548023Y-96846043D01*
X150271396Y-97300939D01*
X150263603Y-97311978D01*
X149927619Y-97724957D01*
X149918397Y-97734832D01*
X149529298Y-98098225D01*
X149518816Y-98106752D01*
X149083870Y-98413771D01*
X149072325Y-98420792D01*
X148599616Y-98665729D01*
X148587223Y-98671112D01*
X148085564Y-98849402D01*
X148072553Y-98853047D01*
X147551298Y-98961366D01*
X147537912Y-98963206D01*
X147003377Y-98999769D01*
X146996621Y-99000000D01*
X145852785Y-99000000D01*
X145782781Y-98971004D01*
X145753785Y-98901000D01*
X145764576Y-98856055D01*
X145846156Y-98695945D01*
X145846156Y-98695944D01*
X145846159Y-98695939D01*
X145880871Y-98476774D01*
X145846159Y-98257609D01*
X145846156Y-98257604D01*
X145846156Y-98257602D01*
X145745421Y-98059900D01*
X145745420Y-98059898D01*
X145588515Y-97902993D01*
X145588512Y-97902991D01*
X145390810Y-97802256D01*
X145390805Y-97802254D01*
X145390804Y-97802254D01*
X145171639Y-97767542D01*
X144952474Y-97802254D01*
X144952467Y-97802256D01*
X144754765Y-97902991D01*
X144597856Y-98059900D01*
X144497121Y-98257602D01*
X144497119Y-98257609D01*
X144462407Y-98476773D01*
X144462407Y-98476774D01*
X144497119Y-98695938D01*
X144497121Y-98695945D01*
X144578702Y-98856055D01*
X144584648Y-98931592D01*
X144535438Y-98989209D01*
X144490493Y-99000000D01*
X141028185Y-99000000D01*
X140958181Y-98971004D01*
X140929185Y-98901000D01*
X140945869Y-98845999D01*
X140946004Y-98845796D01*
X140996460Y-98770284D01*
X141035305Y-98574999D01*
X140996460Y-98379714D01*
X140885840Y-98214159D01*
X140720285Y-98103539D01*
X140525000Y-98064694D01*
X140329714Y-98103539D01*
X140329711Y-98103541D01*
X140164158Y-98214160D01*
X140157500Y-98220818D01*
X140087495Y-98249812D01*
X140017495Y-98220816D01*
X140010840Y-98214161D01*
X140010839Y-98214159D01*
X139845284Y-98103539D01*
X139649999Y-98064694D01*
X139649998Y-98064694D01*
X139640436Y-98062792D01*
X139641537Y-98057254D01*
X139589495Y-98035698D01*
X139560499Y-97965695D01*
X139560500Y-97933874D01*
X139560499Y-97933873D01*
X139560500Y-97925896D01*
X139560499Y-97925888D01*
X139560499Y-97806999D01*
X139589495Y-97736995D01*
X139659499Y-97707999D01*
X139768376Y-97707999D01*
X139768426Y-97708004D01*
X139779920Y-97708003D01*
X139779922Y-97708004D01*
X139802910Y-97708002D01*
X139802967Y-97708025D01*
X139843945Y-97708021D01*
X139843945Y-97708023D01*
X139935886Y-97708016D01*
X140110766Y-97651183D01*
X140259525Y-97543092D01*
X140367604Y-97394324D01*
X140424424Y-97219440D01*
X140424423Y-97127498D01*
X140424423Y-97063476D01*
X140424423Y-97052488D01*
X140424401Y-97052292D01*
X140424401Y-97035559D01*
X140424400Y-97035555D01*
X140367583Y-96860684D01*
X140367582Y-96860682D01*
X140259513Y-96711928D01*
X140259510Y-96711925D01*
X140259508Y-96711922D01*
X140259504Y-96711919D01*
X140115940Y-96607604D01*
X140076352Y-96542997D01*
X140094044Y-96469320D01*
X140115939Y-96447424D01*
X140259525Y-96343092D01*
X140367604Y-96194324D01*
X140424424Y-96019440D01*
X140424423Y-95927498D01*
X140424423Y-95863476D01*
X140424423Y-95852488D01*
X140424401Y-95852292D01*
X140424401Y-95835559D01*
X140424400Y-95835555D01*
X140367583Y-95660684D01*
X140367582Y-95660682D01*
X140259513Y-95511928D01*
X140259510Y-95511925D01*
X140259508Y-95511922D01*
X140144755Y-95428542D01*
X140110755Y-95403837D01*
X140067240Y-95389695D01*
X139979157Y-95361069D01*
X141314500Y-95361069D01*
X141314500Y-95538931D01*
X141360534Y-95710733D01*
X141449465Y-95864767D01*
X141575233Y-95990535D01*
X141729267Y-96079466D01*
X141901069Y-96125500D01*
X141901071Y-96125500D01*
X142078929Y-96125500D01*
X142078931Y-96125500D01*
X142250733Y-96079466D01*
X142404767Y-95990535D01*
X142500497Y-95894804D01*
X142570500Y-95865809D01*
X142640504Y-95894805D01*
X142669500Y-95964809D01*
X142669500Y-96628805D01*
X142691770Y-96711919D01*
X142720646Y-96819686D01*
X142819447Y-96990813D01*
X142819449Y-96990815D01*
X142819451Y-96990818D01*
X142959182Y-97130549D01*
X142959184Y-97130550D01*
X142959186Y-97130552D01*
X143130314Y-97229353D01*
X143130312Y-97229353D01*
X143130316Y-97229354D01*
X143130318Y-97229355D01*
X143321195Y-97280500D01*
X143321197Y-97280500D01*
X143518803Y-97280500D01*
X143518805Y-97280500D01*
X143709682Y-97229355D01*
X143709684Y-97229353D01*
X143709686Y-97229353D01*
X143880813Y-97130552D01*
X143880813Y-97130551D01*
X143880818Y-97130549D01*
X144020549Y-96990818D01*
X144030385Y-96973782D01*
X144119353Y-96819686D01*
X144119353Y-96819684D01*
X144119355Y-96819682D01*
X144170500Y-96628805D01*
X144170500Y-95331195D01*
X144119355Y-95140318D01*
X144119353Y-95140315D01*
X144119353Y-95140313D01*
X144038340Y-94999995D01*
X146501254Y-94999995D01*
X146501254Y-95000004D01*
X146539111Y-95335999D01*
X146539114Y-95336011D01*
X146650791Y-95655162D01*
X146650791Y-95655163D01*
X146830684Y-95941462D01*
X146830687Y-95941466D01*
X147069783Y-96180562D01*
X147069785Y-96180563D01*
X147069786Y-96180564D01*
X147332645Y-96345729D01*
X147356087Y-96360458D01*
X147483889Y-96405178D01*
X147675237Y-96472134D01*
X147675241Y-96472135D01*
X147675244Y-96472136D01*
X147675245Y-96472136D01*
X147675249Y-96472137D01*
X148011245Y-96509995D01*
X148011249Y-96509995D01*
X148011253Y-96509995D01*
X148347248Y-96472137D01*
X148347250Y-96472136D01*
X148347254Y-96472136D01*
X148349195Y-96471457D01*
X148407134Y-96451183D01*
X148666411Y-96360458D01*
X148952715Y-96180562D01*
X149191811Y-95941466D01*
X149371707Y-95655162D01*
X149483385Y-95336005D01*
X149483927Y-95331195D01*
X149521244Y-95000004D01*
X149521244Y-94999995D01*
X149483386Y-94664000D01*
X149483383Y-94663988D01*
X149419777Y-94482214D01*
X149371707Y-94344838D01*
X149354002Y-94316661D01*
X149191813Y-94058537D01*
X149191812Y-94058536D01*
X149191811Y-94058534D01*
X148952715Y-93819438D01*
X148952712Y-93819436D01*
X148952711Y-93819435D01*
X148666412Y-93639542D01*
X148347260Y-93527865D01*
X148347248Y-93527862D01*
X148011253Y-93490005D01*
X148011245Y-93490005D01*
X147675249Y-93527862D01*
X147675237Y-93527865D01*
X147356086Y-93639542D01*
X147356085Y-93639542D01*
X147069786Y-93819435D01*
X146830684Y-94058537D01*
X146650791Y-94344836D01*
X146650791Y-94344837D01*
X146539114Y-94663988D01*
X146539111Y-94664000D01*
X146501254Y-94999995D01*
X144038340Y-94999995D01*
X144020552Y-94969186D01*
X144020550Y-94969184D01*
X144020549Y-94969182D01*
X143880818Y-94829451D01*
X143880815Y-94829449D01*
X143880813Y-94829447D01*
X143709685Y-94730646D01*
X143709687Y-94730646D01*
X143586191Y-94697556D01*
X143518805Y-94679500D01*
X143321195Y-94679500D01*
X143253809Y-94697556D01*
X143130313Y-94730646D01*
X142959186Y-94829447D01*
X142819449Y-94969184D01*
X142741661Y-95103916D01*
X142681547Y-95150042D01*
X142606424Y-95140151D01*
X142570189Y-95103915D01*
X142532328Y-95038339D01*
X142530535Y-95035233D01*
X142404767Y-94909465D01*
X142250733Y-94820534D01*
X142078931Y-94774500D01*
X141901069Y-94774500D01*
X141729267Y-94820534D01*
X141575233Y-94909465D01*
X141449465Y-95035233D01*
X141360534Y-95189267D01*
X141314500Y-95361069D01*
X139979157Y-95361069D01*
X139935882Y-95347005D01*
X139935877Y-95347004D01*
X139908631Y-95347002D01*
X139908589Y-95346999D01*
X139899718Y-95346999D01*
X139843945Y-95346999D01*
X139768426Y-95346993D01*
X139768376Y-95346999D01*
X139659499Y-95346999D01*
X139589495Y-95318003D01*
X139560499Y-95247999D01*
X139560499Y-94817251D01*
X139562401Y-94797937D01*
X139573366Y-94742813D01*
X139588147Y-94707128D01*
X139613849Y-94668661D01*
X139641161Y-94641349D01*
X139679628Y-94615647D01*
X139715311Y-94600866D01*
X139770438Y-94589900D01*
X139789752Y-94587999D01*
X139844022Y-94587999D01*
X140149444Y-94587999D01*
X140219448Y-94616995D01*
X140241004Y-94669037D01*
X140246542Y-94667936D01*
X140248444Y-94677498D01*
X140248444Y-94677499D01*
X140287289Y-94872784D01*
X140397909Y-95038339D01*
X140563464Y-95148959D01*
X140758749Y-95187804D01*
X140954034Y-95148959D01*
X141119589Y-95038339D01*
X141230209Y-94872784D01*
X141269054Y-94677499D01*
X141230209Y-94482214D01*
X141119589Y-94316659D01*
X141119585Y-94316656D01*
X141119584Y-94316655D01*
X140959685Y-94209814D01*
X140917588Y-94146813D01*
X140932371Y-94072498D01*
X140959685Y-94045184D01*
X141102429Y-93949805D01*
X141119589Y-93938339D01*
X141230209Y-93772784D01*
X141269054Y-93577499D01*
X141230209Y-93382214D01*
X141119589Y-93216659D01*
X140954034Y-93106039D01*
X140758749Y-93067194D01*
X140563463Y-93106039D01*
X140563460Y-93106041D01*
X140397911Y-93216657D01*
X140397907Y-93216661D01*
X140287291Y-93382210D01*
X140287289Y-93382213D01*
X140287289Y-93382214D01*
X140258447Y-93527214D01*
X140246542Y-93587062D01*
X140241004Y-93585960D01*
X140219448Y-93638003D01*
X140149444Y-93666999D01*
X139630199Y-93666999D01*
X139384913Y-93722983D01*
X139384909Y-93722985D01*
X139158226Y-93832150D01*
X138961523Y-93989015D01*
X138961515Y-93989023D01*
X138804650Y-94185726D01*
X138695485Y-94412409D01*
X138695483Y-94412413D01*
X138639499Y-94657699D01*
X138639499Y-97925889D01*
X138639498Y-97925903D01*
X138639498Y-97933874D01*
X138639498Y-97933875D01*
X138639498Y-97965693D01*
X138610504Y-98035696D01*
X138558461Y-98057254D01*
X138559563Y-98062792D01*
X138550000Y-98064694D01*
X138452338Y-98084120D01*
X138354714Y-98103539D01*
X138354711Y-98103541D01*
X138189158Y-98214160D01*
X138182500Y-98220818D01*
X138112495Y-98249812D01*
X138042495Y-98220816D01*
X138035840Y-98214161D01*
X138035839Y-98214159D01*
X137870284Y-98103539D01*
X137674999Y-98064694D01*
X137479713Y-98103539D01*
X137479710Y-98103541D01*
X137314161Y-98214157D01*
X137314157Y-98214161D01*
X137203541Y-98379710D01*
X137203539Y-98379713D01*
X137164694Y-98574999D01*
X137203539Y-98770284D01*
X137203540Y-98770286D01*
X137254130Y-98845999D01*
X137268912Y-98920314D01*
X137226815Y-98983316D01*
X137171814Y-99000000D01*
X133618490Y-99000000D01*
X133548486Y-98971004D01*
X133519490Y-98901000D01*
X133530280Y-98856055D01*
X133599520Y-98720165D01*
X133634232Y-98501000D01*
X133599520Y-98281835D01*
X133599517Y-98281830D01*
X133599517Y-98281828D01*
X133498782Y-98084126D01*
X133498781Y-98084124D01*
X133341876Y-97927219D01*
X133341873Y-97927217D01*
X133144171Y-97826482D01*
X133144166Y-97826480D01*
X133144165Y-97826480D01*
X132925000Y-97791768D01*
X132705835Y-97826480D01*
X132705828Y-97826482D01*
X132508126Y-97927217D01*
X132351217Y-98084126D01*
X132250482Y-98281828D01*
X132250480Y-98281835D01*
X132215768Y-98500999D01*
X132215768Y-98501000D01*
X132250480Y-98720164D01*
X132250480Y-98720166D01*
X132276017Y-98770284D01*
X132318187Y-98853048D01*
X132319720Y-98856055D01*
X132325665Y-98931592D01*
X132276455Y-98989210D01*
X132231510Y-99000000D01*
X116003378Y-99000000D01*
X115996622Y-98999769D01*
X115462087Y-98963207D01*
X115448703Y-98961367D01*
X115251145Y-98920314D01*
X114927446Y-98853048D01*
X114914435Y-98849403D01*
X114412779Y-98671114D01*
X114400386Y-98665731D01*
X113927672Y-98420790D01*
X113916127Y-98413769D01*
X113481183Y-98106753D01*
X113470701Y-98098226D01*
X113455601Y-98084124D01*
X113153792Y-97802254D01*
X113081601Y-97734832D01*
X113072379Y-97724957D01*
X112803389Y-97394324D01*
X112736386Y-97311966D01*
X112728603Y-97300939D01*
X112451974Y-96846043D01*
X112445761Y-96834053D01*
X112356609Y-96628805D01*
X112244828Y-96371457D01*
X112233653Y-96345730D01*
X112229128Y-96332998D01*
X112192489Y-96202232D01*
X112085486Y-95820332D01*
X112082742Y-95807124D01*
X112010246Y-95279677D01*
X112009324Y-95266197D01*
X112009324Y-94999995D01*
X113490005Y-94999995D01*
X113490005Y-95000004D01*
X113527862Y-95335999D01*
X113527865Y-95336011D01*
X113639542Y-95655162D01*
X113639542Y-95655163D01*
X113819435Y-95941462D01*
X113819438Y-95941466D01*
X114058534Y-96180562D01*
X114058536Y-96180563D01*
X114058537Y-96180564D01*
X114321396Y-96345729D01*
X114344838Y-96360458D01*
X114472640Y-96405178D01*
X114663988Y-96472134D01*
X114663992Y-96472135D01*
X114663995Y-96472136D01*
X114663996Y-96472136D01*
X114664000Y-96472137D01*
X114999996Y-96509995D01*
X115000000Y-96509995D01*
X115000004Y-96509995D01*
X115335999Y-96472137D01*
X115336001Y-96472136D01*
X115336005Y-96472136D01*
X115337946Y-96471457D01*
X115395885Y-96451183D01*
X115655162Y-96360458D01*
X115941466Y-96180562D01*
X116122028Y-96000000D01*
X119689695Y-96000000D01*
X119728540Y-96195285D01*
X119839160Y-96360840D01*
X120004715Y-96471460D01*
X120200000Y-96510305D01*
X120395285Y-96471460D01*
X120502233Y-96400000D01*
X124990768Y-96400000D01*
X125013636Y-96544387D01*
X125025480Y-96619164D01*
X125025482Y-96619171D01*
X125126217Y-96816873D01*
X125126219Y-96816876D01*
X125283124Y-96973781D01*
X125283126Y-96973782D01*
X125480828Y-97074517D01*
X125480830Y-97074517D01*
X125480835Y-97074520D01*
X125700000Y-97109232D01*
X125919165Y-97074520D01*
X126116876Y-96973781D01*
X126273781Y-96816876D01*
X126374520Y-96619165D01*
X126409232Y-96400000D01*
X126374520Y-96180835D01*
X126374517Y-96180830D01*
X126374517Y-96180828D01*
X126273782Y-95983126D01*
X126273781Y-95983124D01*
X126190657Y-95900000D01*
X131089695Y-95900000D01*
X131128540Y-96095285D01*
X131239160Y-96260840D01*
X131404715Y-96371460D01*
X131600000Y-96410305D01*
X131795285Y-96371460D01*
X131944998Y-96271424D01*
X132019314Y-96256642D01*
X132055000Y-96271424D01*
X132204715Y-96371460D01*
X132400000Y-96410305D01*
X132595285Y-96371460D01*
X132760840Y-96260840D01*
X132871460Y-96095285D01*
X132910305Y-95900000D01*
X132871460Y-95704715D01*
X132760840Y-95539160D01*
X132595285Y-95428540D01*
X132400000Y-95389695D01*
X132204714Y-95428540D01*
X132204712Y-95428541D01*
X132055001Y-95528575D01*
X131980686Y-95543357D01*
X131944999Y-95528575D01*
X131795287Y-95428541D01*
X131795285Y-95428540D01*
X131600000Y-95389695D01*
X131404714Y-95428540D01*
X131404711Y-95428542D01*
X131239162Y-95539158D01*
X131239158Y-95539162D01*
X131128542Y-95704711D01*
X131128540Y-95704714D01*
X131104371Y-95826219D01*
X131089695Y-95900000D01*
X126190657Y-95900000D01*
X126116876Y-95826219D01*
X126116873Y-95826217D01*
X125919171Y-95725482D01*
X125919166Y-95725480D01*
X125919165Y-95725480D01*
X125700000Y-95690768D01*
X125480835Y-95725480D01*
X125480828Y-95725482D01*
X125283126Y-95826217D01*
X125126217Y-95983126D01*
X125025482Y-96180828D01*
X125025480Y-96180835D01*
X124999364Y-96345729D01*
X124990768Y-96400000D01*
X120502233Y-96400000D01*
X120560840Y-96360840D01*
X120671460Y-96195285D01*
X120710305Y-96000000D01*
X120671460Y-95804715D01*
X120560840Y-95639160D01*
X120395285Y-95528540D01*
X120200000Y-95489695D01*
X120004714Y-95528540D01*
X120004711Y-95528542D01*
X119839162Y-95639158D01*
X119839158Y-95639162D01*
X119728542Y-95804711D01*
X119728540Y-95804714D01*
X119706056Y-95917750D01*
X119689695Y-96000000D01*
X116122028Y-96000000D01*
X116180562Y-95941466D01*
X116360458Y-95655162D01*
X116472136Y-95336005D01*
X116472678Y-95331195D01*
X134029500Y-95331195D01*
X134029500Y-96628805D01*
X134051770Y-96711919D01*
X134080646Y-96819686D01*
X134179447Y-96990813D01*
X134179449Y-96990815D01*
X134179451Y-96990818D01*
X134319182Y-97130549D01*
X134319184Y-97130550D01*
X134319186Y-97130552D01*
X134490314Y-97229353D01*
X134490312Y-97229353D01*
X134490316Y-97229354D01*
X134490318Y-97229355D01*
X134681195Y-97280500D01*
X134681197Y-97280500D01*
X134878803Y-97280500D01*
X134878805Y-97280500D01*
X135069682Y-97229355D01*
X135069684Y-97229353D01*
X135069686Y-97229353D01*
X135240813Y-97130552D01*
X135240813Y-97130551D01*
X135240818Y-97130549D01*
X135380549Y-96990818D01*
X135390385Y-96973782D01*
X135479353Y-96819686D01*
X135479353Y-96819684D01*
X135479355Y-96819682D01*
X135530500Y-96628805D01*
X135530500Y-95964809D01*
X135559496Y-95894805D01*
X135629500Y-95865809D01*
X135699502Y-95894804D01*
X135795233Y-95990535D01*
X135949267Y-96079466D01*
X136121069Y-96125500D01*
X136121071Y-96125500D01*
X136298929Y-96125500D01*
X136298931Y-96125500D01*
X136470733Y-96079466D01*
X136624767Y-95990535D01*
X136750535Y-95864767D01*
X136839466Y-95710733D01*
X136885500Y-95538931D01*
X136885500Y-95361069D01*
X136839466Y-95189267D01*
X136750535Y-95035233D01*
X136624767Y-94909465D01*
X136470733Y-94820534D01*
X136298931Y-94774500D01*
X136121069Y-94774500D01*
X135949267Y-94820534D01*
X135795233Y-94909465D01*
X135669464Y-95035234D01*
X135629810Y-95103916D01*
X135569696Y-95150042D01*
X135494573Y-95140151D01*
X135458338Y-95103915D01*
X135380552Y-94969186D01*
X135380550Y-94969184D01*
X135380549Y-94969182D01*
X135240818Y-94829451D01*
X135240815Y-94829449D01*
X135240813Y-94829447D01*
X135069685Y-94730646D01*
X135069687Y-94730646D01*
X134946191Y-94697556D01*
X134878805Y-94679500D01*
X134681195Y-94679500D01*
X134613809Y-94697556D01*
X134490313Y-94730646D01*
X134319186Y-94829447D01*
X134179447Y-94969186D01*
X134080646Y-95140313D01*
X134067921Y-95187804D01*
X134029500Y-95331195D01*
X116472678Y-95331195D01*
X116509995Y-95000004D01*
X116509995Y-94999995D01*
X116472137Y-94664000D01*
X116472134Y-94663988D01*
X116408528Y-94482214D01*
X116360458Y-94344838D01*
X116342753Y-94316661D01*
X116180564Y-94058537D01*
X116180563Y-94058536D01*
X116180562Y-94058534D01*
X115941466Y-93819438D01*
X115941463Y-93819436D01*
X115941462Y-93819435D01*
X115655163Y-93639542D01*
X115336011Y-93527865D01*
X115335999Y-93527862D01*
X115000004Y-93490005D01*
X114999996Y-93490005D01*
X114664000Y-93527862D01*
X114663988Y-93527865D01*
X114344837Y-93639542D01*
X114344836Y-93639542D01*
X114058537Y-93819435D01*
X113819435Y-94058537D01*
X113639542Y-94344836D01*
X113639542Y-94344837D01*
X113527865Y-94663988D01*
X113527862Y-94664000D01*
X113490005Y-94999995D01*
X112009324Y-94999995D01*
X112009324Y-94733802D01*
X112010246Y-94720322D01*
X112024633Y-94615648D01*
X112082742Y-94192872D01*
X112085485Y-94179670D01*
X112229128Y-93666998D01*
X112233653Y-93654269D01*
X112240050Y-93639542D01*
X112445766Y-93165935D01*
X112451972Y-93153959D01*
X112728610Y-92699049D01*
X112736381Y-92688040D01*
X113072384Y-92275035D01*
X113081595Y-92265172D01*
X113470710Y-91901765D01*
X113481173Y-91893253D01*
X113916131Y-91586227D01*
X113927672Y-91579209D01*
X114400386Y-91334268D01*
X114412779Y-91328885D01*
X114914444Y-91150593D01*
X114927437Y-91146953D01*
X115448717Y-91038629D01*
X115462072Y-91036794D01*
X115996622Y-91000230D01*
X116003378Y-90999999D01*
X128490643Y-90999999D01*
X128560647Y-91028995D01*
G37*
%TD.AperFunction*%
%TD*%
M02*
