%TF.GenerationSoftware,KiCad,Pcbnew,8.0.4*%
%TF.CreationDate,2024-09-08T22:21:22-07:00*%
%TF.ProjectId,65-wkl-pcb,36352d77-6b6c-42d7-9063-622e6b696361,rev?*%
%TF.SameCoordinates,Original*%
%TF.FileFunction,Paste,Bot*%
%TF.FilePolarity,Positive*%
%FSLAX46Y46*%
G04 Gerber Fmt 4.6, Leading zero omitted, Abs format (unit mm)*
G04 Created by KiCad (PCBNEW 8.0.4) date 2024-09-08 22:21:22*
%MOMM*%
%LPD*%
G01*
G04 APERTURE LIST*
G04 Aperture macros list*
%AMRoundRect*
0 Rectangle with rounded corners*
0 $1 Rounding radius*
0 $2 $3 $4 $5 $6 $7 $8 $9 X,Y pos of 4 corners*
0 Add a 4 corners polygon primitive as box body*
4,1,4,$2,$3,$4,$5,$6,$7,$8,$9,$2,$3,0*
0 Add four circle primitives for the rounded corners*
1,1,$1+$1,$2,$3*
1,1,$1+$1,$4,$5*
1,1,$1+$1,$6,$7*
1,1,$1+$1,$8,$9*
0 Add four rect primitives between the rounded corners*
20,1,$1+$1,$2,$3,$4,$5,0*
20,1,$1+$1,$4,$5,$6,$7,0*
20,1,$1+$1,$6,$7,$8,$9,0*
20,1,$1+$1,$8,$9,$2,$3,0*%
%AMRotRect*
0 Rectangle, with rotation*
0 The origin of the aperture is its center*
0 $1 length*
0 $2 width*
0 $3 Rotation angle, in degrees counterclockwise*
0 Add horizontal line*
21,1,$1,$2,0,0,$3*%
G04 Aperture macros list end*
%ADD10RoundRect,0.225000X0.375000X-0.225000X0.375000X0.225000X-0.375000X0.225000X-0.375000X-0.225000X0*%
%ADD11RoundRect,0.150000X0.150000X-0.512500X0.150000X0.512500X-0.150000X0.512500X-0.150000X-0.512500X0*%
%ADD12RoundRect,0.135000X-0.135000X-0.185000X0.135000X-0.185000X0.135000X0.185000X-0.135000X0.185000X0*%
%ADD13RoundRect,0.135000X0.135000X0.185000X-0.135000X0.185000X-0.135000X-0.185000X0.135000X-0.185000X0*%
%ADD14RoundRect,0.140000X0.170000X-0.140000X0.170000X0.140000X-0.170000X0.140000X-0.170000X-0.140000X0*%
%ADD15RoundRect,0.135000X0.185000X-0.135000X0.185000X0.135000X-0.185000X0.135000X-0.185000X-0.135000X0*%
%ADD16RoundRect,0.140000X0.021213X-0.219203X0.219203X-0.021213X-0.021213X0.219203X-0.219203X0.021213X0*%
%ADD17RoundRect,0.140000X0.219203X0.021213X0.021213X0.219203X-0.219203X-0.021213X-0.021213X-0.219203X0*%
%ADD18R,1.700000X1.000000*%
%ADD19RoundRect,0.140000X0.140000X0.170000X-0.140000X0.170000X-0.140000X-0.170000X0.140000X-0.170000X0*%
%ADD20RoundRect,0.135000X-0.185000X0.135000X-0.185000X-0.135000X0.185000X-0.135000X0.185000X0.135000X0*%
%ADD21RoundRect,0.175000X-0.175000X-0.225000X0.175000X-0.225000X0.175000X0.225000X-0.175000X0.225000X0*%
%ADD22RoundRect,0.150000X-0.150000X-0.275000X0.150000X-0.275000X0.150000X0.275000X-0.150000X0.275000X0*%
%ADD23RoundRect,0.140000X-0.170000X0.140000X-0.170000X-0.140000X0.170000X-0.140000X0.170000X0.140000X0*%
%ADD24RoundRect,0.140000X-0.140000X-0.170000X0.140000X-0.170000X0.140000X0.170000X-0.140000X0.170000X0*%
%ADD25RotRect,1.400000X1.200000X45.000000*%
%ADD26RoundRect,0.150000X0.650000X0.150000X-0.650000X0.150000X-0.650000X-0.150000X0.650000X-0.150000X0*%
%ADD27RoundRect,0.050000X0.050000X0.387500X-0.050000X0.387500X-0.050000X-0.387500X0.050000X-0.387500X0*%
%ADD28RoundRect,0.050000X0.387500X0.050000X-0.387500X0.050000X-0.387500X-0.050000X0.387500X-0.050000X0*%
%ADD29RoundRect,0.249999X0.395001X0.395001X-0.395001X0.395001X-0.395001X-0.395001X0.395001X-0.395001X0*%
%ADD30RoundRect,0.225000X0.225000X0.250000X-0.225000X0.250000X-0.225000X-0.250000X0.225000X-0.250000X0*%
G04 APERTURE END LIST*
D10*
%TO.C,D53*%
X223043750Y-80900000D03*
X223043750Y-84200000D03*
%TD*%
%TO.C,D41*%
X251618750Y-61850000D03*
X251618750Y-65150000D03*
%TD*%
%TO.C,D43*%
X313531250Y-61850000D03*
X313531250Y-65150000D03*
%TD*%
D11*
%TO.C,U1*%
X102347130Y-52043750D03*
X101397131Y-54318750D03*
X103297129Y-54318750D03*
%TD*%
D12*
%TO.C,R4*%
X130953749Y-73050000D03*
X129933751Y-73050000D03*
%TD*%
D10*
%TO.C,D8*%
X161131250Y-23750000D03*
X161131250Y-27050000D03*
%TD*%
D13*
%TO.C,R5*%
X129933751Y-74250000D03*
X130953749Y-74250000D03*
%TD*%
D10*
%TO.C,D10*%
X199231250Y-23750000D03*
X199231250Y-27050000D03*
%TD*%
%TO.C,D46*%
X89693750Y-80900000D03*
X89693750Y-84200000D03*
%TD*%
%TO.C,D18*%
X94456250Y-42800000D03*
X94456250Y-46100000D03*
%TD*%
D14*
%TO.C,C16*%
X128213359Y-87087400D03*
X128213359Y-88047400D03*
%TD*%
D10*
%TO.C,D48*%
X127793750Y-80900000D03*
X127793750Y-84200000D03*
%TD*%
%TO.C,D35*%
X137318750Y-61850000D03*
X137318750Y-65150000D03*
%TD*%
%TO.C,D30*%
X34925000Y-61850000D03*
X34925000Y-65150000D03*
%TD*%
%TO.C,D25*%
X227806250Y-42800000D03*
X227806250Y-46100000D03*
%TD*%
%TO.C,D38*%
X194468750Y-61850000D03*
X194468750Y-65150000D03*
%TD*%
%TO.C,D24*%
X208756250Y-42800000D03*
X208756250Y-46100000D03*
%TD*%
%TO.C,D56*%
X294481250Y-80900000D03*
X294481250Y-84200000D03*
%TD*%
%TO.C,D63*%
X294481250Y-99950000D03*
X294481250Y-103250000D03*
%TD*%
%TO.C,D11*%
X218281250Y-23750000D03*
X218281250Y-27050000D03*
%TD*%
D15*
%TO.C,R9*%
X128910755Y-103561188D03*
X128910755Y-104581186D03*
%TD*%
D10*
%TO.C,D17*%
X75406250Y-42800000D03*
X75406250Y-46100000D03*
%TD*%
D14*
%TO.C,C13*%
X129244743Y-87096067D03*
X129244743Y-88056067D03*
%TD*%
D10*
%TO.C,D42*%
X282575000Y-61850000D03*
X282575000Y-65150000D03*
%TD*%
%TO.C,D37*%
X175418750Y-61850000D03*
X175418750Y-65150000D03*
%TD*%
%TO.C,D34*%
X118268750Y-61850000D03*
X118268750Y-65150000D03*
%TD*%
%TO.C,D23*%
X189706250Y-42800000D03*
X189706250Y-46100000D03*
%TD*%
D16*
%TO.C,C11*%
X133420822Y-107212713D03*
X132742000Y-107891535D03*
%TD*%
D17*
%TO.C,C12*%
X128773250Y-107327641D03*
X129452072Y-108006463D03*
%TD*%
D18*
%TO.C,RST1*%
X110356250Y-103500000D03*
X116656250Y-103500000D03*
X110356250Y-99700000D03*
X116656250Y-99700000D03*
%TD*%
D10*
%TO.C,D19*%
X113506250Y-42800000D03*
X113506250Y-46100000D03*
%TD*%
%TO.C,D40*%
X232568750Y-61850000D03*
X232568750Y-65150000D03*
%TD*%
%TO.C,D61*%
X237331250Y-99950000D03*
X237331250Y-103250000D03*
%TD*%
%TO.C,D21*%
X151606250Y-42800000D03*
X151606250Y-46100000D03*
%TD*%
%TO.C,D14*%
X284956250Y-23750000D03*
X284956250Y-27050000D03*
%TD*%
%TO.C,D29*%
X313531250Y-42800000D03*
X313531250Y-46100000D03*
%TD*%
%TO.C,D55*%
X268287500Y-80900000D03*
X268287500Y-84200000D03*
%TD*%
D14*
%TO.C,C1*%
X104775000Y-50320000D03*
X104775000Y-51280000D03*
%TD*%
D10*
%TO.C,D22*%
X170656250Y-42800000D03*
X170656250Y-46100000D03*
%TD*%
%TO.C,D13*%
X256381250Y-23750000D03*
X256381250Y-27050000D03*
%TD*%
%TO.C,D44*%
X39687500Y-80900000D03*
X39687500Y-84200000D03*
%TD*%
D19*
%TO.C,C6*%
X121757500Y-93662500D03*
X122717500Y-93662500D03*
%TD*%
D10*
%TO.C,D62*%
X275431250Y-99950000D03*
X275431250Y-103250000D03*
%TD*%
%TO.C,D47*%
X108743750Y-80900000D03*
X108743750Y-84200000D03*
%TD*%
D20*
%TO.C,R8*%
X126079493Y-88106250D03*
X126079493Y-87086250D03*
%TD*%
D10*
%TO.C,D12*%
X237331250Y-23750000D03*
X237331250Y-27050000D03*
%TD*%
%TO.C,D5*%
X103981250Y-23750000D03*
X103981250Y-27050000D03*
%TD*%
D19*
%TO.C,C10*%
X132787120Y-86195460D03*
X133747120Y-86195460D03*
%TD*%
D10*
%TO.C,D31*%
X61118750Y-61850000D03*
X61118750Y-65150000D03*
%TD*%
%TO.C,D32*%
X80168750Y-61850000D03*
X80168750Y-65150000D03*
%TD*%
D21*
%TO.C,J4*%
X122806250Y-48900000D03*
X116906250Y-48900000D03*
D22*
X121656250Y-52675000D03*
X120456250Y-52675000D03*
X119256250Y-52675000D03*
X118056250Y-52675000D03*
%TD*%
D23*
%TO.C,C4*%
X126726648Y-104512185D03*
X126726648Y-103552185D03*
%TD*%
D24*
%TO.C,C8*%
X133576808Y-94235894D03*
X132616808Y-94235894D03*
%TD*%
D10*
%TO.C,D59*%
X80168750Y-99950000D03*
X80168750Y-103250000D03*
%TD*%
%TO.C,D52*%
X203993750Y-80900000D03*
X203993750Y-84200000D03*
%TD*%
D25*
%TO.C,Y1*%
X131039572Y-107212713D03*
X132595207Y-105657078D03*
X131393126Y-104454997D03*
X129837491Y-106010632D03*
%TD*%
D10*
%TO.C,D27*%
X265906250Y-42800000D03*
X265906250Y-46100000D03*
%TD*%
%TO.C,D3*%
X65881250Y-23750000D03*
X65881250Y-27050000D03*
%TD*%
D14*
%TO.C,C3*%
X125554085Y-90588161D03*
X125554085Y-91548161D03*
%TD*%
D10*
%TO.C,D54*%
X242093750Y-80900000D03*
X242093750Y-84200000D03*
%TD*%
%TO.C,D50*%
X165893750Y-80900000D03*
X165893750Y-84200000D03*
%TD*%
D18*
%TO.C,BOOT1*%
X133243751Y-74337500D03*
X139543749Y-74337500D03*
X133243751Y-70537500D03*
X139543749Y-70537500D03*
%TD*%
D10*
%TO.C,D51*%
X184943750Y-80900000D03*
X184943750Y-84200000D03*
%TD*%
D14*
%TO.C,C7*%
X124428827Y-90573891D03*
X124428827Y-91533891D03*
%TD*%
D10*
%TO.C,D4*%
X84931250Y-23750000D03*
X84931250Y-27050000D03*
%TD*%
%TO.C,D45*%
X70643750Y-80900000D03*
X70643750Y-84200000D03*
%TD*%
%TO.C,D26*%
X246856250Y-42800000D03*
X246856250Y-46100000D03*
%TD*%
D13*
%TO.C,R3*%
X129933751Y-71850000D03*
X130953749Y-71850000D03*
%TD*%
D19*
%TO.C,C15*%
X122087313Y-97837072D03*
X123047313Y-97837072D03*
%TD*%
D10*
%TO.C,D33*%
X99218750Y-61850000D03*
X99218750Y-65150000D03*
%TD*%
%TO.C,D7*%
X142081250Y-23750000D03*
X142081250Y-27050000D03*
%TD*%
%TO.C,D58*%
X32543750Y-99950000D03*
X32543750Y-103250000D03*
%TD*%
%TO.C,D20*%
X132556250Y-42800000D03*
X132556250Y-46100000D03*
%TD*%
%TO.C,D39*%
X213518750Y-61850000D03*
X213518750Y-65150000D03*
%TD*%
%TO.C,D9*%
X180181250Y-23750000D03*
X180181250Y-27050000D03*
%TD*%
D26*
%TO.C,U4*%
X136100000Y-86201250D03*
X136100000Y-87471250D03*
X136100000Y-88741250D03*
X136100000Y-90011250D03*
X143300000Y-90011250D03*
X143300000Y-88741250D03*
X143300000Y-87471250D03*
X143300000Y-86201250D03*
%TD*%
D10*
%TO.C,D49*%
X146843750Y-80900000D03*
X146843750Y-84200000D03*
%TD*%
D20*
%TO.C,R7*%
X127152046Y-88106250D03*
X127152046Y-87086250D03*
%TD*%
D24*
%TO.C,C2*%
X102827130Y-56356250D03*
X101867130Y-56356250D03*
%TD*%
D10*
%TO.C,D1*%
X27781250Y-23750000D03*
X27781250Y-27050000D03*
%TD*%
D24*
%TO.C,C9*%
X133585462Y-97834364D03*
X132625462Y-97834364D03*
%TD*%
D10*
%TO.C,D57*%
X313531250Y-80900000D03*
X313531250Y-84200000D03*
%TD*%
%TO.C,D6*%
X123031250Y-23750000D03*
X123031250Y-27050000D03*
%TD*%
%TO.C,D64*%
X313531250Y-99950000D03*
X313531250Y-103250000D03*
%TD*%
D27*
%TO.C,U3*%
X130393750Y-93400000D03*
X129993750Y-93400000D03*
X129593750Y-93400000D03*
X129193750Y-93400000D03*
X128793750Y-93400000D03*
X128393750Y-93400000D03*
X127993750Y-93400000D03*
X127593750Y-93400000D03*
X127193750Y-93400000D03*
X126793750Y-93400000D03*
X126393750Y-93400000D03*
X125993750Y-93400000D03*
X125593750Y-93400000D03*
X125193750Y-93400000D03*
D28*
X124356250Y-94237500D03*
X124356250Y-94637500D03*
X124356250Y-95037500D03*
X124356250Y-95437500D03*
X124356250Y-95837500D03*
X124356250Y-96237500D03*
X124356250Y-96637500D03*
X124356250Y-97037500D03*
X124356250Y-97437500D03*
X124356250Y-97837500D03*
X124356250Y-98237500D03*
X124356250Y-98637500D03*
X124356250Y-99037500D03*
X124356250Y-99437500D03*
D27*
X125193750Y-100275000D03*
X125593750Y-100275000D03*
X125993750Y-100275000D03*
X126393750Y-100275000D03*
X126793750Y-100275000D03*
X127193750Y-100275000D03*
X127593750Y-100275000D03*
X127993750Y-100275000D03*
X128393750Y-100275000D03*
X128793750Y-100275000D03*
X129193750Y-100275000D03*
X129593750Y-100275000D03*
X129993750Y-100275000D03*
X130393750Y-100275000D03*
D28*
X131231250Y-99437500D03*
X131231250Y-99037500D03*
X131231250Y-98637500D03*
X131231250Y-98237500D03*
X131231250Y-97837500D03*
X131231250Y-97437500D03*
X131231250Y-97037500D03*
X131231250Y-96637500D03*
X131231250Y-96237500D03*
X131231250Y-95837500D03*
X131231250Y-95437500D03*
X131231250Y-95037500D03*
X131231250Y-94637500D03*
X131231250Y-94237500D03*
D29*
X126993750Y-96037500D03*
X126993750Y-97637500D03*
X128593750Y-96037500D03*
X128593750Y-97637500D03*
%TD*%
D20*
%TO.C,R6*%
X118437555Y-102980838D03*
X118437555Y-101960840D03*
%TD*%
D10*
%TO.C,D28*%
X289718750Y-42800000D03*
X289718750Y-46100000D03*
%TD*%
%TO.C,D60*%
X161131250Y-99950000D03*
X161131250Y-103250000D03*
%TD*%
%TO.C,D2*%
X46831250Y-23750000D03*
X46831250Y-27050000D03*
%TD*%
%TO.C,D36*%
X156368750Y-61850000D03*
X156368750Y-65150000D03*
%TD*%
D30*
%TO.C,C5*%
X111937500Y-79375000D03*
X113487500Y-79375000D03*
%TD*%
D10*
%TO.C,D15*%
X32543750Y-42800000D03*
X32543750Y-46100000D03*
%TD*%
%TO.C,D16*%
X56356250Y-42800000D03*
X56356250Y-46100000D03*
%TD*%
D23*
%TO.C,C14*%
X127799200Y-104518685D03*
X127799200Y-103558685D03*
%TD*%
M02*
