M48
; DRILL file {KiCad 8.0.4} date 2024-09-08T22:21:26-0700
; FORMAT={-:-/ absolute / inch / decimal}
; #@! TF.CreationDate,2024-09-08T22:21:26-07:00
; #@! TF.GenerationSoftware,Kicad,Pcbnew,8.0.4
; #@! TF.FileFunction,Plated,1,2,PTH
FMAT,2
INCH
; #@! TA.AperFunction,Plated,PTH,ViaDrill
T1C0.0118
; #@! TA.AperFunction,Plated,PTH,ComponentDrill
T2C0.0394
; #@! TA.AperFunction,Plated,PTH,ComponentDrill
T3C0.0600
; #@! TA.AperFunction,Plated,PTH,ComponentDrill
T4C0.1200
%
G90
G05
T1
X3.5312Y-4.0625
X3.9897Y-2.5648
X4.0981Y-1.9452
X4.0981Y-2.1361
X4.0987Y-2.1961
X4.2188Y-2.5625
X4.4062Y-3.0625
X4.4062Y-3.3125
X4.4688Y-3.9375
X4.5Y-3.6875
X4.6261Y-3.7177
X4.7005Y-4.1117
X4.7188Y-3.3125
X4.7526Y-3.6853
X4.7562Y-3.275
X4.763Y-3.853
X4.7905Y-2.1329
X4.8659Y-3.6471
X4.9201Y-3.5365
X4.9376Y-4.1251
X4.9683Y-3.5938
X4.9919Y-3.7731
X4.9919Y-3.8519
X5.0114Y-4.1489
X5.0312Y-3.8125
X5.0686Y-3.3949
X5.0706Y-3.7731
X5.0706Y-3.8519
X5.0801Y-4.0117
X5.1239Y-3.4364
X5.125Y-4.0644
X5.125Y-4.281
X5.1419Y-3.4062
X5.1875Y-3.375
X5.2008Y-4.2746
X5.2188Y-3.6562
X5.25Y-3.3125
X5.2994Y-3.7091
X5.302Y-3.8531
X5.4636Y-4.0625
X5.4688Y-4.0
X5.5312Y-3.3125
X5.5667Y-3.5448
X6.7812Y-3.2812
X6.8438Y-3.9375
X7.4375Y-3.3125
X7.625Y-3.3125
X7.8438Y-3.0
X8.25Y-3.1875
X9.0312Y-3.1562
X10.125Y-4.0312
X11.1562Y-3.9062
T2
X4.4321Y-4.2606
X4.5321Y-4.2606
X4.6321Y-4.2606
X4.7321Y-4.2606
X4.8321Y-4.2606
T3
X0.8187Y-0.8688
X1.0062Y-1.6187
X1.0062Y-3.8687
X1.0687Y-0.7687
X1.1Y-2.3687
X1.2562Y-1.5188
X1.2562Y-3.7687
X1.2875Y-3.1187
X1.35Y-2.2687
X1.5375Y-3.0187
X1.5687Y-0.8688
X1.8187Y-0.7687
X1.9437Y-1.6187
X2.1313Y-2.3687
X2.1938Y-1.5188
X2.3188Y-0.8688
X2.3813Y-2.2687
X2.5063Y-3.1187
X2.5688Y-0.7687
X2.6938Y-1.6187
X2.7563Y-3.0187
X2.8813Y-2.3687
X2.8813Y-3.8687
X2.9438Y-1.5188
X3.0688Y-0.8688
X3.1313Y-2.2687
X3.1313Y-3.7687
X3.2563Y-3.1187
X3.3188Y-0.7687
X3.4438Y-1.6187
X3.5063Y-3.0187
X3.6313Y-2.3687
X3.6938Y-1.5188
X3.8188Y-0.8688
X3.8813Y-2.2687
X4.0062Y-3.1187
X4.0687Y-0.7687
X4.1937Y-1.6187
X4.2562Y-3.0187
X4.3812Y-2.3687
X4.4437Y-1.5188
X4.5687Y-0.8688
X4.6312Y-2.2687
X4.7562Y-3.1187
X4.8187Y-0.7687
X4.9437Y-1.6187
X5.0062Y-3.0187
X5.1312Y-2.3687
X5.1937Y-1.5188
X5.3187Y-0.8688
X5.3812Y-2.2687
X5.5062Y-3.1187
X5.5687Y-0.7687
X5.6937Y-1.6187
X5.7562Y-3.0187
X5.8812Y-2.3687
X5.9437Y-1.5188
X6.0687Y-0.8688
X6.0687Y-3.8687
X6.1312Y-2.2687
X6.2562Y-3.1187
X6.3187Y-0.7687
X6.3187Y-3.7687
X6.4437Y-1.6187
X6.5062Y-3.0187
X6.6312Y-2.3687
X6.6937Y-1.5188
X6.8187Y-0.8688
X6.8812Y-2.2687
X7.0062Y-3.1187
X7.0687Y-0.7687
X7.1937Y-1.6187
X7.2562Y-3.0187
X7.3812Y-2.3687
X7.4437Y-1.5188
X7.5687Y-0.8688
X7.6312Y-2.2687
X7.7562Y-3.1187
X7.8187Y-0.7687
X7.9437Y-1.6187
X8.0062Y-3.0187
X8.1312Y-2.3687
X8.1937Y-1.5188
X8.3187Y-0.8688
X8.3812Y-2.2687
X8.5062Y-3.1187
X8.5687Y-0.7687
X8.6937Y-1.6187
X8.7562Y-3.0187
X8.8812Y-2.3687
X8.9437Y-1.5188
X9.0687Y-0.8688
X9.0687Y-3.8687
X9.1312Y-2.2687
X9.2562Y-3.1187
X9.3187Y-0.7687
X9.3187Y-3.7687
X9.4437Y-1.6187
X9.5062Y-3.0187
X9.6312Y-2.3687
X9.6937Y-1.5188
X9.8187Y-0.8688
X9.8812Y-2.2687
X10.0687Y-0.7687
X10.1937Y-1.6187
X10.2875Y-3.1187
X10.4437Y-1.5188
X10.5375Y-3.0187
X10.5687Y-3.8687
X10.8187Y-3.7687
X10.85Y-2.3687
X10.9437Y-0.8688
X11.1Y-2.2687
X11.1312Y-1.6187
X11.1937Y-0.7687
X11.3187Y-3.1187
X11.3187Y-3.8687
X11.3812Y-1.5188
X11.5687Y-3.0187
X11.5687Y-3.7687
X12.0687Y-1.6187
X12.0687Y-2.3687
X12.0687Y-3.1187
X12.0687Y-3.8687
X12.3187Y-1.5188
X12.3187Y-2.2687
X12.3187Y-3.0187
X12.3187Y-3.7687
T4
X0.9688Y-2.9438
X1.9062Y-2.9438
X3.9688Y-4.25
X8.4688Y-4.25
X10.5312Y-2.1938
X10.625Y-0.6937
X11.4688Y-2.1938
X11.5625Y-0.6937
M30
