M48
; DRILL file {KiCad 8.0.4} date 2024-09-08T22:21:26-0700
; FORMAT={-:-/ absolute / inch / decimal}
; #@! TF.CreationDate,2024-09-08T22:21:26-07:00
; #@! TF.GenerationSoftware,Kicad,Pcbnew,8.0.4
; #@! TF.FileFunction,NonPlated,1,2,NPTH
FMAT,2
INCH
; #@! TA.AperFunction,NonPlated,NPTH,ComponentDrill
T1C0.0689
; #@! TA.AperFunction,NonPlated,NPTH,ComponentDrill
T2C0.1570
%
G90
G05
T1
X0.7687Y-0.9688
X0.9562Y-1.7188
X0.9562Y-3.9688
X1.05Y-2.4688
X1.1687Y-0.9688
X1.2375Y-3.2188
X1.3562Y-1.7188
X1.3562Y-3.9688
X1.45Y-2.4688
X1.5188Y-0.9688
X1.6375Y-3.2188
X1.8938Y-1.7188
X1.9187Y-0.9688
X2.0812Y-2.4688
X2.2687Y-0.9688
X2.2937Y-1.7188
X2.4562Y-3.2188
X2.4812Y-2.4688
X2.6437Y-1.7188
X2.6687Y-0.9688
X2.8312Y-2.4688
X2.8312Y-3.9688
X2.8562Y-3.2188
X3.0187Y-0.9688
X3.0437Y-1.7188
X3.2062Y-3.2188
X3.2312Y-2.4688
X3.2312Y-3.9688
X3.3937Y-1.7188
X3.4187Y-0.9688
X3.5812Y-2.4688
X3.6062Y-3.2188
X3.7687Y-0.9688
X3.7937Y-1.7188
X3.9562Y-3.2188
X3.9812Y-2.4688
X4.1437Y-1.7188
X4.1688Y-0.9688
X4.3312Y-2.4688
X4.3563Y-3.2188
X4.5187Y-0.9688
X4.5438Y-1.7188
X4.7062Y-3.2188
X4.7313Y-2.4688
X4.8937Y-1.7188
X4.9188Y-0.9688
X5.0812Y-2.4688
X5.1063Y-3.2188
X5.2687Y-0.9688
X5.2938Y-1.7188
X5.4562Y-3.2188
X5.4813Y-2.4688
X5.6437Y-1.7188
X5.6688Y-0.9688
X5.8312Y-2.4688
X5.8563Y-3.2188
X6.0187Y-0.9688
X6.0187Y-3.9688
X6.0438Y-1.7188
X6.2062Y-3.2188
X6.2313Y-2.4688
X6.3937Y-1.7188
X6.4188Y-0.9688
X6.4188Y-3.9688
X6.5812Y-2.4688
X6.6063Y-3.2188
X6.7687Y-0.9688
X6.7938Y-1.7188
X6.9562Y-3.2188
X6.9813Y-2.4688
X7.1437Y-1.7188
X7.1688Y-0.9688
X7.3312Y-2.4688
X7.3563Y-3.2188
X7.5187Y-0.9688
X7.5438Y-1.7188
X7.7062Y-3.2188
X7.7313Y-2.4688
X7.8937Y-1.7188
X7.9188Y-0.9688
X8.0812Y-2.4688
X8.1062Y-3.2188
X8.2687Y-0.9688
X8.2937Y-1.7188
X8.4562Y-3.2188
X8.4812Y-2.4688
X8.6437Y-1.7188
X8.6687Y-0.9688
X8.8312Y-2.4688
X8.8562Y-3.2188
X9.0187Y-0.9688
X9.0187Y-3.9688
X9.0437Y-1.7188
X9.2062Y-3.2188
X9.2312Y-2.4688
X9.3937Y-1.7188
X9.4187Y-0.9688
X9.4187Y-3.9688
X9.5812Y-2.4688
X9.6062Y-3.2188
X9.7687Y-0.9688
X9.7937Y-1.7188
X9.9812Y-2.4688
X10.1437Y-1.7188
X10.1687Y-0.9688
X10.2375Y-3.2188
X10.5187Y-3.9688
X10.5437Y-1.7188
X10.6375Y-3.2188
X10.8Y-2.4688
X10.8937Y-0.9688
X10.9187Y-3.9688
X11.0812Y-1.7188
X11.2Y-2.4688
X11.2687Y-3.2188
X11.2687Y-3.9688
X11.2937Y-0.9688
X11.4812Y-1.7188
X11.6687Y-3.2188
X11.6687Y-3.9688
X12.0187Y-1.7188
X12.0187Y-2.4688
X12.0187Y-3.2188
X12.0187Y-3.9688
X12.4187Y-1.7188
X12.4187Y-2.4688
X12.4187Y-3.2188
X12.4187Y-3.9688
T2
X0.9688Y-0.9688
X0.9688Y-3.5437
X1.1562Y-1.7188
X1.1562Y-3.9688
X1.25Y-2.4688
X1.4375Y-3.2188
X1.7188Y-0.9688
X1.9062Y-3.5437
X2.0938Y-1.7188
X2.2812Y-2.4688
X2.4688Y-0.9688
X2.6562Y-3.2188
X2.8438Y-1.7188
X3.0312Y-2.4688
X3.0312Y-3.9688
X3.2188Y-0.9688
X3.4062Y-3.2188
X3.5938Y-1.7188
X3.7812Y-2.4688
X3.9688Y-0.9688
X3.9688Y-3.65
X4.1562Y-3.2188
X4.3438Y-1.7188
X4.5312Y-2.4688
X4.7188Y-0.9688
X4.9062Y-3.2188
X5.0938Y-1.7188
X5.2812Y-2.4688
X5.4688Y-0.9688
X5.6562Y-3.2188
X5.8438Y-1.7188
X6.0312Y-2.4688
X6.2188Y-0.9688
X6.2188Y-3.9688
X6.4062Y-3.2188
X6.5938Y-1.7188
X6.7812Y-2.4688
X6.9688Y-0.9688
X7.1562Y-3.2188
X7.3438Y-1.7188
X7.5312Y-2.4688
X7.7188Y-0.9688
X7.9062Y-3.2188
X8.0938Y-1.7188
X8.2812Y-2.4688
X8.4688Y-0.9688
X8.4688Y-3.65
X8.6562Y-3.2188
X8.8438Y-1.7188
X9.0312Y-2.4688
X9.2188Y-0.9688
X9.2188Y-3.9688
X9.4062Y-3.2188
X9.5938Y-1.7188
X9.7812Y-2.4688
X9.9688Y-0.9688
X10.3438Y-1.7188
X10.4375Y-3.2188
X10.5312Y-2.7937
X10.625Y-1.2937
X10.7188Y-3.9688
X11.0Y-2.4688
X11.0938Y-0.9688
X11.2812Y-1.7188
X11.4688Y-2.7937
X11.4688Y-3.2188
X11.4688Y-3.9688
X11.5625Y-1.2937
X12.2188Y-1.7188
X12.2188Y-2.4688
X12.2188Y-3.2188
X12.2188Y-3.9688
M30
